<svg width="20" height="20" viewBox="0 0 20 20" fill="none" xmlns="http://www.w3.org/2000/svg">
<g id="padlock (1) 1" clip-path="url(#clip0_1111_31630)">
<g id="Group">
<g id="Group_2">
<path id="Vector" d="M19.9384 5.05015C19.7936 4.76062 19.4412 4.64445 19.1522 4.78808L16.8085 5.95996C16.5189 6.10472 16.4016 6.45664 16.5464 6.74617C16.691 7.03453 17.0411 7.153 17.3326 7.00824L19.6763 5.83636C19.9658 5.6916 20.0831 5.33968 19.9384 5.05015Z" fill="#49B776"/>
</g>
</g>
<g id="Group_3">
<g id="Group_4">
<path id="Vector_2" d="M19.6763 11.8197L17.3326 10.6478C17.0431 10.5036 16.6917 10.6198 16.5464 10.9099C16.4016 11.1994 16.5189 11.5513 16.8085 11.6961L19.1522 12.868C19.4445 13.0132 19.7943 12.8933 19.9384 12.6059C20.0831 12.3164 19.9658 11.9644 19.6763 11.8197Z" fill="#49B776"/>
</g>
</g>
<g id="Group_5">
<g id="Group_6">
<path id="Vector_3" d="M13.4764 9.45325H4.68746V6.44548C4.68746 4.83013 6.0018 3.51583 7.61711 3.51583C9.23242 3.51583 10.5468 4.83017 10.5468 6.44548V7.61735C10.5468 7.94122 10.8088 8.20329 11.1327 8.20329H13.4764C13.8003 8.20329 14.0623 7.94122 14.0623 7.61735V6.44548C14.0623 2.89157 11.171 0.000244141 7.61711 0.000244141C4.0632 0.000244141 1.17188 2.89157 1.17188 6.44548V9.56118C0.491328 9.80388 0 10.4482 0 11.211V18.2422C0 19.2115 0.788516 20 1.75777 20H13.4764C14.4457 20 15.2342 19.2115 15.2342 18.2422V11.211C15.2342 10.2417 14.4457 9.45325 13.4764 9.45325ZM8.20305 15.2046V17.0703C8.20305 17.3942 7.94098 17.6563 7.61711 17.6563C7.29324 17.6563 7.03117 17.3942 7.03117 17.0703V15.2046C6.35063 14.9619 5.8593 14.3176 5.8593 13.5548C5.8593 12.5855 6.64781 11.797 7.61711 11.797C8.58641 11.797 9.37488 12.5855 9.37488 13.5548C9.37488 14.3177 8.88355 14.9619 8.20305 15.2046Z" fill="#49B776"/>
</g>
</g>
<g id="Group_7">
<g id="Group_8">
<path id="Vector_4" d="M19.414 8.24219H17.0703C16.7464 8.24219 16.4844 8.50426 16.4844 8.82812C16.4844 9.15199 16.7464 9.41406 17.0703 9.41406H19.414C19.7379 9.41406 20 9.15199 20 8.82812C20 8.50426 19.7379 8.24219 19.414 8.24219Z" fill="#49B776"/>
</g>
</g>
</g>
<defs>
<clipPath id="clip0_1111_31630">
<rect width="20" height="20" fill="white"/>
</clipPath>
</defs>
</svg>
