<svg xmlns="http://www.w3.org/2000/svg" width="24" height="24" viewBox="0 0 24 24">
  <g id="Discliamer_Icon" data-name="Discliamer Icon" transform="translate(-948 -1080)">
    <g id="Base" transform="translate(948 1080)" fill="#fff" stroke="#707070" stroke-width="1" opacity="0">
      <rect width="24" height="24" stroke="none"/>
      <rect x="0.5" y="0.5" width="23" height="23" fill="none"/>
    </g>
    <g id="Page-1" transform="translate(950.991 1083)">
      <g id="_070---Alert" data-name="070---Alert" transform="translate(0.009 0)">
        <path id="Shape" d="M.234,14.911,7.1,1.18a2.134,2.134,0,0,1,3.817,0l6.864,13.731A2.135,2.135,0,0,1,15.869,18H2.143a2.135,2.135,0,0,1-1.909-3.09Z" transform="translate(-0.009 0)" fill="#e57e25"/>
        <path id="Shape-2" data-name="Shape" d="M8.576,9.276,4.1,18.224a.893.893,0,0,0,.8,1.293H18.627a.893.893,0,0,0,.8-1.294L12.563,4.494a.893.893,0,0,0-1.6,0l-.839,1.679L9.662,7.1Z" transform="translate(-2.768 -2.759)" fill="#f0c419"/>
        <g id="Group_994" data-name="Group 994" transform="translate(7.787 5.586)">
          <path id="Shape-3" data-name="Shape" d="M27.049,23.276l-.093.961a.31.31,0,0,1-.309.281h-.676a.31.31,0,0,1-.309-.281l-.562-5.9A.31.31,0,0,1,25.41,18h1.8a.31.31,0,0,1,.31.34l-.294,3.074Z" transform="translate(-25.099 -18)" fill="#2c3e50"/>
          <circle id="Oval" cx="0.931" cy="0.931" r="0.931" transform="translate(0.279 7.759)" fill="#2c3e50"/>
        </g>
      </g>
    </g>
  </g>
</svg>
