<svg xmlns="http://www.w3.org/2000/svg" width="30" height="30" viewBox="0 0 30 30">
  <g id="Settings_" data-name="Settings " transform="translate(-79 -228)">
    <rect id="Base" width="30" height="30" transform="translate(79 228)" fill="#347af0" opacity="0"/>
    <g id="System_Fil" data-name="System Fil" transform="translate(81.5 230.5)">
      <g id="Group_983" data-name="Group 983" transform="translate(0 7.056)">
        <g id="Group_982" data-name="Group 982">
          <path id="Path_3196" data-name="Path 3196" d="M16.439,25.445a7.483,7.483,0,0,0-.048-1.809l1.37-.611a9.025,9.025,0,0,0-1.654-3.715l-1.371.61a7.508,7.508,0,0,0-1.313-1.245l.537-1.4a9.065,9.065,0,0,0-3.8-1.459l-.538,1.4a7.483,7.483,0,0,0-1.809.048L7.211,15.9A9.058,9.058,0,0,0,3.5,17.565l.6,1.354a7.5,7.5,0,0,0-1.246,1.313L1.46,19.7a8.9,8.9,0,0,0-.95,1.814A9.166,9.166,0,0,0,0,23.491l1.4.537a7.483,7.483,0,0,0,.048,1.809l-1.37.61a9.018,9.018,0,0,0,1.655,3.715l1.37-.61A7.481,7.481,0,0,0,4.415,30.8l-.537,1.4a9.065,9.065,0,0,0,3.8,1.459l.538-1.4a7.506,7.506,0,0,0,1.809-.048l.607,1.363a9.057,9.057,0,0,0,3.712-1.664l-.6-1.354a7.5,7.5,0,0,0,1.246-1.313l1.4.536a8.912,8.912,0,0,0,.95-1.814,9.068,9.068,0,0,0,.512-1.981Zm-3.722.749a4.067,4.067,0,1,1-2.341-5.254A4.067,4.067,0,0,1,12.717,26.194Z" transform="translate(0 -15.816)" fill="#347af0"/>
        </g>
      </g>
      <g id="Group_985" data-name="Group 985" transform="translate(14.336)">
        <g id="Group_984" data-name="Group 984">
          <path id="Path_3197" data-name="Path 3197" d="M41.592,5.633a4.374,4.374,0,0,0-.075-.795l1.05-.607a5.512,5.512,0,0,0-1.45-2.517l-1.053.608a4.327,4.327,0,0,0-1.376-.794V.314a5.374,5.374,0,0,0-2.9,0V1.529a4.34,4.34,0,0,0-1.376.794l-1.053-.608A5.524,5.524,0,0,0,31.9,4.232l1.051.607a4.2,4.2,0,0,0,0,1.59L31.9,7.035a5.522,5.522,0,0,0,1.45,2.517l1.053-.608a4.332,4.332,0,0,0,1.376.794v1.215a5.374,5.374,0,0,0,2.9,0V9.737a4.335,4.335,0,0,0,1.376-.794l1.053.608a5.512,5.512,0,0,0,1.45-2.517l-1.05-.607A4.343,4.343,0,0,0,41.592,5.633ZM37.236,7.666a2.034,2.034,0,1,1,2.033-2.034A2.034,2.034,0,0,1,37.236,7.666Z" transform="translate(-31.903 -0.114)" fill="#347af0"/>
        </g>
      </g>
    </g>
  </g>
</svg>
