<svg width="24" height="24" viewBox="0 0 24 24" fill="none" xmlns="http://www.w3.org/2000/svg">
<g id="Icon">
<g id="Group 993">
<g id="Group 992">
<path id="Path 3552" d="M4 6.0002H6V9.0002H16V6.0002H18V11.0002H20V6.0002C19.9984 5.47026 19.7872 4.96247 19.4125 4.58774C19.0377 4.21301 18.5299 4.00179 18 4.0002H13.82C13.6152 3.41564 13.2339 2.90916 12.7287 2.55082C12.2235 2.19248 11.6194 2 11 2C10.3806 2 9.77653 2.19248 9.27133 2.55082C8.76612 2.90916 8.38476 3.41564 8.18 4.0002H4C3.47005 4.00179 2.96227 4.21301 2.58753 4.58774C2.2128 4.96247 2.00158 5.47026 2 6.0002V20.0002C2.00158 20.5301 2.2128 21.0379 2.58753 21.4127C2.96227 21.7874 3.47005 21.9986 4 22.0002H10V20.0002H4V6.0002ZM11 4.0002C11.1978 4.0002 11.3911 4.05885 11.5556 4.16873C11.72 4.27861 11.8482 4.43479 11.9239 4.61752C11.9996 4.80025 12.0194 5.00131 11.9808 5.19529C11.9422 5.38927 11.847 5.56746 11.7071 5.70731C11.5673 5.84716 11.3891 5.9424 11.1951 5.98099C11.0011 6.01957 10.8 5.99977 10.6173 5.92408C10.4346 5.84839 10.2784 5.72022 10.1685 5.55577C10.0586 5.39132 10 5.19798 10 5.0002C10 4.73499 10.1054 4.48063 10.2929 4.2931C10.4804 4.10556 10.7348 4.0002 11 4.0002Z" fill="white"/>
<path id="Path 3553" d="M20 12.5L14.51 18L11.5 15L10 16.5L14.51 21L21.5 14L20 12.5Z" fill="white"/>
</g>
</g>
</g>
</svg>
