<svg width="24" height="24" viewBox="0 0 24 24" fill="none" xmlns="http://www.w3.org/2000/svg">
<g id="Icon">
<g id="Group 990">
<g id="Group 989">
<g id="Group 988">
<g id="Group 987">
<path id="Path 3548" d="M17.0002 13.0002C20.0902 10.1902 23.0002 7.56019 23.0002 5.30019C23.0049 4.86553 22.9227 4.4343 22.7585 4.03181C22.5944 3.62932 22.3515 3.26367 22.0441 2.9563C21.7367 2.64893 21.3711 2.40603 20.9686 2.24184C20.5661 2.07766 20.1349 1.9955 19.7002 2.00019C19.1872 2.00517 18.6812 2.1192 18.2157 2.33471C17.7502 2.55022 17.3359 2.86229 17.0002 3.25019C16.6639 2.86308 16.2494 2.55156 15.784 2.33611C15.3187 2.12067 14.813 2.00619 14.3002 2.00019C13.8655 1.9955 13.4343 2.07766 13.0318 2.24184C12.6293 2.40603 12.2637 2.64893 11.9563 2.9563C11.6489 3.26367 11.406 3.62932 11.2418 4.03181C11.0777 4.4343 10.9955 4.86553 11.0002 5.30019C11.0002 7.56019 13.9102 10.1902 17.0002 13.0002ZM14.3002 4.00019C14.5245 4.00341 14.7457 4.05409 14.9491 4.14888C15.1524 4.24368 15.3334 4.38044 15.4802 4.55019L17.0002 6.34019L18.5202 4.55019C18.6669 4.38044 18.8479 4.24368 19.0513 4.14888C19.2547 4.05409 19.4758 4.00341 19.7002 4.00019C19.8719 3.99651 20.0426 4.02762 20.202 4.09164C20.3614 4.15567 20.5062 4.25129 20.6276 4.37275C20.7491 4.49421 20.8447 4.63899 20.9087 4.79838C20.9728 4.95777 21.0039 5.12846 21.0002 5.30019C21.0002 6.42019 18.9602 8.47019 17.0002 10.2902C15.0402 8.47019 13.0002 6.41019 13.0002 5.30019C12.9965 5.12846 13.0276 4.95777 13.0916 4.79838C13.1557 4.63899 13.2513 4.49421 13.3728 4.37275C13.4942 4.25129 13.639 4.15567 13.7984 4.09164C13.9578 4.02762 14.1285 3.99651 14.3002 4.00019Z" fill="white"/>
<path id="Path 3549" d="M20 16H18C17.9992 15.4133 17.8198 14.8408 17.4858 14.3585C17.1518 13.8763 16.6789 13.5071 16.13 13.3L9.97 11H2V22H8V20.56L15 22.5L23 20V19C23 18.2044 22.6839 17.4413 22.1213 16.8787C21.5587 16.3161 20.7956 16 20 16ZM4 20V13H6V20H4ZM14.97 20.41L8 18.48V13H9.61L15.43 15.17C15.5977 15.2346 15.7419 15.3485 15.8437 15.4966C15.9454 15.6448 15.9999 15.8203 16 16C15.2312 15.9902 14.4635 15.9401 13.7 15.85L11.32 15.06L10.69 16.96L13.07 17.75C13.5792 17.9213 14.1128 18.0091 14.65 18.01H20C20.1872 18.0106 20.3706 18.0632 20.5296 18.1621C20.6885 18.2611 20.8168 18.4023 20.9 18.57L14.97 20.41Z" fill="white"/>
</g>
</g>
</g>
</g>
</g>
</svg>
