<svg width="22" height="22" viewBox="0 0 22 22" fill="none" xmlns="http://www.w3.org/2000/svg">
<g id="user (15) 1" clip-path="url(#clip0_1111_31889)">
<g id="Group">
<path id="Vector" d="M7.7 11.5469C3.41 11.5469 0 14.9569 0 19.2469V20.3469H15.4V19.2469C15.4 14.9569 11.99 11.5469 7.7 11.5469ZM2.31 18.1469C2.86 15.6169 5.06 13.7469 7.7 13.7469C10.34 13.7469 12.54 15.6169 13.09 18.1469H2.31Z" fill="white"/>
<path id="Vector_2" d="M7.70078 10.4484C10.1208 10.4484 12.1008 8.46844 12.1008 6.04844C12.1008 3.62844 10.1208 1.64844 7.70078 1.64844C5.28078 1.64844 3.30078 3.62844 3.30078 6.04844C3.30078 8.46844 5.28078 10.4484 7.70078 10.4484ZM7.70078 3.84844C8.91078 3.84844 9.90078 4.83844 9.90078 6.04844C9.90078 7.25844 8.91078 8.24844 7.70078 8.24844C6.49078 8.24844 5.50078 7.25844 5.50078 6.04844C5.50078 4.83844 6.49078 3.84844 7.70078 3.84844Z" fill="white"/>
<path id="Vector_3" d="M20.4612 6.59766L16.8312 10.2277L15.0712 8.57766L13.5312 10.1177L16.8312 13.4177L22.0012 8.13766L20.4612 6.59766Z" fill="white"/>
</g>
</g>
<defs>
<clipPath id="clip0_1111_31889">
<rect width="22" height="22" fill="white"/>
</clipPath>
</defs>
</svg>
