<svg width="24" height="24" viewBox="0 0 24 24" fill="none" xmlns="http://www.w3.org/2000/svg">
<g id="Icon">
<path id="Path 3545" d="M22 10V6C22 5.46957 21.7893 4.96086 21.4142 4.58579C21.0391 4.21071 20.5304 4 20 4H4C3.73786 4.00013 3.47833 4.05202 3.2363 4.1527C2.99427 4.25338 2.7745 4.40086 2.58961 4.58668C2.40471 4.77251 2.25833 4.99301 2.15887 5.23554C2.05941 5.47808 2.00882 5.73787 2.01 6V10C2.54043 10.0013 3.04861 10.2133 3.42275 10.5893C3.79688 10.9653 4.00633 11.4746 4.005 12.005C4.00367 12.5354 3.79169 13.0436 3.41568 13.4177C3.03967 13.7919 2.53043 14.0013 2 14V18C2.00158 18.5299 2.2128 19.0377 2.58753 19.4125C2.96227 19.7872 3.47005 19.9984 4 20H20C20.5299 19.9984 21.0377 19.7872 21.4125 19.4125C21.7872 19.0377 21.9984 18.5299 22 18V14C21.4696 14 20.9609 13.7893 20.5858 13.4142C20.2107 13.0391 20 12.5304 20 12C20 11.4696 20.2107 10.9609 20.5858 10.5858C20.9609 10.2107 21.4696 10 22 10ZM20 8.54C19.3921 8.89019 18.8871 9.39438 18.536 10.0018C18.185 10.6092 18.0001 11.2984 18.0001 12C18.0001 12.7016 18.185 13.3908 18.536 13.9982C18.8871 14.6056 19.3921 15.1098 20 15.46V18H4V15.46C4.60659 15.1083 5.11044 14.6037 5.46135 13.9967C5.81225 13.3896 5.99797 12.7012 6 12C6.0011 11.2994 5.81779 10.6108 5.46848 10.0034C5.11917 9.39609 4.61616 8.89137 4.01 8.54L4 6H20V8.54ZM11 15H13V17H11V15ZM11 11H13V13H11V11ZM11 7H13V9H11V7Z" fill="white"/>
</g>
</svg>
