<svg xmlns="http://www.w3.org/2000/svg" width="24" height="24" viewBox="0 0 24 24">
  <g id="Twitter_Icon" data-name="Twitter Icon" transform="translate(4058 -8405)">
    <path id="Path_3972" data-name="Path 3972" d="M44.017,17.411A10.985,10.985,0,0,0,55.1,6.328V5.8A8.58,8.58,0,0,0,57,3.794a8.762,8.762,0,0,1-2.217.633,4.107,4.107,0,0,0,1.689-2.111,9.682,9.682,0,0,1-2.428.95A3.77,3.77,0,0,0,51.194,2a3.966,3.966,0,0,0-3.906,3.906,2.058,2.058,0,0,0,.106.844,10.913,10.913,0,0,1-8.022-4.117,4.042,4.042,0,0,0-.528,2.006,4.194,4.194,0,0,0,1.689,3.272,3.558,3.558,0,0,1-1.794-.528h0a3.858,3.858,0,0,0,3.167,3.8,3.254,3.254,0,0,1-1.056.106,1.8,1.8,0,0,1-.739-.106,4,4,0,0,0,3.694,2.744,7.97,7.97,0,0,1-4.856,1.689,2.922,2.922,0,0,1-.95-.106,9.963,9.963,0,0,0,6.017,1.9" transform="translate(-4093 8407)" fill="#fff"/>
    <g id="Base" transform="translate(-4058 8405)" fill="#fff" stroke="#707070" stroke-width="1" opacity="0.003">
      <rect width="24" height="24" stroke="none"/>
      <rect x="0.5" y="0.5" width="23" height="23" fill="none"/>
    </g>
  </g>
</svg>
