<svg id="Yelp_Icon" data-name="Yelp Icon" xmlns="http://www.w3.org/2000/svg" width="40" height="40" viewBox="0 0 40 40">
  <rect id="Base" width="40" height="40" rx="12" fill="#49B776"/>
  <g id="yelp_1_" data-name="yelp (1)" transform="translate(10 8)">
    <path id="Path_3973" data-name="Path 3973" d="M135.664,336.421a2.167,2.167,0,0,0-1.467.808l-3.1,3.218a1.954,1.954,0,0,0,.7,3.355l2.1.871a2.526,2.526,0,0,0,.966.2h0a1.937,1.937,0,0,0,1.9-2.082l.083-4.468a2.18,2.18,0,0,0-.459-1.6A1,1,0,0,0,135.664,336.421Z" transform="translate(-126.464 -320.218)" fill="#fff"/>
    <path id="Path_3974" data-name="Path 3974" d="M129.42,0a2.722,2.722,0,0,0-.639.079l-3,.725a2.236,2.236,0,0,0-1.6,1.264,2.236,2.236,0,0,0,.194,2.032l4.375,7.532c.439.755.885,1.141,1.326,1.147h.011a.721.721,0,0,0,.148-.015c.512-.107.8-.678.851-1.7l.452-8.7a2.308,2.308,0,0,0-.585-1.736A2.085,2.085,0,0,0,129.42,0Z" transform="translate(-120.377)" fill="#fff"/>
    <path id="Path_3975" data-name="Path 3975" d="M292.713,321.072l-4.223-1.46a3.165,3.165,0,0,0-1.014-.2,1.145,1.145,0,0,0-1.067.519,1.914,1.914,0,0,0,.218,1.86l2.1,3.943a2.048,2.048,0,0,0,1.783,1.2h0a2.163,2.163,0,0,0,1.624-.833l1.478-1.73a1.954,1.954,0,0,0-.9-3.307Z" transform="translate(-274.793 -304.032)" fill="#fff"/>
    <path id="Path_3976" data-name="Path 3976" d="M299.852,151.5l-1.189-1.94a2.085,2.085,0,0,0-1.747-1.1,2.121,2.121,0,0,0-1.676.932l-2.693,3.566c-.317.419-.8,1.22-.474,1.873a1.326,1.326,0,0,0,1.319.637h0a3.78,3.78,0,0,0,.655-.063l4.4-.782a1.954,1.954,0,0,0,1.406-3.125Z" transform="translate(-280.233 -141.312)" fill="#fff"/>
    <path id="Path_3977" data-name="Path 3977" d="M56.82,225.092c.045-.573-.406-1.119-1.27-1.54L51.531,221.6a2.458,2.458,0,0,0-1.077-.266,1.938,1.938,0,0,0-1.9,1.968l-.178,2.268a2.191,2.191,0,0,0,.511,1.688,1.863,1.863,0,0,0,1.393.579,2.644,2.644,0,0,0,.768-.12l4.275-1.3C56.244,226.134,56.775,225.664,56.82,225.092Z" transform="translate(-48.369 -210.672)" fill="#fff"/>
  </g>
</svg>
