<svg xmlns="http://www.w3.org/2000/svg" width="24" height="24" viewBox="0 0 24 24">
  <g id="Yelp_Icon" data-name="Yelp Icon" transform="translate(4173 -8318)">
    <g id="yelp_1_" data-name="yelp (1)" transform="translate(-4217.369 8320)">
      <path id="Path_3973" data-name="Path 3973" d="M134.877,336.421a1.842,1.842,0,0,0-1.247.687l-2.635,2.736a1.661,1.661,0,0,0,.595,2.851l1.787.74a2.148,2.148,0,0,0,.821.174h0a1.646,1.646,0,0,0,1.616-1.77l.071-3.8a1.853,1.853,0,0,0-.39-1.361A.848.848,0,0,0,134.877,336.421Z" transform="translate(-78.687 -322.649)" fill="#fff"/>
      <path id="Path_3974" data-name="Path 3974" d="M128.61,0a2.314,2.314,0,0,0-.543.067l-2.547.616a1.9,1.9,0,0,0-1.362,1.075,1.9,1.9,0,0,0,.165,1.727l3.719,6.4c.373.641.752.969,1.127.975h.009a.613.613,0,0,0,.126-.013c.435-.091.679-.576.724-1.442l.384-7.395a1.962,1.962,0,0,0-.5-1.476A1.772,1.772,0,0,0,128.61,0Z" transform="translate(-72.554)" fill="#fff"/>
      <path id="Path_3975" data-name="Path 3975" d="M291.744,320.823l-3.59-1.241a2.69,2.69,0,0,0-.862-.166.974.974,0,0,0-.907.441,1.627,1.627,0,0,0,.185,1.581l1.787,3.352a1.741,1.741,0,0,0,1.515,1.024h0a1.838,1.838,0,0,0,1.38-.708l1.256-1.471a1.661,1.661,0,0,0-.765-2.811Z" transform="translate(-228.143 -306.34)" fill="#fff"/>
      <path id="Path_3976" data-name="Path 3976" d="M298.669,151.045l-1.011-1.649a1.772,1.772,0,0,0-1.485-.934,1.8,1.8,0,0,0-1.425.792l-2.289,3.031c-.269.356-.68,1.037-.4,1.592a1.127,1.127,0,0,0,1.121.541h0a3.211,3.211,0,0,0,.556-.053l3.74-.664a1.661,1.661,0,0,0,1.195-2.656Z" transform="translate(-233.623 -142.384)" fill="#fff"/>
      <path id="Path_3977" data-name="Path 3977" d="M55.553,224.528c.038-.487-.345-.952-1.08-1.309l-3.416-1.661a2.089,2.089,0,0,0-.915-.226A1.647,1.647,0,0,0,48.529,223l-.152,1.928a1.862,1.862,0,0,0,.434,1.434A1.584,1.584,0,0,0,50,226.86a2.248,2.248,0,0,0,.653-.1l3.634-1.106C55.063,225.413,55.514,225.014,55.553,224.528Z" transform="translate(0 -212.271)" fill="#fff"/>
    </g>
    <g id="Base" transform="translate(-4173 8318)" fill="#fff" stroke="#707070" stroke-width="1" opacity="0">
      <rect width="24" height="24" stroke="none"/>
      <rect x="0.5" y="0.5" width="23" height="23" fill="none"/>
    </g>
  </g>
</svg>
