<svg xmlns="http://www.w3.org/2000/svg" width="24" height="24" viewBox="0 0 24 24"><defs><style>.a,.b{fill:#545f7e;}.a{stroke:#707070;opacity:0;}.c{stroke:none;}.d{fill:none;}</style></defs><g transform="translate(1847 3586)"><g class="a" transform="translate(-1847 -3586)"><rect class="c" width="24" height="24"/><rect class="d" x="0.5" y="0.5" width="23" height="23"/></g><g transform="translate(-1844 -3583)"><g transform="translate(0.035)"><path class="b" d="M5.178,0H4.11L1.5,7.47H2.982l.393-1.122H5.884L6.271,7.47H7.755ZM3.866,4.945l.773-2.207L5.4,4.945Z" transform="translate(-1.496)"/></g><g transform="translate(9.248)"><path class="b" d="M271.279,12.65l-2.665,2.665V0h-1.4V15.315l-2.665-2.665-.992.992L267.913,18l4.358-4.358Z" transform="translate(-263.555)"/></g><g transform="translate(0 10.52)"><path class="b" d="M6.881,299.247H.5v1.4H4.772L.5,305.615v1.1H6.811v-1.4h-4.2l4.273-4.965Z" transform="translate(-0.499 -299.247)"/></g></g></g></svg>