<svg xmlns="http://www.w3.org/2000/svg" width="18" height="18" viewBox="0 0 18 18">
  <g id="Email_Icon" data-name="Email Icon" transform="translate(9 10)">
    <g id="Base" transform="translate(-9 -10)" fill="#49B776" stroke="#707070" stroke-width="1" opacity="0.002">
      <rect width="18" height="18" stroke="none"/>
      <rect x="0.5" y="0.5" width="17" height="17" fill="none"/>
    </g>
    <g id="email_1_" data-name="email (1)" transform="translate(-6.75 -5.5)">
      <g id="Group_997" data-name="Group 997" transform="translate(0.692 5.306)">
        <g id="Group_996" data-name="Group 996" transform="translate(0 0)">
          <path id="Path_3589" data-name="Path 3589" d="M34.282,277.251l-1.131,1.134a1.251,1.251,0,0,1-1.734,0l-1.131-1.134-4.061,4.074a1.175,1.175,0,0,0,.5.112H37.848a1.174,1.174,0,0,0,.495-.112Z" transform="translate(-26.226 -277.251)" fill="#49B776"/>
        </g>
      </g>
      <g id="Group_999" data-name="Group 999" transform="translate(0.692)">
        <g id="Group_998" data-name="Group 998" transform="translate(0 0)">
          <path id="Path_3590" data-name="Path 3590" d="M37.85,76H26.723a1.174,1.174,0,0,0-.495.112l4.339,4.354h0l1.411,1.416a.475.475,0,0,0,.614,0L34,80.467h0l4.339-4.354A1.174,1.174,0,0,0,37.85,76Z" transform="translate(-26.228 -76)" fill="#49B776"/>
        </g>
      </g>
      <g id="Group_1001" data-name="Group 1001" transform="translate(0 0.665)">
        <g id="Group_1000" data-name="Group 1000" transform="translate(0 0)">
          <path id="Path_3591" data-name="Path 3591" d="M.126,101.212a1.172,1.172,0,0,0-.126.522v7.119a1.172,1.172,0,0,0,.126.522l4.068-4.081Z" transform="translate(0 -101.212)" fill="#49B776"/>
        </g>
      </g>
      <g id="Group_1003" data-name="Group 1003" transform="translate(9.306 0.665)">
        <g id="Group_1002" data-name="Group 1002" transform="translate(0 0)">
          <path id="Path_3592" data-name="Path 3592" d="M357,101.21l-4.068,4.082L357,109.373a1.171,1.171,0,0,0,.126-.522v-7.119A1.172,1.172,0,0,0,357,101.21Z" transform="translate(-352.933 -101.21)" fill="#49B776"/>
        </g>
      </g>
    </g>
  </g>
</svg>
