<svg xmlns="http://www.w3.org/2000/svg" width="18" height="18" viewBox="0 0 18 18"><defs><style>.a{fill:#49B776;stroke:#707070;opacity:0;}.b{fill:#49B776;}.c{stroke:none;}.d{fill:none;}</style></defs><g transform="translate(-18247 -7056)"><g class="a" transform="translate(18247 7056)"><rect class="c" width="18" height="18"/><rect class="d" x="0.5" y="0.5" width="17" height="17"/></g><g transform="translate(18184.732 6978.666)"><path class="b" d="M76.852,81.432h-7.8a1.609,1.609,0,0,0-3.052,0H64.779a.512.512,0,0,0,0,1.025H66a1.609,1.609,0,0,0,3.052,0h7.8a.512.512,0,1,0,0-1.025Zm-9.329,1.1a.585.585,0,1,1,.585-.585A.586.586,0,0,1,67.523,82.529Z" transform="translate(0)"/><path class="b" d="M76.852,209.965H75.634a1.609,1.609,0,0,0-3.052,0h-7.8a.512.512,0,1,0,0,1.025h7.8a1.609,1.609,0,0,0,3.052,0h1.218a.512.512,0,1,0,0-1.025Zm-2.744,1.1a.585.585,0,1,1,.585-.585A.586.586,0,0,1,74.108,211.062Z" transform="translate(0 -124.143)"/><path class="b" d="M76.852,338.5H71.244a1.609,1.609,0,0,0-3.052,0H64.779a.512.512,0,1,0,0,1.025h3.413a1.609,1.609,0,0,0,3.052,0h5.608a.512.512,0,1,0,0-1.025Zm-7.134,1.1a.585.585,0,1,1,.585-.585A.586.586,0,0,1,69.718,339.6Z" transform="translate(0 -248.286)"/></g></g></svg>