<svg xmlns="http://www.w3.org/2000/svg" width="24" height="24" viewBox="0 0 24 24">
  <g id="Insert_Link_Icon" data-name="Insert Link Icon" transform="translate(-824 -1574)">
    <g id="Base" transform="translate(824 1574)" fill="#868686" stroke="#717171" stroke-width="0.5" opacity="0">
      <rect width="24" height="24" stroke="none"/>
      <rect x="0.25" y="0.25" width="23.5" height="23.5" fill="none"/>
    </g>
    <g id="Insert_Link_Icon-2" data-name="Insert Link Icon" transform="translate(826.667 1576.667)">
      <g id="Group_275" data-name="Group 275" transform="translate(6.277)">
        <g id="Group_274" data-name="Group 274" transform="translate(0 0)">
          <path id="Path_1455" data-name="Path 1455" d="M183.268,1.281a4.375,4.375,0,0,0-6.187,0l-3.657,3.657a4.416,4.416,0,0,0,0,6.187,4.164,4.164,0,0,0,.879.667l.667-.667a1.5,1.5,0,0,0,.276-1.319,2.113,2.113,0,0,1-.276-.228,2.211,2.211,0,0,1,0-3.094l3.656-3.656a2.188,2.188,0,0,1,3.094,3.094L179.3,8.339a6.3,6.3,0,0,1,.274,2.814c.011-.01.023-.017.034-.027l3.657-3.657A4.375,4.375,0,0,0,183.268,1.281Z" transform="translate(-172.159 0)" fill="#868686"/>
        </g>
      </g>
      <g id="Group_277" data-name="Group 277" transform="translate(0 6.591)">
        <g id="Group_276" data-name="Group 276" transform="translate(0)">
          <path id="Path_1456" data-name="Path 1456" d="M11.409,181.443a4.165,4.165,0,0,0-.879-.667l-.667.667a1.5,1.5,0,0,0-.276,1.319,2.107,2.107,0,0,1,.276.228,2.211,2.211,0,0,1,0,3.094l-3.94,3.94a2.187,2.187,0,0,1-3.094-3.094l2.7-2.7a6.3,6.3,0,0,1-.274-2.814c-.011.01-.023.017-.034.028l-3.94,3.94a4.375,4.375,0,1,0,6.187,6.187l3.94-3.94A4.414,4.414,0,0,0,11.409,181.443Z" transform="translate(0 -180.776)" fill="#868686"/>
        </g>
      </g>
    </g>
  </g>
</svg>
