<svg xmlns="http://www.w3.org/2000/svg" width="24" height="24" viewBox="0 0 24 24">
  <g id="Numeric_List_Icon" data-name="Numeric List Icon" transform="translate(-597 -1563)">
    <g id="Base" transform="translate(597 1563)" fill="#868686" stroke="#717171" stroke-width="0.5" opacity="0">
      <rect width="24" height="24" stroke="none"/>
      <rect x="0.25" y="0.25" width="23.5" height="23.5" fill="none"/>
    </g>
    <g id="Numeric_List_Icon-2" data-name="Numeric List Icon" transform="translate(598.334 1567)">
      <path id="Path_1427" data-name="Path 1427" d="M29.592,47.828H15.008a.974.974,0,1,1,0-1.935H29.592a.974.974,0,1,1,0,1.935Z" transform="translate(-9.347 -31.822)" fill="#868686"/>
      <path id="Path_1428" data-name="Path 1428" d="M29.592,29H15.008a.974.974,0,1,1,0-1.935H29.592a.974.974,0,1,1,0,1.935Z" transform="translate(-9.347 -19.44)" fill="#868686"/>
      <path id="Path_1429" data-name="Path 1429" d="M29.592,10.166H15.008A1.033,1.033,0,0,1,13.92,9.2a1.033,1.033,0,0,1,1.088-.967H29.592A1.033,1.033,0,0,1,30.68,9.2,1.033,1.033,0,0,1,29.592,10.166Z" transform="translate(-9.347 -7.058)" fill="#868686"/>
      <path id="Path_1436" data-name="Path 1436" d="M14.577,21.642a2.324,2.324,0,0,0,.719-.384v2.233a.082.082,0,0,0,.082.082h.64a.082.082,0,0,0,.082-.082V20.138a.082.082,0,0,0-.082-.082H15.5a.082.082,0,0,0-.077.055,1.106,1.106,0,0,1-.376.5,1.777,1.777,0,0,1-.519.3.082.082,0,0,0-.057.078v.581a.082.082,0,0,0,.108.078Z" transform="translate(-14.018 -20.056)" fill="#868686"/>
      <path id="Path_1437" data-name="Path 1437" d="M.965,210.878a4.292,4.292,0,0,0-.735.819,1.636,1.636,0,0,0-.23.673.082.082,0,0,0,.021.064.083.083,0,0,0,.061.027H2.326a.082.082,0,0,0,.082-.082v-.595a.082.082,0,0,0-.082-.082H1.213l.035-.041c.052-.059.179-.181.378-.363a4.228,4.228,0,0,0,.428-.436,1.843,1.843,0,0,0,.268-.448,1.241,1.241,0,0,0,.087-.46.957.957,0,0,0-.308-.723,1.17,1.17,0,0,0-.833-.289,1.286,1.286,0,0,0-.8.247A1.129,1.129,0,0,0,.076,210a.082.082,0,0,0,.073.091l.638.064a.084.084,0,0,0,.061-.019.083.083,0,0,0,.029-.057.55.55,0,0,1,.113-.349.346.346,0,0,1,.26-.1.349.349,0,0,1,.26.091A.365.365,0,0,1,1.6,210a.626.626,0,0,1-.118.346A4.507,4.507,0,0,1,.965,210.878Z" transform="translate(0 -202.493)" fill="#868686"/>
      <path id="Path_1438" data-name="Path 1438" d="M2.471,408.041a1.069,1.069,0,0,0,.341-.8.87.87,0,0,0-.187-.56.822.822,0,0,0-.324-.245.8.8,0,0,0,.363-.666.854.854,0,0,0-.253-.6,1.059,1.059,0,0,0-.8-.321,1.227,1.227,0,0,0-.524.11.907.907,0,0,0-.373.308,1.386,1.386,0,0,0-.2.506.081.081,0,0,0,.013.062.08.08,0,0,0,.053.034l.581.1a.083.083,0,0,0,.062-.015.081.081,0,0,0,.032-.055.452.452,0,0,1,.115-.279.3.3,0,0,1,.219-.089.275.275,0,0,1,.205.075.278.278,0,0,1,.075.207.315.315,0,0,1-.107.252.46.46,0,0,1-.309.091H1.426a.081.081,0,0,0-.08.07l-.07.513a.081.081,0,0,0,.1.089c.247-.069.4-.063.519.069a.454.454,0,0,1,.106.322.493.493,0,0,1-.112.345.345.345,0,0,1-.268.121.349.349,0,0,1-.253-.1.5.5,0,0,1-.133-.308.081.081,0,0,0-.09-.07l-.61.074a.081.081,0,0,0-.071.089,1.093,1.093,0,0,0,.368.723,1.167,1.167,0,0,0,.793.277A1.172,1.172,0,0,0,2.471,408.041Z" transform="translate(-0.452 -391.952)" fill="#868686"/>
    </g>
  </g>
</svg>
