<svg xmlns="http://www.w3.org/2000/svg" width="18" height="18" viewBox="0 0 18 18">
  <g id="Phone_Icon" data-name="Phone Icon" transform="translate(57 -140)">
    <g id="Base" transform="translate(-57 140)" fill="#49B776" stroke="#707070" stroke-width="1" opacity="0">
      <rect width="18" height="18" stroke="none"/>
      <rect x="0.5" y="0.5" width="17" height="17" fill="none"/>
    </g>
    <g id="call" transform="translate(-54 143)">
      <g id="Group_995" data-name="Group 995">
        <path id="Path_3588" data-name="Path 3588" d="M11.037,7.877A6.813,6.813,0,0,1,8.9,7.536a.978.978,0,0,0-.951.2L6.6,8.755A7.457,7.457,0,0,1,3.244,5.4l.989-1.314a.97.97,0,0,0,.239-.983A6.824,6.824,0,0,1,4.13.963.964.964,0,0,0,3.167,0H.963A.964.964,0,0,0,0,.963,11.05,11.05,0,0,0,11.037,12,.964.964,0,0,0,12,11.037V8.84A.964.964,0,0,0,11.037,7.877Z" fill="#49B776"/>
      </g>
    </g>
  </g>
</svg>
