<svg xmlns="http://www.w3.org/2000/svg" width="17.949" height="18" viewBox="0 0 17.949 18"><defs><style>.a{fill:#545f7e;}</style></defs><g transform="translate(-0.499)"><g transform="translate(0.534 10.537)"><g transform="translate(0)"><path class="a" d="M5.175,0H4.108L1.5,7.463H2.981l.392-1.121H5.88l.387,1.121H7.749ZM3.864,4.94l.772-2.205L5.4,4.94Z" transform="translate(-1.496)"/></g></g><g transform="translate(9.739 0)"><path class="a" d="M271.273,12.638,268.61,15.3V0h-1.4V15.3l-2.663-2.663-.991.991,4.354,4.354,4.354-4.354Z" transform="translate(-263.555)"/></g><g transform="translate(0.499 0)"><g transform="translate(0)"><path class="a" d="M6.876,299.247H.5v1.4H4.768L.5,305.609v1.1H6.806v-1.4h-4.2l4.269-4.96Z" transform="translate(-0.499 -299.247)"/></g></g></g></svg>