<svg xmlns="http://www.w3.org/2000/svg" width="32" height="32" viewBox="0 0 32 32">
  <g id="Delete" transform="translate(-915 -447)">
    <rect id="Base" width="32" height="32" transform="translate(915 447)" fill="rgba(240,115,121,0.1)" opacity="0"/>
    <g id="Delete_Icon" data-name="Delete Icon" transform="translate(920.627 449.667)">
      <path id="Path_6" data-name="Path 6" d="M127.074,1.61h4.457v.75h1.609V1.5a1.506,1.506,0,0,0-1.5-1.5h-4.668a1.506,1.506,0,0,0-1.5,1.5V2.36h1.61Zm0,0" transform="translate(-118.93 0)" fill="#f07379"/>
      <path id="Path_7" data-name="Path 7" d="M56.309,167.75H41.2a.709.709,0,0,0-.707.766l1.263,15.62a1.678,1.678,0,0,0,1.672,1.544H54.081a1.678,1.678,0,0,0,1.672-1.544l1.263-15.62a.709.709,0,0,0-.706-.766ZM44.858,184.014l-.05,0a.8.8,0,0,1-.8-.755l-.792-12.823a.8.8,0,1,1,1.607-.1l.791,12.823A.8.8,0,0,1,44.858,184.014Zm4.71-.8a.8.8,0,0,1-1.61,0V170.387a.8.8,0,1,1,1.61,0ZM54.3,170.434l-.756,12.823a.8.8,0,0,1-.8.757h-.048a.8.8,0,0,1-.756-.851l.756-12.824a.8.8,0,0,1,1.607.095Zm0,0" transform="translate(-38.382 -159.013)" fill="#f07379"/>
      <path id="Path_8" data-name="Path 8" d="M20.711,78.5l-.529-1.585a1.023,1.023,0,0,0-.971-.7H1.534a1.023,1.023,0,0,0-.971.7L.035,78.5a.665.665,0,0,0,.63.874H20.081a.655.655,0,0,0,.352-.1.663.663,0,0,0,.278-.772Zm0,0" transform="translate(0 -72.242)" fill="#f07379"/>
    </g>
  </g>
</svg>
