<svg xmlns="http://www.w3.org/2000/svg" width="32" height="32" viewBox="0 0 32 32">
  <g id="Archive_Icon" data-name="Archive Icon" transform="translate(3964 7074)">
    <rect id="Base" width="32" height="32" transform="translate(-3964 -7074)" fill="rgba(56,125,255,0.1)" opacity="0"/>
    <g id="_22_archive" data-name="22 archive" transform="translate(-3961.44 -7070)">
      <path id="Path_3587" data-name="Path 3587" d="M26.96,7.88H16.8L14.576,5.586A1.92,1.92,0,0,0,13.2,5H7.76A1.92,1.92,0,0,0,5.84,6.92V8.84H3.92A1.92,1.92,0,0,0,2,10.76V27.08A1.92,1.92,0,0,0,3.92,29h19.2a1.92,1.92,0,0,0,1.92-1.92V25.16h1.92a1.92,1.92,0,0,0,1.92-1.92V9.8A1.92,1.92,0,0,0,26.96,7.88ZM3.92,27.08V10.76H9.354L11.6,13.054a1.92,1.92,0,0,0,1.373.586H23.12V27.08Zm23.04-3.84H25.04v-9.6a1.92,1.92,0,0,0-1.92-1.92H12.963L10.736,9.426A1.92,1.92,0,0,0,9.354,8.84H7.76V6.92H13.2L15.44,9.214a1.92,1.92,0,0,0,1.373.586H26.96ZM11.6,24.2a.96.96,0,0,1-.96.96H6.8a.96.96,0,1,1,0-1.92h3.84A.96.96,0,0,1,11.6,24.2Z" transform="translate(-2 -5)" fill="#545f7e"/>
    </g>
  </g>
</svg>
