<svg xmlns="http://www.w3.org/2000/svg" width="32" height="32" viewBox="0 0 32 32">
  <g id="Edit" transform="translate(-951 -447)">
    <rect id="Base" width="32" height="32" transform="translate(951 447)" fill="rgba(56,125,255,0.1)" opacity="0"/>
    <g id="Edit_Icon" data-name="Edit Icon" transform="translate(953.667 449.667)">
      <g id="Group_133" data-name="Group 133">
        <g id="Group_132" data-name="Group 132" transform="translate(0)">
          <path id="Path_9" data-name="Path 9" d="M26.358,5.808l-5.5-5.5a1.063,1.063,0,0,0-1.5,0l-17.3,17.27a1.063,1.063,0,0,0-.283.506L.033,25.356a1.063,1.063,0,0,0,1.282,1.282L8.584,24.9a1.06,1.06,0,0,0,.506-.283l17.269-17.3A1.063,1.063,0,0,0,26.358,5.808ZM7.8,22.9,2.505,24.166,3.77,18.874,20.11,2.568,24.1,6.561Z" transform="translate(-0.004 0)" fill="#387dff"/>
        </g>
      </g>
      <g id="Group_135" data-name="Group 135" transform="translate(15.276 4.354)">
        <g id="Group_134" data-name="Group 134" transform="translate(0 0)">
          <rect id="Rectangle_193" data-name="Rectangle 193" width="2.127" height="7.823" transform="translate(0 1.504) rotate(-45)" fill="#387dff"/>
        </g>
      </g>
      <g id="Group_137" data-name="Group 137" transform="translate(4.744 7.12)">
        <g id="Group_136" data-name="Group 136" transform="translate(0 0)">
          <rect id="Rectangle_194" data-name="Rectangle 194" width="18.805" height="2.127" transform="translate(0 13.297) rotate(-45)" fill="#387dff"/>
        </g>
      </g>
      <g id="Group_139" data-name="Group 139" transform="translate(2.013 17.652)">
        <g id="Group_138" data-name="Group 138" transform="translate(0 0)">
          <rect id="Rectangle_195" data-name="Rectangle 195" width="2.127" height="7.773" transform="translate(0 1.504) rotate(-45)" fill="#387dff"/>
        </g>
      </g>
    </g>
  </g>
</svg>
