<svg xmlns="http://www.w3.org/2000/svg" width="24" height="24" viewBox="0 0 24 24">
  <g id="Phone_Icon" data-name="Phone Icon" transform="translate(57 -140)">
    <g id="Base" transform="translate(-57 140)" fill="#387dff" stroke="#707070" stroke-width="1" opacity="0">
      <rect width="24" height="24" stroke="none"/>
      <rect x="0.5" y="0.5" width="23" height="23" fill="none"/>
    </g>
    <g id="call" transform="translate(-54 143)">
      <g id="Group_995" data-name="Group 995">
        <path id="Path_3588" data-name="Path 3588" d="M16.556,11.815a10.22,10.22,0,0,1-3.209-.511,1.467,1.467,0,0,0-1.427.3L9.9,13.132A11.185,11.185,0,0,1,4.867,8.1L6.35,6.133a1.455,1.455,0,0,0,.358-1.474,10.235,10.235,0,0,1-.513-3.215A1.446,1.446,0,0,0,4.75,0H1.444A1.446,1.446,0,0,0,0,1.444,16.574,16.574,0,0,0,16.556,18,1.446,1.446,0,0,0,18,16.556v-3.3A1.446,1.446,0,0,0,16.556,11.815Z" fill="#387dff"/>
      </g>
    </g>
  </g>
</svg>
