<svg xmlns="http://www.w3.org/2000/svg" width="18" height="18" viewBox="0 0 18 18"><defs><style>.a{fill:#387dff;}.b{fill:#fff;}</style></defs><g transform="translate(-1809 -534)"><circle class="a" cx="9" cy="9" r="9" transform="translate(1809 534)"/><g transform="translate(1812.769 539.27)"><g transform="translate(-0.769 -2.27)"><path class="b" d="M19.122,4.466l-.16.051-.855.076-.241.386-.175-.056-.68-.613-.1-.319-.132-.34-.428-.383-.5-.1-.012.231.494.482.242.285-.272.142-.221-.065L15.747,4.1l.011-.267-.435-.179-.144.629-.438.1.043.351.571.11.1-.56.472.07.219.128H16.5l.241.482.638.647-.047.252L16.814,5.8l-.889.449-.64.768-.083.34h-.23l-.428-.2-.416.2.1.439.181-.209.318-.01-.022.394.264.077.263.3.43-.121.491.078.57.153.285.033.483.548.932.548-.6,1.151-.636.3-.241.658-.921.615-.1.354a5.357,5.357,0,0,0,3.2-8.193Z" transform="translate(-8.418 -1.221)"/><path class="b" d="M5.984,13.127,5.593,12.4l.359-.747-.359-.107-.4-.4-.892-.2L4,10.325v.368h-.13L3.1,9.65V8.794L2.54,7.878l-.895.159h-.6l-.3-.2.387-.307L.74,7.621a5.357,5.357,0,0,0,4.627,8.067,5.614,5.614,0,0,0,.673-.047l-.056-.65s.246-.965.246-1S5.984,13.127,5.984,13.127Z" transform="translate(0.882 -4.095)"/><path class="b" d="M4.362,1.73,5.315,1.6l.439-.241.494.142.79-.044.27-.425.394.065L8.661,1,8.924.714,9.3.465l.527.079.192-.029A5.346,5.346,0,0,0,3.6,1.95h0Zm3.6-1.2.548-.3.352.2L8.349.823,7.863.871,7.644.729ZM6.336.577l.242.1.317-.1.172.3-.731.192L5.985.863S6.329.641,6.336.577Z" transform="translate(-1.483 0.865)"/><path class="a" d="M15.406,1.384l-6.6.071-2.2.024L0,1.549.015.166l6.6-.071,2.2-.024L15.421,0Z" transform="translate(1.096 0) rotate(45)"/><path class="b" d="M15.406.67,8.8.741,6.6.764,0,.835.007.166,6.61.095l2.2-.024L15.414,0Z" transform="translate(0.845 0.31) rotate(45)"/></g></g></g></svg>