<svg xmlns="http://www.w3.org/2000/svg" xmlns:xlink="http://www.w3.org/1999/xlink" width="600" height="384" viewBox="0 0 600 384">
  <defs>
    <clipPath id="clip-path">
      <rect id="Base" width="600" height="384" transform="translate(23588 -3619)" fill="#fff"/>
    </clipPath>
    <linearGradient id="linear-gradient" x1="0.5" y1="1" x2="0.5" gradientUnits="objectBoundingBox">
      <stop offset="0" stop-color="gray" stop-opacity="0.251"/>
      <stop offset="0.54" stop-color="gray" stop-opacity="0.122"/>
      <stop offset="1" stop-color="gray" stop-opacity="0.102"/>
    </linearGradient>
    <linearGradient id="linear-gradient-4" x1="0.5" y1="1" x2="0.5" y2="0" xlink:href="#linear-gradient"/>
    <linearGradient id="linear-gradient-12" x1="0" y1="0.5" x2="1" y2="0.5" xlink:href="#linear-gradient"/>
  </defs>
  <g id="Events_1920_No_Events" data-name="Events_1920_No Events" transform="translate(-23588 3619)" clip-path="url(#clip-path)">
    <g id="Group_437" data-name="Group 437" transform="translate(23587.998 -3619)">
      <g id="undraw_good_doggy_4wfq">
        <path id="Path_3384" data-name="Path 3384" d="M571.062,156.258V116.1H547.215v40.163H518.976V94.131H498.267V47.693H481.324V0H446.181V47.693H429.238V94.131H409.157V38.28h-11.3V10.041h-6.9V38.28H350.8V216.5H320.046V197.675H301.219V216.5H270.47V156.258H215.246V116.1H191.4v40.163h-1.255v77.188h-25.1V188.262H134.921v45.183h-25.1V94.131H90.366V47.693H18.826V94.131H0V339.5H599.3V156.258Z" fill="#b1a6a0" opacity="0.1"/>
        <rect id="Rectangle_1112" data-name="Rectangle 1112" width="26.357" height="15.061" transform="translate(11.923 108.565)" fill="#fff" opacity="0.4"/>
        <rect id="Rectangle_1113" data-name="Rectangle 1113" width="26.357" height="15.061" transform="translate(97.269 123.626) rotate(180)" fill="#fff" opacity="0.4"/>
        <rect id="Rectangle_1114" data-name="Rectangle 1114" width="26.357" height="15.061" transform="translate(11.923 138.059)" fill="#fff" opacity="0.4"/>
        <rect id="Rectangle_1115" data-name="Rectangle 1115" width="26.357" height="15.061" transform="translate(97.269 153.12) rotate(180)" fill="#fff" opacity="0.4"/>
        <rect id="Rectangle_1116" data-name="Rectangle 1116" width="26.357" height="15.061" transform="translate(11.923 167.553)" fill="#fff" opacity="0.4"/>
        <rect id="Rectangle_1117" data-name="Rectangle 1117" width="26.357" height="15.061" transform="translate(97.269 182.614) rotate(180)" fill="#fff" opacity="0.4"/>
        <rect id="Rectangle_1118" data-name="Rectangle 1118" width="26.357" height="15.061" transform="translate(11.923 197.048)" fill="#fff" opacity="0.4"/>
        <rect id="Rectangle_1119" data-name="Rectangle 1119" width="26.357" height="15.061" transform="translate(97.269 212.109) rotate(180)" fill="#fff" opacity="0.4"/>
        <rect id="Rectangle_1120" data-name="Rectangle 1120" width="26.357" height="15.061" transform="translate(11.923 226.542)" fill="#fff" opacity="0.4"/>
        <rect id="Rectangle_1121" data-name="Rectangle 1121" width="26.357" height="15.061" transform="translate(97.269 241.603) rotate(180)" fill="#fff" opacity="0.4"/>
        <rect id="Rectangle_1122" data-name="Rectangle 1122" width="26.357" height="15.061" transform="translate(11.923 256.037)" fill="#fff" opacity="0.4"/>
        <rect id="Rectangle_1123" data-name="Rectangle 1123" width="26.357" height="15.061" transform="translate(97.269 271.098) rotate(180)" fill="#fff" opacity="0.4"/>
        <rect id="Rectangle_1124" data-name="Rectangle 1124" width="26.357" height="15.061" transform="translate(11.923 285.531)" fill="#fff" opacity="0.4"/>
        <rect id="Rectangle_1125" data-name="Rectangle 1125" width="26.357" height="15.061" transform="translate(97.269 300.592) rotate(180)" fill="#fff" opacity="0.4"/>
        <rect id="Rectangle_1126" data-name="Rectangle 1126" width="61.499" height="7.53" transform="translate(119.233 248.506)" fill="#fff" opacity="0.4"/>
        <rect id="Rectangle_1127" data-name="Rectangle 1127" width="61.499" height="7.53" transform="translate(119.233 259.802)" fill="#fff" opacity="0.4"/>
        <rect id="Rectangle_1128" data-name="Rectangle 1128" width="61.499" height="7.53" transform="translate(119.233 271.098)" fill="#fff" opacity="0.4"/>
        <rect id="Rectangle_1129" data-name="Rectangle 1129" width="61.499" height="7.53" transform="translate(279.883 252.271)" fill="#fff" opacity="0.4"/>
        <rect id="Rectangle_1130" data-name="Rectangle 1130" width="61.499" height="7.53" transform="translate(279.883 263.567)" fill="#fff" opacity="0.4"/>
        <rect id="Rectangle_1131" data-name="Rectangle 1131" width="61.499" height="7.53" transform="translate(279.883 274.863)" fill="#fff" opacity="0.4"/>
        <rect id="Rectangle_1132" data-name="Rectangle 1132" width="61.499" height="7.53" transform="translate(119.233 282.393)" fill="#fff" opacity="0.4"/>
        <rect id="Rectangle_1133" data-name="Rectangle 1133" width="61.499" height="7.53" transform="translate(119.233 293.689)" fill="#fff" opacity="0.4"/>
        <rect id="Rectangle_1134" data-name="Rectangle 1134" width="61.499" height="7.53" transform="translate(119.233 304.985)" fill="#fff" opacity="0.4"/>
        <rect id="Rectangle_1135" data-name="Rectangle 1135" width="16.944" height="21.964" transform="translate(203.323 170.691)" fill="#fff" opacity="0.4"/>
        <rect id="Rectangle_1136" data-name="Rectangle 1136" width="16.944" height="21.964" transform="translate(257.292 192.655) rotate(180)" fill="#fff" opacity="0.4"/>
        <rect id="Rectangle_1137" data-name="Rectangle 1137" width="16.944" height="21.964" transform="translate(203.323 205.833)" fill="#fff" opacity="0.4"/>
        <rect id="Rectangle_1138" data-name="Rectangle 1138" width="16.944" height="21.964" transform="translate(257.292 227.797) rotate(180)" fill="#fff" opacity="0.4"/>
        <rect id="Rectangle_1139" data-name="Rectangle 1139" width="16.944" height="21.964" transform="translate(203.323 240.976)" fill="#fff" opacity="0.4"/>
        <rect id="Rectangle_1140" data-name="Rectangle 1140" width="16.944" height="21.964" transform="translate(257.292 262.94) rotate(180)" fill="#fff" opacity="0.4"/>
        <rect id="Rectangle_1141" data-name="Rectangle 1141" width="16.944" height="21.964" transform="translate(203.323 276.118)" fill="#fff" opacity="0.4"/>
        <rect id="Rectangle_1142" data-name="Rectangle 1142" width="16.944" height="21.964" transform="translate(257.292 298.082) rotate(180)" fill="#fff" opacity="0.4"/>
        <rect id="Rectangle_1143" data-name="Rectangle 1143" width="22.591" height="28.867" transform="translate(350.795 52.713)" fill="#fff" opacity="0.4"/>
        <rect id="Rectangle_1144" data-name="Rectangle 1144" width="22.591" height="28.867" transform="translate(350.795 94.131)" fill="#fff" opacity="0.4"/>
        <rect id="Rectangle_1145" data-name="Rectangle 1145" width="22.591" height="28.867" transform="translate(350.795 135.549)" fill="#fff" opacity="0.4"/>
        <rect id="Rectangle_1146" data-name="Rectangle 1146" width="22.591" height="28.867" transform="translate(350.795 176.966)" fill="#fff" opacity="0.4"/>
        <rect id="Rectangle_1147" data-name="Rectangle 1147" width="22.591" height="28.867" transform="translate(350.795 218.384)" fill="#fff" opacity="0.4"/>
        <rect id="Rectangle_1148" data-name="Rectangle 1148" width="22.591" height="28.867" transform="translate(350.795 259.802)" fill="#fff" opacity="0.4"/>
        <rect id="Rectangle_1149" data-name="Rectangle 1149" width="84.09" height="24.474" transform="translate(422.021 111.702)" fill="#fff" opacity="0.4"/>
        <rect id="Rectangle_1150" data-name="Rectangle 1150" width="84.09" height="24.474" transform="translate(422.335 164.416)" fill="#fff" opacity="0.4"/>
        <rect id="Rectangle_1151" data-name="Rectangle 1151" width="84.09" height="24.474" transform="translate(422.649 217.129)" fill="#fff" opacity="0.4"/>
        <rect id="Rectangle_1152" data-name="Rectangle 1152" width="84.09" height="24.474" transform="translate(422.962 269.842)" fill="#fff" opacity="0.4"/>
        <rect id="Rectangle_1153" data-name="Rectangle 1153" width="11.296" height="23.847" transform="translate(18.826 60.871)" fill="#fff" opacity="0.4"/>
        <rect id="Rectangle_1154" data-name="Rectangle 1154" width="28.239" height="36.397" transform="translate(571.062 170.691)" fill="#fff" opacity="0.4"/>
        <rect id="Rectangle_1155" data-name="Rectangle 1155" width="28.239" height="36.397" transform="translate(571.062 223.404)" fill="#fff" opacity="0.4"/>
        <rect id="Rectangle_1156" data-name="Rectangle 1156" width="28.239" height="36.397" transform="translate(571.062 276.118)" fill="#fff" opacity="0.4"/>
        <path id="Path_3401" data-name="Path 3401" d="M360.959,153.841H356.64a3.025,3.025,0,1,0,0-6.043H321.668a3.025,3.025,0,1,0,0,6.043h4.317a3.025,3.025,0,0,0,0,6.05h-6.042a3.025,3.025,0,1,0,0,6.043h34.973a3.025,3.025,0,1,0,0-6.043h6.044a3.025,3.025,0,0,0,0-6.05Z" transform="translate(-194.862 -123.92)" fill="#252223" opacity="0.1"/>
        <path id="Path_3402" data-name="Path 3402" d="M606.96,274.842h-4.319a3.025,3.025,0,1,0,0-6.044H567.669a3.025,3.025,0,1,0,0,6.044h4.317a3.025,3.025,0,1,0,0,6.05h-6.042a3.024,3.024,0,1,0,0,6.042h34.972a3.024,3.024,0,1,0,0-6.042h6.045a3.025,3.025,0,0,0,0-6.05Z" transform="translate(-286.488 -168.987)" fill="#252223" opacity="0.1"/>
        <path id="Path_3403" data-name="Path 3403" d="M1025.96,116.841h-4.319a3.025,3.025,0,1,0,0-6.043H986.669a3.025,3.025,0,1,0,0,6.043h4.314a3.025,3.025,0,0,0,0,6.05h-6.04a3.025,3.025,0,1,0,0,6.043h34.972a3.025,3.025,0,1,0,0-6.043h6.045a3.025,3.025,0,1,0,0-6.05Z" transform="translate(-442.548 -110.139)" fill="#252223" opacity="0.1"/>
        <path id="Path_3404" data-name="Path 3404" d="M489.949,418.92s-1.653,7.983-1.979,12.236" transform="translate(-258.622 -224.903)" opacity="0.1"/>
      </g>
      <g id="Group_436" data-name="Group 436" transform="translate(90.755 159.262)">
        <g id="undraw_good_doggy_4wfq-2" data-name="undraw_good_doggy_4wfq" transform="translate(0 0)">
          <path id="Path_3323" data-name="Path 3323" d="M536.611,670.752c-2.766,1.425-5.664,2.658-8.519,3.865-10.564,4.456-21.288,8.958-32.631,10.488-21.315,2.859-43.307-4.911-64.244-.064-17.541,4.047-32.045,16.451-49.18,21.974a79.86,79.86,0,0,1-24.622,3.576h-1.08c-1.029,0-2.055-.041-3.084-.079a165.819,165.819,0,0,1-25.31-3.173c-26.247-5.05-52.963-14.307-73.031-31.351C313.344,665.31,433.71,648.923,536.611,670.752Z" transform="translate(-198.226 -485.852)" fill="#252223" opacity="0.1"/>
          <rect id="Rectangle_1040" data-name="Rectangle 1040" width="57.425" height="7.032" transform="translate(218.629 80.52)" fill="#fff" opacity="0.4"/>
          <rect id="Rectangle_1041" data-name="Rectangle 1041" width="57.425" height="7.032" transform="translate(218.629 91.067)" fill="#fff" opacity="0.4"/>
          <rect id="Rectangle_1042" data-name="Rectangle 1042" width="57.425" height="7.032" transform="translate(218.629 101.615)" fill="#fff" opacity="0.4"/>
          <rect id="Rectangle_1048" data-name="Rectangle 1048" width="15.821" height="20.509" transform="translate(147.141 37.158)" fill="#fff" opacity="0.4"/>
          <rect id="Rectangle_1049" data-name="Rectangle 1049" width="15.821" height="20.509" transform="translate(197.534 57.667) rotate(180)" fill="#fff" opacity="0.4"/>
          <rect id="Rectangle_1050" data-name="Rectangle 1050" width="15.821" height="20.509" transform="translate(147.141 69.973)" fill="#fff" opacity="0.4"/>
          <rect id="Rectangle_1051" data-name="Rectangle 1051" width="15.821" height="20.509" transform="translate(197.534 90.481) rotate(180)" fill="#fff" opacity="0.4"/>
          <rect id="Rectangle_1052" data-name="Rectangle 1052" width="15.821" height="20.509" transform="translate(147.141 102.787)" fill="#fff" opacity="0.4"/>
          <rect id="Rectangle_1053" data-name="Rectangle 1053" width="15.821" height="20.509" transform="translate(197.534 123.296) rotate(180)" fill="#fff" opacity="0.4"/>
          <rect id="Rectangle_1058" data-name="Rectangle 1058" width="21.095" height="26.955" transform="translate(284.843 48.878)" fill="#fff" opacity="0.4"/>
          <rect id="Rectangle_1059" data-name="Rectangle 1059" width="21.095" height="26.955" transform="translate(284.843 87.552)" fill="#fff" opacity="0.4"/>
          <path id="Path_3344" data-name="Path 3344" d="M489.818,418.92s-1.543,7.454-1.848,11.425" transform="translate(-316.529 -392.795)" opacity="0.1"/>
          <g id="Group_432" data-name="Group 432" transform="matrix(0.985, -0.174, 0.174, 0.985, 0, 15.657)">
            <path id="Path_3345" data-name="Path 3345" d="M21.735,16.692C18.489,21.707,0,30.364,0,30.364S.332,9.95,3.578,4.941A10.815,10.815,0,1,1,21.736,16.693Z" transform="translate(63.263 27.453)" fill="#49b776"/>
            <path id="Path_3346" data-name="Path 3346" d="M12.4,3.935s-45.8,27.634,38.63,70.18c0,0,18.617-34.534-1.966-62.692A27.728,27.728,0,0,0,13.09,3.54Z" transform="matrix(0.999, -0.035, 0.035, 0.999, 0, 114.638)" fill="#49b776"/>
            <path id="Path_3348" data-name="Path 3348" d="M0,0S38.944,29.87,37.857,70.477" transform="matrix(0.999, -0.035, 0.035, 0.999, 13.295, 117.814)" fill="none" stroke="#535461" stroke-width="1"/>
            <path id="Path_3349" data-name="Path 3349" d="M5.65,155.573s-14.352-48.73,2.694-84.6a76.988,76.988,0,0,0,6.219-48.288A129.1,129.1,0,0,0,7.727,0" transform="translate(48.788 33.703)" fill="none" stroke="#535461" stroke-width="2"/>
            <path id="Path_3350" data-name="Path 3350" d="M21.628,11.066c0,5.969-10.809,23.271-10.809,23.271S0,17.018,0,11.066a10.815,10.815,0,1,1,21.625,0Z" transform="translate(45.475 0)" fill="#49b776"/>
            <path id="Path_3351" data-name="Path 3351" d="M25.662,20.475C20.333,23.163,0,21.3,0,21.3S10.594,3.848,15.929,1.16a10.815,10.815,0,1,1,9.734,19.316Z" transform="translate(58.551 80.202)" fill="#49b776"/>
            <path id="Path_3352" data-name="Path 3352" d="M25.15,19.51C20.351,23.059,0,24.665,0,24.665s7.487-19,12.293-22.544A10.814,10.814,0,1,1,25.151,19.512Z" transform="translate(48.841 123.805)" fill="#49b776"/>
            <path id="Path_3353" data-name="Path 3353" d="M3.278,18.567c4.282,4.16,24.243,8.471,24.243,8.471S22.634,7.217,18.346,3.057A10.812,10.812,0,0,0,3.278,18.567Z" transform="translate(37.278 40.408)" fill="#49b776"/>
            <path id="Path_3354" data-name="Path 3354" d="M5.948,20.471c5.329,2.694,25.662.832,25.662.832S21.016,3.85,15.687,1.162a10.814,10.814,0,1,0-9.74,19.311Z" transform="translate(23.287 88.519)" fill="#49b776"/>
          </g>
          <g id="undraw_schedule_pnbk" transform="translate(108.912 39.638)">
            <g id="Group_435" data-name="Group 435" transform="translate(0 0)">
              <path id="Path_3355" data-name="Path 3355" d="M973.922,689.053s-2.884-1.9-5.741-.549c0,0,.88,1.7,4.5,1.534Z" transform="translate(-767.544 -553.641)" fill="#6c63ff"/>
              <path id="Path_3356" data-name="Path 3356" d="M987.933,692.87s.877,3.341-1.321,5.615c0,0-1.323-1.38,0-4.754Z" transform="translate(-781.201 -557.354)" fill="#6c63ff"/>
              <path id="Path_3357" data-name="Path 3357" d="M987.868,672.375s-.213-2.844-6.628-1.9a3.063,3.063,0,0,0,2.222,2.7A3.7,3.7,0,0,0,987.868,672.375Z" transform="translate(-777.54 -540.067)" fill="#6c63ff"/>
              <path id="Path_3358" data-name="Path 3358" d="M340.544,115.31H115.088a2.008,2.008,0,0,0-2.008,2.008v5.852H342.553v-5.852a2.008,2.008,0,0,0-2.009-2.008Z" transform="translate(-113.08 -115.31)" fill="#695447"/>
              <path id="Path_3359" data-name="Path 3359" d="M113.08,148.81V280.5a4.05,4.05,0,0,0,4.05,4.05H338.5a4.05,4.05,0,0,0,4.05-4.05V148.81Z" transform="translate(-113.08 -140.95)" fill="#fff"/>
              <circle id="Ellipse_496" data-name="Ellipse 496" cx="0.939" cy="0.939" r="0.939" transform="translate(2.698 2.931)" fill="#fff" opacity="0.8"/>
              <circle id="Ellipse_497" data-name="Ellipse 497" cx="0.939" cy="0.939" r="0.939" transform="translate(5.279 2.931)" fill="#fff" opacity="0.8"/>
              <circle id="Ellipse_498" data-name="Ellipse 498" cx="0.939" cy="0.939" r="0.939" transform="translate(7.86 2.931)" fill="#fff" opacity="0.8"/>
              <g id="Group_433" data-name="Group 433" transform="translate(8.799 15.836)" opacity="0.3">
                <rect id="Rectangle_1068" data-name="Rectangle 1068" width="212.11" height="119.664" fill="none" stroke="#b1a6a0" stroke-width="1"/>
                <rect id="Rectangle_1069" data-name="Rectangle 1069" width="156.736" height="119.664" transform="translate(27.687)" fill="none" stroke="#b1a6a0" stroke-width="1"/>
                <rect id="Rectangle_1070" data-name="Rectangle 1070" width="101.362" height="119.664" transform="translate(55.374)" fill="none" stroke="#b1a6a0" stroke-width="1"/>
                <rect id="Rectangle_1071" data-name="Rectangle 1071" width="45.988" height="119.664" transform="translate(83.061)" fill="none" stroke="#b1a6a0" stroke-width="1"/>
                <line id="Line_125" data-name="Line 125" y2="119.664" transform="translate(106.055)" fill="none" stroke="#b1a6a0" stroke-width="1"/>
                <rect id="Rectangle_1072" data-name="Rectangle 1072" width="212.11" height="84.938" transform="translate(0 17.363)" fill="none" stroke="#b1a6a0" stroke-width="1"/>
                <rect id="Rectangle_1073" data-name="Rectangle 1073" width="212.11" height="50.681" transform="translate(0 34.491)" fill="none" stroke="#b1a6a0" stroke-width="1"/>
                <rect id="Rectangle_1074" data-name="Rectangle 1074" width="212.11" height="16.424" transform="translate(0 51.62)" fill="none" stroke="#b1a6a0" stroke-width="1"/>
              </g>
              <rect id="Rectangle_1075" data-name="Rectangle 1075" width="16.659" height="6.1" transform="translate(42 22.523)" fill="#3f3d56" opacity="0.1"/>
              <rect id="Rectangle_1076" data-name="Rectangle 1076" width="12.436" height="6.1" transform="translate(15.955 39.182)" fill="#fff" opacity="0.1"/>
              <rect id="Rectangle_1077" data-name="Rectangle 1077" width="16.659" height="6.1" transform="translate(68.983 22.523)" fill="#3f3d56" opacity="0.1"/>
              <rect id="Rectangle_1078" data-name="Rectangle 1078" width="16.659" height="6.1" transform="translate(94.323 22.523)" fill="#3f3d56" opacity="0.1"/>
              <rect id="Rectangle_1079" data-name="Rectangle 1079" width="16.659" height="6.1" transform="translate(117.787 22.523)" fill="#3f3d56" opacity="0.1"/>
              <rect id="Rectangle_1080" data-name="Rectangle 1080" width="16.659" height="6.1" transform="translate(144.066 22.523)" fill="#3f3d56" opacity="0.1"/>
              <rect id="Rectangle_1081" data-name="Rectangle 1081" width="16.659" height="6.1" transform="translate(170.814 22.523)" fill="#3f3d56" opacity="0.1"/>
              <rect id="Rectangle_1082" data-name="Rectangle 1082" width="16.659" height="6.1" transform="translate(199.205 22.523)" fill="#3f3d56" opacity="0.1"/>
              <rect id="Rectangle_1083" data-name="Rectangle 1083" width="10.824" height="10.479" transform="translate(74.97 55.594)" fill="url(#linear-gradient)"/>
              <rect id="Rectangle_1084" data-name="Rectangle 1084" width="10.451" height="10.117" transform="translate(75.158 55.775)" fill="#49b776"/>
              <rect id="Rectangle_1085" data-name="Rectangle 1085" width="10.824" height="10.479" transform="translate(97.27 53.323)" fill="url(#linear-gradient)"/>
              <rect id="Rectangle_1086" data-name="Rectangle 1086" width="10.451" height="10.117" transform="translate(97.458 53.504)" fill="#4fdc6f"/>
              <rect id="Rectangle_1087" data-name="Rectangle 1087" width="10.824" height="10.479" transform="translate(140.208 88.988)" fill="url(#linear-gradient)"/>
              <rect id="Rectangle_1088" data-name="Rectangle 1088" width="10.451" height="10.117" transform="translate(140.396 89.168)" fill="#4fdc6f"/>
              <rect id="Rectangle_1089" data-name="Rectangle 1089" width="10.824" height="10.479" transform="translate(44.886 36.92)" fill="url(#linear-gradient-4)"/>
              <rect id="Rectangle_1090" data-name="Rectangle 1090" width="10.451" height="10.117" transform="translate(45.071 37.1)" fill="#4fdc6f"/>
              <rect id="Rectangle_1091" data-name="Rectangle 1091" width="10.824" height="10.479" transform="translate(66.392 51.936)" fill="url(#linear-gradient-4)"/>
              <rect id="Rectangle_1092" data-name="Rectangle 1092" width="10.451" height="10.117" transform="translate(66.578 52.117)" fill="#d8aa8d"/>
              <rect id="Rectangle_1093" data-name="Rectangle 1093" width="10.824" height="10.479" transform="translate(152.869 88.912)" fill="url(#linear-gradient)"/>
              <rect id="Rectangle_1094" data-name="Rectangle 1094" width="10.451" height="10.117" transform="translate(153.057 89.093)" fill="#49b776"/>
              <rect id="Rectangle_1095" data-name="Rectangle 1095" width="10.824" height="10.479" transform="translate(171.875 37.058)" fill="url(#linear-gradient)"/>
              <rect id="Rectangle_1096" data-name="Rectangle 1096" width="10.451" height="10.117" transform="translate(172.062 37.239)" fill="#49b776"/>
              <rect id="Rectangle_1097" data-name="Rectangle 1097" width="10.824" height="10.479" transform="translate(170.701 70.376)" fill="url(#linear-gradient)"/>
              <rect id="Rectangle_1098" data-name="Rectangle 1098" width="10.451" height="10.117" transform="translate(170.889 70.557)" fill="#49b776"/>
              <rect id="Rectangle_1099" data-name="Rectangle 1099" width="10.824" height="10.479" transform="translate(178.914 72.723)" fill="url(#linear-gradient)"/>
              <rect id="Rectangle_1100" data-name="Rectangle 1100" width="10.451" height="10.117" transform="translate(179.101 72.903)" fill="#49b776"/>
              <rect id="Rectangle_1101" data-name="Rectangle 1101" width="10.824" height="10.479" transform="translate(144.291 85.255)" fill="url(#linear-gradient-4)"/>
              <rect id="Rectangle_1102" data-name="Rectangle 1102" width="10.451" height="10.117" transform="translate(144.476 85.435)" fill="#d8aa8d"/>
              <rect id="Rectangle_1103" data-name="Rectangle 1103" width="10.824" height="10.479" transform="translate(145.464 53.579)" fill="url(#linear-gradient-4)"/>
              <rect id="Rectangle_1104" data-name="Rectangle 1104" width="10.451" height="10.117" transform="translate(145.649 53.76)" fill="#d8aa8d"/>
              <rect id="Rectangle_1105" data-name="Rectangle 1105" width="12.436" height="6.1" transform="translate(15.955 55.606)" fill="#3f3d56" opacity="0.1"/>
              <rect id="Rectangle_1106" data-name="Rectangle 1106" width="12.436" height="6.1" transform="translate(15.955 72.734)" fill="#3f3d56" opacity="0.1"/>
              <rect id="Rectangle_1107" data-name="Rectangle 1107" width="12.436" height="6.1" transform="translate(15.955 89.863)" fill="#3f3d56" opacity="0.1"/>
              <rect id="Rectangle_1108" data-name="Rectangle 1108" width="12.436" height="6.1" transform="translate(15.955 106.991)" fill="#3f3d56" opacity="0.1"/>
              <rect id="Rectangle_1109" data-name="Rectangle 1109" width="12.436" height="6.1" transform="translate(15.955 124.119)" fill="#3f3d56" opacity="0.1"/>
              <path id="Path_3360" data-name="Path 3360" d="M173.922,354.915c.347-.221.209-.812-.148-1.016a1.741,1.741,0,0,0-1.2-.056.49.49,0,0,0-.258-.516v-.089a.642.642,0,0,0-.141-.91,1.836,1.836,0,0,0-1.117-.2,1.488,1.488,0,0,0-.469-1.267.392.392,0,0,0-.258-.124c-.235,0-.3.3-.317.523a9.91,9.91,0,0,1-.289,1.734l-7.292,12.2c-.812,1.173,1.711-2.346.9-1.161a10.321,10.321,0,0,1-1.436,1.781,7.075,7.075,0,0,1-1.621,1.086,1.912,1.912,0,0,1-1.107-.314,4.458,4.458,0,0,1-1.065-1.054,20.794,20.794,0,0,1-1.72-2.555,3.311,3.311,0,0,1-.394-.913,8.422,8.422,0,0,0-.2-1.532,2.5,2.5,0,0,0-.314-.5l-.5-.669v-.031a3.8,3.8,0,0,0-1.612-2.407,4.342,4.342,0,0,0-2.173-1.248c-.45-.059-.913.028-1.363-.028-.368-.047-.718-.185-1.084-.246a4.6,4.6,0,0,0-1.063-.021l-.15-.138a4.2,4.2,0,0,0,1.9-1.6c.347-.561.537-1.208.859-1.786.392-.7.974-1.286,1.408-1.961a7.248,7.248,0,0,0,.817-5.533,13.386,13.386,0,0,0-2.581-5.078,10,10,0,0,0-9.587-3.426q-.352.056-.7.134a9.036,9.036,0,0,0-1.743.556,4.458,4.458,0,0,0-1.9,1.485,3.427,3.427,0,0,0-.331.615,3.618,3.618,0,0,0-.16.507,5.259,5.259,0,0,0-.087,1.586c.014.181.033.361.054.542l.035.272c.023.181.049.361.075.542.038.272.073.544.1.812a5.16,5.16,0,0,1,.031.57v.143a2.333,2.333,0,0,1-.063.42,1.76,1.76,0,0,1-.07.223,2.781,2.781,0,0,1-.331.608,7.667,7.667,0,0,1-.594.73l-.2.235c-.068.077-.134.157-.2.235a8.6,8.6,0,0,0-.734.993,4.815,4.815,0,0,0-.289.544,3.889,3.889,0,0,0-.167.436,3.616,3.616,0,0,0-.127.61.578.578,0,0,1-.014.155v.307a2.683,2.683,0,0,0,.033.3,2.167,2.167,0,0,0,.07.3,2.007,2.007,0,0,0,.11.286c0,.026.023.052.038.077l.038.077c.026.052.052.1.075.152a1,1,0,0,1,.077.235v.171a.96.96,0,0,1-.347.6c-.047.045-.094.084-.143.127l-.075.061-.153.12-.145.117a2.953,2.953,0,0,0-.354.352,13.107,13.107,0,0,0-3.928.385,5.313,5.313,0,0,1-1.408.256.7.7,0,0,1-.61-.256.9.9,0,0,1-.063-.563,4.857,4.857,0,0,0-.375-2.3,1.278,1.278,0,0,0-.375-.547.53.53,0,0,0-.624-.033,5.849,5.849,0,0,1-.162,3.911,12.633,12.633,0,0,1-.9,1.7c-.535.913-.835,1.957-1.312,2.9.533,1.8.413,3.731.7,5.594a25.717,25.717,0,0,0,1.473,5.04A8.168,8.168,0,0,0,126.5,371.6a1.778,1.778,0,0,0,1.208.526,2.111,2.111,0,0,0,.939-.357,3.673,3.673,0,0,0,.8-.584,2.055,2.055,0,0,0,.235-.312,1.218,1.218,0,0,0,.176.441c.573-1.234,1.2-2.44,1.877-3.62a3.1,3.1,0,0,0,.563-.385.507.507,0,0,0,.033.127c-.031.113-.059.235-.089.34s-.066.218-.1.324-.049.157-.075.235-.063.188-.1.281-.075.2-.115.305-.054.146-.084.216c-.073.178-.148.352-.235.526a1.645,1.645,0,0,0,.2.082l.045.014a1.643,1.643,0,0,0,.185.047h.068a1.3,1.3,0,0,0,.138.014h.2a2.005,2.005,0,0,0,.5-.085l.091.375a13.408,13.408,0,0,1,.451,2.581,20.021,20.021,0,0,0,.063,2.956c.1.5.291.988.361,1.495a6.373,6.373,0,0,1-.026,1.434q-.164,1.727-.328,3.456a2.956,2.956,0,0,1-.3,1.22c-.162.282-.425.6-.26.882a5.873,5.873,0,0,1,.824-.157c-.1.366-.192.734-.279,1.105a1.947,1.947,0,0,0-.066.852,5.714,5.714,0,0,1,.253.781,2.633,2.633,0,0,1-.413,1.187,4.058,4.058,0,0,0,.469,3.116l1.3,2.938,1.063,2.41c.314.7.631,1.431.939,2.154a69.925,69.925,0,0,1,3.383,10.146,1.211,1.211,0,0,0,.176.441c.178.235.5.31.77.455a1.439,1.439,0,0,1,.16,2.292c.148,1.764-1.173,3.47-1.854,5.1-1.567,3.754-1.283,7.992-1.821,12.027l.608-.354a.753.753,0,0,1,.2.129q-.021.113-.049.235a3.675,3.675,0,0,1-.389.978,5.2,5.2,0,0,0-.978,1.849,11.547,11.547,0,0,0,.077,1.269v.117c-.054-.052-.136-.047-.258.049a1.513,1.513,0,0,0-.382.72c-.106.3-.19.61-.275.917l-.314,1.084a12.609,12.609,0,0,1-.636,1.912,8.189,8.189,0,0,0-.563,1.3,4.019,4.019,0,0,0-.1,1.112,3.334,3.334,0,0,0,.153,1.056,2.623,2.623,0,0,0,1.537,1.457,7.213,7.213,0,0,0,2.135.4,1.8,1.8,0,0,0,.561-.016,1.523,1.523,0,0,0,.542-.284,4.521,4.521,0,0,0,1.591-3.285,4.854,4.854,0,0,0-.134-.746c.061-1.335-.134-2.677-.033-4.008.021.153.042.3.066.453l.235,1.495a.312.312,0,0,0-.08-.141,3.435,3.435,0,0,0-.089,1.71,10.21,10.21,0,0,0,.493,1.659l.319.892a2.129,2.129,0,0,0,.38.739,2.107,2.107,0,0,0,1.112.521,12.256,12.256,0,0,0,2.694.469.61.61,0,0,0,.354-.066,1.745,1.745,0,0,0,.16-.134,1.573,1.573,0,0,1,.258-.15,1.7,1.7,0,0,0,.826-.978,1.544,1.544,0,0,0-.153-1.265,2.954,2.954,0,0,0-.364-.441l-1.6-1.7a10.086,10.086,0,0,0-.784-.831.293.293,0,0,0-.258-.085,8.276,8.276,0,0,1-.305-3.555c.023-.357.218-1.1.3-1.7a2.749,2.749,0,0,0,.852-.469,1.286,1.286,0,0,0,.49-.732,122.709,122.709,0,0,1,3.341-12.171c.122-.4.235-.8.359-1.192.052-.169.1-.34.148-.511s.082-.277.122-.415c.066-.235.131-.469.195-.7.019-.063.035-.127.054-.19a.217.217,0,0,1,0-.038c.077-.288.153-.577.235-.866.028-.113.059-.22.087-.333.092-.366.183-.737.27-1.105a1.21,1.21,0,0,0,.033-.155.654.654,0,0,0-.026-.392h0a.508.508,0,0,0-.092-.131c-.026-.031-.054-.061-.082-.089a1.315,1.315,0,0,1-.089-.1.908.908,0,0,1-.164-.307v-.338c0-.1-.014-.235-.021-.357a3.749,3.749,0,0,1,.106-.469c.028-.092.059-.183.087-.275s.07-.235.108-.34a.861.861,0,0,0,.214-.58q.218-.544.481-1.068a3.22,3.22,0,0,0,.429-1.154,4.58,4.58,0,0,0-.136-1.1c-.235-1.525.469-3.01.988-4.458a19.771,19.771,0,0,0,.873-3.285,6.98,6.98,0,0,1,.716-2.5,3.721,3.721,0,0,0,.385-.666,2.622,2.622,0,0,0,.1-.755,8.336,8.336,0,0,1,.739-3,1.9,1.9,0,0,0,.192-.584.218.218,0,0,0,0-.04v-.056l.12-.019a15.882,15.882,0,0,0,.27-4.036,6.154,6.154,0,0,0-2.062-3.895h.023a1.287,1.287,0,0,0,.591-1.145,2.231,2.231,0,0,0-.831-1.743.834.834,0,0,1-.282-.291.885.885,0,0,1-.035-.378,1.931,1.931,0,0,0-1.19-1.793.45.45,0,0,1-.195-.113.469.469,0,0,1-.052-.343,2.1,2.1,0,0,0-1.011-1.915,3.3,3.3,0,0,0,.045-1.52,1.118,1.118,0,0,0-1.112-.868c.413-1.126-.174-2.379-.019-3.569.068-.512.272-1,.3-1.516a3.1,3.1,0,0,1,.136-1.38c.228-.408.765-.727.626-1.173-.059-.19-.235-.321-.317-.507s.246-.469.415-.366c.08-.061.16-.124.235-.19a3.782,3.782,0,0,0,.141.7c.115.385.291.746.411,1.129a9.177,9.177,0,0,0,.53,1.753c.469.856,1.462,1.281,2.133,1.992.394.415.678.939,1.084,1.333a5.9,5.9,0,0,0,1.009.758l2.168,1.408a2.491,2.491,0,0,0,.741.368,1.265,1.265,0,0,0,1.49-1.072,1.464,1.464,0,0,1-.533-.331.209.209,0,0,0,.092-.014,3.418,3.418,0,0,0,1.391-.739,18.729,18.729,0,0,0,3.738-4.557c1.136-1.729,6.6-6.3,6.6-6.3v-1.854a6.672,6.672,0,0,0,1.821-1.551,2.011,2.011,0,0,0,.458-1.173A1.044,1.044,0,0,0,173.922,354.915Zm-45.449,4.446q-.157,1.011-.387,2.008a19.08,19.08,0,0,1-.648,2.269l-.084.235c-.077-.145-.155-.289-.235-.436-.176-.368-.319-.751-.469-1.133l-.906-2.44a1.143,1.143,0,0,1-.059-.974,1.089,1.089,0,0,1,.516-.387,10.2,10.2,0,0,1,1.985-.673,5.455,5.455,0,0,0,.638-.169A9.62,9.62,0,0,0,128.473,359.361Zm1-3.05a.364.364,0,0,1,0-.354.807.807,0,0,1,.235-.164l.068-.047c-.094.195-.2.382-.3.573Zm1.877-2.654a4.908,4.908,0,0,0-.723.741,7.744,7.744,0,0,0-.619.957.7.7,0,0,0-.258-.7,1.494,1.494,0,0,1-.235-.16.493.493,0,0,1,.1-.69,1.432,1.432,0,0,1,.73-.249l1.082-.16c-.033.092-.054.181-.077.27Zm10.127,78.52a3.928,3.928,0,0,0-.063-.969h.4C141.7,431.521,141.591,431.852,141.479,432.178Z" transform="translate(-120.19 -284.008)" fill="url(#linear-gradient-12)"/>
              <path id="Path_3361" data-name="Path 3361" d="M161.064,338.862c-1.877.3-3.965,1.025-4.693,2.785-.542,1.33-.122,2.827.016,4.256a3.284,3.284,0,0,1-.04,1.133,3.971,3.971,0,0,1-.995,1.558,8.265,8.265,0,0,0-1.429,2,2.913,2.913,0,0,0-.1,2.393,1.725,1.725,0,0,1,.235.631c.023.488-.488.8-.863,1.11-1.408,1.173-1.349,3.285-1.361,5.122a25.976,25.976,0,0,1-2.438,10.838,3.311,3.311,0,0,0,3.7-.483,12.331,12.331,0,0,1-.84,2.422c1.192.577,2.63-.371,3.229-1.553a28.079,28.079,0,0,0,1.093-3.813c.425-1.255,1.173-2.346,1.5-3.611a3.358,3.358,0,0,1,.427-1.211,3.185,3.185,0,0,1,.751-.641,7.328,7.328,0,0,0,2.654-3.6,14.605,14.605,0,0,0,4.437.509,4.932,4.932,0,0,0,3.794-2.081c.347-.561.535-1.206.856-1.783.394-.7.974-1.286,1.408-1.959a7.245,7.245,0,0,0,.814-5.528,13.191,13.191,0,0,0-2.581-5.07A9.966,9.966,0,0,0,161.064,338.862Z" transform="translate(-140.878 -286.296)" fill="#303d5c"/>
              <path id="Path_3362" data-name="Path 3362" d="M144.576,429.3c-.106.671-.235,1.342-.385,2.006a19.621,19.621,0,0,1-.648,2.267,2.163,2.163,0,0,0-.2,1.042,1.894,1.894,0,0,0,.251.619c.856,1.523,2.016,2.994,2.112,4.74a2.532,2.532,0,0,0,.235,1.265q.993-2.137,2.191-4.167a12.766,12.766,0,0,0,2-4.477,8.386,8.386,0,0,0-.03-2.3,4.987,4.987,0,0,0-.824-2.419c-.568-.741-2.112-1.861-3.128-1.628C144.97,426.518,144.726,428.346,144.576,429.3Z" transform="translate(-136.237 -353.268)" fill="#ebd3c7"/>
              <path id="Path_3363" data-name="Path 3363" d="M277.353,419.486a10.1,10.1,0,0,0,3.156-1.764,10.322,10.322,0,0,0,1.436-1.781l2.64-3.808a6.959,6.959,0,0,0,1.408-2.947,9.705,9.705,0,0,0,2.635-5.993c.019-.223.094-.516.317-.523a.392.392,0,0,1,.258.124,1.485,1.485,0,0,1,.469,1.265,1.745,1.745,0,0,1,1.117.2c.314.225.4.784.061.969a.483.483,0,0,1,.335.547,1.76,1.76,0,0,1,1.2.056c.357.2.493.793.148,1.014a1.046,1.046,0,0,1,.669,1,1.989,1.989,0,0,1-.458,1.173c-1.014,1.361-2.8,1.91-3.977,3.135a9.476,9.476,0,0,0-1.035,1.382l-3.4,5.181a18.679,18.679,0,0,1-3.735,4.55A3.418,3.418,0,0,1,279.2,424a1.532,1.532,0,0,1-1.462-.406,2.375,2.375,0,0,1-.425-1.457C277.262,421.267,277.412,420.366,277.353,419.486Z" transform="translate(-238.772 -335.245)" fill="#fbbebe"/>
              <path id="Path_3364" data-name="Path 3364" d="M208.879,771.372a2.834,2.834,0,0,1,.364.441,1.539,1.539,0,0,1,.153,1.262,1.687,1.687,0,0,1-.824.976,1.506,1.506,0,0,0-.26.15,1.467,1.467,0,0,1-.16.136.649.649,0,0,1-.354.066,12.515,12.515,0,0,1-2.691-.469,2.168,2.168,0,0,1-1.112-.521,2.129,2.129,0,0,1-.38-.739l-.319-.889a10.306,10.306,0,0,1-.49-1.656,3.4,3.4,0,0,1,.089-1.708.538.538,0,0,1,.117.35,3.824,3.824,0,0,0,.685,1.657,1.684,1.684,0,0,0,.267.335,1.7,1.7,0,0,0,.8.336,9.936,9.936,0,0,0,1.7.218.469.469,0,0,0,.235-.028.42.42,0,0,0,.195-.235,1.037,1.037,0,0,0,0-.7c-.155-.434-.58-.718-.781-1.131-.153-.305.056-.641.366-.383a9.777,9.777,0,0,1,.786.831Z" transform="translate(-181.699 -615.178)" fill="#303d5c"/>
              <path id="Path_3365" data-name="Path 3365" d="M205.531,744.165a6.805,6.805,0,0,0,.629,4.186c.284.432.662.8.983,1.2a1.432,1.432,0,0,1,.352.725,1.121,1.121,0,0,1-.967,1.075,3.122,3.122,0,0,1-1.551-.235,3.738,3.738,0,0,1-1.316-.619,3.8,3.8,0,0,1-1-2.422l-.319-2.051a4.9,4.9,0,0,1,.291-3.1l.526-1.539a.7.7,0,0,1,.235-.382.652.652,0,0,1,.4-.075c.5.026,1.771.209,2.016.741C206.016,742.135,205.566,743.613,205.531,744.165Z" transform="translate(-181.3 -594.134)" fill="#fbbebe"/>
              <path id="Path_3366" data-name="Path 3366" d="M218.889,562a.266.266,0,0,1,0,.04,1.758,1.758,0,0,1-.192.579,8.335,8.335,0,0,0-.741,2.989,2.625,2.625,0,0,1-.1.756,3.76,3.76,0,0,1-.385.664,7.009,7.009,0,0,0-.716,2.494,19.706,19.706,0,0,1-.873,3.271c-.523,1.45-1.227,2.933-.988,4.458a4.58,4.58,0,0,1,.136,1.1,3.182,3.182,0,0,1-.429,1.152,10.96,10.96,0,0,0-.469,1.068c-.153.389-.289.788-.408,1.192a1.618,1.618,0,0,0,.089,1.466,1.791,1.791,0,0,1,.265.322.861.861,0,0,1,0,.554q-.279,1.173-.6,2.346c-.164.61-.338,1.215-.516,1.821-1.319,4.428-2.816,8.811-3.7,13.346-.127.652-.964,1.119-1.612,1.262a2.112,2.112,0,0,1-1.854-.5c-.045-.04-.087-.085-.127-.127a3.9,3.9,0,0,1-.73-2.87c.235-4.667,2.581-8.94,3.7-13.475a26.071,26.071,0,0,0,.727-5c.26-5.631.366-11.586-1.227-17-.331-1.126-.723-2.4-.127-3.407a3.392,3.392,0,0,1,1.762-1.288,11.336,11.336,0,0,1,8.789.235,2.736,2.736,0,0,1-.014.338,3.462,3.462,0,0,0,.178,1.553A1.974,1.974,0,0,1,218.889,562Z" transform="translate(-183.379 -454.468)" fill="#303d5c"/>
              <path id="Path_3367" data-name="Path 3367" d="M176.992,755.3l-.3,1.084a12.282,12.282,0,0,1-.633,1.908,8.189,8.189,0,0,0-.563,1.3,4.018,4.018,0,0,0-.1,1.112,3.319,3.319,0,0,0,.152,1.054,2.616,2.616,0,0,0,1.535,1.455,7.15,7.15,0,0,0,2.135.4,1.726,1.726,0,0,0,.561-.014,1.522,1.522,0,0,0,.542-.284,4.51,4.51,0,0,0,1.588-3.285,4.037,4.037,0,0,0-.167-.84c-.077-.1-.826.319-.5.673.469.521-.913.251-1.617.207a6.088,6.088,0,0,1-.917-.15l-1.14-.235c-.373-.08-.8-.209-.939-.565s.155-.784.38-1.131a7.4,7.4,0,0,0,.889-3.139c.026-.213.293-1.6-.258-1.173a1.554,1.554,0,0,0-.382.72C177.159,754.689,177.075,755,176.992,755.3Z" transform="translate(-160.774 -603.831)" fill="#303d5c"/>
              <path id="Path_3368" data-name="Path 3368" d="M213.752,652.587a1.6,1.6,0,0,1-.087-1.467c.052-.183.11-.364.171-.544l-4.477-1.516c-.016.4-.035.8-.054,1.2a25.929,25.929,0,0,1-.725,5c-1.119,4.533-3.468,8.806-3.7,13.47a3.718,3.718,0,0,0,.856,3,2.112,2.112,0,0,0,1.851.5c.65-.143,1.485-.612,1.614-1.265.887-4.535,2.377-8.916,3.7-13.348q.617-2.062,1.112-4.158a.854.854,0,0,0,0-.552A1.645,1.645,0,0,0,213.752,652.587Z" transform="translate(-183.334 -523.824)" opacity="0.05"/>
              <path id="Path_3369" data-name="Path 3369" d="M181.15,733.8a5.213,5.213,0,0,0-.976,1.849,11.559,11.559,0,0,0,.077,1.267,4.115,4.115,0,0,1-.185,1.035q-.655,2.363-1.506,4.66a1.28,1.28,0,0,0-.12.634c.056.359.406.6.739.739a7.879,7.879,0,0,0,3.428.378,1.8,1.8,0,0,0,.964-.234,1.67,1.67,0,0,0,.544-1.347c.08-1.455-.167-2.917,0-4.362.059-.528.169-1.046.251-1.57a4.571,4.571,0,0,0-.066-2.189,5.02,5.02,0,0,0-.821-1.377,4.327,4.327,0,0,0-1.138-1.136c-.136-.08-.523-.329-.662-.174-.07.08-.04.293-.049.392a4.119,4.119,0,0,1-.08.45A3.712,3.712,0,0,1,181.15,733.8Z" transform="translate(-163.102 -587.24)" fill="#fbbebe"/>
              <path id="Path_3370" data-name="Path 3370" d="M209.976,563.782a1.231,1.231,0,0,0-.082,1.021c.148.62.4,1.213.6,1.816a25.275,25.275,0,0,1,.77,3.3,9.749,9.749,0,0,1,.425,3.149,22.436,22.436,0,0,1,2.377,7.464c.092.669-1.394,1.532-1.366,2.205.056,1.342,1.126,1.45.338,2.52-.04.054.3,1.253.251,1.3-.321.387-.73.7-1.075,1.058a8.139,8.139,0,0,0-1.133,1.659c-2.041,3.689-4.993,7.87-4.083,11.987a.73.73,0,0,1-.389.739,2.022,2.022,0,0,1-.863.2H205.6a3.9,3.9,0,0,1-.73-2.87c.235-4.667,2.581-8.94,3.7-13.475a26.073,26.073,0,0,0,.727-5c.26-5.631.366-11.586-1.227-17-.331-1.126-.723-2.4-.127-3.407a3.391,3.391,0,0,1,1.762-1.288,11.336,11.336,0,0,1,8.789.235,2.728,2.728,0,0,1-.014.338,3.462,3.462,0,0,0,.178,1.553,1.973,1.973,0,0,1,.176.676s.08-.908.077-.894c-1.818.26-3.738,1.45-5.573,1.72a13.012,13.012,0,0,0-2.794.615A1.259,1.259,0,0,0,209.976,563.782Z" transform="translate(-183.326 -454.43)" opacity="0.05"/>
              <path id="Path_3371" data-name="Path 3371" d="M169.278,533.3q-.368,1.173-.65,2.37a1.983,1.983,0,0,0-.066.852,5.688,5.688,0,0,1,.253.779,2.633,2.633,0,0,1-.413,1.187,4.057,4.057,0,0,0,.469,3.111l1.3,2.933,1.065,2.407q.475,1.074.939,2.152a69.769,69.769,0,0,1,3.381,10.134,1.248,1.248,0,0,0,.174.441c.181.235.507.31.77.455a1.434,1.434,0,0,1,.16,2.29c.15,1.762-1.173,3.463-1.851,5.1-1.567,3.754-1.283,7.978-1.821,12.013l.608-.357c.584.268.563,1.1.878,1.656.469.842,1.624.96,2.581.9a2,2,0,0,0,.861-.2.727.727,0,0,0,.389-.739c-.908-4.118,2.041-8.3,4.085-11.988a8.137,8.137,0,0,1,1.131-1.659c.347-.366.753-.673,1.077-1.058a5.8,5.8,0,0,0,.955-4.014,22.474,22.474,0,0,0-2.557-9.482,9.68,9.68,0,0,0-.422-3.147,24.7,24.7,0,0,0-.777-3.3c-.2-.608-.448-1.2-.6-1.818a1.24,1.24,0,0,1,.082-1.021,1.264,1.264,0,0,1,.577-.373,12.986,12.986,0,0,1,2.794-.615l6.3-.9a15.98,15.98,0,0,0,.267-4.033,6.2,6.2,0,0,0-4.442-5.188.953.953,0,0,0-.821.054A32.755,32.755,0,0,0,169.278,533.3Z" transform="translate(-155.296 -433.936)" fill="#303d5c"/>
              <path id="Path_3372" data-name="Path 3372" d="M182.275,383.942a3.091,3.091,0,0,1-.275,1.8,2.83,2.83,0,0,1-.7.791,5.4,5.4,0,0,1-2.074,1.03,2.245,2.245,0,0,0-1.241.542c-.441.533-.145,1.34.235,1.922a4.977,4.977,0,0,0,2.719,2.248c.939.254,1.917.1,2.865.263.687.12,1.335.4,2.013.565a5.946,5.946,0,0,0,5.46-1.523,7.834,7.834,0,0,1-2.581-2.757,3.911,3.911,0,0,1-.2-2.637c.235-.859.786-1.694.617-2.581a2.656,2.656,0,0,0-1.877-1.776,12.238,12.238,0,0,0-2.379-.472c-.443-.061-3.259-.683-3.435-.375-.1.174.486,1.2.558,1.429A5.434,5.434,0,0,1,182.275,383.942Z" transform="translate(-162.584 -318.582)" fill="#fbbebe"/>
              <circle id="Ellipse_499" data-name="Ellipse 499" cx="5.711" cy="5.711" r="5.711" transform="translate(17.53 55.993)" fill="#fbbebe"/>
              <path id="Path_3373" data-name="Path 3373" d="M161.9,412.287l3.874.652a14.5,14.5,0,0,0,2.893.291,8.065,8.065,0,0,1,1.6,0c.366.061.716.2,1.082.246.453.056.913-.031,1.366.028a4.359,4.359,0,0,1,2.17,1.246,3.794,3.794,0,0,1,1.612,2.4.73.73,0,0,1-.047.333.978.978,0,0,1-.289.3,9.442,9.442,0,0,0-1.617,2.224,8.572,8.572,0,0,1-1.924,2.076c-.169-.108-.49.176-.418.364s.258.317.319.507c.138.439-.4.763-.629,1.173a3.131,3.131,0,0,0-.134,1.377c-.028.514-.235,1-.3,1.513-.157,1.19.432,2.443.016,3.566a1.124,1.124,0,0,1,1.112.866,3.273,3.273,0,0,1-.045,1.52,2.091,2.091,0,0,1,1.014,1.91.328.328,0,0,0,.235.455,1.933,1.933,0,0,1,1.19,1.79.9.9,0,0,0,.035.38.839.839,0,0,0,.279.289,2.224,2.224,0,0,1,.831,1.741,1.258,1.258,0,0,1-.589,1.143,10.437,10.437,0,0,1-2.6.774,22.908,22.908,0,0,1-2.518.448,23.226,23.226,0,0,1-2.346.073l-5.181-.021c-1.457,0-2.914,0-4.367-.11a12.307,12.307,0,0,0-4.057.1c-.164-.279.1-.6.26-.88a2.928,2.928,0,0,0,.3-1.22l.329-3.451a6.349,6.349,0,0,0,.026-1.431c-.07-.509-.263-.99-.361-1.495a20.273,20.273,0,0,1-.061-2.952,13.516,13.516,0,0,0-.453-2.581l-1.028-4.223a16.67,16.67,0,0,0-.5-2.112q-1.185-3.05-2.485-6.035a.641.641,0,0,1,.047-.535l.856-1.534a9.706,9.706,0,0,1,.784-1.251,4.927,4.927,0,0,1,2.891-1.774,5.1,5.1,0,0,1,3.362.5c.4.213.77.469,1.173.68A5,5,0,0,0,161.9,412.287Z" transform="translate(-141.681 -341.144)" fill="#ebd3c7"/>
              <path id="Path_3374" data-name="Path 3374" d="M248.665,434.55l1.349,1.8a2.5,2.5,0,0,1,.314.5,8.115,8.115,0,0,1,.2,1.527,3.222,3.222,0,0,0,.4.913,20.544,20.544,0,0,0,1.715,2.55,4.42,4.42,0,0,0,1.068,1.053,1.755,1.755,0,0,0,1.436.256.885.885,0,0,0-.469.427,5.229,5.229,0,0,0-.333,3.341,3.379,3.379,0,0,0,.375,1.093,1.624,1.624,0,0,0,.859.744,1.262,1.262,0,0,1-1.49,1.07,2.422,2.422,0,0,1-.739-.368l-2.168-1.408a6.028,6.028,0,0,1-1.009-.758c-.406-.4-.687-.915-1.082-1.33-.671-.7-1.657-1.136-2.13-1.99a9.148,9.148,0,0,1-.533-1.75c-.12-.382-.3-.744-.411-1.129a5.048,5.048,0,0,1,.443-3.6A14.645,14.645,0,0,1,248.665,434.55Z" transform="translate(-214.697 -359.645)" fill="#ebd3c7"/>
              <path id="Path_3375" data-name="Path 3375" d="M169.762,345.17a7.57,7.57,0,0,0-2.008-2.091,6.885,6.885,0,0,0-3.625-1.532,3.922,3.922,0,0,0-1.631.265c-.026-1.612-.425-2.687-1.434-2.525-1.877.3-3.965,1.025-4.693,2.785-.542,1.33-.122,2.827.016,4.256a3.284,3.284,0,0,1-.04,1.133,3.971,3.971,0,0,1-.995,1.558,8.263,8.263,0,0,0-1.429,2,2.912,2.912,0,0,0-.1,2.393,1.726,1.726,0,0,1,.235.631c.023.488-.488.8-.863,1.11-1.408,1.173-1.349,3.285-1.361,5.122a25.977,25.977,0,0,1-2.438,10.838,3.311,3.311,0,0,0,3.7-.483,12.327,12.327,0,0,1-.84,2.421c1.192.577,2.63-.371,3.229-1.553a28.086,28.086,0,0,0,1.093-3.813c.425-1.255,1.173-2.346,1.5-3.611a3.358,3.358,0,0,1,.427-1.211,3.183,3.183,0,0,1,.751-.641c1.229-.882-.582-7.567-.1-9,.7.157,2.03-3.285,2.778-6.8a3.543,3.543,0,0,0,1.626.162,2.014,2.014,0,0,1,.58-.04,1.491,1.491,0,0,1,.507.207,12.838,12.838,0,0,0,1.732.889,9.659,9.659,0,0,0,3.921.336A3.907,3.907,0,0,0,169.762,345.17Z" transform="translate(-140.878 -286.722)" fill="#303d5c"/>
              <g id="Group_434" data-name="Group 434" transform="translate(8.522 52.559)" opacity="0.1">
                <path id="Path_3376" data-name="Path 3376" d="M150.071,371.15a25.905,25.905,0,0,0,2.45-10.828c.012-1.83-.049-3.956,1.361-5.122.375-.312.887-.622.863-1.11a1.763,1.763,0,0,0-.235-.631,2.95,2.95,0,0,1,.094-2.393,8.213,8.213,0,0,1,1.431-2,3.982,3.982,0,0,0,.993-1.558,3.337,3.337,0,0,0,.042-1.133c-.141-1.429-.558-2.926-.016-4.256.7-1.7,2.672-2.433,4.5-2.752a1.03,1.03,0,0,0-.493-.033c-1.877.3-3.965,1.025-4.693,2.785-.542,1.33-.122,2.827.016,4.256a3.285,3.285,0,0,1-.04,1.133,3.972,3.972,0,0,1-.995,1.558,8.261,8.261,0,0,0-1.429,2,2.912,2.912,0,0,0-.1,2.393,1.725,1.725,0,0,1,.235.631c.023.488-.488.8-.863,1.11-1.408,1.173-1.349,3.285-1.361,5.122A25.977,25.977,0,0,1,149.4,371.15a3.21,3.21,0,0,0,1.814.34A3.1,3.1,0,0,1,150.071,371.15Z" transform="translate(-149.4 -339.313)"/>
                <path id="Path_3377" data-name="Path 3377" d="M162.223,475.321a12.327,12.327,0,0,0,.833-2.421,3.129,3.129,0,0,1-.812.537,12.275,12.275,0,0,1-.7,1.877,1.783,1.783,0,0,0,1.1.141A1.753,1.753,0,0,1,162.223,475.321Z" transform="translate(-158.691 -441.556)"/>
                <path id="Path_3378" data-name="Path 3378" d="M208.065,349.257a3.934,3.934,0,0,1,1.089-.253h-.129a3.822,3.822,0,0,0-.964.073C208.062,349.128,208.065,349.191,208.065,349.257Z" transform="translate(-194.296 -346.726)"/>
                <path id="Path_3379" data-name="Path 3379" d="M215.619,371.3a12.8,12.8,0,0,1-1.729-.889,1.5,1.5,0,0,0-.509-.206,1.76,1.76,0,0,0-.53.033,2.183,2.183,0,0,1,.366.174,12.823,12.823,0,0,0,1.732.889,7.743,7.743,0,0,0,2.9.375A6.791,6.791,0,0,1,215.619,371.3Z" transform="translate(-197.962 -362.953)"/>
                <path id="Path_3380" data-name="Path 3380" d="M205.6,369.71a.728.728,0,0,1-.033.155,3.545,3.545,0,0,0,.849.023A3.757,3.757,0,0,1,205.6,369.71Z" transform="translate(-192.391 -362.578)"/>
              </g>
              <path id="Path_3381" data-name="Path 3381" d="M130.191,415.623a2.1,2.1,0,0,1-.563,1.668,3.7,3.7,0,0,1-.8.584,2.112,2.112,0,0,1-.939.354,1.786,1.786,0,0,1-1.206-.523,8.06,8.06,0,0,1-1.952-3.407,25.627,25.627,0,0,1-1.473-5.035c-.279-1.858-.16-3.782-.692-5.587.469-.938.774-1.985,1.312-2.9a13.487,13.487,0,0,0,.9-1.694,5.866,5.866,0,0,0,.16-3.909.53.53,0,0,1,.624.033,1.293,1.293,0,0,1,.375.547,4.847,4.847,0,0,1,.375,2.3.892.892,0,0,0,.063.561.7.7,0,0,0,.61.258,5.505,5.505,0,0,0,1.408-.256,13.081,13.081,0,0,1,4.343-.359,2.094,2.094,0,0,1,.847.206.788.788,0,0,1,.436.7l-3.473.509a1.431,1.431,0,0,0-.73.249.493.493,0,0,0-.1.688,1.61,1.61,0,0,0,.235.16.7.7,0,0,1-.028,1.143.807.807,0,0,0-.235.164c-.141.19.047.441.108.671a.847.847,0,0,1-.418.866,2.9,2.9,0,0,1-.969.326,10.392,10.392,0,0,0-1.983.673,1.089,1.089,0,0,0-.516.387,1.16,1.16,0,0,0,.059.974l.906,2.436a10.765,10.765,0,0,0,.469,1.133c.235.469.514.924.751,1.408a14.656,14.656,0,0,1,.565,1.363C129.123,413.561,130.036,414.312,130.191,415.623Z" transform="translate(-120.343 -329.447)" fill="#fbbebe"/>
              <rect id="Rectangle_1110" data-name="Rectangle 1110" width="10.824" height="10.479" transform="translate(41.183 70.376)" fill="url(#linear-gradient)"/>
              <rect id="Rectangle_1111" data-name="Rectangle 1111" width="10.451" height="10.117" transform="translate(41.371 70.557)" fill="#49b776"/>
              <path id="Path_3382" data-name="Path 3382" d="M324.892,410.669a1.079,1.079,0,0,0-.4.579.235.235,0,0,0,.091.263.262.262,0,0,0,.16,0,1.489,1.489,0,0,0,.7-.331.705.705,0,0,0-.209.169.235.235,0,0,0-.028.253.331.331,0,0,0,.235.12,2.246,2.246,0,0,0,1.007-.047,1.385,1.385,0,0,0-.418.246.561.561,0,0,0-.19.434.216.216,0,0,0,.075.162.271.271,0,0,0,.113.04,2.711,2.711,0,0,0,.938,0,.481.481,0,0,0,.394-.235.591.591,0,0,0-.091-.453,2.531,2.531,0,0,1-.235-1.145.45.45,0,0,0-.033-.235.418.418,0,0,0-.209-.153,1.812,1.812,0,0,0-1.15-.235A2.419,2.419,0,0,0,324.892,410.669Z" transform="translate(-274.882 -340.909)" fill="#ee8e9e"/>
            </g>
          </g>
        </g>
      </g>
    </g>
  </g>
</svg>
