<svg xmlns="http://www.w3.org/2000/svg" xmlns:xlink="http://www.w3.org/1999/xlink" width="150" height="150" viewBox="0 0 150 150">
  <defs>
    <linearGradient id="linear-gradient" x1="0.134" y1="86.936" x2="1.247" y2="90.864" gradientUnits="objectBoundingBox">
      <stop offset="0.36" stop-color="#00272e"/>
      <stop offset="0.75" stop-color="#3f80a1" stop-opacity="0.251"/>
      <stop offset="1" stop-color="#69b9eb" stop-opacity="0"/>
    </linearGradient>
  </defs>
  <g id="Subscriptions_375_Unsubscribe" transform="translate(-777 -401)">
    <rect id="Base" width="150" height="150" transform="translate(777 401)" fill="#fff" opacity="0"/>
    <g id="new_message" transform="translate(777 415.4)">
      <path id="Path_375" data-name="Path 375" d="M169.691,47.975c-9.617-.277-18.776-2.863-27.516-5.692s-17.416-5.959-26.8-7.457c-6.037-.964-12.94-1.1-17.8,1.594-4.682,2.593-6.193,7.07-7.006,11.226-.613,3.125-.973,6.415.7,9.34,1.16,2.029,3.231,3.738,4.66,5.683C100.9,69.439,97.384,77.786,92,84.4c-2.528,3.1-5.46,6.059-7.411,9.359s-2.85,7.085-1.146,10.447c1.691,3.334,5.722,5.843,10.089,7.606,8.869,3.58,19.321,4.6,29.511,5.186,22.559,1.284,45.239.725,67.858.171a238.278,238.278,0,0,0,25.014-1.493c4.573-.6,9.294-1.548,12.61-3.841,4.215-2.91,5.258-7.84,2.435-11.489-4.737-6.122-17.828-7.643-21.145-14.213-1.823-3.616.049-7.646,2.7-11,5.682-7.195,15.206-13.507,15.707-21.731.344-5.653-4.234-11.305-11.313-13.978-7.42-2.8-17.709-2.45-23.191,2.189C188.087,46.383,178.182,48.225,169.691,47.975Z" transform="translate(-82.538 -34.194)" fill="rgba(210,189,176,0.1)"/>
      <g id="Group_324" data-name="Group 324" transform="translate(121.32 56.313) rotate(45)">
        <path id="Path_385" data-name="Path 385" d="M1.466,5.342c1.442.824,7.2.751,7.2.751S6.068,1.24,4.631.417a3.155,3.155,0,0,0-4.188.971A2.787,2.787,0,0,0,1.466,5.342Z" transform="translate(0 14.079)" opacity="0.25"/>
        <path id="Path_388" data-name="Path 388" d="M5.894,3.863C5.319,5.358.782,8.71.782,8.71S-.419,3.394.156,1.9A3.1,3.1,0,0,1,4.065.173,2.841,2.841,0,0,1,5.894,3.863Z" transform="translate(8.677 13.947)" opacity="0.25"/>
        <path id="Path_386" data-name="Path 386" d="M3.011,5.76c1.683.024,6.614-2.784,6.614-2.784S4.789.026,3.1,0A2.984,2.984,0,0,0,0,2.836,2.968,2.968,0,0,0,3.011,5.76Z" transform="translate(5.613 27.12)" opacity="0.25"/>
        <path id="Path_390" data-name="Path 390" d="M5.871,4.216C5.089,5.625.121,8.375.121,8.375s-.436-5.42.345-6.83A3.141,3.141,0,0,1,4.583.329,2.8,2.8,0,0,1,5.871,4.216Z" transform="translate(25.002 35.77)" opacity="0.25"/>
        <path id="Path_387" data-name="Path 387" d="M2.487,5.71C4.141,6,9.5,4.021,9.5,4.021S5.265.337,3.613.049a3.044,3.044,0,0,0-3.56,2.3A2.889,2.889,0,0,0,2.487,5.71Z" transform="translate(13.981 36.195)" opacity="0.25"/>
        <path id="Path_376" data-name="Path 376" d="M19.675,37.029S17.32,23.685,8.579,17.072A20.447,20.447,0,0,1,1.055,6.226,32.726,32.726,0,0,1,0,0" transform="translate(7.412 13.617)" fill="none" stroke="#535461" stroke-width="2"/>
        <path id="Path_384" data-name="Path 384" d="M.307,4.138c.73,1.43,5.61,4.323,5.61,4.323S6.531,3.055,5.8,1.624A3.132,3.132,0,0,0,1.72.289,2.807,2.807,0,0,0,.307,4.138Z" transform="translate(1.624 5.281)" opacity="0.25"/>
        <path id="Path_391" data-name="Path 391" d="M4.085,41.381s3.573-13.1-1.579-22.493A19.5,19.5,0,0,1,.283,6.094,32.865,32.865,0,0,1,1.99,0" transform="translate(22.707 8.915)" fill="none" stroke="#535461" stroke-width="2"/>
        <path id="Path_392" data-name="Path 392" d="M0,2.98c.058,1.588,3.273,6.1,3.273,6.1S6.156,4.371,6.1,2.781A2.982,2.982,0,0,0,2.945,0,2.953,2.953,0,0,0,0,2.98Z" transform="translate(21.486 0)" fill="#49b776"/>
        <path id="Path_393" data-name="Path 393" d="M.546,4.529C1.51,5.832,6.8,7.968,6.8,7.968S6.512,2.539,5.548,1.234A3.167,3.167,0,0,0,1.3.52,2.78,2.78,0,0,0,.546,4.529Z" transform="translate(16.225 7.418)" fill="#49b776"/>
        <path id="Path_394" data-name="Path 394" d="M1.772,5.494c1.53.666,7.244-.013,7.244-.013S5.859.932,4.329.266A3.128,3.128,0,0,0,.282,1.673,2.814,2.814,0,0,0,1.772,5.494Z" transform="translate(15.766 21.491)" fill="#49b776"/>
        <path id="Path_395" data-name="Path 395" d="M1.323,5.258C2.713,6.16,8.465,6.4,8.465,6.4S6.169,1.413,4.781.513a3.164,3.164,0,0,0-4.241.73,2.781,2.781,0,0,0,.783,4.015Z" transform="translate(19.509 32.983)" fill="#49b776"/>
        <path id="Path_396" data-name="Path 396" d="M6.755,4.875C5.587,6.022,0,7.353,0,7.353S1.185,2.031,2.351.884A3.18,3.18,0,0,1,6.666.8a2.768,2.768,0,0,1,.089,4.071Z" transform="translate(22.688 10.612)" fill="#49b776"/>
        <path id="Path_398" data-name="Path 398" d="M7.042,5.136C5.722,6.126,0,6.739,0,6.739S1.928,1.615,3.248.625a3.173,3.173,0,0,1,4.285.465,2.773,2.773,0,0,1-.491,4.046Z" transform="translate(27.785 36.861)" fill="#49b776"/>
      </g>
      <path id="Path_1560" data-name="Path 1560" d="M262.312,180.5v50.047a4.775,4.775,0,0,1-4.777,4.773h-74.85a4.775,4.775,0,0,1-4.775-4.775h0V180.5a4.775,4.775,0,0,1,4.769-4.777h74.856A4.775,4.775,0,0,1,262.312,180.5Z" transform="translate(-156.651 -114.396)" fill="#f4f4f4"/>
      <path id="Path_1561" data-name="Path 1561" d="M265.938,51.566H184l.665-.509a1.175,1.175,0,0,1,.1-.075L223.737,21.1l1.231-.943,39.658,30.4Z" transform="translate(-161.571 11.284)" fill="#68e1fd"/>
      <path id="Path_1562" data-name="Path 1562" d="M262.312,180.5l-1,.72h0l-7.259,5.257L218.817,212l-33.892-26.1-7.015-5.4.09-.928a4.739,4.739,0,0,1,1.187-2.322,4.477,4.477,0,0,1,.553-.509,1.161,1.161,0,0,1,.1-.075,4.744,4.744,0,0,1,2.848-.943h74.85a4.781,4.781,0,0,1,4.754,4.316Q262.312,180.266,262.312,180.5Z" transform="translate(-156.651 -114.396)" fill="#68e1fd"/>
      <path id="Path_1563" data-name="Path 1563" d="M184.661,181a4.788,4.788,0,0,0-.553.509H184Z" transform="translate(-161.571 -118.662)" opacity="0.61" fill="url(#linear-gradient)"/>
      <path id="Path_1564" data-name="Path 1564" d="M262.312,54.816l-1,.722h0l-7.259,5.255-35.24,25.525-33.892-26.1-7.015-5.4.09-.926a4.787,4.787,0,0,1,1.74-2.837l.1-.073L218.817,21.1l1.231-.943,39.658,30.4a4.769,4.769,0,0,1,2.583,3.8A4.567,4.567,0,0,1,262.312,54.816Z" transform="translate(-156.651 11.284)" fill="#debaa8" opacity="0.9"/>
      <path id="Path_1565" data-name="Path 1565" d="M283.546,169.407v9.677L270.54,188.5l-2.983,2.167-19.252,13.945L230.2,190.662l-2.806-2.159-12.982-9.988v-9.108a2.837,2.837,0,0,1,2.837-2.837h63.464A2.839,2.839,0,0,1,283.546,169.407Z" transform="translate(-186.14 -107.004)" fill="#fff"/>
      <path id="Path_1566" data-name="Path 1566" d="M304.474,216.429H253.189a1.079,1.079,0,0,1-1.079-1.079h0a1.079,1.079,0,0,1,1.079-1.079h51.284a1.08,1.08,0,0,1,1.079,1.079h0A1.08,1.08,0,0,1,304.474,216.429Z" transform="translate(-216.599 -145.542)" fill="#debaa8"/>
      <path id="Path_1567" data-name="Path 1567" d="M304.474,249.679H253.189a1.079,1.079,0,0,1-1.079-1.079h0a1.079,1.079,0,0,1,1.079-1.079h51.284a1.079,1.079,0,0,1,1.079,1.079h0A1.08,1.08,0,0,1,304.474,249.679Z" transform="translate(-216.599 -172.405)" fill="#debaa8"/>
      <path id="Path_1568" data-name="Path 1568" d="M325.156,280.76l-2.983,2.159H284.814l-2.8-2.159Z" transform="translate(-240.756 -199.261)" fill="#debaa8"/>
      <path id="Path_1569" data-name="Path 1569" d="M259.3,364.6,228.02,387.922h63.209Z" transform="translate(-197.136 -266.997)" fill="#585151" opacity="0.05"/>
      <path id="Path_1570" data-name="Path 1570" d="M218.891,44.908c-1.575-3.379-7.491-2.824-7.491-2.824,3.649-2.153,2.95-7.622,2.906-7.944h0c1.6,4.767,7.107,3.715,7.6,3.611C218.248,38.654,218.891,44.908,218.891,44.908Z" transform="translate(-183.709 -0.011)" fill="#debaa8"/>
      <path id="Path_1571" data-name="Path 1571" d="M176.963,97.463c-1-2.147-4.763-1.794-4.763-1.794h0c2.382-1.416,1.842-5.059,1.842-5.059v.021c1.022,3.014,4.518,2.345,4.829,2.28C176.554,93.487,176.963,97.463,176.963,97.463Z" transform="translate(-152.038 -45.634)" fill="#debaa8"/>
      <path id="Path_1586" data-name="Path 1586" d="M212.263,41.808l-.843.277c3.649-2.153,2.95-7.622,2.906-7.944.058.259.907,3.868.444,5.054A6.666,6.666,0,0,1,212.263,41.808Z" transform="translate(-183.725 -0.011)" fill="#fff" opacity="0.22"/>
      <path id="Path_1587" data-name="Path 1587" d="M174.578,94.019a9.92,9.92,0,0,1-2.338,1.631c2.382-1.416,1.842-5.059,1.842-5.059v.021C174.176,90.861,175.012,93.415,174.578,94.019Z" transform="translate(-152.07 -45.618)" fill="#debaa8" opacity="0.22"/>
      <path id="Path_1588" data-name="Path 1588" d="M178.052,203.218l39.12,30.1,1.644-1.225-40.907-31.5Z" transform="translate(-156.651 -134.489)" fill="#fff" opacity="0.22"/>
      <path id="Path_1589" data-name="Path 1589" d="M392.175,233.487l42.2-30.375V201.04l-43.5,31.5Z" transform="translate(-328.715 -134.853)" fill="#fff" opacity="0.22"/>
      <path id="Path_1590" data-name="Path 1590" d="M434.353,54.805l-.115.323-.859.859c.6-1.041-1.1-3.457-1.1-3.457l-.68-.509-2.042-1.537L390.88,21.553l1.231-.943,39.658,30.4A4.775,4.775,0,0,1,434.353,54.805Z" transform="translate(-328.715 10.921)" fill="#fff" opacity="0.22"/>
    </g>
  </g>
</svg>
