<svg width="20" height="20" viewBox="0 0 20 20" fill="none" xmlns="http://www.w3.org/2000/svg">
<g id="invoice (1) 1">
<g id="Group">
<g id="Group_2">
<path id="Vector" d="M10.4182 6.90425H9.58136C9.21234 6.90425 8.91211 6.60402 8.91211 6.23495C8.91211 5.86593 9.21234 5.5657 9.58136 5.5657H11.255C11.5785 5.5657 11.8409 5.30336 11.8409 4.97976C11.8409 4.65617 11.5785 4.39383 11.255 4.39383H10.5857V3.72461C10.5857 3.40102 10.3233 3.13867 9.99972 3.13867C9.67613 3.13867 9.41379 3.40102 9.41379 3.72461V4.40183C8.47687 4.48679 7.74023 5.27632 7.74023 6.23499C7.74023 7.25023 8.56617 8.07616 9.58136 8.07616H10.4182C10.7873 8.07616 11.0875 8.3764 11.0875 8.74542C11.0875 9.11444 10.7873 9.41467 10.4182 9.41467H8.74453C8.42094 9.41467 8.15859 9.67702 8.15859 10.0006C8.15859 10.3242 8.42094 10.5865 8.74453 10.5865H9.41379V11.2558C9.41379 11.5794 9.67613 11.8417 9.99972 11.8417C10.3233 11.8417 10.5857 11.5794 10.5857 11.2558V10.5786C11.5226 10.4937 12.2594 9.70413 12.2594 8.74538C12.2594 7.73019 11.4335 6.90425 10.4182 6.90425Z" fill="#494949"/>
</g>
</g>
<g id="Group_3">
<g id="Group_4">
<path id="Vector_2" d="M13.1383 13.8066H6.8623C6.53871 13.8066 6.27637 14.069 6.27637 14.3926C6.27637 14.7162 6.53871 14.9785 6.8623 14.9785H13.1383C13.4619 14.9785 13.7242 14.7162 13.7242 14.3926C13.7242 14.069 13.4619 13.8066 13.1383 13.8066Z" fill="#494949"/>
</g>
</g>
<g id="Group_5">
<g id="Group_6">
<path id="Vector_3" d="M16.9039 0H3.09668C2.77309 0 2.51074 0.262343 2.51074 0.585936V17.6881C2.51074 17.8435 2.5725 17.9925 2.68238 18.1024L4.40832 19.8284C4.63711 20.0572 5.00812 20.0572 5.23695 19.8284L6.54855 18.5168L7.86011 19.8284C7.96999 19.9382 8.11901 20 8.27444 20C8.42983 20 8.57889 19.9383 8.68878 19.8284L10.0003 18.5168L11.3119 19.8284C11.4218 19.9382 11.5708 20 11.7262 20C11.8816 20 12.0306 19.9382 12.1405 19.8284L13.4521 18.5168L14.7637 19.8284C14.8781 19.9428 15.028 20 15.178 20C15.3279 20 15.4779 19.9428 15.5923 19.8284L17.3183 18.1024C17.4281 17.9925 17.4899 17.8435 17.4899 17.6881V0.585936C17.4899 0.262343 17.2276 0 16.9039 0ZM15.178 18.5854L13.8664 17.2738C13.7565 17.1639 13.6074 17.1022 13.452 17.1022C13.2966 17.1022 13.1476 17.1639 13.0377 17.2738L11.7262 18.5854L10.4146 17.2738C10.1858 17.045 9.81475 17.045 9.58592 17.2738L8.27433 18.5854L6.96276 17.2738C6.85288 17.1639 6.70386 17.1022 6.54843 17.1022C6.39304 17.1022 6.24402 17.1639 6.13413 17.2738L4.82253 18.5854L3.68254 17.4454V1.17187H16.3179V17.4454H16.318L15.178 18.5854Z" fill="#494949"/>
</g>
</g>
</g>
</svg>
