<svg xmlns="http://www.w3.org/2000/svg" width="24" height="24" viewBox="0 0 24 24">
  <g id="Organization_Icon" data-name="Organization Icon" transform="translate(-14987 -19341)">
    <rect id="Base" width="24" height="24" transform="translate(14987 19341)" fill="#49B776" opacity="0"/>
    <g id="company" transform="translate(14991 19345)">
      <g id="Group_1205" data-name="Group 1205" transform="translate(10.344 5.191)">
        <g id="Group_1204" data-name="Group 1204">
          <path id="Path_4107" data-name="Path 4107" d="M336.186,175.982h-.5v-7.969a.456.456,0,0,0-.319-.441L331,166.11v10.809h5.188a.469.469,0,0,0,0-.937Zm-1.437,0h-.937v-1.875h-.937v1.875h-.937v-2.344a.464.464,0,0,1,.469-.469h1.875a.464.464,0,0,1,.469.469Zm-.469-3.75H332.4a.469.469,0,0,1,0-.938h1.875a.469.469,0,0,1,0,.938Zm0-1.875H332.4a.469.469,0,0,1,0-.938h1.875a.469.469,0,0,1,0,.938Z" transform="translate(-330.998 -166.11)" fill="#49B776"/>
        </g>
      </g>
      <g id="Group_1207" data-name="Group 1207" transform="translate(0 0)">
        <g id="Group_1206" data-name="Group 1206">
          <path id="Path_4108" data-name="Path 4108" d="M9.114,2.841,1.614.028A.474.474,0,0,0,.977.469V15.063h-.5a.469.469,0,1,0,0,.937H9.414V3.282A.47.47,0,0,0,9.114,2.841ZM4.727,15.063H2.852V12.719a.464.464,0,0,1,.469-.469H4.727v2.813Zm-.469-3.75H3.321a.469.469,0,1,1,0-.938h.937a.469.469,0,1,1,0,.938Zm0-1.875H3.321a.469.469,0,1,1,0-.938h.937a.469.469,0,1,1,0,.938Zm0-1.875H3.321a.469.469,0,1,1,0-.938h.937a.469.469,0,1,1,0,.938Zm0-1.875H3.321a.469.469,0,1,1,0-.938h.937a.469.469,0,1,1,0,.938Zm3.281,9.375H5.664V12.25H7.071a.464.464,0,0,1,.469.469v2.344Zm-.469-3.75H6.133a.469.469,0,1,1,0-.938H7.07a.469.469,0,1,1,0,.938Zm0-1.875H6.133a.469.469,0,1,1,0-.938H7.07a.469.469,0,1,1,0,.938Zm0-1.875H6.133a.469.469,0,1,1,0-.938H7.07a.469.469,0,1,1,0,.938Zm0-1.875H6.133a.469.469,0,1,1,0-.938H7.07a.469.469,0,1,1,0,.938Z" transform="translate(-0.008 0)" fill="#49B776"/>
        </g>
      </g>
    </g>
  </g>
</svg>
