<svg xmlns="http://www.w3.org/2000/svg" width="18" height="18" viewBox="0 0 18 18">
  <g id="Calendar" transform="translate(-13635 -19698)">
    <rect id="Base" width="18" height="18" transform="translate(13635 19698)" fill="#49B776" opacity="0"/>
    <g id="calendar_" data-name="calendar " transform="translate(13637 19699)">
      <path id="Path_4100" data-name="Path 4100" d="M159.938,240.88a2.692,2.692,0,1,0-2.692-2.692A2.7,2.7,0,0,0,159.938,240.88Zm-1.586-3.116a.453.453,0,0,1,.641,0l.592.592,1.3-1.3a.453.453,0,0,1,.641.641l-1.618,1.618a.454.454,0,0,1-.641,0l-.912-.912A.453.453,0,0,1,158.352,237.764Zm0,0" transform="translate(-152.438 -228.296)" fill="#49B776"/>
      <path id="Path_4101" data-name="Path 4101" d="M0,173.883a1.468,1.468,0,0,0,1.466,1.466H13.534A1.468,1.468,0,0,0,15,173.883V164.73H0Zm7.5-7.895a3.6,3.6,0,1,1-3.6,3.6A3.6,3.6,0,0,1,7.5,165.988Zm0,0" transform="translate(0 -159.694)" fill="#49B776"/>
      <path id="Path_4102" data-name="Path 4102" d="M15,44.316v-1.4a1.468,1.468,0,0,0-1.466-1.466h-.827v.814a.453.453,0,0,1-.907,0v-.814h-.891v.814a.453.453,0,0,1-.907,0v-.814H5v.814a.453.453,0,0,1-.907,0v-.814H3.2v.814a.453.453,0,0,1-.907,0v-.814H1.47A1.468,1.468,0,0,0,0,42.919v1.4Zm0,0" transform="translate(-0.004 -40.186)" fill="#49B776"/>
      <path id="Path_4103" data-name="Path 4103" d="M386.848.453a.453.453,0,0,0-.907,0v.814h.907Zm0,0" transform="translate(-374.141)" fill="#49B776"/>
      <path id="Path_4104" data-name="Path 4104" d="M328.055.453a.453.453,0,0,0-.907,0v.814h.907Zm0,0" transform="translate(-317.146)" fill="#49B776"/>
      <path id="Path_4105" data-name="Path 4105" d="M134.692.453a.453.453,0,0,0-.907,0v.814h.907Zm0,0" transform="translate(-129.695)" fill="#49B776"/>
      <path id="Path_4106" data-name="Path 4106" d="M75.9.453a.453.453,0,0,0-.907,0v.814H75.9Zm0,0" transform="translate(-72.703)" fill="#49B776"/>
    </g>
  </g>
</svg>
