<svg xmlns="http://www.w3.org/2000/svg" width="24" height="24" viewBox="0 0 24 24">
  <g id="Location_Icon" data-name="Location Icon" transform="translate(-859 -363)">
    <g id="Base" transform="translate(859 363)" fill="#fff" stroke="#707070" stroke-width="1" opacity="0">
      <rect width="24" height="24" stroke="none"/>
      <rect x="0.5" y="0.5" width="23" height="23" fill="none"/>
    </g>
    <g id="Location_Icon-2" data-name="Location Icon" transform="translate(865 365.999)">
      <g id="Group_311" data-name="Group 311" transform="translate(0)">
        <path id="Path_1526" data-name="Path 1526" d="M77.073,0a6.507,6.507,0,0,0-6.5,6.5c0,4.448,5.817,10.978,6.065,11.254a.585.585,0,0,0,.871,0c.248-.276,6.065-6.806,6.065-11.254A6.507,6.507,0,0,0,77.073,0Zm0,9.77a3.27,3.27,0,1,1,3.27-3.27A3.274,3.274,0,0,1,77.073,9.77Z" transform="translate(-70.573 0)" fill="#49B776"/>
      </g>
    </g>
  </g>
</svg>
