<svg width="22" height="22" viewBox="0 0 22 22" fill="none" xmlns="http://www.w3.org/2000/svg">
<g id="ticket (4) 1" clip-path="url(#clip0_1111_36436)">
<path id="Vector" d="M19.7083 20.1673H2.29167C1.0285 20.1673 0 19.1388 0 17.8757V16.0423C0 15.7893 0.205333 15.584 0.458333 15.584H0.916667C1.92775 15.584 2.75 14.7617 2.75 13.7507C2.75 12.7396 1.92775 11.9173 0.916667 11.9173H0.458333C0.205333 11.9173 0 11.712 0 11.459V9.62565C0 8.36248 1.0285 7.33398 2.29167 7.33398H19.7083C20.9715 7.33398 22 8.36248 22 9.62565V11.459C22 11.712 21.7947 11.9173 21.5417 11.9173H21.0833C20.0723 11.9173 19.25 12.7396 19.25 13.7507C19.25 14.2402 19.4407 14.7003 19.7872 15.0468C20.1328 15.3933 20.5929 15.584 21.0824 15.584H21.5408C21.7938 15.584 21.9991 15.7893 21.9991 16.0423V17.8757C22 19.1388 20.9715 20.1673 19.7083 20.1673ZM0.916667 16.5007V17.8757C0.916667 18.6337 1.53358 19.2507 2.29167 19.2507H19.7083C20.4664 19.2507 21.0833 18.6337 21.0833 17.8757V16.5007C20.3491 16.5007 19.6579 16.2147 19.1391 15.6958C18.6193 15.1761 18.3333 14.4849 18.3333 13.7507C18.3333 12.2345 19.5672 11.0007 21.0833 11.0007V9.62565C21.0833 8.86757 20.4664 8.25065 19.7083 8.25065H2.29167C1.53358 8.25065 0.916667 8.86757 0.916667 9.62565V11.0007C2.43283 11.0007 3.66667 12.2345 3.66667 13.7507C3.66667 15.2668 2.43283 16.5007 0.916667 16.5007Z" fill="#494949"/>
<path id="Vector_2" d="M7.79134 9.16732C7.53834 9.16732 7.33301 8.96198 7.33301 8.70898V7.79232C7.33301 7.53932 7.53834 7.33398 7.79134 7.33398C8.04434 7.33398 8.24967 7.53932 8.24967 7.79232V8.70898C8.24967 8.96198 8.04434 9.16732 7.79134 9.16732Z" fill="#494949"/>
<path id="Vector_3" d="M7.79134 16.9233C7.53834 16.9233 7.33301 16.718 7.33301 16.465V14.9149C7.33301 14.6619 7.53834 14.4565 7.79134 14.4565C8.04434 14.4565 8.24967 14.661 8.24967 14.9149V16.4659C8.24967 16.7189 8.04434 16.9233 7.79134 16.9233ZM7.79134 13.0458C7.53834 13.0458 7.33301 12.8405 7.33301 12.5875V11.0365C7.33301 10.7835 7.53834 10.5781 7.79134 10.5781C8.04434 10.5781 8.24967 10.7835 8.24967 11.0365V12.5875C8.24967 12.8405 8.04434 13.0458 7.79134 13.0458Z" fill="#494949"/>
<path id="Vector_4" d="M7.79134 20.1673C7.53834 20.1673 7.33301 19.962 7.33301 19.709V18.7923C7.33301 18.5393 7.53834 18.334 7.79134 18.334C8.04434 18.334 8.24967 18.5393 8.24967 18.7923V19.709C8.24967 19.962 8.04434 20.1673 7.79134 20.1673Z" fill="#494949"/>
<path id="Vector_5" d="M2.29133 8.25037C2.10525 8.25037 1.93016 8.1367 1.86233 7.95245C1.77341 7.71504 1.8935 7.45104 2.13091 7.36304L16.7059 1.92079C17.4145 1.65495 18.2468 2.05279 18.4888 2.76687L20.1416 7.64445C20.2222 7.88462 20.0939 8.14404 19.8547 8.22562C19.6172 8.3072 19.3551 8.17795 19.2735 7.9387L17.6207 3.06112C17.5401 2.82279 17.2632 2.69262 17.0258 2.77879L2.45083 8.22104C2.39858 8.2412 2.3445 8.25037 2.29133 8.25037Z" fill="#494949"/>
</g>
<defs>
<clipPath id="clip0_1111_36436">
<rect width="22" height="22" fill="white"/>
</clipPath>
</defs>
</svg>
