<svg xmlns="http://www.w3.org/2000/svg" width="24" height="24" viewBox="0 0 24 24">
  <g id="Organization_Icon" data-name="Organization Icon" transform="translate(-15699 -19247)">
    <rect id="Base" width="24" height="24" transform="translate(15699 19247)" fill="#49b776" opacity="0"/>
    <g id="charity" transform="translate(15702 19219.07)">
      <g id="Group_1236" data-name="Group 1236" transform="translate(4.303 31.93)">
        <g id="Group_1235" data-name="Group 1235" transform="translate(0 0)">
          <path id="Path_5196" data-name="Path 5196" d="M108,32.6a2.493,2.493,0,0,0-1.723-.673,2.748,2.748,0,0,0-1.936.8l-.227.227-.227-.227a2.749,2.749,0,0,0-1.936-.8,2.494,2.494,0,0,0-1.723.673,2.574,2.574,0,0,0-.057,3.695l3.943,3.943,3.943-3.943A2.574,2.574,0,0,0,108,32.6Z" transform="translate(-99.418 -31.93)" fill="#49b776"/>
        </g>
      </g>
      <g id="Group_1238" data-name="Group 1238" transform="translate(0 32.625)">
        <g id="Group_1237" data-name="Group 1237" transform="translate(0 0)">
          <path id="Path_5197" data-name="Path 5197" d="M7.618,62.527l0-3.907a3.29,3.29,0,0,0-2.247-3.41,2.545,2.545,0,0,1-.975-.69c-.541-.563-1.119-1.334-1.868-1.324v0a.986.986,0,0,0-.7.3,1.2,1.2,0,0,0,.132,1.684l1.392,1.392a.692.692,0,0,1,0,.979L1.467,55.671a2.168,2.168,0,0,1-.61-1.212,1.7,1.7,0,0,1,1.5-1.941l-.281-1.135C2.055,47.171,0,47.685,0,48.676V56.07a1.722,1.722,0,0,0,.5,1.219c3.44,3.472,2.962,2.354,2.962,5.238Z" transform="translate(0 -47.986)" fill="#49b776"/>
        </g>
      </g>
      <g id="Group_1240" data-name="Group 1240" transform="translate(10.382 32.625)">
        <g id="Group_1239" data-name="Group 1239" transform="translate(0 0)">
          <path id="Path_5198" data-name="Path 5198" d="M247.477,48.677c0-.991-2.055-1.505-2.076,2.707l-.281,1.135a1.7,1.7,0,0,1,1.5,1.941,2.168,2.168,0,0,1-.61,1.212l-1.881,1.881a.692.692,0,0,1,0-.979l1.392-1.392a1.2,1.2,0,0,0,.132-1.684.986.986,0,0,0-.7-.3v0c-.749-.01-1.327.761-1.868,1.324a2.546,2.546,0,0,1-.975.69,3.29,3.29,0,0,0-2.247,3.41l0,3.907h4.155c0-2.884-.479-1.766,2.962-5.238a1.722,1.722,0,0,0,.5-1.219Z" transform="translate(-239.859 -47.987)" fill="#49b776"/>
        </g>
      </g>
    </g>
  </g>
</svg>
