<svg xmlns="http://www.w3.org/2000/svg" width="18" height="18" viewBox="0 0 18 18">
  <g id="Organization_Icon" data-name="Organization Icon" transform="translate(-14987 -19341)">
    <rect id="Base" width="18" height="18" transform="translate(14987 19341)" fill="#49B776" opacity="0"/>
    <g id="company" transform="translate(14989 19343)">
      <g id="Group_1205" data-name="Group 1205" transform="translate(9.051 4.542)">
        <g id="Group_1204" data-name="Group 1204">
          <path id="Path_4107" data-name="Path 4107" d="M335.537,174.748H335.1v-6.973a.4.4,0,0,0-.279-.386L331,166.11v9.458h4.539a.41.41,0,0,0,0-.82Zm-1.258,0h-.82v-1.641h-.82v1.641h-.82V172.7a.406.406,0,0,1,.41-.41h1.641a.406.406,0,0,1,.41.41Zm-.41-3.281h-1.641a.41.41,0,0,1,0-.82h1.641a.41.41,0,0,1,0,.82Zm0-1.641h-1.641a.41.41,0,0,1,0-.82h1.641a.41.41,0,0,1,0,.82Z" transform="translate(-330.998 -166.11)" fill="#49B776"/>
        </g>
      </g>
      <g id="Group_1207" data-name="Group 1207" transform="translate(0 0)">
        <g id="Group_1206" data-name="Group 1206">
          <path id="Path_4108" data-name="Path 4108" d="M7.976,2.486,1.413.025A.415.415,0,0,0,.856.41V13.18H.418a.41.41,0,1,0,0,.82h7.82V2.871A.411.411,0,0,0,7.976,2.486ZM4.137,13.18H2.5V11.129a.406.406,0,0,1,.41-.41h1.23V13.18ZM3.727,9.9h-.82a.41.41,0,1,1,0-.82h.82a.41.41,0,1,1,0,.82Zm0-1.641h-.82a.41.41,0,0,1,0-.82h.82a.41.41,0,0,1,0,.82Zm0-1.641h-.82a.41.41,0,1,1,0-.82h.82a.41.41,0,1,1,0,.82Zm0-1.641h-.82a.41.41,0,1,1,0-.82h.82a.41.41,0,1,1,0,.82ZM6.6,13.18H4.957V10.719h1.23a.406.406,0,0,1,.41.41V13.18ZM6.188,9.9h-.82a.41.41,0,1,1,0-.82h.82a.41.41,0,1,1,0,.82Zm0-1.641h-.82a.41.41,0,0,1,0-.82h.82a.41.41,0,1,1,0,.82Zm0-1.641h-.82a.41.41,0,1,1,0-.82h.82a.41.41,0,1,1,0,.82Zm0-1.641h-.82a.41.41,0,1,1,0-.82h.82a.41.41,0,1,1,0,.82Z" transform="translate(-0.008 0)" fill="#49B776"/>
        </g>
      </g>
    </g>
  </g>
</svg>
