<svg xmlns="http://www.w3.org/2000/svg" width="24" height="24" viewBox="0 0 24 24">
  <g id="Calendar" transform="translate(-12398 -19736)">
    <g id="event" transform="translate(12395.776 19739)">
      <g id="Group_1210" data-name="Group 1210" transform="translate(5.224)">
        <g id="Group_1209" data-name="Group 1209" transform="translate(0)">
          <path id="Path_4115" data-name="Path 4115" d="M83.714,3.162h1.459a.122.122,0,0,0,.122-.122V.122A.122.122,0,0,0,85.173,0H83.714a.122.122,0,0,0-.122.122V3.041A.122.122,0,0,0,83.714,3.162Z" transform="translate(-79.943)" fill="#49B776"/>
          <path id="Path_4116" data-name="Path 4116" d="M22.105,47.02h-1.8V47.8a.888.888,0,0,1-.8.924H18.067a1,1,0,0,1-.924-.924V47.02H11.305V47.8a1,1,0,0,1-.924.924H8.946a.888.888,0,0,1-.8-.924V47.02h-1.8a1.143,1.143,0,0,0-1.119,1.143v2.992h18V48.163A1.143,1.143,0,0,0,22.105,47.02Z" transform="translate(-5.224 -44.831)" fill="#49B776"/>
          <path id="Path_4117" data-name="Path 4117" d="M277.02,3.162h1.459a.122.122,0,0,0,.122-.122V.122A.122.122,0,0,0,278.479,0H277.02a.122.122,0,0,0-.122.122V3.041A.122.122,0,0,0,277.02,3.162Z" transform="translate(-264.249)" fill="#49B776"/>
          <path id="Path_4118" data-name="Path 4118" d="M127.966,210.831l-.341,1.97,1.751-.924.17-.049.17.049,1.751.924-.341-1.97a.413.413,0,0,1,.1-.316l1.435-1.362-1.97-.292a.365.365,0,0,1-.268-.195l-.876-1.776-.876,1.776a.365.365,0,0,1-.268.195l-1.97.292,1.435,1.362A.414.414,0,0,1,127.966,210.831Z" transform="translate(-120.791 -197.258)" fill="#49B776"/>
          <path id="Path_4119" data-name="Path 4119" d="M5.224,161.848a1.119,1.119,0,0,0,1.119,1.095H22.105a1.119,1.119,0,0,0,1.119-1.095V151.51h-18Zm4.524-5.862a.34.34,0,0,1,.292-.243l2.505-.389,1.119-2.262a.365.365,0,0,1,.632,0l1.119,2.262,2.505.389a.352.352,0,0,1,.195.608l-1.8,1.751.438,2.505a.365.365,0,0,1-.146.341.389.389,0,0,1-.219.073.243.243,0,0,1-.17-.049L13.981,159.8l-2.238,1.168a.341.341,0,0,1-.389-.024.365.365,0,0,1-.146-.341l.438-2.505-1.8-1.751A.341.341,0,0,1,9.748,155.986Z" transform="translate(-5.224 -144.456)" fill="#49B776"/>
        </g>
      </g>
    </g>
    <rect id="Base" width="24" height="24" transform="translate(12398 19736)" fill="#49B776" opacity="0"/>
  </g>
</svg>
