<svg xmlns="http://www.w3.org/2000/svg" width="24" height="24" viewBox="0 0 24 24">
  <g id="Calendar" transform="translate(-13635 -19698)">
    <rect id="Base" width="24" height="24" transform="translate(13635 19698)" fill="#49B776" opacity="0"/>
    <g id="calendar_" data-name="calendar " transform="translate(13638 19701)">
      <path id="Path_4100" data-name="Path 4100" d="M160.477,241.957a3.23,3.23,0,1,0-3.231-3.231A3.234,3.234,0,0,0,160.477,241.957Zm-1.9-3.739a.544.544,0,0,1,.769,0l.71.71,1.557-1.557a.544.544,0,0,1,.769.769l-1.942,1.942a.544.544,0,0,1-.769,0l-1.095-1.095A.544.544,0,0,1,158.574,238.218Zm0,0" transform="translate(-151.477 -226.855)" fill="#49B776"/>
      <path id="Path_4101" data-name="Path 4101" d="M0,175.713a1.761,1.761,0,0,0,1.759,1.759H16.241A1.761,1.761,0,0,0,18,175.713V164.73H0Zm9-9.474a4.318,4.318,0,1,1-4.319,4.318A4.323,4.323,0,0,1,9,166.239Zm0,0" transform="translate(0 -158.686)" fill="#49B776"/>
      <path id="Path_4102" data-name="Path 4102" d="M18,44.888V43.212a1.761,1.761,0,0,0-1.759-1.759h-.992v.977a.544.544,0,0,1-1.088,0v-.977H13.1v.977a.544.544,0,0,1-1.088,0v-.977H6v.977a.544.544,0,0,1-1.088,0v-.977H3.843v.977a.544.544,0,0,1-1.088,0v-.977H1.763A1.761,1.761,0,0,0,0,43.212v1.676Zm0,0" transform="translate(-0.004 -39.932)" fill="#49B776"/>
      <path id="Path_4103" data-name="Path 4103" d="M387.029.544a.544.544,0,0,0-1.088,0v.977h1.088Zm0,0" transform="translate(-371.781)" fill="#49B776"/>
      <path id="Path_4104" data-name="Path 4104" d="M328.236.544a.544.544,0,0,0-1.088,0v.977h1.088Zm0,0" transform="translate(-315.145)" fill="#49B776"/>
      <path id="Path_4105" data-name="Path 4105" d="M134.873.544a.544.544,0,0,0-1.088,0v.977h1.088Zm0,0" transform="translate(-128.876)" fill="#49B776"/>
      <path id="Path_4106" data-name="Path 4106" d="M76.084.544A.544.544,0,0,0,75,.544v.977h1.088Zm0,0" transform="translate(-72.244)" fill="#49B776"/>
    </g>
  </g>
</svg>
