<svg xmlns="http://www.w3.org/2000/svg" xmlns:xlink="http://www.w3.org/1999/xlink" width="688" height="286" viewBox="0 0 688 286"><defs><style>.a{fill:#fff;}.b{clip-path:url(#a);}.c{fill:#f2f2f2;}.d{fill:#9abcfe;}.e{fill:#b8d1ff;}.f{fill:#eaf0fb;}.g{fill:url(#b);}.h{fill:#fbbebe;}.i{fill:#444053;}.j{fill:#b07473;}.k,.r,.t{opacity:0.1;}.l{fill:#6c63ff;}.m{fill:#67647e;}.n,.t{fill:#474463;}.o{fill:#e1e7ef;}.p{fill:url(#c);}.q{fill:#a27772;}.s{fill:#585268;}.u{fill:url(#d);}.v{fill:#f6f8fb;}.w{fill:url(#j);}.x{fill:#65617d;}.y{fill:url(#k);}.z{opacity:0.05;}.aa{fill:#7c5c5c;}</style><clipPath id="a"><rect class="a" width="688" height="286" transform="translate(282 2968)"/></clipPath><linearGradient id="b" x1="0.5" y1="1" x2="0.5" gradientUnits="objectBoundingBox"><stop offset="0" stop-color="gray" stop-opacity="0.251"/><stop offset="0.54" stop-color="gray" stop-opacity="0.122"/><stop offset="1" stop-color="gray" stop-opacity="0.102"/></linearGradient><linearGradient id="c" x1="0.5" x2="0.5" y2="0" xlink:href="#b"/><linearGradient id="d" x1="0.5" x2="0.5" y2="1" gradientUnits="objectBoundingBox"><stop offset="0" stop-color="#ffa330"/><stop offset="0.274" stop-color="#ff9346"/><stop offset="0.539" stop-color="#ff8559"/><stop offset="0.766" stop-color="#fb7a6a"/><stop offset="1" stop-color="#f07379"/></linearGradient><linearGradient id="j" x1="0.5" x2="0.5" y2="0" xlink:href="#b"/><linearGradient id="k" x1="0.5" x2="0.5" y2="1" gradientUnits="objectBoundingBox"><stop offset="0" stop-color="#5690ff"/><stop offset="1" stop-color="#766de8"/></linearGradient></defs><g class="b" transform="translate(-282 -2968)"><g transform="translate(282 2968)"><path class="c" d="M105.422,613.817a11.261,11.261,0,1,1,22.522,0" transform="translate(-86.187 -353.077)"/><path class="d" d="M122.428,616.267a.305.305,0,0,1-.3-.306V610a.3.3,0,1,1,.609,0v5.964a.305.305,0,0,1-.3.306Z" transform="translate(-91.932 -355.527)"/><path class="d" d="M120.513,614.613a.3.3,0,0,1-.2-.074l-3.652-3.15a.307.307,0,0,1-.033-.431.3.3,0,0,1,.429-.033l3.652,3.15a.306.306,0,0,1-.2.538Z" transform="translate(-90.017 -355.922)"/><path class="c" d="M158.31,613.817a11.261,11.261,0,1,1,22.522,0" transform="translate(-104.378 -353.077)"/><path class="d" d="M175.315,616.267a.305.305,0,0,1-.3-.306V610a.3.3,0,1,1,.609,0v5.964a.305.305,0,0,1-.3.306Z" transform="translate(-110.123 -355.527)"/><path class="d" d="M173.4,614.613a.3.3,0,0,1-.2-.074l-3.652-3.15a.307.307,0,0,1-.033-.431.3.3,0,0,1,.429-.033l3.652,3.15a.306.306,0,0,1-.2.538Z" transform="translate(-108.208 -355.922)"/><ellipse class="e" cx="21.649" cy="21.757" rx="21.649" ry="21.757" transform="translate(493.208 0.863)"/><path class="f" d="M168.561,315.151c5.162-16.2,17.766-28.761,32.713-36.232,17.735-8.865,38.114-9.869,57.37-6.419,20.787,3.725,40.215,12.311,59.021,21.681,18.446,9.191,36.594,18.9,55.777,26.491a359.525,359.525,0,0,0,120.021,24.985c37.021,1.241,76.6-2.835,108.3-23.747,29.045-19.161,47.526-50.771,57.152-83.721q1.849-6.328,3.287-12.764c.28-1.239-1.617-1.769-1.9-.526-7.765,34.408-24.322,68.415-52.613,90.348-30.6,23.722-70.757,29.206-108.337,28.578a357.762,357.762,0,0,1-121.585-23.58c-19.676-7.528-38.244-17.3-57.049-26.741-18.392-9.23-37.3-17.871-57.524-22.128-18.467-3.887-38.239-4.124-56.044,2.793-14.661,5.7-28.029,15.848-35.852,29.737a57.175,57.175,0,0,0-4.639,10.718c-.387,1.215,1.512,1.735,1.9.526Z" transform="translate(-107.234 -224.191)"/><path class="e" d="M270.885,529.6c0-11.644-9.4-39.275-20.993-39.275S228.9,517.959,228.9,529.6a20.994,20.994,0,1,0,41.987,0Z" transform="translate(-128.658 -314.861)"/><path class="f" d="M262.885,529.6c0-11.644-9.4-39.275-20.993-39.275S220.9,517.959,220.9,529.6a20.994,20.994,0,1,0,41.987,0Z" transform="translate(-125.906 -314.861)"/><path class="d" d="M253.554,590.4a.658.658,0,0,1-.656-.659V530.967a.656.656,0,1,1,1.312,0v58.771A.658.658,0,0,1,253.554,590.4Z" transform="translate(-136.913 -328.482)"/><path class="d" d="M253.554,540.785a.66.66,0,0,1-.464-1.125l8.579-8.622a.654.654,0,0,1,.928,0,.662.662,0,0,1,0,.932l-8.579,8.623A.652.652,0,0,1,253.554,540.785Z" transform="translate(-136.913 -328.665)"/><path class="e" d="M706.885,529.6c0-11.644-9.4-39.275-20.993-39.275S664.9,517.959,664.9,529.6a20.994,20.994,0,1,0,41.987,0Z" transform="translate(-278.624 -314.861)"/><path class="f" d="M698.885,529.6c0-11.644-9.4-39.275-20.993-39.275S656.9,517.959,656.9,529.6a20.994,20.994,0,1,0,41.987,0Z" transform="translate(-275.872 -314.861)"/><path class="d" d="M689.554,590.4a.658.658,0,0,1-.656-.659V530.967a.656.656,0,1,1,1.312,0v58.771A.658.658,0,0,1,689.554,590.4Z" transform="translate(-286.879 -328.482)"/><path class="d" d="M689.554,540.785a.66.66,0,0,1-.464-1.125l8.579-8.622a.654.654,0,0,1,.928,0,.662.662,0,0,1,0,.932l-8.579,8.623a.652.652,0,0,1-.464.193Z" transform="translate(-286.879 -328.665)"/><path class="e" d="M352.847,260.328h-10.5a2.963,2.963,0,0,1-2.952-2.967V232.967A2.963,2.963,0,0,1,342.35,230h10.5a2.963,2.963,0,0,1,2.952,2.967v24.395a2.963,2.963,0,0,1-2.952,2.967Z" transform="translate(-166.665 -226.17)"/><path class="e" d="M391.77,502.44h-53.8a5.6,5.6,0,0,1-5.576-5.6V278.6a5.6,5.6,0,0,1,5.576-5.6h53.8a5.6,5.6,0,0,1,5.576,5.6V496.836A5.6,5.6,0,0,1,391.77,502.44Z" transform="translate(-164.258 -240.82)"/><path class="f" d="M342.77,502.44h-53.8a5.6,5.6,0,0,1-5.576-5.6V278.6a5.6,5.6,0,0,1,5.576-5.6h53.8a5.6,5.6,0,0,1,5.576,5.6V496.836A5.6,5.6,0,0,1,342.77,502.44Z" transform="translate(-147.404 -240.82)"/><path class="f" d="M337.847,260.328h-10.5a2.963,2.963,0,0,1-2.952-2.967V232.967A2.963,2.963,0,0,1,327.35,230h10.5a2.963,2.963,0,0,1,2.952,2.967v24.395a2.963,2.963,0,0,1-2.952,2.967Z" transform="translate(-161.506 -226.17)"/><path class="a" d="M316.5,336.417H304.038a1.646,1.646,0,0,1-1.64-1.648v-19.12a1.646,1.646,0,0,1,1.64-1.648H316.5a1.646,1.646,0,0,1,1.64,1.648v19.12A1.646,1.646,0,0,1,316.5,336.417Z" transform="translate(-153.939 -254.788)"/><path class="a" d="M353.5,336.417H341.038a1.646,1.646,0,0,1-1.64-1.648v-19.12a1.646,1.646,0,0,1,1.64-1.648H353.5a1.646,1.646,0,0,1,1.64,1.648v19.12A1.646,1.646,0,0,1,353.5,336.417Z" transform="translate(-166.665 -254.788)"/><path class="a" d="M316.5,389.417H304.038a1.646,1.646,0,0,1-1.64-1.648v-19.12a1.646,1.646,0,0,1,1.64-1.648H316.5a1.646,1.646,0,0,1,1.64,1.648v19.12a1.646,1.646,0,0,1-1.64,1.648Z" transform="translate(-153.939 -272.845)"/><path class="a" d="M353.5,389.417H341.038a1.646,1.646,0,0,1-1.64-1.648v-19.12a1.646,1.646,0,0,1,1.64-1.648H353.5a1.646,1.646,0,0,1,1.64,1.648v19.12a1.646,1.646,0,0,1-1.64,1.648Z" transform="translate(-166.665 -272.845)"/><path class="a" d="M316.5,442.417H304.038a1.646,1.646,0,0,1-1.64-1.648v-19.12a1.646,1.646,0,0,1,1.64-1.648H316.5a1.646,1.646,0,0,1,1.64,1.648v19.12a1.646,1.646,0,0,1-1.64,1.648Z" transform="translate(-153.939 -290.901)"/><path class="a" d="M353.5,442.417H341.038a1.646,1.646,0,0,1-1.64-1.648v-19.12a1.646,1.646,0,0,1,1.64-1.648H353.5a1.646,1.646,0,0,1,1.64,1.648v19.12a1.646,1.646,0,0,1-1.64,1.648Z" transform="translate(-166.665 -290.901)"/><path class="a" d="M316.5,495.416H304.038a1.646,1.646,0,0,1-1.64-1.648v-19.12a1.646,1.646,0,0,1,1.64-1.648H316.5a1.646,1.646,0,0,1,1.64,1.648v19.12A1.646,1.646,0,0,1,316.5,495.416Z" transform="translate(-153.939 -308.958)"/><path class="a" d="M353.5,495.416H341.038a1.646,1.646,0,0,1-1.64-1.648v-19.12a1.646,1.646,0,0,1,1.64-1.648H353.5a1.646,1.646,0,0,1,1.64,1.648v19.12A1.646,1.646,0,0,1,353.5,495.416Z" transform="translate(-166.665 -308.958)"/><path class="a" d="M316.5,548.417H304.038a1.646,1.646,0,0,1-1.64-1.648v-19.12a1.646,1.646,0,0,1,1.64-1.648H316.5a1.646,1.646,0,0,1,1.64,1.648v19.12A1.646,1.646,0,0,1,316.5,548.417Z" transform="translate(-153.939 -327.014)"/><path class="a" d="M353.5,548.417H341.038a1.646,1.646,0,0,1-1.64-1.648v-19.12a1.646,1.646,0,0,1,1.64-1.648H353.5a1.646,1.646,0,0,1,1.64,1.648v19.12A1.646,1.646,0,0,1,353.5,548.417Z" transform="translate(-166.665 -327.014)"/><path class="e" d="M765.847,440.779h-10.5a2.963,2.963,0,0,1-2.952-2.967V423.967A2.963,2.963,0,0,1,755.35,421h10.5a2.963,2.963,0,0,1,2.952,2.967v13.846A2.963,2.963,0,0,1,765.847,440.779Z" transform="translate(-308.721 -291.242)"/><path class="e" d="M876.77,562.039h-53.8a5.6,5.6,0,0,1-5.576-5.6V451.6a5.6,5.6,0,0,1,5.576-5.6h53.8a5.6,5.6,0,0,1,5.576,5.6v104.83A5.6,5.6,0,0,1,876.77,562.039Z" transform="translate(-331.078 -299.759)"/><path class="f" d="M807.132,562.039H713.974a5.6,5.6,0,0,1-5.576-5.6V451.6a5.6,5.6,0,0,1,5.576-5.6h93.158a5.6,5.6,0,0,1,5.576,5.6v104.83A5.6,5.6,0,0,1,807.132,562.039Z" transform="translate(-296.488 -299.759)"/><path class="f" d="M750.847,440.779h-10.5a2.963,2.963,0,0,1-2.952-2.967V423.967A2.963,2.963,0,0,1,740.35,421h10.5a2.963,2.963,0,0,1,2.952,2.967v13.846a2.963,2.963,0,0,1-2.952,2.967Z" transform="translate(-303.561 -291.242)"/><path class="a" d="M771.5,512.917H759.038a1.646,1.646,0,0,1-1.64-1.648v-19.12a1.646,1.646,0,0,1,1.64-1.648H771.5a1.646,1.646,0,0,1,1.64,1.648v19.12a1.646,1.646,0,0,1-1.64,1.648Z" transform="translate(-310.44 -314.92)"/><path class="a" d="M808.5,512.917H796.038a1.646,1.646,0,0,1-1.64-1.648v-19.12a1.646,1.646,0,0,1,1.64-1.648H808.5a1.646,1.646,0,0,1,1.64,1.648v19.12A1.646,1.646,0,0,1,808.5,512.917Z" transform="translate(-323.167 -314.92)"/><path class="a" d="M771.5,565.917H759.038a1.646,1.646,0,0,1-1.64-1.648v-19.12a1.646,1.646,0,0,1,1.64-1.648H771.5a1.646,1.646,0,0,1,1.64,1.648v19.12a1.646,1.646,0,0,1-1.64,1.648Z" transform="translate(-310.44 -332.976)"/><path class="a" d="M808.5,565.917H796.038a1.646,1.646,0,0,1-1.64-1.648v-19.12a1.646,1.646,0,0,1,1.64-1.648H808.5a1.646,1.646,0,0,1,1.64,1.648v19.12A1.646,1.646,0,0,1,808.5,565.917Z" transform="translate(-323.167 -332.976)"/><path class="d" d="M762.844,621.819H76.758a.659.659,0,0,1,0-1.319H762.844a.659.659,0,0,1,0,1.319Z" transform="translate(-76.102 -359.209)"/><path class="d" d="M406.566,656.819H345.554a.659.659,0,0,1,0-1.319h61.012a.659.659,0,0,1,0,1.319Z" transform="translate(-168.557 -371.134)"/><path class="d" d="M637.566,656.819H576.554a.659.659,0,0,1,0-1.319h61.012a.659.659,0,0,1,0,1.319Z" transform="translate(-248.012 -371.134)"/><path class="d" d="M868.566,656.819H807.554a.659.659,0,0,1,0-1.319h61.012a.659.659,0,0,1,0,1.319Z" transform="translate(-327.466 -371.134)"/><path class="e" d="M980.887,529.6c0-11.644-9.4-39.275-20.993-39.275S938.9,517.959,938.9,529.6a20.994,20.994,0,1,0,41.987,0Z" transform="translate(-372.87 -314.861)"/><path class="f" d="M972.885,529.6c0-11.644-9.4-39.275-20.993-39.275S930.9,517.959,930.9,529.6a20.994,20.994,0,1,0,41.987,0Z" transform="translate(-370.117 -314.861)"/><path class="d" d="M963.554,590.4a.658.658,0,0,1-.656-.659V530.967a.656.656,0,1,1,1.312,0v58.771A.658.658,0,0,1,963.554,590.4Z" transform="translate(-381.124 -328.482)"/><path class="d" d="M963.554,540.785a.66.66,0,0,1-.464-1.125l8.579-8.622a.654.654,0,0,1,.928,0,.661.661,0,0,1,0,.932l-8.579,8.623a.653.653,0,0,1-.464.193Z" transform="translate(-381.124 -328.665)"/><path class="f" d="M989.422,613.817a11.261,11.261,0,1,1,22.522,0" transform="translate(-390.247 -353.077)"/><path class="d" d="M1006.43,616.267a.305.305,0,0,1-.3-.306V610a.3.3,0,1,1,.609,0v5.964a.305.305,0,0,1-.3.306Z" transform="translate(-395.993 -355.527)"/><path class="d" d="M1004.516,614.613a.3.3,0,0,1-.2-.074l-3.652-3.15a.307.307,0,0,1-.033-.431.3.3,0,0,1,.429-.033l3.652,3.15a.306.306,0,0,1-.2.538Z" transform="translate(-394.078 -355.922)"/><path class="f" d="M1042.31,613.817a11.261,11.261,0,1,1,22.522,0" transform="translate(-408.438 -353.077)"/><path class="d" d="M1059.321,616.267a.305.305,0,0,1-.3-.306V610a.3.3,0,1,1,.609,0v5.964a.305.305,0,0,1-.3.306Z" transform="translate(-414.185 -355.527)"/><path class="d" d="M1057.406,614.613a.3.3,0,0,1-.2-.074l-3.652-3.15a.307.307,0,0,1-.033-.431.3.3,0,0,1,.429-.033l3.652,3.15a.306.306,0,0,1-.2.538Z" transform="translate(-412.27 -355.922)"/><g transform="translate(173.755 132.786)"><g transform="translate(0 26.09)"><path class="g" d="M453.366,177.751c-.458-3.085-3.261-10.284-3.261-10.284h0q-.073-.318-.165-.637c-1.988-6.832-4.74-7.426-4.74-7.426l-9.858-2.122a.764.764,0,0,1,.212.2,1.363,1.363,0,0,0-.155.023,3.862,3.862,0,0,1-.864-1.867c-.019-.1-.036-.212-.049-.316a6.934,6.934,0,0,0-.564-10.424c-.1-.081-.212-.159-.316-.233a1.571,1.571,0,0,0,.132-1.869,6.515,6.515,0,0,0-4.2-3.132,7.122,7.122,0,0,0-4.078-.087,14.731,14.731,0,0,0-2.135.991,12,12,0,0,0-3.736,2.247,1.1,1.1,0,0,0-.373.9,2.433,2.433,0,0,0,.371.656,1.979,1.979,0,0,1,.019,1.642,15.9,15.9,0,0,0-.609,1.579,1.65,1.65,0,0,0,.329,1.585,6.984,6.984,0,0,0,.615.424,3.229,3.229,0,0,1,.588.66q.586.785,1.167,1.576a16.239,16.239,0,0,1,1.462,2.221,10.824,10.824,0,0,0,.9,1.7,2.516,2.516,0,0,0,.388.407l-.115-.045a1.767,1.767,0,0,0,1.3.528h.059a.357.357,0,0,0,.238-.1v.212c.023.757.019,1.564-.034,2.321l-.091-.047a.8.8,0,0,0-.849.089l-9.075,7.282a11.952,11.952,0,0,0-1.7,7.358l-1.591,6.987s-1.988,5.928-.458,10.161,2.417,6.654,2.417,6.654.611,4.81,1.53,5.2,1.315.6,1.315.6l.183,1.15h0s.062.112.17.3c.668,1.163,3.145,5.266,4.583,4.827a18.39,18.39,0,0,1,.233,3.371l1.424,9.559a14.062,14.062,0,0,1,.931,3.961,7.55,7.55,0,0,0,1.158,3.3,6.313,6.313,0,0,0-.611,4.445c.581,2.546,1.316,14.275,1.316,14.275l1.061,2.843-.03,3.333a3.183,3.183,0,0,1-.658,1.485c-.687.747-.637,1.61-2.294,2.631s-2.707,1.407-2.707,2.758a3.547,3.547,0,0,1-.051.562c-.153.993-.45,1.532,2.6,1.82a8.033,8.033,0,0,0,5.966-1.994s.526-.955,3-1.341c0,0,.849-.045.893-.794.017-.259.013-.753,0-1.3a7.99,7.99,0,0,0-.272-2.308,5.032,5.032,0,0,1-.554-1.5h.69a30.172,30.172,0,0,0,0-7.925,12.856,12.856,0,0,1-.062-5.323l-.123-8.226a2.35,2.35,0,0,1-.182-2.512c.666-1.6,0-9.527,0-9.527s.246-2.843.948-3.509.034-4.165,0-4.348l1.252,4.2s.55,8.347,1.714,9.858l.335,3.781s2.385,3.48,1.927,5.353.49,8.65.49,8.65v6.928s-1.072,2.782.424,3.781l.637-.025c-.212.2-.376.494-.624.751a5.736,5.736,0,0,0-.541,2.383c-.076.817-.1,1.519-.1,1.519a2.5,2.5,0,0,0,1.835,1.088c1.2.07,5.15,3.074,5.15,3.074a46.731,46.731,0,0,0,4.912-.212l.059-.015a1.326,1.326,0,0,0,.762-.622,1.591,1.591,0,0,0,.182-1.144,2.855,2.855,0,0,0-1.646-1.806c-2.608-1.375-3-2.663-3-2.663l-1.712-2.569h.244a10.992,10.992,0,0,1,1.712-5.778l-.121-13.458s.764-4.628-.549-7.14c0,0-.108-2.661.77-3.478s-1.169-9.073-1.169-9.073-.424-4.432-.923-8.476h0c2.065,1.958,4.205-5.092,4.566-6.346h.053l-.023-.091c.015-.059.023-.089.023-.089h0s-.458-1.63-.123-1.3,1.163-.908,1.163-.908-.123-6.745,1.315-10.144S453.366,177.751,453.366,177.751Zm-6.153,4.292.011-.019c.212,4.118-.04,12.907-.04,12.907s-.284,1.127-.588,2.453l-.212-8.349h0l-.212-7.865ZM420.88,179.2s1.04,13,0,14.88a9.827,9.827,0,0,0-.749,2.569c-.344-.9-1.071-3.019-.811-4.142.337-1.451-.673-5.264-.673-5.353a9.045,9.045,0,0,1,.637-3.675c.728-1.553.25-2.226.25-2.226S420.146,178.713,420.88,179.2Z" transform="translate(-411.553 -139.315)"/><path class="h" d="M447.045,441.363c-.906,3.983-4.509-2.039-5.33-3.484-.106-.189-.166-.3-.166-.3l.39-1.831L444,434.9a5.764,5.764,0,0,1,.925.6A5.577,5.577,0,0,1,447.045,441.363Z" transform="translate(-435.187 -372.184)"/><path class="h" d="M577.134,430.861a.278.278,0,0,1-.023.089.453.453,0,0,1-.027.1c-.354,1.243-2.455,8.243-4.483,6.3-2.219-2.122-1.141-7.027-1.141-7.027h.015l4.668-.477.925.951h0Z" transform="translate(-537.325 -368.199)"/><path class="i" d="M480.433,467.309l.119,13.367a10.964,10.964,0,0,0-1.68,5.729l-6.034.238c-1.472-.991-.424-3.751-.424-3.751v-6.883s-.931-6.724-.482-8.587-1.89-5.3-1.89-5.3l-.331-3.753c-1.141-1.5-1.683-9.786-1.683-9.786l-1.224-4.184c.034.18.671,3.673,0,4.316s-.932,3.482-.932,3.482.66,7.867,0,9.457a2.341,2.341,0,0,0,.178,2.493l.121,8.167a12.77,12.77,0,0,0,.059,5.283,30.04,30.04,0,0,1,0,7.867h-6.474l.03-3.333-1.048-2.822s-.721-11.648-1.292-14.171a6.331,6.331,0,0,1,.6-4.413,7.508,7.508,0,0,1-1.139-3.272,14,14,0,0,0-.925-3.929l-1.4-9.486a18.431,18.431,0,0,0-.692-5.4c-.811-2.7-2.011-6.246-2.011-6.246l1.356.121,6.841.609s16.633-1.118,17.377-.189a3.12,3.12,0,0,1,.314.97c.747,3.355,1.733,13.864,1.733,13.864s2.011,8.2,1.148,9.007-.757,3.45-.757,3.45C481.186,462.7,480.433,467.309,480.433,467.309Z" transform="translate(-443.324 -370.199)"/><path class="j" d="M474.458,682.82c-.047.745-.876.789-.876.789-2.432.382-2.949,1.328-2.949,1.328a7.81,7.81,0,0,1-5.854,1.982c-2.992-.289-2.7-.821-2.546-1.808a3.74,3.74,0,0,0,.049-.556c0-1.352,1.035-1.736,2.656-2.758s1.576-1.869,2.251-2.612a4.138,4.138,0,0,0,.745-2.183c.764-1.33,2.7.212,2.7.212.091.471,2.97.405,2.97.405a6.34,6.34,0,0,0,.579,1.621,7.967,7.967,0,0,1,.265,2.292C474.47,682.073,474.475,682.563,474.458,682.82Z" transform="translate(-451.41 -562.493)"/><path class="k" d="M474.458,701.664c-.047.745-.876.789-.876.789-2.432.382-2.949,1.328-2.949,1.328a7.81,7.81,0,0,1-5.854,1.982c-2.992-.289-2.7-.821-2.546-1.808,1.337.331,3.891.793,5.383-.017,2.073-1.125,3.56-1.91,3.56-1.91l3.276-1.649C474.47,700.917,474.475,701.407,474.458,701.664Z" transform="translate(-451.41 -581.337)"/><path class="j" d="M560.25,690.018a1.3,1.3,0,0,1-.747.617l-.057.015a45.023,45.023,0,0,1-4.821.212s-3.872-2.994-5.043-3.062a2.464,2.464,0,0,1-1.8-1.082s.023-.7.1-1.506a5.751,5.751,0,0,1,.533-2.366c.518-.541.636-1.273,1.8-.811,0,0,1.664-2.932,3.624-.666l2.028,3.077s.382,1.273,2.951,2.654a2.847,2.847,0,0,1,1.615,1.793A1.581,1.581,0,0,1,560.25,690.018Z" transform="translate(-518.877 -565.682)"/><path class="k" d="M560.25,707.476c-.229.193-.482.4-.747.617l-.057.015a44.985,44.985,0,0,1-4.821.212s-3.872-2.994-5.043-3.062a2.464,2.464,0,0,1-1.8-1.082s.023-.7.1-1.507c1.192.356,3,.987,3.482,1.666a14.753,14.753,0,0,0,3,2.476s4.205-.405,6.073-.46A1.581,1.581,0,0,1,560.25,707.476Z" transform="translate(-518.877 -583.141)"/><path class="h" d="M487.778,205.382l-5.538,5.854s-6.711-.494-5.54-2.476c.6-1.01.69-3.123.637-4.961-.049-1.772-.231-3.28-.231-3.28s9.412-4.685,8.7-.316a7.19,7.19,0,0,0-.025,2.493A3.267,3.267,0,0,0,487.778,205.382Z" transform="translate(-462.77 -185.817)"/><path class="k" d="M487.811,200.2a7.189,7.189,0,0,0-.026,2.493,6.908,6.908,0,0,1-4.927,2.056c-1.273,0-2.65-1.046-3.679-1.651-.049-1.774-.059-2.582-.059-2.582S488.532,195.834,487.811,200.2Z" transform="translate(-464.785 -185.817)"/><path class="h" d="M477.91,168.425a6.936,6.936,0,1,1-2.61-5.419A6.936,6.936,0,0,1,477.91,168.425Z" transform="translate(-452.903 -156.788)"/><path class="k" d="M481.667,434.324c-1.727,4.11-12.837,4.195-12.837,4.195v-4.481l-.673-.045a15.432,15.432,0,0,1-.407,4.413c-8.78,1.239-10.921-3.764-10.921-3.764l.306-1.712,6.841.609s16.633-1.118,17.377-.189A3.123,3.123,0,0,1,481.667,434.324Z" transform="translate(-447.224 -370.633)"/><path class="l" d="M468.831,276.2v-4.481l-.673-.042a15.48,15.48,0,0,1-.407,4.413c-6.607.931-9.455-1.67-10.458-3.015a4.1,4.1,0,0,1-.463-.747l2.682-15.086.637-22.2.961-3.9.223-1.869v-.021h.023l.683.293,4.089,1.767,4.645-3.507.068-.049.231-.176.384.308.955.766,3.062,19.773s5.3,15.224,6.3,21.368c.04.246.072.475.1.69C482.522,276.094,468.831,276.2,468.831,276.2Z" transform="translate(-447.224 -208.853)"/><circle class="m" cx="0.395" cy="0.395" r="0.395" transform="translate(19.006 22.502)"/><circle class="m" cx="0.395" cy="0.395" r="0.395" transform="translate(19.188 26.104)"/><circle class="m" cx="0.395" cy="0.395" r="0.395" transform="translate(19.583 31.937)"/><circle class="m" cx="0.395" cy="0.395" r="0.395" transform="translate(20.234 38.219)"/><circle class="m" cx="0.395" cy="0.395" r="0.395" transform="translate(20.629 44.118)"/><circle class="m" cx="0.395" cy="0.395" r="0.395" transform="translate(21.023 50.401)"/><circle class="m" cx="0.395" cy="0.395" r="0.395" transform="translate(20.866 56.616)"/><path class="k" d="M461.588,265.411s-.441,5.777-1.252,7.458-1.171,6.4-1.171,6.4l-1.882-.212a4.1,4.1,0,0,1-.462-.747l2.682-15.086.637-22.2.963-3.9.223-1.869.026-.011a.76.76,0,0,1,.67.011l.089.047q-.04.115-.076.236a36.066,36.066,0,0,0-1.008,6.533s1.061,7.747,1.171,11.349S461.588,265.411,461.588,265.411Z" transform="translate(-447.216 -214.83)"/><path class="k" d="M444.93,435.509a1.087,1.087,0,0,1-.072.14,6.755,6.755,0,0,1-3.142,2.23c-.106-.189-.166-.3-.166-.3l.39-1.831L444,434.9A5.768,5.768,0,0,1,444.93,435.509Z" transform="translate(-435.187 -372.184)"/><path class="i" d="M417.979,298.81l-1.712,1.021-1.56,6.936s-1.952,5.884-.452,10.087,2.372,6.609,2.372,6.609.6,4.774,1.5,5.164,1.29.6,1.29.6l.18,1.142s2.444-.83,3.308-2.292-.637-5.092-.637-5.092-1.29-3.094-.959-4.534-.662-5.224-.662-5.3a8.991,8.991,0,0,1,.637-3.649c.726-1.547.242-2.207.242-2.207l-.452-4.413Z" transform="translate(-413.236 -264.969)"/><path class="k" d="M533.168,271.805s-4.534,1.71-5.975.212-1.292-8.527-1.292-8.527-1.379-12.97-2.251-15.1-.424-17.5-.424-17.5a9.318,9.318,0,0,0-1.1-2.508.553.553,0,0,0-.108-.087l.176.038.615.132.955.766L526.828,249s5.3,15.224,6.3,21.368Z" transform="translate(-498.582 -209.413)"/><path class="k" d="M578.09,431.025h-.051c-.571.074-5.608.683-5.629-.365a3.106,3.106,0,0,1,.019-.363l4.668-.477.925.951h0c.017.062.03.115.042.157Z" transform="translate(-538.281 -368.182)"/><path class="i" d="M573.256,266.07l3.31,1.727s2.758,7.142,3.2,10.2c0,0,2.043,8.2.637,11.576s-1.29,10.07-1.29,10.07-.81,1.231-1.142.9.121,1.29.121,1.29-5.659.751-5.682-.361a58.019,58.019,0,0,1,1.3-6.425s.361-12.639-.151-14.621S573.256,266.07,573.256,266.07Z" transform="translate(-538.279 -239.176)"/><path class="k" d="M519.817,329.52s-1.863,4.562-2.463,4.863.121,1.5.121,1.5S520.867,331.141,519.817,329.52Z" transform="translate(-494.718 -289.163)"/><path class="k" d="M513.82,254.091c.021-.087-2.221,2.2-2.822,2.546S513.19,256.616,513.82,254.091Z" transform="translate(-489.833 -229.737)"/><path class="k" d="M484,327.82s-3.422,2.213-2.97,3.089S484,327.82,484,327.82Z" transform="translate(-466.255 -287.824)"/><path class="k" d="M524.47,480.07a18.321,18.321,0,0,0,7.445,2.334Z" transform="translate(-500.513 -407.771)"/><path class="k" d="M491.5,501.3s2.7,3.395,3.934,3.482S491.5,501.3,491.5,501.3Z" transform="translate(-474.537 -424.496)"/><path class="k" d="M497.229,564c-.121.059-1.532,3.062-2.97,3.153S497.229,564,497.229,564Z" transform="translate(-476.484 -473.893)"/><path class="k" d="M568.33,594.67s2.678-.6,3.274,1.32C571.6,595.983,571.424,595.383,568.33,594.67Z" transform="translate(-535.067 -497.985)"/><path class="k" d="M559.84,645.89s3.244-.662,3.934.24S559.84,645.89,559.84,645.89Z" transform="translate(-528.378 -538.224)"/><path class="k" d="M504.761,654c0,.03-3.3.662-3.183,1.082s3.522.361,3.643-.3a.637.637,0,0,0-.46-.781Z" transform="translate(-482.475 -544.798)"/><path class="k" d="M554.75,666.711s5.425-.662,5.092.479S554.75,666.711,554.75,666.711Z" transform="translate(-524.368 -554.66)"/><path class="k" d="M420.89,352.44c.03.089,3.573.571,4.053,1.712a30.473,30.473,0,0,0-4.031-1.623" transform="translate(-418.909 -307.221)"/><path class="k" d="M434.193,396.16s-2.943.931-2.733,2.334S431.161,397.845,434.193,396.16Z" transform="translate(-427.229 -341.664)"/><path class="k" d="M437.92,425.259s1.072-1.47,2.092-1.2S437.92,425.259,437.92,425.259Z" transform="translate(-432.326 -363.616)"/><path class="k" d="M475.339,163a1.67,1.67,0,0,1-.344.257,3.961,3.961,0,0,0-1.485,2.134,4.539,4.539,0,0,1-1.547,2.111c-.978.59-2.266.373-3.282.887a2.546,2.546,0,0,0-1.358,2.51,7.242,7.242,0,0,0,.289,1.15,8.2,8.2,0,0,1,.31,2.5.425.425,0,0,1,0,.074A6.934,6.934,0,1,1,475.347,163Z" transform="translate(-452.941 -156.782)"/><path class="n" d="M462.3,145.973a6.4,6.4,0,0,0-4.123-3.108,6.924,6.924,0,0,0-4-.085,14.687,14.687,0,0,0-2.094.982,11.845,11.845,0,0,0-3.666,2.23,1.117,1.117,0,0,0-.367.9,2.5,2.5,0,0,0,.363.649,1.97,1.97,0,0,1,.019,1.632,14.961,14.961,0,0,0-.6,1.568,1.65,1.65,0,0,0,.323,1.572,5.882,5.882,0,0,0,.607.424,3.193,3.193,0,0,1,.575.654l1.146,1.566a15.884,15.884,0,0,1,1.434,2.2,10.51,10.51,0,0,0,.887,1.683,1.92,1.92,0,0,0,1.608.859.312.312,0,0,0,.255-.121.335.335,0,0,0,.032-.159,8.144,8.144,0,0,0-.3-2.489,7.178,7.178,0,0,1-.289-1.15,2.557,2.557,0,0,1,1.358-2.51c1.018-.513,2.306-.3,3.282-.885a4.509,4.509,0,0,0,1.547-2.122,3.994,3.994,0,0,1,1.485-2.134A1.492,1.492,0,0,0,462.3,145.973Z" transform="translate(-440.082 -141.842)"/><path class="k" d="M501.63,693.06s1.061,1.352.785,2.122S501.63,693.06,501.63,693.06Z" transform="translate(-482.518 -575.57)"/><path class="k" d="M569.28,702.12s.235-1.812,1.18-1.829a3.158,3.158,0,0,1,1.712.18c.721.278,1.4.709,1.182.772s-1.241-1.035-2.294-.473A7.582,7.582,0,0,0,569.28,702.12Z" transform="translate(-535.815 -581.248)"/><path class="k" d="M476.437,239.829l2.971-2.081s-4.345-2.567-4.863-2.207-.874,3.607-.874,3.607Z" transform="translate(-460.491 -215.098)"/><path class="o" d="M476.377,239.049l2.97-2.122s-4.345-2.567-4.863-2.207-.874,3.785-.874,3.785Z" transform="translate(-460.444 -214.452)"/><path class="l" d="M476.377,239.049l2.97-2.122s-4.345-2.567-4.863-2.207-.874,3.785-.874,3.785Z" transform="translate(-460.444 -214.452)"/><path class="i" d="M437.247,234.452l-.089-.045a.77.77,0,0,0-.834.087l-8.911,7.229a11.967,11.967,0,0,0-1.668,7.3L431,256.472s.6-2.521,1.32-2.041c0,0,1.021,12.911,0,14.772s-1.47,8.827-1.47,8.827l3.452.39s.361-4.715,1.171-6.395,1.252-7.458,1.252-7.458.73-8.394.609-12-1.171-11.349-1.171-11.349A34.4,34.4,0,0,1,437.247,234.452Z" transform="translate(-422.714 -214.166)"/><path class="k" d="M508.143,232.838l-3.7-1.371s4.715-5.164,5.3-2.3Z" transform="translate(-484.733 -209.421)"/><path class="o" d="M508.143,231.988l-3.7-1.371s4.715-5.164,5.3-2.3Z" transform="translate(-484.733 -208.752)"/><path class="l" d="M508.143,231.988l-3.7-1.371s4.715-5.164,5.3-2.3Z" transform="translate(-484.733 -208.752)"/><path class="k" d="M521.32,228.11a.212.212,0,0,1,.153.034Z" transform="translate(-498.031 -209.269)"/><path class="i" d="M523,226.416l9.824,2.122s2.7.6,4.655,7.386-2.673,15.1-2.673,15.1l-1.021-.868.511,19.815s-4.534,1.71-5.975.212-1.29-8.534-1.29-8.534-1.381-12.968-2.253-15.1-.424-17.5-.424-17.5S523.552,226.3,523,226.416Z" transform="translate(-499.354 -207.933)"/><path class="k" d="M564.882,285.61a56.226,56.226,0,0,0,.3,10.687,58.262,58.262,0,0,0,1.7,8.226l-.891-18.283S565.3,285.219,564.882,285.61Z" transform="translate(-532.248 -254.501)"/><path class="k" d="M559.7,261.6c.24.151,1.292,2.642.811,3.662S559.7,261.6,559.7,261.6Z" transform="translate(-528.267 -235.655)"/><path class="k" d="M481.958,150.392a5.423,5.423,0,0,0-2.16-2.262,5.136,5.136,0,0,1,1.619,1.91,1.509,1.509,0,0,1-.526,2.162,3.973,3.973,0,0,0-1.485,2.134,4.613,4.613,0,0,1-1.549,2.122c-.976.59-2.264.371-3.282.885a2.563,2.563,0,0,0-1.358,2.512,7.217,7.217,0,0,0,.291,1.148,8.208,8.208,0,0,1,.31,2.5.335.335,0,0,1-.034.159.3.3,0,0,1-.253.121,1.462,1.462,0,0,1-.74-.138,1.723,1.723,0,0,0,1.273.5.25.25,0,0,0,.284-.28,8.141,8.141,0,0,0-.308-2.5,6.971,6.971,0,0,1-.291-1.15,2.557,2.557,0,0,1,1.358-2.51c1.018-.513,2.306-.3,3.282-.885a4.509,4.509,0,0,0,1.547-2.122,4,4,0,0,1,1.485-2.135A1.51,1.51,0,0,0,481.958,150.392Z" transform="translate(-459.798 -146.26)"/></g><path class="k" d="M779.42,382.17l1.4,1.61a2.022,2.022,0,0,1-1.4-1.61Z" transform="translate(-631.787 -347.475)"/><path class="k" d="M736.99,360.8l2.183,2.8-1.091.261Z" transform="translate(-591.748 -326.366)"/><g transform="translate(92.737 0)"><path class="p" d="M647.3,195.148c-2.924-.057-5.5-2.122-6.966-4.645a4.669,4.669,0,0,1-.7-1.988,2.3,2.3,0,0,1,.081-.475,4.924,4.924,0,0,0,.212-.728,1.276,1.276,0,0,0,0-.3s0,0,0-.017a1.755,1.755,0,0,0-.637-1.428c-.39-.367-.881-.637-1.288-1a6.032,6.032,0,0,1-1.661-4.558v-.089c.015-.721.072-1.445.066-2.166a9.115,9.115,0,0,0-.053-1.226,4.053,4.053,0,0,0-1.311-2.712c-2.092-1.7-5.61.07-7.776-1.534-.526-.393-.953-.972-1.591-1.125a2.681,2.681,0,0,0-1.453.2c-1.6.526-3.376,1.218-4,2.758-.357.885-.257,1.895-.584,2.79a13.93,13.93,0,0,1-.912,1.685,2.637,2.637,0,0,0-.34,1.407,1.587,1.587,0,0,0,.1.749,1.91,1.91,0,0,0,.52.745,2.466,2.466,0,0,1-.31.5c-.407.5-1.033.849-1.458,1.345a3.178,3.178,0,0,0-.369,3.217c.386,1.069,1.084,2.043,1.566,3.085a1.657,1.657,0,0,1,.159,1.407,4.036,4.036,0,0,1-.7.819,2.573,2.573,0,0,0-.636,1.422c-4.776,1.091-4.78,4.929-4.78,4.929h0l-2.58,6.488s-.414,1.093-.9,2.536l-3.053-.547,2.122,3.552a11.212,11.212,0,0,0-.592,3.463s-.948,4.456.738,5.234l3.722,1.674a2.2,2.2,0,0,0,.516.231l.151.068a.4.4,0,0,0,.348,0h.051a.5.5,0,0,0,.212-.032.424.424,0,0,0,.187-.2.063.063,0,0,1,0-.021l1.114-.323.944,1.118c.424.3.849.558,1.25.791l-1.462,14.517s-.236,19.308-.948,23.709a12.326,12.326,0,0,0-.165,3.5l-.028.047c.176,1.241.637,1.485.637,1.485v-.017a.138.138,0,0,0,.028.017,12.5,12.5,0,0,1,.764-1.638v.318c-.015,1.638-.066,3.932-.235,5.423-.289,2.546.738,10.938.738,10.938l.354,7.638a7.061,7.061,0,0,1-.87,3.722,17.567,17.567,0,0,0-2.011,4.625.951.951,0,0,0,0,.155h0l-1.82,2.19s-.711,1.1.9,1.543a8.6,8.6,0,0,0,3.55-.282,2.372,2.372,0,0,0,1.84-2.308,8.169,8.169,0,0,1,1.5-2.884l.3,1.759,2,.5.257-4.821a2.123,2.123,0,0,0,.138-.849h0c.395-3.429-.929-3.121-.929-3.121a.185.185,0,0,1,.064.119l-.064-.117h0a8.673,8.673,0,0,1-.424-4.244s1.061-7.638,1.424-9.656a70.006,70.006,0,0,0,.066-8.7,3.084,3.084,0,0,0-.011-.316c3.106-.04,6.913-.144,9.584-.4v.314l-.492,18.046a9.9,9.9,0,0,1-.692,3.357.184.184,0,0,1-.023.062,14.64,14.64,0,0,0-.978,4.729l-.229,5.729v.159h0c-.4.153-1.029.6-1.046,1.882-.027,1.884,3.293,1.256,3.293,1.256,3.318,0,3.346-3.454,3.346-3.454s.1-3.168.263-5.287-.5-1.653-.5-1.653l-.051,6.03v-5.239l.051-.766v-.021h0v-.163l.418-6.219s3.057-10.363,3.531-12.351c.337-1.413.2-5.669.087-8.022a1.871,1.871,0,0,0-.017-.312c.948-.085,1.786-.093,2.122-.093h.155s-.157-16.643-.554-22.915-1.027-12.011-2.608-13.738c-.955-1.044-2.285-4.267-3.183-6.654a33.282,33.282,0,0,0,5.85,1.91c5.005,1.048,4.32-3.3,4.32-3.3l-.507-8.218h.034a41.907,41.907,0,0,0-.552-6.425,18.906,18.906,0,0,0-1.29-4.668c.543-.212,1.08-.439,1.606-.673,1.36-.6,2.892-1.451,3.087-2.917h-.066a1.889,1.889,0,0,0,.051-.323ZM616.273,207.03h0c.011.849-.021,2.321-.072,3.949l-1.589-2.122,1.593-2.584ZM637.567,211.339Zm.662,3.21-2.648-.849a11.887,11.887,0,0,1,1.636-2.024l.229-.212-.083.017.127-.117.076-.017-.121.117.144-.03a4.519,4.519,0,0,0,.9,1.814c.951,1.038-.261,1.3-.261,1.3Z" transform="translate(-605.94 -171.119)"/><path class="q" d="M641.121,715.66l-.31,5.873-1.975-.494-.416-2.442Z" transform="translate(-624.917 -595.848)"/><path class="k" d="M641.121,715.66l-.31,5.873-1.975-.494-.416-2.442Z" transform="translate(-624.917 -595.848)"/><path class="h" d="M716.48,628.02l3.013.624,2.234-1.973V621.11l.051-.76v-.023h0v-.161l.416-6.181s3.015-10.288,3.484-12.264c.331-1.4.193-5.627.083-7.963-.045-.957-.083-1.6-.083-1.6l-6.652-1.61-.14,5.113L718.4,613.58a9.928,9.928,0,0,1-.681,3.333l-.023.062a14.578,14.578,0,0,0-.965,4.693l-.225,5.7v.157Z" transform="translate(-693.026 -501.558)"/><path class="k" d="M741.45,730.134v.157h0v-.161Z" transform="translate(-712.698 -611.522)"/><path class="k" d="M716.48,760.383l3.013.624,2.234-1.973v-.473a.636.636,0,0,1-.32.509l-.032.019a6.005,6.005,0,0,1-3.382.668l-1.175-.1a1.1,1.1,0,0,0-.312.076v.157Z" transform="translate(-693.026 -633.92)"/><path class="j" d="M717.609,737.282l.032-.017a.636.636,0,0,0,.325-.552l.049-5.985s.649-.465.492,1.64-.259,5.249-.259,5.249-.025,3.429-3.3,3.429c0,0-3.274.624-3.248-1.248s1.352-1.948,1.352-1.948l1.175.1A5.99,5.99,0,0,0,717.609,737.282Z" transform="translate(-689.261 -611.959)"/><path class="h" d="M642.52,634.027c.076,1.352,4.053.571,4.053.571l2.675-5.194s2.234-1.717,1.116-3.223a2.4,2.4,0,0,1-.163-.257l-.011-.013h0c-.023-.038-.045-.078-.066-.121h0a8.551,8.551,0,0,1-.407-4.2s1.037-7.587,1.4-9.588a70.352,70.352,0,0,0,.066-8.642c-.034-1.078-.066-1.8-.066-1.8l-6.6-1.767v1.969c-.015,1.627-.066,3.9-.233,5.385-.284,2.518.728,10.859.728,10.859l.35,7.59a7.029,7.029,0,0,1-.849,3.694,17.754,17.754,0,0,0-1.984,4.594.923.923,0,0,0-.011.146Z" transform="translate(-634.759 -508.837)"/><path class="k" d="M642.513,731.063c.076,1.352,4.052.571,4.052.571l2.676-5.194s2.234-1.716,1.116-3.223a2.392,2.392,0,0,1-.163-.257,12.9,12.9,0,0,1-.9,2.758s-2.209,4.42-2.911,5.432-3.753-.189-3.868-.231a.934.934,0,0,0,0,.144Z" transform="translate(-634.752 -605.873)"/><path class="j" d="M642.8,722.274s1.307-.3.917,3.1h0a2.191,2.191,0,0,1-1.033,1.946,7.431,7.431,0,0,0-3.108,4.312h0a2.351,2.351,0,0,1-1.814,2.291,8.507,8.507,0,0,1-3.5.28c-1.585-.441-.883-1.532-.883-1.532l1.818-2.158s3.17,1.248,3.87.233,2.911-5.43,2.911-5.43S643.185,722.561,642.8,722.274Z" transform="translate(-627.432 -605.328)"/><path class="k" d="M727.96,593.52l-.14,5.113c1.772-.172,3.04-.412,3.257-.749.469-.726,2.171-1.031,3.618-1.156-.044-.957-.083-1.6-.083-1.6Z" transform="translate(-701.96 -503.898)"/><path class="k" d="M651.94,604.689a2.427,2.427,0,0,1,.728-.878c.7-.388.624,2.5.624,2.5s2.334.021,5.315-.017c-.034-1.078-.066-1.8-.066-1.8l-6.6-1.765S651.953,603.539,651.94,604.689Z" transform="translate(-642.18 -511.145)"/><path class="i" d="M645.837,436.345s.781-2.122,1.485-2.5.624,2.493.624,2.493,17.148.157,18.005-1.169,5.846-1.248,5.846-1.248-.155-16.524-.545-22.758-1.012-11.926-2.571-13.641c-1.008-1.11-2.442-4.7-3.329-7.093-.482-1.307-.8-2.26-.8-2.26l-16.367.934-.134,1.326-1.738,17.381s-.233,19.174-.936,23.539S645.837,436.345,645.837,436.345Z" transform="translate(-636.83 -342.117)"/><g class="r" transform="translate(8.338 46.052)"><path d="M678.564,435.169c.849-1.324,5.845-1.248,5.845-1.248s-.155-16.524-.545-22.758-1.012-11.926-2.571-13.641c-1.012-1.114-2.442-4.7-3.329-7.093-.405-1.1-.7-1.946-.777-2.188l1.273-.072s.32.953.8,2.26c.887,2.393,2.319,5.983,3.327,7.093,1.56,1.714,2.183,7.4,2.571,13.641s.547,22.758.547,22.758-4.988-.076-5.848,1.248c-.732,1.131-13.35,1.184-17.012,1.173C667.55,436.332,677.9,436.192,678.564,435.169Z" transform="translate(-659.114 -388.17)"/><path d="M646.061,603.3c.316-.176.473.312.552.9a12.248,12.248,0,0,0-.736,1.6s-.452-.244-.637-1.485A2.888,2.888,0,0,1,646.061,603.3Z" transform="translate(-645.24 -557.63)"/></g><path class="s" d="M660.11,191.035c-1.133,1.545.013,3.741-1.2,5.243-.4.5-1.018.849-1.437,1.337a3.175,3.175,0,0,0-.365,3.193c.38,1.061,1.061,2.028,1.545,3.064a1.638,1.638,0,0,1,.157,1.4,3.954,3.954,0,0,1-.7.813,2.931,2.931,0,0,0-.382,3.111,10.068,10.068,0,0,0,2.014,2.78,1.374,1.374,0,0,0,2,.456,7.85,7.85,0,0,0,3.573-10.246c-.658-1.576-1.755-3.087-1.765-4.753,0-1.322.679-2.584.8-3.9.146-1.6-.8-4.14-2.731-4.838C661.744,189.717,660.685,190.241,660.11,191.035Z" transform="translate(-646.046 -184.962)"/><path class="t" d="M660.11,191.035c-1.133,1.545.013,3.741-1.2,5.243-.4.5-1.018.849-1.437,1.337a3.175,3.175,0,0,0-.365,3.193c.38,1.061,1.061,2.028,1.545,3.064a1.638,1.638,0,0,1,.157,1.4,3.954,3.954,0,0,1-.7.813,2.931,2.931,0,0,0-.382,3.111,10.068,10.068,0,0,0,2.014,2.78,1.374,1.374,0,0,0,2,.456,7.85,7.85,0,0,0,3.573-10.246c-.658-1.576-1.755-3.087-1.765-4.753,0-1.322.679-2.584.8-3.9.146-1.6-.8-4.14-2.731-4.838C661.744,189.717,660.685,190.241,660.11,191.035Z" transform="translate(-646.046 -184.962)"/><path class="k" d="M685.284,464.55a15.068,15.068,0,0,0-6.389,2.2,43.776,43.776,0,0,1-6.045,3.136" transform="translate(-658.654 -402.291)"/><path class="k" d="M685.277,489.74a9.351,9.351,0,0,0-5.888,2.864c-.552.583-1.027,1.237-1.6,1.8a7.116,7.116,0,0,1-3.157,1.789" transform="translate(-660.056 -422.136)"/><path class="k" d="M679.329,508.91a10.293,10.293,0,0,0-4.736,2.856c-.348.376-.664.777-1.012,1.152-1.878,2.016-4.53,3.085-7.091,4.1" transform="translate(-653.643 -437.239)"/><path class="h" d="M692.663,242.653a46.557,46.557,0,0,0,.467,5.415,7.087,7.087,0,0,0,.936,2.926c1.248,1.485-6.079,3.469-6.079,3.469l-4.326-3.352s3.429-3.157,1.831-6.236S692.663,242.653,692.663,242.653Z" transform="translate(-667.171 -227.389)"/><path class="k" d="M658.79,390.43h17.3c-.482-1.307-.8-2.26-.8-2.26l-16.367.934Z" transform="translate(-647.577 -342.118)"/><path class="u" d="M641,298.785h18.5a6.42,6.42,0,0,1,.74-4.905,10.843,10.843,0,0,1,1.937-2.512l.127-.117,6.459-1.43.348-.076S669.162,278,665,276.388a24.311,24.311,0,0,1-6.652-3.792l-5.714,1.765-4.21-2.122c-1.352,1.453-4.937.883-4.937.883-5.871.675-5.871,5.092-5.871,5.092s3.429,8,3.69,8S641,298.785,641,298.785Z" transform="translate(-630.898 -250.784)"/><path class="k" d="M664.866,353.628s-3.772-.836-5.056-2.3" transform="translate(-648.38 -313.094)"/><path class="k" d="M757.045,341.51,752.67,345.1a7.422,7.422,0,0,0,.144.849l.127-.117,6.459-1.43Z" transform="translate(-721.538 -305.357)"/><path class="k" d="M717.46,372.562s.957.539,2.423,1.248H722.4a6.419,6.419,0,0,1,.74-4.905l-4.432-1.434C720.214,368.873,717.46,372.562,717.46,372.562Z" transform="translate(-693.799 -325.81)"/><path class="u" d="M620.914,293.76l-2.6,1.4-2.546,6.444s-2.65,7.065-2.391,8.937c0,0-.934,4.418.728,5.2l4.328,1.961a.4.4,0,0,0,.52-.556c-.617-1.169-1.3-3-.212-4l-1.248-2.6L622,303.164l1.506-2.546Z" transform="translate(-611.596 -267.738)"/><path class="k" d="M676.964,348.563c.225.917.985,2.334,3.5,2.862l2.758,2.26,2.934,1.33,1.2.541.507-3.664-1.152-.637-1.343-.734s-3.03-5.489-7.827-3.183a1.061,1.061,0,0,0-.573,1.224Z" transform="translate(-661.868 -309.504)"/><path class="h" d="M677.721,347.139c.225.919.982,2.334,3.5,2.862l2.758,2.26,2.937,1.33,1.195.541.507-3.664-1.152-.637-1.332-.728s-3.032-5.489-7.829-3.172A1.061,1.061,0,0,0,677.721,347.139Z" transform="translate(-662.468 -308.391)"/><circle class="k" cx="6.703" cy="6.703" r="6.703" transform="translate(13.956 6.612)"/><circle class="h" cx="6.703" cy="6.703" r="6.703" transform="translate(13.956 6.456)"/><path class="k" d="M715.4,275.214,713.38,271.3s2.949-1.192,3.164-2.574,2.826,1.619,2.262,2.614A37.1,37.1,0,0,1,715.4,275.214Z" transform="translate(-690.585 -247.733)"/><path class="u" d="M715.4,273.745l-2.016-3.917s2.949-1.192,3.164-2.574,2.826,1.621,2.262,2.614A37.322,37.322,0,0,1,715.4,273.745Z" transform="translate(-690.585 -246.575)"/><path class="v" d="M615.287,341.456l11.137,14.973s-4.106,2.234-9.76-1.765l-2.442-2.911L607.25,340Z" transform="translate(-606.973 -304.168)"/><path class="h" d="M633.831,370.907l1.014-.028s6.2-6.013,7.717-2.97-3.859,5.886-3.859,5.886l-1.636.883-2.132.636-1.364-1.831Z" transform="translate(-627.709 -325.478)"/><path class="k" d="M630.118,386.111a1.514,1.514,0,0,1,.026,1.048.424.424,0,0,1-.185.2.472.472,0,0,1-.212.03,2.132,2.132,0,0,1-1.4-.692,6.391,6.391,0,0,1-.906-1.311,2.419,2.419,0,0,1-.465-1.562,2.278,2.278,0,0,1,1.152-1.345c1.027-.679,1.061.112,1.286.987S629.882,385.228,630.118,386.111Z" transform="translate(-622.499 -337.433)"/><path class="u" d="M629.385,386.111a1.526,1.526,0,0,1,.025,1.048.424.424,0,0,1-.185.2.477.477,0,0,1-.212.03,2.122,2.122,0,0,1-1.4-.692,6.316,6.316,0,0,1-.908-1.311,2.4,2.4,0,0,1-.463-1.562,2.274,2.274,0,0,1,1.15-1.345c1.029-.679,1.061.112,1.288.987S629.147,385.228,629.385,386.111Z" transform="translate(-621.921 -337.433)"/><path class="k" d="M623.85,314.686l.518-.876-.452,1.627Z" transform="translate(-613.439 -279.262)"/><path class="k" d="M721.19,370.19l1.195.541.507-3.664-1.152-.637C722.535,367.342,721.839,369.029,721.19,370.19Z" transform="translate(-696.737 -324.99)"/><path class="k" d="M723.385,361.067s-3.857.236-5.5-.817" transform="translate(-694.137 -320.121)"/><g class="r" transform="translate(12.347 21.761)"><path d="M735.149,296.673a10.864,10.864,0,0,1,1.937-2.514,5.174,5.174,0,0,1,.571-.31l6.013-1.235.348-.076s.053-11.744-4.1-13.357a24.976,24.976,0,0,1-6.484-3.652l.456-.14a24.249,24.249,0,0,0,6.652,3.792c4.159,1.61,4.1,13.357,4.1,13.357h-.624l-6.153,1.178s-.265.257-.346.331a11.925,11.925,0,0,0-1.967,2.6,6.522,6.522,0,0,0-.516,4.931H734.4A6.486,6.486,0,0,1,735.149,296.673Z" transform="translate(-718.726 -275.027)"/><path d="M664.13,277.85c.1-.015.2-.03.3-.04a10.758,10.758,0,0,0,1.273.1,11.58,11.58,0,0,1-1.572-.064Z" transform="translate(-664.13 -276.934)"/><path d="M691.567,275.808l-3.806-1.927a2.012,2.012,0,0,0,.212-.2l3.972,2.009Z" transform="translate(-682.746 -273.68)"/></g><path class="u" d="M730.032,340l2.546,3.119.52,8.47s.675,4.311-4.26,3.272a45.506,45.506,0,0,1-10.647-4.252s2.758-3.69,1.248-5.092l7.068,2.287s1.195-.261.259-1.3a5.845,5.845,0,0,1-1.1-2.911Z" transform="translate(-694.374 -304.168)"/><path class="k" d="M665.17,184.285a2.238,2.238,0,0,1,.233-1.827,14.428,14.428,0,0,0,.9-1.674c.32-.887.223-1.89.573-2.758.617-1.538,2.372-2.226,3.944-2.758a2.652,2.652,0,0,1,1.434-.2c.637.151,1.05.728,1.57,1.116,2.134,1.591,5.606-.161,7.67,1.523a4.015,4.015,0,0,1,1.292,2.69,23.766,23.766,0,0,1-.013,3.06c-.034,1.787.3,3.741,1.638,4.925.4.356.878.624,1.273.993a1.738,1.738,0,0,1,.637,1.419,4.921,4.921,0,0,1-.212.721,3.693,3.693,0,0,0,.615,2.758c1.443,2.5,3.987,4.555,6.87,4.613-.193,1.456-1.7,2.3-3.045,2.9a11.959,11.959,0,0,1-5.374,1.413c-1.869-.1-3.819-1.292-4.146-3.134-.112-.637-.1-1.4-.636-1.734-.331-.2-.76-.151-1.116-.3a1.966,1.966,0,0,1-.94-1.324,11.914,11.914,0,0,1-.554-3.395c-.023-1.366.157-2.858-.618-3.983-.717-1.042-1.99-1.57-2.818-2.527-.764-.887-1.593-1.956-2.845-2.122C669.775,184.438,666.193,186.791,665.17,184.285Z" transform="translate(-652.517 -174.202)"/><path class="n" d="M665.17,182.815a2.239,2.239,0,0,1,.233-1.827,14.426,14.426,0,0,0,.9-1.674c.32-.887.223-1.891.573-2.758.617-1.54,2.372-2.228,3.944-2.758a2.652,2.652,0,0,1,1.434-.2c.637.151,1.05.728,1.57,1.116,2.134,1.591,5.606-.161,7.67,1.523a4.015,4.015,0,0,1,1.292,2.693,23.731,23.731,0,0,1-.013,3.057c-.034,1.787.3,3.741,1.638,4.925.4.356.878.624,1.273.993a1.738,1.738,0,0,1,.637,1.419,4.921,4.921,0,0,1-.212.721,3.693,3.693,0,0,0,.615,2.758c1.447,2.489,3.98,4.553,6.864,4.611-.193,1.456-1.7,2.3-3.045,2.9a11.983,11.983,0,0,1-5.375,1.411c-1.869-.1-3.819-1.292-4.146-3.134-.113-.637-.1-1.4-.637-1.733-.331-.2-.76-.151-1.116-.3a1.966,1.966,0,0,1-.94-1.324,11.9,11.9,0,0,1-.554-3.395c-.023-1.366.157-2.858-.617-3.983-.717-1.042-1.99-1.57-2.818-2.527-.764-.887-1.594-1.956-2.845-2.122C669.775,182.968,666.193,185.326,665.17,182.815Z" transform="translate(-652.517 -173.045)"/><path class="k" d="M683.09,275.45l3.843-3.119s-2.631-1.426-2.945-2.642-2.419.577-2.2,1.668S683.09,275.45,683.09,275.45Z" transform="translate(-665.68 -248.455)"/><path class="u" d="M683.848,273.248l3.842-3.117s-2.631-1.426-2.932-2.642-2.419.577-2.2,1.668S683.848,273.248,683.848,273.248Z" transform="translate(-666.286 -246.721)"/><circle class="k" cx="0.306" cy="0.306" r="0.306" transform="translate(21.249 25.713)"/><circle class="k" cx="0.306" cy="0.306" r="0.306" transform="translate(21.249 27.411)"/><circle class="k" cx="0.306" cy="0.306" r="0.306" transform="translate(21.249 29.106)"/><g class="r" transform="translate(12.591 2.828)"><path d="M671.409,187.06c.3-.834.238-1.77.522-2.61a2.845,2.845,0,0,0-.325.6c-.352.876-.253,1.88-.575,2.758l-.021.051A4.843,4.843,0,0,0,671.409,187.06Z" transform="translate(-669.796 -184.45)"/><path d="M691.142,225.4a11.984,11.984,0,0,1-5.374,1.411c-1.869-.1-3.819-1.292-4.146-3.132-.112-.637-.1-1.4-.636-1.736-.331-.2-.76-.151-1.116-.3a1.966,1.966,0,0,1-.94-1.324,11.9,11.9,0,0,1-.554-3.395c-.023-1.364.159-2.856-.615-3.983-.719-1.042-1.992-1.568-2.82-2.527-.764-.885-1.593-1.956-2.845-2.122-1.716-.233-5.3,2.122-6.319-.386a1.974,1.974,0,0,1,.066-1.449c-.074.125-.146.25-.212.378a2.248,2.248,0,0,0-.231,1.829c1.021,2.5,4.6.151,6.319.386,1.252.17,2.081,1.241,2.845,2.122.828.959,2.1,1.485,2.818,2.529.777,1.125.594,2.616.617,3.98a11.894,11.894,0,0,0,.554,3.395,1.97,1.97,0,0,0,.94,1.324c.356.151.785.1,1.116.3.547.331.533,1.105.636,1.736.331,1.84,2.279,3.036,4.146,3.132a12,12,0,0,0,5.374-1.411c1.231-.547,2.6-1.3,2.971-2.546A6.428,6.428,0,0,1,691.142,225.4Z" transform="translate(-665.288 -201.79)"/></g></g><g transform="translate(177.377 4.92)"><path class="w" d="M812.878,263.674a49.9,49.9,0,0,0-6.2-3.221l-.093-.066a3.736,3.736,0,0,1-1.131-1.43,2.973,2.973,0,0,1,0-.308.134.134,0,0,0,0,.03,6.772,6.772,0,0,1,1.967-3.7l2.362-2.777a2.736,2.736,0,0,0,.609-.963,2.22,2.22,0,0,0,.064-.592V250.4c-.013-.69-.032-1.381-.057-2.071-.021-.6-.176-1.362-.779-1.485-.314-.064-.73.049-.9-.212a.516.516,0,0,1-.04-.359.134.134,0,0,0,0,.03v-.034a8,8,0,0,0,.223-1.419,1.938,1.938,0,0,0-.1-.719c-.348-1-1.551-1.411-2.614-1.6a4.581,4.581,0,0,1-2.922-1.182,8.668,8.668,0,0,0-.581-.8,2.3,2.3,0,0,0-1.086-.537,6.153,6.153,0,0,0-3.953.344,3.548,3.548,0,0,1-1.593.5c-.564-.034-1.086-.441-1.664-.539a2.374,2.374,0,0,0-2.287,1.339,3.275,3.275,0,0,0-.424,1.579v.093h0a2.309,2.309,0,0,0,.607,1.613c.4.424,1,.7,1.169,1.254.068.223.051.465.112.692a.631.631,0,0,0,.025.083l-.03.04a7,7,0,0,0-1.485,4.316,7.163,7.163,0,0,0,5.033,6.79v.212a3.053,3.053,0,0,1-.976,2.376l-6.363,2.542s-3.836-.456-5.22,5.15a9.558,9.558,0,0,0-.238,2.843,8.242,8.242,0,0,1-1.061,4.258c-1.572,3.081-1.214,10.153,2,10.853,3.036.662,4.224.386,4.35.354v.123c-.051,1.328-.533,12.773-2.283,14.156-.484.384-.395.637,0,.817,0,0,0,.074-.011.212-.053.849-.323,4.031-1.485,5.839-1.36,2.1-1.218,14.216-1.218,14.216l-.927,7.142s.571,4.411,0,5.181c-.511.685-1.19,17-1.333,20.543H782.3a1.723,1.723,0,0,0-1.375.849,23.969,23.969,0,0,1-3.382,3.475c-.571.81-2.682,1.587-3.8,1.952a2.359,2.359,0,0,0-.424.187,2.264,2.264,0,0,0-.959,1.01,1.085,1.085,0,0,0-.1.849c.284.7,6.219,1.19,7.721.488,1.18-.55,5.856-1.273,7.8-1.557a1.6,1.6,0,0,0,1.388-1.388.915.915,0,0,0-.178-.694h0a6.151,6.151,0,0,1-.637-2.546,1.721,1.721,0,0,0,.437-.259,18.64,18.64,0,0,1,1.061-7.492c1.43-3.781,1.859-10.783,1.5-15.334,0,0,4.36-18.765,7.793-20.515h0c.053.068,1.719,2.2,1.931,8.822a26.733,26.733,0,0,0,2.644,11.133s-1.074,11.413,0,15.684l-1.4,6.737c-.1-.087-.17-.155-.17-.155s.042.187.1.486l-.03.144.062.013a13.258,13.258,0,0,1,.3,3.183c-.055.49-.193,1.163-.286,1.823-.149,1.038-.189,2.043.356,2.264.9.361,6.153.849,7.044-.306a1.653,1.653,0,0,0,.259-1.729,1.749,1.749,0,0,0-.259-.441s-1.4-2.281-1-3.889a1.184,1.184,0,0,0-.168-.923,47.439,47.439,0,0,1,1.2-7.545c.9-3.369,2.782-10.757,1.394-15.614h0q-.079-.286-.178-.56a20.969,20.969,0,0,1-.787-8.192,16.694,16.694,0,0,1,0-7.142c.859-3.921,1.46-7.772,1.46-7.772a49.124,49.124,0,0,0,.059-8.358,2.119,2.119,0,0,0-.027-.212l.225-.051s-1.216-5.391-1.644-8.822c-.1-.81-.233-1.835-.378-2.93a7.481,7.481,0,0,0,1.165-.291c3.859-1.33,5.075-13.367,5.075-13.367v-3.819S817.382,266.265,812.878,263.674Zm-28.763,92.984c-.119-.059-.189-.1-.189-.1h0Z" transform="translate(-772.213 -239.838)"/><path class="x" d="M849.22,552.657c1.674,4.814-.28,12.629-1.188,16.125a48.742,48.742,0,0,0-1.186,7.676,16.166,16.166,0,0,1-6.14-.14l1.466-7.186c-1.048-4.256,0-15.631,0-15.631a27.117,27.117,0,0,1-2.582-11.095c-.212-6.592-1.831-8.725-1.882-8.79h0c-3.348,1.744-7.6,20.445-7.6,20.445.348,4.534-.072,11.513-1.466,15.277a18.884,18.884,0,0,0-1.046,7.464,2.27,2.27,0,0,1-1.91.365,13.033,13.033,0,0,1-4.381-2.039s.766-20.369,1.326-21.141,0-5.164,0-5.164l.906-7.116s-.14-12.073,1.186-14.165c1.146-1.808,1.409-4.986,1.46-5.82v-.212l2.02-2.419s19.537-1.466,21.005,0a4.186,4.186,0,0,1,.713,2.207,50,50,0,0,1-.059,8.328s-.586,3.838-1.424,7.744a17,17,0,0,0,0,7.118A21.31,21.31,0,0,0,849.22,552.657Z" transform="translate(-810.885 -459.327)"/><path class="q" d="M919.777,791.872c-.872,1.152-6,.664-6.875.306-.532-.212-.492-1.224-.348-2.258.091-.656.225-1.326.28-1.814a16.707,16.707,0,0,0-.424-3.8s1.15,1.222,1.428,0a1.331,1.331,0,0,1,1-.946,2.605,2.605,0,0,1,1.812.112c.906.395,2.417,1.233,2.147,2.366-.384,1.6.976,3.876.976,3.876a1.763,1.763,0,0,1,.255.437A1.674,1.674,0,0,1,919.777,791.872Z" transform="translate(-882.664 -667.946)"/><path class="k" d="M846.362,605.373c.348,4.534-.072,11.513-1.466,15.277a18.885,18.885,0,0,0-1.046,7.464,2.27,2.27,0,0,1-1.91.365c.424-2.943,2.215-15.622,3.363-25.641a41.96,41.96,0,0,1,7.426-19.257l1.22,1.343C850.618,586.672,846.362,605.373,846.362,605.373Z" transform="translate(-827.146 -510.647)"/><path class="h" d="M884.459,309.563l-.849,4.186-4.174,7.012-5.145-2.2s-7-7.326-2.6-8.372a3.9,3.9,0,0,0,1.46-.649,3.018,3.018,0,0,0,1.139-2.525,7.742,7.742,0,0,0-.709-3l9-2.826a14.444,14.444,0,0,0-.636,3.645c-.07,2.453.849,3.66,1.589,4.243A2.7,2.7,0,0,0,884.459,309.563Z" transform="translate(-849.441 -288.172)"/><path class="k" d="M894.992,301.19a14.445,14.445,0,0,0-.637,3.645,6.891,6.891,0,0,1-.524.558,7.121,7.121,0,0,1-7.117,1.623,7.738,7.738,0,0,0-.715-3Z" transform="translate(-861.857 -288.172)"/><path class="h" d="M880.387,269.336a7.084,7.084,0,1,1-2.075-5.042A7.118,7.118,0,0,1,880.387,269.336Z" transform="translate(-846.219 -257.47)"/><path class="k" d="M884.459,338.83l-.849,4.186-4.174,7.012-5.145-2.2s-7-7.326-2.6-8.372a3.9,3.9,0,0,0,1.46-.649c-.793,2.181,2.482,6.72,2.482,6.72.382.562,1.256.212,1.256.212,2.111-.32,6-6.391,6.631-7.4A2.7,2.7,0,0,0,884.459,338.83Z" transform="translate(-849.441 -317.44)"/><path class="k" d="M868.077,521.286c-1.239.282-8.095,1.8-10.694,1.419-2.86-.424-8.421-.7-8.421-.7s-3.541.191-4.632-.308v-.212l2.02-2.419s19.537-1.466,21.005,0A4.167,4.167,0,0,1,868.077,521.286Z" transform="translate(-829.028 -459.31)"/><path class="y" d="M837.2,345.983s-3.681-5.092-2.294-7.087l-6.219,2.546s-3.743-.454-5.092,5.133a9.721,9.721,0,0,0-.231,2.835,8.386,8.386,0,0,1-1.025,4.243c-1.534,3.07-1.186,10.119,1.954,10.821s4.254.348,4.254.348-.424,12.769-2.232,14.235,4.625,1.116,4.625,1.116,5.561.28,8.423.7,10.885-1.466,10.885-1.466-1.186-5.372-1.606-8.79-1.4-10.7-1.4-10.7l7.116-9.641s1.256-5.826-3.14-8.409a49.692,49.692,0,0,0-6.049-3.214s-4.418,7.193-6.72,7.541C838.455,346.191,837.581,346.543,837.2,345.983Z" transform="translate(-811.007 -317.683)"/><path class="k" d="M852.776,382.74a10.492,10.492,0,0,0,.35,3.21c.418.906,1.954,5.941,1.954,5.941h-3.49s1.884-2.024,1.746-3S852.776,382.74,852.776,382.74Z" transform="translate(-834.749 -352.419)"/><path class="h" d="M864.57,428.319s-7.706-1.884-8.423-3.488-2.7-5.2-2.7-5.2l.813-1.095,3.747,2.941s4.456,3.558,6.56,3.908S864.57,428.319,864.57,428.319Z" transform="translate(-836.214 -380.623)"/><path class="z" d="M864.57,428.319s-7.706-1.884-8.423-3.488-2.7-5.2-2.7-5.2l.813-1.095,3.747,2.941s4.456,3.558,6.56,3.908S864.57,428.319,864.57,428.319Z" transform="translate(-836.214 -380.623)"/><path class="h" d="M885.571,421.708v4.18h-.67a19.538,19.538,0,0,0-9.492,2.459l-1.257.7-.337.189-2.164-4.88,2.024-1.814h.1a12.1,12.1,0,0,0,3.543-.078,5.76,5.76,0,0,1,4.468-.573c1.25.32,2.319,1.721,3.531,1.284Z" transform="translate(-850.552 -383.083)"/><path class="k" d="M912.584,368.389l1.394,1.57v3.8s-1.186,12-4.952,13.327-10.494-.768-10.494-.768-1.738-4.6-.925-4.88,7.182-1.961,7.182-1.961-.089-7.04,1.305-9.134c0,0-.906-6.558,2.234-6.7S912.584,368.389,912.584,368.389Z" transform="translate(-870.83 -337.376)"/><path class="y" d="M913.588,368.389l1.4,1.57v3.8s-1.186,12-4.954,13.327-10.494-.768-10.494-.768-1.738-4.6-.923-4.88,7.182-1.961,7.182-1.961-.091-7.04,1.3-9.134c0,0-.908-6.558,2.232-6.7S913.588,368.389,913.588,368.389Z" transform="translate(-871.624 -337.376)"/><path class="k" d="M883.84,272.263a2.8,2.8,0,0,0-.159-1.36,1.035,1.035,0,0,0-1.108-.637c-.6.14-.849.917-1.439,1.1a1.15,1.15,0,0,1-1.273-.654,3.255,3.255,0,0,1-.242-1.519v-1.748a2.893,2.893,0,0,0-.412-1.818,3.21,3.21,0,0,0-2.393-.866,2.03,2.03,0,0,0-1.366.55,1.759,1.759,0,0,1-1.436.511,1.237,1.237,0,0,1-1-.866v-.021a7.116,7.116,0,1,1,10.579,9.446A19.236,19.236,0,0,0,883.84,272.263Z" transform="translate(-851.624 -257.377)"/><path class="aa" d="M867.161,249.587a1.248,1.248,0,0,1-1-.868c-.057-.225-.042-.465-.108-.687-.163-.55-.749-.834-1.142-1.252a2.8,2.8,0,0,1-.178-3.208,2.318,2.318,0,0,1,2.232-1.332c.564.1,1.061.5,1.625.537a3.28,3.28,0,0,0,1.555-.5,5.861,5.861,0,0,1,3.866-.344,2.228,2.228,0,0,1,1.061.537,9.3,9.3,0,0,1,.566.8,4.421,4.421,0,0,0,2.852,1.178c1.038.187,2.211.6,2.546,1.6a4.17,4.17,0,0,1-.123,2.067.624.624,0,0,0,.028.424c.163.267.569.155.874.212.588.125.738.883.762,1.485q.036,1.031.055,2.064a2.63,2.63,0,0,1-.062.764,2.7,2.7,0,0,1-.592.961l-2.3,2.769c-1.023,1.226-2.107,2.656-1.91,4.243a.988.988,0,0,1-1.218-.709,3.169,3.169,0,0,1,.076-1.572,19.285,19.285,0,0,0,.369-2.727,2.8,2.8,0,0,0-.159-1.358,1.035,1.035,0,0,0-1.108-.637c-.6.14-.849.917-1.439,1.1a1.15,1.15,0,0,1-1.273-.654,3.248,3.248,0,0,1-.242-1.517v-1.75a2.893,2.893,0,0,0-.412-1.818,3.21,3.21,0,0,0-2.393-.866,2.031,2.031,0,0,0-1.364.55A1.762,1.762,0,0,1,867.161,249.587Z" transform="translate(-844.774 -241.344)"/><path class="k" d="M885.3,381.92l2.185,8.977S889.208,390.887,885.3,381.92Z" transform="translate(-861.305 -351.773)"/><path class="k" d="M913.055,374.85s-2.86,4.685-1.744,9.531l.533.038S910.893,382.176,913.055,374.85Z" transform="translate(-881.594 -346.204)"/><path class="k" d="M929,498.894s3.514-1.163,3.768,1.534C932.777,500.428,932.115,498.58,929,498.894Z" transform="translate(-895.733 -443.731)"/><path class="k" d="M858.887,426.81s-.7,4.88.558,6.839a15.3,15.3,0,0,1-6.14.838l-.424-7.677Z" transform="translate(-835.765 -387.138)"/><path class="k" d="M874.152,432.3l-.337.189-2.164-4.88,2.024-1.814h.1C873.746,426.032,873.182,430.227,874.152,432.3Z" transform="translate(-850.552 -386.335)"/><path class="y" d="M851.395,425.83s-.7,4.88.558,6.836a15.259,15.259,0,0,1-6.14.838l-2.442-7.674Z" transform="translate(-828.272 -386.367)"/><path class="q" d="M791.314,788.239a1.581,1.581,0,0,1-1.356,1.383c-1.895.282-6.459,1-7.611,1.553-1.466.7-7.256.212-7.537-.488a1.108,1.108,0,0,1,.1-.849,2.236,2.236,0,0,1,.936-1.006,2.477,2.477,0,0,1,.424-.187c1.091-.363,3.151-1.135,3.707-1.946a23.635,23.635,0,0,0,3.3-3.461,1.676,1.676,0,0,1,1.341-.836c.611-.028,1.292.28,1.572,1.619,0,0,3.346,1.91,4.243.236,0,0,.14,2.572.7,3.276h0a.933.933,0,0,1,.183.7Z" transform="translate(-774.226 -667.283)"/><path class="k" d="M791.314,807.295a1.581,1.581,0,0,1-1.356,1.383c-1.895.282-6.459,1-7.611,1.553-1.466.7-7.256.212-7.537-.488a1.108,1.108,0,0,1,.1-.849,2.236,2.236,0,0,1,.936-1.006c.944.637,3.04,1.239,7.651.52a33.779,33.779,0,0,0,7.638-1.818h0a.934.934,0,0,1,.178.7Z" transform="translate(-774.226 -686.338)"/><g class="r" transform="translate(19.535 3.706)"><path d="M942.407,266.139v-.034a6.247,6.247,0,0,0,.212-1.585,10.471,10.471,0,0,1-.212,1.273A.771.771,0,0,0,942.407,266.139Z" transform="translate(-925.816 -262.988)"/><path d="M876.8,266.982a2.017,2.017,0,0,1,.172.8,2.4,2.4,0,0,0-.172-1.112,1.031,1.031,0,0,0-1.105-.637c-.6.14-.849.917-1.441,1.1a1.152,1.152,0,0,1-1.273-.654,3.228,3.228,0,0,1-.242-1.519v-1.748a2.893,2.893,0,0,0-.412-1.818,3.215,3.215,0,0,0-2.393-.868,2.033,2.033,0,0,0-1.366.552,1.763,1.763,0,0,1-1.439.511,1.243,1.243,0,0,1-1-.866c-.057-.225-.042-.467-.108-.69-.163-.547-.749-.834-1.142-1.25a2.285,2.285,0,0,1-.588-1.485,2.379,2.379,0,0,0,.588,1.789c.393.424.978.7,1.142,1.25.066.212.051.465.108.69a1.243,1.243,0,0,0,1,.866,1.763,1.763,0,0,0,1.439-.511,2.033,2.033,0,0,1,1.366-.552,3.209,3.209,0,0,1,2.393.868,2.911,2.911,0,0,1,.412,1.818v1.748a3.211,3.211,0,0,0,.242,1.517,1.155,1.155,0,0,0,1.273.656c.586-.187.849-.963,1.441-1.1A1.071,1.071,0,0,1,876.8,266.982Z" transform="translate(-864.285 -257.3)"/><path d="M932.45,292.2a2.68,2.68,0,0,1-.594.959l-2.3,2.769c-.97,1.165-1.994,2.514-1.909,4a6.865,6.865,0,0,1,1.909-3.688l2.3-2.769a2.68,2.68,0,0,0,.594-.959,2.643,2.643,0,0,0,.062-.766A2.013,2.013,0,0,1,932.45,292.2Z" transform="translate(-914.195 -284.441)"/><path d="M921.716,326.723a1.624,1.624,0,0,1-.07-.373,1.88,1.88,0,0,0,.07.687.985.985,0,0,0,1.218.707,3.012,3.012,0,0,1-.026-.306A.986.986,0,0,1,921.716,326.723Z" transform="translate(-909.47 -311.699)"/></g><path class="k" d="M812.69,789.36s.73,1.273,3.374.153" transform="translate(-804.102 -672.765)"/><path class="k" d="M918,790.82s2.279,2.684,5.152.881" transform="translate(-887.068 -673.914)"/><path class="k" d="M943.084,641.23s-1.611,1.006-1.661,1.581.832-.424.832-.424Z" transform="translate(-905.519 -556.064)"/><path class="k" d="M941.525,677.59a3.367,3.367,0,0,1-1.984.774c-1.205.053-1.1,1.623-.316,1.152A19.733,19.733,0,0,0,941.525,677.59Z" transform="translate(-903.323 -584.709)"/><path class="k" d="M948.5,682.34s-.772,3.8-1.4,3.064" transform="translate(-909.994 -588.452)"/></g></g></g></g></svg>