<svg xmlns="http://www.w3.org/2000/svg" xmlns:xlink="http://www.w3.org/1999/xlink" width="700" height="290" viewBox="0 0 700 290"><defs><style>.a{fill:#fff;}.b{clip-path:url(#a);}.c{fill:#f2f2f2;}.d{fill:#9abcfe;}.e{fill:#b8d1ff;}.f{fill:#eaf0fb;}.g{fill:url(#b);}.h{fill:#fbbebe;}.i{fill:#444053;}.j{fill:#b07473;}.k,.r,.t{opacity:0.1;}.l{fill:#6c63ff;}.m{fill:#67647e;}.n,.t{fill:#474463;}.o{fill:#e1e7ef;}.p{fill:url(#c);}.q{fill:#a27772;}.s{fill:#585268;}.u{fill:url(#d);}.v{fill:#f6f8fb;}.w{fill:url(#j);}.x{fill:#65617d;}.y{fill:url(#k);}.z{opacity:0.05;}.aa{fill:#7c5c5c;}</style><clipPath id="a"><rect class="a" width="700" height="290" transform="translate(282 2968)"/></clipPath><linearGradient id="b" x1="0.5" y1="1" x2="0.5" gradientUnits="objectBoundingBox"><stop offset="0" stop-color="gray" stop-opacity="0.251"/><stop offset="0.54" stop-color="gray" stop-opacity="0.122"/><stop offset="1" stop-color="gray" stop-opacity="0.102"/></linearGradient><linearGradient id="c" x1="0.5" x2="0.5" y2="0" xlink:href="#b"/><linearGradient id="d" x1="0.5" x2="0.5" y2="1" gradientUnits="objectBoundingBox"><stop offset="0" stop-color="#ffa330"/><stop offset="0.274" stop-color="#ff9346"/><stop offset="0.539" stop-color="#ff8559"/><stop offset="0.766" stop-color="#fb7a6a"/><stop offset="1" stop-color="#f07379"/></linearGradient><linearGradient id="j" x1="0.5" x2="0.5" y2="0" xlink:href="#b"/><linearGradient id="k" x1="0.5" x2="0.5" y2="1" gradientUnits="objectBoundingBox"><stop offset="0" stop-color="#5690ff"/><stop offset="1" stop-color="#766de8"/></linearGradient></defs><g class="b" transform="translate(-282 -2968)"><g transform="translate(282 2968)"><path class="c" d="M105.422,613.975a11.458,11.458,0,1,1,22.915,0" transform="translate(-85.852 -349.589)"/><path class="d" d="M122.434,616.359a.31.31,0,0,1-.31-.31V610a.31.31,0,1,1,.619,0v6.048a.31.31,0,0,1-.31.31Z" transform="translate(-91.405 -351.972)"/><path class="d" d="M120.582,614.666a.309.309,0,0,1-.2-.075l-3.716-3.194a.31.31,0,0,1,.4-.471l3.716,3.194a.31.31,0,0,1-.2.545Z" transform="translate(-89.554 -352.357)"/><path class="c" d="M158.31,613.975a11.458,11.458,0,1,1,22.915,0" transform="translate(-103.438 -349.589)"/><path class="d" d="M175.321,616.359a.31.31,0,0,1-.31-.31V610a.31.31,0,1,1,.619,0v6.048a.31.31,0,0,1-.31.31Z" transform="translate(-108.991 -351.972)"/><path class="d" d="M173.47,614.666a.309.309,0,0,1-.2-.075l-3.716-3.194a.31.31,0,0,1,.4-.471l3.716,3.194a.31.31,0,0,1-.2.546Z" transform="translate(-107.14 -352.357)"/><ellipse class="e" cx="22.027" cy="22.062" rx="22.027" ry="22.062" transform="translate(501.811 0.875)"/><path class="f" d="M168.595,316.423c5.252-16.425,18.075-29.163,33.283-36.739,18.044-8.989,38.779-10.007,58.371-6.508,21.15,3.777,40.917,12.483,60.051,21.984,18.768,9.319,37.232,19.16,56.75,26.861a366.87,366.87,0,0,0,122.114,25.335c37.667,1.259,77.94-2.875,110.191-24.079,29.551-19.429,48.355-51.481,58.149-84.891q1.881-6.416,3.344-12.942c.285-1.257-1.646-1.793-1.931-.533-7.9,34.889-24.746,69.371-53.531,91.611C584.254,340.575,543.4,346.136,505.16,345.5A365.091,365.091,0,0,1,381.454,321.59c-20.02-7.633-38.911-17.546-58.044-27.115-18.712-9.359-37.95-18.121-58.527-22.437-18.789-3.942-38.906-4.182-57.022,2.832-14.917,5.775-28.518,16.07-36.478,30.152a57.872,57.872,0,0,0-4.72,10.868c-.394,1.232,1.539,1.76,1.931.533Z" transform="translate(-106.198 -224.191)"/><path class="e" d="M271.617,530.152c0-11.807-9.563-39.825-21.359-39.825S228.9,518.345,228.9,530.152a21.36,21.36,0,1,0,42.719,0Z" transform="translate(-126.909 -312.407)"/><path class="f" d="M263.617,530.152c0-11.807-9.563-39.825-21.359-39.825S220.9,518.345,220.9,530.152a21.36,21.36,0,1,0,42.719,0Z" transform="translate(-124.249 -312.407)"/><path class="d" d="M253.565,591.239a.668.668,0,0,1-.667-.668V530.977a.667.667,0,1,1,1.335,0V590.57A.668.668,0,0,1,253.565,591.239Z" transform="translate(-134.89 -325.659)"/><path class="d" d="M253.566,540.924a.669.669,0,0,1-.472-1.141l8.729-8.743a.668.668,0,0,1,.944.945l-8.729,8.743A.665.665,0,0,1,253.566,540.924Z" transform="translate(-134.89 -325.837)"/><path class="e" d="M707.617,530.152c0-11.807-9.563-39.825-21.359-39.825S664.9,518.345,664.9,530.152a21.36,21.36,0,1,0,42.719,0Z" transform="translate(-271.887 -312.407)"/><path class="f" d="M699.617,530.152c0-11.807-9.563-39.825-21.359-39.825S656.9,518.345,656.9,530.152a21.36,21.36,0,1,0,42.719,0Z" transform="translate(-269.227 -312.407)"/><path class="d" d="M689.565,591.239a.668.668,0,0,1-.668-.669V530.977a.667.667,0,1,1,1.335,0V590.57A.668.668,0,0,1,689.565,591.239Z" transform="translate(-279.867 -325.659)"/><path class="d" d="M689.566,540.924a.669.669,0,0,1-.472-1.141l8.729-8.743a.668.668,0,1,1,.944.945l-8.729,8.743a.665.665,0,0,1-.472.2Z" transform="translate(-279.867 -325.837)"/><path class="e" d="M353.081,260.752H342.4a3.009,3.009,0,0,1-3-3.008V233.008a3.009,3.009,0,0,1,3-3.008h10.68a3.009,3.009,0,0,1,3,3.008v24.736a3.009,3.009,0,0,1-3,3.008Z" transform="translate(-163.653 -226.117)"/><path class="e" d="M392.805,505.649H338.072a5.684,5.684,0,0,1-5.674-5.682V278.682A5.685,5.685,0,0,1,338.072,273h54.734a5.684,5.684,0,0,1,5.674,5.682V499.966A5.684,5.684,0,0,1,392.805,505.649Z" transform="translate(-161.325 -240.37)"/><path class="f" d="M343.805,505.649H289.072a5.684,5.684,0,0,1-5.674-5.682V278.682A5.684,5.684,0,0,1,289.072,273h54.734a5.684,5.684,0,0,1,5.674,5.682V499.966A5.684,5.684,0,0,1,343.805,505.649Z" transform="translate(-145.032 -240.37)"/><path class="f" d="M338.081,260.752H327.4a3.009,3.009,0,0,1-3-3.008V233.008a3.009,3.009,0,0,1,3-3.008h10.68a3.009,3.009,0,0,1,3,3.008v24.736a3.009,3.009,0,0,1-3,3.008Z" transform="translate(-158.665 -226.117)"/><path class="a" d="M316.749,336.73H304.067a1.672,1.672,0,0,1-1.669-1.671V315.671A1.672,1.672,0,0,1,304.067,314h12.682a1.672,1.672,0,0,1,1.669,1.671v19.387A1.672,1.672,0,0,1,316.749,336.73Z" transform="translate(-151.349 -253.96)"/><path class="a" d="M353.749,336.73H341.067a1.672,1.672,0,0,1-1.669-1.671V315.671A1.672,1.672,0,0,1,341.067,314h12.682a1.672,1.672,0,0,1,1.669,1.671v19.387A1.672,1.672,0,0,1,353.749,336.73Z" transform="translate(-163.653 -253.96)"/><path class="a" d="M316.749,389.73H304.067a1.672,1.672,0,0,1-1.669-1.671V368.671A1.672,1.672,0,0,1,304.067,367h12.682a1.672,1.672,0,0,1,1.669,1.671v19.387a1.672,1.672,0,0,1-1.669,1.671Z" transform="translate(-151.349 -271.528)"/><path class="a" d="M353.749,389.73H341.067a1.672,1.672,0,0,1-1.669-1.671V368.671A1.672,1.672,0,0,1,341.067,367h12.682a1.672,1.672,0,0,1,1.669,1.671v19.387a1.672,1.672,0,0,1-1.669,1.671Z" transform="translate(-163.653 -271.528)"/><path class="a" d="M316.749,442.73H304.067a1.672,1.672,0,0,1-1.669-1.671V421.671A1.672,1.672,0,0,1,304.067,420h12.682a1.672,1.672,0,0,1,1.669,1.671v19.387a1.672,1.672,0,0,1-1.669,1.671Z" transform="translate(-151.349 -289.096)"/><path class="a" d="M353.749,442.73H341.067a1.672,1.672,0,0,1-1.669-1.671V421.671A1.672,1.672,0,0,1,341.067,420h12.682a1.672,1.672,0,0,1,1.669,1.671v19.387a1.672,1.672,0,0,1-1.669,1.671Z" transform="translate(-163.653 -289.096)"/><path class="a" d="M316.749,495.73H304.067a1.672,1.672,0,0,1-1.669-1.671V474.671A1.672,1.672,0,0,1,304.067,473h12.682a1.672,1.672,0,0,1,1.669,1.671v19.387A1.672,1.672,0,0,1,316.749,495.73Z" transform="translate(-151.349 -306.663)"/><path class="a" d="M353.749,495.73H341.067a1.672,1.672,0,0,1-1.669-1.671V474.671A1.672,1.672,0,0,1,341.067,473h12.682a1.672,1.672,0,0,1,1.669,1.671v19.387A1.672,1.672,0,0,1,353.749,495.73Z" transform="translate(-163.653 -306.663)"/><path class="a" d="M316.749,548.73H304.067a1.672,1.672,0,0,1-1.669-1.671V527.671A1.672,1.672,0,0,1,304.067,526h12.682a1.672,1.672,0,0,1,1.669,1.671v19.387A1.672,1.672,0,0,1,316.749,548.73Z" transform="translate(-151.349 -324.231)"/><path class="a" d="M353.749,548.73H341.067a1.672,1.672,0,0,1-1.669-1.671V527.671A1.672,1.672,0,0,1,341.067,526h12.682a1.672,1.672,0,0,1,1.669,1.671v19.387A1.672,1.672,0,0,1,353.749,548.73Z" transform="translate(-163.653 -324.231)"/><path class="e" d="M766.081,441.056H755.4a3.009,3.009,0,0,1-3-3.008V424.008a3.009,3.009,0,0,1,3-3.008h10.68a3.01,3.01,0,0,1,3,3.008v14.039A3.01,3.01,0,0,1,766.081,441.056Z" transform="translate(-300.982 -289.427)"/><path class="e" d="M877.805,563.661H823.072a5.684,5.684,0,0,1-5.674-5.682v-106.3A5.684,5.684,0,0,1,823.072,446h54.734a5.684,5.684,0,0,1,5.674,5.683v106.3A5.684,5.684,0,0,1,877.805,563.661Z" transform="translate(-322.596 -297.714)"/><path class="f" d="M808.854,563.661H714.072a5.685,5.685,0,0,1-5.674-5.682v-106.3A5.684,5.684,0,0,1,714.072,446h94.783a5.685,5.685,0,0,1,5.674,5.683v106.3A5.685,5.685,0,0,1,808.854,563.661Z" transform="translate(-289.303 -297.714)"/><path class="f" d="M751.081,441.056H740.4a3.009,3.009,0,0,1-3-3.008V424.008a3.01,3.01,0,0,1,3-3.008h10.68a3.009,3.009,0,0,1,3,3.008v14.039a3.009,3.009,0,0,1-3,3.008Z" transform="translate(-295.994 -289.427)"/><path class="a" d="M771.749,513.23H759.067a1.672,1.672,0,0,1-1.669-1.671V492.171a1.672,1.672,0,0,1,1.669-1.671h12.682a1.672,1.672,0,0,1,1.669,1.671v19.387a1.672,1.672,0,0,1-1.669,1.671Z" transform="translate(-302.645 -312.464)"/><path class="a" d="M808.749,513.23H796.067a1.672,1.672,0,0,1-1.669-1.671V492.171a1.672,1.672,0,0,1,1.669-1.671h12.682a1.672,1.672,0,0,1,1.669,1.671v19.387A1.672,1.672,0,0,1,808.749,513.23Z" transform="translate(-314.948 -312.464)"/><path class="a" d="M771.749,566.23H759.067a1.672,1.672,0,0,1-1.669-1.671V545.171a1.672,1.672,0,0,1,1.669-1.671h12.682a1.672,1.672,0,0,1,1.669,1.671v19.387a1.672,1.672,0,0,1-1.669,1.671Z" transform="translate(-302.645 -330.032)"/><path class="a" d="M808.749,566.23H796.067a1.672,1.672,0,0,1-1.669-1.671V545.171a1.672,1.672,0,0,1,1.669-1.671h12.682a1.672,1.672,0,0,1,1.669,1.671v19.387A1.672,1.672,0,0,1,808.749,566.23Z" transform="translate(-314.948 -330.032)"/><path class="d" d="M774.822,621.837H76.77a.669.669,0,0,1,0-1.337H774.822a.669.669,0,0,1,0,1.337Z" transform="translate(-76.102 -355.555)"/><path class="d" d="M407.641,656.837H345.565a.669.669,0,0,1,0-1.337h62.076a.669.669,0,0,1,0,1.337Z" transform="translate(-165.481 -367.156)"/><path class="d" d="M638.641,656.837H576.565a.669.669,0,0,1,0-1.337h62.076a.669.669,0,0,1,0,1.337Z" transform="translate(-242.293 -367.156)"/><path class="d" d="M869.641,656.837H807.566a.669.669,0,0,1,0-1.337h62.076a.669.669,0,0,1,0,1.337Z" transform="translate(-319.104 -367.156)"/><path class="e" d="M981.619,530.152c0-11.807-9.563-39.825-21.359-39.825S938.9,518.345,938.9,530.152a21.36,21.36,0,1,0,42.719,0Z" transform="translate(-362.997 -312.407)"/><path class="f" d="M973.617,530.152c0-11.807-9.563-39.825-21.359-39.825S930.9,518.345,930.9,530.152a21.36,21.36,0,1,0,42.719,0Z" transform="translate(-360.336 -312.407)"/><path class="d" d="M963.565,591.239a.668.668,0,0,1-.667-.669V530.977a.667.667,0,1,1,1.335,0V590.57A.668.668,0,0,1,963.565,591.239Z" transform="translate(-370.977 -325.659)"/><path class="d" d="M963.566,540.924a.669.669,0,0,1-.472-1.141l8.729-8.743a.668.668,0,1,1,.944.945l-8.729,8.743a.665.665,0,0,1-.472.2Z" transform="translate(-370.977 -325.837)"/><path class="f" d="M989.422,613.975a11.458,11.458,0,1,1,22.915,0" transform="translate(-379.796 -349.589)"/><path class="d" d="M1006.436,616.359a.31.31,0,0,1-.31-.31V610a.31.31,0,1,1,.619,0v6.048a.31.31,0,0,1-.31.31Z" transform="translate(-385.351 -351.972)"/><path class="d" d="M1004.585,614.666a.308.308,0,0,1-.2-.075l-3.716-3.194a.31.31,0,1,1,.4-.471l3.716,3.194a.31.31,0,0,1-.2.545Z" transform="translate(-383.5 -352.357)"/><path class="f" d="M1042.31,613.975a11.458,11.458,0,1,1,22.915,0" transform="translate(-397.382 -349.589)"/><path class="d" d="M1059.326,616.359a.31.31,0,0,1-.31-.31V610a.31.31,0,1,1,.619,0v6.048a.31.31,0,0,1-.31.31Z" transform="translate(-402.938 -351.972)"/><path class="d" d="M1057.475,614.666a.308.308,0,0,1-.2-.075l-3.716-3.194a.31.31,0,1,1,.4-.471l3.716,3.194a.31.31,0,0,1-.2.546Z" transform="translate(-401.086 -352.357)"/><g transform="translate(176.786 134.643)"><g transform="translate(0 26.545)"><path class="g" d="M454.1,178.422c-.466-3.139-3.318-10.464-3.318-10.464h0q-.074-.324-.168-.648c-2.023-6.951-4.823-7.556-4.823-7.556l-10.03-2.159a.777.777,0,0,1,.216.2,1.386,1.386,0,0,0-.158.024,3.929,3.929,0,0,1-.879-1.9c-.019-.1-.037-.216-.05-.322a7.055,7.055,0,0,0-.574-10.606c-.106-.082-.216-.162-.322-.237a1.6,1.6,0,0,0,.134-1.9,6.629,6.629,0,0,0-4.274-3.186,7.246,7.246,0,0,0-4.149-.089,14.988,14.988,0,0,0-2.172,1.008,12.209,12.209,0,0,0-3.8,2.286,1.116,1.116,0,0,0-.38.917,2.476,2.476,0,0,0,.378.667,2.013,2.013,0,0,1,.019,1.671,16.18,16.18,0,0,0-.62,1.606,1.679,1.679,0,0,0,.335,1.613,7.1,7.1,0,0,0,.626.432,3.286,3.286,0,0,1,.6.671q.6.8,1.187,1.6a16.524,16.524,0,0,1,1.487,2.26,11.013,11.013,0,0,0,.92,1.727,2.559,2.559,0,0,0,.4.414l-.117-.045a1.8,1.8,0,0,0,1.319.538h.06a.363.363,0,0,0,.242-.1v.216c.024.771.019,1.591-.035,2.362l-.093-.048a.81.81,0,0,0-.864.091l-9.233,7.409a12.16,12.16,0,0,0-1.727,7.487l-1.619,7.109s-2.023,6.032-.466,10.338,2.459,6.77,2.459,6.77.622,4.894,1.556,5.293,1.338.615,1.338.615l.186,1.17h0s.063.114.173.307c.68,1.183,3.2,5.358,4.663,4.911a18.711,18.711,0,0,1,.237,3.43l1.449,9.725a14.307,14.307,0,0,1,.948,4.03,7.681,7.681,0,0,0,1.179,3.361,6.423,6.423,0,0,0-.622,4.523c.592,2.591,1.338,14.524,1.338,14.524l1.079,2.893-.03,3.391a3.239,3.239,0,0,1-.669,1.511c-.7.76-.648,1.639-2.334,2.677s-2.755,1.431-2.755,2.806a3.609,3.609,0,0,1-.052.572c-.155,1.01-.458,1.559,2.642,1.852a8.173,8.173,0,0,0,6.07-2.029s.535-.971,3.057-1.364c0,0,.863-.045.909-.807.017-.263.013-.766,0-1.321a8.129,8.129,0,0,0-.276-2.349,5.12,5.12,0,0,1-.563-1.522h.7a30.7,30.7,0,0,0,0-8.063,13.08,13.08,0,0,1-.063-5.416l-.125-8.37a2.391,2.391,0,0,1-.186-2.556c.678-1.632,0-9.693,0-9.693s.25-2.893.965-3.571.035-4.238,0-4.423l1.274,4.272s.559,8.493,1.744,10.03l.341,3.847s2.426,3.54,1.96,5.447.5,8.8.5,8.8v7.048s-1.09,2.83.432,3.847l.648-.026c-.216.2-.382.5-.635.764a5.836,5.836,0,0,0-.55,2.424c-.078.831-.1,1.546-.1,1.546a2.545,2.545,0,0,0,1.867,1.107c1.22.071,5.239,3.128,5.239,3.128a47.541,47.541,0,0,0,5-.216l.06-.015a1.349,1.349,0,0,0,.775-.633,1.619,1.619,0,0,0,.186-1.164,2.905,2.905,0,0,0-1.675-1.837c-2.653-1.4-3.048-2.709-3.048-2.709l-1.742-2.614h.248a11.184,11.184,0,0,1,1.742-5.878l-.123-13.693s.777-4.708-.559-7.264c0,0-.11-2.707.784-3.538s-1.189-9.231-1.189-9.231-.432-4.51-.939-8.624h0c2.1,1.993,4.279-5.181,4.646-6.457h.054l-.024-.093c.015-.06.024-.091.024-.091h0s-.466-1.658-.125-1.321,1.183-.924,1.183-.924-.125-6.863,1.338-10.321S454.1,178.422,454.1,178.422Zm-6.26,4.367.011-.019c.216,4.19-.041,13.132-.041,13.132s-.289,1.146-.6,2.5l-.216-8.495h0l-.216-8ZM421.043,179.9s1.058,13.231,0,15.139a10,10,0,0,0-.762,2.614c-.35-.917-1.09-3.072-.825-4.214.343-1.477-.684-5.356-.684-5.447a9.2,9.2,0,0,1,.648-3.739c.74-1.58.255-2.265.255-2.265S420.3,179.4,421.043,179.9Z" transform="translate(-411.553 -139.315)"/><path class="h" d="M447.141,441.476c-.922,4.052-4.587-2.075-5.423-3.545-.108-.192-.168-.3-.168-.3l.4-1.863,2.1-.864a5.862,5.862,0,0,1,.941.613A5.675,5.675,0,0,1,447.141,441.476Z" transform="translate(-435.076 -371.09)"/><path class="h" d="M577.238,430.878a.282.282,0,0,1-.024.091.461.461,0,0,1-.028.1c-.361,1.265-2.5,8.387-4.562,6.409-2.258-2.159-1.161-7.15-1.161-7.15h.015l4.749-.486.941.967h0Z" transform="translate(-536.734 -367.123)"/><path class="i" d="M480.931,467.918l.121,13.6a11.155,11.155,0,0,0-1.71,5.829l-6.14.242c-1.5-1.008-.432-3.817-.432-3.817v-7s-.948-6.841-.49-8.737-1.923-5.4-1.923-5.4l-.337-3.819c-1.161-1.526-1.712-9.956-1.712-9.956l-1.246-4.257c.035.184.682,3.737,0,4.391s-.948,3.543-.948,3.543.671,8,0,9.622a2.382,2.382,0,0,0,.181,2.537l.123,8.309a12.993,12.993,0,0,0,.06,5.375,30.564,30.564,0,0,1,0,8h-6.586l.03-3.391-1.066-2.871s-.734-11.852-1.315-14.418a6.442,6.442,0,0,1,.609-4.49,7.64,7.64,0,0,1-1.159-3.329,14.239,14.239,0,0,0-.941-4l-1.421-9.652a18.752,18.752,0,0,0-.7-5.5c-.825-2.75-2.047-6.355-2.047-6.355l1.379.123,6.96.62s16.923-1.138,17.68-.192a3.175,3.175,0,0,1,.319.987c.76,3.413,1.764,14.105,1.764,14.105s2.047,8.339,1.168,9.164-.771,3.51-.771,3.51C481.7,463.233,480.931,467.918,480.931,467.918Z" transform="translate(-443.175 -369.114)"/><path class="j" d="M474.673,682.931c-.048.758-.892.8-.892.8-2.474.389-3,1.351-3,1.351a7.946,7.946,0,0,1-5.956,2.016c-3.044-.294-2.748-.835-2.591-1.839a3.8,3.8,0,0,0,.05-.566c0-1.375,1.053-1.766,2.7-2.806s1.6-1.9,2.29-2.657a4.21,4.21,0,0,0,.758-2.221c.777-1.354,2.748.216,2.748.216.093.479,3.022.412,3.022.412a6.452,6.452,0,0,0,.589,1.649,8.106,8.106,0,0,1,.27,2.331C474.685,682.171,474.69,682.669,474.673,682.931Z" transform="translate(-451.223 -560.505)"/><path class="k" d="M474.673,701.686c-.048.758-.892.8-.892.8-2.474.389-3,1.352-3,1.352a7.946,7.946,0,0,1-5.956,2.016c-3.044-.294-2.748-.835-2.591-1.839,1.36.337,3.959.807,5.477-.017,2.109-1.144,3.622-1.943,3.622-1.943l3.333-1.677C474.685,700.926,474.69,701.425,474.673,701.686Z" transform="translate(-451.223 -579.26)"/><path class="j" d="M560.467,690.183a1.317,1.317,0,0,1-.76.628l-.058.015a45.8,45.8,0,0,1-4.9.216s-3.94-3.046-5.131-3.115a2.507,2.507,0,0,1-1.833-1.1s.024-.708.1-1.533a5.851,5.851,0,0,1,.542-2.407c.527-.55.648-1.3,1.833-.825,0,0,1.693-2.983,3.687-.678l2.064,3.13s.389,1.3,3,2.7a2.9,2.9,0,0,1,1.643,1.824A1.609,1.609,0,0,1,560.467,690.183Z" transform="translate(-518.373 -563.679)"/><path class="k" d="M560.467,707.56c-.233.2-.49.408-.76.628l-.058.015a45.779,45.779,0,0,1-4.9.216s-3.94-3.046-5.131-3.115a2.507,2.507,0,0,1-1.833-1.1s.024-.708.1-1.533c1.213.363,3.05,1,3.543,1.695a15.01,15.01,0,0,0,3.05,2.519s4.279-.412,6.178-.468A1.609,1.609,0,0,1,560.467,707.56Z" transform="translate(-518.373 -581.056)"/><path class="h" d="M487.974,205.5l-5.634,5.956s-6.828-.5-5.637-2.519c.607-1.028.7-3.178.648-5.047-.05-1.8-.235-3.337-.235-3.337s9.576-4.767,8.851-.322a7.316,7.316,0,0,0-.026,2.537A3.325,3.325,0,0,0,487.974,205.5Z" transform="translate(-462.529 -185.599)"/><path class="k" d="M487.962,200.235a7.314,7.314,0,0,0-.026,2.537,7.029,7.029,0,0,1-5.013,2.092c-1.3,0-2.7-1.064-3.743-1.68-.05-1.8-.06-2.627-.06-2.627S488.7,195.79,487.962,200.235Z" transform="translate(-464.535 -185.599)"/><path class="h" d="M478.152,168.546a7.057,7.057,0,1,1-2.655-5.513A7.057,7.057,0,0,1,478.152,168.546Z" transform="translate(-452.709 -156.706)"/><path class="k" d="M482.1,434.348c-1.757,4.182-13.061,4.268-13.061,4.268v-4.559l-.684-.045a15.7,15.7,0,0,1-.414,4.49c-8.933,1.261-11.111-3.83-11.111-3.83l.311-1.742,6.96.62s16.923-1.138,17.68-.192A3.177,3.177,0,0,1,482.1,434.348Z" transform="translate(-447.057 -369.547)"/><path class="l" d="M469.04,277.046v-4.559l-.684-.043c.3,1.3-.414,4.49-.414,4.49-6.722.948-9.619-1.7-10.641-3.068a4.172,4.172,0,0,1-.471-.76l2.729-15.349.648-22.589.978-3.963.227-1.9v-.022h.024l.7.3,4.16,1.8,4.726-3.568.069-.05.235-.179.391.313.971.779L475.8,248.79s5.4,15.489,6.407,21.741c.041.25.073.484.1.7C482.971,276.94,469.04,277.046,469.04,277.046Z" transform="translate(-447.057 -208.527)"/><circle class="m" cx="0.402" cy="0.402" r="0.402" transform="translate(19.337 22.894)"/><circle class="m" cx="0.402" cy="0.402" r="0.402" transform="translate(19.522 26.559)"/><circle class="m" cx="0.402" cy="0.402" r="0.402" transform="translate(19.925 32.494)"/><circle class="m" cx="0.402" cy="0.402" r="0.402" transform="translate(20.586 38.885)"/><circle class="m" cx="0.402" cy="0.402" r="0.402" transform="translate(20.989 44.887)"/><circle class="m" cx="0.402" cy="0.402" r="0.402" transform="translate(21.39 51.28)"/><circle class="m" cx="0.402" cy="0.402" r="0.402" transform="translate(21.23 57.604)"/><path class="k" d="M461.671,265.939s-.449,5.878-1.274,7.588-1.192,6.507-1.192,6.507l-1.915-.216a4.178,4.178,0,0,1-.471-.76l2.729-15.349.648-22.589.98-3.966.227-1.9.026-.011a.773.773,0,0,1,.682.011l.091.047q-.041.117-.078.24a36.694,36.694,0,0,0-1.025,6.647s1.079,7.882,1.192,11.547S461.671,265.939,461.671,265.939Z" transform="translate(-447.049 -214.475)"/><path class="k" d="M444.989,435.52a1.1,1.1,0,0,1-.073.142,6.873,6.873,0,0,1-3.2,2.269c-.108-.192-.168-.3-.168-.3l.4-1.863,2.1-.863A5.863,5.863,0,0,1,444.989,435.52Z" transform="translate(-435.076 -371.09)"/><path class="i" d="M418.054,298.81l-1.742,1.038-1.587,7.057s-1.986,5.986-.46,10.263,2.413,6.725,2.413,6.725.611,4.857,1.528,5.254,1.313.611,1.313.611l.184,1.161s2.487-.844,3.366-2.332-.648-5.181-.648-5.181-1.312-3.147-.976-4.613-.674-5.315-.674-5.4a9.147,9.147,0,0,1,.648-3.713c.738-1.574.246-2.245.246-2.245l-.46-4.49Z" transform="translate(-413.228 -264.379)"/><path class="k" d="M533.362,272.564s-4.613,1.74-6.079.216-1.315-8.676-1.315-8.676-1.4-13.2-2.29-15.364-.432-17.81-.432-17.81a9.48,9.48,0,0,0-1.116-2.552.562.562,0,0,0-.11-.089l.179.039.626.134.971.779,3.115,20.118s5.4,15.489,6.407,21.741Z" transform="translate(-498.174 -209.084)"/><path class="k" d="M578.189,431.046h-.052c-.581.076-5.706.7-5.727-.371a3.147,3.147,0,0,1,.019-.369l4.749-.486.941.967h0c.017.063.03.117.043.16Z" transform="translate(-537.686 -367.107)"/><path class="i" d="M573.27,266.07l3.368,1.757s2.806,7.266,3.255,10.382c0,0,2.079,8.346.648,11.778s-1.312,10.246-1.312,10.246-.825,1.252-1.161.917.123,1.313.123,1.313-5.757.764-5.781-.367a59.04,59.04,0,0,1,1.321-6.537s.367-12.86-.153-14.876S573.27,266.07,573.27,266.07Z" transform="translate(-537.684 -238.706)"/><path class="k" d="M519.864,329.52s-1.9,4.641-2.506,4.948.123,1.526.123,1.526S520.933,331.169,519.864,329.52Z" transform="translate(-494.327 -288.459)"/><path class="k" d="M513.871,254.091c.022-.089-2.26,2.239-2.871,2.591S513.229,256.66,513.871,254.091Z" transform="translate(-489.465 -229.313)"/><path class="k" d="M484.05,327.82s-3.482,2.252-3.022,3.143S484.05,327.82,484.05,327.82Z" transform="translate(-465.998 -287.126)"/><path class="k" d="M524.47,480.07a18.64,18.64,0,0,0,7.575,2.375Z" transform="translate(-500.095 -406.509)"/><path class="k" d="M491.5,501.3s2.748,3.454,4,3.543S491.5,501.3,491.5,501.3Z" transform="translate(-474.241 -423.157)"/><path class="k" d="M497.286,564c-.123.06-1.559,3.115-3.022,3.208S497.286,564,497.286,564Z" transform="translate(-476.179 -472.321)"/><path class="k" d="M568.33,594.671s2.724-.611,3.331,1.343C571.661,596.008,571.478,595.4,568.33,594.671Z" transform="translate(-534.487 -496.3)"/><path class="k" d="M559.84,645.894s3.3-.674,4,.244S559.84,645.894,559.84,645.894Z" transform="translate(-527.83 -536.35)"/><path class="k" d="M504.817,654c0,.03-3.359.674-3.238,1.1s3.584.367,3.707-.307a.648.648,0,0,0-.468-.794Z" transform="translate(-482.142 -542.893)"/><path class="k" d="M554.75,666.715s5.52-.674,5.181.488S554.75,666.715,554.75,666.715Z" transform="translate(-523.838 -552.709)"/><path class="k" d="M420.89,352.44c.03.091,3.635.581,4.123,1.742a31,31,0,0,0-4.1-1.651" transform="translate(-418.874 -306.432)"/><path class="k" d="M434.241,396.16s-2.994.948-2.781,2.375S431.156,397.874,434.241,396.16Z" transform="translate(-427.156 -340.713)"/><path class="k" d="M437.92,425.28s1.09-1.5,2.129-1.222S437.92,425.28,437.92,425.28Z" transform="translate(-432.228 -362.563)"/><path class="k" d="M475.535,163.028a1.7,1.7,0,0,1-.35.261,4.03,4.03,0,0,0-1.511,2.172,4.618,4.618,0,0,1-1.574,2.148c-1,.6-2.306.38-3.34.9a2.591,2.591,0,0,0-1.382,2.554,7.368,7.368,0,0,0,.294,1.17,8.343,8.343,0,0,1,.315,2.541.434.434,0,0,1,0,.076,7.055,7.055,0,1,1,7.556-11.824Z" transform="translate(-452.747 -156.7)"/><path class="n" d="M462.554,146.033a6.512,6.512,0,0,0-4.195-3.163,7.045,7.045,0,0,0-4.074-.086,14.943,14.943,0,0,0-2.131,1,12.051,12.051,0,0,0-3.73,2.269,1.137,1.137,0,0,0-.373.911,2.543,2.543,0,0,0,.369.661,2,2,0,0,1,.019,1.66,15.223,15.223,0,0,0-.609,1.6,1.678,1.678,0,0,0,.328,1.6,5.981,5.981,0,0,0,.617.432,3.249,3.249,0,0,1,.585.665l1.166,1.593a16.162,16.162,0,0,1,1.459,2.243,10.7,10.7,0,0,0,.9,1.712,1.954,1.954,0,0,0,1.636.874.317.317,0,0,0,.259-.123.34.34,0,0,0,.032-.162,8.285,8.285,0,0,0-.309-2.532,7.3,7.3,0,0,1-.294-1.17,2.6,2.6,0,0,1,1.382-2.554c1.036-.522,2.347-.3,3.34-.9a4.588,4.588,0,0,0,1.574-2.159,4.064,4.064,0,0,1,1.511-2.172A1.518,1.518,0,0,0,462.554,146.033Z" transform="translate(-439.948 -141.83)"/><path class="k" d="M501.63,693.06s1.079,1.375.8,2.159S501.63,693.06,501.63,693.06Z" transform="translate(-482.185 -573.52)"/><path class="k" d="M569.28,702.153s.24-1.844,1.2-1.861a3.213,3.213,0,0,1,1.742.183c.734.283,1.423.721,1.2.786s-1.263-1.053-2.334-.481A7.713,7.713,0,0,0,569.28,702.153Z" transform="translate(-535.231 -579.172)"/><path class="k" d="M476.485,239.9l3.022-2.118s-4.421-2.612-4.948-2.245-.889,3.67-.889,3.67Z" transform="translate(-460.261 -214.742)"/><path class="o" d="M476.425,239.126l3.022-2.159s-4.421-2.612-4.948-2.245-.889,3.851-.889,3.851Z" transform="translate(-460.215 -214.099)"/><path class="l" d="M476.425,239.126l3.022-2.159s-4.421-2.612-4.948-2.245-.889,3.851-.889,3.851Z" transform="translate(-460.215 -214.099)"/><path class="i" d="M437.448,234.455l-.091-.045a.784.784,0,0,0-.848.089l-9.067,7.355a12.176,12.176,0,0,0-1.7,7.43l5.347,7.575s.611-2.565,1.343-2.077c0,0,1.038,13.136,0,15.029s-1.5,8.98-1.5,8.98l3.512.4s.367-4.8,1.192-6.507,1.274-7.588,1.274-7.588.743-8.54.62-12.206-1.192-11.547-1.192-11.547A35,35,0,0,1,437.448,234.455Z" transform="translate(-422.662 -213.815)"/><path class="k" d="M508.207,232.917l-3.767-1.395s4.8-5.254,5.4-2.34Z" transform="translate(-484.389 -209.092)"/><path class="o" d="M508.207,232.067l-3.767-1.395s4.8-5.254,5.4-2.34Z" transform="translate(-484.389 -208.426)"/><path class="l" d="M508.207,232.067l-3.767-1.395s4.8-5.254,5.4-2.34Z" transform="translate(-484.389 -208.426)"/><path class="k" d="M521.32,228.11a.216.216,0,0,1,.155.035Z" transform="translate(-497.625 -208.941)"/><path class="i" d="M523,226.416l10,2.159s2.75.611,4.736,7.515-2.72,15.362-2.72,15.362l-1.038-.883.52,20.161s-4.613,1.74-6.079.216-1.312-8.683-1.312-8.683-1.405-13.194-2.293-15.364-.432-17.808-.432-17.808S523.561,226.3,523,226.416Z" transform="translate(-498.941 -207.61)"/><path class="k" d="M564.884,285.611a57.207,57.207,0,0,0,.306,10.874,59.279,59.279,0,0,0,1.727,8.37l-.907-18.6S565.311,285.214,564.884,285.611Z" transform="translate(-531.681 -253.96)"/><path class="k" d="M559.7,261.6c.244.153,1.315,2.688.825,3.726S559.7,261.6,559.7,261.6Z" transform="translate(-527.719 -235.202)"/><path class="k" d="M482.118,150.431a5.518,5.518,0,0,0-2.2-2.3,5.226,5.226,0,0,1,1.647,1.943,1.535,1.535,0,0,1-.535,2.2,4.042,4.042,0,0,0-1.511,2.172,4.693,4.693,0,0,1-1.576,2.159c-.993.6-2.3.378-3.34.9a2.608,2.608,0,0,0-1.382,2.556,7.342,7.342,0,0,0,.3,1.168,8.351,8.351,0,0,1,.315,2.541.341.341,0,0,1-.035.162.309.309,0,0,1-.257.123,1.488,1.488,0,0,1-.753-.14,1.753,1.753,0,0,0,1.3.507.255.255,0,0,0,.289-.285,8.283,8.283,0,0,0-.313-2.541,7.094,7.094,0,0,1-.3-1.17,2.6,2.6,0,0,1,1.382-2.554c1.036-.522,2.347-.3,3.34-.9a4.588,4.588,0,0,0,1.574-2.159,4.065,4.065,0,0,1,1.511-2.172A1.537,1.537,0,0,0,482.118,150.431Z" transform="translate(-459.572 -146.228)"/></g><path class="k" d="M779.42,382.17l1.427,1.639a2.057,2.057,0,0,1-1.427-1.639Z" transform="translate(-629.212 -346.869)"/><path class="k" d="M736.99,360.8l2.221,2.854-1.11.266Z" transform="translate(-589.215 -325.765)"/><g transform="translate(94.354 0)"><path class="p" d="M648.021,195.567c-2.975-.058-5.6-2.159-7.087-4.726a4.749,4.749,0,0,1-.717-2.023,2.336,2.336,0,0,1,.082-.484,5.015,5.015,0,0,0,.216-.74,1.293,1.293,0,0,0,0-.3s0,0,0-.017a1.786,1.786,0,0,0-.648-1.453c-.4-.373-.9-.648-1.31-1.019a6.137,6.137,0,0,1-1.69-4.637v-.091c.015-.734.073-1.47.067-2.2a9.272,9.272,0,0,0-.054-1.248,4.124,4.124,0,0,0-1.334-2.759c-2.129-1.727-5.708.071-7.912-1.561-.535-.4-.969-.989-1.619-1.144a2.728,2.728,0,0,0-1.479.2c-1.623.535-3.435,1.239-4.069,2.806-.363.9-.261,1.928-.594,2.839a14.178,14.178,0,0,1-.928,1.714,2.683,2.683,0,0,0-.345,1.431,1.615,1.615,0,0,0,.106.762,1.943,1.943,0,0,0,.529.758,2.51,2.51,0,0,1-.315.505c-.414.507-1.051.864-1.483,1.369a3.234,3.234,0,0,0-.376,3.273c.393,1.088,1.1,2.079,1.593,3.139a1.685,1.685,0,0,1,.162,1.431,4.106,4.106,0,0,1-.717.833,2.618,2.618,0,0,0-.648,1.446c-4.859,1.11-4.864,5.015-4.864,5.015h0l-2.625,6.6s-.421,1.112-.915,2.58l-3.107-.557,2.159,3.614a11.409,11.409,0,0,0-.6,3.523s-.965,4.533.751,5.326l3.786,1.7a2.243,2.243,0,0,0,.525.235l.153.069a.406.406,0,0,0,.354,0h.052a.51.51,0,0,0,.216-.032.432.432,0,0,0,.19-.205.066.066,0,0,1,0-.022l1.133-.328.961,1.138c.432.3.864.568,1.272.805L615.4,237.9s-.24,19.645-.965,24.122a12.543,12.543,0,0,0-.168,3.558l-.028.047c.179,1.263.648,1.511.648,1.511v-.017a.143.143,0,0,0,.028.017,12.723,12.723,0,0,1,.777-1.667v.324c-.015,1.667-.067,4-.24,5.518-.294,2.591.751,11.128.751,11.128l.361,7.772A7.184,7.184,0,0,1,615.68,294a17.875,17.875,0,0,0-2.047,4.706.97.97,0,0,0,0,.158h0l-1.852,2.228s-.723,1.118.911,1.569a8.748,8.748,0,0,0,3.612-.287,2.413,2.413,0,0,0,1.872-2.349,8.31,8.31,0,0,1,1.528-2.934l.3,1.79,2.038.505.261-4.9a2.16,2.16,0,0,0,.14-.864h0c.4-3.489-.946-3.176-.946-3.176a.188.188,0,0,1,.065.121l-.065-.119h0a8.824,8.824,0,0,1-.432-4.318s1.079-7.772,1.449-9.825a71.232,71.232,0,0,0,.067-8.851,3.139,3.139,0,0,0-.011-.322c3.161-.041,7.033-.147,9.751-.41v.319l-.5,18.36a10.079,10.079,0,0,1-.7,3.415.186.186,0,0,1-.024.063,14.9,14.9,0,0,0-1,4.812l-.233,5.829v.162h0c-.406.155-1.047.607-1.064,1.915-.028,1.917,3.35,1.278,3.35,1.278,3.376,0,3.4-3.515,3.4-3.515s.106-3.223.268-5.38-.509-1.682-.509-1.682l-.052,6.135V293.1l.052-.779V292.3h0v-.166l.425-6.327s3.111-10.543,3.592-12.566c.343-1.438.2-5.768.089-8.162a1.9,1.9,0,0,0-.017-.317c.965-.086,1.818-.1,2.159-.1h.158s-.16-16.933-.563-23.315-1.045-12.221-2.653-13.978c-.971-1.062-2.325-4.341-3.238-6.77a33.864,33.864,0,0,0,5.952,1.943c5.093,1.066,4.4-3.355,4.4-3.355l-.516-8.361h.035a42.64,42.64,0,0,0-.561-6.537,19.234,19.234,0,0,0-1.313-4.749c.553-.216,1.1-.447,1.634-.684,1.384-.611,2.942-1.477,3.141-2.968h-.067a1.924,1.924,0,0,0,.052-.328Zm-31.568,12.089h0c.011.864-.022,2.362-.073,4.017l-1.617-2.159,1.621-2.629ZM638.119,212.041Zm.674,3.266-2.694-.864a12.1,12.1,0,0,1,1.664-2.059l.233-.216-.084.017.13-.119.078-.017-.123.119.147-.03a4.6,4.6,0,0,0,.917,1.846c.967,1.056-.266,1.323-.266,1.323Z" transform="translate(-605.94 -171.119)"/><path class="q" d="M641.168,715.66l-.315,5.975-2.01-.5-.423-2.485Z" transform="translate(-624.682 -593.758)"/><path class="k" d="M641.168,715.66l-.315,5.975-2.01-.5-.423-2.485Z" transform="translate(-624.682 -593.758)"/><path class="h" d="M716.48,628.674l3.065.635,2.273-2.008v-5.658l.052-.773v-.024h0v-.164l.423-6.289s3.068-10.468,3.545-12.478c.337-1.425.2-5.725.084-8.1-.045-.974-.084-1.626-.084-1.626l-6.768-1.638-.142,5.2-.494,18.229a10.1,10.1,0,0,1-.693,3.391l-.024.063a14.833,14.833,0,0,0-.982,4.775l-.229,5.8v.16Z" transform="translate(-692.617 -500.005)"/><path class="k" d="M741.45,730.134v.16h0v-.164Z" transform="translate(-712.197 -609.453)"/><path class="k" d="M716.48,760.415l3.065.635,2.273-2.008v-.481a.647.647,0,0,1-.326.518l-.032.019a6.109,6.109,0,0,1-3.441.68l-1.2-.1a1.121,1.121,0,0,0-.317.078v.16Z" transform="translate(-692.617 -631.746)"/><path class="j" d="M717.712,737.4l.032-.017a.647.647,0,0,0,.33-.561l.05-6.09s.661-.473.5,1.669-.263,5.341-.263,5.341-.026,3.489-3.357,3.489c0,0-3.331.635-3.305-1.269s1.375-1.982,1.375-1.982l1.2.1A6.094,6.094,0,0,0,717.712,737.4Z" transform="translate(-688.869 -609.888)"/><path class="h" d="M642.52,634.624c.078,1.375,4.123.581,4.123.581l2.722-5.285s2.273-1.746,1.136-3.279a2.434,2.434,0,0,1-.166-.261l-.011-.013h0c-.024-.039-.045-.08-.067-.123h0a8.7,8.7,0,0,1-.414-4.274s1.056-7.72,1.427-9.755a71.585,71.585,0,0,0,.067-8.793c-.034-1.1-.067-1.833-.067-1.833l-6.716-1.8v2c-.015,1.656-.067,3.972-.237,5.479-.289,2.562.74,11.049.74,11.049l.356,7.722a7.152,7.152,0,0,1-.864,3.758,18.066,18.066,0,0,0-2.018,4.674.941.941,0,0,0-.011.149Z" transform="translate(-634.623 -507.251)"/><path class="k" d="M642.513,731.2c.078,1.375,4.123.581,4.123.581l2.722-5.285s2.273-1.746,1.135-3.279a2.435,2.435,0,0,1-.166-.261,13.128,13.128,0,0,1-.915,2.806s-2.247,4.5-2.962,5.526-3.819-.192-3.936-.235a.951.951,0,0,0,0,.147Z" transform="translate(-634.617 -603.831)"/><path class="j" d="M642.964,722.274s1.33-.309.932,3.154h0a2.23,2.23,0,0,1-1.051,1.98,7.561,7.561,0,0,0-3.163,4.387h0a2.392,2.392,0,0,1-1.846,2.331,8.656,8.656,0,0,1-3.562.285c-1.613-.449-.9-1.559-.9-1.559l1.85-2.2s3.225,1.269,3.938.238,2.962-5.524,2.962-5.524S643.359,722.566,642.964,722.274Z" transform="translate(-627.331 -603.288)"/><path class="k" d="M727.963,593.52l-.142,5.2c1.8-.175,3.094-.419,3.314-.762.477-.738,2.208-1.049,3.681-1.177-.045-.974-.084-1.626-.084-1.626Z" transform="translate(-701.509 -502.334)"/><path class="k" d="M651.94,604.723a2.469,2.469,0,0,1,.74-.894c.712-.4.635,2.539.635,2.539s2.375.021,5.408-.017c-.035-1.1-.067-1.835-.067-1.835l-6.716-1.8S651.953,603.553,651.94,604.723Z" transform="translate(-642.009 -509.548)"/><path class="i" d="M645.849,437.185s.794-2.159,1.511-2.543.635,2.537.635,2.537,17.447.16,18.319-1.19,5.948-1.269,5.948-1.269-.158-16.812-.555-23.155-1.03-12.134-2.616-13.879c-1.025-1.129-2.485-4.782-3.387-7.217-.49-1.33-.816-2.3-.816-2.3l-16.653.95-.136,1.349-1.768,17.685s-.238,19.509-.952,23.949S645.849,437.185,645.849,437.185Z" transform="translate(-636.685 -341.314)"/><g class="r" transform="translate(8.484 46.856)"><path d="M678.838,435.989c.864-1.347,5.947-1.269,5.947-1.269s-.158-16.812-.555-23.155-1.03-12.134-2.616-13.879c-1.03-1.133-2.485-4.782-3.387-7.217-.412-1.118-.708-1.98-.79-2.226l1.3-.073s.326.969.818,2.3c.9,2.435,2.36,6.088,3.385,7.217,1.587,1.744,2.221,7.534,2.616,13.879s.557,23.155.557,23.155-5.075-.078-5.95,1.269c-.745,1.151-13.583,1.2-17.309,1.194C667.632,437.172,678.164,437.029,678.838,435.989Z" transform="translate(-659.048 -388.17)"/><path d="M646.076,603.305c.322-.179.481.317.561.92a12.457,12.457,0,0,0-.749,1.623s-.46-.248-.648-1.511A2.939,2.939,0,0,1,646.076,603.305Z" transform="translate(-645.24 -556.834)"/></g><path class="s" d="M660.167,191.075c-1.153,1.572.013,3.806-1.224,5.334-.408.505-1.036.864-1.462,1.36a3.23,3.23,0,0,0-.371,3.249c.386,1.079,1.079,2.064,1.572,3.117a1.667,1.667,0,0,1,.16,1.42,4.025,4.025,0,0,1-.708.827,2.982,2.982,0,0,0-.389,3.165,10.244,10.244,0,0,0,2.049,2.828,1.4,1.4,0,0,0,2.031.464,7.987,7.987,0,0,0,3.635-10.425c-.669-1.6-1.785-3.141-1.8-4.836,0-1.345.691-2.629.814-3.968.149-1.628-.814-4.212-2.778-4.922C661.829,189.735,660.752,190.268,660.167,191.075Z" transform="translate(-645.857 -184.897)"/><path class="t" d="M660.167,191.075c-1.153,1.572.013,3.806-1.224,5.334-.408.505-1.036.864-1.462,1.36a3.23,3.23,0,0,0-.371,3.249c.386,1.079,1.079,2.064,1.572,3.117a1.667,1.667,0,0,1,.16,1.42,4.025,4.025,0,0,1-.708.827,2.982,2.982,0,0,0-.389,3.165,10.244,10.244,0,0,0,2.049,2.828,1.4,1.4,0,0,0,2.031.464,7.987,7.987,0,0,0,3.635-10.425c-.669-1.6-1.785-3.141-1.8-4.836,0-1.345.691-2.629.814-3.968.149-1.628-.814-4.212-2.778-4.922C661.829,189.735,660.752,190.268,660.167,191.075Z" transform="translate(-645.857 -184.897)"/><path class="k" d="M685.5,464.55a15.331,15.331,0,0,0-6.5,2.236,44.537,44.537,0,0,1-6.15,3.191" transform="translate(-658.406 -401.205)"/><path class="k" d="M685.463,489.74a9.514,9.514,0,0,0-5.991,2.914c-.561.594-1.045,1.259-1.63,1.828a7.24,7.24,0,0,1-3.212,1.82" transform="translate(-659.802 -420.957)"/><path class="k" d="M679.553,508.91a10.473,10.473,0,0,0-4.818,2.906c-.354.382-.676.79-1.03,1.172-1.911,2.051-4.609,3.139-7.215,4.169" transform="translate(-653.419 -435.989)"/><path class="h" d="M692.82,242.655a47.373,47.373,0,0,0,.475,5.509,7.211,7.211,0,0,0,.952,2.977c1.269,1.511-6.185,3.53-6.185,3.53l-4.4-3.411s3.489-3.212,1.863-6.345S692.82,242.655,692.82,242.655Z" transform="translate(-666.883 -227.125)"/><path class="k" d="M658.79,390.469h17.6c-.49-1.33-.816-2.3-.816-2.3l-16.653.95Z" transform="translate(-647.382 -341.314)"/><path class="u" d="M641.057,299.248h18.822a6.531,6.531,0,0,1,.753-4.991A11.032,11.032,0,0,1,662.6,291.7l.129-.119,6.571-1.455.354-.078s.054-11.949-4.177-13.589a24.735,24.735,0,0,1-6.768-3.858l-5.814,1.8-4.283-2.159c-1.375,1.479-5.023.9-5.023.9-5.973.686-5.973,5.181-5.973,5.181s3.489,8.141,3.754,8.141S641.057,299.248,641.057,299.248Z" transform="translate(-630.781 -250.41)"/><path class="k" d="M664.954,353.668s-3.838-.851-5.144-2.338" transform="translate(-648.181 -312.427)"/><path class="k" d="M757.122,341.51l-4.451,3.648a7.557,7.557,0,0,0,.147.863l.13-.119,6.571-1.455Z" transform="translate(-720.995 -304.726)"/><path class="k" d="M717.46,372.651s.974.548,2.465,1.269h2.558a6.531,6.531,0,0,1,.753-4.991l-4.51-1.459C720.262,368.9,717.46,372.651,717.46,372.651Z" transform="translate(-693.386 -325.083)"/><path class="u" d="M621.05,293.76l-2.642,1.427-2.591,6.556s-2.7,7.189-2.433,9.093c0,0-.95,4.495.74,5.287l4.4,1.995a.41.41,0,0,0,.529-.566c-.628-1.189-1.319-3.05-.216-4.074l-1.269-2.642,4.587-7.508,1.533-2.591Z" transform="translate(-611.569 -267.284)"/><path class="k" d="M676.965,348.594c.229.933,1,2.375,3.56,2.912l2.807,2.3,2.986,1.354,1.218.55.516-3.728-1.172-.648-1.367-.747s-3.083-5.585-7.964-3.238a1.079,1.079,0,0,0-.583,1.246Z" transform="translate(-661.605 -308.854)"/><path class="h" d="M677.721,347.17c.229.935,1,2.375,3.558,2.912l2.806,2.3,2.988,1.354,1.215.551.516-3.728-1.172-.648-1.356-.74s-3.085-5.585-7.966-3.227A1.08,1.08,0,0,0,677.721,347.17Z" transform="translate(-662.202 -307.746)"/><circle class="k" cx="6.82" cy="6.82" r="6.82" transform="translate(14.2 6.727)"/><circle class="h" cx="6.82" cy="6.82" r="6.82" transform="translate(14.2 6.569)"/><path class="k" d="M715.431,275.333l-2.051-3.985s3-1.213,3.219-2.619,2.875,1.647,2.3,2.66A37.74,37.74,0,0,1,715.431,275.333Z" transform="translate(-690.187 -247.373)"/><path class="u" d="M715.431,273.864l-2.051-3.985s3-1.213,3.219-2.619,2.875,1.649,2.3,2.66A37.973,37.973,0,0,1,715.431,273.864Z" transform="translate(-690.187 -246.221)"/><path class="v" d="M615.427,341.481l11.331,15.234s-4.177,2.273-9.93-1.8l-2.485-2.962L607.25,340Z" transform="translate(-606.968 -303.543)"/><path class="h" d="M633.836,370.974l1.032-.028s6.3-6.118,7.851-3.022-3.927,5.988-3.927,5.988l-1.664.9-2.17.648-1.388-1.863Z" transform="translate(-627.606 -324.753)"/><path class="k" d="M630.173,386.178a1.54,1.54,0,0,1,.026,1.066.431.431,0,0,1-.188.205.481.481,0,0,1-.216.03,2.169,2.169,0,0,1-1.423-.7,6.5,6.5,0,0,1-.922-1.334,2.461,2.461,0,0,1-.473-1.589,2.318,2.318,0,0,1,1.172-1.369c1.045-.691,1.079.114,1.308,1S629.933,385.28,630.173,386.178Z" transform="translate(-622.421 -336.652)"/><path class="u" d="M629.44,386.178a1.552,1.552,0,0,1,.026,1.066.431.431,0,0,1-.188.205.486.486,0,0,1-.216.03,2.159,2.159,0,0,1-1.423-.7,6.427,6.427,0,0,1-.924-1.334,2.447,2.447,0,0,1-.471-1.589,2.314,2.314,0,0,1,1.17-1.369c1.047-.691,1.079.114,1.31,1S629.2,385.28,629.44,386.178Z" transform="translate(-621.845 -336.652)"/><path class="k" d="M623.85,314.7l.527-.892-.46,1.656Z" transform="translate(-613.258 -278.66)"/><path class="k" d="M721.19,370.255l1.215.551.516-3.728-1.172-.648C722.559,367.358,721.851,369.075,721.19,370.255Z" transform="translate(-696.31 -324.268)"/><path class="k" d="M723.481,361.081s-3.925.24-5.591-.831" transform="translate(-693.723 -319.421)"/><g class="r" transform="translate(12.562 22.141)"><path d="M735.179,297.045a11.054,11.054,0,0,1,1.971-2.558,5.261,5.261,0,0,1,.581-.315l6.118-1.256.354-.078s.054-11.949-4.175-13.589a25.413,25.413,0,0,1-6.6-3.715l.464-.143a24.672,24.672,0,0,0,6.768,3.858c4.231,1.639,4.175,13.589,4.175,13.589H744.2l-6.26,1.2s-.27.261-.352.337a12.135,12.135,0,0,0-2,2.647,6.636,6.636,0,0,0-.525,5.017h-.648A6.6,6.6,0,0,1,735.179,297.045Z" transform="translate(-718.47 -275.021)"/><path d="M664.13,277.851c.1-.015.2-.03.3-.041a10.946,10.946,0,0,0,1.3.106,11.776,11.776,0,0,1-1.6-.065Z" transform="translate(-664.13 -276.918)"/><path d="M691.633,275.845l-3.873-1.96a2.051,2.051,0,0,0,.216-.205l4.041,2.044Z" transform="translate(-682.659 -273.68)"/></g><path class="u" d="M730.238,340l2.591,3.173.529,8.618s.686,4.387-4.335,3.329a46.3,46.3,0,0,1-10.833-4.326s2.806-3.754,1.269-5.181l7.191,2.327s1.215-.266.263-1.321a5.948,5.948,0,0,1-1.12-2.962Z" transform="translate(-693.958 -303.543)"/><path class="k" d="M665.172,184.447a2.278,2.278,0,0,1,.237-1.859,14.676,14.676,0,0,0,.917-1.7c.326-.9.227-1.923.583-2.806.628-1.565,2.413-2.265,4.013-2.806a2.7,2.7,0,0,1,1.459-.2c.648.153,1.069.74,1.6,1.136,2.172,1.619,5.7-.164,7.8,1.55A4.085,4.085,0,0,1,683.1,180.5a24.176,24.176,0,0,1-.013,3.113c-.035,1.818.307,3.806,1.667,5.01.41.363.894.635,1.3,1.01a1.769,1.769,0,0,1,.648,1.444,5,5,0,0,1-.216.734,3.758,3.758,0,0,0,.626,2.806c1.468,2.541,4.056,4.635,6.99,4.693-.2,1.481-1.727,2.34-3.1,2.947a12.167,12.167,0,0,1-5.468,1.438c-1.9-.1-3.886-1.315-4.218-3.188-.114-.648-.1-1.427-.648-1.764-.337-.205-.773-.153-1.136-.307a2,2,0,0,1-.956-1.347,12.123,12.123,0,0,1-.563-3.454c-.024-1.39.16-2.908-.628-4.052-.73-1.06-2.025-1.6-2.867-2.571-.777-.9-1.621-1.99-2.895-2.159C669.857,184.6,666.213,187,665.172,184.447Z" transform="translate(-652.298 -174.188)"/><path class="n" d="M665.172,182.977a2.278,2.278,0,0,1,.237-1.859,14.674,14.674,0,0,0,.917-1.7c.326-.9.227-1.923.583-2.806.628-1.567,2.413-2.267,4.013-2.806a2.7,2.7,0,0,1,1.459-.2c.648.153,1.069.74,1.6,1.136,2.172,1.619,5.7-.164,7.8,1.55a4.085,4.085,0,0,1,1.315,2.739,24.14,24.14,0,0,1-.013,3.111c-.035,1.818.307,3.806,1.667,5.011.41.363.894.635,1.3,1.01a1.769,1.769,0,0,1,.648,1.444,5,5,0,0,1-.216.734,3.758,3.758,0,0,0,.626,2.806c1.472,2.532,4.05,4.633,6.984,4.691-.2,1.481-1.727,2.34-3.1,2.949a12.192,12.192,0,0,1-5.468,1.436c-1.9-.1-3.886-1.315-4.218-3.188-.115-.648-.1-1.427-.648-1.764-.337-.205-.773-.153-1.136-.307a2,2,0,0,1-.956-1.347A12.112,12.112,0,0,1,678,192.16c-.024-1.39.16-2.908-.628-4.052-.73-1.06-2.025-1.6-2.867-2.571-.777-.9-1.621-1.99-2.9-2.159C669.857,183.132,666.213,185.531,665.172,182.977Z" transform="translate(-652.298 -173.036)"/><path class="k" d="M683.113,275.558l3.91-3.173s-2.677-1.451-3-2.688-2.461.587-2.243,1.7S683.113,275.558,683.113,275.558Z" transform="translate(-665.399 -248.092)"/><path class="u" d="M683.871,273.355l3.909-3.171s-2.677-1.451-2.983-2.688-2.461.587-2.243,1.7S683.871,273.355,683.871,273.355Z" transform="translate(-666.003 -246.366)"/><circle class="k" cx="0.311" cy="0.311" r="0.311" transform="translate(21.62 26.161)"/><circle class="k" cx="0.311" cy="0.311" r="0.311" transform="translate(21.62 27.889)"/><circle class="k" cx="0.311" cy="0.311" r="0.311" transform="translate(21.62 29.614)"/><g class="r" transform="translate(12.811 2.877)"><path d="M671.416,187.105c.309-.848.242-1.8.531-2.655a2.9,2.9,0,0,0-.33.609c-.358.892-.257,1.913-.585,2.806l-.022.052A4.929,4.929,0,0,0,671.416,187.105Z" transform="translate(-669.775 -184.45)"/><path d="M691.593,225.733a12.192,12.192,0,0,1-5.468,1.436c-1.9-.1-3.886-1.315-4.218-3.186-.114-.648-.1-1.429-.648-1.766-.337-.205-.773-.153-1.135-.307a2,2,0,0,1-.956-1.347,12.114,12.114,0,0,1-.563-3.454c-.024-1.388.162-2.906-.626-4.052-.732-1.06-2.027-1.6-2.869-2.571-.777-.9-1.621-1.99-2.895-2.159-1.746-.237-5.4,2.159-6.429-.393a2.008,2.008,0,0,1,.067-1.474c-.076.127-.149.255-.216.384a2.287,2.287,0,0,0-.235,1.861c1.038,2.547,4.682.153,6.429.393,1.274.173,2.118,1.263,2.895,2.159.842.976,2.137,1.511,2.867,2.573.79,1.144.6,2.662.628,4.05a12.1,12.1,0,0,0,.564,3.454,2,2,0,0,0,.956,1.347c.363.153.8.1,1.135.307.557.337.542,1.125.648,1.766.337,1.872,2.319,3.089,4.218,3.186a12.208,12.208,0,0,0,5.468-1.436c1.252-.557,2.647-1.328,3.022-2.591A6.54,6.54,0,0,1,691.593,225.733Z" transform="translate(-665.288 -201.709)"/></g></g><g transform="translate(180.471 5.006)"><path class="w" d="M813.587,264.09a50.776,50.776,0,0,0-6.306-3.277l-.095-.067a3.8,3.8,0,0,1-1.151-1.455,3.009,3.009,0,0,1,0-.313.132.132,0,0,0,0,.03,6.89,6.89,0,0,1,2-3.765l2.4-2.826a2.785,2.785,0,0,0,.62-.98,2.262,2.262,0,0,0,.065-.6v-.246c-.013-.7-.032-1.405-.058-2.107-.022-.613-.179-1.386-.792-1.511-.319-.065-.743.05-.911-.216a.525.525,0,0,1-.041-.365.132.132,0,0,0,0,.03v-.035a8.136,8.136,0,0,0,.227-1.444,1.971,1.971,0,0,0-.1-.732c-.354-1.017-1.578-1.436-2.66-1.628s-2.295-.356-2.973-1.2a8.8,8.8,0,0,0-.591-.814,2.335,2.335,0,0,0-1.105-.546,6.26,6.26,0,0,0-4.022.35,3.61,3.61,0,0,1-1.621.514c-.574-.035-1.105-.449-1.693-.548a2.415,2.415,0,0,0-2.327,1.362,3.332,3.332,0,0,0-.432,1.606v.095h0a2.349,2.349,0,0,0,.617,1.641c.41.432,1.019.717,1.19,1.276.069.227.052.473.114.7a.643.643,0,0,0,.026.084l-.03.041a7.124,7.124,0,0,0-1.511,4.391,7.288,7.288,0,0,0,5.121,6.908v.216a3.106,3.106,0,0,1-.993,2.418l-6.474,2.586s-3.9-.464-5.311,5.239a9.725,9.725,0,0,0-.242,2.893,8.386,8.386,0,0,1-1.079,4.333c-1.6,3.135-1.235,10.33,2.038,11.042,3.089.673,4.3.393,4.425.36v.125c-.052,1.351-.542,13-2.323,14.4-.492.391-.4.648,0,.831,0,0,0,.076-.011.216-.054.863-.328,4.1-1.511,5.941-1.384,2.137-1.239,14.464-1.239,14.464l-.943,7.266s.581,4.488,0,5.272c-.52.7-1.211,17.3-1.356,20.9h-.06a1.753,1.753,0,0,0-1.4.864,24.388,24.388,0,0,1-3.441,3.536c-.581.825-2.729,1.615-3.864,1.986a2.4,2.4,0,0,0-.432.19,2.3,2.3,0,0,0-.976,1.028,1.1,1.1,0,0,0-.1.863c.289.71,6.327,1.211,7.856.5,1.2-.559,5.958-1.3,7.934-1.585a1.628,1.628,0,0,0,1.412-1.412.931.931,0,0,0-.181-.706h0a6.259,6.259,0,0,1-.648-2.591,1.752,1.752,0,0,0,.445-.263,18.965,18.965,0,0,1,1.079-7.623c1.455-3.847,1.891-10.971,1.528-15.6,0,0,4.436-19.092,7.929-20.873h0c.054.069,1.749,2.243,1.964,8.976a27.2,27.2,0,0,0,2.69,11.327s-1.092,11.612,0,15.958l-1.427,6.854c-.106-.089-.173-.158-.173-.158s.043.19.1.494l-.03.147.063.013a13.49,13.49,0,0,1,.3,3.238c-.056.5-.2,1.183-.291,1.854-.151,1.056-.192,2.079.363,2.3.911.367,6.26.863,7.167-.311a1.682,1.682,0,0,0,.263-1.759,1.781,1.781,0,0,0-.263-.449s-1.421-2.321-1.019-3.957a1.2,1.2,0,0,0-.171-.939,48.257,48.257,0,0,1,1.224-7.677c.911-3.428,2.83-10.945,1.418-15.886h0q-.08-.291-.181-.57a21.335,21.335,0,0,1-.8-8.335,16.985,16.985,0,0,1,0-7.266c.874-3.989,1.485-7.908,1.485-7.908a49.983,49.983,0,0,0,.06-8.5,2.144,2.144,0,0,0-.028-.216l.229-.052s-1.237-5.485-1.673-8.976c-.1-.825-.238-1.867-.384-2.981a7.615,7.615,0,0,0,1.185-.3c3.927-1.354,5.164-13.6,5.164-13.6V272.7S818.17,266.726,813.587,264.09ZM784.323,358.7c-.121-.06-.192-.1-.192-.1h0Z" transform="translate(-772.213 -239.838)"/><path class="x" d="M849.707,553.254c1.7,4.9-.285,12.849-1.209,16.407a49.6,49.6,0,0,0-1.207,7.81,16.447,16.447,0,0,1-6.247-.142l1.492-7.312c-1.066-4.331,0-15.9,0-15.9a27.591,27.591,0,0,1-2.627-11.288c-.216-6.707-1.863-8.877-1.915-8.944h0c-3.407,1.774-7.737,20.8-7.737,20.8.354,4.613-.073,11.713-1.492,15.543a19.213,19.213,0,0,0-1.064,7.595,2.31,2.31,0,0,1-1.943.371,13.26,13.26,0,0,1-4.458-2.075s.779-20.724,1.349-21.51,0-5.254,0-5.254l.922-7.24s-.143-12.283,1.207-14.412c1.166-1.839,1.433-5.073,1.485-5.922v-.216l2.055-2.461s19.878-1.492,21.372,0a4.259,4.259,0,0,1,.725,2.245,50.871,50.871,0,0,1-.06,8.473s-.6,3.905-1.449,7.88a17.3,17.3,0,0,0,0,7.243A21.681,21.681,0,0,0,849.707,553.254Z" transform="translate(-810.703 -458.296)"/><path class="q" d="M919.905,792.023c-.887,1.172-6.105.676-6.995.311-.542-.216-.5-1.246-.354-2.3.093-.667.229-1.349.285-1.846a17,17,0,0,0-.432-3.871s1.17,1.243,1.453,0a1.354,1.354,0,0,1,1.015-.963,2.651,2.651,0,0,1,1.844.114c.922.4,2.459,1.254,2.185,2.407-.391,1.63.993,3.944.993,3.944a1.794,1.794,0,0,1,.259.445A1.7,1.7,0,0,1,919.905,792.023Z" transform="translate(-882.146 -665.935)"/><path class="k" d="M846.439,605.753c.354,4.613-.073,11.713-1.492,15.543a19.214,19.214,0,0,0-1.064,7.595,2.309,2.309,0,0,1-1.943.371c.432-2.994,2.254-15.895,3.422-26.089a42.692,42.692,0,0,1,7.556-19.593l1.241,1.367C850.77,586.725,846.439,605.753,846.439,605.753Z" transform="translate(-826.888 -509.375)"/><path class="h" d="M884.707,309.709l-.864,4.259L879.6,321.1l-5.235-2.236s-7.124-7.454-2.644-8.518a3.963,3.963,0,0,0,1.485-.661,3.071,3.071,0,0,0,1.159-2.569,7.878,7.878,0,0,0-.721-3.052l9.157-2.876a14.7,14.7,0,0,0-.647,3.709c-.071,2.5.863,3.724,1.617,4.318A2.75,2.75,0,0,0,884.707,309.709Z" transform="translate(-849.078 -287.945)"/><path class="k" d="M895.149,301.19a14.7,14.7,0,0,0-.648,3.709,7.01,7.01,0,0,1-.533.568,7.245,7.245,0,0,1-7.241,1.651,7.873,7.873,0,0,0-.727-3.052Z" transform="translate(-861.436 -287.945)"/><path class="h" d="M880.635,269.46a7.208,7.208,0,1,1-2.112-5.13A7.242,7.242,0,0,1,880.635,269.46Z" transform="translate(-845.871 -257.387)"/><path class="k" d="M884.707,338.839l-.864,4.259-4.246,7.135L874.362,348s-7.124-7.454-2.644-8.518a3.963,3.963,0,0,0,1.485-.661c-.807,2.219,2.526,6.837,2.526,6.837.389.572,1.278.216,1.278.216,2.148-.326,6.1-6.5,6.746-7.53A2.749,2.749,0,0,0,884.707,338.839Z" transform="translate(-849.078 -317.076)"/><path class="k" d="M868.491,521.336c-1.261.287-8.236,1.831-10.88,1.444-2.91-.432-8.568-.708-8.568-.708s-3.6.194-4.713-.313v-.216l2.055-2.461s19.878-1.492,21.372,0A4.239,4.239,0,0,1,868.491,521.336Z" transform="translate(-828.761 -458.279)"/><path class="y" d="M837.474,346.111s-3.745-5.181-2.334-7.21l-6.327,2.591s-3.808-.462-5.181,5.222a9.889,9.889,0,0,0-.235,2.884,8.533,8.533,0,0,1-1.043,4.318c-1.561,3.124-1.207,10.3,1.988,11.01s4.328.354,4.328.354-.432,12.991-2.271,14.483,4.706,1.136,4.706,1.136,5.658.285,8.57.71,11.074-1.492,11.074-1.492-1.207-5.466-1.634-8.944-1.423-10.887-1.423-10.887l7.24-9.809s1.278-5.928-3.195-8.555a50.557,50.557,0,0,0-6.155-3.271s-4.495,7.318-6.837,7.672C838.752,346.322,837.862,346.681,837.474,346.111Z" transform="translate(-810.825 -317.318)"/><path class="k" d="M852.8,382.74a10.675,10.675,0,0,0,.356,3.266c.425.922,1.988,6.045,1.988,6.045H851.59s1.917-2.059,1.777-3.055S852.8,382.74,852.8,382.74Z" transform="translate(-834.455 -351.89)"/><path class="h" d="M864.764,428.49s-7.841-1.917-8.57-3.549-2.744-5.287-2.744-5.287l.827-1.114,3.813,2.992s4.533,3.62,6.675,3.976S864.764,428.49,864.764,428.49Z" transform="translate(-835.914 -379.961)"/><path class="z" d="M864.764,428.49s-7.841-1.917-8.57-3.549-2.744-5.287-2.744-5.287l.827-1.114,3.813,2.992s4.533,3.62,6.675,3.976S864.764,428.49,864.764,428.49Z" transform="translate(-835.914 -379.961)"/><path class="h" d="M885.814,421.708v4.253h-.682a19.879,19.879,0,0,0-9.657,2.5l-1.279.708-.343.192-2.2-4.965,2.06-1.846h.106a12.314,12.314,0,0,0,3.605-.08,5.86,5.86,0,0,1,4.546-.583c1.272.326,2.36,1.751,3.592,1.306Z" transform="translate(-850.184 -382.41)"/><path class="k" d="M912.849,368.472l1.418,1.6v3.871s-1.207,12.21-5.039,13.559-10.677-.781-10.677-.781-1.768-4.685-.941-4.965,7.307-1.995,7.307-1.995-.091-7.163,1.328-9.294c0,0-.922-6.673,2.273-6.815S912.849,368.472,912.849,368.472Z" transform="translate(-870.367 -336.918)"/><path class="y" d="M913.853,368.472l1.42,1.6v3.871s-1.207,12.21-5.041,13.559-10.677-.781-10.677-.781-1.768-4.685-.939-4.965,7.307-1.995,7.307-1.995-.093-7.163,1.328-9.294c0,0-.924-6.673,2.271-6.815S913.853,368.472,913.853,368.472Z" transform="translate(-871.157 -336.918)"/><path class="k" d="M884.028,272.441a2.852,2.852,0,0,0-.162-1.384,1.054,1.054,0,0,0-1.127-.648c-.607.142-.864.933-1.464,1.123a1.17,1.17,0,0,1-1.3-.665,3.312,3.312,0,0,1-.246-1.546v-1.779a2.943,2.943,0,0,0-.419-1.85,3.266,3.266,0,0,0-2.435-.881,2.066,2.066,0,0,0-1.39.559,1.789,1.789,0,0,1-1.461.52,1.258,1.258,0,0,1-1.019-.881v-.022a7.241,7.241,0,1,1,10.764,9.611A19.563,19.563,0,0,0,884.028,272.441Z" transform="translate(-851.251 -257.294)"/><path class="aa" d="M867.211,249.724a1.269,1.269,0,0,1-1.021-.883c-.058-.229-.043-.473-.11-.7-.166-.559-.762-.848-1.161-1.274a2.853,2.853,0,0,1-.181-3.264,2.359,2.359,0,0,1,2.271-1.356c.574.1,1.079.507,1.654.546a3.337,3.337,0,0,0,1.582-.512,5.963,5.963,0,0,1,3.933-.35,2.267,2.267,0,0,1,1.079.546,9.458,9.458,0,0,1,.576.81,4.5,4.5,0,0,0,2.9,1.2c1.056.19,2.249.609,2.591,1.623a4.243,4.243,0,0,1-.125,2.1.634.634,0,0,0,.028.432c.166.272.578.158.889.216.6.127.751.9.775,1.511q.037,1.049.056,2.1a2.674,2.674,0,0,1-.063.777,2.743,2.743,0,0,1-.6.978l-2.344,2.817c-1.04,1.248-2.144,2.7-1.943,4.318a1,1,0,0,1-1.239-.721,3.224,3.224,0,0,1,.078-1.6,19.614,19.614,0,0,0,.376-2.774,2.844,2.844,0,0,0-.162-1.382,1.054,1.054,0,0,0-1.127-.648c-.609.143-.863.933-1.464,1.123a1.17,1.17,0,0,1-1.3-.665,3.3,3.3,0,0,1-.246-1.544v-1.781a2.944,2.944,0,0,0-.419-1.85,3.266,3.266,0,0,0-2.435-.881,2.066,2.066,0,0,0-1.388.559A1.793,1.793,0,0,1,867.211,249.724Z" transform="translate(-844.433 -241.337)"/><path class="k" d="M885.3,381.92l2.224,9.134S889.277,391.043,885.3,381.92Z" transform="translate(-860.887 -351.247)"/><path class="k" d="M913.089,374.85s-2.91,4.767-1.775,9.7l.542.039S910.89,382.3,913.089,374.85Z" transform="translate(-881.08 -345.704)"/><path class="k" d="M929,498.9s3.575-1.183,3.834,1.561C932.843,500.46,932.169,498.579,929,498.9Z" transform="translate(-895.153 -442.773)"/><path class="k" d="M858.991,426.81s-.71,4.965.568,6.958a15.57,15.57,0,0,1-6.247.853l-.432-7.81Z" transform="translate(-835.466 -386.446)"/><path class="k" d="M874.2,432.409l-.343.192-2.2-4.965,2.06-1.846h.106C873.783,426.036,873.209,430.3,874.2,432.409Z" transform="translate(-850.184 -385.647)"/><path class="y" d="M851.535,425.83s-.71,4.965.568,6.956a15.524,15.524,0,0,1-6.247.853l-2.485-7.808Z" transform="translate(-828.009 -385.678)"/><path class="q" d="M791.6,788.341a1.608,1.608,0,0,1-1.379,1.408c-1.928.287-6.571,1.021-7.743,1.58-1.492.71-7.383.216-7.668-.5a1.127,1.127,0,0,1,.1-.864,2.275,2.275,0,0,1,.952-1.023,2.517,2.517,0,0,1,.432-.19c1.11-.369,3.206-1.155,3.771-1.98a24.046,24.046,0,0,0,3.359-3.521,1.705,1.705,0,0,1,1.364-.85c.622-.028,1.315.285,1.6,1.647,0,0,3.4,1.943,4.318.24,0,0,.143,2.616.708,3.333h0a.95.95,0,0,1,.186.717Z" transform="translate(-774.216 -665.275)"/><path class="k" d="M791.6,807.307a1.608,1.608,0,0,1-1.379,1.407c-1.928.287-6.571,1.021-7.743,1.58-1.492.71-7.383.216-7.668-.5a1.127,1.127,0,0,1,.1-.863,2.275,2.275,0,0,1,.952-1.023c.961.648,3.093,1.261,7.784.529a34.366,34.366,0,0,0,7.772-1.85h0a.95.95,0,0,1,.181.717Z" transform="translate(-774.216 -684.241)"/><g class="r" transform="translate(19.876 3.77)"><path d="M942.408,266.167v-.035a6.354,6.354,0,0,0,.216-1.613,10.654,10.654,0,0,1-.216,1.3A.785.785,0,0,0,942.408,266.167Z" transform="translate(-925.527 -262.961)"/><path d="M877.023,267.151a2.053,2.053,0,0,1,.175.812,2.446,2.446,0,0,0-.175-1.131,1.049,1.049,0,0,0-1.125-.648c-.609.142-.864.933-1.466,1.123a1.172,1.172,0,0,1-1.3-.665,3.284,3.284,0,0,1-.246-1.546v-1.779a2.944,2.944,0,0,0-.419-1.85,3.271,3.271,0,0,0-2.435-.883,2.068,2.068,0,0,0-1.39.561,1.794,1.794,0,0,1-1.464.52,1.265,1.265,0,0,1-1.019-.881c-.058-.229-.043-.475-.11-.7-.166-.557-.762-.848-1.161-1.272a2.325,2.325,0,0,1-.6-1.511,2.42,2.42,0,0,0,.6,1.82c.4.432,1,.715,1.161,1.272.067.216.052.473.11.7a1.265,1.265,0,0,0,1.019.881,1.794,1.794,0,0,0,1.464-.52,2.068,2.068,0,0,1,1.39-.561,3.265,3.265,0,0,1,2.435.883,2.962,2.962,0,0,1,.419,1.85V265.4a3.267,3.267,0,0,0,.246,1.544,1.175,1.175,0,0,0,1.3.667c.6-.19.864-.98,1.466-1.123A1.09,1.09,0,0,1,877.023,267.151Z" transform="translate(-864.285 -257.3)"/><path d="M932.534,292.21a2.725,2.725,0,0,1-.6.976L929.585,296c-.987,1.185-2.029,2.558-1.943,4.071a6.984,6.984,0,0,1,1.943-3.752l2.344-2.817a2.725,2.725,0,0,0,.6-.976,2.691,2.691,0,0,0,.063-.779A2.048,2.048,0,0,1,932.534,292.21Z" transform="translate(-913.961 -284.313)"/><path d="M921.717,326.73a1.653,1.653,0,0,1-.071-.38,1.913,1.913,0,0,0,.071.7,1,1,0,0,0,1.239.719,3.064,3.064,0,0,1-.026-.311A1,1,0,0,1,921.717,326.73Z" transform="translate(-909.258 -311.444)"/></g><path class="k" d="M812.69,789.36s.743,1.3,3.432.156" transform="translate(-803.952 -670.731)"/><path class="k" d="M918,790.82s2.319,2.731,5.242.9" transform="translate(-886.528 -671.875)"/><path class="k" d="M943.113,641.23s-1.639,1.023-1.69,1.608.846-.432.846-.432Z" transform="translate(-904.893 -554.579)"/><path class="k" d="M941.575,677.59a3.426,3.426,0,0,1-2.018.788c-1.226.054-1.123,1.651-.322,1.172A20.081,20.081,0,0,0,941.575,677.59Z" transform="translate(-902.707 -583.089)"/><path class="k" d="M948.525,682.34s-.786,3.862-1.425,3.117" transform="translate(-909.347 -586.814)"/></g></g></g></g></svg>