<svg xmlns="http://www.w3.org/2000/svg" xmlns:xlink="http://www.w3.org/1999/xlink" width="880" height="364" viewBox="0 0 880 364"><defs><style>.a{fill:#fff;}.b{clip-path:url(#a);}.c{fill:#f2f2f2;}.d{fill:#9abcfe;}.e{fill:#b8d1ff;}.f{fill:#eaf0fb;}.g{fill:url(#b);}.h{fill:#fbbebe;}.i{fill:#444053;}.j{fill:#b07473;}.k,.r,.t{opacity:0.1;}.l{fill:#6c63ff;}.m{fill:#67647e;}.n,.t{fill:#474463;}.o{fill:#e1e7ef;}.p{fill:url(#c);}.q{fill:#a27772;}.s{fill:#585268;}.u{fill:url(#d);}.v{fill:#f6f8fb;}.w{fill:url(#j);}.x{fill:#65617d;}.y{fill:url(#k);}.z{opacity:0.05;}.aa{fill:#7c5c5c;}</style><clipPath id="a"><rect class="a" width="880" height="364" transform="translate(282 2968)"/></clipPath><linearGradient id="b" x1="0.5" y1="1" x2="0.5" gradientUnits="objectBoundingBox"><stop offset="0" stop-color="gray" stop-opacity="0.251"/><stop offset="0.54" stop-color="gray" stop-opacity="0.122"/><stop offset="1" stop-color="gray" stop-opacity="0.102"/></linearGradient><linearGradient id="c" x1="0.5" x2="0.5" y2="0" xlink:href="#b"/><linearGradient id="d" x1="0.5" x2="0.5" y2="1" gradientUnits="objectBoundingBox"><stop offset="0" stop-color="#ffa330"/><stop offset="0.274" stop-color="#ff9346"/><stop offset="0.539" stop-color="#ff8559"/><stop offset="0.766" stop-color="#fb7a6a"/><stop offset="1" stop-color="#f07379"/></linearGradient><linearGradient id="j" x1="0.5" x2="0.5" y2="0" xlink:href="#b"/><linearGradient id="k" x1="0.5" x2="0.5" y2="1" gradientUnits="objectBoundingBox"><stop offset="0" stop-color="#5690ff"/><stop offset="1" stop-color="#766de8"/></linearGradient></defs><g class="b" transform="translate(-282 -2968)"><g transform="translate(282 2968)"><path class="c" d="M105.422,616.9a14.4,14.4,0,1,1,28.808,0" transform="translate(-80.819 -285.053)"/><path class="d" d="M122.513,618.06a.389.389,0,0,1-.389-.389V610.08a.389.389,0,1,1,.779,0v7.591a.389.389,0,0,1-.389.389Z" transform="translate(-83.506 -286.209)"/><path class="d" d="M121.617,615.639a.388.388,0,0,1-.253-.094l-4.671-4.009a.389.389,0,0,1,.507-.591l4.672,4.01a.389.389,0,0,1-.254.685Z" transform="translate(-82.61 -286.396)"/><path class="c" d="M158.31,616.9a14.4,14.4,0,1,1,28.808,0" transform="translate(-89.328 -285.053)"/><path class="d" d="M175.4,618.06a.389.389,0,0,1-.389-.389V610.08a.389.389,0,1,1,.779,0v7.591a.389.389,0,0,1-.389.389Z" transform="translate(-92.015 -286.209)"/><path class="d" d="M174.5,615.639a.388.388,0,0,1-.253-.094l-4.672-4.009a.389.389,0,0,1,.507-.591l4.672,4.01a.389.389,0,0,1-.254.685Z" transform="translate(-91.119 -286.396)"/><circle class="e" cx="27.691" cy="27.691" r="27.691" transform="translate(630.848 1.098)"/><path class="f" d="M169.1,339.958c6.6-20.616,22.723-36.6,41.842-46.114,22.684-11.283,48.75-12.56,73.381-8.169,26.588,4.74,51.438,15.668,75.492,27.594,23.593,11.7,46.806,24.049,71.343,33.716a461.831,461.831,0,0,0,153.515,31.8c47.352,1.58,97.982-3.609,138.526-30.224,37.15-24.386,60.789-64.617,73.1-106.553q2.364-8.053,4.2-16.245c.358-1.577-2.069-2.251-2.427-.669-9.932,43.792-31.109,87.073-67.3,114.988-39.138,30.192-90.5,37.171-138.57,36.373A459.6,459.6,0,0,1,436.7,346.444c-25.168-9.581-48.917-22.023-72.97-34.035-23.524-11.748-47.709-22.745-73.577-28.163-23.621-4.947-48.91-5.249-71.684,3.555-18.753,7.249-35.851,20.171-45.857,37.847a72.582,72.582,0,0,0-5.934,13.641c-.5,1.546,1.934,2.209,2.427.669Z" transform="translate(-90.663 -224.191)"/><path class="e" d="M282.6,540.314c0-14.82-12.022-49.987-26.852-49.987S228.9,525.495,228.9,540.314a26.852,26.852,0,0,0,53.7,0Z" transform="translate(-100.684 -267.007)"/><path class="f" d="M274.6,540.314c0-14.82-12.022-49.987-26.852-49.987S220.9,525.495,220.9,540.314a26.852,26.852,0,0,0,53.7,0Z" transform="translate(-99.397 -267.007)"/><path class="d" d="M253.737,606.786a.839.839,0,0,1-.839-.839v-74.8a.839.839,0,0,1,1.678,0v74.8A.839.839,0,0,1,253.737,606.786Z" transform="translate(-104.545 -273.439)"/><path class="d" d="M253.737,543.5a.839.839,0,0,1-.593-1.432l10.974-10.974a.839.839,0,0,1,1.187,1.187L254.33,543.251A.836.836,0,0,1,253.737,543.5Z" transform="translate(-104.545 -273.525)"/><path class="e" d="M718.6,540.314c0-14.82-12.022-49.987-26.852-49.987S664.9,525.495,664.9,540.314a26.852,26.852,0,0,0,53.7,0Z" transform="translate(-170.827 -267.007)"/><path class="f" d="M710.6,540.314c0-14.82-12.022-49.987-26.852-49.987S656.9,525.495,656.9,540.314a26.852,26.852,0,0,0,53.7,0Z" transform="translate(-169.54 -267.007)"/><path class="d" d="M689.737,606.786a.839.839,0,0,1-.839-.839v-74.8a.839.839,0,0,1,1.678,0v74.8A.839.839,0,0,1,689.737,606.786Z" transform="translate(-174.688 -273.439)"/><path class="d" d="M689.737,543.5a.839.839,0,0,1-.593-1.432l10.974-10.974a.839.839,0,0,1,1.187,1.187l-10.974,10.974a.836.836,0,0,1-.593.246Z" transform="translate(-174.688 -273.525)"/><path class="e" d="M356.6,268.6H343.174a3.78,3.78,0,0,1-3.776-3.776V233.776A3.78,3.78,0,0,1,343.174,230H356.6a3.78,3.78,0,0,1,3.776,3.776v31.048A3.78,3.78,0,0,1,356.6,268.6Z" transform="translate(-118.461 -225.126)"/><path class="e" d="M408.339,565.014H339.531a7.141,7.141,0,0,1-7.133-7.133V280.133A7.141,7.141,0,0,1,339.531,273h68.808a7.14,7.14,0,0,1,7.133,7.133V557.882A7.141,7.141,0,0,1,408.339,565.014Z" transform="translate(-117.335 -232.043)"/><path class="f" d="M359.339,565.014H290.531a7.141,7.141,0,0,1-7.133-7.133V280.133A7.141,7.141,0,0,1,290.531,273h68.808a7.141,7.141,0,0,1,7.133,7.133V557.882A7.14,7.14,0,0,1,359.339,565.014Z" transform="translate(-109.452 -232.043)"/><path class="f" d="M341.6,268.6H328.174a3.78,3.78,0,0,1-3.776-3.776V233.776A3.78,3.78,0,0,1,328.174,230H341.6a3.78,3.78,0,0,1,3.776,3.776v31.048A3.78,3.78,0,0,1,341.6,268.6Z" transform="translate(-116.048 -225.126)"/><path class="a" d="M320.439,342.53H304.5a2.1,2.1,0,0,1-2.1-2.1V316.1a2.1,2.1,0,0,1,2.1-2.1h15.943a2.1,2.1,0,0,1,2.1,2.1v24.335A2.1,2.1,0,0,1,320.439,342.53Z" transform="translate(-112.508 -238.639)"/><path class="a" d="M357.439,342.53H341.5a2.1,2.1,0,0,1-2.1-2.1V316.1a2.1,2.1,0,0,1,2.1-2.1h15.943a2.1,2.1,0,0,1,2.1,2.1v24.335A2.1,2.1,0,0,1,357.439,342.53Z" transform="translate(-118.461 -238.639)"/><path class="a" d="M320.439,395.53H304.5a2.1,2.1,0,0,1-2.1-2.1V369.1a2.1,2.1,0,0,1,2.1-2.1h15.943a2.1,2.1,0,0,1,2.1,2.1v24.335a2.1,2.1,0,0,1-2.1,2.1Z" transform="translate(-112.508 -247.166)"/><path class="a" d="M357.439,395.53H341.5a2.1,2.1,0,0,1-2.1-2.1V369.1a2.1,2.1,0,0,1,2.1-2.1h15.943a2.1,2.1,0,0,1,2.1,2.1v24.335a2.1,2.1,0,0,1-2.1,2.1Z" transform="translate(-118.461 -247.166)"/><path class="a" d="M320.439,448.53H304.5a2.1,2.1,0,0,1-2.1-2.1V422.1a2.1,2.1,0,0,1,2.1-2.1h15.943a2.1,2.1,0,0,1,2.1,2.1v24.335a2.1,2.1,0,0,1-2.1,2.1Z" transform="translate(-112.508 -255.692)"/><path class="a" d="M357.439,448.53H341.5a2.1,2.1,0,0,1-2.1-2.1V422.1a2.1,2.1,0,0,1,2.1-2.1h15.943a2.1,2.1,0,0,1,2.1,2.1v24.335a2.1,2.1,0,0,1-2.1,2.1Z" transform="translate(-118.461 -255.692)"/><path class="a" d="M320.439,501.53H304.5a2.1,2.1,0,0,1-2.1-2.1V475.1a2.1,2.1,0,0,1,2.1-2.1h15.943a2.1,2.1,0,0,1,2.1,2.1v24.335A2.1,2.1,0,0,1,320.439,501.53Z" transform="translate(-112.508 -264.219)"/><path class="a" d="M357.439,501.53H341.5a2.1,2.1,0,0,1-2.1-2.1V475.1a2.1,2.1,0,0,1,2.1-2.1h15.943a2.1,2.1,0,0,1,2.1,2.1v24.335A2.1,2.1,0,0,1,357.439,501.53Z" transform="translate(-118.461 -264.219)"/><path class="a" d="M320.439,554.53H304.5a2.1,2.1,0,0,1-2.1-2.1V528.1a2.1,2.1,0,0,1,2.1-2.1h15.943a2.1,2.1,0,0,1,2.1,2.1v24.335A2.1,2.1,0,0,1,320.439,554.53Z" transform="translate(-112.508 -272.745)"/><path class="a" d="M357.439,554.53H341.5a2.1,2.1,0,0,1-2.1-2.1V528.1a2.1,2.1,0,0,1,2.1-2.1h15.943a2.1,2.1,0,0,1,2.1,2.1v24.335A2.1,2.1,0,0,1,357.439,554.53Z" transform="translate(-118.461 -272.745)"/><path class="e" d="M769.6,446.174H756.174A3.78,3.78,0,0,1,752.4,442.4V424.776A3.78,3.78,0,0,1,756.174,421H769.6a3.78,3.78,0,0,1,3.776,3.776V442.4A3.78,3.78,0,0,1,769.6,446.174Z" transform="translate(-184.904 -255.853)"/><path class="e" d="M893.339,593.685H824.531a7.141,7.141,0,0,1-7.133-7.133V453.133A7.141,7.141,0,0,1,824.531,446h68.808a7.14,7.14,0,0,1,7.132,7.133v133.42A7.14,7.14,0,0,1,893.339,593.685Z" transform="translate(-195.361 -259.875)"/><path class="f" d="M834.686,593.685H715.531a7.141,7.141,0,0,1-7.133-7.133V453.133A7.14,7.14,0,0,1,715.531,446H834.686a7.141,7.141,0,0,1,7.133,7.133v133.42A7.141,7.141,0,0,1,834.686,593.685Z" transform="translate(-181.536 -259.875)"/><path class="f" d="M754.6,446.174H741.174A3.78,3.78,0,0,1,737.4,442.4V424.776A3.78,3.78,0,0,1,741.174,421H754.6a3.78,3.78,0,0,1,3.776,3.776V442.4a3.78,3.78,0,0,1-3.776,3.776Z" transform="translate(-182.49 -255.853)"/><path class="a" d="M775.439,519.03H759.5a2.1,2.1,0,0,1-2.1-2.1V492.6a2.1,2.1,0,0,1,2.1-2.1h15.943a2.1,2.1,0,0,1,2.1,2.1v24.334a2.1,2.1,0,0,1-2.1,2.1Z" transform="translate(-185.708 -267.034)"/><path class="a" d="M812.439,519.03H796.5a2.1,2.1,0,0,1-2.1-2.1V492.6a2.1,2.1,0,0,1,2.1-2.1h15.943a2.1,2.1,0,0,1,2.1,2.1v24.334A2.1,2.1,0,0,1,812.439,519.03Z" transform="translate(-191.66 -267.034)"/><path class="a" d="M775.439,572.03H759.5a2.1,2.1,0,0,1-2.1-2.1V545.6a2.1,2.1,0,0,1,2.1-2.1h15.943a2.1,2.1,0,0,1,2.1,2.1v24.334a2.1,2.1,0,0,1-2.1,2.1Z" transform="translate(-185.708 -275.561)"/><path class="a" d="M812.439,572.03H796.5a2.1,2.1,0,0,1-2.1-2.1V545.6a2.1,2.1,0,0,1,2.1-2.1h15.943a2.1,2.1,0,0,1,2.1,2.1v24.334A2.1,2.1,0,0,1,812.439,572.03Z" transform="translate(-191.66 -275.561)"/><path class="d" d="M954.493,622.178H76.942a.839.839,0,1,1,0-1.678H954.493a.839.839,0,1,1,0,1.678Z" transform="translate(-76.102 -287.948)"/><path class="d" d="M423.775,657.178H345.737a.839.839,0,1,1,0-1.678h78.038a.839.839,0,0,1,0,1.678Z" transform="translate(-119.346 -293.579)"/><path class="d" d="M654.775,657.178H576.737a.839.839,0,0,1,0-1.678h78.038a.839.839,0,1,1,0,1.678Z" transform="translate(-156.508 -293.579)"/><path class="d" d="M885.775,657.178H807.737a.839.839,0,1,1,0-1.678h78.038a.839.839,0,1,1,0,1.678Z" transform="translate(-193.671 -293.579)"/><path class="e" d="M992.6,540.314c0-14.82-12.022-49.987-26.852-49.987S938.9,525.495,938.9,540.314a26.852,26.852,0,0,0,53.7,0Z" transform="translate(-214.907 -267.007)"/><path class="f" d="M984.6,540.314c0-14.82-12.022-49.987-26.852-49.987S930.9,525.495,930.9,540.314a26.852,26.852,0,0,0,53.7,0Z" transform="translate(-213.62 -267.007)"/><path class="d" d="M963.737,606.786a.839.839,0,0,1-.839-.839v-74.8a.839.839,0,0,1,1.678,0v74.8A.839.839,0,0,1,963.737,606.786Z" transform="translate(-218.768 -273.439)"/><path class="d" d="M963.737,543.5a.839.839,0,0,1-.593-1.432l10.974-10.974a.839.839,0,0,1,1.187,1.187l-10.974,10.974a.837.837,0,0,1-.593.246Z" transform="translate(-218.768 -273.525)"/><path class="f" d="M989.422,616.9a14.4,14.4,0,1,1,28.808,0" transform="translate(-223.035 -285.053)"/><path class="d" d="M1006.515,618.06a.389.389,0,0,1-.389-.389V610.08a.389.389,0,1,1,.779,0v7.591a.389.389,0,0,1-.389.389Z" transform="translate(-225.723 -286.209)"/><path class="d" d="M1005.62,615.639a.388.388,0,0,1-.253-.094l-4.671-4.009a.389.389,0,1,1,.507-.591l4.672,4.01a.389.389,0,0,1-.254.685Z" transform="translate(-224.827 -286.396)"/><path class="f" d="M1042.31,616.9a14.4,14.4,0,1,1,28.808,0" transform="translate(-231.544 -285.053)"/><path class="d" d="M1059.405,618.06a.389.389,0,0,1-.389-.389V610.08a.389.389,0,1,1,.779,0v7.591a.389.389,0,0,1-.389.389Z" transform="translate(-234.232 -286.209)"/><path class="d" d="M1058.51,615.639a.388.388,0,0,1-.253-.094l-4.672-4.01a.389.389,0,1,1,.507-.591l4.672,4.009a.389.389,0,0,1-.254.685Z" transform="translate(-233.336 -286.396)"/><g transform="translate(167.213 92.316)"><g transform="translate(-89 54.9)"><path class="g" d="M465.035,188.478c-.586-3.946-4.171-13.154-4.171-13.154h0q-.094-.407-.212-.814c-2.543-8.739-6.063-9.5-6.063-9.5L441.981,162.3a.977.977,0,0,1,.271.252,1.745,1.745,0,0,0-.2.03,4.939,4.939,0,0,1-1.1-2.388c-.024-.13-.046-.271-.062-.4a8.869,8.869,0,0,0-.722-13.333c-.133-.1-.271-.2-.4-.3a2.01,2.01,0,0,0,.168-2.391,8.334,8.334,0,0,0-5.373-4.006,9.109,9.109,0,0,0-5.216-.111,18.843,18.843,0,0,0-2.73,1.267c-1.674.836-3.528,1.5-4.779,2.874a1.4,1.4,0,0,0-.478,1.153,3.113,3.113,0,0,0,.475.839,2.531,2.531,0,0,1,.024,2.1,20.346,20.346,0,0,0-.779,2.019,2.111,2.111,0,0,0,.421,2.027,8.93,8.93,0,0,0,.787.543,4.131,4.131,0,0,1,.752.844q.749,1,1.493,2.016a20.774,20.774,0,0,1,1.87,2.841,13.845,13.845,0,0,0,1.156,2.171,3.216,3.216,0,0,0,.5.521l-.147-.057a2.261,2.261,0,0,0,1.658.676h.076a.456.456,0,0,0,.3-.125v.271c.03.969.024,2-.043,2.969l-.117-.06a1.018,1.018,0,0,0-1.086.114l-11.607,9.314a15.287,15.287,0,0,0-2.171,9.412l-2.035,8.937s-2.543,7.583-.586,13,3.091,8.511,3.091,8.511.782,6.152,1.957,6.654,1.683.773,1.683.773l.233,1.471h0s.079.144.217.385c.855,1.487,4.022,6.736,5.862,6.174a23.523,23.523,0,0,1,.3,4.312l1.821,12.226a17.986,17.986,0,0,1,1.191,5.067c-.079,1.742,1.482,4.226,1.482,4.226a8.074,8.074,0,0,0-.782,5.686c.744,3.257,1.683,18.259,1.683,18.259l1.357,3.637-.038,4.263a4.072,4.072,0,0,1-.841,1.9c-.879.955-.814,2.06-2.934,3.365s-3.463,1.8-3.463,3.528a4.535,4.535,0,0,1-.065.719c-.2,1.27-.575,1.959,3.322,2.328A10.275,10.275,0,0,0,436,296.246s.673-1.221,3.843-1.715c0,0,1.086-.057,1.143-1.015.022-.331.016-.963,0-1.661a10.221,10.221,0,0,0-.347-2.953,6.436,6.436,0,0,1-.708-1.913h.882s.814-6.152,0-10.136a16.444,16.444,0,0,1-.079-6.809l-.157-10.522a3.006,3.006,0,0,1-.233-3.213c.852-2.052,0-12.185,0-12.185s.315-3.637,1.213-4.489.043-5.327,0-5.561l1.6,5.371s.7,10.676,2.193,12.609l.429,4.836s3.05,4.451,2.464,6.847.627,11.064.627,11.064v8.861s-1.37,3.558.543,4.836l.814-.033c-.271.252-.48.632-.8.961a7.336,7.336,0,0,0-.692,3.048c-.1,1.045-.13,1.943-.13,1.943a3.2,3.2,0,0,0,2.348,1.392c1.533.09,6.587,3.932,6.587,3.932a59.765,59.765,0,0,0,6.283-.271l.076-.019a1.7,1.7,0,0,0,.974-.8,2.035,2.035,0,0,0,.233-1.463,3.652,3.652,0,0,0-2.106-2.31c-3.335-1.759-3.832-3.406-3.832-3.406l-2.19-3.286h.312a14.059,14.059,0,0,1,2.19-7.39l-.155-17.214s.977-5.919-.7-9.132c0,0-.138-3.4.985-4.448s-1.5-11.6-1.5-11.6-.543-5.669-1.181-10.842h0c2.641,2.5,5.379-6.513,5.84-8.117h.068l-.03-.117c.019-.076.03-.114.03-.114h0s-.586-2.084-.157-1.661,1.487-1.162,1.487-1.162-.157-8.627,1.683-12.975S465.035,188.478,465.035,188.478Zm-7.87,5.49.014-.024c.271,5.268-.052,16.509-.052,16.509s-.364,1.441-.752,3.137L456.1,202.91h0l-.271-10.06Zm-33.682-3.631s1.33,16.633,0,19.032a12.57,12.57,0,0,0-.958,3.286c-.44-1.153-1.37-3.862-1.037-5.3.432-1.856-.86-6.733-.86-6.847a11.57,11.57,0,0,1,.814-4.7c.931-1.987.32-2.847.32-2.847S422.544,189.707,423.483,190.337Z" transform="translate(-267.521 -84.16)"/><path class="h" d="M448.579,443.166c-1.159,5.094-5.767-2.608-6.817-4.456-.136-.241-.212-.383-.212-.383l.5-2.342,2.641-1.086a7.372,7.372,0,0,1,1.183.771A7.134,7.134,0,0,1,448.579,443.166Z" transform="translate(-289.379 -299.527)"/><path class="h" d="M578.791,431.145a.355.355,0,0,1-.03.114.578.578,0,0,1-.035.122c-.453,1.59-3.14,10.543-5.734,8.057-2.839-2.714-1.46-8.988-1.46-8.988h.019l5.971-.611,1.183,1.216h0Z" transform="translate(-383.84 -295.842)"/><path class="i" d="M488.4,477.056l.152,17.1a14.023,14.023,0,0,0-2.149,7.327l-7.718.3c-1.883-1.267-.543-4.8-.543-4.8v-8.8s-1.191-8.6-.616-10.983-2.418-6.785-2.418-6.785l-.423-4.8c-1.46-1.919-2.152-12.516-2.152-12.516l-1.566-5.352c.043.231.858,4.7,0,5.52s-1.191,4.453-1.191,4.453.844,10.063,0,12.1A2.994,2.994,0,0,0,470,473l.155,10.446a16.333,16.333,0,0,0,.076,6.758c.806,3.954,0,10.063,0,10.063h-8.28l.038-4.264-1.341-3.609s-.923-14.9-1.653-18.126a8.1,8.1,0,0,1,.765-5.645s-1.533-2.456-1.457-4.185a17.9,17.9,0,0,0-1.183-5.026l-1.786-12.134a23.574,23.574,0,0,0-.885-6.912c-1.037-3.457-2.573-7.99-2.573-7.99l1.734.155,8.75.779s21.274-1.43,22.227-.242a3.992,3.992,0,0,1,.4,1.24c.955,4.291,2.217,17.732,2.217,17.732s2.573,10.484,1.468,11.52-.969,4.413-.969,4.413C489.364,471.167,488.4,477.056,488.4,477.056Z" transform="translate(-296.904 -297.691)"/><path class="j" d="M477.894,684.594c-.06.953-1.121,1.01-1.121,1.01-3.11.488-3.772,1.7-3.772,1.7a9.989,9.989,0,0,1-7.488,2.535c-3.827-.369-3.455-1.05-3.257-2.312a4.775,4.775,0,0,0,.062-.711c0-1.729,1.324-2.22,3.4-3.528s2.016-2.391,2.879-3.341a5.293,5.293,0,0,0,.953-2.793c.977-1.7,3.455.271,3.455.271.117.6,3.8.518,3.8.518a8.11,8.11,0,0,0,.741,2.073,10.192,10.192,0,0,1,.339,2.931C477.91,683.639,477.916,684.266,477.894,684.594Z" transform="translate(-304.383 -475.533)"/><path class="k" d="M477.894,702.022c-.06.953-1.121,1.009-1.121,1.009-3.11.489-3.772,1.7-3.772,1.7a9.989,9.989,0,0,1-7.488,2.535c-3.827-.369-3.455-1.05-3.257-2.312,1.71.423,4.977,1.015,6.885-.022,2.651-1.438,4.554-2.442,4.554-2.442l4.19-2.109C477.91,701.067,477.916,701.693,477.894,702.022Z" transform="translate(-304.383 -492.961)"/><path class="j" d="M563.73,692.671a1.656,1.656,0,0,1-.955.79l-.073.019a57.574,57.574,0,0,1-6.166.271s-4.953-3.829-6.451-3.916a3.151,3.151,0,0,1-2.3-1.384s.03-.89.125-1.927a7.355,7.355,0,0,1,.681-3.026c.662-.692.814-1.628,2.3-1.037,0,0,2.128-3.751,4.635-.852l2.594,3.935s.489,1.628,3.775,3.4a3.641,3.641,0,0,1,2.065,2.293A2.022,2.022,0,0,1,563.73,692.671Z" transform="translate(-366.779 -478.482)"/><path class="k" d="M563.73,708.817c-.293.247-.616.513-.955.79l-.073.019a57.548,57.548,0,0,1-6.166.271s-4.953-3.829-6.451-3.916a3.151,3.151,0,0,1-2.3-1.384s.03-.89.125-1.927c1.525.456,3.835,1.262,4.453,2.13a18.87,18.87,0,0,0,3.835,3.167s5.379-.518,7.767-.589A2.022,2.022,0,0,1,563.73,708.817Z" transform="translate(-366.779 -494.629)"/><path class="h" d="M490.908,207.347l-7.083,7.488s-8.584-.632-7.086-3.167c.763-1.292.882-3.995.814-6.345-.062-2.266-.3-4.2-.3-4.2s12.039-5.992,11.127-.4a9.2,9.2,0,0,0-.033,3.189A4.179,4.179,0,0,0,490.908,207.347Z" transform="translate(-314.889 -127.168)"/><path class="k" d="M490.236,200.723a9.2,9.2,0,0,0-.033,3.189,8.836,8.836,0,0,1-6.3,2.63c-1.628,0-3.39-1.338-4.706-2.111-.062-2.269-.076-3.3-.076-3.3S491.159,195.135,490.236,200.723Z" transform="translate(-316.752 -127.168)"/><path class="h" d="M481.782,170.36a8.872,8.872,0,1,1-3.338-6.931A8.872,8.872,0,0,1,481.782,170.36Z" transform="translate(-305.764 -100.32)"/><path class="k" d="M488.6,434.713c-2.209,5.257-16.419,5.365-16.419,5.365v-5.732l-.86-.057c.372,1.642-.521,5.645-.521,5.645-11.23,1.585-13.968-4.814-13.968-4.814l.391-2.19,8.75.779s21.274-1.43,22.227-.242A3.994,3.994,0,0,1,488.6,434.713Z" transform="translate(-300.512 -298.094)"/><path class="l" d="M472.18,289.766v-5.732l-.86-.054c.372,1.628-.521,5.645-.521,5.645-8.451,1.191-12.093-2.136-13.377-3.856a5.247,5.247,0,0,1-.592-.955l3.43-19.3.814-28.4,1.229-4.983.285-2.391v-.027h.03l.874.375,5.23,2.261,5.941-4.486.087-.062.3-.225.491.394,1.221.98,3.916,25.291s6.785,19.472,8.055,27.331c.052.315.092.608.125.882C489.692,289.633,472.18,289.766,472.18,289.766Z" transform="translate(-300.512 -148.473)"/><circle class="m" cx="0.505" cy="0.505" r="0.505" transform="translate(168.342 83.936)"/><circle class="m" cx="0.505" cy="0.505" r="0.505" transform="translate(168.574 88.543)"/><circle class="m" cx="0.505" cy="0.505" r="0.505" transform="translate(169.08 96.004)"/><circle class="m" cx="0.505" cy="0.505" r="0.505" transform="translate(169.912 104.039)"/><circle class="m" cx="0.505" cy="0.505" r="0.505" transform="translate(170.418 111.584)"/><circle class="m" cx="0.505" cy="0.505" r="0.505" transform="translate(170.922 119.621)"/><circle class="m" cx="0.505" cy="0.505" r="0.505" transform="translate(170.721 127.57)"/><path class="k" d="M462.918,273.852s-.564,7.39-1.6,9.539-1.5,8.18-1.5,8.18l-2.407-.271a5.251,5.251,0,0,1-.592-.955l3.43-19.3.814-28.4,1.232-4.985.285-2.391.033-.014a.972.972,0,0,1,.858.014l.114.06q-.052.147-.1.3a46.129,46.129,0,0,0-1.289,8.356s1.357,9.908,1.5,14.517S462.918,273.852,462.918,273.852Z" transform="translate(-300.504 -154)"/><path class="k" d="M445.873,435.679a1.386,1.386,0,0,1-.092.179c-.934,1.577-3.3,2.578-4.019,2.852-.136-.242-.212-.383-.212-.383l.5-2.342,2.641-1.086A7.376,7.376,0,0,1,445.873,435.679Z" transform="translate(-289.379 -299.527)"/><path class="i" d="M419.177,298.81l-2.19,1.305-1.995,8.872s-2.5,7.526-.578,12.9,3.034,8.454,3.034,8.454.768,6.106,1.921,6.606,1.65.768,1.65.768l.231,1.46s3.126-1.061,4.231-2.931-.814-6.513-.814-6.513-1.65-3.957-1.227-5.8-.847-6.682-.847-6.785a11.5,11.5,0,0,1,.814-4.668c.928-1.978.309-2.822.309-2.822l-.578-5.645Z" transform="translate(-269.078 -200.371)"/><path class="k" d="M536.279,283.949s-5.8,2.187-7.642.271-1.653-10.907-1.653-10.907S525.22,256.723,524.1,254s-.543-22.39-.543-22.39a11.918,11.918,0,0,0-1.4-3.208.71.71,0,0,0-.138-.111l.225.049.787.168,1.221.98,3.916,25.291s6.785,19.472,8.055,27.332Z" transform="translate(-348.01 -148.99)"/><path class="k" d="M579.675,431.362h-.065c-.73.095-7.173.874-7.2-.467a3.956,3.956,0,0,1,.024-.464l5.971-.611,1.183,1.216h0c.022.079.038.147.054.2Z" transform="translate(-384.725 -295.826)"/><path class="i" d="M573.492,266.07l4.234,2.209s3.528,9.135,4.093,13.051c0,0,2.613,10.492.814,14.807s-1.65,12.88-1.65,12.88-1.037,1.574-1.46,1.153.155,1.65.155,1.65-7.238.961-7.268-.461,1.661-8.218,1.661-8.218.461-16.167-.193-18.7S573.492,266.07,573.492,266.07Z" transform="translate(-384.723 -176.516)"/><path class="k" d="M520.571,329.52s-2.383,5.835-3.151,6.22.155,1.919.155,1.919S521.914,331.593,520.571,329.52Z" transform="translate(-344.436 -222.746)"/><path class="k" d="M514.631,254.092c.027-.111-2.841,2.814-3.609,3.257S513.825,257.321,514.631,254.092Z" transform="translate(-339.918 -167.787)"/><path class="k" d="M484.838,327.82s-4.377,2.831-3.8,3.951S484.838,327.82,484.838,327.82Z" transform="translate(-318.111 -221.508)"/><path class="k" d="M524.47,480.07a23.433,23.433,0,0,0,9.523,2.985Z" transform="translate(-349.795 -332.439)"/><path class="k" d="M491.5,501.3s3.455,4.342,5.032,4.453S491.5,501.3,491.5,501.3Z" transform="translate(-325.771 -347.908)"/><path class="k" d="M498.139,564c-.155.076-1.959,3.916-3.8,4.033S498.139,564,498.139,564Z" transform="translate(-327.572 -393.592)"/><path class="k" d="M568.33,594.695s3.425-.768,4.188,1.688C572.518,596.375,572.287,595.607,568.33,594.695Z" transform="translate(-381.752 -415.873)"/><path class="k" d="M559.84,645.956s4.15-.847,5.032.307S559.84,645.956,559.84,645.956Z" transform="translate(-375.566 -453.088)"/><path class="k" d="M505.65,654c0,.038-4.223.847-4.071,1.384s4.505.461,4.66-.385a.814.814,0,0,0-.589-1Z" transform="translate(-333.113 -459.168)"/><path class="k" d="M554.75,666.765s6.939-.847,6.513.613S554.75,666.765,554.75,666.765Z" transform="translate(-371.857 -468.289)"/><path class="k" d="M420.89,352.44c.038.114,4.57.73,5.184,2.19,0,0-4.454-2.076-5.156-2.076" transform="translate(-274.324 -239.447)"/><path class="k" d="M434.959,396.16s-3.764,1.191-3.5,2.985S431.081,398.315,434.959,396.16Z" transform="translate(-282.02 -271.301)"/><path class="k" d="M437.92,425.6s1.37-1.881,2.676-1.536S437.92,425.6,437.92,425.6Z" transform="translate(-286.732 -291.604)"/><path class="k" d="M478.479,163.424a2.135,2.135,0,0,1-.44.328c-1.086.632-1.384,1.607-1.9,2.73a5.806,5.806,0,0,1-1.978,2.7c-1.251.754-2.9.478-4.2,1.134a3.257,3.257,0,0,0-1.737,3.211A9.262,9.262,0,0,0,468.6,175a10.489,10.489,0,0,1,.4,3.194.548.548,0,0,1,0,.095,8.869,8.869,0,1,1,9.5-14.864Z" transform="translate(-305.799 -100.314)"/><path class="n" d="M466.357,146.936a8.186,8.186,0,0,0-5.273-3.976,8.857,8.857,0,0,0-5.121-.109,18.788,18.788,0,0,0-2.679,1.257c-1.645.83-3.452,1.487-4.69,2.852a1.429,1.429,0,0,0-.469,1.145,3.2,3.2,0,0,0,.464.83,2.52,2.52,0,0,1,.024,2.087,19.143,19.143,0,0,0-.765,2.006,2.11,2.11,0,0,0,.413,2.011,7.518,7.518,0,0,0,.776.543,4.085,4.085,0,0,1,.735.836l1.466,2a20.317,20.317,0,0,1,1.835,2.82,13.446,13.446,0,0,0,1.134,2.152,2.456,2.456,0,0,0,2.057,1.1.4.4,0,0,0,.326-.155.428.428,0,0,0,.041-.2,10.416,10.416,0,0,0-.388-3.183,9.181,9.181,0,0,1-.369-1.471,3.27,3.27,0,0,1,1.737-3.211c1.3-.657,2.95-.38,4.2-1.132a5.768,5.768,0,0,0,1.978-2.714c.524-1.124.814-2.1,1.9-2.73A1.909,1.909,0,0,0,466.357,146.936Z" transform="translate(-293.906 -86.498)"/><path class="k" d="M501.63,693.06s1.357,1.729,1,2.714S501.63,693.06,501.63,693.06Z" transform="translate(-333.152 -487.627)"/><path class="k" d="M569.28,702.637s.3-2.318,1.509-2.339a4.039,4.039,0,0,1,2.19.231c.923.355,1.788.906,1.512.988s-1.588-1.324-2.934-.605A9.7,9.7,0,0,0,569.28,702.637Z" transform="translate(-382.443 -492.879)"/><path class="k" d="M477.209,241.035l3.8-2.662s-5.558-3.284-6.22-2.822-1.118,4.614-1.118,4.614Z" transform="translate(-312.781 -154.248)"/><path class="o" d="M477.149,240.267l3.8-2.714s-5.558-3.284-6.22-2.822-1.118,4.842-1.118,4.842Z" transform="translate(-312.738 -153.65)"/><path class="l" d="M477.149,240.267l3.8-2.714s-5.558-3.284-6.22-2.822-1.118,4.842-1.118,4.842Z" transform="translate(-312.738 -153.65)"/><path class="i" d="M440.464,234.488l-.114-.057a.985.985,0,0,0-1.067.111l-11.4,9.246a15.307,15.307,0,0,0-2.133,9.341l6.722,9.523s.768-3.224,1.688-2.611c0,0,1.305,16.514,0,18.894s-1.881,11.29-1.881,11.29l4.416.5s.461-6.03,1.5-8.18,1.6-9.539,1.6-9.539.934-10.736.779-15.344-1.5-14.517-1.5-14.517S439.454,237.338,440.464,234.488Z" transform="translate(-277.844 -153.387)"/><path class="k" d="M509.176,234.1l-4.736-1.753s6.03-6.606,6.785-2.942Z" transform="translate(-335.201 -148.998)"/><path class="o" d="M509.176,233.254,504.44,231.5s6.03-6.606,6.785-2.942Z" transform="translate(-335.201 -148.379)"/><path class="l" d="M509.176,233.254,504.44,231.5s6.03-6.606,6.785-2.942Z" transform="translate(-335.201 -148.379)"/><path class="k" d="M521.32,228.111a.272.272,0,0,1,.2.043Z" transform="translate(-347.5 -148.857)"/><path class="i" d="M523,226.417l12.565,2.714s3.458.768,5.954,9.447S538.1,257.89,538.1,257.89l-1.305-1.11.654,25.345s-5.8,2.187-7.642.271-1.65-10.915-1.65-10.915-1.767-16.587-2.882-19.315-.543-22.387-.543-22.387S523.706,226.265,523,226.417Z" transform="translate(-348.723 -147.621)"/><path class="k" d="M564.918,285.634a71.917,71.917,0,0,0,.385,13.67,74.519,74.519,0,0,0,2.171,10.522l-1.14-23.385S565.455,285.135,564.918,285.634Z" transform="translate(-379.145 -190.689)"/><path class="k" d="M559.7,261.6c.307.193,1.653,3.379,1.037,4.684S559.7,261.6,559.7,261.6Z" transform="translate(-375.463 -173.26)"/><path class="k" d="M484.517,151.023a6.937,6.937,0,0,0-2.763-2.893,6.57,6.57,0,0,1,2.071,2.442,1.93,1.93,0,0,1-.673,2.765c-1.056.594-1.384,1.607-1.9,2.73a5.9,5.9,0,0,1-1.981,2.714c-1.248.754-2.9.475-4.2,1.132a3.278,3.278,0,0,0-1.737,3.213,9.227,9.227,0,0,0,.372,1.468,10.5,10.5,0,0,1,.4,3.194.429.429,0,0,1-.043.2.388.388,0,0,1-.323.155,1.87,1.87,0,0,1-.947-.176,2.2,2.2,0,0,0,1.628.638.32.32,0,0,0,.364-.358,10.413,10.413,0,0,0-.393-3.194,8.915,8.915,0,0,1-.372-1.471,3.27,3.27,0,0,1,1.737-3.211c1.3-.657,2.95-.38,4.2-1.132a5.767,5.767,0,0,0,1.978-2.714c.524-1.124.814-2.1,1.9-2.73A1.932,1.932,0,0,0,484.517,151.023Z" transform="translate(-312.141 -90.584)"/></g><path class="k" d="M779.42,382.17l1.794,2.06a2.586,2.586,0,0,1-1.794-2.06Z" transform="translate(-535.555 -261.109)"/><path class="k" d="M736.99,360.8l2.793,3.588-1.395.334Z" transform="translate(-496.184 -240.072)"/><g transform="translate(-23.137 12.898)"><path class="p" d="M658.842,201.854c-3.74-.073-7.04-2.714-8.91-5.941a5.97,5.97,0,0,1-.9-2.543,2.933,2.933,0,0,1,.1-.608,6.313,6.313,0,0,0,.271-.931,1.624,1.624,0,0,0,0-.38s0,0,0-.022a2.245,2.245,0,0,0-.814-1.826c-.5-.469-1.126-.814-1.647-1.281-1.607-1.411-2.1-3.675-2.125-5.829v-.114c.019-.923.092-1.848.084-2.771a11.659,11.659,0,0,0-.068-1.569,5.184,5.184,0,0,0-1.677-3.468c-2.676-2.171-7.176.09-9.946-1.962-.673-.5-1.219-1.243-2.035-1.438a3.429,3.429,0,0,0-1.859.252c-2.041.673-4.318,1.558-5.116,3.528-.456,1.132-.328,2.423-.746,3.569a17.828,17.828,0,0,1-1.167,2.155,3.372,3.372,0,0,0-.434,1.8,2.029,2.029,0,0,0,.133.958,2.442,2.442,0,0,0,.665.953,3.159,3.159,0,0,1-.4.635c-.521.638-1.322,1.086-1.864,1.721a4.066,4.066,0,0,0-.472,4.114c.494,1.368,1.387,2.613,2,3.946a2.118,2.118,0,0,1,.2,1.8,5.159,5.159,0,0,1-.9,1.048,3.292,3.292,0,0,0-.814,1.818c-6.109,1.395-6.114,6.3-6.114,6.3h0l-3.3,8.3s-.529,1.4-1.151,3.243l-3.905-.7,2.714,4.543a14.343,14.343,0,0,0-.757,4.429s-1.213,5.7.944,6.7l4.76,2.141a2.819,2.819,0,0,0,.659.3l.193.087a.51.51,0,0,0,.445,0h.065a.64.64,0,0,0,.271-.041.543.543,0,0,0,.239-.258.083.083,0,0,1,0-.027l1.425-.412,1.208,1.43c.543.383,1.086.714,1.6,1.012l-1.87,18.568s-.3,24.7-1.213,30.325a15.765,15.765,0,0,0-.212,4.472l-.035.06c.225,1.588.814,1.9.814,1.9v-.022a.178.178,0,0,0,.035.022,15.992,15.992,0,0,1,.977-2.1v.407c-.019,2.1-.084,5.029-.3,6.937-.369,3.257.944,13.99.944,13.99l.453,9.77a9.032,9.032,0,0,1-1.113,4.76c-1.086,1.951-2.472,4.7-2.573,5.916a1.22,1.22,0,0,0,0,.2h0l-2.329,2.8s-.909,1.406,1.145,1.973a11,11,0,0,0,4.54-.361,3.034,3.034,0,0,0,2.353-2.953,10.449,10.449,0,0,1,1.921-3.688l.383,2.25,2.562.635.328-6.166a2.715,2.715,0,0,0,.176-1.086h0c.5-4.386-1.189-3.992-1.189-3.992a.236.236,0,0,1,.081.152l-.081-.149h0c-1.039-2.052-.543-5.428-.543-5.428s1.357-9.77,1.821-12.351c.334-1.824.2-7.794.084-11.127a3.96,3.96,0,0,0-.014-.4c3.973-.052,8.842-.185,12.259-.516v.4l-.63,23.082a12.672,12.672,0,0,1-.885,4.293.235.235,0,0,1-.03.079,18.727,18.727,0,0,0-1.251,6.049l-.293,7.327v.2h0c-.51.2-1.316.763-1.338,2.407-.035,2.41,4.212,1.607,4.212,1.607,4.245,0,4.28-4.418,4.28-4.418s.133-4.052.336-6.763-.64-2.114-.64-2.114l-.065,7.713v-6.7l.065-.98v-.027h0v-.209l.535-7.954s3.911-13.255,4.516-15.8c.432-1.807.252-7.251.111-10.261a2.4,2.4,0,0,0-.022-.4c1.213-.109,2.285-.119,2.714-.119h.2s-.2-21.288-.708-29.31-1.314-15.363-3.335-17.572c-1.221-1.335-2.923-5.458-4.071-8.511a42.573,42.573,0,0,0,7.482,2.442c6.4,1.341,5.526-4.217,5.526-4.217l-.649-10.511h.043a53.6,53.6,0,0,0-.706-8.218,24.179,24.179,0,0,0-1.65-5.971c.695-.271,1.381-.562,2.055-.86,1.74-.768,3.7-1.856,3.949-3.732h-.084a2.423,2.423,0,0,0,.065-.413Zm-39.685,15.2h0c.014,1.086-.027,2.969-.092,5.051l-2.033-2.714,2.038-3.306ZM646.393,222.564Zm.847,4.106-3.387-1.086A15.2,15.2,0,0,1,645.945,223l.293-.271-.106.022.163-.149.1-.022-.155.149.185-.038a5.779,5.779,0,0,0,1.153,2.32c1.216,1.327-.334,1.664-.334,1.664Z" transform="translate(-409.154 -107.334)"/><path class="q" d="M641.875,715.66l-.4,7.512-2.527-.632-.532-3.124Z" transform="translate(-424.363 -498.627)"/><path class="k" d="M641.875,715.66l-.4,7.512-2.527-.632-.532-3.124Z" transform="translate(-424.363 -498.627)"/><path class="h" d="M716.48,638.477l3.854.8,2.858-2.524v-7.113l.065-.972v-.03h0v-.206l.532-7.906s3.856-13.16,4.456-15.686c.423-1.791.247-7.2.106-10.185-.057-1.224-.106-2.044-.106-2.044l-8.508-2.06-.179,6.54-.622,22.916a12.7,12.7,0,0,1-.871,4.263l-.03.079a18.648,18.648,0,0,0-1.235,6l-.288,7.287v.2Z" transform="translate(-489.695 -412.938)"/><path class="k" d="M741.45,730.135v.2h0v-.206Z" transform="translate(-507.889 -514.637)"/><path class="k" d="M716.48,760.891l3.854.8,2.858-2.524v-.605a.814.814,0,0,1-.41.651l-.041.024a7.681,7.681,0,0,1-4.326.855l-1.5-.128a1.408,1.408,0,0,0-.4.1v.2Z" transform="translate(-489.695 -535.352)"/><path class="j" d="M719.258,739.124l.041-.022a.814.814,0,0,0,.415-.706l.062-7.656s.831-.594.63,2.1-.331,6.714-.331,6.714-.033,4.386-4.22,4.386c0,0-4.187.8-4.155-1.6s1.729-2.491,1.729-2.491l1.5.13A7.661,7.661,0,0,0,719.258,739.124Z" transform="translate(-486.213 -515.041)"/><path class="h" d="M642.52,643.581c.1,1.729,5.184.73,5.184.73l3.422-6.644s2.858-2.2,1.428-4.122a3.059,3.059,0,0,1-.209-.328l-.014-.016h0c-.03-.049-.057-.1-.084-.155h0c-1.026-2.035-.521-5.373-.521-5.373s1.327-9.7,1.794-12.264c.328-1.807.193-7.737.084-11.054-.043-1.379-.084-2.3-.084-2.3l-8.443-2.261v2.519c-.019,2.081-.084,4.993-.3,6.888-.364,3.221.931,13.89.931,13.89l.448,9.708a8.991,8.991,0,0,1-1.086,4.725c-1.058,1.938-2.442,4.668-2.537,5.876a1.178,1.178,0,0,0-.014.187Z" transform="translate(-435.807 -419.67)"/><path class="k" d="M642.514,733.324c.1,1.729,5.183.73,5.183.73l3.422-6.643s2.858-2.2,1.427-4.122a3.057,3.057,0,0,1-.209-.328,16.5,16.5,0,0,1-1.151,3.528s-2.825,5.653-3.723,6.948-4.8-.242-4.948-.3a1.2,1.2,0,0,0,0,.185Z" transform="translate(-435.801 -509.412)"/><path class="j" d="M645.47,722.276s1.672-.388,1.172,3.965h0a2.8,2.8,0,0,1-1.322,2.489,9.5,9.5,0,0,0-3.976,5.515h0a3.007,3.007,0,0,1-2.32,2.931,10.883,10.883,0,0,1-4.478.358c-2.027-.565-1.129-1.959-1.129-1.959l2.326-2.76s4.055,1.6,4.95.3,3.723-6.945,3.723-6.945S645.967,722.643,645.47,722.276Z" transform="translate(-429.031 -508.908)"/><path class="k" d="M728,593.52l-.179,6.54c2.266-.22,3.889-.526,4.166-.958.6-.928,2.776-1.319,4.627-1.479-.057-1.224-.106-2.044-.106-2.044Z" transform="translate(-497.957 -415.102)"/><path class="k" d="M651.94,605.239a3.1,3.1,0,0,1,.931-1.124c.9-.5.8,3.192.8,3.192s2.985.027,6.8-.022c-.043-1.379-.084-2.307-.084-2.307l-8.443-2.258S651.956,603.768,651.94,605.239Z" transform="translate(-442.67 -421.805)"/><path class="i" d="M646.028,449.789s1-2.714,1.9-3.2.8,3.189.8,3.189,21.934.2,23.03-1.5,7.477-1.6,7.477-1.6-.2-21.136-.7-29.109-1.295-15.255-3.289-17.448c-1.289-1.419-3.124-6.011-4.258-9.072-.616-1.672-1.026-2.89-1.026-2.89l-20.935,1.194-.171,1.7-2.223,22.232s-.3,24.525-1.2,30.108S646.028,449.789,646.028,449.789Z" transform="translate(-437.723 -265.48)"/><g class="r" transform="translate(207.451 122.689)"><path d="M682.949,448.285c1.086-1.693,7.477-1.6,7.477-1.6s-.2-21.136-.7-29.109-1.294-15.255-3.289-17.448c-1.294-1.425-3.124-6.011-4.258-9.073-.518-1.406-.89-2.489-.993-2.8l1.628-.092s.41,1.219,1.029,2.89c1.134,3.061,2.966,7.653,4.255,9.073,1.995,2.193,2.793,9.471,3.289,17.448s.7,29.109.7,29.109-6.38-.1-7.479,1.6c-.936,1.447-17.076,1.514-21.76,1.5C668.861,449.772,682.1,449.593,682.949,448.285Z" transform="translate(-658.071 -388.17)"/><path d="M646.29,603.315c.4-.225.605.4.706,1.156a15.647,15.647,0,0,0-.942,2.041s-.578-.312-.814-1.9A3.7,3.7,0,0,1,646.29,603.315Z" transform="translate(-645.24 -544.893)"/></g><path class="s" d="M661.021,191.689c-1.449,1.976.016,4.785-1.539,6.706-.513.635-1.3,1.086-1.837,1.71a4.061,4.061,0,0,0-.467,4.084c.486,1.357,1.357,2.594,1.976,3.919a2.1,2.1,0,0,1,.2,1.786,5.053,5.053,0,0,1-.89,1.039,3.749,3.749,0,0,0-.489,3.979,12.875,12.875,0,0,0,2.575,3.555,1.758,1.758,0,0,0,2.554.583,10.041,10.041,0,0,0,4.57-13.105c-.841-2.016-2.244-3.949-2.258-6.079,0-1.691.868-3.306,1.023-4.988.187-2.046-1.023-5.295-3.493-6.188C663.111,190,661.757,190.674,661.021,191.689Z" transform="translate(-446.246 -120.137)"/><path class="t" d="M661.021,191.689c-1.449,1.976.016,4.785-1.539,6.706-.513.635-1.3,1.086-1.837,1.71a4.061,4.061,0,0,0-.467,4.084c.486,1.357,1.357,2.594,1.976,3.919a2.1,2.1,0,0,1,.2,1.786,5.053,5.053,0,0,1-.89,1.039,3.749,3.749,0,0,0-.489,3.979,12.875,12.875,0,0,0,2.575,3.555,1.758,1.758,0,0,0,2.554.583,10.041,10.041,0,0,0,4.57-13.105c-.841-2.016-2.244-3.949-2.258-6.079,0-1.691.868-3.306,1.023-4.988.187-2.046-1.023-5.295-3.493-6.188C663.111,190,661.757,190.674,661.021,191.689Z" transform="translate(-446.246 -120.137)"/><path class="k" d="M688.753,464.55a19.274,19.274,0,0,0-8.171,2.812,55.978,55.978,0,0,1-7.732,4.011" transform="translate(-457.906 -321.131)"/><path class="k" d="M688.248,489.74a11.96,11.96,0,0,0-7.531,3.664c-.706.746-1.313,1.582-2.049,2.3a9.1,9.1,0,0,1-4.038,2.288" transform="translate(-459.203 -339.484)"/><path class="k" d="M682.912,508.91a13.167,13.167,0,0,0-6.057,3.653c-.445.48-.849.993-1.295,1.474-2.4,2.578-5.794,3.946-9.07,5.241" transform="translate(-453.271 -353.453)"/><path class="h" d="M695.175,242.683a59.538,59.538,0,0,0,.6,6.926,9.065,9.065,0,0,0,1.2,3.742c1.6,1.9-7.775,4.437-7.775,4.437L683.66,253.5s4.386-4.038,2.342-7.976S695.175,242.683,695.175,242.683Z" transform="translate(-465.783 -159.375)"/><path class="k" d="M658.79,391.06h22.132c-.616-1.672-1.026-2.89-1.026-2.89l-20.935,1.194Z" transform="translate(-447.662 -265.48)"/><path class="u" d="M641.94,306.193H665.6a8.21,8.21,0,0,1,.947-6.274,13.866,13.866,0,0,1,2.478-3.213l.163-.149,8.261-1.829.445-.1s.068-15.021-5.251-17.084a31.1,31.1,0,0,1-8.508-4.85l-7.308,2.258-5.384-2.714c-1.729,1.859-6.315,1.129-6.315,1.129-7.509.863-7.509,6.513-7.509,6.513s4.386,10.234,4.72,10.234S641.94,306.193,641.94,306.193Z" transform="translate(-432.236 -181.012)"/><path class="k" d="M666.277,354.269s-4.825-1.069-6.467-2.939" transform="translate(-448.404 -238.639)"/><path class="k" d="M758.266,341.51l-5.6,4.586a9.5,9.5,0,0,0,.184,1.086l.163-.149,8.261-1.829Z" transform="translate(-516.064 -231.482)"/><path class="k" d="M717.46,373.983s1.224.689,3.1,1.6h3.216a8.21,8.21,0,0,1,.947-6.274l-5.669-1.835C720.983,369.264,717.46,373.983,717.46,373.983Z" transform="translate(-490.41 -250.398)"/><path class="u" d="M623.089,293.76l-3.322,1.794-3.257,8.242s-3.39,9.037-3.059,11.431c0,0-1.194,5.65.931,6.646l5.536,2.508a.516.516,0,0,0,.665-.711c-.79-1.5-1.658-3.835-.271-5.121l-1.6-3.322,5.767-9.439,1.927-3.257Z" transform="translate(-414.385 -196.691)"/><path class="k" d="M676.974,349.063c.288,1.172,1.259,2.985,4.475,3.661l3.528,2.89,3.753,1.7,1.531.692.649-4.687-1.474-.814-1.718-.939s-3.875-7.021-10.011-4.071a1.357,1.357,0,0,0-.733,1.566Z" transform="translate(-460.879 -235.318)"/><path class="h" d="M677.729,347.635c.288,1.175,1.257,2.985,4.473,3.661l3.528,2.89,3.756,1.7,1.528.692.649-4.687-1.474-.814-1.7-.931s-3.878-7.021-10.014-4.057A1.357,1.357,0,0,0,677.729,347.635Z" transform="translate(-461.434 -234.289)"/><circle class="k" cx="8.573" cy="8.573" r="8.573" transform="translate(214.637 72.242)"/><circle class="h" cx="8.573" cy="8.573" r="8.573" transform="translate(214.637 72.043)"/><path class="k" d="M715.958,277.125l-2.578-5.01s3.772-1.525,4.046-3.292,3.615,2.071,2.893,3.343A47.451,47.451,0,0,1,715.958,277.125Z" transform="translate(-487.438 -178.189)"/><path class="u" d="M715.958,275.656l-2.578-5.01s3.772-1.525,4.046-3.292,3.615,2.073,2.893,3.343A47.742,47.742,0,0,1,715.958,275.656Z" transform="translate(-487.438 -177.119)"/><path class="v" d="M617.53,341.862l14.245,19.152s-5.251,2.858-12.484-2.258l-3.124-3.723L607.25,340Z" transform="translate(-410.109 -230.383)"/><path class="h" d="M633.9,371.983l1.3-.035s7.924-7.691,9.87-3.8-4.937,7.528-4.937,7.528l-2.092,1.129-2.728.814-1.745-2.342Z" transform="translate(-429.287 -250.092)"/><path class="k" d="M631,387.2a1.936,1.936,0,0,1,.033,1.341.542.542,0,0,1-.236.258.6.6,0,0,1-.271.038,2.727,2.727,0,0,1-1.789-.885,8.169,8.169,0,0,1-1.159-1.677,3.094,3.094,0,0,1-.594-2,2.913,2.913,0,0,1,1.474-1.721c1.314-.868,1.357.144,1.645,1.262S630.7,386.066,631,387.2Z" transform="translate(-424.469 -261.148)"/><path class="u" d="M630.267,387.2a1.951,1.951,0,0,1,.032,1.341.542.542,0,0,1-.236.258.611.611,0,0,1-.271.038,2.714,2.714,0,0,1-1.789-.885,8.076,8.076,0,0,1-1.161-1.677,3.076,3.076,0,0,1-.592-2,2.908,2.908,0,0,1,1.471-1.721c1.316-.868,1.357.144,1.647,1.262S629.963,386.066,630.267,387.2Z" transform="translate(-423.934 -261.148)"/><path class="k" d="M623.85,314.931l.662-1.121-.578,2.082Z" transform="translate(-413.748 -205.836)"/><path class="k" d="M721.19,371.239l1.528.692.649-4.687-1.474-.814C722.911,367.6,722.021,369.755,721.19,371.239Z" transform="translate(-493.127 -249.641)"/><path class="k" d="M724.919,361.295s-4.934.3-7.029-1.045" transform="translate(-490.723 -245.137)"/><g class="r" transform="translate(212.578 91.619)"><path d="M735.628,302.613a13.894,13.894,0,0,1,2.478-3.216,6.607,6.607,0,0,1,.73-.4l7.691-1.579.445-.1s.068-15.021-5.249-17.084a31.947,31.947,0,0,1-8.294-4.671l.583-.179a31.016,31.016,0,0,0,8.508,4.85c5.319,2.06,5.249,17.084,5.249,17.084h-.8l-7.87,1.506s-.339.328-.442.423a15.253,15.253,0,0,0-2.516,3.327,8.343,8.343,0,0,0-.659,6.307h-.814A8.3,8.3,0,0,1,735.628,302.613Z" transform="translate(-714.623 -274.926)"/><path d="M664.13,277.862c.128-.019.25-.038.383-.052a13.757,13.757,0,0,0,1.628.133,14.8,14.8,0,0,1-2.011-.081Z" transform="translate(-664.13 -276.689)"/><path d="M692.629,276.4l-4.869-2.464a2.579,2.579,0,0,0,.271-.258l5.08,2.57Z" transform="translate(-681.347 -273.68)"/></g><path class="u" d="M733.336,340l3.257,3.989.665,10.834s.863,5.515-5.449,4.185-13.618-5.439-13.618-5.439,3.528-4.719,1.6-6.513l9.04,2.926s1.528-.334.331-1.661a7.477,7.477,0,0,1-1.409-3.723Z" transform="translate(-490.941 -230.383)"/><path class="k" d="M665.2,186.867a2.863,2.863,0,0,1,.3-2.337,18.439,18.439,0,0,0,1.153-2.141c.41-1.134.285-2.418.733-3.528.79-1.968,3.034-2.847,5.045-3.528a3.392,3.392,0,0,1,1.835-.25c.814.193,1.343.931,2.008,1.428,2.73,2.035,7.17-.206,9.811,1.949a5.135,5.135,0,0,1,1.653,3.441,30.4,30.4,0,0,1-.016,3.913c-.043,2.285.385,4.785,2.1,6.3.516.456,1.123.8,1.628,1.27a2.224,2.224,0,0,1,.814,1.816,6.289,6.289,0,0,1-.271.923,4.724,4.724,0,0,0,.787,3.528c1.845,3.194,5.1,5.827,8.788,5.9-.247,1.862-2.171,2.942-3.894,3.7-2.171.974-4.483,1.93-6.874,1.807s-4.885-1.653-5.3-4.008c-.144-.814-.125-1.794-.814-2.217-.423-.258-.972-.193-1.428-.385a2.515,2.515,0,0,1-1.2-1.693,15.242,15.242,0,0,1-.708-4.342c-.03-1.748.2-3.656-.79-5.094-.917-1.333-2.546-2.008-3.6-3.232-.977-1.134-2.038-2.5-3.639-2.714C671.09,187.063,666.509,190.073,665.2,186.867Z" transform="translate(-452.23 -110.186)"/><path class="n" d="M665.2,185.4a2.863,2.863,0,0,1,.3-2.337,18.442,18.442,0,0,0,1.153-2.141c.41-1.134.285-2.418.733-3.528.79-1.97,3.034-2.85,5.045-3.528a3.392,3.392,0,0,1,1.835-.25c.814.193,1.343.931,2.008,1.428,2.73,2.035,7.17-.206,9.811,1.949a5.136,5.136,0,0,1,1.653,3.444,30.355,30.355,0,0,1-.016,3.911c-.043,2.285.385,4.785,2.1,6.3.516.456,1.123.8,1.628,1.27a2.224,2.224,0,0,1,.814,1.816,6.288,6.288,0,0,1-.271.923,4.724,4.724,0,0,0,.787,3.528c1.851,3.183,5.091,5.824,8.779,5.9-.247,1.862-2.171,2.942-3.894,3.707-2.171.972-4.483,1.927-6.874,1.8s-4.885-1.653-5.3-4.008c-.144-.814-.125-1.794-.814-2.217-.423-.258-.972-.193-1.428-.385a2.515,2.515,0,0,1-1.2-1.693,15.227,15.227,0,0,1-.708-4.342c-.03-1.748.2-3.656-.79-5.094-.917-1.333-2.546-2.008-3.6-3.232-.977-1.134-2.038-2.5-3.639-2.714C671.09,185.593,666.509,188.608,665.2,185.4Z" transform="translate(-452.23 -109.115)"/><path class="k" d="M683.459,277.171l4.915-3.989s-3.365-1.824-3.767-3.379-3.094.738-2.82,2.133S683.459,277.171,683.459,277.171Z" transform="translate(-464.404 -178.857)"/><path class="u" d="M684.213,274.968l4.915-3.987s-3.365-1.824-3.751-3.379-3.094.738-2.82,2.133S684.213,274.968,684.213,274.968Z" transform="translate(-464.965 -177.254)"/><circle class="k" cx="0.391" cy="0.391" r="0.391" transform="translate(223.965 96.674)"/><circle class="k" cx="0.391" cy="0.391" r="0.391" transform="translate(223.965 98.846)"/><circle class="k" cx="0.391" cy="0.391" r="0.391" transform="translate(223.965 101.014)"/><g class="r" transform="translate(212.891 67.402)"><path d="M671.52,187.788c.388-1.067.3-2.263.668-3.338a3.642,3.642,0,0,0-.415.765c-.451,1.121-.323,2.4-.736,3.528l-.027.065a6.2,6.2,0,0,0,.51-1.02Z" transform="translate(-669.457 -184.45)"/><path d="M698.357,230.69c-2.171.972-4.483,1.927-6.874,1.8s-4.885-1.653-5.3-4.006c-.144-.814-.125-1.8-.814-2.22-.423-.258-.972-.193-1.427-.385a2.515,2.515,0,0,1-1.2-1.693,15.231,15.231,0,0,1-.708-4.342c-.03-1.745.2-3.653-.787-5.094-.92-1.333-2.548-2.006-3.607-3.232-.977-1.132-2.038-2.5-3.639-2.714-2.2-.3-6.785,2.714-8.082-.494A2.524,2.524,0,0,1,666,206.46c-.095.16-.187.32-.271.483a2.875,2.875,0,0,0-.3,2.339c1.305,3.2,5.886.193,8.082.494,1.6.217,2.662,1.588,3.639,2.714,1.058,1.227,2.687,1.9,3.6,3.235.993,1.438.76,3.346.79,5.091a15.218,15.218,0,0,0,.708,4.342,2.521,2.521,0,0,0,1.2,1.693c.456.193,1,.13,1.427.385.7.423.681,1.414.814,2.22.423,2.353,2.915,3.884,5.3,4.006s4.69-.83,6.874-1.8c1.574-.7,3.327-1.669,3.8-3.257A8.222,8.222,0,0,1,698.357,230.69Z" transform="translate(-665.288 -200.487)"/></g></g><g transform="translate(40 0.543)"><path class="w" d="M824.226,270.326a63.837,63.837,0,0,0-7.927-4.12l-.119-.084a4.779,4.779,0,0,1-1.447-1.829,3.778,3.778,0,0,1,0-.394.165.165,0,0,0,0,.038c.09-1.75,1.335-3.344,2.516-4.733l3.021-3.552a3.5,3.5,0,0,0,.779-1.232,2.845,2.845,0,0,0,.081-.757v-.309c-.016-.882-.041-1.767-.073-2.649-.027-.771-.225-1.742-1-1.9-.4-.081-.934.062-1.145-.271a.66.66,0,0,1-.052-.459.165.165,0,0,0,0,.038v-.043a10.223,10.223,0,0,0,.285-1.816,2.477,2.477,0,0,0-.125-.92c-.445-1.278-1.984-1.8-3.344-2.046s-2.885-.448-3.737-1.512a11.075,11.075,0,0,0-.744-1.023,2.935,2.935,0,0,0-1.39-.687,7.87,7.87,0,0,0-5.056.44,4.538,4.538,0,0,1-2.038.646c-.722-.043-1.39-.564-2.128-.689a3.036,3.036,0,0,0-2.926,1.712,4.189,4.189,0,0,0-.543,2.019v.119h0a2.953,2.953,0,0,0,.776,2.063c.516.543,1.281.9,1.5,1.6.087.285.065.594.144.885a.8.8,0,0,0,.032.106l-.038.052a8.956,8.956,0,0,0-1.9,5.52,9.162,9.162,0,0,0,6.437,8.684v.271a3.9,3.9,0,0,1-1.248,3.04l-8.139,3.251s-4.907-.583-6.676,6.587a12.225,12.225,0,0,0-.3,3.637,10.542,10.542,0,0,1-1.357,5.447c-2.011,3.941-1.552,12.986,2.562,13.882,3.884.847,5.4.494,5.563.453v.157c-.065,1.7-.681,16.338-2.92,18.107-.619.491-.5.814,0,1.045,0,0,0,.095-.014.271-.068,1.086-.413,5.156-1.9,7.469-1.74,2.687-1.558,18.183-1.558,18.183l-1.186,9.135s.73,5.642,0,6.627c-.654.877-1.523,21.749-1.7,26.276h-.076a2.2,2.2,0,0,0-1.759,1.086,30.659,30.659,0,0,1-4.326,4.445c-.73,1.037-3.43,2.03-4.858,2.5a3.016,3.016,0,0,0-.543.239,2.9,2.9,0,0,0-1.227,1.292,1.387,1.387,0,0,0-.13,1.086c.364.893,7.954,1.522,9.876.624,1.509-.7,7.49-1.628,9.974-1.992a2.046,2.046,0,0,0,1.775-1.775,1.17,1.17,0,0,0-.228-.887h0a7.868,7.868,0,0,1-.814-3.257,2.2,2.2,0,0,0,.559-.331,23.842,23.842,0,0,1,1.357-9.583c1.829-4.836,2.377-13.792,1.922-19.613,0,0,5.577-24,9.968-26.241h0c.068.087,2.2,2.82,2.47,11.284a34.194,34.194,0,0,0,3.382,14.24s-1.373,14.6,0,20.061l-1.794,8.617c-.133-.111-.217-.2-.217-.2s.054.239.128.621l-.038.185.079.016a16.961,16.961,0,0,1,.38,4.071c-.071.627-.247,1.487-.366,2.331-.19,1.327-.242,2.613.456,2.9,1.145.461,7.87,1.086,9.01-.391a2.114,2.114,0,0,0,.331-2.212,2.242,2.242,0,0,0-.331-.565s-1.786-2.917-1.281-4.975a1.514,1.514,0,0,0-.214-1.181,60.672,60.672,0,0,1,1.539-9.651c1.145-4.31,3.558-13.759,1.783-19.971h0q-.1-.366-.228-.716a26.821,26.821,0,0,1-1.007-10.478,21.353,21.353,0,0,1,0-9.135c1.1-5.015,1.867-9.941,1.867-9.941a62.84,62.84,0,0,0,.076-10.69,2.7,2.7,0,0,0-.035-.271l.288-.065s-1.555-6.9-2.1-11.284c-.13-1.037-.3-2.347-.483-3.748a9.568,9.568,0,0,0,1.49-.372c4.937-1.7,6.492-17.1,6.492-17.1v-4.885S829.988,273.64,824.226,270.326ZM787.437,389.259c-.152-.076-.241-.128-.241-.128h0Z" transform="translate(-530.303 -157.404)"/><path class="x" d="M857.012,562.206c2.141,6.158-.358,16.153-1.52,20.626a62.351,62.351,0,0,0-1.517,9.819,20.677,20.677,0,0,1-7.854-.179L848,583.279c-1.341-5.444,0-19.993,0-19.993a34.684,34.684,0,0,1-3.3-14.191c-.271-8.432-2.342-11.16-2.407-11.244h0C838,540.082,832.56,564,832.56,564c.445,5.8-.092,14.725-1.875,19.54a24.154,24.154,0,0,0-1.338,9.547,2.9,2.9,0,0,1-2.443.467,16.67,16.67,0,0,1-5.6-2.608s.98-26.053,1.7-27.041,0-6.606,0-6.606l1.159-9.1s-.179-15.442,1.517-18.118c1.465-2.312,1.8-6.378,1.867-7.444v-.271l2.584-3.094s24.989-1.875,26.867,0a5.355,5.355,0,0,1,.912,2.822,63.948,63.948,0,0,1-.076,10.652s-.749,4.909-1.821,9.906a21.743,21.743,0,0,0,0,9.105A27.255,27.255,0,0,0,857.012,562.206Z" transform="translate(-566.068 -360.396)"/><path class="q" d="M921.833,794.28c-1.115,1.474-7.675.849-8.793.391-.681-.271-.63-1.566-.445-2.888.117-.839.288-1.7.358-2.32a21.366,21.366,0,0,0-.543-4.866s1.471,1.563,1.826,0a1.7,1.7,0,0,1,1.276-1.21,3.333,3.333,0,0,1,2.318.144c1.159.5,3.091,1.577,2.746,3.026-.491,2.049,1.248,4.958,1.248,4.958a2.257,2.257,0,0,1,.326.559A2.141,2.141,0,0,1,921.833,794.28Z" transform="translate(-632.453 -553.336)"/><path class="k" d="M847.6,611.454c.445,5.8-.092,14.726-1.875,19.54a24.155,24.155,0,0,0-1.338,9.547,2.9,2.9,0,0,1-2.442.467c.543-3.764,2.833-19.982,4.3-32.8a53.669,53.669,0,0,1,9.5-24.631L857.3,585.3C853.04,587.534,847.6,611.454,847.6,611.454Z" transform="translate(-581.107 -407.859)"/><path class="h" d="M888.428,311.9l-1.086,5.354L882,326.223l-6.581-2.812s-8.956-9.371-3.325-10.709a4.982,4.982,0,0,0,1.867-.83,3.861,3.861,0,0,0,1.457-3.23,9.9,9.9,0,0,0-.906-3.837l11.512-3.615a18.479,18.479,0,0,0-.814,4.662c-.09,3.137,1.086,4.681,2.033,5.428A3.457,3.457,0,0,0,888.428,311.9Z" transform="translate(-601.727 -202.105)"/><path class="k" d="M897.5,301.19a18.476,18.476,0,0,0-.814,4.662,8.8,8.8,0,0,1-.67.714,9.108,9.108,0,0,1-9.1,2.076A9.9,9.9,0,0,0,886,304.8Z" transform="translate(-613.209 -202.105)"/><path class="h" d="M884.36,271.322a9.062,9.062,0,1,1-2.655-6.449A9.1,9.1,0,0,1,884.36,271.322Z" transform="translate(-598.746 -173.711)"/><path class="k" d="M888.428,338.967l-1.086,5.354L882,353.291l-6.581-2.812s-8.956-9.371-3.325-10.709a4.983,4.983,0,0,0,1.867-.83c-1.015,2.79,3.175,8.595,3.175,8.595.489.719,1.607.271,1.607.271,2.7-.41,7.669-8.174,8.481-9.466A3.456,3.456,0,0,0,888.428,338.967Z" transform="translate(-601.727 -229.174)"/><path class="k" d="M874.7,522.086c-1.585.361-10.354,2.3-13.678,1.816-3.658-.543-10.771-.89-10.771-.89s-4.529.244-5.924-.394v-.271l2.584-3.094s24.989-1.875,26.867,0A5.329,5.329,0,0,1,874.7,522.086Z" transform="translate(-582.848 -360.381)"/><path class="y" d="M841.593,348.029s-4.708-6.513-2.934-9.064l-7.954,3.257s-4.787-.581-6.513,6.565a12.433,12.433,0,0,0-.3,3.626,10.727,10.727,0,0,1-1.311,5.428c-1.962,3.927-1.517,12.943,2.5,13.841s5.441.445,5.441.445-.543,16.332-2.855,18.207,5.916,1.428,5.916,1.428,7.113.358,10.774.893,13.922-1.875,13.922-1.875-1.517-6.872-2.054-11.244-1.789-13.686-1.789-13.686l9.1-12.332s1.607-7.452-4.017-10.755a63.555,63.555,0,0,0-7.737-4.112s-5.651,9.2-8.6,9.645C843.2,348.3,842.081,348.746,841.593,348.029Z" transform="translate(-566.182 -229.398)"/><path class="k" d="M853.107,382.74a13.42,13.42,0,0,0,.448,4.106c.535,1.159,2.5,7.6,2.5,7.6H851.59s2.41-2.589,2.234-3.84S853.107,382.74,853.107,382.74Z" transform="translate(-588.139 -261.523)"/><path class="h" d="M867.673,431.048s-9.857-2.41-10.774-4.462-3.449-6.646-3.449-6.646l1.039-1.4,4.793,3.761s5.7,4.551,8.391,5S867.673,431.048,867.673,431.048Z" transform="translate(-589.494 -287.607)"/><path class="z" d="M867.673,431.048s-9.857-2.41-10.774-4.462-3.449-6.646-3.449-6.646l1.039-1.4,4.793,3.761s5.7,4.551,8.391,5S867.673,431.048,867.673,431.048Z" transform="translate(-589.494 -287.607)"/><path class="h" d="M889.456,421.721v5.346H888.6a24.991,24.991,0,0,0-12.141,3.145l-1.608.89-.432.242L871.65,425.1l2.589-2.32h.133a15.481,15.481,0,0,0,4.532-.1c1.1-.375,2.47-1.56,5.715-.733,1.6.41,2.966,2.2,4.516,1.642Z" transform="translate(-602.754 -289.883)"/><path class="k" d="M916.824,369.713l1.783,2.008v4.866s-1.517,15.35-6.334,17.046-13.423-.982-13.423-.982-2.223-5.889-1.183-6.242,9.186-2.508,9.186-2.508-.114-9,1.669-11.683c0,0-1.159-8.389,2.858-8.568S916.824,369.713,916.824,369.713Z" transform="translate(-621.508 -247.611)"/><path class="y" d="M917.828,369.713l1.786,2.008v4.866s-1.517,15.35-6.337,17.046-13.423-.982-13.423-.982-2.223-5.889-1.18-6.242,9.187-2.508,9.187-2.508-.117-9,1.669-11.683c0,0-1.162-8.389,2.855-8.568S917.828,369.713,917.828,369.713Z" transform="translate(-622.242 -247.611)"/><path class="k" d="M886.862,275.1a3.586,3.586,0,0,0-.2-1.74,1.324,1.324,0,0,0-1.417-.814c-.763.179-1.086,1.172-1.84,1.411a1.47,1.47,0,0,1-1.628-.836,4.164,4.164,0,0,1-.309-1.943v-2.236a3.7,3.7,0,0,0-.526-2.326,4.106,4.106,0,0,0-3.061-1.107,2.6,2.6,0,0,0-1.748.7,2.249,2.249,0,0,1-1.837.654,1.582,1.582,0,0,1-1.281-1.107v-.027a9.1,9.1,0,1,1,13.531,12.082A24.6,24.6,0,0,0,886.862,275.1Z" transform="translate(-603.746 -173.625)"/><path class="aa" d="M867.955,251.775a1.6,1.6,0,0,1-1.284-1.11c-.073-.288-.054-.594-.138-.879-.209-.7-.958-1.067-1.46-1.6a3.586,3.586,0,0,1-.228-4.1,2.965,2.965,0,0,1,2.855-1.7c.722.125,1.357.638,2.079.687a4.2,4.2,0,0,0,1.989-.643,7.5,7.5,0,0,1,4.945-.44,2.85,2.85,0,0,1,1.357.687,11.9,11.9,0,0,1,.725,1.018c.83,1.058,2.32,1.267,3.647,1.506s2.828.765,3.257,2.041a5.334,5.334,0,0,1-.157,2.643.8.8,0,0,0,.035.543c.209.342.727.2,1.118.271.752.16.944,1.129.974,1.9q.046,1.319.07,2.641a3.36,3.36,0,0,1-.079.977,3.448,3.448,0,0,1-.757,1.229l-2.947,3.542c-1.308,1.569-2.695,3.4-2.443,5.428a1.264,1.264,0,0,1-1.558-.906,4.054,4.054,0,0,1,.1-2.011,24.646,24.646,0,0,0,.472-3.487,3.576,3.576,0,0,0-.2-1.737,1.324,1.324,0,0,0-1.417-.814c-.765.179-1.086,1.172-1.84,1.411a1.471,1.471,0,0,1-1.628-.836,4.153,4.153,0,0,1-.309-1.94v-2.239a3.7,3.7,0,0,0-.527-2.326,4.106,4.106,0,0,0-3.061-1.107,2.6,2.6,0,0,0-1.745.7A2.254,2.254,0,0,1,867.955,251.775Z" transform="translate(-597.41 -158.797)"/><path class="k" d="M885.3,381.92l2.8,11.482S890.3,393.389,885.3,381.92Z" transform="translate(-612.699 -260.926)"/><path class="k" d="M913.613,374.85s-3.658,5.992-2.231,12.191l.681.049S910.848,384.221,913.613,374.85Z" transform="translate(-631.463 -255.775)"/><path class="k" d="M929,498.964s4.494-1.487,4.82,1.962C933.831,500.926,932.984,498.562,929,498.964Z" transform="translate(-644.539 -345.973)"/><path class="k" d="M860.563,426.81s-.893,6.242.714,8.747a19.574,19.574,0,0,1-7.854,1.072l-.543-9.819Z" transform="translate(-589.078 -293.633)"/><path class="k" d="M874.85,434.111l-.432.242-2.768-6.242,2.589-2.32h.133C874.331,426.1,873.609,431.465,874.85,434.111Z" transform="translate(-602.754 -292.891)"/><path class="y" d="M853.634,425.83s-.893,6.242.714,8.744a19.516,19.516,0,0,1-7.854,1.072l-3.124-9.816Z" transform="translate(-582.148 -292.92)"/><path class="q" d="M795.931,789.868a2.022,2.022,0,0,1-1.734,1.769c-2.424.361-8.261,1.284-9.735,1.987-1.875.893-9.282.271-9.64-.624a1.417,1.417,0,0,1,.128-1.086,2.861,2.861,0,0,1,1.2-1.286,3.168,3.168,0,0,1,.543-.239c1.395-.464,4.03-1.452,4.741-2.489a30.237,30.237,0,0,0,4.223-4.426,2.144,2.144,0,0,1,1.715-1.069c.782-.035,1.653.358,2.011,2.071,0,0,4.28,2.443,5.428.3,0,0,.179,3.289.89,4.19h0a1.194,1.194,0,0,1,.234.9Z" transform="translate(-532.164 -552.723)"/><path class="k" d="M795.931,807.491a2.022,2.022,0,0,1-1.734,1.769c-2.424.361-8.261,1.284-9.735,1.987-1.875.893-9.282.271-9.64-.624a1.417,1.417,0,0,1,.128-1.086,2.861,2.861,0,0,1,1.2-1.286c1.208.814,3.889,1.585,9.786.665,5.626-.879,8.413-1.74,9.77-2.326h0a1.194,1.194,0,0,1,.228.9Z" transform="translate(-532.164 -570.346)"/><g class="r" transform="translate(266.896 87.174)"><path d="M942.413,266.591v-.043a7.99,7.99,0,0,0,.271-2.027,13.385,13.385,0,0,1-.271,1.628A.988.988,0,0,0,942.413,266.591Z" transform="translate(-921.192 -262.561)"/><path d="M880.3,269.684a2.58,2.58,0,0,1,.22,1.02,3.075,3.075,0,0,0-.22-1.422,1.319,1.319,0,0,0-1.414-.814c-.765.179-1.086,1.172-1.843,1.411a1.474,1.474,0,0,1-1.628-.836,4.129,4.129,0,0,1-.309-1.943v-2.236a3.7,3.7,0,0,0-.526-2.326,4.113,4.113,0,0,0-3.061-1.11,2.6,2.6,0,0,0-1.748.706,2.255,2.255,0,0,1-1.84.654,1.59,1.59,0,0,1-1.281-1.107c-.073-.288-.054-.6-.138-.882-.209-.7-.958-1.067-1.46-1.6a2.923,2.923,0,0,1-.752-1.9,3.042,3.042,0,0,0,.752,2.288c.5.543,1.251.9,1.46,1.6.084.271.065.594.138.882a1.59,1.59,0,0,0,1.281,1.107,2.255,2.255,0,0,0,1.84-.654,2.6,2.6,0,0,1,1.748-.706,4.1,4.1,0,0,1,3.061,1.11,3.723,3.723,0,0,1,.526,2.326v2.236a4.107,4.107,0,0,0,.309,1.94,1.477,1.477,0,0,0,1.628.839c.749-.239,1.086-1.232,1.843-1.411A1.371,1.371,0,0,1,880.3,269.684Z" transform="translate(-864.285 -257.3)"/><path d="M933.793,292.328a3.428,3.428,0,0,1-.76,1.227l-2.947,3.542c-1.24,1.49-2.551,3.216-2.442,5.118.09-1.745,1.305-3.333,2.442-4.717l2.947-3.542a3.428,3.428,0,0,0,.76-1.227,3.385,3.385,0,0,0,.079-.98A2.577,2.577,0,0,1,933.793,292.328Z" transform="translate(-910.444 -282.401)"/><path d="M921.737,326.828a2.079,2.079,0,0,1-.089-.478,2.4,2.4,0,0,0,.089.879,1.259,1.259,0,0,0,1.558.9,3.842,3.842,0,0,1-.033-.391A1.261,1.261,0,0,1,921.737,326.828Z" transform="translate(-906.074 -307.611)"/></g><path class="k" d="M812.69,789.36s.934,1.628,4.315.2" transform="translate(-559.795 -557.793)"/><path class="k" d="M918,790.82s2.915,3.433,6.589,1.126" transform="translate(-636.525 -558.855)"/><path class="k" d="M943.548,641.23s-2.06,1.286-2.125,2.022,1.064-.543,1.064-.543Z" transform="translate(-653.59 -449.863)"/><path class="k" d="M942.332,677.59a4.307,4.307,0,0,1-2.537.991c-1.541.068-1.411,2.076-.4,1.474A25.248,25.248,0,0,0,942.332,677.59Z" transform="translate(-651.559 -476.355)"/><path class="k" d="M948.891,682.34s-.988,4.855-1.791,3.919" transform="translate(-657.729 -479.816)"/></g></g></g></g></svg>