<svg xmlns="http://www.w3.org/2000/svg" xmlns:xlink="http://www.w3.org/1999/xlink" width="343" height="142" viewBox="0 0 343 142"><defs><style>.a{fill:#fff;}.b{clip-path:url(#a);}.c{fill:#f2f2f2;}.d{fill:#9abcfe;}.e{fill:#b8d1ff;}.f{fill:#eaf0fb;}.g{fill:url(#b);}.h{fill:#fbbebe;}.i{fill:#444053;}.j{fill:#b07473;}.k,.r,.t{opacity:0.1;}.l{fill:#6c63ff;}.m{fill:#67647e;}.n,.t{fill:#474463;}.o{fill:#e1e7ef;}.p{fill:url(#c);}.q{fill:#a27772;}.s{fill:#585268;}.u{fill:url(#d);}.v{fill:#f6f8fb;}.w{fill:url(#j);}.x{fill:#65617d;}.y{fill:url(#k);}.z{opacity:0.05;}.aa{fill:#7c5c5c;}</style><clipPath id="a"><rect class="a" width="343" height="142" transform="translate(282 2968)"/></clipPath><linearGradient id="b" x1="0.5" y1="1" x2="0.5" gradientUnits="objectBoundingBox"><stop offset="0" stop-color="gray" stop-opacity="0.251"/><stop offset="0.54" stop-color="gray" stop-opacity="0.122"/><stop offset="1" stop-color="gray" stop-opacity="0.102"/></linearGradient><linearGradient id="c" x1="0.5" x2="0.5" y2="0" xlink:href="#b"/><linearGradient id="d" x1="0.5" x2="0.5" y2="1" gradientUnits="objectBoundingBox"><stop offset="0" stop-color="#ffa330"/><stop offset="0.274" stop-color="#ff9346"/><stop offset="0.539" stop-color="#ff8559"/><stop offset="0.766" stop-color="#fb7a6a"/><stop offset="1" stop-color="#f07379"/></linearGradient><linearGradient id="j" x1="0.5" x2="0.5" y2="0" xlink:href="#b"/><linearGradient id="k" x1="0.5" x2="0.5" y2="1" gradientUnits="objectBoundingBox"><stop offset="0" stop-color="#5690ff"/><stop offset="1" stop-color="#766de8"/></linearGradient></defs><g class="b" transform="translate(-282 -2968)"><g transform="translate(282 2968)"><path class="c" d="M105.422,608.119a5.614,5.614,0,1,1,11.228,0" transform="translate(-95.833 -478.66)"/><path class="d" d="M122.276,612.956a.152.152,0,0,1-.152-.152v-2.961a.152.152,0,1,1,.3,0V612.8a.152.152,0,0,1-.152.152Z" transform="translate(-107.072 -483.497)"/><path class="d" d="M118.529,612.719a.152.152,0,0,1-.1-.037l-1.821-1.564a.152.152,0,0,1,.2-.23l1.821,1.564a.152.152,0,0,1-.1.267Z" transform="translate(-103.325 -484.278)"/><path class="c" d="M158.31,608.119a5.614,5.614,0,1,1,11.228,0" transform="translate(-131.423 -478.66)"/><path class="d" d="M175.163,612.956a.152.152,0,0,1-.152-.152v-2.961a.152.152,0,1,1,.3,0V612.8a.152.152,0,0,1-.152.152Z" transform="translate(-142.661 -483.497)"/><path class="d" d="M171.417,612.719a.151.151,0,0,1-.1-.037l-1.821-1.564a.152.152,0,0,1,.2-.23l1.821,1.564a.152.152,0,0,1-.1.267Z" transform="translate(-138.915 -484.278)"/><ellipse class="e" cx="10.793" cy="10.803" rx="10.793" ry="10.803" transform="translate(245.887 0.428)"/><path class="f" d="M167.583,269.353c2.573-8.043,8.857-14.28,16.309-17.99,8.842-4.4,19-4.9,28.6-3.187,10.363,1.849,20.049,6.112,29.425,10.765,9.2,4.563,18.244,9.382,27.807,13.153A179.875,179.875,0,0,0,329.562,284.5c18.457.616,38.191-1.408,53.994-11.791,14.48-9.513,23.694-25.208,28.493-41.568q.922-3.142,1.639-6.337c.139-.615-.806-.878-.946-.261-3.871,17.084-12.126,33.968-26.23,44.858-15.255,11.778-35.275,14.5-54.011,14.189a179.006,179.006,0,0,1-60.616-11.707c-9.81-3.738-19.067-8.591-28.442-13.277-9.169-4.583-18.6-8.873-28.678-10.987-9.207-1.93-19.064-2.048-27.941,1.387-7.309,2.828-13.974,7.869-17.874,14.764a28.328,28.328,0,0,0-2.313,5.322c-.193.6.754.862.946.261Z" transform="translate(-137.009 -224.191)"/><path class="e" d="M249.83,509.828c0-5.781-4.686-19.5-10.466-19.5s-10.466,13.719-10.466,19.5a10.466,10.466,0,1,0,20.932,0Z" transform="translate(-178.924 -403.208)"/><path class="f" d="M241.83,509.828c0-5.781-4.686-19.5-10.466-19.5s-10.466,13.719-10.466,19.5a10.466,10.466,0,1,0,20.932,0Z" transform="translate(-173.54 -403.208)"/><path class="d" d="M253.225,560.143a.327.327,0,0,1-.327-.327v-29.18a.327.327,0,1,1,.654,0v29.18A.327.327,0,0,1,253.225,560.143Z" transform="translate(-195.074 -430.101)"/><path class="d" d="M253.225,535.78a.327.327,0,0,1-.231-.559l4.277-4.281a.327.327,0,0,1,.462.463l-4.277,4.281A.326.326,0,0,1,253.225,535.78Z" transform="translate(-195.074 -430.461)"/><path class="e" d="M685.83,509.828c0-5.781-4.686-19.5-10.466-19.5s-10.466,13.719-10.466,19.5a10.466,10.466,0,1,0,20.932,0Z" transform="translate(-472.322 -403.208)"/><path class="f" d="M677.83,509.828c0-5.781-4.686-19.5-10.466-19.5s-10.466,13.719-10.466,19.5a10.466,10.466,0,1,0,20.932,0Z" transform="translate(-466.939 -403.208)"/><path class="d" d="M689.225,560.143a.327.327,0,0,1-.327-.327v-29.18a.327.327,0,1,1,.654,0v29.18A.327.327,0,0,1,689.225,560.143Z" transform="translate(-488.473 -430.101)"/><path class="d" d="M689.225,535.78a.327.327,0,0,1-.231-.559l4.277-4.281a.327.327,0,0,1,.463.463l-4.277,4.281a.326.326,0,0,1-.231.1Z" transform="translate(-488.473 -430.461)"/><path class="e" d="M346.1,245.058H340.87a1.474,1.474,0,0,1-1.472-1.473V231.473A1.474,1.474,0,0,1,340.87,230H346.1a1.474,1.474,0,0,1,1.472,1.473v12.112a1.474,1.474,0,0,1-1.472,1.473Z" transform="translate(-253.283 -228.098)"/><path class="e" d="M362,386.918H335.178a2.784,2.784,0,0,1-2.78-2.782V275.782a2.784,2.784,0,0,1,2.78-2.782H362a2.784,2.784,0,0,1,2.78,2.782V384.135A2.784,2.784,0,0,1,362,386.918Z" transform="translate(-248.572 -257.022)"/><path class="f" d="M313,386.918H286.178a2.784,2.784,0,0,1-2.78-2.782V275.782a2.784,2.784,0,0,1,2.78-2.782H313a2.784,2.784,0,0,1,2.78,2.782V384.135A2.784,2.784,0,0,1,313,386.918Z" transform="translate(-215.598 -257.022)"/><path class="f" d="M331.1,245.058H325.87a1.474,1.474,0,0,1-1.472-1.473V231.473A1.474,1.474,0,0,1,325.87,230H331.1a1.474,1.474,0,0,1,1.472,1.473v12.112a1.474,1.474,0,0,1-1.472,1.473Z" transform="translate(-243.189 -228.098)"/><path class="a" d="M309.43,325.13h-6.214a.819.819,0,0,1-.818-.818v-9.493a.819.819,0,0,1,.818-.818h6.214a.819.819,0,0,1,.818.818v9.493A.819.819,0,0,1,309.43,325.13Z" transform="translate(-228.384 -284.601)"/><path class="a" d="M346.43,325.13h-6.214a.819.819,0,0,1-.818-.818v-9.493a.819.819,0,0,1,.818-.818h6.214a.819.819,0,0,1,.818.818v9.493A.819.819,0,0,1,346.43,325.13Z" transform="translate(-253.283 -284.601)"/><path class="a" d="M309.43,378.13h-6.214a.819.819,0,0,1-.818-.818v-9.493a.819.819,0,0,1,.818-.818h6.214a.819.819,0,0,1,.818.818v9.493A.819.819,0,0,1,309.43,378.13Z" transform="translate(-228.384 -320.251)"/><path class="a" d="M346.43,378.13h-6.214a.819.819,0,0,1-.818-.818v-9.493a.819.819,0,0,1,.818-.818h6.214a.819.819,0,0,1,.818.818v9.493A.819.819,0,0,1,346.43,378.13Z" transform="translate(-253.283 -320.251)"/><path class="a" d="M309.43,431.13h-6.214a.819.819,0,0,1-.818-.818v-9.493a.819.819,0,0,1,.818-.818h6.214a.819.819,0,0,1,.818.818v9.493A.819.819,0,0,1,309.43,431.13Z" transform="translate(-228.384 -355.902)"/><path class="a" d="M346.43,431.13h-6.214a.819.819,0,0,1-.818-.818v-9.493a.819.819,0,0,1,.818-.818h6.214a.819.819,0,0,1,.818.818v9.493A.819.819,0,0,1,346.43,431.13Z" transform="translate(-253.283 -355.902)"/><path class="a" d="M309.43,484.13h-6.214a.819.819,0,0,1-.818-.818v-9.493a.819.819,0,0,1,.818-.818h6.214a.819.819,0,0,1,.818.818v9.493A.819.819,0,0,1,309.43,484.13Z" transform="translate(-228.384 -391.552)"/><path class="a" d="M346.43,484.13h-6.214a.819.819,0,0,1-.818-.818v-9.493a.819.819,0,0,1,.818-.818h6.214a.819.819,0,0,1,.818.818v9.493A.819.819,0,0,1,346.43,484.13Z" transform="translate(-253.283 -391.552)"/><path class="a" d="M309.43,537.13h-6.214a.819.819,0,0,1-.818-.818v-9.493a.819.819,0,0,1,.818-.818h6.214a.819.819,0,0,1,.818.818v9.493A.819.819,0,0,1,309.43,537.13Z" transform="translate(-228.384 -427.203)"/><path class="a" d="M346.43,537.13h-6.214a.819.819,0,0,1-.818-.818v-9.493a.819.819,0,0,1,.818-.818h6.214a.819.819,0,0,1,.818.818v9.493A.819.819,0,0,1,346.43,537.13Z" transform="translate(-253.283 -427.203)"/><path class="e" d="M759.1,430.82H753.87a1.474,1.474,0,0,1-1.472-1.473v-6.874A1.474,1.474,0,0,1,753.87,421H759.1a1.474,1.474,0,0,1,1.472,1.473v6.874A1.474,1.474,0,0,1,759.1,430.82Z" transform="translate(-531.204 -356.575)"/><path class="e" d="M847,503.614h-26.82a2.784,2.784,0,0,1-2.78-2.782V448.783a2.784,2.784,0,0,1,2.78-2.783H847a2.784,2.784,0,0,1,2.78,2.783v52.049A2.784,2.784,0,0,1,847,503.614Z" transform="translate(-574.945 -373.391)"/><path class="f" d="M757.622,503.614H711.178a2.784,2.784,0,0,1-2.78-2.782V448.783a2.784,2.784,0,0,1,2.78-2.783h46.444a2.784,2.784,0,0,1,2.78,2.783v52.049A2.784,2.784,0,0,1,757.622,503.614Z" transform="translate(-503.042 -373.391)"/><path class="f" d="M744.1,430.82H738.87a1.474,1.474,0,0,1-1.472-1.473v-6.874A1.474,1.474,0,0,1,738.87,421H744.1a1.474,1.474,0,0,1,1.472,1.473v6.874A1.474,1.474,0,0,1,744.1,430.82Z" transform="translate(-521.11 -356.575)"/><path class="a" d="M764.43,501.63h-6.214a.819.819,0,0,1-.818-.818v-9.493a.819.819,0,0,1,.818-.818h6.214a.819.819,0,0,1,.818.818v9.493A.819.819,0,0,1,764.43,501.63Z" transform="translate(-534.569 -403.324)"/><path class="a" d="M801.43,501.63h-6.214a.819.819,0,0,1-.818-.818v-9.493a.819.819,0,0,1,.818-.818h6.214a.819.819,0,0,1,.818.818v9.493A.819.819,0,0,1,801.43,501.63Z" transform="translate(-559.467 -403.324)"/><path class="a" d="M764.43,554.63h-6.214a.819.819,0,0,1-.818-.818v-9.493a.819.819,0,0,1,.818-.818h6.214a.819.819,0,0,1,.818.818v9.493A.819.819,0,0,1,764.43,554.63Z" transform="translate(-534.569 -438.974)"/><path class="a" d="M801.43,554.63h-6.214a.819.819,0,0,1-.818-.818v-9.493a.819.819,0,0,1,.818-.818h6.214a.819.819,0,0,1,.818.818v9.493A.819.819,0,0,1,801.43,554.63Z" transform="translate(-559.467 -438.974)"/><path class="d" d="M418.475,621.155H76.429a.327.327,0,0,1,0-.655H418.475a.327.327,0,0,1,0,.655Z" transform="translate(-76.102 -490.768)"/><path class="d" d="M375.642,656.155H345.225a.327.327,0,0,1,0-.655h30.417a.327.327,0,0,1,0,.655Z" transform="translate(-256.984 -514.311)"/><path class="d" d="M606.642,656.155H576.225a.327.327,0,0,1,0-.655h30.417a.327.327,0,0,1,0,.655Z" transform="translate(-412.431 -514.311)"/><path class="d" d="M837.642,656.155H807.225a.327.327,0,0,1,0-.655h30.417a.327.327,0,0,1,0,.655Z" transform="translate(-567.879 -514.311)"/><path class="e" d="M959.832,509.828c0-5.781-4.686-19.5-10.466-19.5s-10.466,13.719-10.466,19.5a10.466,10.466,0,1,0,20.932,0Z" transform="translate(-656.708 -403.208)"/><path class="f" d="M951.83,509.828c0-5.781-4.686-19.5-10.466-19.5s-10.466,13.719-10.466,19.5a10.466,10.466,0,1,0,20.932,0Z" transform="translate(-651.323 -403.208)"/><path class="d" d="M963.225,560.143a.327.327,0,0,1-.327-.327v-29.18a.327.327,0,1,1,.654,0v29.18A.327.327,0,0,1,963.225,560.143Z" transform="translate(-672.857 -430.101)"/><path class="d" d="M963.225,535.78a.327.327,0,0,1-.231-.559l4.277-4.281a.327.327,0,0,1,.462.463l-4.277,4.281a.326.326,0,0,1-.231.1Z" transform="translate(-672.857 -430.461)"/><path class="f" d="M989.422,608.119a5.614,5.614,0,1,1,11.228,0" transform="translate(-690.705 -478.66)"/><path class="d" d="M1006.278,612.956a.152.152,0,0,1-.152-.152v-2.961a.152.152,0,1,1,.3,0V612.8a.152.152,0,0,1-.152.152Z" transform="translate(-701.946 -483.497)"/><path class="d" d="M1002.532,612.719a.152.152,0,0,1-.1-.037l-1.821-1.564a.152.152,0,0,1,.2-.23l1.821,1.564a.152.152,0,0,1-.1.267Z" transform="translate(-698.2 -484.278)"/><path class="f" d="M1042.31,608.119a5.614,5.614,0,1,1,11.229,0" transform="translate(-726.296 -478.66)"/><path class="d" d="M1059.168,612.956a.152.152,0,0,1-.152-.152v-2.961a.152.152,0,1,1,.3,0V612.8a.152.152,0,0,1-.152.152Z" transform="translate(-737.538 -483.497)"/><path class="d" d="M1055.422,612.719a.152.152,0,0,1-.1-.037l-1.821-1.564a.152.152,0,1,1,.2-.23l1.821,1.564a.152.152,0,0,1-.1.267Z" transform="translate(-733.791 -484.278)"/><g transform="translate(86.625 65.929)"><g transform="translate(0 12.954)"><path class="g" d="M432.314,158.4a37.136,37.136,0,0,0-1.619-5.106h0q-.036-.158-.082-.316c-.987-3.392-2.353-3.687-2.353-3.687l-4.894-1.053a.38.38,0,0,1,.105.1.685.685,0,0,0-.077.012,1.917,1.917,0,0,1-.429-.927c-.009-.051-.018-.105-.024-.157a3.443,3.443,0,0,0-.28-5.176c-.052-.04-.105-.079-.157-.116a.78.78,0,0,0,.065-.928,3.235,3.235,0,0,0-2.086-1.555,3.536,3.536,0,0,0-2.025-.043,7.313,7.313,0,0,0-1.06.492,5.958,5.958,0,0,0-1.855,1.116.544.544,0,0,0-.185.448,1.207,1.207,0,0,0,.184.326.983.983,0,0,1,.009.815,7.892,7.892,0,0,0-.3.784.819.819,0,0,0,.163.787,3.461,3.461,0,0,0,.306.211,1.6,1.6,0,0,1,.292.328q.291.39.579.783a8.062,8.062,0,0,1,.726,1.1,5.372,5.372,0,0,0,.449.843,1.252,1.252,0,0,0,.193.2l-.057-.022a.877.877,0,0,0,.644.262h.029a.177.177,0,0,0,.118-.048v.105c.012.376.009.776-.017,1.152l-.045-.023a.4.4,0,0,0-.421.044l-4.506,3.615a5.934,5.934,0,0,0-.843,3.653l-.79,3.469s-.987,2.943-.228,5.045,1.2,3.3,1.2,3.3.3,2.388.76,2.583.653.3.653.3l.091.571h0s.031.056.084.15c.332.577,1.561,2.615,2.276,2.4a9.131,9.131,0,0,1,.116,1.674l.707,4.746a6.981,6.981,0,0,1,.462,1.967,3.749,3.749,0,0,0,.575,1.64,3.134,3.134,0,0,0-.3,2.207c.289,1.264.653,7.088.653,7.088l.527,1.412-.015,1.655a1.58,1.58,0,0,1-.327.737c-.341.371-.316.8-1.139,1.306s-1.344.7-1.344,1.369a1.762,1.762,0,0,1-.025.279c-.076.493-.223.761,1.289.9a3.989,3.989,0,0,0,2.962-.99s.261-.474,1.492-.666c0,0,.421-.022.444-.394.008-.129.006-.374,0-.645a3.966,3.966,0,0,0-.135-1.146,2.5,2.5,0,0,1-.275-.743h.342a14.978,14.978,0,0,0,0-3.935,6.383,6.383,0,0,1-.031-2.643l-.061-4.084a1.167,1.167,0,0,1-.091-1.247c.331-.8,0-4.73,0-4.73s.122-1.412.471-1.742.017-2.068,0-2.159l.622,2.085s.273,4.144.851,4.894l.166,1.877s1.184,1.728.957,2.658a21.54,21.54,0,0,0,.243,4.295v3.44s-.532,1.381.211,1.877l.316-.013c-.105.1-.186.245-.31.373a2.848,2.848,0,0,0-.269,1.183c-.038.406-.051.754-.051.754a1.242,1.242,0,0,0,.911.54,10.6,10.6,0,0,1,2.557,1.526,23.2,23.2,0,0,0,2.439-.105l.029-.007a.658.658,0,0,0,.378-.309.79.79,0,0,0,.091-.568,1.418,1.418,0,0,0-.818-.9c-1.295-.683-1.487-1.322-1.487-1.322l-.85-1.276h.121a5.457,5.457,0,0,1,.85-2.869l-.06-6.682a7.154,7.154,0,0,0-.273-3.545s-.054-1.321.382-1.727-.58-4.5-.58-4.5-.211-2.2-.458-4.209h0c1.025.972,2.088-2.528,2.267-3.151h.026l-.012-.045c.007-.029.012-.044.012-.044h0s-.228-.809-.061-.645.577-.451.577-.451a16.417,16.417,0,0,1,.653-5.037C433.345,162.509,432.314,158.4,432.314,158.4Zm-3.055,2.131.005-.009c.105,2.045-.02,6.408-.02,6.408s-.141.559-.292,1.218L428.847,164h0l-.105-3.905Zm-13.074-1.41s.516,6.457,0,7.388a4.88,4.88,0,0,0-.372,1.276,4.694,4.694,0,0,1-.4-2.056,9.281,9.281,0,0,0-.334-2.658,4.491,4.491,0,0,1,.316-1.825c.361-.771.124-1.105.124-1.105S415.82,158.876,416.184,159.12Z" transform="translate(-411.554 -139.315)"/><path class="h" d="M444.279,438.109c-.45,1.977-2.239-1.012-2.646-1.73-.053-.094-.082-.149-.082-.149l.194-.909,1.025-.421a2.866,2.866,0,0,1,.459.3A2.769,2.769,0,0,1,444.279,438.109Z" transform="translate(-438.391 -403.761)"/><path class="h" d="M574.145,430.347a.139.139,0,0,1-.012.044.228.228,0,0,1-.014.047c-.176.617-1.219,4.093-2.226,3.128-1.1-1.053-.567-3.489-.567-3.489h.007l2.318-.237.459.472h0Z" transform="translate(-554.379 -399.235)"/><path class="i" d="M466.056,449.722l.059,6.637a5.443,5.443,0,0,0-.834,2.844l-3,.118c-.731-.492-.211-1.863-.211-1.863v-3.417a21.607,21.607,0,0,1-.239-4.263c.223-.925-.939-2.634-.939-2.634l-.164-1.864c-.567-.745-.835-4.859-.835-4.859l-.608-2.077c.017.09.333,1.824,0,2.143s-.462,1.729-.462,1.729.328,3.906,0,4.7a1.162,1.162,0,0,0,.089,1.238l.06,4.055a6.341,6.341,0,0,0,.029,2.623,14.915,14.915,0,0,1,0,3.906H455.79l.015-1.655-.52-1.4s-.358-5.784-.642-7.036a3.143,3.143,0,0,1,.3-2.191,3.728,3.728,0,0,1-.566-1.624,6.948,6.948,0,0,0-.459-1.951l-.693-4.71a9.151,9.151,0,0,0-.343-2.683c-.4-1.342-1-3.1-1-3.1l.673.06,3.4.3s8.258-.555,8.628-.094a1.55,1.55,0,0,1,.156.481c.371,1.666.861,6.883.861,6.883s1,4.069.57,4.472-.376,1.713-.376,1.713A7.17,7.17,0,0,1,466.056,449.722Z" transform="translate(-447.632 -401.507)"/><path class="j" d="M468.258,679.618c-.023.37-.435.392-.435.392-1.207.19-1.464.659-1.464.659a3.878,3.878,0,0,1-2.906.984c-1.485-.143-1.341-.408-1.264-.9a1.859,1.859,0,0,0,.024-.276c0-.671.514-.862,1.319-1.37s.783-.928,1.118-1.3a2.055,2.055,0,0,0,.37-1.084c.379-.661,1.341.105,1.341.105.045.234,1.475.2,1.475.2a3.147,3.147,0,0,0,.288.8,3.956,3.956,0,0,1,.132,1.138C468.264,679.247,468.266,679.491,468.258,679.618Z" transform="translate(-456.815 -619.875)"/><path class="k" d="M468.258,701.017c-.023.37-.435.392-.435.392-1.207.19-1.464.659-1.464.659a3.878,3.878,0,0,1-2.906.984c-1.485-.143-1.341-.408-1.264-.9a4.308,4.308,0,0,0,2.673-.008c1.029-.558,1.768-.948,1.768-.948l1.627-.819C468.264,700.647,468.266,700.89,468.258,701.017Z" transform="translate(-456.815 -641.275)"/><path class="j" d="M553.971,685.231a.643.643,0,0,1-.371.307l-.028.007a22.359,22.359,0,0,1-2.393.105,10.35,10.35,0,0,0-2.5-1.52,1.223,1.223,0,0,1-.894-.537s.012-.346.049-.748a2.855,2.855,0,0,1,.264-1.175c.257-.269.316-.632.894-.4,0,0,.826-1.456,1.8-.331l1.007,1.528s.19.632,1.465,1.318a1.413,1.413,0,0,1,.8.89A.785.785,0,0,1,553.971,685.231Z" transform="translate(-533.43 -623.497)"/><path class="k" d="M553.971,705.056c-.114.1-.239.2-.371.307l-.028.007a22.333,22.333,0,0,1-2.393.105,10.35,10.35,0,0,0-2.5-1.52,1.223,1.223,0,0,1-.894-.537s.012-.346.049-.748a4.15,4.15,0,0,1,1.729.827,7.326,7.326,0,0,0,1.488,1.229s2.088-.2,3.015-.229A.785.785,0,0,1,553.971,705.056Z" transform="translate(-533.43 -643.323)"/><path class="h" d="M482.132,201.836l-2.75,2.907s-3.332-.245-2.751-1.229a5.529,5.529,0,0,0,.316-2.463c-.024-.88-.115-1.629-.115-1.629s4.673-2.326,4.319-.157a3.571,3.571,0,0,0-.013,1.238A1.622,1.622,0,0,0,482.132,201.836Z" transform="translate(-469.715 -192.122)"/><path class="k" d="M483.435,199.265a3.569,3.569,0,0,0-.013,1.238,3.43,3.43,0,0,1-2.446,1.021,4.19,4.19,0,0,1-1.827-.82c-.024-.881-.03-1.282-.03-1.282S483.793,197.1,483.435,199.265Z" transform="translate(-472.003 -192.122)"/><path class="h" d="M470.926,164.934a3.444,3.444,0,1,1-1.3-2.691A3.444,3.444,0,0,1,470.926,164.934Z" transform="translate(-458.509 -159.156)"/><path class="k" d="M469.162,433.622c-.858,2.041-6.374,2.083-6.374,2.083V433.48l-.334-.022a7.661,7.661,0,0,1-.2,2.191c-4.359.615-5.422-1.869-5.422-1.869l.152-.85,3.4.3s8.258-.555,8.628-.094A1.552,1.552,0,0,1,469.162,433.622Z" transform="translate(-452.061 -402)"/><path class="l" d="M462.788,251.719v-2.225l-.334-.021a7.685,7.685,0,0,1-.2,2.191c-3.28.462-4.694-.829-5.193-1.5a2.035,2.035,0,0,1-.23-.371l1.332-7.49.316-11.023.477-1.934.111-.928v-.011h.012l.339.145,2.03.878,2.306-1.741.034-.024.115-.087.191.153.474.38,1.52,9.817a100.261,100.261,0,0,1,3.127,10.609c.02.122.036.236.048.342C469.586,251.667,462.788,251.719,462.788,251.719Z" transform="translate(-452.061 -218.282)"/><circle class="m" cx="0.196" cy="0.196" r="0.196" transform="translate(9.436 11.172)"/><circle class="m" cx="0.196" cy="0.196" r="0.196" transform="translate(9.527 12.961)"/><circle class="m" cx="0.196" cy="0.196" r="0.196" transform="translate(9.723 15.857)"/><circle class="m" cx="0.196" cy="0.196" r="0.196" transform="translate(10.046 18.976)"/><circle class="m" cx="0.196" cy="0.196" r="0.196" transform="translate(10.242 21.905)"/><circle class="m" cx="0.196" cy="0.196" r="0.196" transform="translate(10.438 25.024)"/><circle class="m" cx="0.196" cy="0.196" r="0.196" transform="translate(10.36 28.11)"/><path class="k" d="M459.187,250.183a17.639,17.639,0,0,1-.622,3.7,13.586,13.586,0,0,0-.582,3.175l-.934-.105a2.037,2.037,0,0,1-.23-.371l1.332-7.49.316-11.023.478-1.935.111-.928.013-.005a.377.377,0,0,1,.333.005l.044.023q-.02.057-.038.117a17.906,17.906,0,0,0-.5,3.244s.527,3.846.582,5.635S459.187,250.183,459.187,250.183Z" transform="translate(-452.052 -225.07)"/><path class="k" d="M443.228,435.2a.536.536,0,0,1-.036.07,3.354,3.354,0,0,1-1.56,1.107c-.053-.094-.082-.149-.082-.149l.194-.909,1.025-.421A2.867,2.867,0,0,1,443.228,435.2Z" transform="translate(-438.391 -403.761)"/><path class="i" d="M415.819,298.81l-.85.507-.774,3.444s-.969,2.921-.224,5.008,1.178,3.282,1.178,3.282.3,2.37.746,2.564.641.3.641.3l.09.567a3.541,3.541,0,0,0,1.642-1.138c.429-.726-.316-2.528-.316-2.528a5.51,5.51,0,0,1-.476-2.251,9.246,9.246,0,0,0-.329-2.634,4.464,4.464,0,0,1,.316-1.812c.36-.768.12-1.1.12-1.1l-.224-2.191Z" transform="translate(-413.464 -282.008)"/><path class="k" d="M527.555,249.9s-2.251.849-2.967.105-.642-4.234-.642-4.234a69.562,69.562,0,0,0-1.118-7.5c-.433-1.058-.211-8.691-.211-8.691a4.626,4.626,0,0,0-.545-1.245.276.276,0,0,0-.054-.043l.087.019.305.065.474.38,1.52,9.817a100.248,100.248,0,0,1,3.127,10.609Z" transform="translate(-510.383 -218.917)"/><path class="k" d="M575.23,430.418H575.2c-.283.037-2.784.339-2.795-.181a1.544,1.544,0,0,1,.009-.18l2.318-.237.459.472h0c.008.031.015.057.021.078Z" transform="translate(-555.465 -399.217)"/><path class="i" d="M572.829,266.07l1.643.858a36.526,36.526,0,0,1,1.589,5.066s1.015,4.073.316,5.748a16.551,16.551,0,0,0-.641,5s-.4.611-.567.448.06.64.06.64-2.81.373-2.821-.179a28.8,28.8,0,0,1,.645-3.19,71.388,71.388,0,0,0-.075-7.259C572.725,272.217,572.829,266.07,572.829,266.07Z" transform="translate(-555.463 -252.717)"/><path class="k" d="M518.456,329.52a12.28,12.28,0,0,1-1.223,2.415c-.3.15.06.745.06.745S518.978,330.325,518.456,329.52Z" transform="translate(-505.995 -309.483)"/><path class="k" d="M512.357,254.09c.01-.043-1.1,1.092-1.4,1.264S512.044,255.343,512.357,254.09Z" transform="translate(-500.447 -241.998)"/><path class="k" d="M482.481,327.82s-1.7,1.1-1.475,1.534S482.481,327.82,482.481,327.82Z" transform="translate(-473.672 -307.962)"/><path class="k" d="M524.47,480.07a9.1,9.1,0,0,0,3.7,1.159Z" transform="translate(-512.575 -444.173)"/><path class="k" d="M491.5,501.3s1.341,1.686,1.953,1.729S491.5,501.3,491.5,501.3Z" transform="translate(-483.078 -463.167)"/><path class="k" d="M495.588,564c-.06.029-.761,1.52-1.475,1.565S495.588,564,495.588,564Z" transform="translate(-485.288 -519.261)"/><path class="k" d="M568.33,594.625s1.329-.3,1.625.655C569.956,595.277,569.866,594.979,568.33,594.625Z" transform="translate(-551.815 -546.621)"/><path class="k" d="M559.84,645.772s1.611-.329,1.953.119S559.84,645.772,559.84,645.772Z" transform="translate(-544.219 -592.315)"/><path class="k" d="M503.157,654c0,.015-1.639.329-1.58.537s1.749.179,1.809-.15a.316.316,0,0,0-.229-.388Z" transform="translate(-492.092 -599.781)"/><path class="k" d="M554.75,666.615s2.694-.329,2.528.238S554.75,666.615,554.75,666.615Z" transform="translate(-539.665 -610.982)"/><path class="k" d="M420.89,352.44c.015.044,1.774.283,2.012.85a15.129,15.129,0,0,0-2-.806" transform="translate(-419.907 -329.989)"/><path class="k" d="M432.812,396.16s-1.461.462-1.357,1.159S431.306,397,432.812,396.16Z" transform="translate(-429.354 -369.102)"/><path class="k" d="M437.92,424.637s.532-.73,1.039-.6S437.92,424.637,437.92,424.637Z" transform="translate(-435.142 -394.032)"/><path class="k" d="M469.673,162.238a.827.827,0,0,1-.171.127,1.967,1.967,0,0,0-.737,1.06,2.254,2.254,0,0,1-.768,1.048c-.486.293-1.125.185-1.63.44a1.264,1.264,0,0,0-.674,1.246,3.594,3.594,0,0,0,.143.571,4.07,4.07,0,0,1,.154,1.24.207.207,0,0,1,0,.037,3.443,3.443,0,1,1,3.687-5.77Z" transform="translate(-458.553 -159.15)"/><path class="n" d="M454.982,144.235a3.178,3.178,0,0,0-2.047-1.543,3.438,3.438,0,0,0-1.988-.042,7.289,7.289,0,0,0-1.04.488,5.881,5.881,0,0,0-1.82,1.107.555.555,0,0,0-.182.445,1.242,1.242,0,0,0,.18.322.978.978,0,0,1,.01.81,7.417,7.417,0,0,0-.3.779.819.819,0,0,0,.16.781,2.92,2.92,0,0,0,.3.211,1.585,1.585,0,0,1,.285.324l.569.777a7.885,7.885,0,0,1,.712,1.095,5.219,5.219,0,0,0,.44.835.953.953,0,0,0,.8.427.155.155,0,0,0,.126-.06.166.166,0,0,0,.016-.079,4.043,4.043,0,0,0-.151-1.236,3.563,3.563,0,0,1-.143-.571,1.269,1.269,0,0,1,.674-1.246c.506-.255,1.145-.147,1.63-.439a2.239,2.239,0,0,0,.768-1.053,1.983,1.983,0,0,1,.737-1.06A.741.741,0,0,0,454.982,144.235Z" transform="translate(-443.951 -142.184)"/><path class="k" d="M501.63,693.06s.527.671.39,1.053S501.63,693.06,501.63,693.06Z" transform="translate(-492.141 -634.726)"/><path class="k" d="M569.28,701.187s.117-.9.586-.908a1.567,1.567,0,0,1,.85.09c.358.138.694.352.587.383s-.616-.514-1.139-.235A3.766,3.766,0,0,0,569.28,701.187Z" transform="translate(-552.664 -641.174)"/><path class="k" d="M475.044,237.653l1.475-1.033s-2.157-1.275-2.414-1.1-.434,1.791-.434,1.791Z" transform="translate(-467.127 -225.373)"/><path class="o" d="M474.984,236.853l1.475-1.053s-2.157-1.275-2.415-1.1-.434,1.879-.434,1.879Z" transform="translate(-467.073 -224.64)"/><path class="l" d="M474.984,236.853l1.475-1.053s-2.157-1.275-2.415-1.1-.434,1.879-.434,1.879Z" transform="translate(-467.073 -224.64)"/><path class="i" d="M431.442,234.388l-.044-.022a.382.382,0,0,0-.414.043L426.56,238a5.942,5.942,0,0,0-.828,3.626l2.609,3.7s.3-1.252.655-1.013c0,0,.507,6.41,0,7.334s-.73,4.382-.73,4.382l1.714.194a13.587,13.587,0,0,1,.581-3.175,17.641,17.641,0,0,0,.622-3.7s.362-4.167.3-5.956-.581-5.635-.581-5.635A17.081,17.081,0,0,1,431.442,234.388Z" transform="translate(-424.227 -224.316)"/><path class="k" d="M506.278,230.554l-1.838-.681s2.341-2.564,2.634-1.142Z" transform="translate(-494.655 -218.928)"/><path class="o" d="M506.278,229.7l-1.838-.681s2.341-2.564,2.634-1.142Z" transform="translate(-494.655 -218.167)"/><path class="l" d="M506.278,229.7l-1.838-.681s2.341-2.564,2.634-1.142Z" transform="translate(-494.655 -218.167)"/><path class="k" d="M521.32,228.109a.105.105,0,0,1,.076.017Z" transform="translate(-509.757 -218.754)"/><path class="i" d="M523,226.414l4.878,1.053s1.342.3,2.311,3.667-1.327,7.5-1.327,7.5l-.507-.431.254,9.838s-2.251.849-2.967.105-.64-4.237-.64-4.237a69.656,69.656,0,0,0-1.119-7.5c-.433-1.059-.211-8.69-.211-8.69S523.274,226.355,523,226.414Z" transform="translate(-511.259 -217.237)"/><path class="k" d="M564.817,285.565a27.9,27.9,0,0,0,.15,5.306,28.907,28.907,0,0,0,.843,4.084l-.442-9.078S565.025,285.371,564.817,285.565Z" transform="translate(-548.614 -270.119)"/><path class="k" d="M559.7,261.6a2.645,2.645,0,0,1,.4,1.818C559.863,263.925,559.7,261.6,559.7,261.6Z" transform="translate(-544.093 -248.718)"/><path class="k" d="M477.342,149.253a2.693,2.693,0,0,0-1.072-1.123,2.55,2.55,0,0,1,.8.948.749.749,0,0,1-.261,1.074,1.973,1.973,0,0,0-.737,1.06,2.29,2.29,0,0,1-.769,1.053c-.485.293-1.124.184-1.63.439a1.273,1.273,0,0,0-.674,1.247,3.591,3.591,0,0,0,.144.57,4.075,4.075,0,0,1,.154,1.24.167.167,0,0,1-.017.079.151.151,0,0,1-.125.06.726.726,0,0,1-.368-.068.855.855,0,0,0,.632.248.124.124,0,0,0,.141-.139,4.043,4.043,0,0,0-.153-1.24,3.457,3.457,0,0,1-.144-.571,1.269,1.269,0,0,1,.674-1.246c.506-.255,1.145-.147,1.63-.439a2.239,2.239,0,0,0,.768-1.053,1.984,1.984,0,0,1,.737-1.06A.75.75,0,0,0,477.342,149.253Z" transform="translate(-466.34 -147.202)"/></g><path class="k" d="M779.42,382.17l.7.8A1,1,0,0,1,779.42,382.17Z" transform="translate(-706.12 -364.944)"/><path class="k" d="M736.99,360.8l1.084,1.393-.541.13Z" transform="translate(-664.877 -343.703)"/><g transform="translate(46.044 0)"><path class="p" d="M626.475,183.05a4.319,4.319,0,0,1-3.458-2.306,2.317,2.317,0,0,1-.35-.987,1.137,1.137,0,0,1,.04-.236,2.447,2.447,0,0,0,.105-.361.641.641,0,0,0,0-.147V179a.872.872,0,0,0-.316-.709c-.194-.182-.437-.316-.639-.5a3,3,0,0,1-.825-2.263v-.044c.007-.358.036-.717.033-1.076a4.519,4.519,0,0,0-.026-.609,2.012,2.012,0,0,0-.651-1.346c-1.039-.843-2.785.035-3.861-.762-.261-.195-.473-.482-.79-.558a1.331,1.331,0,0,0-.722.1,2.943,2.943,0,0,0-1.986,1.37c-.177.439-.128.941-.29,1.385a6.917,6.917,0,0,1-.453.836,1.308,1.308,0,0,0-.169.7.788.788,0,0,0,.052.372.949.949,0,0,0,.258.37,1.218,1.218,0,0,1-.154.247c-.2.248-.513.421-.724.668a1.578,1.578,0,0,0-.183,1.6c.192.531.538,1.014.778,1.532a.823.823,0,0,1,.079.7,2.006,2.006,0,0,1-.35.407,1.278,1.278,0,0,0-.316.706,2.694,2.694,0,0,0-2.373,2.447h0l-1.281,3.221s-.205.543-.447,1.259l-1.516-.272,1.053,1.763a5.569,5.569,0,0,0-.294,1.719s-.471,2.212.367,2.6l1.848.831a1.093,1.093,0,0,0,.256.115l.075.034a.2.2,0,0,0,.173,0h.025a.249.249,0,0,0,.105-.016.21.21,0,0,0,.093-.1.032.032,0,0,1,0-.011l.553-.16.469.555c.211.149.421.277.62.393l-.726,7.208s-.117,9.586-.471,11.771a6.118,6.118,0,0,0-.082,1.736l-.014.023c.087.616.316.737.316.737v-.008l.014.008a6.214,6.214,0,0,1,.379-.813v.158c-.007.813-.033,1.952-.117,2.693a42.058,42.058,0,0,0,.367,5.431l.176,3.792a3.506,3.506,0,0,1-.432,1.848,8.723,8.723,0,0,0-1,2.3.476.476,0,0,0,0,.077h0l-.9,1.087s-.353.546.445.766a4.269,4.269,0,0,0,1.762-.14,1.178,1.178,0,0,0,.913-1.146,4.054,4.054,0,0,1,.746-1.432l.148.873.995.246.128-2.393A1.055,1.055,0,0,0,614,230.9h0c.2-1.7-.461-1.55-.461-1.55a.092.092,0,0,1,.032.059l-.032-.058h0a4.306,4.306,0,0,1-.211-2.107s.527-3.792.707-4.794a34.752,34.752,0,0,0,.033-4.319,1.529,1.529,0,0,0-.005-.157c1.542-.02,3.432-.072,4.759-.2v.156l-.244,8.96a4.919,4.919,0,0,1-.343,1.667.093.093,0,0,1-.012.031,7.268,7.268,0,0,0-.486,2.348l-.114,2.844v.079h0c-.2.076-.511.3-.519.934-.014.935,1.635.624,1.635.624a1.676,1.676,0,0,0,1.661-1.715s.052-1.573.131-2.625-.249-.821-.249-.821l-.025,2.994v-2.6l.025-.38v-.011h0v-.081l.208-3.088s1.518-5.145,1.753-6.132a23.143,23.143,0,0,0,.043-3.983.923.923,0,0,0-.008-.155c.471-.042.887-.046,1.053-.046h.077s-.078-8.263-.275-11.377-.51-5.964-1.295-6.821a14.112,14.112,0,0,1-1.58-3.3,16.525,16.525,0,0,0,2.9.948c2.485.52,2.145-1.637,2.145-1.637l-.252-4.08h.017a20.812,20.812,0,0,0-.274-3.19,9.386,9.386,0,0,0-.641-2.318c.27-.105.536-.218.8-.334.675-.3,1.436-.721,1.533-1.449h-.033A.935.935,0,0,0,626.475,183.05Zm-15.4,5.9h0c.005.421-.01,1.152-.036,1.961l-.789-1.053.791-1.283ZM621.643,191.089Zm.329,1.594-1.315-.421a5.9,5.9,0,0,1,.812-1l.114-.105-.041.008.063-.058.038-.008-.06.058.072-.015a2.243,2.243,0,0,0,.448.9c.472.515-.13.646-.13.646Z" transform="translate(-605.94 -171.119)"/><path class="q" d="M639.761,715.66l-.154,2.916-.981-.245-.206-1.213Z" transform="translate(-631.716 -656.173)"/><path class="k" d="M639.761,715.66l-.154,2.916-.981-.245-.206-1.213Z" transform="translate(-631.716 -656.173)"/><path class="h" d="M716.48,609.154l1.5.31,1.109-.98v-2.761l.025-.377v-.012h0v-.08l.207-3.069s1.5-5.108,1.73-6.089a23.133,23.133,0,0,0,.041-3.954c-.022-.475-.041-.793-.041-.793l-3.3-.8-.07,2.539-.241,8.9a4.929,4.929,0,0,1-.338,1.655l-.012.031A7.238,7.238,0,0,0,716.6,606l-.112,2.829v.078Z" transform="translate(-704.835 -546.365)"/><path class="k" d="M741.45,730.132v.078h0v-.08Z" transform="translate(-727.175 -671.241)"/><path class="k" d="M716.48,759.465l1.5.31,1.109-.98v-.235a.316.316,0,0,1-.159.253l-.016.01a2.981,2.981,0,0,1-1.679.332l-.584-.049a.545.545,0,0,0-.155.038v.078Z" transform="translate(-704.835 -696.676)"/><path class="j" d="M714.633,733.961l.016-.008a.316.316,0,0,0,.161-.274l.024-2.972s.322-.231.244.814-.129,2.606-.129,2.606a1.659,1.659,0,0,1-1.638,1.7s-1.625.31-1.613-.619.671-.967.671-.967l.584.051A2.974,2.974,0,0,0,714.633,733.961Z" transform="translate(-700.559 -671.737)"/><path class="h" d="M642.52,616.789c.038.671,2.012.283,2.012.283l1.328-2.579s1.109-.852.554-1.6a1.2,1.2,0,0,1-.081-.127l-.005-.006h0c-.012-.019-.022-.039-.033-.06h0a4.246,4.246,0,0,1-.2-2.086s.515-3.767.7-4.761a34.938,34.938,0,0,0,.033-4.291c-.017-.535-.033-.894-.033-.894l-3.277-.878v.978c-.007.808-.033,1.938-.116,2.674a42.135,42.135,0,0,0,.361,5.392l.174,3.768a3.49,3.49,0,0,1-.421,1.834,8.814,8.814,0,0,0-.985,2.281.458.458,0,0,0-.005.073Z" transform="translate(-638.666 -554.632)"/><path class="k" d="M642.512,726.983c.038.671,2.012.283,2.012.283l1.329-2.579s1.109-.852.554-1.6a1.181,1.181,0,0,1-.081-.128,6.411,6.411,0,0,1-.447,1.37s-1.1,2.194-1.445,2.7-1.864-.094-1.921-.115a.467.467,0,0,0,0,.072Z" transform="translate(-638.659 -664.826)"/><path class="j" d="M637.975,722.271s.649-.151.455,1.539h0a1.088,1.088,0,0,1-.513.966,3.689,3.689,0,0,0-1.543,2.141h0a1.167,1.167,0,0,1-.9,1.138,4.223,4.223,0,0,1-1.738.139c-.787-.219-.438-.761-.438-.761l.9-1.071s1.574.619,1.921.116,1.445-2.7,1.445-2.7S638.168,722.413,637.975,722.271Z" transform="translate(-630.346 -664.206)"/><path class="k" d="M727.89,593.52l-.07,2.539a3.285,3.285,0,0,0,1.617-.372c.233-.36,1.078-.512,1.8-.574-.022-.475-.041-.793-.041-.793Z" transform="translate(-714.98 -549.022)"/><path class="k" d="M651.94,603.7a1.2,1.2,0,0,1,.361-.436c.348-.193.31,1.239.31,1.239s1.159.01,2.639-.008c-.017-.535-.033-.9-.033-.9l-3.277-.877S651.946,603.127,651.94,603.7Z" transform="translate(-647.094 -557.253)"/><path class="i" d="M645.49,412.089s.388-1.053.737-1.241.31,1.238.31,1.238,8.514.078,8.94-.58,2.9-.619,2.9-.619-.077-8.2-.271-11.3-.5-5.922-1.277-6.773a15.4,15.4,0,0,1-1.653-3.522c-.239-.649-.4-1.122-.4-1.122l-8.127.464-.066.658-.863,8.63s-.116,9.52-.465,11.687S645.49,412.089,645.49,412.089Z" transform="translate(-641.019 -365.305)"/><g class="r" transform="translate(4.14 22.865)"><path d="M670.652,411.505c.421-.657,2.9-.619,2.9-.619s-.077-8.2-.271-11.3-.5-5.921-1.277-6.773a15.36,15.36,0,0,1-1.653-3.522c-.2-.546-.346-.966-.386-1.086l.632-.036s.159.473.4,1.122a15.411,15.411,0,0,0,1.652,3.522c.774.851,1.084,3.677,1.277,6.773s.272,11.3.272,11.3-2.477-.038-2.9.619c-.363.561-6.628.588-8.447.583C665.184,412.083,670.323,412.013,670.652,411.505Z" transform="translate(-660.995 -388.17)"/><path d="M645.648,603.286c.157-.088.235.155.274.449a6.077,6.077,0,0,0-.366.792s-.224-.121-.316-.737A1.436,1.436,0,0,1,645.648,603.286Z" transform="translate(-645.24 -580.609)"/></g><path class="s" d="M658.467,189.854c-.562.767.006,1.857-.6,2.6-.2.246-.506.421-.713.664a1.577,1.577,0,0,0-.181,1.585c.189.527.527,1.007.767,1.521a.813.813,0,0,1,.078.693,1.963,1.963,0,0,1-.345.4,1.455,1.455,0,0,0-.19,1.544,5,5,0,0,0,1,1.38.682.682,0,0,0,.991.226,3.9,3.9,0,0,0,1.774-5.087,6.731,6.731,0,0,1-.877-2.36c0-.656.337-1.283.4-1.936a2.476,2.476,0,0,0-1.356-2.4C659.278,189.2,658.752,189.46,658.467,189.854Z" transform="translate(-651.484 -186.839)"/><path class="t" d="M658.467,189.854c-.562.767.006,1.857-.6,2.6-.2.246-.506.421-.713.664a1.577,1.577,0,0,0-.181,1.585c.189.527.527,1.007.767,1.521a.813.813,0,0,1,.078.693,1.963,1.963,0,0,1-.345.4,1.455,1.455,0,0,0-.19,1.544,5,5,0,0,0,1,1.38.682.682,0,0,0,.991.226,3.9,3.9,0,0,0,1.774-5.087,6.731,6.731,0,0,1-.877-2.36c0-.656.337-1.283.4-1.936a2.476,2.476,0,0,0-1.356-2.4C659.278,189.2,658.752,189.46,658.467,189.854Z" transform="translate(-651.484 -186.839)"/><path class="k" d="M679.023,464.55a7.482,7.482,0,0,0-3.172,1.091,21.742,21.742,0,0,1-3,1.557" transform="translate(-665.802 -433.638)"/><path class="k" d="M679.916,489.74a4.643,4.643,0,0,0-2.923,1.422c-.274.29-.51.614-.8.892a3.533,3.533,0,0,1-1.568.888" transform="translate(-667.394 -456.174)"/><path class="k" d="M672.865,508.91a5.111,5.111,0,0,0-2.351,1.418c-.173.186-.33.386-.5.572a9.279,9.279,0,0,1-3.521,2.034" transform="translate(-660.111 -473.325)"/><path class="h" d="M688.13,242.6a23.122,23.122,0,0,0,.232,2.688,3.52,3.52,0,0,0,.465,1.453c.62.737-3.018,1.722-3.018,1.722L683.66,246.8s1.7-1.568.909-3.1S688.13,242.6,688.13,242.6Z" transform="translate(-675.473 -235.019)"/><path class="k" d="M658.79,389.292h8.591c-.239-.649-.4-1.122-.4-1.122l-8.126.464Z" transform="translate(-653.223 -365.305)"/><path class="u" d="M639.3,285.42h9.185a3.187,3.187,0,0,1,.368-2.436,5.382,5.382,0,0,1,.962-1.247l.063-.058,3.207-.71.173-.038s.026-5.831-2.038-6.632a12.07,12.07,0,0,1-3.3-1.883l-2.837.876-2.09-1.053c-.671.722-2.451.438-2.451.438-2.915.335-2.915,2.528-2.915,2.528s1.7,3.973,1.832,3.973S639.3,285.42,639.3,285.42Z" transform="translate(-634.283 -261.587)"/><path class="k" d="M662.32,352.471a6.1,6.1,0,0,1-2.51-1.141" transform="translate(-654.135 -332.346)"/><path class="k" d="M754.842,341.51l-2.172,1.78a3.687,3.687,0,0,0,.072.421l.063-.058,3.207-.71Z" transform="translate(-737.213 -323.56)"/><path class="k" d="M717.46,370s.475.268,1.2.619h1.248a3.187,3.187,0,0,1,.368-2.436l-2.2-.712C718.828,368.166,717.46,370,717.46,370Z" transform="translate(-705.712 -346.786)"/><path class="u" d="M616.989,293.76l-1.289.7-1.264,3.2s-1.316,3.508-1.187,4.437c0,0-.464,2.193.361,2.58l2.149.973a.2.2,0,0,0,.258-.276c-.307-.58-.644-1.489-.105-1.988l-.619-1.289,2.239-3.664.748-1.264Z" transform="translate(-612.362 -280.84)"/><path class="k" d="M676.947,347.662a1.992,1.992,0,0,0,1.737,1.421l1.37,1.122,1.457.66.594.269.252-1.819-.572-.316-.667-.365s-1.5-2.725-3.886-1.58A.527.527,0,0,0,676.947,347.662Z" transform="translate(-669.452 -328.269)"/><path class="h" d="M677.706,346.244a1.989,1.989,0,0,0,1.736,1.421l1.37,1.122,1.458.66.593.269.252-1.819-.572-.316-.662-.361s-1.505-2.725-3.887-1.575A.527.527,0,0,0,677.706,346.244Z" transform="translate(-670.133 -327.006)"/><circle class="k" cx="3.328" cy="3.328" r="3.328" transform="translate(6.929 3.283)"/><circle class="h" cx="3.328" cy="3.328" r="3.328" transform="translate(6.929 3.206)"/><path class="k" d="M714.381,271.766l-1-1.945s1.464-.592,1.571-1.278,1.4.8,1.123,1.3A18.417,18.417,0,0,1,714.381,271.766Z" transform="translate(-702.062 -258.122)"/><path class="u" d="M714.381,270.3l-1-1.945s1.464-.592,1.571-1.278,1.4.8,1.123,1.3A18.532,18.532,0,0,1,714.381,270.3Z" transform="translate(-702.062 -256.807)"/><path class="v" d="M611.241,340.723l5.53,7.434s-2.038,1.109-4.846-.876l-1.213-1.445L607.25,340Z" transform="translate(-607.112 -322.209)"/><path class="h" d="M633.7,368.964l.5-.014s3.076-2.986,3.831-1.475-1.916,2.922-1.916,2.922l-.812.438-1.059.316-.677-.909Z" transform="translate(-630.66 -346.409)"/><path class="k" d="M628.527,384.154a.752.752,0,0,1,.013.52.211.211,0,0,1-.092.1.235.235,0,0,1-.105.015,1.059,1.059,0,0,1-.694-.343,3.172,3.172,0,0,1-.45-.651,1.2,1.2,0,0,1-.231-.775,1.131,1.131,0,0,1,.572-.668c.51-.337.527.056.638.49S628.41,383.716,628.527,384.154Z" transform="translate(-624.744 -359.985)"/><path class="u" d="M627.794,384.154a.758.758,0,0,1,.013.52.211.211,0,0,1-.092.1.237.237,0,0,1-.105.015,1.054,1.054,0,0,1-.694-.343,3.136,3.136,0,0,1-.451-.651,1.193,1.193,0,0,1-.23-.775,1.129,1.129,0,0,1,.571-.668c.511-.337.527.056.639.49S627.676,383.716,627.794,384.154Z" transform="translate(-624.088 -359.985)"/><path class="k" d="M623.85,314.245l.257-.435-.224.808Z" transform="translate(-618.681 -296.657)"/><path class="k" d="M721.19,368.3l.593.269.252-1.819-.572-.316C721.858,366.883,721.512,367.721,721.19,368.3Z" transform="translate(-709.049 -345.855)"/><path class="k" d="M720.619,360.656a6.1,6.1,0,0,1-2.728-.406" transform="translate(-706.097 -340.326)"/><g class="r" transform="translate(6.13 10.804)"><path d="M734.283,285.957a5.4,5.4,0,0,1,.962-1.248,2.566,2.566,0,0,1,.283-.154l2.986-.613.173-.038s.026-5.831-2.037-6.632a12.4,12.4,0,0,1-3.219-1.813l.227-.07a12.04,12.04,0,0,0,3.3,1.883c2.065.8,2.037,6.632,2.037,6.632h-.31l-3.055.585s-.132.127-.172.164a5.921,5.921,0,0,0-.977,1.292,3.239,3.239,0,0,0-.256,2.448h-.316A3.221,3.221,0,0,1,734.283,285.957Z" transform="translate(-726.13 -275.21)"/><path d="M664.13,277.83c.049-.007.1-.015.149-.02a5.335,5.335,0,0,0,.632.052,5.753,5.753,0,0,1-.781-.032Z" transform="translate(-664.13 -277.375)"/><path d="M689.65,274.737l-1.89-.957a.992.992,0,0,0,.105-.1l1.972,1Z" transform="translate(-685.271 -273.68)"/></g><path class="u" d="M724.069,340l1.264,1.549.258,4.205s.335,2.141-2.115,1.624a22.6,22.6,0,0,1-5.286-2.111s1.369-1.832.62-2.528l3.509,1.136s.593-.13.129-.645a2.9,2.9,0,0,1-.547-1.445Z" transform="translate(-706.365 -322.209)"/><path class="k" d="M665.115,179.627a1.112,1.112,0,0,1,.116-.907,7.164,7.164,0,0,0,.448-.831c.159-.44.111-.939.284-1.37a2.921,2.921,0,0,1,1.958-1.369,1.316,1.316,0,0,1,.712-.1c.316.075.521.361.78.554,1.06.79,2.783-.08,3.808.756a1.993,1.993,0,0,1,.642,1.336,11.794,11.794,0,0,1-.006,1.519,3.128,3.128,0,0,0,.813,2.445c.2.177.436.31.632.493a.863.863,0,0,1,.316.7,2.447,2.447,0,0,1-.105.358,1.834,1.834,0,0,0,.305,1.369,4.269,4.269,0,0,0,3.411,2.29c-.1.723-.843,1.142-1.512,1.438a5.938,5.938,0,0,1-2.668.7,2.139,2.139,0,0,1-2.058-1.556c-.056-.316-.048-.7-.316-.861-.164-.1-.377-.075-.554-.15a.977.977,0,0,1-.467-.657,5.915,5.915,0,0,1-.275-1.686,3.52,3.52,0,0,0-.307-1.977c-.356-.517-.988-.78-1.4-1.255a2.477,2.477,0,0,0-1.413-1.053C667.4,179.7,665.623,180.871,665.115,179.627Z" transform="translate(-658.832 -174.621)"/><path class="n" d="M665.115,178.157a1.112,1.112,0,0,1,.116-.907,7.16,7.16,0,0,0,.448-.831c.159-.44.111-.939.284-1.37a2.914,2.914,0,0,1,1.958-1.369,1.317,1.317,0,0,1,.712-.1c.316.075.521.361.78.554,1.06.79,2.783-.08,3.808.756a1.994,1.994,0,0,1,.642,1.337,11.777,11.777,0,0,1-.006,1.518,3.128,3.128,0,0,0,.813,2.445c.2.177.436.31.632.493a.863.863,0,0,1,.316.7,2.446,2.446,0,0,1-.105.358,1.834,1.834,0,0,0,.305,1.37,4.275,4.275,0,0,0,3.408,2.289c-.1.723-.843,1.142-1.512,1.439a5.949,5.949,0,0,1-2.668.7,2.139,2.139,0,0,1-2.058-1.556c-.056-.316-.049-.7-.316-.861-.164-.1-.377-.075-.554-.15a.976.976,0,0,1-.467-.657,5.91,5.91,0,0,1-.275-1.686,3.52,3.52,0,0,0-.307-1.977c-.356-.517-.988-.78-1.4-1.255a2.477,2.477,0,0,0-1.413-1.053C667.4,178.233,665.623,179.4,665.115,178.157Z" transform="translate(-658.832 -173.306)"/><path class="k" d="M682.425,272.345l1.908-1.549s-1.306-.708-1.462-1.312-1.2.287-1.095.828S682.425,272.345,682.425,272.345Z" transform="translate(-673.78 -258.942)"/><path class="u" d="M683.189,270.144,685.1,268.6s-1.306-.708-1.456-1.312-1.2.287-1.095.828S683.189,270.144,683.189,270.144Z" transform="translate(-674.469 -256.973)"/><circle class="k" cx="0.152" cy="0.152" r="0.152" transform="translate(10.55 12.767)"/><circle class="k" cx="0.152" cy="0.152" r="0.152" transform="translate(10.55 13.61)"/><circle class="k" cx="0.152" cy="0.152" r="0.152" transform="translate(10.55 14.451)"/><g class="r" transform="translate(6.252 1.404)"><path d="M671.208,185.746c.151-.414.118-.879.259-1.3a1.409,1.409,0,0,0-.161.3c-.175.435-.125.933-.286,1.37l-.01.025A2.4,2.4,0,0,0,671.208,185.746Z" transform="translate(-670.407 -184.45)"/><path d="M678.124,215.865a5.95,5.95,0,0,1-2.668.7,2.14,2.14,0,0,1-2.059-1.555c-.056-.316-.048-.7-.316-.862-.164-.1-.377-.075-.554-.15a.976.976,0,0,1-.467-.657,5.912,5.912,0,0,1-.275-1.686,3.522,3.522,0,0,0-.305-1.977c-.357-.517-.989-.779-1.4-1.255a2.482,2.482,0,0,0-1.413-1.053c-.852-.116-2.634,1.053-3.137-.192a.98.98,0,0,1,.033-.72c-.037.062-.073.124-.105.188a1.116,1.116,0,0,0-.115.908c.507,1.243,2.285.075,3.137.192a2.5,2.5,0,0,1,1.413,1.053c.411.476,1.043.737,1.4,1.256a3.51,3.51,0,0,1,.307,1.976,5.906,5.906,0,0,0,.275,1.686.978.978,0,0,0,.467.657c.177.075.39.051.554.15.272.164.264.549.316.862a2.143,2.143,0,0,0,2.058,1.555,5.957,5.957,0,0,0,2.668-.7c.611-.272,1.292-.648,1.475-1.264A3.192,3.192,0,0,1,678.124,215.865Z" transform="translate(-665.288 -204.141)"/></g></g><g transform="translate(88.069 2.443)"><path class="w" d="M792.4,251.673a24.775,24.775,0,0,0-3.077-1.6l-.046-.033a1.855,1.855,0,0,1-.561-.71,1.483,1.483,0,0,1,0-.153.06.06,0,0,0,0,.015,3.362,3.362,0,0,1,.977-1.837l1.172-1.379a1.358,1.358,0,0,0,.3-.478,1.1,1.1,0,0,0,.032-.294v-.12c-.006-.342-.016-.686-.028-1.028-.01-.3-.087-.676-.387-.737-.156-.032-.362.024-.445-.105a.256.256,0,0,1-.02-.178.066.066,0,0,0,0,.015v-.017a3.975,3.975,0,0,0,.111-.7.965.965,0,0,0-.049-.357c-.173-.5-.77-.7-1.3-.794a2.275,2.275,0,0,1-1.451-.587,4.32,4.32,0,0,0-.289-.4,1.14,1.14,0,0,0-.539-.267,3.055,3.055,0,0,0-1.963.171,1.762,1.762,0,0,1-.791.251c-.28-.017-.539-.219-.826-.268a1.179,1.179,0,0,0-1.136.665,1.625,1.625,0,0,0-.211.784v.046h0a1.146,1.146,0,0,0,.3.8c.2.211.5.35.581.623.034.111.025.231.056.343a.32.32,0,0,0,.013.041l-.015.02a3.476,3.476,0,0,0-.737,2.143,3.556,3.556,0,0,0,2.5,3.371v.105a1.515,1.515,0,0,1-.485,1.18l-3.159,1.262s-1.9-.226-2.591,2.557a4.746,4.746,0,0,0-.118,1.412,4.091,4.091,0,0,1-.527,2.114c-.781,1.53-.6,5.041.995,5.388a5.207,5.207,0,0,0,2.16.176v.061c-.025.659-.265,6.342-1.134,7.029-.24.191-.2.316,0,.406,0,0,0,.037-.005.105a7.083,7.083,0,0,1-.737,2.9c-.675,1.043-.6,7.058-.6,7.058l-.46,3.546s.283,2.19,0,2.573c-.254.34-.591,8.442-.662,10.2h-.03a.855.855,0,0,0-.683.421,11.9,11.9,0,0,1-1.679,1.726,4.723,4.723,0,0,1-1.886.969,1.168,1.168,0,0,0-.211.093,1.124,1.124,0,0,0-.476.5.538.538,0,0,0-.051.421c.141.347,3.088.591,3.834.242a25.5,25.5,0,0,1,3.872-.773.794.794,0,0,0,.689-.689.454.454,0,0,0-.089-.344h0a3.053,3.053,0,0,1-.316-1.264.852.852,0,0,0,.217-.129,9.255,9.255,0,0,1,.527-3.72,21.355,21.355,0,0,0,.746-7.613s2.165-9.317,3.869-10.186h0c.026.034.853,1.095.959,4.38a13.273,13.273,0,0,0,1.313,5.528s-.533,5.667,0,7.787l-.7,3.345c-.052-.043-.084-.077-.084-.077s.021.093.049.241l-.015.072.031.006a6.583,6.583,0,0,1,.147,1.58c-.027.243-.1.577-.142.9-.074.515-.094,1.015.177,1.124.445.179,3.055.421,3.5-.152a.82.82,0,0,0,.129-.859.871.871,0,0,0-.128-.219,3.239,3.239,0,0,1-.5-1.931.588.588,0,0,0-.083-.458,23.552,23.552,0,0,1,.6-3.746c.445-1.673,1.381-5.341.692-7.752h0q-.039-.142-.089-.278a10.412,10.412,0,0,1-.391-4.067,8.29,8.29,0,0,1,0-3.546c.427-1.947.725-3.859.725-3.859a24.391,24.391,0,0,0,.029-4.15,1.053,1.053,0,0,0-.014-.105l.112-.025s-.6-2.677-.816-4.38c-.051-.4-.116-.911-.188-1.455a3.712,3.712,0,0,0,.578-.144c1.916-.661,2.52-6.637,2.52-6.637v-1.9S794.64,252.959,792.4,251.673ZM778.122,297.84c-.059-.03-.094-.049-.094-.049h0Z" transform="translate(-772.213 -239.838)"/><path class="x" d="M835.163,535.428c.831,2.39-.139,6.27-.59,8.006a24.2,24.2,0,0,0-.589,3.811,8.025,8.025,0,0,1-3.049-.069l.728-3.568c-.52-2.113,0-7.761,0-7.761a13.464,13.464,0,0,1-1.282-5.509c-.105-3.273-.909-4.332-.934-4.365h0c-1.662.866-3.776,10.151-3.776,10.151a21.715,21.715,0,0,1-.728,7.585,9.375,9.375,0,0,0-.519,3.706,1.127,1.127,0,0,1-.948.181,6.472,6.472,0,0,1-2.175-1.012s.38-10.113.658-10.5a7.834,7.834,0,0,0,0-2.564l.45-3.533s-.07-5.994.589-7.033a7.136,7.136,0,0,0,.725-2.89v-.105l1-1.2s9.7-.728,10.429,0a2.078,2.078,0,0,1,.354,1.1,24.822,24.822,0,0,1-.029,4.135s-.291,1.906-.707,3.845a8.439,8.439,0,0,0,0,3.534A10.581,10.581,0,0,0,835.163,535.428Z" transform="translate(-816.129 -489.09)"/><path class="q" d="M916.068,787.528c-.433.572-2.979.33-3.413.152-.264-.105-.244-.608-.173-1.121.045-.326.112-.658.139-.9a8.3,8.3,0,0,0-.211-1.889s.571.607.709,0a.661.661,0,0,1,.5-.47,1.293,1.293,0,0,1,.9.056c.45.2,1.2.612,1.066,1.175a3.285,3.285,0,0,0,.485,1.925.875.875,0,0,1,.126.217A.831.831,0,0,1,916.068,787.528Z" transform="translate(-897.641 -725.998)"/><path class="k" d="M844.136,594.4a21.717,21.717,0,0,1-.728,7.585,9.375,9.375,0,0,0-.519,3.706,1.127,1.127,0,0,1-.948.181c.211-1.461,1.1-7.757,1.67-12.731a20.834,20.834,0,0,1,3.687-9.561l.606.667C846.249,585.115,844.136,594.4,844.136,594.4Z" transform="translate(-834.595 -547.368)"/><path class="h" d="M877.3,305.347l-.421,2.078-2.072,3.482-2.555-1.091s-3.476-3.638-1.29-4.157a1.935,1.935,0,0,0,.725-.322,1.5,1.5,0,0,0,.566-1.254,3.844,3.844,0,0,0-.352-1.49l4.469-1.4a7.173,7.173,0,0,0-.316,1.81,2.408,2.408,0,0,0,.789,2.107A1.343,1.343,0,0,0,877.3,305.347Z" transform="translate(-859.913 -294.727)"/><path class="k" d="M890.465,301.19a7.173,7.173,0,0,0-.316,1.81,3.429,3.429,0,0,1-.26.277,3.536,3.536,0,0,1-3.533.806,3.841,3.841,0,0,0-.355-1.49Z" transform="translate(-874.013 -294.727)"/><path class="h" d="M873.219,265.753a3.517,3.517,0,1,1-1.03-2.5A3.534,3.534,0,0,1,873.219,265.753Z" transform="translate(-856.254 -259.862)"/><path class="k" d="M877.3,338.583l-.421,2.078-2.072,3.482-2.555-1.091s-3.476-3.638-1.29-4.157a1.934,1.934,0,0,0,.725-.322c-.394,1.083,1.233,3.336,1.233,3.336.19.279.624.105.624.105,1.048-.159,2.977-3.173,3.292-3.674A1.342,1.342,0,0,0,877.3,338.583Z" transform="translate(-859.913 -327.963)"/><path class="k" d="M856.121,519.842a22.965,22.965,0,0,1-5.309.7c-1.42-.211-4.181-.346-4.181-.346a8.151,8.151,0,0,1-2.3-.153v-.105l1-1.2s9.7-.728,10.429,0A2.069,2.069,0,0,1,856.121,519.842Z" transform="translate(-836.733 -489.071)"/><path class="y" d="M829.272,342.291s-1.828-2.528-1.139-3.519l-3.088,1.264s-1.858-.225-2.528,2.548a4.826,4.826,0,0,0-.115,1.407,4.163,4.163,0,0,1-.509,2.107c-.762,1.524-.589,5.024.97,5.373a4.741,4.741,0,0,0,2.112.173s-.211,6.34-1.108,7.068,2.3.554,2.3.554,2.761.139,4.182.347,5.4-.728,5.4-.728-.589-2.667-.8-4.365-.694-5.313-.694-5.313l3.533-4.787s.624-2.893-1.559-4.175a24.668,24.668,0,0,0-3-1.6s-2.193,3.571-3.336,3.744C829.9,342.394,829.461,342.569,829.272,342.291Z" transform="translate(-816.267 -328.24)"/><path class="k" d="M852.179,382.74a5.21,5.21,0,0,0,.174,1.594c.208.45.97,2.95.97,2.95H851.59s.935-1,.867-1.491S852.179,382.74,852.179,382.74Z" transform="translate(-843.228 -367.685)"/><path class="h" d="M858.971,423.4s-3.826-.935-4.182-1.732-1.339-2.58-1.339-2.58l.4-.544,1.86,1.46s2.212,1.767,3.257,1.941S858.971,423.4,858.971,423.4Z" transform="translate(-844.892 -399.714)"/><path class="z" d="M858.971,423.4s-3.826-.935-4.182-1.732-1.339-2.58-1.339-2.58l.4-.544,1.86,1.46s2.212,1.767,3.257,1.941S858.971,423.4,858.971,423.4Z" transform="translate(-844.892 -399.714)"/><path class="h" d="M878.562,421.684v2.075h-.333a9.7,9.7,0,0,0-4.713,1.221l-.624.346-.167.094L871.65,423l1.005-.9h.052a6.01,6.01,0,0,0,1.759-.039,2.86,2.86,0,0,1,2.219-.284c.62.159,1.151.854,1.753.637Z" transform="translate(-861.175 -402.507)"/><path class="k" d="M904.934,366l.692.78v1.889s-.589,5.958-2.459,6.617-5.211-.381-5.211-.381-.863-2.286-.459-2.423,3.566-.973,3.566-.973-.044-3.5.648-4.535c0,0-.45-3.256,1.109-3.326S904.934,366,904.934,366Z" transform="translate(-884.203 -350.603)"/><path class="y" d="M905.939,366l.693.78v1.889s-.589,5.958-2.46,6.617-5.211-.381-5.211-.381-.863-2.286-.458-2.423,3.566-.973,3.566-.973-.045-3.5.648-4.535c0,0-.451-3.256,1.108-3.326S905.939,366,905.939,366Z" transform="translate(-885.103 -350.603)"/><path class="k" d="M878.387,267.146a1.393,1.393,0,0,0-.079-.675.514.514,0,0,0-.55-.316c-.3.069-.421.455-.714.548a.571.571,0,0,1-.632-.324,1.616,1.616,0,0,1-.12-.754v-.868a1.436,1.436,0,0,0-.2-.9,1.594,1.594,0,0,0-1.188-.43,1.008,1.008,0,0,0-.678.273.873.873,0,0,1-.713.254.614.614,0,0,1-.5-.43v-.011a3.533,3.533,0,1,1,5.253,4.69A9.542,9.542,0,0,0,878.387,267.146Z" transform="translate(-862.392 -259.755)"/><path class="aa" d="M865.728,245.641a.62.62,0,0,1-.5-.431c-.029-.112-.021-.231-.054-.341-.081-.273-.372-.414-.567-.622a1.392,1.392,0,0,1-.088-1.593,1.151,1.151,0,0,1,1.108-.662c.28.048.527.248.807.267a1.628,1.628,0,0,0,.772-.25,2.91,2.91,0,0,1,1.919-.171,1.106,1.106,0,0,1,.527.267,4.616,4.616,0,0,1,.281.4,2.195,2.195,0,0,0,1.416.585c.515.093,1.1.3,1.264.792a2.071,2.071,0,0,1-.061,1.026.31.31,0,0,0,.014.211c.081.133.282.077.434.105.292.062.367.438.378.737q.018.512.027,1.025a1.305,1.305,0,0,1-.031.379,1.338,1.338,0,0,1-.294.477l-1.144,1.375a2.958,2.958,0,0,0-.948,2.107.491.491,0,0,1-.6-.352,1.574,1.574,0,0,1,.038-.781,9.576,9.576,0,0,0,.183-1.354,1.389,1.389,0,0,0-.079-.674.514.514,0,0,0-.55-.316c-.3.07-.421.455-.714.548a.571.571,0,0,1-.632-.324,1.613,1.613,0,0,1-.12-.753v-.869a1.436,1.436,0,0,0-.2-.9,1.594,1.594,0,0,0-1.188-.43,1.008,1.008,0,0,0-.677.273A.875.875,0,0,1,865.728,245.641Z" transform="translate(-854.612 -241.548)"/><path class="k" d="M885.3,381.92l1.085,4.457S887.241,386.372,885.3,381.92Z" transform="translate(-873.387 -366.952)"/><path class="k" d="M912.046,374.85a7.136,7.136,0,0,0-.866,4.732l.264.019S910.973,378.488,912.046,374.85Z" transform="translate(-896.426 -360.627)"/><path class="k" d="M929,498.769s1.745-.577,1.871.762C930.875,499.531,930.547,498.613,929,498.769Z" transform="translate(-912.483 -471.38)"/><path class="k" d="M855.862,426.81s-.347,2.423.277,3.4a7.6,7.6,0,0,1-3.049.416l-.211-3.811Z" transform="translate(-844.382 -407.113)"/><path class="k" d="M872.892,429.02l-.167.094-1.075-2.423,1.005-.9h.052A7.572,7.572,0,0,0,872.892,429.02Z" transform="translate(-861.175 -406.201)"/><path class="y" d="M847.354,425.83s-.347,2.423.277,3.394a7.576,7.576,0,0,1-3.049.416l-1.213-3.81Z" transform="translate(-835.874 -406.236)"/><path class="q" d="M782.983,785.3a.785.785,0,0,1-.673.687,24.272,24.272,0,0,0-3.779.771c-.728.347-3.6.105-3.742-.242a.55.55,0,0,1,.05-.421,1.11,1.11,0,0,1,.464-.5,1.227,1.227,0,0,1,.211-.093,4.547,4.547,0,0,0,1.84-.966,11.738,11.738,0,0,0,1.639-1.718.832.832,0,0,1,.666-.415c.3-.014.642.139.781.8,0,0,1.661.948,2.107.117a4.559,4.559,0,0,0,.346,1.627h0a.463.463,0,0,1,.091.35Z" transform="translate(-774.499 -725.245)"/><path class="k" d="M782.983,806.94a.785.785,0,0,1-.673.687,24.265,24.265,0,0,0-3.779.771c-.728.347-3.6.105-3.742-.242a.55.55,0,0,1,.05-.421,1.11,1.11,0,0,1,.464-.5c.469.316,1.51.615,3.8.258a16.769,16.769,0,0,0,3.792-.9h0A.464.464,0,0,1,782.983,806.94Z" transform="translate(-774.499 -746.885)"/><g class="r" transform="translate(9.699 1.84)"><path d="M942.4,265.324v-.017a3.1,3.1,0,0,0,.105-.787,5.2,5.2,0,0,1-.105.632A.383.383,0,0,0,942.4,265.324Z" transform="translate(-934.16 -263.759)"/><path d="M870.5,262.107a1,1,0,0,1,.085.4,1.193,1.193,0,0,0-.085-.552.512.512,0,0,0-.549-.316c-.3.07-.421.455-.715.548a.572.572,0,0,1-.632-.324,1.6,1.6,0,0,1-.12-.754v-.868a1.437,1.437,0,0,0-.2-.9,1.6,1.6,0,0,0-1.188-.431,1.009,1.009,0,0,0-.678.274.875.875,0,0,1-.714.254.617.617,0,0,1-.5-.43c-.028-.112-.021-.232-.054-.342-.081-.272-.372-.414-.567-.621a1.134,1.134,0,0,1-.292-.737,1.181,1.181,0,0,0,.292.888c.195.211.486.349.567.621.033.105.025.231.054.342a.617.617,0,0,0,.5.43.875.875,0,0,0,.714-.254,1.01,1.01,0,0,1,.678-.274,1.594,1.594,0,0,1,1.188.431,1.446,1.446,0,0,1,.2.9v.868a1.594,1.594,0,0,0,.12.753.573.573,0,0,0,.632.326c.291-.093.421-.478.715-.548A.532.532,0,0,1,870.5,262.107Z" transform="translate(-864.285 -257.3)"/><path d="M930.026,291.974a1.331,1.331,0,0,1-.295.476l-1.144,1.375a3.082,3.082,0,0,0-.948,1.987,3.409,3.409,0,0,1,.948-1.831l1.144-1.375a1.331,1.331,0,0,0,.295-.476,1.31,1.31,0,0,0,.031-.38A.994.994,0,0,1,930.026,291.974Z" transform="translate(-920.963 -288.121)"/><path d="M921.678,326.535a.8.8,0,0,1-.035-.185.934.934,0,0,0,.035.341.489.489,0,0,0,.6.351,1.5,1.5,0,0,1-.013-.152A.49.49,0,0,1,921.678,326.535Z" transform="translate(-915.598 -319.076)"/></g><path class="k" d="M812.69,789.36s.362.632,1.675.076" transform="translate(-808.426 -731.47)"/><path class="k" d="M918,790.82a2,2,0,0,0,2.558.437" transform="translate(-902.642 -732.776)"/><path class="k" d="M942.246,641.23s-.8.5-.825.785.413-.211.413-.211Z" transform="translate(-923.595 -598.945)"/><path class="k" d="M940.069,677.59a1.671,1.671,0,0,1-.985.384c-.6.026-.548.806-.157.572A9.807,9.807,0,0,0,940.069,677.59Z" transform="translate(-921.102 -631.475)"/><path class="k" d="M947.8,682.34s-.384,1.885-.7,1.521" transform="translate(-928.677 -635.724)"/></g></g></g></g></svg>