<svg width="18" height="6" viewBox="0 0 18 6" fill="none" xmlns="http://www.w3.org/2000/svg">
<path d="M2.25 0.75C1.80499 0.75 1.36998 0.88196 0.999968 1.12919C0.629958 1.37643 0.341569 1.72783 0.171272 2.13896C0.000974879 2.5501 -0.0435826 3.0025 0.0432341 3.43895C0.130051 3.87541 0.344343 4.27632 0.659011 4.59099C0.973679 4.90566 1.37459 5.11995 1.81105 5.20677C2.2475 5.29358 2.6999 5.24903 3.11104 5.07873C3.52217 4.90843 3.87357 4.62004 4.12081 4.25003C4.36804 3.88002 4.5 3.44501 4.5 3C4.49816 2.40383 4.26051 1.83261 3.83895 1.41105C3.4174 0.989492 2.84617 0.751846 2.25 0.75ZM15.75 0.75C15.305 0.75 14.87 0.88196 14.5 1.12919C14.13 1.37643 13.8416 1.72783 13.6713 2.13896C13.501 2.5501 13.4564 3.0025 13.5432 3.43895C13.6301 3.87541 13.8443 4.27632 14.159 4.59099C14.4737 4.90566 14.8746 5.11995 15.311 5.20677C15.7475 5.29358 16.1999 5.24903 16.611 5.07873C17.0222 4.90843 17.3736 4.62004 17.6208 4.25003C17.868 3.88002 18 3.44501 18 3C17.9982 2.40383 17.7605 1.83261 17.339 1.41105C16.9174 0.989492 16.3462 0.751846 15.75 0.75ZM9 0.75C8.55499 0.75 8.11998 0.88196 7.74997 1.12919C7.37996 1.37643 7.09157 1.72783 6.92127 2.13896C6.75098 2.5501 6.70642 3.0025 6.79323 3.43895C6.88005 3.87541 7.09434 4.27632 7.40901 4.59099C7.72368 4.90566 8.12459 5.11995 8.56105 5.20677C8.99751 5.29358 9.4499 5.24903 9.86104 5.07873C10.2722 4.90843 10.6236 4.62004 10.8708 4.25003C11.118 3.88002 11.25 3.44501 11.25 3C11.2482 2.40383 11.0105 1.83261 10.589 1.41105C10.1674 0.989492 9.59617 0.751846 9 0.75Z" fill="#49B776"/>
</svg>
