<svg width="49" height="48" viewBox="0 0 49 48" fill="none" xmlns="http://www.w3.org/2000/svg">
<g id="Icon">
<rect x="0.398438" width="48" height="48" rx="24" fill="#FAFAFA"/>
<g id="Group">
<g id="Group_2">
<g id="Group_3">
<path id="Vector" d="M15.6883 19.5314C16.0179 19.1192 16.2415 18.5657 16.1826 18C15.7002 18.024 15.1114 18.3183 14.7705 18.7309C14.4645 19.0841 14.1936 19.6608 14.2642 20.2027C14.8058 20.2498 15.3469 19.9321 15.6883 19.5314Z" fill="#222222"/>
<path id="Vector_2" d="M16.1772 20.3088C15.3907 20.262 14.722 20.7552 14.3464 20.7552C13.9706 20.7552 13.3954 20.3324 12.7733 20.3438C11.9636 20.3557 11.2124 20.8135 10.8015 21.5416C9.95637 22.9982 10.5784 25.1589 11.4003 26.3452C11.7994 26.9321 12.2804 27.5783 12.9141 27.5551C13.5129 27.5316 13.7476 27.1673 14.4755 27.1673C15.2028 27.1673 15.4142 27.5551 16.0481 27.5433C16.7055 27.5316 17.1164 26.9561 17.5155 26.3686C17.9733 25.6996 18.1607 25.0536 18.1725 25.0181C18.1607 25.0064 16.905 24.5246 16.8933 23.0802C16.8815 21.8707 17.8792 21.2954 17.9262 21.2597C17.3628 20.4264 16.4824 20.3324 16.1772 20.3088Z" fill="#222222"/>
</g>
<g id="Group_4">
<path id="Vector_3" d="M23.0355 18.6729C24.745 18.6729 25.9353 19.8512 25.9353 21.5668C25.9353 23.2885 24.7205 24.473 22.9926 24.473H21.0999V27.4829H19.7324V18.6729H23.0355ZM21.1 23.3251H22.6691C23.8597 23.3251 24.5373 22.6841 24.5373 21.5729C24.5373 20.4618 23.8597 19.8268 22.6752 19.8268H21.1V23.3251Z" fill="#222222"/>
<path id="Vector_4" d="M26.2842 25.6597C26.2842 24.5362 27.145 23.8463 28.6715 23.7609L30.4297 23.6571V23.1626C30.4297 22.4483 29.9473 22.0209 29.1416 22.0209C28.3783 22.0209 27.902 22.3872 27.7861 22.9611H26.5406C26.6139 21.801 27.6029 20.9463 29.1903 20.9463C30.7471 20.9463 31.7423 21.7705 31.7423 23.0587V27.4851H30.4784V26.4289H30.448C30.0757 27.1432 29.2636 27.595 28.4211 27.595C27.1634 27.595 26.2842 26.8135 26.2842 25.6597ZM30.4297 25.0797V24.573L28.8484 24.6706C28.0608 24.7256 27.6151 25.0736 27.6151 25.6231C27.6151 26.1847 28.0791 26.551 28.7874 26.551C29.7092 26.5511 30.4297 25.916 30.4297 25.0797Z" fill="#222222"/>
<path id="Vector_5" d="M32.9426 29.8463V28.7778C33.0401 28.8022 33.2598 28.8022 33.3698 28.8022C33.9803 28.8022 34.31 28.5458 34.5114 27.8864C34.5114 27.8742 34.6276 27.4956 34.6276 27.4895L32.3076 21.0605H33.7361L35.3603 26.2868H35.3846L37.0088 21.0605H38.4008L35.9951 27.8191C35.4458 29.3761 34.8109 29.8767 33.4799 29.8767C33.3698 29.8768 33.0401 29.8646 32.9426 29.8463Z" fill="#222222"/>
</g>
</g>
</g>
</g>
</svg>
