<svg width="25" height="24" viewBox="0 0 25 24" fill="none" xmlns="http://www.w3.org/2000/svg">
<g id="credit-card (1) 1" clip-path="url(#clip0_1111_35342)">
<g id="Group">
<g id="Group_2">
<path id="Vector" d="M22.9584 3.83984H1.83844C1.04452 3.83984 0.398438 4.48592 0.398438 5.27984V18.7198C0.398438 19.5138 1.04452 20.1598 1.83844 20.1598H22.9584C23.7524 20.1598 24.3984 19.5138 24.3984 18.7198V5.27984C24.3984 4.48592 23.7524 3.83984 22.9584 3.83984ZM23.4384 18.7198C23.4384 18.9838 23.2224 19.1998 22.9584 19.1998H1.83844C1.5735 19.1998 1.35844 18.9838 1.35844 18.7198V5.27984C1.35844 5.01486 1.5735 4.79984 1.83844 4.79984H22.9584C23.2224 4.79984 23.4384 5.01486 23.4384 5.27984V18.7198Z" fill="black"/>
</g>
</g>
<g id="Group_3">
<g id="Group_4">
<path id="Vector_2" d="M23.9189 8.16016H0.878906V10.0802H23.9189V8.16016Z" fill="black"/>
</g>
</g>
<g id="Group_5">
<g id="Group_6">
<path id="Vector_3" d="M23.9184 7.67969H0.878437C0.6135 7.67969 0.398438 7.8947 0.398438 8.15969V10.0797C0.398438 10.3447 0.6135 10.5597 0.878437 10.5597H23.9184C24.1834 10.5597 24.3984 10.3447 24.3984 10.0797V8.15969C24.3984 7.8947 24.1834 7.67969 23.9184 7.67969ZM23.4384 9.59969H1.35844V8.63969H23.4384V9.59969Z" fill="black"/>
</g>
</g>
<g id="Group_7">
<g id="Group_8">
<path id="Vector_4" d="M13.3583 13.4404H4.71828C4.45334 13.4404 4.23828 13.6555 4.23828 13.9204C4.23828 14.1854 4.45334 14.4004 4.71828 14.4004H13.3583C13.6232 14.4004 13.8383 14.1854 13.8383 13.9204C13.8383 13.6554 13.6232 13.4404 13.3583 13.4404Z" fill="black"/>
</g>
</g>
<g id="Group_9">
<g id="Group_10">
<path id="Vector_5" d="M9.51828 15.3604H4.71828C4.45334 15.3604 4.23828 15.5754 4.23828 15.8404C4.23828 16.1053 4.45334 16.3204 4.71828 16.3204H9.51828C9.78322 16.3204 9.99828 16.1053 9.99828 15.8404C9.99828 15.5754 9.78322 15.3604 9.51828 15.3604Z" fill="black"/>
</g>
</g>
</g>
<defs>
<clipPath id="clip0_1111_35342">
<rect width="24" height="24" fill="white" transform="translate(0.398438)"/>
</clipPath>
</defs>
</svg>
