<svg width="24" height="24" viewBox="0 0 24 24" fill="none" xmlns="http://www.w3.org/2000/svg">
<g id="Icons">
<g id="Downoad Icon">
<g id="Group 854">
<g id="Group 853">
<path id="Path 2238" d="M17.3847 9.15661H14.6927C14.5532 9.16189 14.4212 9.22431 14.3243 9.33074C14.2274 9.43716 14.1732 9.57928 14.1732 9.72718C14.1732 9.87507 14.2274 10.0172 14.3243 10.1236C14.4212 10.2301 14.5532 10.2925 14.6927 10.2978H17.3854C17.5282 10.2978 17.6652 10.3579 17.7663 10.465C17.8673 10.572 17.924 10.7173 17.924 10.8687V18.2879C17.924 18.4394 17.8673 18.5846 17.7663 18.6916C17.6652 18.7987 17.5282 18.8589 17.3854 18.8589H6.61533C6.47247 18.8589 6.33545 18.7987 6.23443 18.6916C6.13341 18.5846 6.07666 18.4394 6.07666 18.2879V10.8687C6.07666 10.7173 6.13341 10.572 6.23443 10.465C6.33545 10.3579 6.47247 10.2978 6.61533 10.2978H9.30801C9.38032 10.3005 9.45241 10.2878 9.51997 10.2603C9.58754 10.2329 9.6492 10.1913 9.70127 10.138C9.75333 10.0848 9.79475 10.0209 9.82303 9.95036C9.85132 9.87977 9.86589 9.80387 9.86589 9.72718C9.86589 9.65049 9.85132 9.57459 9.82303 9.504C9.79475 9.43341 9.75333 9.36958 9.70127 9.31633C9.6492 9.26308 9.58754 9.2215 9.51997 9.19405C9.45241 9.16661 9.38032 9.15388 9.30801 9.15661H6.61533C6.18692 9.15661 5.77605 9.33698 5.47312 9.65806C5.17019 9.97914 5 10.4146 5 10.8687V18.2879C5 18.742 5.17019 19.1775 5.47312 19.4985C5.77605 19.8196 6.18692 20 6.61533 20H17.3847C17.8131 20 18.2239 19.8196 18.5269 19.4985C18.8298 19.1775 19 18.742 19 18.2879V10.8687C19 10.4146 18.8298 9.97914 18.5269 9.65806C18.2239 9.33698 17.8131 9.15661 17.3847 9.15661Z" fill="#49B776"/>
</g>
</g>
<g id="Group 856">
<g id="Group 855">
<path id="Path 2239" d="M15.0612 12.1776C14.9608 12.0748 14.8266 12.0174 14.687 12.0174C14.5474 12.0174 14.4133 12.0748 14.3128 12.1776L12.5385 14.0568V4.5913C12.5411 4.51465 12.5291 4.43825 12.5032 4.36664C12.4773 4.29502 12.4381 4.22967 12.3878 4.17449C12.3376 4.1193 12.2774 4.07541 12.2108 4.04543C12.1442 4.01545 12.0725 4 12.0002 4C11.9278 4 11.8562 4.01545 11.7896 4.04543C11.723 4.07541 11.6628 4.1193 11.6126 4.17449C11.5623 4.22967 11.5231 4.29502 11.4972 4.36664C11.4713 4.43825 11.4593 4.51465 11.4619 4.5913V14.0575L9.6889 12.1783C9.58687 12.0769 9.45162 12.0215 9.31177 12.0239C9.17191 12.0263 9.03842 12.0862 8.93952 12.1911C8.84061 12.2959 8.78405 12.4374 8.78181 12.5856C8.77956 12.7339 8.83181 12.8772 8.92749 12.9853L11.6202 15.8393C11.7212 15.9462 11.8581 16.0063 12.0009 16.0063C12.1436 16.0063 12.2806 15.9462 12.3816 15.8393V15.8393L15.0743 12.9853C15.1235 12.9314 15.1622 12.8677 15.1882 12.798C15.2142 12.7282 15.2269 12.6536 15.2257 12.5786C15.2245 12.5036 15.2093 12.4296 15.1811 12.3608C15.1529 12.292 15.1122 12.2297 15.0612 12.1776V12.1776Z" fill="#49B776"/>
</g>
</g>
</g>
</g>
</svg>
