<svg width="20" height="18" viewBox="0 0 20 18" fill="none" xmlns="http://www.w3.org/2000/svg">
<g id="Icon">
<path id="Stroke 4 (Stroke)" fill-rule="evenodd" clip-rule="evenodd" d="M18.5 8.51761C18.5 6.86548 17.1867 5.52794 15.566 5.52794H14.633C14.2188 5.52794 13.883 5.1859 13.883 4.76397C13.883 4.34204 14.2188 4 14.633 4H15.566C18.0153 4 20 6.02189 20 8.51761V13.4926C20 15.9823 18.0192 18 15.575 18L4.435 18C1.98579 18 0 15.9772 0 13.4824V8.5064C0 6.01741 1.98205 4 4.425 4H5.367C5.78121 4 6.117 4.34204 6.117 4.76397C6.117 5.1859 5.78121 5.52794 5.367 5.52794H4.425C2.80995 5.52794 1.5 6.86181 1.5 8.5064V13.4824C1.5 15.1334 2.81421 16.4721 4.435 16.4721L15.575 16.4721C17.1908 16.4721 18.5 15.1385 18.5 13.4926V8.51761Z" fill="#2A374E"/>
<path id="Stroke 3" d="M9.91601 13.041L9.91602 1" stroke="#2A374E" stroke-width="1.5" stroke-linecap="round" stroke-linejoin="round"/>
<path id="Stroke 5" d="M12.8311 10.1133L9.91605 13.0413L7.00005 10.1133" stroke="#2A374E" stroke-width="1.5" stroke-linecap="round" stroke-linejoin="round"/>
</g>
</svg>
