<svg xmlns="http://www.w3.org/2000/svg" width="80.813" height="108.844" viewBox="0 0 80.813 108.844"><defs><style>.a{opacity:0.1;}.b{fill:#fff;}</style></defs><g class="a" transform="translate(-607.04 -410.928) rotate(16)"><path class="b" d="M736.918,223.77c-10.257,7.983-15.584,15.9-7.419,26.554-6.888,1.925-7.087,1.759-9.178-8.066-1.543,4.033-2.224,7.834-4.282,10.589s-5.377,4.2-9.609,7.3C711.558,237.861,723.126,223.638,736.918,223.77Z" transform="translate(0 1.152)"/><path class="b" d="M765.357,299.822c-2.523-5.991-3.95-12.846-7.817-17.791-8.464-10.871-13.891-21.227-6.174-35,2.739-4.979,3.137-11.319-2.655-17.294l-1.527,6.273-7.684-8.58-1.859,1.046v44.545l-2.174.863c-1.992-3.784-3.967-7.585-6.008-11.485l-7.319-.6c3.5-7.5,7.435-14.306,9.726-21.575,1.012-3.319-1.444-7.518-2.075-11.385-.315-1.875-.78-4.83.166-5.56a8.714,8.714,0,0,1,6.257-1.079c4.7.863,9.709,1.56,13.808,3.767,4.6,2.489,10.539,5.842,12.016,10.14a140.83,140.83,0,0,1,6.439,31.533c.929,9.128,0,18.455-.5,27.683,0,1.51-1.842,2.954-2.821,4.431Z" transform="translate(10.363 0)"/><path class="b" d="M751.85,268.8c.8,2.7,2.156,5.324,2.224,8.006s-1.226,5.095-1.914,7.642c-3.356-1.119-7.13,3.639-10.486-1.186-1.6-2.3-6.335-2.7-3.76-7.143,1.793-3.1,2.345-7.885,8.235-5.31,1.348.62,3.882-1.186,5.863-1.873Z" transform="translate(23.49 32.285)"/></g></svg>