<svg xmlns="http://www.w3.org/2000/svg" width="64.568" height="72.377" viewBox="0 0 64.568 72.377"><defs><style>.a{opacity:0.1;}.b{fill:#fff;}</style></defs><g class="a" transform="translate(-759.844 -314.494) rotate(7)"><path class="b" d="M834,256.37c1.22-3.88,3.11-7.7,3.49-11.66.39-4.12.88-7.74,3.53-11.19,1.5-2,1.64-5,2.4-7.5l-1.95-.68c-.47,1-.94,2-1.89,4-.65-5.86-4.12-7.07-9-5.86l-.47-1.22c1.07-1.27,2-2.84,3.3-3.65.51-.3,2.08,1.17,3.17,1.83a13.46,13.46,0,0,0,3.28,1.86c6.87,1.7,9.39,4.16,9.5,11.42.08,5.29.31,11.25-1.91,15.72-2.5,5.05-7.6,8.84-11.73,13-2.06,2.09-4.48,3.83-7,5.92,5.62.94,10.5,1.47,15.22,2.64s9.08,3,13.5,4.44c-4.07,3.37-9,3.59-14.54.51l-.61,1.09,6,3c-1.42,5.25-2,5.44-7.06,2.75a25.733,25.733,0,0,0-5-1.46c-.55-7.93-1.45-8.39-10-6.4-1.81.42-4.15-1.26-5.91-.77a121.721,121.721,0,0,0-12.79,4.8,11.888,11.888,0,0,0-2.37,1.67c-1.74-3-3.85-5.63-4.64-8.58-.36-1.34,1.89-3.39,3-5.11l1.09.7c.59-1.89,1.17-3.78,1.49-4.79l16.68,10c1.41-2.91,2.29-5.52,3.82-7.66,2.21-3.09,4.89-5.85,7.37-8.76Z"/><path class="b" d="M835.72,245.81v3.82l-7.36,1.11a24.348,24.348,0,0,1-1.31,3.73,36.585,36.585,0,0,1-2.83,4.12c-5.09-17.95-3-30.87,5.11-33.95-.66,4-2.1,8.1-1.73,12,.3,3.16,2.66,6.19,4.41,9.09C832.32,246.25,834.17,245.81,835.72,245.81Z"/><path class="b" d="M834,256.37l-.1.11-4.47-.63c.22-.81.18-1.94.71-2.35a11,11,0,0,1,3.1-1.21C833.47,253.65,833.72,255,834,256.37Z"/></g></svg>