<svg xmlns="http://www.w3.org/2000/svg" width="60.417" height="81.373" viewBox="0 0 60.417 81.373"><defs><style>.a{opacity:0.1;}.b{fill:#fff;}</style></defs><g class="a" transform="translate(8.095 -2.082) rotate(16)"><path class="b" d="M22.792,0c-7.668,5.968-11.651,11.886-5.546,19.852-5.149,1.439-5.3,1.315-6.861-6.03-1.154,3.015-1.663,5.856-3.2,7.916S3.164,24.878,0,27.2C3.834,10.535,12.482-.1,22.792,0Z" transform="translate(0 2.167)"/><path class="b" d="M32.309,58.163c-1.886-4.479-2.953-9.6-5.844-13.3-6.328-8.127-10.385-15.869-4.616-26.168,2.047-3.722,2.345-8.462-1.985-12.929l-1.141,4.69L12.978,4.041l-1.39.782v33.3l-1.625.645C8.474,35.941,7,33.1,5.472,30.184L0,29.737c2.618-5.608,5.559-10.7,7.271-16.13C8.028,11.126,6.191,7.987,5.72,5.1c-.236-1.4-.583-3.611.124-4.157A6.514,6.514,0,0,1,10.521.133C14.033.778,17.78,1.3,20.845,2.949c3.437,1.861,7.879,4.368,8.983,7.581A105.285,105.285,0,0,1,34.642,34.1c.695,6.824,0,13.8-.372,20.7,0,1.129-1.377,2.209-2.109,3.313Z" transform="translate(19.492 0)"/><path class="b" d="M10.981,0c.595,2.015,1.612,3.98,1.663,5.985s-.917,3.809-1.431,5.713c-2.509-.836-5.33,2.721-7.839-.887C2.174,9.089-1.362,8.8.562,5.471,1.9,3.154,2.315-.423,6.719,1.5,7.726,1.965,9.621.615,11.1.1Z" transform="translate(40.536 59.107)"/></g></svg>