<svg xmlns="http://www.w3.org/2000/svg" width="48.271" height="54.109" viewBox="0 0 48.271 54.109"><defs><style>.a{opacity:0.1;}.b{fill:#fff;}</style></defs><g class="a" transform="translate(6.007) rotate(7)"><path class="b" d="M25.058,28.259c.912-2.9,2.325-5.757,2.609-8.717.292-3.08.658-5.786,2.639-8.366,1.121-1.5,1.226-3.738,1.794-5.607l-1.458-.508c-.351.748-.7,1.5-1.413,2.99-.486-4.381-3.08-5.286-6.728-4.381l-.351-.912A12.651,12.651,0,0,1,24.617.03C25-.194,26.172.9,26.987,1.4a10.062,10.062,0,0,0,2.452,1.391c5.136,1.271,7.02,3.11,7.1,8.538.06,3.955.232,8.411-1.428,11.752-1.869,3.775-5.682,6.609-8.769,9.719-1.54,1.562-3.349,2.863-5.233,4.426,4.2.7,7.85,1.1,11.378,1.974s6.788,2.243,10.093,3.319c-3.043,2.519-6.728,2.684-10.87.381l-.456.815,4.486,2.243c-1.062,3.925-1.5,4.067-5.278,2.056a19.237,19.237,0,0,0-3.738-1.091c-.411-5.928-1.084-6.272-7.476-4.785-1.353.314-3.1-.942-4.418-.576A91,91,0,0,0,5.27,45.148,8.888,8.888,0,0,0,3.5,46.4C2.2,44.153.619,42.187.029,39.982c-.269-1,1.413-2.534,2.243-3.82l.815.523c.441-1.413.875-2.826,1.114-3.581L16.67,40.58a40.416,40.416,0,0,1,2.856-5.727c1.652-2.31,3.656-4.373,5.51-6.549Z" transform="translate(0 0)"/><path class="b" d="M10.661,15.827v2.856l-5.5.83A18.206,18.206,0,0,1,4.179,22.3a27.349,27.349,0,0,1-2.116,3.08C-1.742,11.962-.179,2.3,5.884,0,5.39,2.99,4.314,6.056,4.591,8.971c.224,2.362,1.989,4.628,3.3,6.8C8.119,16.156,9.5,15.827,10.661,15.827Z" transform="translate(15.683 4.538)"/><path class="b" d="M3.416,3.05l-.075.082L0,2.661C.164,2.056.135,1.211.531.9A8.224,8.224,0,0,1,2.848,0C3.02,1.017,3.207,2.026,3.416,3.05Z" transform="translate(21.642 25.209)"/></g></svg>