<svg width="24" height="24" viewBox="0 0 24 24" fill="none" xmlns="http://www.w3.org/2000/svg">
<g id="Icon">
<path id="Vector" fill-rule="evenodd" clip-rule="evenodd" d="M2 12C2 6.47715 6.47715 2 12 2C13.5947 2 15.1049 2.37401 16.445 3.04001C16.9396 3.28579 17.1413 3.88597 16.8955 4.38055C16.6497 4.87513 16.0495 5.07682 15.555 4.83103C14.4852 4.2994 13.279 4 12 4C7.58172 4 4 7.58172 4 12C4 16.4183 7.58172 20 12 20C16.4183 20 20 16.4183 20 12C20 11.6988 19.9834 11.4018 19.9511 11.1099C19.8904 10.5609 20.2863 10.0667 20.8352 10.0061C21.3841 9.94537 21.8783 10.3412 21.939 10.8901C21.9793 11.2549 22 11.6252 22 12C22 17.5228 17.5228 22 12 22C6.47715 22 2 17.5228 2 12ZM21.7071 4.29289C22.0976 4.68342 22.0976 5.31658 21.7071 5.70711L12.7071 14.7071C12.3166 15.0976 11.6834 15.0976 11.2929 14.7071L8.29289 11.7071C7.90237 11.3166 7.90237 10.6834 8.29289 10.2929C8.68342 9.90237 9.31658 9.90237 9.70711 10.2929L12 12.5858L20.2929 4.29289C20.6834 3.90237 21.3166 3.90237 21.7071 4.29289Z" fill="#494949"/>
</g>
</svg>
