<svg width="40" height="40" viewBox="0 0 40 40" fill="none" xmlns="http://www.w3.org/2000/svg">
<g id="letter 1" clip-path="url(#clip0_1111_35523)">
<path id="Vector" d="M40 17.5C39.9988 17.4493 39.9915 17.3989 39.9781 17.35C39.9795 17.3375 39.9795 17.325 39.9781 17.3125C39.9652 17.275 39.9495 17.2384 39.9313 17.2031C39.9262 17.1921 39.9199 17.1816 39.9125 17.1719C39.8867 17.1292 39.8552 17.0903 39.8187 17.0563L39.8 17.0406C39.7772 17.0182 39.7521 16.9983 39.725 16.9813L35.9375 14.5375V0.625C35.9375 0.45924 35.8717 0.300269 35.7544 0.183058C35.6372 0.065848 35.4783 0 35.3125 0L4.6875 0C4.52174 0 4.36277 0.065848 4.24556 0.183058C4.12835 0.300269 4.0625 0.45924 4.0625 0.625V14.5406H4.0375L0.2875 16.9594C0.260602 16.9766 0.23548 16.9965 0.2125 17.0187L0.19375 17.0344C0.157259 17.0692 0.124766 17.108 0.096875 17.15V17.1812C0.0786277 17.2165 0.0629617 17.2531 0.05 17.2906C0.0486568 17.3031 0.0486568 17.3157 0.05 17.3281C0.025173 17.3827 0.00833367 17.4406 0 17.5L0 39.375C0 39.5408 0.065848 39.6997 0.183058 39.8169C0.300269 39.9342 0.45924 40 0.625 40H39.375C39.5408 40 39.6997 39.9342 39.8169 39.8169C39.9342 39.6997 40 39.5408 40 39.375V17.5ZM38.2562 17.5281L35.9375 19.1469V16.0219L38.2562 17.5281ZM34.6875 1.25V20.0187L22.5969 28.5C21.8351 29.0311 20.9287 29.3159 20 29.3159C19.0713 29.3159 18.1649 29.0311 17.4031 28.5L5.3125 20.0219V1.25H34.6875ZM4.0625 16.025V19.15L1.74375 17.525L4.0625 16.025ZM38.75 38.75H1.25V18.7L16.6875 29.525C17.6594 30.2023 18.8154 30.5653 20 30.5653C21.1846 30.5653 22.3406 30.2023 23.3125 29.525L38.75 18.7V38.75Z" fill="#49B776"/>
<path id="Vector_2" d="M19.55 21.684C19.6084 21.7444 19.6783 21.7924 19.7556 21.8252C19.8329 21.8579 19.916 21.8747 20 21.8747C20.084 21.8747 20.1671 21.8579 20.2444 21.8252C20.3217 21.7924 20.3916 21.7444 20.45 21.684L26.3875 15.559C27.2047 14.7414 27.6636 13.6327 27.6633 12.4767C27.663 11.3207 27.2035 10.2122 26.3859 9.39498C25.5683 8.57778 24.4596 8.11885 23.3036 8.11914C22.1476 8.11943 21.0391 8.57893 20.2219 9.39654L19.9906 9.62779L19.7656 9.40279C18.9483 8.59839 17.8465 8.14926 16.6997 8.15309C15.553 8.15692 14.4542 8.61341 13.6423 9.42325C12.8304 10.2331 12.3711 11.3308 12.3643 12.4775C12.3576 13.6242 12.8039 14.7272 13.6062 15.5465L19.55 21.684ZM14.4969 10.2872C15.0783 9.70933 15.8647 9.385 16.6844 9.385C17.5041 9.385 18.2905 9.70933 18.8719 10.2872L19.5375 10.9528C19.5956 11.0113 19.6648 11.0577 19.7409 11.0893C19.8171 11.121 19.8988 11.1372 19.9812 11.1372C20.1467 11.1365 20.3052 11.0702 20.4219 10.9528L21.0969 10.2809C21.6812 9.69785 22.4732 9.37079 23.2986 9.37167C24.1241 9.37255 24.9154 9.7013 25.4984 10.2856C26.0815 10.8699 26.4086 11.6619 26.4077 12.4874C26.4068 13.3128 26.078 14.1041 25.4937 14.6872L20 20.3528L14.4969 14.6872C14.207 14.3988 13.977 14.056 13.82 13.6784C13.663 13.3009 13.5822 12.896 13.5822 12.4872C13.5822 12.0783 13.663 11.6734 13.82 11.2959C13.977 10.9183 14.207 10.5755 14.4969 10.2872Z" fill="#49B776"/>
</g>
<defs>
<clipPath id="clip0_1111_35523">
<rect width="40" height="40" fill="white"/>
</clipPath>
</defs>
</svg>
