<svg xmlns="http://www.w3.org/2000/svg" width="24" height="24" viewBox="0 0 24 24">
  <g id="Map_Icon" data-name="Map Icon" transform="translate(-452 -1200)">
    <rect id="Base" width="24" height="24" transform="translate(452 1200)" fill="#fff" opacity="0"/>
    <g id="Layer_52" data-name="Layer 52" transform="translate(457.333 1206.667)">
      <path id="Path_4120" data-name="Path 4120" d="M10.571,14.612l-3.809.762V5.851l3.809-.762ZM5.809,5.8,2.59,4.984A.473.473,0,0,0,2,5.46v8.571a.476.476,0,0,0,.362.476l3.447.848Zm9.162.133-3.447-.848v9.552l3.219.819a.536.536,0,0,0,.59-.476V6.412a.476.476,0,0,0-.362-.476Z" transform="translate(-1.999 -4.969)" fill="#fff"/>
    </g>
  </g>
</svg>
