<svg xmlns="http://www.w3.org/2000/svg" width="24" height="24" viewBox="0 0 24 24">
  <g id="Note" transform="translate(-228 -46)">
    <g id="Base" transform="translate(228 46)" fill="#49B776" stroke="#707070" stroke-width="1" opacity="0">
      <rect width="24" height="24" stroke="none"/>
      <rect x="0.5" y="0.5" width="23" height="23" fill="none"/>
    </g>
    <g id="notes" transform="translate(231.091 48)">
      <g id="Group_1014" data-name="Group 1014" transform="translate(4.909 12.364)">
        <path id="Path_3613" data-name="Path 3613" d="M14.182,18.091H6.545a.545.545,0,1,1,0-1.091h7.636a.545.545,0,0,1,0,1.091Z" transform="translate(-6 -17)" fill="#49B776"/>
      </g>
      <g id="Group_1015" data-name="Group 1015" transform="translate(4.909 9.455)">
        <path id="Path_3614" data-name="Path 3614" d="M14.182,14.091H6.545a.545.545,0,1,1,0-1.091h7.636a.545.545,0,0,1,0,1.091Z" transform="translate(-6 -13)" fill="#49B776"/>
      </g>
      <g id="Group_1016" data-name="Group 1016" transform="translate(4.909 6.545)">
        <path id="Path_3615" data-name="Path 3615" d="M10.545,10.091h-4A.545.545,0,0,1,6.545,9h4a.545.545,0,0,1,0,1.091Z" transform="translate(-6 -9)" fill="#49B776"/>
      </g>
      <g id="Group_1017" data-name="Group 1017" transform="translate(2 2)">
        <path id="Path_3616" data-name="Path 3616" d="M13.818,18H4a2,2,0,0,1-2-2V4A2,2,0,0,1,4,2h9.818a2,2,0,0,1,2,2V16A2,2,0,0,1,13.818,18ZM4,3.091A.91.91,0,0,0,3.091,4V16A.91.91,0,0,0,4,16.909h9.818A.91.91,0,0,0,14.727,16V4a.91.91,0,0,0-.909-.909Z" transform="translate(-2 -2)" fill="#49B776"/>
      </g>
    </g>
  </g>
</svg>
