<svg width="24" height="24" viewBox="0 0 24 24" fill="none" xmlns="http://www.w3.org/2000/svg">
<g id="Icon">
<g id="30">
<path id="Vector" d="M12 22.5C9.9233 22.5 7.89323 21.8842 6.16652 20.7304C4.4398 19.5767 3.09399 17.9368 2.29927 16.0182C1.50455 14.0996 1.29661 11.9884 1.70176 9.95156C2.1069 7.91476 3.10693 6.04383 4.57538 4.57538C6.04383 3.10693 7.91476 2.1069 9.95156 1.70176C11.9884 1.29661 14.0996 1.50455 16.0182 2.29927C17.9368 3.09399 19.5767 4.4398 20.7304 6.16652C21.8842 7.89323 22.5 9.9233 22.5 12C22.5 14.7848 21.3938 17.4555 19.4246 19.4246C17.4555 21.3938 14.7848 22.5 12 22.5ZM12 3C10.22 3 8.47992 3.52785 6.99987 4.51678C5.51983 5.50571 4.36628 6.91132 3.68509 8.55585C3.0039 10.2004 2.82567 12.01 3.17294 13.7558C3.5202 15.5016 4.37737 17.1053 5.63604 18.364C6.89472 19.6226 8.49836 20.4798 10.2442 20.8271C11.99 21.1743 13.7996 20.9961 15.4442 20.3149C17.0887 19.6337 18.4943 18.4802 19.4832 17.0001C20.4722 15.5201 21 13.78 21 12C21 9.61306 20.0518 7.32387 18.364 5.63604C16.6761 3.94822 14.387 3 12 3Z" fill="#494949"/>
<path id="Vector_2" d="M15.7501 16.4999C15.6514 16.5005 15.5536 16.4815 15.4622 16.4442C15.3708 16.4069 15.2877 16.3519 15.2176 16.2824L11.4676 12.5324C11.3264 12.3912 11.2471 12.1996 11.2471 11.9999C11.2471 11.901 11.2665 11.8031 11.3044 11.7117C11.3422 11.6203 11.3977 11.5373 11.4676 11.4674C11.5376 11.3975 11.6206 11.342 11.712 11.3041C11.8033 11.2663 11.9012 11.2468 12.0001 11.2468C12.1999 11.2468 12.3914 11.3262 12.5326 11.4674L16.2826 15.2174C16.3529 15.2871 16.4087 15.3701 16.4468 15.4615C16.4849 15.5529 16.5045 15.6509 16.5045 15.7499C16.5045 15.8489 16.4849 15.9469 16.4468 16.0383C16.4087 16.1297 16.3529 16.2127 16.2826 16.2824C16.2126 16.3519 16.1294 16.4069 16.0381 16.4442C15.9467 16.4815 15.8488 16.5005 15.7501 16.4999Z" fill="#494949"/>
<path id="Vector_3" d="M8.25044 16.4999C8.15174 16.5005 8.05389 16.4815 7.96251 16.4442C7.87113 16.4069 7.78802 16.3519 7.71794 16.2824C7.64765 16.2127 7.59185 16.1297 7.55377 16.0383C7.5157 15.9469 7.49609 15.8489 7.49609 15.7499C7.49609 15.6509 7.5157 15.5529 7.55377 15.4615C7.59185 15.3701 7.64765 15.2871 7.71794 15.2174L11.4679 11.4674C11.6092 11.3262 11.8007 11.2468 12.0004 11.2468C12.2002 11.2468 12.3917 11.3262 12.5329 11.4674C12.6742 11.6086 12.7535 11.8002 12.7535 11.9999C12.7535 12.1996 12.6742 12.3912 12.5329 12.5324L8.78294 16.2824C8.71286 16.3519 8.62975 16.4069 8.53837 16.4442C8.44699 16.4815 8.34915 16.5005 8.25044 16.4999Z" fill="#494949"/>
<path id="Vector_4" d="M12.0004 12.7499C11.9017 12.7505 11.8039 12.7315 11.7125 12.6942C11.6211 12.6569 11.538 12.6019 11.4679 12.5324C11.3976 12.4627 11.3419 12.3797 11.3038 12.2883C11.2657 12.1969 11.2461 12.0989 11.2461 11.9999C11.2461 11.9009 11.2657 11.8029 11.3038 11.7115C11.3419 11.6201 11.3976 11.5371 11.4679 11.4674L15.2179 7.71739C15.2879 7.64747 15.3709 7.59199 15.4623 7.55415C15.5536 7.5163 15.6515 7.49683 15.7504 7.49683C15.8493 7.49683 15.9473 7.5163 16.0386 7.55415C16.13 7.59199 16.213 7.64747 16.2829 7.71739C16.3529 7.78732 16.4083 7.87034 16.4462 7.96171C16.484 8.05307 16.5035 8.151 16.5035 8.24989C16.5035 8.34879 16.484 8.44672 16.4462 8.53808C16.4083 8.62945 16.3529 8.71247 16.2829 8.78239L12.5329 12.5324C12.4629 12.6019 12.3798 12.6569 12.2884 12.6942C12.197 12.7315 12.0991 12.7505 12.0004 12.7499Z" fill="#494949"/>
<path id="Vector_5" d="M12.0001 12.7499C11.9014 12.7505 11.8036 12.7315 11.7122 12.6942C11.6208 12.6569 11.5377 12.6019 11.4676 12.5324L7.71764 8.78239C7.57641 8.64117 7.49707 8.44962 7.49707 8.24989C7.49707 8.05017 7.57641 7.85862 7.71764 7.71739C7.85887 7.57617 8.05041 7.49683 8.25014 7.49683C8.44986 7.49683 8.64141 7.57617 8.78264 7.71739L12.5326 11.4674C12.6029 11.5371 12.6587 11.6201 12.6968 11.7115C12.7349 11.8029 12.7545 11.9009 12.7545 11.9999C12.7545 12.0989 12.7349 12.1969 12.6968 12.2883C12.6587 12.3797 12.6029 12.4627 12.5326 12.5324C12.4626 12.6019 12.3794 12.6569 12.2881 12.6942C12.1967 12.7315 12.0988 12.7505 12.0001 12.7499Z" fill="#494949"/>
</g>
</g>
</svg>
