<svg xmlns="http://www.w3.org/2000/svg" width="30" height="30" viewBox="0 0 30 30">
  <g id="Review_Icon" data-name="Review Icon" transform="translate(946 -8500)">
    <g id="review_1_" data-name="review (1)" transform="translate(-943.5 8502.5)">
      <path id="Path_3979" data-name="Path 3979" d="M22.306,0H2.694A2.7,2.7,0,0,0,0,2.694V19.168a2.7,2.7,0,0,0,2.694,2.694H9.059l2.923,2.923a.732.732,0,0,0,1.036,0l2.923-2.923h6.365A2.7,2.7,0,0,0,25,19.168V2.694A2.7,2.7,0,0,0,22.306,0Zm1.229,19.168A1.23,1.23,0,0,1,22.306,20.4H15.638a.732.732,0,0,0-.518.215l-2.62,2.62-2.62-2.62a.732.732,0,0,0-.518-.215H2.694a1.23,1.23,0,0,1-1.229-1.229V2.694A1.23,1.23,0,0,1,2.694,1.465H22.306a1.23,1.23,0,0,1,1.229,1.229Z" transform="translate(0 0)" fill="#49b776" stroke="#49b776" stroke-width="0.5"/>
      <path id="Path_3980" data-name="Path 3980" d="M127.508,84.836l-3.893-.566-1.742-3.528a.732.732,0,0,0-1.314,0l-1.742,3.528-3.894.566a.732.732,0,0,0-.406,1.249l2.818,2.746-.665,3.878a.732.732,0,0,0,1.063.772l3.483-1.831,3.483,1.831a.732.732,0,0,0,.341.084h0a.733.733,0,0,0,.712-.9l-.659-3.838,2.818-2.746a.732.732,0,0,0-.406-1.249Zm-3.71,3.215a.732.732,0,0,0-.211.648l.48,2.795-2.51-1.319a.732.732,0,0,0-.682,0l-2.51,1.319.479-2.795a.732.732,0,0,0-.211-.648L116.6,86.072l2.806-.408a.732.732,0,0,0,.551-.4l1.255-2.543,1.255,2.543a.732.732,0,0,0,.551.4l2.806.408Z" transform="translate(-108.716 -76.41)" fill="#49b776" stroke="#49b776" stroke-width="0.5"/>
    </g>
    <rect id="Base" width="30" height="30" transform="translate(-946 8500)" fill="#49b776" opacity="0"/>
  </g>
</svg>
