<svg width="22" height="22" viewBox="0 0 22 22" fill="none" xmlns="http://www.w3.org/2000/svg">
<g id="status ">
<g id="Eye Icon">
<path id="Path 15" d="M10.9889 5C7.75891 5 5.21191 7.10856 2.16591 10.554C2.05917 10.6754 2 10.8337 2 10.9979C2 11.1622 2.05917 11.3205 2.16591 11.4418C4.77291 14.4299 7.07092 17 10.9929 17C14.8659 17 17.7709 13.762 19.8359 11.4159C19.9398 11.2992 19.9992 11.1472 20.0029 10.9884C20.0065 10.8295 19.9543 10.6748 19.8559 10.553C17.7469 7.90821 14.8339 5 10.9889 5ZM11.1659 14.7494C10.4371 14.7847 9.71507 14.5906 9.0946 14.1925C8.47413 13.7945 7.98427 13.211 7.68939 12.5189C7.3945 11.8268 7.30838 11.0583 7.44234 10.3145C7.5763 9.57062 7.92407 8.88621 8.43997 8.35114C8.95587 7.81607 9.61575 7.45537 10.3329 7.31643C11.0501 7.1775 11.791 7.26682 12.4584 7.57266C13.1257 7.8785 13.6882 8.38656 14.0721 9.03009C14.4559 9.67362 14.643 10.4225 14.6089 11.1784C14.5659 12.1108 14.1892 12.993 13.5525 13.6528C12.9159 14.3125 12.0649 14.7024 11.1659 14.7462V14.7494Z" fill="#49B776"/>
<path id="Path 16" d="M10.9967 9.04237C10.9968 8.80006 11.0402 8.55986 11.1247 8.33398C11.0847 8.33398 11.0447 8.33398 10.9997 8.33398C10.4912 8.33398 9.99414 8.49037 9.57134 8.78338C9.14854 9.07638 8.81901 9.49284 8.62442 9.98009C8.42983 10.4673 8.37891 11.0035 8.47811 11.5208C8.57732 12.038 8.82218 12.5131 9.18174 12.8861C9.5413 13.259 9.99941 13.513 10.4981 13.6159C10.9969 13.7187 11.5138 13.6659 11.9836 13.4641C12.4534 13.2623 12.8549 12.9205 13.1374 12.482C13.4199 12.0435 13.5707 11.5279 13.5707 11.0005C13.5707 10.9466 13.5707 10.8968 13.5707 10.8377C13.3409 10.945 13.0917 11.0005 12.8397 11.0005C12.5947 10.9976 12.3527 10.9445 12.1274 10.8445C11.9022 10.7445 11.6982 10.5994 11.527 10.4175C11.3559 10.2357 11.2209 10.0206 11.1299 9.78467C11.0389 9.54872 10.9937 9.29648 10.9967 9.04237Z" fill="#49B776"/>
</g>
</g>
</svg>
