<svg width="24" height="24" viewBox="0 0 24 24" fill="none" xmlns="http://www.w3.org/2000/svg">
<g id="visa 1">
<g id="Group">
<g id="Group_2">
<g id="Group_3">
<path id="Vector" d="M9.8097 8.24414L8.60519 15.7397H10.5304L11.7342 8.24414C11.7342 8.24414 9.8097 8.24414 9.8097 8.24414ZM15.617 11.2974C14.9442 10.9652 14.5317 10.7409 14.5317 10.4011C14.54 10.0922 14.8805 9.77562 15.641 9.77562C16.2665 9.75991 16.7262 9.90691 17.075 10.0532L17.2497 10.1311L17.5115 8.56289C17.1312 8.4159 16.5282 8.25393 15.7835 8.25393C13.8822 8.25393 12.5435 9.24243 12.5352 10.6562C12.5195 11.6995 13.4936 12.2784 14.2227 12.6257C14.9675 12.982 15.221 13.213 15.221 13.5295C15.2128 14.0155 14.6188 14.2397 14.0645 14.2397C13.2965 14.2397 12.884 14.1242 12.2578 13.8534L12.0043 13.7379L11.735 15.3677C12.1873 15.5687 13.019 15.7457 13.8823 15.7547C15.9028 15.7547 17.2176 14.7812 17.2341 13.2745C17.2407 12.4479 16.727 11.8149 15.617 11.2974ZM22.4472 8.26734H20.9577C20.4987 8.26734 20.1499 8.39936 19.9512 8.87037L17.0914 15.7397H19.1119L19.6684 14.2524H21.9289L22.2176 15.7457H23.9997L22.4472 8.26734ZM20.2287 12.7516C20.2677 12.7553 21.0042 10.3238 21.0042 10.3238L21.5907 12.7516C21.5907 12.7516 20.609 12.7516 20.2287 12.7516ZM6.99647 8.24414L5.1102 13.3367L4.90472 12.3324C4.55595 11.1736 3.46249 9.91439 2.24219 9.2889L3.96945 15.7322H6.00649L9.03351 8.24496H6.99647V8.24414Z" fill="#2394BC"/>
</g>
</g>
<path id="Vector_2" d="M4.27052 9.21131C4.12352 8.63978 3.65473 8.25432 3.01806 8.24609H0.0307646L0 8.38478C2.33029 8.95927 4.28623 10.727 4.92077 12.3898L4.27052 9.21131Z" fill="#EFC75E"/>
</g>
</g>
</svg>
