<svg xmlns="http://www.w3.org/2000/svg" width="24" height="24" viewBox="0 0 24 24">
  <g id="website_icon" data-name="website icon" transform="translate(-2681 -2859)">
    <path id="world-wide-web_1_" data-name="world-wide-web (1)" d="M14.585,9.967a7.5,7.5,0,0,0,0-4.935.54.54,0,0,0-.024-.068,7.5,7.5,0,0,0-14.117,0,.533.533,0,0,0-.024.068,7.5,7.5,0,0,0,0,4.935.54.54,0,0,0,.024.068,7.5,7.5,0,0,0,14.117,0A.536.536,0,0,0,14.585,9.967ZM7.5,13.925c-.286,0-.746-.517-1.131-1.672a11.774,11.774,0,0,1-.443-1.895H9.076a11.784,11.784,0,0,1-.443,1.895C8.248,13.408,7.788,13.925,7.5,13.925ZM5.8,9.283C5.746,8.71,5.719,8.112,5.719,7.5s.027-1.21.079-1.783H9.206c.052.573.079,1.171.079,1.783s-.027,1.21-.079,1.783ZM1.077,7.5a6.406,6.406,0,0,1,.252-1.783h3.39C4.669,6.3,4.644,6.9,4.644,7.5s.025,1.2.076,1.783H1.329A6.407,6.407,0,0,1,1.077,7.5ZM7.5,1.075c.286,0,.746.517,1.131,1.672a11.775,11.775,0,0,1,.443,1.895H5.928a11.773,11.773,0,0,1,.443-1.895C6.756,1.592,7.216,1.075,7.5,1.075Zm2.783,4.642h3.39a6.436,6.436,0,0,1,0,3.567h-3.39c.05-.585.076-1.185.076-1.783S10.335,6.3,10.285,5.717Zm2.97-1.075H10.161A10.318,10.318,0,0,0,9.182,1.3,6.453,6.453,0,0,1,13.255,4.642ZM5.822,1.3a10.318,10.318,0,0,0-.98,3.343H1.749A6.453,6.453,0,0,1,5.822,1.3Zm-4.073,9.06H4.843a10.319,10.319,0,0,0,.98,3.343A6.453,6.453,0,0,1,1.749,10.359ZM9.182,13.7a10.318,10.318,0,0,0,.98-3.343h3.093A6.453,6.453,0,0,1,9.182,13.7Z" transform="translate(2685.998 2864)" fill="#545f7e"/>
    <rect id="Base" width="24" height="24" transform="translate(2681 2859)" fill="#545f7e" opacity="0"/>
  </g>
</svg>
