<svg width="25" height="24" viewBox="0 0 25 24" fill="none" xmlns="http://www.w3.org/2000/svg">
<path d="M19.0122 8.32996H16.813L15.5434 6.99658H10.6878V9.00103H8.60692V11.0016H6.52606V17.6665C6.52713 18.0199 6.67359 18.3584 6.93346 18.6082C7.19332 18.8581 7.54546 18.9989 7.91296 18.9999H19.0122C19.3797 18.9989 19.7318 18.8581 19.9917 18.6082C20.2516 18.3584 20.398 18.0199 20.3991 17.6665V9.6682C20.3994 9.31404 20.2535 8.97424 19.9935 8.72335C19.7335 8.47247 19.3806 8.33099 19.0122 8.32996ZM13.4626 16.9994C12.7765 16.9994 12.1059 16.8038 11.5354 16.4373C10.965 16.0709 10.5204 15.55 10.2579 14.9407C9.99532 14.3313 9.92663 13.6608 10.0605 13.0138C10.1943 12.3669 10.5247 11.7727 11.0098 11.3063C11.4949 10.8399 12.113 10.5223 12.7859 10.3936C13.4587 10.2649 14.1562 10.331 14.79 10.5834C15.4239 10.8358 15.9656 11.2633 16.3468 11.8117C16.7279 12.3601 16.9313 13.0049 16.9313 13.6644C16.9319 14.1028 16.8426 14.5369 16.6685 14.942C16.4944 15.3471 16.239 15.7153 15.9169 16.0254C15.5947 16.3356 15.2121 16.5817 14.791 16.7496C14.3699 16.9176 13.9185 17.0041 13.4626 17.0042V16.9994Z" fill="#0E9594"/>
<path d="M6.52605 10.3355H7.91396V8.33491H9.99481V7.00056H7.91396V5H6.52605V7.00056H4.44519V8.33394H6.52605V10.3355Z" fill="#0E9594"/>
<path d="M13.4625 11.5356C13.171 11.5354 12.8822 11.5904 12.6128 11.6976C12.3434 11.8047 12.0987 11.9619 11.8925 12.1601C11.6864 12.3582 11.5229 12.5936 11.4114 12.8526C11.3 13.1116 11.2428 13.3892 11.243 13.6694C11.243 14.0915 11.3732 14.504 11.6171 14.8549C11.861 15.2058 12.2076 15.4793 12.6132 15.6408C13.0187 15.8023 13.465 15.8446 13.8955 15.7623C14.326 15.6799 14.7215 15.4767 15.0319 15.1783C15.3423 14.8798 15.5537 14.4997 15.6393 14.0857C15.7249 13.6718 15.681 13.2428 15.513 12.8529C15.345 12.463 15.0605 12.1297 14.6956 11.8953C14.3306 11.6608 13.9015 11.5356 13.4625 11.5356Z" fill="#0E9594"/>
</svg>
