<svg width="20" height="21" viewBox="0 0 20 21" fill="none" xmlns="http://www.w3.org/2000/svg">
<path d="M17.0137 14.9157H14.9431V12.845C14.9431 12.6881 14.8808 12.5376 14.7698 12.4267C14.6589 12.3157 14.5084 12.2534 14.3515 12.2534C14.1946 12.2534 14.0441 12.3157 13.9332 12.4267C13.8222 12.5376 13.7599 12.6881 13.7599 12.845V14.9157H11.6893C11.5324 14.9157 11.3819 14.978 11.2709 15.0889C11.16 15.1999 11.0977 15.3504 11.0977 15.5073C11.0977 15.6642 11.16 15.8146 11.2709 15.9256C11.3819 16.0365 11.5324 16.0989 11.6893 16.0989H13.7599V18.1695C13.7599 18.3264 13.8222 18.4769 13.9332 18.5878C14.0441 18.6988 14.1946 18.7611 14.3515 18.7611C14.5084 18.7611 14.6589 18.6988 14.7698 18.5878C14.8808 18.4769 14.9431 18.3264 14.9431 18.1695V16.0989H17.0137C17.1706 16.0989 17.3211 16.0365 17.4321 15.9256C17.543 15.8146 17.6053 15.6642 17.6053 15.5073C17.6053 15.3504 17.543 15.1999 17.4321 15.0889C17.3211 14.978 17.1706 14.9157 17.0137 14.9157Z" fill="#222222"/>
<path d="M9.91355 18.7611H3.99748C3.84057 18.7611 3.6901 18.6987 3.57915 18.5878C3.4682 18.4768 3.40587 18.3264 3.40587 18.1695C3.40791 16.4441 4.09419 14.7901 5.31417 13.5701C6.53416 12.3501 8.18823 11.6638 9.91355 11.6618C11.057 11.6653 12.1633 11.256 13.0292 10.5092C13.8951 9.76228 14.4623 8.728 14.6266 7.59639C14.7909 6.46478 14.5413 5.31189 13.9236 4.34959C13.3059 3.3873 12.3617 2.68026 11.2645 2.35843C10.1672 2.0366 8.99066 2.12159 7.95106 2.59779C6.91146 3.07399 6.07866 3.9094 5.6057 4.95048C5.13275 5.99157 5.05143 7.16837 5.37669 8.26461C5.70195 9.36085 6.41193 10.3029 7.37615 10.9175C5.87221 11.4443 4.56878 12.4247 3.64572 13.7236C2.72265 15.0226 2.22543 16.576 2.22266 18.1695C2.22266 18.6402 2.40965 19.0916 2.74249 19.4244C3.07533 19.7573 3.52677 19.9443 3.99748 19.9443H9.91355C10.0705 19.9443 10.2209 19.882 10.3319 19.771C10.4428 19.6601 10.5052 19.5096 10.5052 19.3527C10.5052 19.1958 10.4428 19.0453 10.3319 18.9343C10.2209 18.8234 10.0705 18.7611 9.91355 18.7611ZM6.36391 6.92892C6.36391 6.22687 6.57209 5.54058 6.96213 4.95685C7.35217 4.37311 7.90655 3.91814 8.55516 3.64948C9.20377 3.38082 9.91749 3.31052 10.6061 3.44748C11.2946 3.58445 11.9271 3.92252 12.4235 4.41895C12.92 4.91537 13.258 5.54786 13.395 6.23642C13.532 6.92499 13.4617 7.6387 13.193 8.28731C12.9243 8.93593 12.4694 9.4903 11.8856 9.88034C11.3019 10.2704 10.6156 10.4786 9.91355 10.4786C8.97241 10.4776 8.07009 10.1033 7.40461 9.43786C6.73913 8.77238 6.36485 7.87006 6.36391 6.92892Z" fill="#222222"/>
</svg>
