<svg width="20" height="20" viewBox="0 0 20 20" fill="none" xmlns="http://www.w3.org/2000/svg">
<path d="M10 18.25C14.5563 18.25 18.25 14.5563 18.25 10C18.25 5.44365 14.5563 1.75 10 1.75C5.44365 1.75 1.75 5.44365 1.75 10C1.75 14.5563 5.44365 18.25 10 18.25Z" stroke="#49B776" stroke-width="2" stroke-dasharray="2 2"/>
<path d="M13.9398 9.43975H10.5602V6.06025C10.5602 5.91166 10.5012 5.76916 10.3962 5.66409C10.2911 5.55903 10.1486 5.5 10 5.5C9.85141 5.5 9.70891 5.55903 9.60384 5.66409C9.49878 5.76916 9.43975 5.91166 9.43975 6.06025V9.43975H6.06025C5.91166 9.43975 5.76916 9.49878 5.66409 9.60384C5.55903 9.70891 5.5 9.85141 5.5 10C5.5 10.1486 5.55903 10.2911 5.66409 10.3962C5.76916 10.5012 5.91166 10.5602 6.06025 10.5602H9.43975V13.9398C9.43975 14.0883 9.49878 14.2308 9.60384 14.3359C9.70891 14.441 9.85141 14.5 10 14.5C10.1486 14.5 10.2911 14.441 10.3962 14.3359C10.5012 14.2308 10.5602 14.0883 10.5602 13.9398V10.5602H13.9398C14.0883 10.5602 14.2308 10.5012 14.3359 10.3962C14.441 10.2911 14.5 10.1486 14.5 10C14.5 9.85141 14.441 9.70891 14.3359 9.60384C14.2308 9.49878 14.0883 9.43975 13.9398 9.43975Z" fill="#49B776"/>
</svg>
