<svg width="24" height="24" viewBox="0 0 24 24" fill="none" xmlns="http://www.w3.org/2000/svg">
<path d="M12.1269 11.738C14.7949 11.738 16.9589 9.11 16.9589 5.869C16.9589 2.628 16.2479 0 12.1269 0C8.00592 0 7.29492 2.628 7.29492 5.869C7.29492 9.11 9.45991 11.738 12.1269 11.738Z" fill="#222222" fill-opacity="0.8"/>
<path d="M21.242 20.4625C21.153 14.8165 20.415 13.2075 14.772 12.1885C14.0448 12.8404 13.1026 13.2009 12.126 13.2009C11.1494 13.2009 10.2072 12.8404 9.48 12.1885C3.899 13.1955 3.116 14.7805 3.014 20.2785C3.006 20.7275 3.002 20.7515 3 20.6985C3 20.7985 3 20.9765 3 21.2915C3 21.2915 4.343 23.9995 12.125 23.9995C19.907 23.9995 21.25 21.2915 21.25 21.2915C21.25 21.0915 21.25 20.9485 21.25 20.8525C21.2403 20.7227 21.2377 20.5925 21.242 20.4625Z" fill="#222222" fill-opacity="0.8"/>
</svg>
