<svg width="24" height="25" viewBox="0 0 24 25" fill="none" xmlns="http://www.w3.org/2000/svg">
<path d="M20.8456 20.6736C19.8645 20.0767 19.0693 19.2178 18.5496 18.1936C19.3788 17.4237 20.0417 16.4922 20.4974 15.4565C20.953 14.4208 21.1919 13.3027 21.1992 12.1712C21.1992 7.51922 17.1416 3.69922 12.1984 3.69922C7.25522 3.69922 3.19922 7.51922 3.19922 12.1712C3.19922 16.8232 7.25602 20.6432 12.1984 20.6432C12.9925 20.6389 13.7837 20.5488 14.5584 20.3744C16.339 21.3127 18.3343 21.768 20.3456 21.6952C20.7384 21.6904 21.024 21.7616 21.1704 21.3552C21.2174 21.2217 21.2096 21.0751 21.1487 20.9474C21.0878 20.8197 20.9789 20.7212 20.8456 20.6736ZM13.2536 16.4256C13.2536 16.7054 13.1425 16.9737 12.9447 17.1715C12.7469 17.3693 12.4786 17.4804 12.1988 17.4804C11.9191 17.4804 11.6508 17.3693 11.453 17.1715C11.2551 16.9737 11.144 16.7054 11.144 16.4256V12.1712C11.144 11.8915 11.2551 11.6232 11.453 11.4254C11.6508 11.2275 11.9191 11.1164 12.1988 11.1164C12.4786 11.1164 12.7469 11.2275 12.9447 11.4254C13.1425 11.6232 13.2536 11.8915 13.2536 12.1712V16.4256ZM12.1984 9.50002C11.9899 9.50002 11.786 9.43818 11.6126 9.32232C11.4392 9.20646 11.3041 9.04179 11.2243 8.84912C11.1445 8.65645 11.1236 8.44445 11.1643 8.23992C11.205 8.03538 11.3054 7.84751 11.4528 7.70005C11.6003 7.55258 11.7882 7.45216 11.9927 7.41148C12.1972 7.37079 12.4093 7.39168 12.6019 7.47148C12.7946 7.55129 12.9593 7.68643 13.0751 7.85983C13.191 8.03322 13.2528 8.23708 13.2528 8.44562C13.2528 8.72526 13.1417 8.99345 12.944 9.19119C12.7463 9.38893 12.4781 9.50002 12.1984 9.50002Z" fill="#49B776"/>
</svg>
