<svg width="24" height="24" viewBox="0 0 24 24" fill="none" xmlns="http://www.w3.org/2000/svg">
<path d="M11.7557 2.89637C4.79599 2.89899 0.410914 10.3502 3.88281 16.3159L3.88283 16.316C3.88672 16.3226 3.89352 16.3293 3.90677 16.3328C3.92007 16.3364 3.93244 16.3347 3.94361 16.3284C3.94966 16.3249 3.95271 16.3217 3.9545 16.3194C3.95659 16.3167 3.95813 16.3136 3.95903 16.3103C3.95992 16.3071 3.95999 16.3044 3.95975 16.3024L11.7557 2.89637ZM11.7557 2.89637L11.7572 2.89638L11.7666 2.8964L11.9901 2.89646L14.5923 2.89655H16.214L15.0596 1.75755L14.0001 0.712147C13.9958 0.707917 13.9942 0.704865 13.9935 0.703003C13.9925 0.700703 13.9919 0.697935 13.9919 0.694843C13.9919 0.691751 13.9925 0.688968 13.9935 0.686639C13.9943 0.684749 13.9959 0.681656 14.0002 0.677385L11.7557 2.89637ZM12.1218 2.23111C12.1124 2.23111 12.1033 2.23111 12.0944 2.23111C12.0838 2.58785 11.857 2.88366 11.7901 2.89561M12.1218 2.23111L11.7655 2.89635M12.1218 2.23111C12.0957 2.60772 11.843 2.89068 11.8109 2.89438C11.8045 2.89483 11.7963 2.89529 11.7901 2.89561M12.1218 2.23111L11.7901 2.89561M11.7901 2.89561C11.7896 2.8957 11.7891 2.89578 11.7886 2.89583L11.7719 2.89629L11.7683 2.89634L11.7658 2.89636C11.7657 2.89636 11.7656 2.89635 11.7655 2.89635M11.7655 2.89635C11.7641 2.89636 11.7604 2.89638 11.7625 2.89637L11.7628 2.89637L11.7636 2.89637L11.7655 2.89635ZM14.0637 5.17737L14.0638 5.1773L16.3266 2.94475L14.0637 5.17737ZM14.0637 5.17737C14.0566 5.18442 14.0465 5.18944 14.0321 5.18944C14.0175 5.18945 14.0073 5.18437 14.0002 5.17749L14.0637 5.17737ZM11.7913 2.95543C4.92753 2.9227 0.476033 10.3136 3.95659 16.2941L14.0001 5.14273L15.0626 4.09443L16.217 2.95543H14.5952H11.7913Z" fill="#506C84" stroke="#506C84" stroke-width="1.33073"/>
<path d="M20.1171 7.68399L20.1171 7.68396C20.1133 7.67749 20.1066 7.67078 20.0932 7.66718C20.0796 7.66356 20.0672 7.66539 20.0564 7.67152C20.0504 7.67496 20.0473 7.67815 20.0455 7.68046C20.0434 7.68316 20.0419 7.68628 20.041 7.68954C20.0401 7.6928 20.04 7.69552 20.0403 7.69749C20.0405 7.69897 20.0409 7.70151 20.0434 7.70577L20.0435 7.70583C23.5035 13.6512 19.1283 21.0446 12.2312 21.0446H9.40499H7.78329L8.93767 19.9056L10.0002 18.8572L10.0003 18.8571C10.0046 18.8529 10.0061 18.8498 10.0069 18.848C10.0078 18.8457 10.0084 18.843 10.0084 18.8399C10.0084 18.8368 10.0078 18.8341 10.0069 18.8318C10.0061 18.8299 10.0045 18.8268 10.0002 18.8225L10.4668 18.3482M20.1171 7.68399L9.93632 23.3223L7.69069 21.1067L7.68299 21.0991L7.67506 21.0917C7.67011 21.0872 7.66821 21.0837 7.66726 21.0816C7.66611 21.079 7.66543 21.076 7.66537 21.0728C7.66531 21.0697 7.66589 21.067 7.66675 21.0648C7.66742 21.0631 7.66894 21.0599 7.67366 21.0553L9.93641 18.8227L9.93648 18.8227C9.94363 18.8156 9.9538 18.8105 9.96831 18.8105C9.98284 18.8105 9.99309 18.8156 10.0003 18.8227L10.4668 18.3482M20.1171 7.68399C23.5889 13.6497 19.2053 21.1033 12.24 21.1035C12.24 21.1035 12.24 21.1035 12.24 21.1035H9.40811H7.78642M20.1171 7.68399L7.78642 21.1035M10.4668 18.3482C10.191 18.0771 9.74428 18.0775 9.4691 18.3491L9.40499 19.7139H10.0793L10.4675 19.3309C10.7429 19.0593 10.7425 18.6194 10.4668 18.3482ZM7.78642 21.1035L8.94079 22.2425M7.78642 21.1035L8.94079 22.2425M8.94079 22.2425L10.0003 23.2879C10.0003 23.2879 10.0003 23.2879 10.0004 23.2879C10.0046 23.2921 10.0062 23.2951 10.0069 23.297C10.0079 23.2993 10.0085 23.3021 10.0085 23.3052C10.0085 23.3083 10.0078 23.311 10.0069 23.3134C10.0061 23.3153 10.0045 23.3184 10.0002 23.3226M8.94079 22.2425L10.0002 23.3226M10.0002 23.3226C9.99287 23.3297 9.98272 23.3347 9.96841 23.3346C9.954 23.3346 9.94372 23.3296 9.93641 23.3224L10.0002 23.3226Z" fill="#506C84" stroke="#506C84" stroke-width="1.33073"/>
<path d="M11.25 9.85714H14.25C14.6641 9.85714 15 9.5372 15 9.14286C15 8.74833 14.6641 8.42857 14.25 8.42857H12.75V7.71429C12.75 7.31975 12.4141 7 12 7C11.5857 7 11.25 7.31975 11.25 7.71429V8.42857C10.0092 8.42857 9 9.38988 9 10.5714C9 11.753 10.0092 12.7143 11.25 12.7143H12.7498C13.1635 12.7143 13.5 13.0346 13.5 13.4286C13.5 13.8225 13.1654 14.143 12.7498 14.143C12.7496 14.143 9.7498 14.1429 9.75 14.1429C9.33574 14.1429 9 14.4626 9 14.857C8.9998 15.2515 9.33555 15.5712 9.7498 15.5714H11.25V16.2857C11.25 16.6801 11.5857 17 12 17C12.4141 17 12.75 16.6801 12.75 16.2857V15.5716C13.9934 15.5716 15 14.6135 15 13.4286C15 12.247 13.9904 11.2857 12.7498 11.2857H11.25C10.8363 11.2857 10.5 10.9652 10.5 10.5714C10.5 10.1775 10.8363 9.85714 11.25 9.85714Z" fill="#506C84"/>
</svg>
