<svg width="42" height="42" viewBox="0 0 42 42" fill="none" xmlns="http://www.w3.org/2000/svg">
<path fill-rule="evenodd" clip-rule="evenodd" d="M3.9375 12.25C3.9375 11.5251 4.52513 10.9375 5.25 10.9375H36.75C37.4749 10.9375 38.0625 11.5251 38.0625 12.25C38.0625 12.9749 37.4749 13.5625 36.75 13.5625H5.25C4.52513 13.5625 3.9375 12.9749 3.9375 12.25Z" fill="#20313F"/>
<path fill-rule="evenodd" clip-rule="evenodd" d="M3.9375 21C3.9375 20.2751 4.52513 19.6875 5.25 19.6875H36.75C37.4749 19.6875 38.0625 20.2751 38.0625 21C38.0625 21.7249 37.4749 22.3125 36.75 22.3125H5.25C4.52513 22.3125 3.9375 21.7249 3.9375 21Z" fill="#20313F"/>
<path fill-rule="evenodd" clip-rule="evenodd" d="M3.9375 29.75C3.9375 29.0251 4.52513 28.4375 5.25 28.4375H36.75C37.4749 28.4375 38.0625 29.0251 38.0625 29.75C38.0625 30.4749 37.4749 31.0625 36.75 31.0625H5.25C4.52513 31.0625 3.9375 30.4749 3.9375 29.75Z" fill="#20313F"/>
</svg>
