<svg width="69" height="68" viewBox="0 0 69 68" fill="none" xmlns="http://www.w3.org/2000/svg">
<g clip-path="url(#clip0_220_12152)">
<path d="M34.5001 68.0002C53.2778 68.0002 68.5002 52.7778 68.5002 34.0001C68.5002 15.2224 53.2778 0 34.5001 0C15.7224 0 0.5 15.2224 0.5 34.0001C0.5 52.7778 15.7224 68.0002 34.5001 68.0002Z" fill="#D03325"/>
<path d="M68.5001 33.9999C68.5001 52.7 53.2001 68 34.5 68C23.6626 68 14.1001 63.1125 7.9375 55.25C13.675 59.925 21.1125 62.6876 29.1875 62.6876C47.8875 62.6876 63.1875 47.3875 63.1875 28.6875C63.1875 20.6125 60.425 13.175 55.75 7.4375C63.6126 13.5998 68.5001 23.1623 68.5001 33.9999Z" fill="#BB2A1D"/>
<path d="M50.0126 49.5124C48.7377 50.7874 46.6126 50.7874 45.3376 49.5124L34.5002 38.675L23.6627 49.5124C22.3878 50.7874 20.2627 50.7874 18.9877 49.5124C17.7128 48.2375 17.7128 46.1123 18.9877 44.8374L29.8252 33.9999L18.9877 23.1625C17.7128 21.8875 17.7128 19.7624 18.9877 18.4875C20.2627 17.2125 22.3878 17.2125 23.6627 18.4875L34.5002 29.3249L45.3376 18.4875C46.6126 17.2125 48.7377 17.2125 50.0126 18.4875C51.2876 19.7624 51.2876 21.8875 50.0126 23.1625L39.1752 33.9999L50.0126 44.8374C51.2876 46.1123 51.2876 48.2373 50.0126 49.5124Z" fill="white"/>
</g>
<defs>
<clipPath id="clip0_220_12152">
<rect width="68" height="68" fill="white" transform="translate(0.5)"/>
</clipPath>
</defs>
</svg>
