<svg width="18" height="19" viewBox="0 0 18 19" fill="none" xmlns="http://www.w3.org/2000/svg">
<path fill-rule="evenodd" clip-rule="evenodd" d="M1.5 9.5C1.5 5.35786 4.85786 2 9 2C10.196 2 11.3287 2.28051 12.3338 2.78001C12.7047 2.96434 12.856 3.41448 12.6716 3.78541C12.4873 4.15635 12.0371 4.30762 11.6663 4.12327C10.8639 3.72455 9.95925 3.5 9 3.5C5.68629 3.5 3 6.18629 3 9.5C3 12.8137 5.68629 15.5 9 15.5C12.3137 15.5 15 12.8137 15 9.5C15 9.2741 14.9876 9.05135 14.9633 8.83243C14.9178 8.42068 15.2147 8.05003 15.6264 8.00458C16.0381 7.95903 16.4087 8.2559 16.4543 8.66758C16.4845 8.94117 16.5 9.2189 16.5 9.5C16.5 13.6421 13.1421 17 9 17C4.85786 17 1.5 13.6421 1.5 9.5ZM16.2803 3.71967C16.5732 4.01257 16.5732 4.48744 16.2803 4.78033L9.53033 11.5303C9.23745 11.8232 8.76255 11.8232 8.46968 11.5303L6.21967 9.28033C5.92678 8.98745 5.92678 8.51255 6.21967 8.21968C6.51257 7.92678 6.98744 7.92678 7.28033 8.21968L9 9.93935L15.2197 3.71967C15.5126 3.42678 15.9875 3.42678 16.2803 3.71967Z" fill="#767676"/>
</svg>
