<svg width="16" height="16" viewBox="0 0 16 16" fill="none" xmlns="http://www.w3.org/2000/svg">
<path d="M14.2324 4.55535L13.2031 3.56575C13.1822 3.54477 13.1568 3.52809 13.1285 3.51678C13.1003 3.50547 13.0698 3.49979 13.0391 3.50008C13.0083 3.49926 12.9776 3.50472 12.9493 3.51606C12.921 3.5274 12.8957 3.54436 12.8751 3.56575L5.73629 10.2707L3.13834 7.848C3.11725 7.8272 3.09182 7.81063 3.06362 7.79931C3.03543 7.78799 3.00505 7.78215 2.97434 7.78215C2.94364 7.78215 2.91327 7.78799 2.88507 7.79931C2.85687 7.81063 2.83144 7.8272 2.81035 7.848L1.76943 8.8187C1.7472 8.83898 1.72954 8.86319 1.71749 8.88992C1.70543 8.91664 1.69922 8.94535 1.69922 8.97434C1.69922 9.00334 1.70543 9.03204 1.71749 9.05877C1.72954 9.08549 1.7472 9.1097 1.76943 9.12998L5.04942 12.1887C5.22705 12.3698 5.47194 12.4811 5.73436 12.5C5.99053 12.4777 6.22986 12.3712 6.40965 12.1995H6.41544L14.2373 4.86752C14.278 4.82415 14.3001 4.76823 14.2992 4.71057C14.2983 4.65291 14.2745 4.5976 14.2324 4.55535Z" fill="#222222" fill-opacity="0.8"/>
</svg>
