<svg width="16" height="16" viewBox="0 0 16 16" fill="none" xmlns="http://www.w3.org/2000/svg">
<g id="Close">
<rect width="16" height="16" rx="8" fill="#9F9F9F"/>
<g id="Menu Icon">
<path id="Base" d="M10.909 4.36343L4.36363 10.9088C4.1628 11.1097 4.1628 11.4353 4.36363 11.6361C4.56446 11.8369 4.89007 11.8369 5.09089 11.6361L11.6363 5.0907C11.8371 4.88987 11.8371 4.56426 11.6363 4.36343C11.4354 4.1626 11.1098 4.1626 10.909 4.36343Z" fill="white"/>
<path id="Base_2" d="M11.636 10.909L5.09068 4.36363C4.88985 4.1628 4.56425 4.1628 4.36342 4.36363C4.16259 4.56446 4.16259 4.89007 4.36342 5.0909L10.9088 11.6363C11.1096 11.8371 11.4352 11.8371 11.636 11.6363C11.8369 11.4355 11.8369 11.1099 11.636 10.909Z" fill="white"/>
</g>
</g>
</svg>
