<svg width="30" height="30" viewBox="0 0 30 30" fill="none" xmlns="http://www.w3.org/2000/svg">
<rect width="30" height="30" rx="15" fill="#F5F7F9"/>
<path fill-rule="evenodd" clip-rule="evenodd" d="M8.7 21.3C8.3134 20.9134 8.3134 20.2866 8.7 19.9L19.9 8.7C20.2866 8.3134 20.9134 8.3134 21.3 8.7C21.6866 9.0866 21.6866 9.7134 21.3 10.1L10.1 21.3C9.7134 21.6866 9.0866 21.6866 8.7 21.3Z" fill="#20313F"/>
<path fill-rule="evenodd" clip-rule="evenodd" d="M8.7 8.70006C9.0866 8.31346 9.7134 8.31346 10.1 8.70006L21.3 19.9C21.6866 20.2866 21.6866 20.9134 21.3 21.3C20.9134 21.6866 20.2866 21.6866 19.9 21.3L8.7 10.1001C8.3134 9.71346 8.3134 9.08665 8.7 8.70006Z" fill="#20313F"/>
</svg>
