<svg width="18" height="19" viewBox="0 0 18 19" fill="none" xmlns="http://www.w3.org/2000/svg">
<path d="M9 17.375C7.44248 17.375 5.91992 16.9131 4.62489 16.0478C3.32985 15.1825 2.32049 13.9526 1.72445 12.5136C1.12841 11.0747 0.972461 9.49127 1.27632 7.96367C1.58018 6.43607 2.3302 5.03288 3.43154 3.93154C4.53288 2.8302 5.93607 2.08018 7.46367 1.77632C8.99127 1.47246 10.5747 1.62841 12.0136 2.22445C13.4526 2.82049 14.6825 3.82985 15.5478 5.12489C16.4131 6.41992 16.875 7.94248 16.875 9.5C16.875 11.5886 16.0453 13.5916 14.5685 15.0685C13.0916 16.5453 11.0886 17.375 9 17.375ZM9 2.75C7.66498 2.75 6.35994 3.14588 5.2499 3.88758C4.13987 4.62928 3.27471 5.68349 2.76382 6.91689C2.25293 8.15029 2.11925 9.50749 2.3797 10.8169C2.64015 12.1262 3.28303 13.329 4.22703 14.273C5.17104 15.217 6.37377 15.8599 7.68314 16.1203C8.99252 16.3808 10.3497 16.2471 11.5831 15.7362C12.8165 15.2253 13.8707 14.3601 14.6124 13.2501C15.3541 12.1401 15.75 10.835 15.75 9.5C15.75 7.70979 15.0388 5.9929 13.773 4.72703C12.5071 3.46116 10.7902 2.75 9 2.75Z" fill="#767676"/>
<path d="M11.8109 12.8734C11.7369 12.8738 11.6635 12.8596 11.5949 12.8316C11.5264 12.8036 11.4641 12.7624 11.4115 12.7103L8.59902 9.89777C8.4931 9.79185 8.43359 9.64819 8.43359 9.4984C8.43359 9.42422 8.4482 9.35078 8.47659 9.28225C8.50497 9.21373 8.54657 9.15147 8.59902 9.09902C8.65147 9.04657 8.71373 9.00497 8.78225 8.97659C8.85078 8.9482 8.92422 8.93359 8.9984 8.93359C9.14819 8.93359 9.29185 8.9931 9.39777 9.09902L12.2103 11.9115C12.263 11.9638 12.3048 12.026 12.3334 12.0946C12.362 12.1631 12.3767 12.2366 12.3767 12.3109C12.3767 12.3852 12.362 12.4587 12.3334 12.5272C12.3048 12.5958 12.263 12.658 12.2103 12.7103C12.1577 12.7624 12.0954 12.8036 12.0268 12.8316C11.9583 12.8596 11.8849 12.8738 11.8109 12.8734Z" fill="#767676"/>
<path d="M6.18686 12.8734C6.11283 12.8738 6.03944 12.8596 5.97091 12.8316C5.90237 12.8036 5.84004 12.7624 5.78748 12.7103C5.73476 12.658 5.69291 12.5958 5.66435 12.5272C5.6358 12.4587 5.62109 12.3852 5.62109 12.3109C5.62109 12.2366 5.6358 12.1631 5.66435 12.0946C5.69291 12.026 5.73476 11.9638 5.78748 11.9115L8.59998 9.09902C8.7059 8.9931 8.84956 8.93359 8.99936 8.93359C9.14915 8.93359 9.29281 8.9931 9.39873 9.09902C9.50465 9.20494 9.56416 9.3486 9.56416 9.4984C9.56416 9.64819 9.50465 9.79185 9.39873 9.89777L6.58623 12.7103C6.53367 12.7624 6.47134 12.8036 6.4028 12.8316C6.33427 12.8596 6.26088 12.8738 6.18686 12.8734Z" fill="#767676"/>
<path d="M8.99936 10.0609C8.92533 10.0613 8.85194 10.0471 8.78341 10.0191C8.71487 9.99115 8.65254 9.9499 8.59998 9.89777C8.54726 9.84548 8.50541 9.78327 8.47685 9.71472C8.4483 9.64617 8.43359 9.57265 8.43359 9.49839C8.43359 9.42414 8.4483 9.35062 8.47685 9.28207C8.50541 9.21352 8.54726 9.15131 8.59998 9.09902L11.4125 6.28652C11.4649 6.23407 11.5272 6.19247 11.5957 6.16409C11.6642 6.1357 11.7377 6.12109 11.8119 6.12109C11.886 6.12109 11.9595 6.1357 12.028 6.16409C12.0965 6.19247 12.1588 6.23407 12.2112 6.28652C12.2637 6.33897 12.3053 6.40123 12.3337 6.46975C12.362 6.53828 12.3767 6.61172 12.3767 6.6859C12.3767 6.76007 12.362 6.83351 12.3337 6.90204C12.3053 6.97056 12.2637 7.03282 12.2112 7.08527L9.39873 9.89777C9.34617 9.9499 9.28384 9.99115 9.2153 10.0191C9.14677 10.0471 9.07338 10.0613 8.99936 10.0609Z" fill="#767676"/>
<path d="M8.99839 10.0609C8.92437 10.0613 8.85098 10.0471 8.78245 10.0191C8.71391 9.99115 8.65158 9.9499 8.59902 9.89777L5.78652 7.08527C5.6806 6.97935 5.62109 6.83569 5.62109 6.6859C5.62109 6.5361 5.6806 6.39244 5.78652 6.28652C5.89244 6.1806 6.0361 6.12109 6.1859 6.12109C6.33569 6.12109 6.47935 6.1806 6.58527 6.28652L9.39777 9.09902C9.45049 9.15131 9.49234 9.21352 9.5209 9.28207C9.54945 9.35062 9.56416 9.42414 9.56416 9.49839C9.56416 9.57265 9.54945 9.64617 9.5209 9.71472C9.49234 9.78327 9.45049 9.84548 9.39777 9.89777C9.34521 9.9499 9.28288 9.99115 9.21434 10.0191C9.14581 10.0471 9.07242 10.0613 8.99839 10.0609Z" fill="#767676"/>
</svg>
