<svg width="12" height="13" viewBox="0 0 12 13" fill="none" xmlns="http://www.w3.org/2000/svg">
<rect y="0.5" width="12" height="12" rx="6" fill="#51566D" fill-opacity="0.5"/>
<path d="M8.18175 3.77233L3.27272 8.68138C3.1221 8.832 3.1221 9.0762 3.27272 9.22683C3.42334 9.37745 3.66755 9.37745 3.81817 9.22683L8.72719 4.31778C8.87782 4.16716 8.87782 3.92295 8.72719 3.77233C8.57657 3.62171 8.33237 3.62171 8.18175 3.77233Z" fill="white"/>
<path d="M8.72667 8.68177L3.81765 3.77272C3.66702 3.6221 3.42282 3.6221 3.2722 3.77272C3.12158 3.92335 3.12158 4.16755 3.2722 4.31817L8.18122 9.22722C8.33184 9.37785 8.57605 9.37785 8.72667 9.22722C8.87729 9.0766 8.87729 8.8324 8.72667 8.68177Z" fill="white"/>
</svg>
