<svg width="32" height="32" viewBox="0 0 32 32" fill="none" xmlns="http://www.w3.org/2000/svg">
<path fill-rule="evenodd" clip-rule="evenodd" d="M7.6013 24.4001C7.08584 23.8847 7.08584 23.0489 7.6013 22.5335L22.5346 7.60015C23.0501 7.08468 23.8858 7.08468 24.4013 7.60015C24.9168 8.11561 24.9168 8.95135 24.4013 9.46681L9.46797 24.4001C8.9525 24.9156 8.11677 24.9156 7.6013 24.4001Z" fill="#49B776"/>
<path fill-rule="evenodd" clip-rule="evenodd" d="M7.6013 7.60011C8.11677 7.08465 8.9525 7.08465 9.46797 7.60011L24.4013 22.5334C24.9168 23.0489 24.9168 23.8846 24.4013 24.4001C23.8858 24.9156 23.0501 24.9156 22.5346 24.4001L7.6013 9.46678C7.08584 8.95131 7.08584 8.11558 7.6013 7.60011Z" fill="#49B776"/>
</svg>
