<svg width="36" height="36" viewBox="0 0 36 36" fill="none" xmlns="http://www.w3.org/2000/svg">
<circle cx="18" cy="18" r="18" fill="white"/>
<circle cx="18" cy="18" r="16" fill="#49B776"/>
<path d="M16.408 18.0001L21.708 12.7071C21.8954 12.5192 22.0004 12.2645 22.0001 11.9991C21.9997 11.7338 21.8939 11.4794 21.706 11.2921C21.5181 11.1047 21.2634 10.9996 20.9981 11C20.7327 11.0004 20.4784 11.1062 20.291 11.2941L14.291 17.2941C14.1097 17.4763 14.0056 17.7213 14.0002 17.9783C13.9948 18.2352 14.0886 18.4844 14.262 18.6741L20.284 24.7081C20.3768 24.8011 20.487 24.875 20.6083 24.9254C20.7296 24.9759 20.8597 25.0019 20.9911 25.0021C21.1225 25.0023 21.2526 24.9766 21.3741 24.9265C21.4955 24.8764 21.606 24.8028 21.699 24.7101C21.792 24.6173 21.8659 24.5071 21.9163 24.3858C21.9668 24.2644 21.9929 24.1344 21.9931 24.003C21.9932 23.8716 21.9675 23.7414 21.9174 23.62C21.8673 23.4985 21.7938 23.3881 21.701 23.2951L16.408 18.0001Z" fill="white"/>
</svg>
