<svg width="20" height="21" viewBox="0 0 20 21" fill="none" xmlns="http://www.w3.org/2000/svg">
<path d="M9.99826 19.9443C5.09673 19.9443 1.10938 15.9569 1.10938 11.0554C1.10938 6.15386 5.09673 2.1665 9.99826 2.1665C14.8998 2.1665 18.8872 6.15386 18.8872 11.0554C18.8872 15.9569 14.8998 19.9443 9.99826 19.9443ZM9.99826 3.27762C5.70939 3.27762 2.22049 6.76652 2.22049 11.0554C2.22049 15.3443 5.70939 18.8332 9.99826 18.8332C14.2871 18.8332 17.776 15.3443 17.776 11.0554C17.776 6.76652 14.2871 3.27762 9.99826 3.27762Z" fill="#222222"/>
<path d="M13.888 11.6111H6.11024C5.80358 11.6111 5.55469 11.3622 5.55469 11.0556C5.55469 10.7489 5.80358 10.5 6.11024 10.5H13.888C14.1947 10.5 14.4436 10.7489 14.4436 11.0556C14.4436 11.3622 14.1947 11.6111 13.888 11.6111Z" fill="#222222"/>
<path d="M9.99696 15.4997C9.69029 15.4997 9.44141 15.2508 9.44141 14.9442V7.1664C9.44141 6.85973 9.69029 6.61084 9.99696 6.61084C10.3036 6.61084 10.5525 6.85973 10.5525 7.1664V14.9442C10.5525 15.2508 10.3036 15.4997 9.99696 15.4997Z" fill="#222222"/>
</svg>
