<svg width="24" height="25" viewBox="0 0 24 25" fill="none" xmlns="http://www.w3.org/2000/svg">
<path d="M15.5496 16.2462C15.5954 15.764 15.5825 15.278 15.5112 14.799L16.6072 14.3102C16.398 13.2317 15.9455 12.2153 15.284 11.3382L14.1872 11.8262C13.8785 11.453 13.5258 11.1186 13.1368 10.8302L13.5664 9.71017C12.6547 9.09568 11.6151 8.69655 10.5264 8.54297L10.096 9.66297C9.61386 9.61718 9.12791 9.63007 8.64884 9.70137L8.16724 8.61017C7.08946 8.82337 6.07427 9.27885 5.19844 9.94217L5.67844 11.0254C5.30498 11.334 4.97028 11.6867 4.68164 12.0758L3.56644 11.6502C3.25811 12.1031 3.00309 12.59 2.80644 13.1014C2.61196 13.6117 2.47511 14.1422 2.39844 14.683L3.51844 15.1126C3.47265 15.5947 3.48554 16.0807 3.55684 16.5598L2.46084 17.0478C2.67011 18.1263 3.12296 19.1428 3.78484 20.0198L4.88084 19.5318C5.18899 19.9058 5.54144 20.2411 5.93044 20.5302L5.50084 21.6502C6.41259 22.2647 7.45213 22.6638 8.54084 22.8174L8.97124 21.6974C9.45342 21.743 9.93935 21.7301 10.4184 21.659L10.904 22.7494C11.982 22.5365 12.9975 22.0813 13.8736 21.4182L13.3936 20.335C13.7671 20.0264 14.1018 19.6737 14.3904 19.2846L15.5104 19.7134C15.8187 19.2604 16.0737 18.7735 16.2704 18.2622C16.4663 17.751 16.6037 17.2194 16.68 16.6774L15.5496 16.2462ZM12.572 16.8454C12.3416 17.4462 11.9381 17.9651 11.4127 18.3366C10.8873 18.7081 10.2635 18.9155 9.62027 18.9325C8.97701 18.9495 8.34315 18.7754 7.79884 18.4322C7.25454 18.089 6.82423 17.592 6.56234 17.0043C6.30045 16.4165 6.21873 15.7642 6.32751 15.13C6.4363 14.4958 6.73071 13.9081 7.17351 13.4412C7.61631 12.9743 8.18762 12.6491 8.81519 12.5069C9.44276 12.3647 10.0984 12.4118 10.6992 12.6422C11.0982 12.7952 11.4631 13.0253 11.7732 13.3193C12.0832 13.6133 12.3323 13.9656 12.5062 14.3559C12.6801 14.7462 12.7755 15.1669 12.7867 15.5941C12.798 16.0212 12.7251 16.4464 12.572 16.8454Z" fill="#49B776"/>
<path d="M21.6169 7.31309C21.6163 7.0997 21.5962 6.88682 21.5569 6.67709L22.3969 6.19149C22.1972 5.42864 21.7966 4.7333 21.2369 4.17789L20.3945 4.66429C20.0699 4.38643 19.6967 4.17107 19.2937 4.02909V3.05789C18.535 2.84529 17.7324 2.84529 16.9737 3.05789V4.02989C16.5708 4.17209 16.1976 4.38743 15.8729 4.66509L15.0305 4.17869C14.4685 4.73354 14.0654 5.42885 13.8633 6.19229L14.7041 6.67789C14.6231 7.09802 14.6231 7.52976 14.7041 7.94989L13.8633 8.43469C14.0633 9.19738 14.4638 9.89264 15.0233 10.4483L15.8657 9.96189C16.1903 10.2397 16.5635 10.455 16.9665 10.5971V11.5691C17.7252 11.7817 18.5278 11.7817 19.2865 11.5691V10.5963C19.6894 10.4542 20.0626 10.2388 20.3873 9.96109L21.2297 10.4475C21.7894 9.89208 22.19 9.19673 22.3897 8.43389L21.5497 7.94829C21.5915 7.73907 21.614 7.52644 21.6169 7.31309ZM18.1321 8.93949C17.8102 8.93965 17.4955 8.84435 17.2278 8.66565C16.9601 8.48694 16.7515 8.23286 16.6282 7.93555C16.5049 7.63823 16.4726 7.31103 16.5352 6.99533C16.5979 6.67963 16.7529 6.38962 16.9804 6.16197C17.2079 5.93432 17.4979 5.77926 17.8135 5.71641C18.1292 5.65356 18.4564 5.68574 18.7538 5.80888C19.0512 5.93201 19.3054 6.14057 19.4842 6.40818C19.663 6.67579 19.7585 6.99043 19.7585 7.31229C19.7585 7.74371 19.5872 8.15747 19.2822 8.46261C18.9772 8.76775 18.5635 8.93928 18.1321 8.93949Z" fill="#49B776"/>
</svg>
