<svg width="24" height="24" viewBox="0 0 24 24" fill="none" xmlns="http://www.w3.org/2000/svg">
<path d="M4.68839 4.626C4.54894 4.62582 4.41081 4.6531 4.2819 4.7063C4.15283 4.75956 4.03554 4.83774 3.93672 4.93638C3.8379 5.03502 3.75951 5.15218 3.70602 5.28115C3.65253 5.41013 3.625 5.54838 3.625 5.688V7.375V7.875H4.125H19.876H20.376V7.375V5.689C20.376 5.40708 20.264 5.1367 20.0647 4.93735C19.8653 4.73799 19.5949 4.626 19.313 4.626H4.68839ZM4.68839 4.626C4.68855 4.626 4.68872 4.626 4.68889 4.626L4.688 5.126M4.68839 4.626H4.688V5.126M4.688 5.126H19.313C19.4623 5.126 19.6055 5.18532 19.7111 5.2909C19.8167 5.39648 19.876 5.53968 19.876 5.689V6.875V7.375H19.376H4.625H4.125V6.875V5.688C4.125 5.61411 4.13957 5.54095 4.16788 5.4727C4.19618 5.40445 4.23767 5.34245 4.28996 5.29025C4.34225 5.23805 4.40432 5.19668 4.47262 5.16849C4.54093 5.14031 4.61411 5.12587 4.688 5.126ZM19.314 18.563L19.3149 18.563C19.5965 18.5625 19.8664 18.4503 20.0653 18.251C20.2643 18.0517 20.376 17.7816 20.376 17.5V8.501V8.001H19.876H4.126H3.626V8.501L3.626 17.501L3.626 17.5019C3.6265 17.7832 3.73846 18.0528 3.93734 18.2517C4.13623 18.4505 4.40584 18.5625 4.68711 18.563H4.688L19.314 18.563ZM20.5 17.5V17.5003C20.5001 17.6562 20.4695 17.8107 20.4098 17.9548C20.3502 18.0989 20.2628 18.2298 20.1526 18.3401C20.0424 18.4504 19.9115 18.5379 19.7674 18.5976C19.6234 18.6573 19.4689 18.688 19.313 18.688H4.6873C4.37234 18.6878 4.07035 18.5626 3.84771 18.3398C3.62507 18.117 3.5 17.815 3.5 17.5V5.688C3.5 5.37292 3.62516 5.07075 3.84796 4.84796C4.07075 4.62516 4.37292 4.5 4.688 4.5H19.3128C19.6277 4.50022 19.9297 4.62547 20.1523 4.84821C20.3749 5.07098 20.5 5.37305 20.5 5.688V17.5Z" fill="#545F7E" stroke="#494949"/>
<path d="M18.6875 6.18701H18.8125V6.31201H18.6875V6.18701Z" fill="#545F7E" stroke="#494949"/>
<path d="M17 6.18701H17.125V6.31201H17V6.18701Z" fill="#545F7E" stroke="#494949"/>
<path d="M15.3125 6.18701H15.4375V6.31201H15.3125V6.18701Z" fill="#545F7E" stroke="#494949"/>
<path d="M5.2505 17L5.24961 17C5.24146 17 5.23338 16.9984 5.22585 16.9953C5.21832 16.9922 5.21147 16.9877 5.2057 16.9819C5.19993 16.9761 5.19535 16.9693 5.19223 16.9618C5.18911 16.9542 5.1875 16.9462 5.1875 16.938V9.62502C5.1875 9.60831 5.19414 9.59228 5.20595 9.58047C5.21777 9.56865 5.23379 9.56202 5.2505 9.56202L9.4685 9.56202L9.47028 9.56201C9.47845 9.56198 9.48654 9.56357 9.4941 9.56668C9.50166 9.56979 9.50852 9.57436 9.5143 9.58013C9.52008 9.5859 9.52467 9.59276 9.52779 9.60031C9.53092 9.60786 9.53252 9.61595 9.5325 9.62412V9.62502V16.938C9.5325 16.9462 9.53089 16.9542 9.52777 16.9618C9.52465 16.9693 9.52007 16.9761 9.5143 16.9819C9.50853 16.9877 9.50168 16.9922 9.49415 16.9953C9.48662 16.9984 9.47854 17 9.47039 17H9.4695L5.2505 17ZM5.8135 9.68801H5.31358L5.3135 10.1879L5.3125 16.3759L5.31242 16.876H5.8125H8.9075H9.4075V16.376V10.188V9.68801H8.9075H5.8135Z" fill="#545F7E" stroke="#494949"/>
<path d="M18.8115 9.62412V9.62501V11.875C18.8115 11.8915 18.805 11.9072 18.7933 11.9189C18.7817 11.9305 18.7659 11.937 18.7495 11.937H10.8745C10.8664 11.937 10.8583 11.9354 10.8508 11.9323C10.8433 11.9292 10.8364 11.9246 10.8307 11.9189C10.8249 11.9131 10.8203 11.9063 10.8172 11.8987C10.8141 11.8912 10.8125 11.8832 10.8125 11.875L10.8125 9.62501L10.8125 9.62412C10.8125 9.61598 10.8141 9.6079 10.8172 9.60036C10.8203 9.59282 10.8249 9.58598 10.8306 9.58021C10.8364 9.57444 10.8432 9.56986 10.8507 9.56674C10.8583 9.56362 10.8663 9.56201 10.8745 9.56201H18.7495C18.7577 9.56201 18.7657 9.56362 18.7733 9.56674C18.7808 9.56987 18.7876 9.57444 18.7934 9.58021C18.7991 9.58598 18.8037 9.59283 18.8068 9.60036C18.8099 9.6079 18.8115 9.61597 18.8115 9.62412ZM11.4375 9.68701H10.9375V10.187V11.312V11.812H11.4375H18.1875H18.6875V11.312V10.187V9.68701H18.1875H11.4375Z" fill="#545F7E" stroke="#494949"/>
<path d="M18.8115 13.2811V13.282V16.938C18.8115 16.9544 18.805 16.9702 18.7933 16.9818C18.7817 16.9935 18.766 17 18.7495 17H10.8745C10.8581 17 10.8423 16.9935 10.8307 16.9818C10.819 16.9702 10.8125 16.9544 10.8125 16.938L10.8125 13.282L10.8125 13.2811C10.8125 13.273 10.8141 13.2649 10.8172 13.2573C10.8203 13.2498 10.8249 13.243 10.8306 13.2372C10.8364 13.2314 10.8432 13.2268 10.8507 13.2237C10.8583 13.2206 10.8663 13.219 10.8745 13.219H18.7495C18.7577 13.219 18.7657 13.2206 18.7733 13.2237C18.7808 13.2268 18.7876 13.2314 18.7934 13.2372C18.7991 13.243 18.8037 13.2498 18.8068 13.2573C18.8099 13.2649 18.8115 13.273 18.8115 13.2811ZM11.4375 13.344H10.9375V13.844V16.375V16.875H11.4375H18.1875H18.6875V16.375V13.844V13.344H18.1875H11.4375Z" fill="#545F7E" stroke="#494949"/>
</svg>
