<svg width="24" height="25" viewBox="0 0 24 25" fill="none" xmlns="http://www.w3.org/2000/svg">
<path d="M6.2504 8.76162C6.25146 7.81714 6.62712 6.91164 7.29497 6.24379C7.96282 5.57594 8.86832 5.20028 9.8128 5.19922H16.6624C16.541 4.76846 16.2825 4.389 15.9261 4.11833C15.5697 3.84766 15.1347 3.70053 14.6872 3.69922L6.0624 3.69922C5.51555 3.69964 4.99121 3.91707 4.60453 4.30375C4.21785 4.69043 4.00042 5.21477 4 5.76162V17.3864C4.00042 17.9333 4.21785 18.4576 4.60453 18.8443C4.99121 19.231 5.51555 19.4484 6.0624 19.4488H6.2496L6.2504 8.76162Z" fill="#49B776"/>
<path d="M18.4372 6.69922H9.8124C9.26555 6.69964 8.74121 6.91707 8.35453 7.30375C7.96785 7.69043 7.75042 8.21477 7.75 8.76162V19.6368C7.75042 20.1837 7.96785 20.708 8.35453 21.0947C8.74121 21.4814 9.26555 21.6988 9.8124 21.6992H18.4372C18.9841 21.6988 19.5084 21.4814 19.8951 21.0947C20.2818 20.708 20.4992 20.1837 20.4996 19.6368V8.76162C20.4992 8.21477 20.2818 7.69043 19.8951 7.30375C19.5084 6.91707 18.9841 6.69964 18.4372 6.69922ZM16.9372 19.4496H11.3124C11.1632 19.4496 11.0202 19.3904 10.9147 19.2849C10.8093 19.1794 10.75 19.0364 10.75 18.8872C10.75 18.7381 10.8093 18.595 10.9147 18.4895C11.0202 18.3841 11.1632 18.3248 11.3124 18.3248H16.9372C17.0864 18.3248 17.2294 18.3841 17.3349 18.4895C17.4403 18.595 17.4996 18.7381 17.4996 18.8872C17.4996 19.0364 17.4403 19.1794 17.3349 19.2849C17.2294 19.3904 17.0864 19.4496 16.9372 19.4496ZM16.9372 16.4496H11.3124C11.1632 16.4496 11.0202 16.3904 10.9147 16.2849C10.8093 16.1794 10.75 16.0364 10.75 15.8872C10.75 15.7381 10.8093 15.595 10.9147 15.4895C11.0202 15.3841 11.1632 15.3248 11.3124 15.3248H16.9372C17.0864 15.3248 17.2294 15.3841 17.3349 15.4895C17.4403 15.595 17.4996 15.7381 17.4996 15.8872C17.4996 16.0364 17.4403 16.1794 17.3349 16.2849C17.2294 16.3904 17.0864 16.4496 16.9372 16.4496ZM16.9372 13.8248H11.3124C11.1632 13.8248 11.0202 13.7656 10.9147 13.6601C10.8093 13.5546 10.75 13.4116 10.75 13.2624C10.75 13.1133 10.8093 12.9702 10.9147 12.8647C11.0202 12.7593 11.1632 12.7 11.3124 12.7H16.9372C17.0864 12.7 17.2294 12.7593 17.3349 12.8647C17.4403 12.9702 17.4996 13.1133 17.4996 13.2624C17.4996 13.4116 17.4403 13.5546 17.3349 13.6601C17.2294 13.7656 17.0864 13.8248 16.9372 13.8248ZM16.9372 10.8248H11.3124C11.1632 10.8248 11.0202 10.7656 10.9147 10.6601C10.8093 10.5546 10.75 10.4116 10.75 10.2624C10.75 10.1133 10.8093 9.97021 10.9147 9.86474C11.0202 9.75927 11.1632 9.70002 11.3124 9.70002H16.9372C17.0864 9.70002 17.2294 9.75927 17.3349 9.86474C17.4403 9.97021 17.4996 10.1133 17.4996 10.2624C17.4996 10.4116 17.4403 10.5546 17.3349 10.6601C17.2294 10.7656 17.0864 10.8248 16.9372 10.8248Z" fill="#49B776"/>
</svg>
