<svg width="24" height="24" viewBox="0 0 24 24" fill="none" xmlns="http://www.w3.org/2000/svg">
<rect width="24" height="24" rx="12" fill="#c4c4c4"/>
<path fill-rule="evenodd" clip-rule="evenodd" d="M5 12C5 11.4477 5.34822 11 5.77778 11H18.2222C18.6518 11 19 11.4477 19 12C19 12.5523 18.6518 13 18.2222 13H5.77778C5.34822 13 5 12.5523 5 12Z" fill="white"/>
<path fill-rule="evenodd" clip-rule="evenodd" d="M12 5C12.5523 5 13 5.34822 13 5.77778V18.2222C13 18.6518 12.5523 19 12 19C11.4477 19 11 18.6518 11 18.2222V5.77778C11 5.34822 11.4477 5 12 5Z" fill="white"/>
</svg>
