<svg width="69" height="68" viewBox="0 0 69 68" fill="none" xmlns="http://www.w3.org/2000/svg">
<g clip-path="url(#clip0_220_12171)">
<path d="M34.5001 68.0002C53.2778 68.0002 68.5002 52.7778 68.5002 34.0001C68.5002 15.2224 53.2778 0 34.5001 0C15.7224 0 0.5 15.2224 0.5 34.0001C0.5 52.7778 15.7224 68.0002 34.5001 68.0002Z" fill="#FF9A00"/>
<path d="M68.5 33.9999C68.5 52.7 53.2 68 34.4999 68C23.6625 68 14.1 63.1125 7.93738 55.25C13.6749 59.925 21.1124 62.6876 29.1873 62.6876C47.8874 62.6876 63.1874 47.3875 63.1874 28.6875C63.1874 20.6125 60.4249 13.175 55.7499 7.4375C63.6125 13.5998 68.5 23.1623 68.5 33.9999Z" fill="#F57D00"/>
<path d="M52.9875 24.2244L30.8876 48.4495C29.4 50.1496 26.8501 50.1496 25.3625 48.4495L16.0125 38.037C14.7375 36.5495 14.7375 34.212 16.225 32.7245C17.7125 31.4495 20.05 31.4495 21.5375 32.9369L28.125 40.3745L47.4625 19.337C48.9501 17.8494 51.2875 17.6369 52.7751 19.1245C54.2625 20.3994 54.2625 22.9495 52.9875 24.2244Z" fill="white"/>
</g>
<defs>
<clipPath id="clip0_220_12171">
<rect width="68" height="68" fill="white" transform="translate(0.5)"/>
</clipPath>
</defs>
</svg>
