<svg width="20" height="21" viewBox="0 0 20 21" fill="none" xmlns="http://www.w3.org/2000/svg">
<path fill-rule="evenodd" clip-rule="evenodd" d="M17.5553 9.95999C17.5553 8.49143 16.3879 7.3025 14.9473 7.3025H14.118C13.7498 7.3025 13.4513 6.99847 13.4513 6.62342C13.4513 6.24837 13.7498 5.94434 14.118 5.94434H14.9473C17.1245 5.94434 18.8887 7.74157 18.8887 9.95999V14.3822C18.8887 16.5953 17.128 18.3888 14.9553 18.3888H5.05312C2.87604 18.3888 1.11089 16.5908 1.11089 14.3731V9.95003C1.11089 7.73759 2.87272 5.94434 5.04423 5.94434H5.88156C6.24975 5.94434 6.54823 6.24837 6.54823 6.62342C6.54823 6.99847 6.24975 7.3025 5.88156 7.3025H5.04423C3.60862 7.3025 2.44423 8.48817 2.44423 9.95003V14.3731C2.44423 15.8407 3.61242 17.0306 5.05312 17.0306H14.9553C16.3916 17.0306 17.5553 15.8452 17.5553 14.3822V9.95999Z" fill="#222222"/>
<path d="M9.9247 13.9805L9.9247 3.27734" stroke="#222222" stroke-width="0.875" stroke-linecap="round" stroke-linejoin="round"/>
<path d="M12.5176 11.3779L9.92647 13.9806L7.33447 11.3779" stroke="#222222" stroke-width="0.875" stroke-linecap="round" stroke-linejoin="round"/>
</svg>
