<svg width="36" height="36" viewBox="0 0 36 36" fill="none" xmlns="http://www.w3.org/2000/svg">
<path fill-rule="evenodd" clip-rule="evenodd" d="M3.375 10.5C3.375 9.87868 3.87868 9.375 4.5 9.375H31.5C32.1213 9.375 32.625 9.87868 32.625 10.5C32.625 11.1213 32.1213 11.625 31.5 11.625H4.5C3.87868 11.625 3.375 11.1213 3.375 10.5Z" fill="#0E9594"/>
<path fill-rule="evenodd" clip-rule="evenodd" d="M3.375 18C3.375 17.3787 3.87868 16.875 4.5 16.875H31.5C32.1213 16.875 32.625 17.3787 32.625 18C32.625 18.6213 32.1213 19.125 31.5 19.125H4.5C3.87868 19.125 3.375 18.6213 3.375 18Z" fill="#0E9594"/>
<path fill-rule="evenodd" clip-rule="evenodd" d="M3.375 25.5C3.375 24.8787 3.87868 24.375 4.5 24.375H31.5C32.1213 24.375 32.625 24.8787 32.625 25.5C32.625 26.1213 32.1213 26.625 31.5 26.625H4.5C3.87868 26.625 3.375 26.1213 3.375 25.5Z" fill="#0E9594"/>
</svg>
