<svg width="20" height="21" viewBox="0 0 20 21" fill="none" xmlns="http://www.w3.org/2000/svg">
<path d="M15.7053 2H8.2365C7.1516 2 6.26892 2.88268 6.26892 3.96758V4.20906H4.96758C3.88268 4.20906 3 5.09174 3 6.17665V17.8102C3 18.8951 3.88268 19.7778 4.96758 19.7778H12.4364C13.5213 19.7778 14.4039 18.8951 14.4039 17.8102V17.5687H15.7053C16.7902 17.5687 17.6728 16.686 17.6728 15.6011V3.96758C17.6729 2.88268 16.7902 2 15.7053 2ZM13.1348 17.8102C13.1348 18.1953 12.8215 18.5086 12.4365 18.5086H4.96758C4.58251 18.5086 4.26919 18.1953 4.26919 17.8102V6.17656C4.26919 5.79149 4.58251 5.47817 4.96758 5.47817H12.4364C12.8215 5.47817 13.1347 5.79149 13.1347 6.17656V17.8102H13.1348ZM16.4037 15.6011C16.4037 15.9862 16.0904 16.2995 15.7053 16.2995H14.404V6.17656C14.404 5.09166 13.5213 4.20898 12.4365 4.20898H7.53811V3.9675C7.53811 3.58242 7.85143 3.2691 8.2365 3.2691H15.7053C16.0904 3.2691 16.4037 3.58242 16.4037 3.9675V15.6011Z" fill="#222222"/>
</svg>
