<svg width="18" height="18" viewBox="0 0 18 18" fill="none" xmlns="http://www.w3.org/2000/svg">
<path d="M3.12298 12.2618C2.97898 12.2618 2.83526 12.207 2.72529 12.097C2.50563 11.8773 2.50563 11.5213 2.72529 11.3016L11.5155 2.51142C11.7349 2.29177 12.0912 2.29177 12.3109 2.51142C12.5305 2.73108 12.5305 3.08714 12.3109 3.3068L3.52066 12.097C3.41098 12.2067 3.26698 12.2618 3.12298 12.2618Z" fill="#494949"/>
<path d="M2.25447 16.3127C2.21537 16.3127 2.17572 16.3085 2.13606 16.3C1.83231 16.2348 1.63881 15.9358 1.70406 15.6321L2.57312 11.5812C2.63837 11.2775 2.93875 11.0845 3.24109 11.1492C3.54484 11.2145 3.73834 11.5134 3.67309 11.8172L2.80403 15.868C2.7475 16.1321 2.51406 16.3127 2.25447 16.3127Z" fill="#494949"/>
<path d="M6.30462 15.4432C6.16062 15.4432 6.0169 15.3883 5.90693 15.2783C5.68727 15.0587 5.68727 14.7026 5.90693 14.483L14.6971 5.69306C14.9165 5.47341 15.2728 5.47341 15.4925 5.69306C15.7121 5.91272 15.7121 6.26878 15.4925 6.48844L6.70259 15.2783C6.59262 15.3883 6.44862 15.4432 6.30462 15.4432Z" fill="#494949"/>
<path d="M2.25354 16.3124C1.99395 16.3124 1.76079 16.1319 1.70398 15.8678C1.63901 15.564 1.83223 15.2651 2.13598 15.1998L6.18682 14.3308C6.49085 14.2663 6.78982 14.4593 6.85479 14.7628C6.91976 15.0665 6.72654 15.3655 6.42279 15.4307L2.37195 16.2998C2.33229 16.3085 2.29263 16.3124 2.25354 16.3124Z" fill="#494949"/>
<path d="M13.504 8.24421C13.36 8.24421 13.216 8.18937 13.1063 8.0794L9.92451 4.89762C9.70485 4.67796 9.70485 4.3219 9.92451 4.10224C10.1439 3.88259 10.5005 3.88259 10.7199 4.10224L13.9017 7.28402C14.1213 7.50368 14.1213 7.85974 13.9017 8.0794C13.792 8.18937 13.648 8.24421 13.504 8.24421Z" fill="#494949"/>
<path d="M15.0944 6.6536C14.9504 6.6536 14.8064 6.59876 14.6964 6.48879C14.4768 6.26913 14.4768 5.91307 14.6964 5.69313C15.0094 5.3801 15.1819 4.95626 15.1819 4.50007C15.1819 4.04388 15.0094 3.62004 14.6964 3.30701C14.3831 2.9937 13.9593 2.82129 13.5031 2.82129C13.0469 2.82129 12.623 2.9937 12.31 3.30701C12.0906 3.52666 11.7346 3.52695 11.5144 3.30701C11.2947 3.08735 11.2947 2.73129 11.5144 2.51135C12.0397 1.9857 12.7459 1.69629 13.5031 1.69629C14.2599 1.69629 14.9664 1.9857 15.4918 2.51135C16.0174 3.03673 16.3069 3.74295 16.3069 4.50007C16.3069 5.2572 16.0174 5.96341 15.4918 6.48879C15.3824 6.59848 15.2384 6.6536 15.0944 6.6536Z" fill="#494949"/>
</svg>
