<svg width="24" height="12" viewBox="0 0 24 12" fill="none" xmlns="http://www.w3.org/2000/svg">
<g id="Ellipse 519">
<mask id="path-1-inside-1_1111_36664" fill="white">
<path d="M24 0C24 1.57586 23.6896 3.13629 23.0866 4.5922C22.4835 6.04811 21.5996 7.37098 20.4853 8.48528C19.371 9.59958 18.0481 10.4835 16.5922 11.0866C15.1363 11.6896 13.5759 12 12 12C10.4241 12 8.86371 11.6896 7.4078 11.0866C5.95189 10.4835 4.62902 9.59958 3.51472 8.48528C2.40042 7.37098 1.5165 6.04811 0.913445 4.5922C0.310389 3.13629 -1.37766e-07 1.57586 0 -1.04907e-06L12 0L24 0Z"/>
</mask>
<path d="M24 0C24 1.57586 23.6896 3.13629 23.0866 4.5922C22.4835 6.04811 21.5996 7.37098 20.4853 8.48528C19.371 9.59958 18.0481 10.4835 16.5922 11.0866C15.1363 11.6896 13.5759 12 12 12C10.4241 12 8.86371 11.6896 7.4078 11.0866C5.95189 10.4835 4.62902 9.59958 3.51472 8.48528C2.40042 7.37098 1.5165 6.04811 0.913445 4.5922C0.310389 3.13629 -1.37766e-07 1.57586 0 -1.04907e-06L12 0L24 0Z" fill="#F4F4F4" stroke="#F4F4F4" stroke-width="2" mask="url(#path-1-inside-1_1111_36664)"/>
</g>
</svg>
