<svg width="24" height="12" viewBox="0 0 24 12" fill="none" xmlns="http://www.w3.org/2000/svg">
<g id="Ellipse 520">
<mask id="path-1-inside-1_1111_36665" fill="white">
<path d="M24 12C24 10.4241 23.6896 8.86371 23.0866 7.4078C22.4835 5.95189 21.5996 4.62902 20.4853 3.51472C19.371 2.40042 18.0481 1.5165 16.5922 0.913445C15.1363 0.310389 13.5759 -6.88831e-08 12 0C10.4241 6.88832e-08 8.86371 0.310389 7.4078 0.913446C5.95189 1.5165 4.62902 2.40042 3.51472 3.51472C2.40042 4.62902 1.5165 5.95189 0.913445 7.4078C0.310389 8.86371 -1.37766e-07 10.4241 0 12L12 12H24Z"/>
</mask>
<path d="M24 12C24 10.4241 23.6896 8.86371 23.0866 7.4078C22.4835 5.95189 21.5996 4.62902 20.4853 3.51472C19.371 2.40042 18.0481 1.5165 16.5922 0.913445C15.1363 0.310389 13.5759 -6.88831e-08 12 0C10.4241 6.88832e-08 8.86371 0.310389 7.4078 0.913446C5.95189 1.5165 4.62902 2.40042 3.51472 3.51472C2.40042 4.62902 1.5165 5.95189 0.913445 7.4078C0.310389 8.86371 -1.37766e-07 10.4241 0 12L12 12H24Z" fill="#F4F4F4" stroke="#F4F4F4" stroke-width="2" mask="url(#path-1-inside-1_1111_36665)"/>
</g>
</svg>
