<svg width="170" height="170" viewBox="0 0 170 170" fill="none" xmlns="http://www.w3.org/2000/svg">
<path fill-rule="evenodd" clip-rule="evenodd" d="M73.8828 54.833C76.0157 53.9857 78.4435 53.4013 81.137 53.1304C81.8674 53.0587 82.3987 52.4079 82.327 51.6774C82.2526 50.9496 81.6018 50.4157 80.874 50.4874C77.9123 50.7849 75.2454 51.433 72.9026 52.3654C72.2199 52.6337 71.8879 53.4066 72.1588 54.0893C72.4298 54.7693 73.2028 55.104 73.8828 54.833Z" fill="#758EA6"/>
<path fill-rule="evenodd" clip-rule="evenodd" d="M87.6444 53.0798C90.7841 53.3162 93.6582 53.3667 96.2826 53.2551C97.0157 53.2259 97.5868 52.607 97.5549 51.8739C97.5257 51.1407 96.9041 50.5723 96.1737 50.6015C93.6423 50.7078 90.8718 50.6573 87.8437 50.4289C87.1132 50.3757 86.4757 50.9229 86.4199 51.6534C86.3641 52.3865 86.914 53.024 87.6444 53.0798Z" fill="#758EA6"/>
<path fill-rule="evenodd" clip-rule="evenodd" d="M103.455 52.4693C106.552 51.8876 109.179 51.0269 111.387 49.9671C112.048 49.6483 112.327 48.8541 112.008 48.1954C111.692 47.534 110.898 47.2551 110.237 47.5712C108.213 48.5433 105.803 49.3269 102.964 49.8608C102.244 49.9963 101.768 50.6896 101.904 51.4121C102.039 52.1319 102.735 52.6048 103.455 52.4693Z" fill="#758EA6"/>
<path fill-rule="evenodd" clip-rule="evenodd" d="M116.799 46.2774C119.179 43.9797 120.576 41.3341 121.206 38.6433C121.373 37.9288 120.927 37.2142 120.215 37.0469C119.501 36.8795 118.786 37.3258 118.619 38.0377C118.098 40.2716 116.929 42.4603 114.956 44.3649C114.427 44.8749 114.411 45.7169 114.921 46.2428C115.431 46.7714 116.271 46.7874 116.799 46.2774Z" fill="#758EA6"/>
<path fill-rule="evenodd" clip-rule="evenodd" d="M120.575 29.498C119.52 26.6983 117.732 24.321 115.554 22.8175C114.951 22.4032 114.125 22.5546 113.708 23.1575C113.291 23.7605 113.442 24.5893 114.048 25.0063C115.809 26.2202 117.236 28.1646 118.088 30.433C118.346 31.1183 119.111 31.4663 119.799 31.2086C120.484 30.951 120.832 30.1833 120.575 29.498Z" fill="#758EA6"/>
<path fill-rule="evenodd" clip-rule="evenodd" d="M85.9695 22.812C87.4278 15.9695 93.2397 12.6413 97.4312 12.6173C98.8071 12.6094 99.9998 12.9334 100.619 13.7622C100.985 14.2536 101.097 14.9123 100.956 15.7198C100.831 16.4423 101.317 17.1303 102.04 17.2552C102.762 17.38 103.45 16.8939 103.575 16.1714C103.862 14.5113 103.501 13.1805 102.746 12.1738C101.692 10.758 99.7581 9.94782 97.4179 9.9611C92.3153 9.99032 85.1461 13.9295 83.3717 22.2595C83.2176 22.9767 83.6745 23.6806 84.3917 23.8347C85.1089 23.9888 85.8154 23.5292 85.9695 22.812Z" fill="#758EA6"/>
<path fill-rule="evenodd" clip-rule="evenodd" d="M83.3816 22.8175C85.1799 31.105 92.3225 35.0256 97.4119 35.0575C99.9327 35.0708 101.975 34.1331 102.974 32.5102C103.577 31.5327 103.84 30.2869 103.558 28.7649C103.213 26.8922 101.981 24.4936 99.4014 21.6461C98.91 21.1016 98.068 21.0591 97.5261 21.5505C96.9816 22.0445 96.9391 22.8839 97.4331 23.4284C99.2288 25.4127 100.294 27.1047 100.761 28.5258C101.115 29.6095 101.107 30.4781 100.714 31.1183C100.358 31.6947 99.7202 32.0427 98.9525 32.2339C97.9883 32.473 96.8328 32.4544 95.6136 32.1967C91.7169 31.3733 87.2491 28.1141 85.9794 22.2544C85.8227 21.5372 85.1161 21.083 84.3989 21.237C83.6817 21.3938 83.2275 22.1003 83.3816 22.8175Z" fill="#758EA6"/>
<path fill-rule="evenodd" clip-rule="evenodd" d="M84.3203 25.1919H102.104C103.57 25.1919 104.76 24.0019 104.76 22.5356C104.76 21.0694 103.57 19.8794 102.104 19.8794H84.3203C82.8541 19.8794 81.6641 21.0694 81.6641 22.5356C81.6641 24.0019 82.8541 25.1919 84.3203 25.1919Z" fill="#FFE0B2"/>
<path fill-rule="evenodd" clip-rule="evenodd" d="M30.5469 128.881V143.78C30.5469 146.713 32.47 149.297 35.2803 150.139C45.9531 153.343 75.9741 162.35 83.0928 164.483C84.3359 164.857 85.6641 164.857 86.9072 164.483C94.0259 162.35 124.047 153.343 134.72 150.139C137.53 149.297 139.453 146.713 139.453 143.78C139.453 136.688 139.453 122.538 139.453 122.538C139.453 121.805 138.858 121.21 138.125 121.21C137.392 121.21 136.797 121.805 136.797 122.538V143.78C136.797 145.539 135.641 147.09 133.957 147.597C123.285 150.798 93.2609 159.805 86.1448 161.941C85.3984 162.164 84.6016 162.164 83.8552 161.941L36.0427 147.597C34.3586 147.09 33.2031 145.539 33.2031 143.78V128.881C33.2031 128.148 32.6081 127.553 31.875 127.553C31.1419 127.553 30.5469 128.148 30.5469 128.881Z" fill="#758EA6"/>
<path fill-rule="evenodd" clip-rule="evenodd" d="M27.4546 98.7863C27.4546 98.7863 20.7289 108.758 17.2917 113.853C16.5931 114.889 16.4205 116.195 16.8296 117.377C17.236 118.559 18.1736 119.484 19.3636 119.869L67.1628 135.4C68.8522 135.947 70.6983 135.315 71.6944 133.846C75.2564 128.587 86.0993 112.591 86.0993 112.591C86.333 112.246 86.3914 111.81 86.256 111.414C86.1205 111.018 85.8071 110.71 85.4086 110.583L32.2836 93.3437C31.5877 93.1179 30.8386 93.5004 30.6102 94.199C30.3844 94.8949 30.7669 95.644 31.4655 95.8724L82.9091 112.564L69.495 132.356C69.163 132.845 68.5467 133.057 67.9836 132.874L20.1844 117.343C19.7886 117.213 19.4752 116.907 19.3397 116.511C19.2042 116.118 19.2627 115.683 19.4938 115.337L29.6566 100.271C30.0683 99.6629 29.9063 98.8368 29.298 98.4277C28.6924 98.016 27.8663 98.178 27.4546 98.7863Z" fill="#758EA6"/>
<path fill-rule="evenodd" clip-rule="evenodd" d="M130.158 95.7953L84.5901 110.583C83.8915 110.808 83.509 111.558 83.7348 112.256C83.9632 112.952 84.7123 113.335 85.4082 113.109L130.976 98.3241C131.675 98.0983 132.057 97.3466 131.832 96.6506C131.603 95.9521 130.854 95.5695 130.158 95.7953Z" fill="#758EA6"/>
<path fill-rule="evenodd" clip-rule="evenodd" d="M87.6605 118.139C87.6605 118.139 95.3663 129.508 98.3041 133.846C99.3002 135.315 101.146 135.947 102.836 135.4C110.669 132.855 140.544 123.146 150.635 119.869C151.825 119.483 152.763 118.559 153.169 117.377C153.578 116.195 153.405 114.888 152.707 113.852C148.542 107.676 139.226 93.8639 139.226 93.8639C138.815 93.2583 137.988 93.0962 137.38 93.5053C136.775 93.917 136.613 94.7431 137.022 95.3514C137.022 95.3514 146.34 109.161 150.505 115.337C150.736 115.682 150.794 116.118 150.659 116.511C150.523 116.907 150.21 117.212 149.814 117.342L102.015 132.874C101.452 133.057 100.835 132.844 100.503 132.356L89.8599 116.649C89.4481 116.041 88.622 115.884 88.0138 116.296C87.4081 116.705 87.2488 117.534 87.6605 118.139Z" fill="#758EA6"/>
<path fill-rule="evenodd" clip-rule="evenodd" d="M40.353 93.2453L85.411 78.5775C85.8067 78.4474 86.1202 78.1392 86.2556 77.7434C86.3911 77.3477 86.3327 76.912 86.0963 76.5667C86.0963 76.5667 76.555 62.5338 73.2374 57.6542C72.2413 56.1906 70.3978 55.5584 68.7111 56.1056L20.9092 71.6367C19.7192 72.0245 18.7816 72.9463 18.3725 74.131C17.9661 75.313 18.1388 76.6172 18.8374 77.6558C22.673 83.3428 30.7719 95.3517 30.7719 95.3517C31.1836 95.9574 32.0097 96.1194 32.618 95.7077C33.2236 95.2986 33.3857 94.4725 32.9766 93.8642C32.9766 93.8642 24.875 81.858 21.0394 76.1709C20.8057 75.823 20.7499 75.39 20.8853 74.9942C21.0208 74.6011 21.3342 74.293 21.73 74.1628L69.5319 58.6317C70.095 58.4484 70.7086 58.6609 71.0407 59.147L82.9061 76.5986L39.5322 90.7192C38.8336 90.945 38.4538 91.6967 38.6796 92.3927C38.908 93.0886 39.6571 93.4711 40.353 93.2453Z" fill="#758EA6"/>
<path fill-rule="evenodd" clip-rule="evenodd" d="M84.588 78.5775L137.713 95.8697C138.276 96.053 138.895 95.8431 139.227 95.3517C139.227 95.3517 147.326 83.3428 151.162 77.6558C151.86 76.6172 152.033 75.313 151.626 74.131C151.217 72.9463 150.28 72.0245 149.09 71.6367L101.288 56.1056C99.6012 55.5584 97.7577 56.1906 96.7616 57.6542L87.4701 71.318C87.0583 71.9263 87.2151 72.7524 87.8207 73.1641C88.429 73.5758 89.2551 73.4191 89.6668 72.8135L98.9583 59.147C99.2904 58.6609 99.904 58.4484 100.467 58.6317L148.269 74.1628C148.665 74.293 148.978 74.6011 149.114 74.9942C149.249 75.39 149.193 75.823 148.96 76.171L137.583 93.0355L85.4115 76.0514C84.7129 75.823 83.9638 76.2055 83.738 76.9041C83.5096 77.6 83.8921 78.3491 84.588 78.5775Z" fill="#758EA6"/>
<path fill-rule="evenodd" clip-rule="evenodd" d="M125.234 94.6024L84.9998 107.655L44.7656 94.6024L84.9998 81.5044L125.234 94.6024Z" fill="#FFE0B2"/>
<path fill-rule="evenodd" clip-rule="evenodd" d="M71.7138 77.1909C70.9993 76.1842 70.3857 75.1722 69.8704 74.1602C69.5384 73.5067 68.7388 73.2464 68.0854 73.5811C67.432 73.9131 67.1717 74.7127 67.5037 75.3661C68.0748 76.4897 68.7548 77.6133 69.549 78.7316C69.974 79.3292 70.8028 79.4673 71.4004 79.045C71.9981 78.62 72.1388 77.7886 71.7138 77.1909Z" fill="#758EA6"/>
<path fill-rule="evenodd" clip-rule="evenodd" d="M68.0283 68.635C67.7892 67.1209 67.7786 65.6414 67.9884 64.2229C68.0947 63.4978 67.5927 62.8231 66.8675 62.7168C66.1423 62.6106 65.4677 63.1126 65.3587 63.8378C65.1144 65.5112 65.1223 67.259 65.4039 69.0467C65.5181 69.7718 66.1981 70.2659 66.9233 70.1517C67.6458 70.0374 68.1425 69.3575 68.0283 68.635Z" fill="#758EA6"/>
</svg>
