<svg width="24" height="25" viewBox="0 0 24 25" fill="none" xmlns="http://www.w3.org/2000/svg">
<path d="M7.51019 18.0183C6.86962 18.0171 6.24555 17.815 5.72578 17.4406C5.20601 17.0662 4.81669 16.5383 4.6126 15.9311L4.5838 15.8367C4.49213 15.5498 4.44439 15.2507 4.44219 14.9495V9.37109L2.4574 15.9975C2.33581 16.4687 2.40386 16.9687 2.64693 17.3902C2.89001 17.8117 3.28871 18.1211 3.7574 18.2519L16.4086 21.6399C16.5624 21.6801 16.7208 21.7005 16.8798 21.7007C17.2805 21.7029 17.6708 21.5731 17.9903 21.3313C18.3099 21.0896 18.5409 20.7493 18.6478 20.3631L19.3846 18.0191L7.51019 18.0183Z" fill="#49B776"/>
<path d="M9.76179 9.42595C10.0855 9.42595 10.402 9.32995 10.6712 9.1501C10.9403 8.97024 11.1501 8.71461 11.274 8.41552C11.3979 8.11643 11.4303 7.78733 11.3671 7.46982C11.304 7.15232 11.1481 6.86066 10.9192 6.63175C10.6903 6.40284 10.3986 6.24695 10.0811 6.18379C9.76361 6.12064 9.4345 6.15305 9.13541 6.27694C8.83633 6.40083 8.5807 6.61062 8.40084 6.87979C8.22099 7.14896 8.125 7.46542 8.125 7.78915C8.12521 8.22319 8.29773 8.63939 8.60464 8.9463C8.91155 9.25321 9.32775 9.42573 9.76179 9.42595Z" fill="#49B776"/>
<path d="M19.9864 3.69922H7.71357C7.17124 3.69985 6.6513 3.91558 6.26781 4.29906C5.88432 4.68255 5.6686 5.20249 5.66797 5.74482V14.7456C5.6686 15.288 5.88432 15.8079 6.26781 16.1914C6.6513 16.5749 7.17124 16.7906 7.71357 16.7912H19.9864C20.5287 16.7906 21.0486 16.5749 21.4321 16.1914C21.8156 15.8079 22.0313 15.288 22.032 14.7456V5.74482C22.0313 5.20249 21.8156 4.68255 21.4321 4.29906C21.0486 3.91558 20.5287 3.69985 19.9864 3.69922ZM7.71357 5.33602H19.9864C20.0947 5.33623 20.1986 5.37937 20.2752 5.45599C20.3518 5.53261 20.395 5.63646 20.3952 5.74482V11.5528L17.812 8.53762C17.6753 8.38059 17.5067 8.2545 17.3174 8.16773C17.1281 8.08097 16.9226 8.03552 16.7144 8.03442C16.5056 8.03547 16.2996 8.0822 16.1108 8.17134C15.922 8.26048 15.755 8.38987 15.6216 8.55042L12.5816 12.1976L11.5912 11.2104C11.3214 10.9427 10.9568 10.7925 10.5768 10.7925C10.1967 10.7925 9.83211 10.9427 9.56237 11.2104L7.30477 13.4656V5.74482C7.30477 5.6364 7.34784 5.53242 7.42451 5.45575C7.50117 5.37909 7.60515 5.33602 7.71357 5.33602Z" fill="#49B776"/>
</svg>
