<svg width="24" height="25" viewBox="0 0 24 25" fill="none" xmlns="http://www.w3.org/2000/svg">
<g clip-path="url(#clip0_344_38176)">
<path d="M21.9384 8.05015C21.7936 7.76062 21.4412 7.64445 21.1522 7.78808L18.8085 8.95996C18.5189 9.10472 18.4016 9.45664 18.5464 9.74617C18.691 10.0345 19.0411 10.153 19.3326 10.0082L21.6763 8.83636C21.9658 8.6916 22.0831 8.33968 21.9384 8.05015Z" fill="#49B776"/>
<path d="M21.6763 14.8197L19.3326 13.6478C19.0431 13.5036 18.6917 13.6198 18.5464 13.9099C18.4016 14.1994 18.5189 14.5513 18.8085 14.6961L21.1522 15.868C21.4445 16.0132 21.7943 15.8933 21.9384 15.6059C22.0831 15.3164 21.9658 14.9644 21.6763 14.8197Z" fill="#49B776"/>
<path d="M15.4764 12.453H6.68746V9.44523C6.68746 7.82988 8.0018 6.51559 9.61711 6.51559C11.2324 6.51559 12.5468 7.82992 12.5468 9.44523V10.6171C12.5468 10.941 12.8088 11.203 13.1327 11.203H15.4764C15.8003 11.203 16.0623 10.941 16.0623 10.6171V9.44523C16.0623 5.89133 13.171 3 9.61711 3C6.0632 3 3.17188 5.89133 3.17188 9.44523V12.5609C2.49133 12.8036 2 13.4479 2 14.2108V21.242C2 22.2113 2.78852 22.9997 3.75777 22.9997H15.4764C16.4457 22.9997 17.2342 22.2112 17.2342 21.242V14.2108C17.2342 13.2415 16.4457 12.453 15.4764 12.453ZM10.203 18.2044V20.0701C10.203 20.3939 9.94098 20.656 9.61711 20.656C9.29324 20.656 9.03117 20.3939 9.03117 20.0701V18.2044C8.35063 17.9617 7.8593 17.3174 7.8593 16.5545C7.8593 15.5852 8.64781 14.7967 9.61711 14.7967C10.5864 14.7967 11.3749 15.5852 11.3749 16.5545C11.3749 17.3174 10.8836 17.9617 10.203 18.2044Z" fill="#49B776"/>
<path d="M21.414 11.2422H19.0703C18.7464 11.2422 18.4844 11.5043 18.4844 11.8281C18.4844 12.152 18.7464 12.4141 19.0703 12.4141H21.414C21.7379 12.4141 22 12.152 22 11.8281C22 11.5043 21.7379 11.2422 21.414 11.2422Z" fill="#49B776"/>
</g>
<defs>
<clipPath id="clip0_344_38176">
<rect width="20" height="20" fill="white" transform="translate(2 3)"/>
</clipPath>
</defs>
</svg>
