<svg width="24" height="24" viewBox="0 0 24 24" fill="none" xmlns="http://www.w3.org/2000/svg">
<path d="M19.1113 4.29466H16.1502V3.11133H14.9613V4.29466H9.03911V3.11133H7.85022V4.29466H4.88911C4.41761 4.29466 3.96543 4.48196 3.63203 4.81536C3.29863 5.14876 3.11133 5.60094 3.11133 6.07244V19.1113C3.11133 19.5828 3.29863 20.035 3.63203 20.3684C3.96543 20.7018 4.41761 20.8891 4.88911 20.8891H19.1113C19.5828 20.8891 20.035 20.7018 20.3684 20.3684C20.7018 20.035 20.8891 19.5828 20.8891 19.1113V6.07244C20.8891 5.60094 20.7018 5.14876 20.3684 4.81536C20.035 4.48196 19.5828 4.29466 19.1113 4.29466ZM4.88911 5.48355H7.85022V6.66688H9.03355V5.48355H14.9613V6.66688H16.1447V5.48355H19.1113C19.269 5.48355 19.4202 5.54618 19.5317 5.65766C19.6431 5.76914 19.7058 5.92034 19.7058 6.078V9.03911H4.29466V6.07244C4.29613 5.91575 4.3594 5.76597 4.47072 5.65569C4.58204 5.54541 4.73241 5.48354 4.88911 5.48355ZM19.1113 19.7058H4.88911C4.73145 19.7058 4.58025 19.6431 4.46877 19.5317C4.35729 19.4202 4.29466 19.269 4.29466 19.1113V10.2224H19.7058V19.1113C19.7058 19.269 19.6431 19.4202 19.5317 19.5317C19.4202 19.6431 19.269 19.7058 19.1113 19.7058Z" fill="#49B776"/>
<path d="M14.745 13.8003L13.3784 13.2781L12.4617 12.1392C12.406 12.0707 12.3356 12.0155 12.2559 11.9775C12.1761 11.9396 12.0889 11.9199 12.0006 11.9199C11.9123 11.9199 11.825 11.9396 11.7453 11.9775C11.6655 12.0155 11.5952 12.0707 11.5395 12.1392L10.6228 13.2781L9.25614 13.8003C9.17379 13.8323 9.09961 13.8823 9.03899 13.9465C8.97837 14.0108 8.93283 14.0878 8.90569 14.1718C8.87856 14.2559 8.8705 14.345 8.88211 14.4325C8.89372 14.5201 8.9247 14.604 8.9728 14.6781L9.77836 15.8892L9.85058 17.3503C9.85521 17.4388 9.87957 17.5251 9.92186 17.603C9.96415 17.6809 10.0233 17.7483 10.095 17.8003C10.1675 17.8515 10.2502 17.8865 10.3375 17.9028C10.4247 17.9191 10.5145 17.9163 10.6006 17.8948L12.0006 17.5225L13.4117 17.9059C13.498 17.9284 13.5883 17.9313 13.6759 17.9142C13.7634 17.8971 13.846 17.8605 13.9175 17.8072C13.989 17.7538 14.0476 17.685 14.0889 17.6059C14.1302 17.5269 14.1532 17.4395 14.1561 17.3503L14.2228 15.8892L15.0228 14.6614C15.0709 14.5873 15.1019 14.5034 15.1135 14.4159C15.1251 14.3283 15.117 14.2392 15.0899 14.1552C15.0628 14.0711 15.0172 13.9941 14.9566 13.9299C14.896 13.8656 14.8218 13.8156 14.7395 13.7837L14.745 13.8003ZM13.1506 15.3892C13.0937 15.4773 13.0611 15.5789 13.0561 15.6837L13.0117 16.5725L12.1561 16.3392C12.0542 16.3119 11.9469 16.3119 11.845 16.3392L10.9895 16.5725L10.945 15.6837C10.9401 15.5789 10.9075 15.4773 10.8506 15.3892L10.3672 14.6448L11.195 14.3281C11.2931 14.2902 11.3794 14.2269 11.445 14.1448L12.0006 13.4503L12.5561 14.1448C12.6218 14.2269 12.7081 14.2902 12.8061 14.3281L13.6339 14.6448L13.1506 15.3892Z" fill="#49B776"/>
</svg>
