<svg width="44" height="44" viewBox="0 0 44 44" fill="none" xmlns="http://www.w3.org/2000/svg">
<rect width="44" height="44" rx="8" fill="#EFEFEF"/>
<path d="M15.5238 23.5237C16.3654 23.5237 17.0476 22.8414 17.0476 21.9999C17.0476 21.1583 16.3654 20.4761 15.5238 20.4761C14.6822 20.4761 14 21.1583 14 21.9999C14 22.8414 14.6822 23.5237 15.5238 23.5237Z" fill="#222222"/>
<path d="M22.0004 23.5237C22.8419 23.5237 23.5241 22.8414 23.5241 21.9999C23.5241 21.1583 22.8419 20.4761 22.0004 20.4761C21.1588 20.4761 20.4766 21.1583 20.4766 21.9999C20.4766 22.8414 21.1588 23.5237 22.0004 23.5237Z" fill="#222222"/>
<path d="M28.4769 23.5237C29.3185 23.5237 30.0007 22.8414 30.0007 21.9999C30.0007 21.1583 29.3185 20.4761 28.4769 20.4761C27.6353 20.4761 26.9531 21.1583 26.9531 21.9999C26.9531 22.8414 27.6353 23.5237 28.4769 23.5237Z" fill="#222222"/>
</svg>
