<svg width="48" height="49" viewBox="0 0 48 49" fill="none" xmlns="http://www.w3.org/2000/svg">
<g id="Icon">
<g id="Image">
<g id="Group 781">
<path id="Vector (Stroke)" fill-rule="evenodd" clip-rule="evenodd" d="M18.5 14.1191C17.1193 14.1191 16 15.2384 16 16.6191C16 17.9999 17.1193 19.1191 18.5 19.1191C19.8807 19.1191 21 17.9999 21 16.6191C21 15.2384 19.8807 14.1191 18.5 14.1191ZM13 16.6191C13 13.5816 15.4624 11.1191 18.5 11.1191C21.5376 11.1191 24 13.5816 24 16.6191C24 19.6567 21.5376 22.1191 18.5 22.1191C15.4624 22.1191 13 19.6567 13 16.6191Z" fill="#49B776"/>
<path id="Vector (Stroke)_2" fill-rule="evenodd" clip-rule="evenodd" d="M6.68934 6.80848C9.35828 4.13954 13.3521 3.11914 18.5 3.11914H26.5C27.3284 3.11914 28 3.79071 28 4.61914C28 5.44757 27.3284 6.11914 26.5 6.11914H18.5C13.6479 6.11914 10.6417 7.09874 8.81066 8.9298C6.9796 10.7609 6 13.7671 6 18.6191V30.6191C6 35.4712 6.9796 38.4774 8.81066 40.3085C10.6417 42.1395 13.6479 43.1191 18.5 43.1191H30.5C35.3521 43.1191 38.3583 42.1395 40.1893 40.3085C42.0204 38.4774 43 35.4712 43 30.6191V20.6191C43 19.7907 43.6716 19.1191 44.5 19.1191C45.3284 19.1191 46 19.7907 46 20.6191V30.6191C46 35.7671 44.9796 39.7609 42.3107 42.4298C39.6417 45.0987 35.6479 46.1191 30.5 46.1191H18.5C13.3521 46.1191 9.35828 45.0987 6.68934 42.4298C4.0204 39.7609 3 35.7671 3 30.6191V18.6191C3 13.4712 4.0204 9.47742 6.68934 6.80848Z" fill="#49B776"/>
<path id="Vector (Stroke)_3" fill-rule="evenodd" clip-rule="evenodd" d="M31 10.6191C31 9.79071 31.6716 9.11914 32.5 9.11914H43.5C44.3284 9.11914 45 9.79071 45 10.6191C45 11.4476 44.3284 12.1191 43.5 12.1191H32.5C31.6716 12.1191 31 11.4476 31 10.6191Z" fill="#49B776"/>
<path id="Vector (Stroke)_4" fill-rule="evenodd" clip-rule="evenodd" d="M37.5 3.11914C38.3284 3.11914 39 3.79071 39 4.61914V15.6191C39 16.4476 38.3284 17.1191 37.5 17.1191C36.6716 17.1191 36 16.4476 36 15.6191V4.61914C36 3.79071 36.6716 3.11914 37.5 3.11914Z" fill="#49B776"/>
<path id="Vector (Stroke)_5" fill-rule="evenodd" clip-rule="evenodd" d="M40.3535 26.7823C39.3715 25.9203 37.7087 25.9203 36.7267 26.7823L28.5385 33.9624C26.45 35.7951 23.1524 35.7954 21.0641 33.9624L21.0515 33.9513L20.4089 33.3742C19.5263 32.6044 18.0179 32.5099 17.0026 33.206L7.29926 39.8629C6.62237 40.3273 5.70523 40.143 5.25077 39.4514C4.79631 38.7597 4.97662 37.8226 5.65351 37.3582L15.3573 30.701C17.4497 29.2665 20.4254 29.4112 22.3385 31.0907L22.351 31.1017L22.9934 31.6787C23.9762 32.5359 25.6345 32.5343 26.6147 31.6739L34.8029 24.4937C36.8914 22.6611 40.1889 22.6608 42.2773 24.4937L45.4856 27.3094C46.1041 27.8523 46.1748 28.8046 45.6436 29.4366C45.1124 30.0686 44.1804 30.1408 43.5619 29.598L40.3535 26.7823Z" fill="#49B776"/>
</g>
</g>
</g>
</svg>
