<svg width="18" height="19" viewBox="0 0 18 19" fill="none" xmlns="http://www.w3.org/2000/svg">
<g clip-path="url(#clip0_283_35065)">
<path d="M14.5543 5.76013L11.5826 5.32831L10.2535 2.63548C9.74023 1.59531 8.2559 1.59563 7.74276 2.63545L6.41374 5.32827L3.44202 5.76013C2.29407 5.92691 1.83584 7.33861 2.66616 8.14805L4.81653 10.2441L4.30891 13.2038C4.11284 14.3471 5.31374 15.2191 6.3402 14.6796L8.99819 13.2822L11.6562 14.6796C12.6812 15.2185 13.8835 14.3469 13.6875 13.2038L13.1799 10.2441L15.3303 8.14802C16.1607 7.3383 15.7017 5.92688 14.5543 5.76013ZM14.4925 7.28876L12.1163 9.605C11.9749 9.74284 11.9104 9.94144 11.9438 10.1361L12.5047 13.4067C12.5329 13.5709 12.362 13.695 12.2145 13.6175L9.27733 12.0734C9.10256 11.9815 8.8937 11.9815 8.71894 12.0734L5.78174 13.6175C5.63423 13.695 5.4634 13.5709 5.49156 13.4067L6.05251 10.1361C6.08588 9.94144 6.02137 9.74284 5.87997 9.605L3.50372 7.28876C3.38437 7.17243 3.44965 6.97162 3.61457 6.94761L6.89844 6.47043C7.09384 6.44202 7.2628 6.31933 7.3502 6.14225L8.81882 3.16652C8.89254 3.01717 9.10373 3.01707 9.17748 3.16655L10.6461 6.14225C10.7335 6.31933 10.9025 6.44206 11.0979 6.47043L14.3817 6.94761C14.5466 6.97162 14.6119 7.17247 14.4925 7.28876Z" fill="#767676"/>
<path d="M4.73658 2.15686L4.01901 1.16922C3.82417 0.901188 3.44899 0.841703 3.18096 1.03654C2.91289 1.2313 2.85344 1.60653 3.04824 1.87459L3.76581 2.8622C3.96072 3.13037 4.33591 3.18961 4.60387 2.99488C4.87194 2.80015 4.93139 2.42493 4.73658 2.15686Z" fill="#767676"/>
<path d="M2.35539 11.0085C2.25305 10.6934 1.91456 10.5208 1.59935 10.6233L0.414726 11.0082C0.0995859 11.1107 -0.0728555 11.4491 0.0295195 11.7643C0.13207 12.0799 0.471117 12.2518 0.785555 12.1495L1.97018 11.7646C2.28536 11.6622 2.4578 11.3237 2.35539 11.0085Z" fill="#767676"/>
<path d="M14.8187 1.03652C14.5507 0.841753 14.1755 0.901132 13.9807 1.1692L13.2631 2.15681C13.0683 2.42487 13.1277 2.80013 13.3958 2.99486C13.664 3.1897 14.0392 3.13014 14.2339 2.86218L14.9514 1.87457C15.1462 1.60651 15.0868 1.23125 14.8187 1.03652Z" fill="#767676"/>
<path d="M17.5835 11.0083L16.3989 10.6233C16.0837 10.5208 15.7452 10.6934 15.6428 11.0086C15.5404 11.3237 15.7128 11.6622 16.028 11.7646L17.2126 12.1495C17.5271 12.2518 17.8661 12.0799 17.9687 11.7643C18.0711 11.4492 17.8986 11.1107 17.5835 11.0083Z" fill="#767676"/>
<path d="M8.99841 15.6602C8.66707 15.6602 8.39844 15.9288 8.39844 16.2601V17.4779C8.39844 17.8092 8.66707 18.0779 8.99841 18.0779C9.32976 18.0779 9.59839 17.8092 9.59839 17.4779V16.2601C9.59843 15.9288 9.3298 15.6602 8.99841 15.6602Z" fill="#767676"/>
</g>
<defs>
<clipPath id="clip0_283_35065">
<rect width="18" height="18" fill="white" transform="translate(0 0.5)"/>
</clipPath>
</defs>
</svg>
