<svg xmlns="http://www.w3.org/2000/svg" width="24" height="24" viewBox="0 0 24 24"><defs><style>.a,.b{fill:#545f7e;}.a{stroke:#707070;opacity:0;}.c{stroke:none;}.d{fill:none;}</style></defs><g transform="translate(-546 -299)"><g class="a" transform="translate(546 299)"><rect class="c" width="24" height="24"/><rect class="d" x="0.5" y="0.5" width="23" height="23"/></g><g transform="translate(548.035 302)"><path class="b" d="M18.93,11.145A3.69,3.69,0,0,0,12.5,8.673a7.942,7.942,0,0,0-1.221-.5,4.43,4.43,0,1,0-4.744-.005A7.921,7.921,0,0,0,1,15.715v1.758A.527.527,0,0,0,1.527,18H16.293a.527.527,0,0,0,.527-.527V15.715a7.9,7.9,0,0,0-.092-1.193A3.7,3.7,0,0,0,18.93,11.145ZM5.535,4.43A3.375,3.375,0,1,1,8.91,7.8,3.379,3.379,0,0,1,5.535,4.43Zm10.23,11.285v1.231H2.055V15.715a6.843,6.843,0,0,1,9.852-6.159,3.691,3.691,0,0,0,3.332,5.28,3.712,3.712,0,0,0,.466-.029A6.825,6.825,0,0,1,15.766,15.715ZM16,13.668l-.039.011A2.607,2.607,0,1,1,16,13.668Z"/><path class="b" d="M363.637,273.055h-.527v-.527a.527.527,0,0,0-1.055,0v.527h-.527a.527.527,0,0,0,0,1.055h.527v.527a.527.527,0,0,0,1.055,0v-.527h.527a.527.527,0,0,0,0-1.055Z" transform="translate(-347.344 -262.438)"/></g></g></svg>