<svg width="24" height="24" viewBox="0 0 24 24" fill="none" xmlns="http://www.w3.org/2000/svg">
<path d="M20.25 16.4688H17.8438V14.0625C17.8438 13.8802 17.7713 13.7053 17.6424 13.5764C17.5135 13.4474 17.3386 13.375 17.1562 13.375C16.9739 13.375 16.799 13.4474 16.6701 13.5764C16.5412 13.7053 16.4688 13.8802 16.4688 14.0625V16.4688H14.0625C13.8802 16.4688 13.7053 16.5412 13.5764 16.6701C13.4474 16.799 13.375 16.9739 13.375 17.1562C13.375 17.3386 13.4474 17.5135 13.5764 17.6424C13.7053 17.7713 13.8802 17.8438 14.0625 17.8438H16.4688V20.25C16.4688 20.4323 16.5412 20.6072 16.6701 20.7361C16.799 20.8651 16.9739 20.9375 17.1562 20.9375C17.3386 20.9375 17.5135 20.8651 17.6424 20.7361C17.7713 20.6072 17.8438 20.4323 17.8438 20.25V17.8438H20.25C20.4323 17.8438 20.6072 17.7713 20.7361 17.6424C20.8651 17.5135 20.9375 17.3386 20.9375 17.1562C20.9375 16.9739 20.8651 16.799 20.7361 16.6701C20.6072 16.5412 20.4323 16.4688 20.25 16.4688Z" fill="white"/>
<path d="M12 20.9377H5.125C4.94266 20.9377 4.7678 20.8652 4.63886 20.7363C4.50993 20.6074 4.4375 20.4325 4.4375 20.2502C4.43987 18.2452 5.23739 16.323 6.65512 14.9053C8.07285 13.4876 9.99503 12.69 12 12.6877C13.3288 12.6918 14.6145 12.2162 15.6207 11.3482C16.6269 10.4803 17.286 9.27835 17.477 7.96333C17.6679 6.6483 17.3778 5.30853 16.6601 4.19026C15.9423 3.07199 14.845 2.25035 13.5699 1.87635C12.2948 1.50236 10.9275 1.60113 9.71941 2.15451C8.51131 2.7079 7.54351 3.67872 6.9939 4.88855C6.44429 6.09838 6.34979 7.46593 6.72777 8.73986C7.10574 10.0138 7.93081 11.1085 9.05131 11.8228C7.3036 12.4349 5.78891 13.5743 4.71622 15.0837C3.64353 16.5932 3.06572 18.3984 3.0625 20.2502C3.0625 20.7972 3.2798 21.3218 3.66659 21.7086C4.05339 22.0954 4.57799 22.3127 5.125 22.3127H12C12.1823 22.3127 12.3572 22.2402 12.4861 22.1113C12.6151 21.9824 12.6875 21.8075 12.6875 21.6252C12.6875 21.4428 12.6151 21.268 12.4861 21.139C12.3572 21.0101 12.1823 20.9377 12 20.9377ZM7.875 7.18767C7.875 6.37182 8.11693 5.5743 8.57019 4.89595C9.02345 4.21759 9.66769 3.68888 10.4214 3.37667C11.1752 3.06446 12.0046 2.98277 12.8047 3.14193C13.6049 3.3011 14.3399 3.69397 14.9168 4.27086C15.4937 4.84775 15.8866 5.58275 16.0457 6.38293C16.2049 7.1831 16.1232 8.0125 15.811 8.76624C15.4988 9.51999 14.9701 10.1642 14.2917 10.6175C13.6134 11.0707 12.8158 11.3127 12 11.3127C10.9063 11.3116 9.85774 10.8766 9.08439 10.1033C8.31104 9.32993 7.87609 8.28136 7.875 7.18767Z" fill="white"/>
</svg>
