<svg width="164" height="32" viewBox="0 0 164 32" fill="none" xmlns="http://www.w3.org/2000/svg">
<path d="M57.368 11.2H53.88V21H51.728V11.2H48.24V9.432H57.368V11.2ZM71.4258 9.432V21H69.5298V13.528C69.5298 13.2293 69.5458 12.9067 69.5778 12.56L66.0818 19.128C65.9164 19.4427 65.6631 19.6 65.3218 19.6H65.0178C64.6764 19.6 64.4231 19.4427 64.2578 19.128L60.7218 12.536C60.7378 12.712 60.7511 12.8853 60.7618 13.056C60.7724 13.2267 60.7778 13.384 60.7778 13.528V21H58.8818V9.432H60.5058C60.6018 9.432 60.6844 9.43467 60.7538 9.44C60.8231 9.44533 60.8844 9.45867 60.9378 9.48C60.9964 9.50133 61.0471 9.536 61.0898 9.584C61.1378 9.632 61.1831 9.696 61.2258 9.776L64.6898 16.2C64.7804 16.3707 64.8631 16.5467 64.9378 16.728C65.0178 16.9093 65.0951 17.096 65.1698 17.288C65.2444 17.0907 65.3218 16.9013 65.4018 16.72C65.4818 16.5333 65.5671 16.3547 65.6578 16.184L69.0738 9.776C69.1164 9.696 69.1618 9.632 69.2098 9.584C69.2578 9.536 69.3084 9.50133 69.3618 9.48C69.4204 9.45867 69.4844 9.44533 69.5538 9.44C69.6231 9.43467 69.7058 9.432 69.8018 9.432H71.4258ZM80.1668 11.536C80.1028 11.648 80.0334 11.7307 79.9588 11.784C79.8894 11.832 79.8014 11.856 79.6948 11.856C79.5828 11.856 79.4601 11.816 79.3268 11.736C79.1988 11.6507 79.0441 11.5573 78.8628 11.456C78.6814 11.3547 78.4681 11.264 78.2228 11.184C77.9828 11.0987 77.6974 11.056 77.3668 11.056C77.0681 11.056 76.8068 11.0933 76.5828 11.168C76.3588 11.2373 76.1694 11.336 76.0148 11.464C75.8654 11.592 75.7534 11.7467 75.6788 11.928C75.6041 12.104 75.5668 12.2987 75.5668 12.512C75.5668 12.784 75.6414 13.0107 75.7908 13.192C75.9454 13.3733 76.1481 13.528 76.3988 13.656C76.6494 13.784 76.9348 13.8987 77.2548 14C77.5748 14.1013 77.9028 14.2107 78.2388 14.328C78.5748 14.44 78.9028 14.5733 79.2228 14.728C79.5428 14.8773 79.8281 15.0693 80.0788 15.304C80.3294 15.5333 80.5294 15.816 80.6788 16.152C80.8334 16.488 80.9108 16.896 80.9108 17.376C80.9108 17.8987 80.8201 18.3893 80.6388 18.848C80.4628 19.3013 80.2014 19.6987 79.8548 20.04C79.5134 20.376 79.0948 20.6427 78.5988 20.84C78.1028 21.032 77.5348 21.128 76.8948 21.128C76.5268 21.128 76.1641 21.0907 75.8068 21.016C75.4494 20.9467 75.1054 20.8453 74.7747 20.712C74.4494 20.5787 74.1428 20.4187 73.8548 20.232C73.5668 20.0453 73.3108 19.8373 73.0868 19.608L73.7188 18.576C73.7721 18.5013 73.8414 18.44 73.9268 18.392C74.0121 18.3387 74.1028 18.312 74.1988 18.312C74.3321 18.312 74.4761 18.368 74.6308 18.48C74.7854 18.5867 74.9694 18.7067 75.1828 18.84C75.3961 18.9733 75.6441 19.096 75.9268 19.208C76.2148 19.3147 76.5588 19.368 76.9588 19.368C77.5721 19.368 78.0468 19.224 78.3828 18.936C78.7188 18.6427 78.8868 18.224 78.8868 17.68C78.8868 17.376 78.8094 17.128 78.6548 16.936C78.5054 16.744 78.3054 16.584 78.0548 16.456C77.8041 16.3227 77.5188 16.2107 77.1988 16.12C76.8788 16.0293 76.5534 15.9307 76.2228 15.824C75.8921 15.7173 75.5668 15.5893 75.2468 15.44C74.9268 15.2907 74.6414 15.096 74.3908 14.856C74.1401 14.616 73.9374 14.3173 73.7828 13.96C73.6334 13.5973 73.5588 13.152 73.5588 12.624C73.5588 12.2027 73.6414 11.792 73.8068 11.392C73.9774 10.992 74.2228 10.6373 74.5428 10.328C74.8628 10.0187 75.2574 9.77067 75.7268 9.584C76.1961 9.39733 76.7348 9.304 77.3428 9.304C78.0254 9.304 78.6548 9.41067 79.2308 9.624C79.8068 9.83733 80.2974 10.136 80.7028 10.52L80.1668 11.536Z" fill="#0E9594"/>
<path d="M5.36002 7.96008C3.66669 10.2001 2.66669 12.9867 2.66669 16.0001C2.66669 23.3601 8.64002 29.3334 16 29.3334C23.36 29.3334 29.3334 23.3601 29.3334 16.0001C29.3334 8.64008 23.36 2.66675 16 2.66675" stroke="#0E9594" stroke-width="1.5" stroke-linecap="round" stroke-linejoin="round"/>
<path d="M6.66669 16.0001C6.66669 21.1601 10.84 25.3334 16 25.3334C21.16 25.3334 25.3334 21.1601 25.3334 16.0001C25.3334 10.8401 21.16 6.66675 16 6.66675" stroke="#0E9594" stroke-width="1.5" stroke-linecap="round" stroke-linejoin="round"/>
<path d="M16 21.3334C18.9467 21.3334 21.3333 18.9467 21.3333 16.0001C21.3333 13.0534 18.9467 10.6667 16 10.6667" stroke="#0E9594" stroke-width="1.5" stroke-linecap="round" stroke-linejoin="round"/>
</svg>
