<svg width="24" height="24" viewBox="0 0 24 24" fill="none" xmlns="http://www.w3.org/2000/svg">
<g clip-path="url(#clip0_117_24466)">
<path d="M19.0703 12.4745H17.1126C16.8461 12.4745 16.5882 12.5109 16.3427 12.5779C15.8584 11.6258 14.8696 10.9717 13.7303 10.9717H10.2697C9.13039 10.9717 8.14164 11.6258 7.65734 12.5779C7.41184 12.5109 7.15387 12.4745 6.88742 12.4745H4.92969C3.31426 12.4745 2 13.7888 2 15.4042V18.5338C2 19.503 2.78855 20.2916 3.75781 20.2916H20.2422C21.2114 20.2916 22 19.503 22 18.5338V15.4042C22 13.7888 20.6857 12.4745 19.0703 12.4745ZM7.34004 13.9014V19.1198H3.75781C3.43473 19.1198 3.17188 18.8569 3.17188 18.5338V15.4042C3.17188 14.435 3.96043 13.6464 4.92969 13.6464H6.88742C7.04648 13.6464 7.20051 13.668 7.34715 13.7078C7.34293 13.7719 7.34004 13.8364 7.34004 13.9014ZM15.4881 19.1198H8.51191V13.9014C8.51191 12.9321 9.30047 12.1436 10.2697 12.1436H13.7303C14.6995 12.1436 15.4881 12.9321 15.4881 13.9014V19.1198ZM20.8281 18.5338C20.8281 18.8569 20.5653 19.1198 20.2422 19.1198H16.66V13.9014C16.66 13.8363 16.6571 13.7718 16.6529 13.7078C16.7995 13.668 16.9535 13.6464 17.1126 13.6464H19.0703C20.0396 13.6464 20.8281 14.4349 20.8281 15.4042V18.5338Z" fill="#494949"/>
<path d="M5.90805 6.94141C4.47254 6.94141 3.30469 8.10926 3.30469 9.54477C3.30465 10.9803 4.47254 12.1481 5.90805 12.1481C7.34352 12.1481 8.51141 10.9803 8.51141 9.54477C8.51141 8.10926 7.34355 6.94141 5.90805 6.94141ZM5.90801 10.9763C5.11867 10.9763 4.47652 10.3341 4.47652 9.54477C4.47652 8.75543 5.11867 8.11328 5.90801 8.11328C6.69734 8.11328 7.33949 8.75543 7.33949 9.54477C7.33949 10.3341 6.69734 10.9763 5.90801 10.9763Z" fill="#494949"/>
<path d="M11.9995 3.70801C10.0817 3.70801 8.52148 5.26824 8.52148 7.18605C8.52148 9.10387 10.0817 10.6641 11.9995 10.6641C13.9173 10.6641 15.4776 9.10387 15.4776 7.18605C15.4776 5.26828 13.9173 3.70801 11.9995 3.70801ZM11.9995 9.49223C10.7279 9.49223 9.69336 8.45769 9.69336 7.18605C9.69336 5.91445 10.7279 4.87988 11.9995 4.87988C13.2712 4.87988 14.3057 5.91441 14.3057 7.18605C14.3057 8.45769 13.2712 9.49223 11.9995 9.49223Z" fill="#494949"/>
<path d="M18.0916 6.94141C16.6562 6.94141 15.4883 8.10926 15.4883 9.54477C15.4883 10.9803 16.6562 12.1481 18.0916 12.1481C19.5271 12.1481 20.695 10.9803 20.695 9.54477C20.695 8.10926 19.5271 6.94141 18.0916 6.94141ZM18.0916 10.9763C17.3023 10.9763 16.6602 10.3341 16.6602 9.54477C16.6602 8.75543 17.3023 8.11328 18.0916 8.11328C18.881 8.11328 19.5231 8.75543 19.5231 9.54477C19.5231 10.3341 18.881 10.9763 18.0916 10.9763Z" fill="#494949"/>
</g>
<defs>
<clipPath id="clip0_117_24466">
<rect width="24" height="24" fill="white"/>
</clipPath>
</defs>
</svg>
