<svg width="20" height="20" viewBox="0 0 20 20" fill="none" xmlns="http://www.w3.org/2000/svg">
<g id="Icons 24/24">
<path id="Vector" d="M17.452 6.18463C17.3738 6.217 17.3027 6.26449 17.2429 6.32437C17.1831 6.38426 17.1357 6.45537 17.1035 6.53361C17.0712 6.61185 17.0548 6.69569 17.055 6.78032C17.0552 6.86495 17.0721 6.9487 17.1048 7.02677C17.635 8.30629 17.8109 9.70494 17.614 11.0759C17.4172 12.4468 16.8549 13.7395 15.9862 14.8182C15.4142 13.288 14.281 12.033 12.817 11.3082C13.3253 10.7572 13.662 10.07 13.786 9.33071C13.91 8.59138 13.8158 7.83195 13.5151 7.14529C13.2143 6.45862 12.7199 5.87448 12.0925 5.46429C11.465 5.05411 10.7316 4.83566 9.98196 4.83566C9.23232 4.83566 8.49892 5.05411 7.87145 5.46429C7.24398 5.87448 6.74964 6.45862 6.44887 7.14529C6.14811 7.83195 6.05396 8.59138 6.17794 9.33071C6.30192 10.07 6.63866 10.7572 7.14697 11.3082C5.68293 12.033 4.54976 13.288 3.97769 14.8182C2.87243 13.4383 2.2747 11.7206 2.28453 9.95268C2.29435 8.18474 2.91115 6.47383 4.03168 5.1063C5.1522 3.73878 6.70846 2.79764 8.43996 2.44041C10.1715 2.08318 11.9731 2.33154 13.5434 3.14392C13.6186 3.19018 13.7026 3.22045 13.79 3.23283C13.8775 3.24521 13.9665 3.23944 14.0516 3.21588C14.1368 3.19231 14.2161 3.15147 14.2847 3.09588C14.3534 3.0403 14.4098 2.97117 14.4505 2.8928C14.4913 2.81444 14.5154 2.72852 14.5215 2.64041C14.5275 2.5523 14.5154 2.46389 14.4857 2.38069C14.4561 2.29749 14.4097 2.22128 14.3493 2.15683C14.2889 2.09238 14.2159 2.04105 14.1348 2.00606C12.2543 1.03336 10.091 0.754778 8.02534 1.21931C5.9597 1.68384 4.12396 2.86175 2.8409 4.54591C1.55783 6.23007 0.909597 8.31266 1.01016 10.4275C1.11073 12.5423 1.95367 14.554 3.39075 16.1088C4.82784 17.6636 6.76707 18.662 8.86747 18.9284C10.9679 19.1949 13.095 18.7123 14.8747 17.5655C16.6545 16.4187 17.973 14.6812 18.5984 12.6585C19.2238 10.6357 19.116 8.45723 18.2941 6.50606C18.2239 6.35274 18.0963 6.23314 17.9388 6.17302C17.7813 6.11289 17.6064 6.11706 17.452 6.18463ZM9.98196 6.1332C10.4905 6.1332 10.9877 6.28401 11.4106 6.56656C11.8334 6.84911 12.163 7.25072 12.3576 7.72058C12.5523 8.19045 12.6032 8.70748 12.504 9.20628C12.4048 9.70509 12.1599 10.1633 11.8002 10.5229C11.4406 10.8825 10.9824 11.1274 10.4836 11.2266C9.98481 11.3259 9.46779 11.2749 8.99792 11.0803C8.52805 10.8857 8.12645 10.5561 7.8439 10.1332C7.56135 9.71036 7.41054 9.2132 7.41054 8.70462C7.41054 8.02264 7.68146 7.36859 8.16369 6.88635C8.64593 6.40412 9.29998 6.1332 9.98196 6.1332ZM4.9934 15.866C5.19729 15.0196 5.61273 14.2388 6.20078 13.5968C6.78882 12.9548 7.53023 12.4726 8.35554 12.1953C8.86379 12.4366 9.41935 12.5617 9.98196 12.5617C10.5446 12.5617 11.1001 12.4366 11.6084 12.1953C12.4337 12.4726 13.1751 12.9548 13.7631 13.5968C14.3512 14.2388 14.7666 15.0196 14.9705 15.866C13.5769 17.0476 11.8091 17.6961 9.98196 17.6961C8.15486 17.6961 6.38706 17.0476 4.9934 15.866Z" fill="#494949"/>
<path id="Vector_2" d="M13.375 4.375C13.2258 4.375 13.0827 4.43426 12.9773 4.53975C12.8718 4.64524 12.8125 4.78832 12.8125 4.9375C12.8125 5.08668 12.8718 5.22976 12.9773 5.33525C13.0827 5.44074 13.2258 5.5 13.375 5.5H14.5V6.625C14.5 6.77418 14.5593 6.91726 14.6648 7.02275C14.7702 7.12824 14.9133 7.1875 15.0625 7.1875C15.2117 7.1875 15.3548 7.12824 15.4602 7.02275C15.5657 6.91726 15.625 6.77418 15.625 6.625V5.5H16.75C16.8992 5.5 17.0423 5.44074 17.1477 5.33525C17.2532 5.22976 17.3125 5.08668 17.3125 4.9375C17.3125 4.78832 17.2532 4.64524 17.1477 4.53975C17.0423 4.43426 16.8992 4.375 16.75 4.375H15.625V3.25C15.625 3.10082 15.5657 2.95774 15.4602 2.85225C15.3548 2.74676 15.2117 2.6875 15.0625 2.6875C14.9133 2.6875 14.7702 2.74676 14.6648 2.85225C14.5593 2.95774 14.5 3.10082 14.5 3.25V4.375H13.375Z" fill="#494949"/>
</g>
</svg>
