<svg xmlns="http://www.w3.org/2000/svg" width="24" height="24" viewBox="0 0 24 24"><defs><style>.a,.b{fill:#545f7e;}.a{stroke:#707070;opacity:0;}.c{stroke:none;}.d{fill:none;}</style></defs><g transform="translate(-535 -331)"><g class="a" transform="translate(535 331)"><rect class="c" width="24" height="24"/><rect class="d" x="0.5" y="0.5" width="23" height="23"/></g><g transform="translate(538 334)"><path class="b" d="M194.029,280.531a.532.532,0,0,0,.752,0l1.9-1.9a.532.532,0,1,0-.752-.752L194.4,279.4l-.694-.694a.532.532,0,1,0-.752.752Zm0,0" transform="translate(-186.025 -267.962)"/><path class="b" d="M134.324,208.254a4.219,4.219,0,1,0-4.219-4.219A4.224,4.224,0,0,0,134.324,208.254Zm0-7.376a3.156,3.156,0,1,1-3.156,3.156A3.16,3.16,0,0,1,134.324,200.879Zm0,0" transform="translate(-125.531 -192.791)"/><path class="b" d="M15.867,1.132H14.9v-.6a.531.531,0,1,0-1.063,0v.6H12.791v-.6a.532.532,0,0,0-1.063,0v.6H5.859v-.6A.532.532,0,0,0,4.8.531v.6H3.751v-.6a.532.532,0,0,0-1.063,0v.6h-.97A1.721,1.721,0,0,0,0,2.851V16.281A1.721,1.721,0,0,0,1.719,18H15.867a1.721,1.721,0,0,0,1.719-1.719V2.851a1.721,1.721,0,0,0-1.719-1.719Zm.656,15.149a.657.657,0,0,1-.656.656H1.719a.657.657,0,0,1-.656-.656V5.551h15.46ZM1.063,2.851a.657.657,0,0,1,.656-.656h.97v.6a.532.532,0,0,0,1.063,0v-.6H4.8v.6a.532.532,0,0,0,1.063,0v-.6h5.869v.6a.532.532,0,0,0,1.063,0v-.6h1.044v.6a.532.532,0,0,0,1.063,0v-.6h.969a.657.657,0,0,1,.656.656V4.488H1.063Zm0,0" transform="translate(0 0)"/></g></g></svg>