<svg xmlns="http://www.w3.org/2000/svg" width="24" height="24" viewBox="0 0 24 24"><defs><style>.a,.b{fill:#545f7e;}.a{stroke:#707070;opacity:0;}.b{fill-rule:evenodd;}.c{stroke:none;}.d{fill:none;}</style></defs><g transform="translate(-546 -299)"><g class="a" transform="translate(546 299)"><rect class="c" width="24" height="24"/><rect class="d" x="0.5" y="0.5" width="23" height="23"/></g><path class="b" d="M3.63-.334,5.622-1.906a.525.525,0,0,1,.655,0L8.219-.334h2.933a.527.527,0,0,1,.527.527v2.04L14.53,4.417a.526.526,0,0,1,.207.418V15.453a.527.527,0,0,1-.527.527H-2.315a.527.527,0,0,1-.527-.527V4.835a.527.527,0,0,1,.236-.44L.217,2.233V.194A.527.527,0,0,1,.744-.334ZM2.835,5.872H9.042a.527.527,0,0,0,0-1.055H2.835a.527.527,0,0,0,0,1.055Zm0-2.11H9.042a.527.527,0,0,0,0-1.055H2.835a.527.527,0,0,0,0,1.055Zm-4.38,1.145L.217,6.467V3.559ZM1.272,7.4,3.585,9.448,4.891,8.276A1.576,1.576,0,0,1,7,8.276L8.351,9.484l2.273-2.043V.721H1.272ZM2.8,10.155-1.787,6.1v8.176Zm8.881-3.661,1.763-1.585L11.679,3.559Zm2-.385L9.139,10.192l4.544,4.08Zm-.848,8.817L6.3,9.059a.527.527,0,0,0-.7,0L-.939,14.926ZM6.546-.334l-.6-.488-.618.488Zm0,0" transform="translate(551.842 304.02)"/></g></svg>