<svg width="24" height="24" viewBox="0 0 24 24" fill="none" xmlns="http://www.w3.org/2000/svg">
<g id="delete_outline" clip-path="url(#clip0_1111_33592)">
<g id="notes">
<g id="Group 1014">
<path id="Path 3613" d="M16.0927 15.4543H8.45566C8.31098 15.4543 8.17223 15.3968 8.06993 15.2945C7.96763 15.1922 7.91016 15.0535 7.91016 14.9088C7.91016 14.7641 7.96763 14.6254 8.06993 14.5231C8.17223 14.4208 8.31098 14.3633 8.45566 14.3633H16.0917C16.2363 14.3633 16.3751 14.4208 16.4774 14.5231C16.5797 14.6254 16.6372 14.7641 16.6372 14.9088C16.6372 15.0535 16.5797 15.1922 16.4774 15.2945C16.3751 15.3968 16.2363 15.4543 16.0917 15.4543H16.0927Z" fill="#49B776"/>
</g>
<g id="Group 1015">
<path id="Path 3614" d="M16.0927 12.5461H8.45566C8.31098 12.5461 8.17223 12.4886 8.06993 12.3863C7.96763 12.284 7.91016 12.1453 7.91016 12.0006C7.91016 11.8559 7.96763 11.7172 8.06993 11.6149C8.17223 11.5125 8.31098 11.4551 8.45566 11.4551H16.0917C16.2363 11.4551 16.3751 11.5125 16.4774 11.6149C16.5797 11.7172 16.6372 11.8559 16.6372 12.0006C16.6372 12.1453 16.5797 12.284 16.4774 12.3863C16.3751 12.4886 16.2363 12.5461 16.0917 12.5461H16.0927Z" fill="#49B776"/>
</g>
<g id="Group 1016">
<path id="Path 3615" d="M12.4557 9.63592H8.45566C8.31098 9.63592 8.17223 9.57845 8.06993 9.47615C7.96763 9.37385 7.91016 9.2351 7.91016 9.09042C7.91016 8.94575 7.96763 8.807 8.06993 8.70469C8.17223 8.60239 8.31098 8.54492 8.45566 8.54492H12.4557C12.6003 8.54492 12.7391 8.60239 12.8414 8.70469C12.9437 8.807 13.0012 8.94575 13.0012 9.09042C13.0012 9.2351 12.9437 9.37385 12.8414 9.47615C12.7391 9.57845 12.6003 9.63592 12.4557 9.63592Z" fill="#49B776"/>
</g>
<g id="Group 1017">
<path id="Path 3616" d="M16.818 20H7C6.46957 20 5.96086 19.7893 5.58579 19.4142C5.21071 19.0391 5 18.5304 5 18V6C5 5.46957 5.21071 4.96086 5.58579 4.58579C5.96086 4.21071 6.46957 4 7 4H16.818C17.3484 4 17.8571 4.21071 18.2322 4.58579C18.6073 4.96086 18.818 5.46957 18.818 6V18C18.818 18.5304 18.6073 19.0391 18.2322 19.4142C17.8571 19.7893 17.3484 20 16.818 20ZM7 5.091C6.759 5.09126 6.52795 5.18712 6.35753 5.35753C6.18712 5.52795 6.09126 5.759 6.091 6V18C6.09126 18.241 6.18712 18.4721 6.35753 18.6425C6.52795 18.8129 6.759 18.9087 7 18.909H16.818C17.059 18.9087 17.2901 18.8129 17.4605 18.6425C17.6309 18.4721 17.7267 18.241 17.727 18V6C17.7267 5.759 17.6309 5.52795 17.4605 5.35753C17.2901 5.18712 17.059 5.09126 16.818 5.091H7Z" fill="#49B776"/>
</g>
</g>
</g>
<defs>
<clipPath id="clip0_1111_33592">
<rect width="24" height="24" fill="white"/>
</clipPath>
</defs>
</svg>
