<svg width="24" height="24" viewBox="0 0 24 24" fill="none" xmlns="http://www.w3.org/2000/svg">
<path d="M11.846 24.0004C12.4984 23.9986 13.1235 23.7386 13.5849 23.2773C14.0462 22.8159 14.3062 22.1908 14.308 21.5384H9.385C9.38487 21.8617 9.44843 22.1818 9.57205 22.4805C9.69566 22.7792 9.87692 23.0506 10.1055 23.2792C10.334 23.5079 10.6053 23.6892 10.904 23.813C11.2026 23.9367 11.5227 24.0004 11.846 24.0004ZM19.231 16.6154V10.4624C19.231 6.68441 17.213 3.52041 13.693 2.68441V1.85041C13.693 1.36068 13.4985 0.891019 13.1522 0.544734C12.8059 0.198448 12.3362 0.00390625 11.8465 0.00390625C11.3568 0.00390625 10.8871 0.198448 10.5408 0.544734C10.1945 0.891019 10 1.36068 10 1.85041V2.68741C6.468 3.52441 4.462 6.67541 4.462 10.4654V16.6194L2 19.0774V20.3084H21.692V19.0774L19.231 16.6154Z" fill="#222222" fill-opacity="0.8"/>
</svg>
