<svg width="56" height="56" viewBox="0 0 56 56" fill="none" xmlns="http://www.w3.org/2000/svg">
<g id="ticket (5) 2">
<g id="Group">
<g id="Group_2">
<path id="Vector" d="M4.7588 11.3174C2.73459 11.3174 1.09375 12.9583 1.09375 14.9824V23.117C3.40113 23.5447 5.14894 25.5665 5.14894 27.9978C5.14894 30.4291 3.40113 32.4509 1.09375 32.8787V41.0132C1.09375 43.0373 2.73459 44.6783 4.7588 44.6783H33.3501V11.3174H4.7588Z" fill="#C0E5CD"/>
</g>
<path id="Vector_2" d="M19.0139 32.9678L16.5349 34.1023C15.488 34.5815 14.3194 33.7324 14.4515 32.5887L14.7646 29.8805L12.9195 27.8734C12.1403 27.0258 12.5866 25.652 13.7153 25.4243L16.3877 24.8851L17.7263 22.5101C18.2917 21.507 19.7361 21.507 20.3014 22.5101L21.6401 24.8851L24.3124 25.4243C25.4411 25.652 25.8874 27.0258 25.1083 27.8734L23.2632 29.8805L23.5762 32.5887C23.7085 33.7324 22.5399 34.5815 21.4929 34.1023L19.0139 32.9678Z" stroke="#494949" stroke-width="1.875" stroke-miterlimit="10" stroke-linecap="round" stroke-linejoin="round"/>
<path id="Vector_3" d="M50.8511 27.9988C50.8511 25.5675 52.5989 23.5457 54.9062 23.118V14.9834C54.9062 12.9593 53.2654 11.3184 51.2412 11.3184H4.7588C2.73459 11.3184 1.09375 12.9593 1.09375 14.9834V23.118C3.40113 23.5457 5.14894 25.5675 5.14894 27.9988C5.14894 30.4301 3.40113 32.4519 1.09375 32.8797V41.0142C1.09375 43.0383 2.73459 44.6793 4.7588 44.6793H51.2413C53.2654 44.6793 54.9064 43.0384 54.9064 41.0142V32.8797C52.5989 32.4519 50.8511 30.4301 50.8511 27.9988Z" stroke="#494949" stroke-width="1.875" stroke-miterlimit="10" stroke-linecap="round" stroke-linejoin="round"/>
<g id="Group_3">
<path id="Vector_4" d="M33.3496 16.3242V17.6646" stroke="#494949" stroke-width="1.875" stroke-miterlimit="10" stroke-linecap="round" stroke-linejoin="round"/>
<path id="Vector_5" d="M33.3496 23.6592V24.9997" stroke="#494949" stroke-width="1.875" stroke-miterlimit="10" stroke-linecap="round" stroke-linejoin="round"/>
<path id="Vector_6" d="M33.3496 30.9941V32.3346" stroke="#494949" stroke-width="1.875" stroke-miterlimit="10" stroke-linecap="round" stroke-linejoin="round"/>
<path id="Vector_7" d="M33.3496 38.3291V39.6695" stroke="#494949" stroke-width="1.875" stroke-miterlimit="10" stroke-linecap="round" stroke-linejoin="round"/>
</g>
<g id="Group_4">
<path id="Vector_8" d="M40.8184 22.7939H46.626" stroke="#494949" stroke-width="1.875" stroke-miterlimit="10" stroke-linecap="round" stroke-linejoin="round"/>
<path id="Vector_9" d="M40.8184 27.999H44.2802" stroke="#494949" stroke-width="1.875" stroke-miterlimit="10" stroke-linecap="round" stroke-linejoin="round"/>
<path id="Vector_10" d="M40.8184 33.2031H46.626" stroke="#494949" stroke-width="1.875" stroke-miterlimit="10" stroke-linecap="round" stroke-linejoin="round"/>
</g>
</g>
</g>
</svg>
