<svg width="24" height="24" viewBox="0 0 24 24" fill="none" xmlns="http://www.w3.org/2000/svg">
<g clip-path="url(#clip0_117_24326)">
<mask id="mask0_117_24326" style="mask-type:luminance" maskUnits="userSpaceOnUse" x="2" y="3" width="20" height="18">
<path d="M2 3H22V21H2V3Z" fill="white"/>
</mask>
<g mask="url(#mask0_117_24326)">
<path d="M17.3125 3.70313H6.6875C4.53012 3.70313 2.78125 5.27711 2.78125 7.21875V16.7813C2.78125 18.7229 4.53012 20.2969 6.6875 20.2969H17.3125C19.4699 20.2969 21.2187 18.7229 21.2187 16.7813V7.21875C21.2187 5.27711 19.4699 3.70313 17.3125 3.70313Z" stroke="#494949" stroke-width="1.40625" stroke-miterlimit="10" stroke-linecap="round" stroke-linejoin="round"/>
<path d="M12 10.6992V16.0781" stroke="#494949" stroke-width="1.40625" stroke-miterlimit="10" stroke-linecap="round" stroke-linejoin="round"/>
<path d="M12 7.21875C11.4607 7.21875 11.0234 7.61225 11.0234 8.09766C11.0234 8.58306 11.4607 8.97656 12 8.97656C12.5393 8.97656 12.9766 8.58306 12.9766 8.09766C12.9766 7.61225 12.5393 7.21875 12 7.21875Z" fill="#494949"/>
</g>
</g>
<defs>
<clipPath id="clip0_117_24326">
<rect width="20" height="18" fill="white" transform="translate(2 3)"/>
</clipPath>
</defs>
</svg>
