<svg width="24" height="24" viewBox="0 0 24 24" fill="none" xmlns="http://www.w3.org/2000/svg">
<rect width="24" height="24" rx="4" fill="#49B776"/>
<path d="M19.4555 19.9453H18.0643V3.52734C18.0643 3.23611 17.8282 3 17.5369 3H5.46347C5.17224 3 4.93613 3.23611 4.93613 3.52734V19.9453H3.54492C3.25369 19.9453 3.01758 20.1814 3.01758 20.4727C3.01758 20.7639 3.25369 21 3.54492 21H19.4556C19.7468 21 19.9829 20.7639 19.9829 20.4727C19.9829 20.1814 19.7468 19.9453 19.4555 19.9453ZM9.70265 19.9453V16.3502H13.2978V19.9453H9.70265ZM14.3524 19.9453V15.8229C14.3524 15.5316 14.1163 15.2955 13.8251 15.2955H9.1753C8.88407 15.2955 8.64796 15.5316 8.64796 15.8229V19.9453H5.99081V4.05469H17.0096V19.9453H14.3524Z" fill="white"/>
<path d="M10.3655 5.33105H7.78125C7.49002 5.33105 7.25391 5.56716 7.25391 5.8584V8.44266C7.25391 8.7339 7.49002 8.97001 7.78125 8.97001H10.3655C10.6567 8.97001 10.8929 8.7339 10.8929 8.44266V5.8584C10.8929 5.56716 10.6567 5.33105 10.3655 5.33105ZM9.83817 7.91532H8.30859V6.38574H9.83817V7.91532Z" fill="white"/>
<path d="M15.219 5.33105H12.6348C12.3435 5.33105 12.1074 5.56716 12.1074 5.8584V8.44266C12.1074 8.7339 12.3435 8.97001 12.6348 8.97001H15.219C15.5103 8.97001 15.7464 8.7339 15.7464 8.44266V5.8584C15.7464 5.56716 15.5103 5.33105 15.219 5.33105ZM14.6917 7.91532H13.1621V6.38574H14.6917V7.91532Z" fill="white"/>
<path d="M10.3655 10.2402H7.78125C7.49002 10.2402 7.25391 10.4763 7.25391 10.7676V13.3518C7.25391 13.6431 7.49002 13.8792 7.78125 13.8792H10.3655C10.6567 13.8792 10.8929 13.6431 10.8929 13.3518V10.7676C10.8929 10.4763 10.6567 10.2402 10.3655 10.2402ZM9.83817 12.8245H8.30859V11.2949H9.83817V12.8245Z" fill="white"/>
<path d="M15.219 10.2402H12.6348C12.3435 10.2402 12.1074 10.4763 12.1074 10.7676V13.3518C12.1074 13.6431 12.3435 13.8792 12.6348 13.8792H15.219C15.5103 13.8792 15.7464 13.6431 15.7464 13.3518V10.7676C15.7464 10.4763 15.5103 10.2402 15.219 10.2402ZM14.6917 12.8245H13.1621V11.2949H14.6917V12.8245Z" fill="white"/>
</svg>
