<svg width="52" height="52" viewBox="0 0 52 52" fill="none" xmlns="http://www.w3.org/2000/svg">
<g id="Menu Icon" filter="url(#filter0_d_1111_33389)">
<rect x="6" y="3" width="40" height="40" rx="5" fill="#F4F4F4"/>
<g id="menu (1)">
<path id="Path 5065" d="M38.05 20.9538C38.504 21.4085 38.813 21.9876 38.938 22.6179C39.0629 23.2482 38.9983 23.9014 38.7521 24.495C38.506 25.0885 38.0894 25.5958 37.5551 25.9527C37.0207 26.3095 36.3926 26.5 35.75 26.5C35.1075 26.5 34.4793 26.3095 33.945 25.9527C33.4106 25.5958 32.9941 25.0885 32.7479 24.495C32.5018 23.9014 32.4371 23.2482 32.5621 22.6179C32.687 21.9876 32.996 21.4085 33.45 20.9538C33.7519 20.6515 34.1104 20.4116 34.505 20.2479C34.8997 20.0842 35.3228 20 35.75 20C36.1773 20 36.6003 20.0842 36.995 20.2479C37.3896 20.4116 37.7481 20.6515 38.05 20.9538Z" fill="#9F9F9F"/>
<path id="Path 5066" d="M28.3 20.9538C28.754 21.4085 29.063 21.9876 29.1879 22.6179C29.3129 23.2482 29.2482 23.9014 29.0021 24.495C28.7559 25.0885 28.3394 25.5958 27.805 25.9527C27.2707 26.3095 26.6426 26.5 26 26.5C25.3574 26.5 24.7293 26.3095 24.195 25.9527C23.6606 25.5958 23.2441 25.0885 22.9979 24.495C22.7518 23.9014 22.6871 23.2482 22.8121 22.6179C22.937 21.9876 23.246 21.4085 23.7 20.9538C24.0019 20.6515 24.3604 20.4116 24.755 20.2479C25.1497 20.0842 25.5727 20 26 20C26.4272 20 26.8503 20.0842 27.245 20.2479C27.6396 20.4116 27.9981 20.6515 28.3 20.9538Z" fill="#9F9F9F"/>
<path id="Path 5067" d="M18.55 20.9538C19.004 21.4085 19.313 21.9876 19.4379 22.6179C19.5629 23.2482 19.4982 23.9014 19.2521 24.495C19.006 25.0885 18.5894 25.5958 18.055 25.9527C17.5207 26.3095 16.8926 26.5 16.25 26.5C15.6074 26.5 14.9793 26.3095 14.445 25.9527C13.9106 25.5958 13.4941 25.0885 13.2479 24.495C13.0018 23.9014 12.9371 23.2482 13.0621 22.6179C13.187 21.9876 13.496 21.4085 13.95 20.9538C14.2519 20.6515 14.6104 20.4116 15.005 20.2479C15.3997 20.0842 15.8228 20 16.25 20C16.6773 20 17.1003 20.0842 17.495 20.2479C17.8896 20.4116 18.2481 20.6515 18.55 20.9538Z" fill="#9F9F9F"/>
</g>
</g>
<defs>
<filter id="filter0_d_1111_33389" x="0" y="0" width="52" height="52" filterUnits="userSpaceOnUse" color-interpolation-filters="sRGB">
<feFlood flood-opacity="0" result="BackgroundImageFix"/>
<feColorMatrix in="SourceAlpha" type="matrix" values="0 0 0 0 0 0 0 0 0 0 0 0 0 0 0 0 0 0 127 0" result="hardAlpha"/>
<feOffset dy="3"/>
<feGaussianBlur stdDeviation="3"/>
<feComposite in2="hardAlpha" operator="out"/>
<feColorMatrix type="matrix" values="0 0 0 0 0.898039 0 0 0 0 0.956863 0 0 0 0 0.921569 0 0 0 0.1 0"/>
<feBlend mode="normal" in2="BackgroundImageFix" result="effect1_dropShadow_1111_33389"/>
<feBlend mode="normal" in="SourceGraphic" in2="effect1_dropShadow_1111_33389" result="shape"/>
</filter>
</defs>
</svg>
