<svg width="14" height="14" viewBox="0 0 14 14" fill="none" xmlns="http://www.w3.org/2000/svg">
<g clip-path="url(#clip0_413_22555)">
<path d="M6.99997 0C3.14018 0 0 3.14018 0 6.99997C0 10.8598 3.14018 13.9999 6.99997 13.9999C10.8598 13.9999 13.9999 10.8598 13.9999 6.99997C13.9999 3.14016 10.8598 0 6.99997 0ZM6.99997 13.1249C3.62266 13.1249 0.875 10.3773 0.875 6.99997C0.875 3.62266 3.62266 0.875 6.99997 0.875C10.3773 0.875 13.1249 3.62264 13.1249 6.99997C13.1249 10.3773 10.3773 13.1249 6.99997 13.1249ZM10.8828 6.99997C10.8828 7.24161 10.6869 7.43747 10.4453 7.43747H7.43747V10.4453C7.43747 10.6869 7.24158 10.8828 6.99997 10.8828C6.75836 10.8828 6.56247 10.6869 6.56247 10.4453V7.43747H3.55466C3.31305 7.43747 3.11716 7.24161 3.11716 6.99997C3.11716 6.75834 3.31305 6.56247 3.55466 6.56247H6.56247V3.55466C6.56247 3.31302 6.75836 3.11716 6.99997 3.11716C7.24158 3.11716 7.43747 3.31302 7.43747 3.55466V6.56247H10.4453C10.6869 6.56247 10.8828 6.75836 10.8828 6.99997Z" fill="#49B776"/>
</g>
<defs>
<clipPath id="clip0_413_22555">
<rect width="14" height="14" fill="white"/>
</clipPath>
</defs>
</svg>
