<svg width="18" height="18" viewBox="0 0 18 18" fill="none" xmlns="http://www.w3.org/2000/svg">
<g id="planet-earth 1" clip-path="url(#clip0_1111_31984)">
<g id="Group">
<g id="Group_2">
<path id="Vector" d="M13.6301 16.3138C13.5327 16.1459 13.3177 16.0888 13.1496 16.1862L13.1361 16.194C12.9682 16.2914 12.9111 16.5065 13.0084 16.6745C13.0737 16.7868 13.1916 16.8496 13.3128 16.8496C13.3727 16.8496 13.4334 16.8343 13.4889 16.8021L13.5025 16.7943C13.6704 16.6968 13.7275 16.4817 13.6301 16.3138Z" fill="#494949"/>
</g>
</g>
<g id="Group_3">
<g id="Group_4">
<path id="Vector_2" d="M16.7939 4.50278C15.5922 2.42135 13.6519 0.932522 11.3304 0.310467C9.00895 -0.311588 6.58415 0.00766629 4.50273 1.20934C2.42134 2.41102 0.932471 4.35136 0.310451 6.67283C-0.311568 8.99431 0.0076506 11.4191 1.20933 13.5005C2.28725 15.3676 4.00049 16.7865 6.03343 17.4959C6.9971 17.8321 8.0031 17.9999 9.00755 17.9999C10.0997 17.9999 11.1898 17.8014 12.2203 17.4054C12.4015 17.3358 12.492 17.1324 12.4223 16.9512C12.3526 16.7699 12.1492 16.6794 11.968 16.7492C9.22513 17.8034 6.25576 17.3244 4.03729 15.6592L4.35226 14.0151L4.50403 13.9658C5.07753 13.7795 5.39253 13.1613 5.20628 12.5878L5.0949 12.245C5.06913 12.1657 5.06927 12.0819 5.09525 12.0026C5.19295 11.7048 5.15804 11.3789 4.99945 11.1085C4.84086 10.8381 4.5735 10.6485 4.26585 10.5884L3.47237 10.4333L1.94139 9.2693C1.84966 9.19955 1.7296 9.17919 1.61999 9.21477L0.723643 9.50594C0.704623 9.18535 0.704342 8.86486 0.722412 8.54607C0.75778 8.57901 0.780807 8.6014 0.794975 8.6161C0.812518 8.64531 0.834244 8.6721 0.859698 8.6953C0.932893 8.76196 0.999198 8.79219 1.13842 8.79219C1.26635 8.79216 1.45574 8.76667 1.76845 8.72048C2.06503 8.67664 2.36006 8.62724 2.36298 8.62675C2.48121 8.60696 2.58116 8.52821 2.6282 8.41799C2.67524 8.30774 2.66283 8.18114 2.59529 8.08207L2.16424 7.44982L2.78165 7.00833C2.82279 6.9789 2.8571 6.94097 2.88224 6.8971L3.8393 5.2263L4.22506 4.81293C4.61927 4.39042 4.73177 3.77227 4.51162 3.23803C4.38176 2.92293 4.15493 2.66059 3.87122 2.48379C4.17848 2.24223 4.5061 2.0192 4.85429 1.81821C6.1318 1.08064 7.52596 0.723201 8.90545 0.709526L8.2777 1.49699L5.94983 2.31307C5.8553 2.34619 5.77936 2.41812 5.74118 2.51072L5.09107 4.08671C5.04491 4.19868 5.05957 4.32644 5.12992 4.42501L6.07942 5.75505C5.94343 5.87911 5.81107 6.05982 5.65297 6.28418C5.58364 6.38258 5.51818 6.4755 5.47294 6.5276C5.4336 6.57296 5.39422 6.61725 5.3552 6.66113C5.15098 6.89087 4.93983 7.12849 4.78981 7.44589C4.45998 8.14405 4.5266 8.95553 4.96366 9.56366C5.38628 10.1517 6.083 10.4505 6.82663 10.3631C6.94778 10.3489 7.06073 10.3209 7.17003 10.2939C7.47143 10.2193 7.56691 10.2118 7.66359 10.3023C7.71063 10.3464 7.71496 10.3547 7.71401 10.5041C7.71334 10.5992 7.7126 10.7174 7.74537 10.8525C7.79785 11.0685 7.93352 11.2178 8.04251 11.3378C8.09668 11.3973 8.15272 11.459 8.16998 11.5004C8.27964 11.7631 8.23189 11.9087 8.12727 12.2275C8.1183 12.2548 8.10916 12.2826 8.09999 12.3112C7.94104 12.8032 8.1626 13.2912 8.35807 13.7218C8.42156 13.8616 8.4815 13.9936 8.52077 14.1102C8.83686 15.0481 9.07382 15.2629 9.26398 15.3494C9.36357 15.3947 9.46665 15.4146 9.57078 15.4145C10.0776 15.4145 10.6064 14.944 10.8493 14.6457C11.0019 14.4584 11.0395 14.2708 11.0669 14.1338C11.0806 14.0657 11.0913 14.0119 11.1119 13.9767C11.1433 13.9229 11.1803 13.8812 11.2272 13.8284C11.3214 13.7223 11.4387 13.5902 11.5147 13.3509C11.5724 13.169 11.6144 13.1245 11.7533 12.9765C11.7775 12.9508 11.8032 12.9233 11.8309 12.8932C12.2992 12.3837 12.1786 11.9945 12.0508 11.5824C11.9434 11.2357 12.1314 11.0139 12.5859 10.5906C12.7829 10.4072 12.9866 10.2175 13.144 9.98951C13.2129 9.88974 13.4226 9.58623 13.2928 9.2854C13.1657 8.99044 12.8425 8.94087 12.5828 8.90107C12.4803 8.88532 12.3253 8.86156 12.276 8.82932C12.0585 8.68711 11.9254 8.39032 11.7967 8.10327C11.7711 8.04614 11.7458 7.98975 11.7202 7.93501C11.6745 7.83735 11.6288 7.71919 11.5805 7.5941C11.4526 7.26307 11.3076 6.88785 11.0608 6.62629C10.839 6.39127 10.4209 6.27806 10.052 6.17815C9.92797 6.14458 9.81087 6.11287 9.73363 6.08435C9.66891 6.06045 9.59866 6.05612 9.53165 6.07187C9.35211 6.11396 9.2401 6.16033 9.15692 6.22698C9.13495 6.2446 9.06988 6.30243 9.03177 6.39538C8.90306 6.33361 8.72608 6.21566 8.61717 6.14306C8.61492 6.14155 8.61263 6.14004 8.61038 6.13853C8.64709 5.99165 8.61386 5.87377 8.57906 5.80015C8.38268 5.38474 7.73078 5.41726 7.60217 5.4282C7.52912 5.43431 7.43669 5.43758 7.33892 5.44103C7.18536 5.44648 7.01563 5.4526 6.84769 5.47144L6.85633 5.44732C6.98381 5.09214 7.323 4.8535 7.70037 4.8535H7.90023C8.09433 4.8535 8.25176 4.69607 8.25176 4.50197C8.25176 4.30787 8.09433 4.15044 7.90023 4.15044H7.70037C7.14012 4.15044 6.62708 4.4453 6.33954 4.9094L5.81518 4.17488L6.33106 2.9244L8.60578 2.12692C8.66815 2.10505 8.72313 2.06603 8.76437 2.01431L9.77557 0.745912C12.3593 0.99169 14.7915 2.44034 16.1851 4.85424C16.5563 5.49721 16.8309 6.17411 17.0135 6.86644L16.8645 6.99933C16.67 7.1729 16.556 7.42184 16.5516 7.68238C16.5516 7.68523 16.5515 7.68804 16.5514 7.69085L16.3086 7.02317C16.2724 6.92353 16.2191 6.83216 16.1503 6.75162L15.7172 6.24456C15.5493 6.048 15.3048 5.93533 15.0464 5.93533H14.5163C14.3281 5.93533 14.1561 6.0384 14.0673 6.20424C13.9786 6.3701 13.9883 6.57042 14.0927 6.72694L14.1463 6.80748C13.8037 7.10206 13.4075 7.33778 12.9857 7.49676L12.259 6.10482V5.79428C12.259 5.69823 12.2197 5.6063 12.1502 5.54003L11.4958 4.91534C11.4597 4.88089 11.4167 4.85452 11.3696 4.83796L10.7805 4.63096C10.5973 4.56648 10.3967 4.66292 10.3323 4.84605C10.268 5.02924 10.3643 5.22988 10.5474 5.29425L11.0651 5.47619L11.5559 5.94471V6.19109C11.5559 6.24773 11.5696 6.30355 11.5959 6.35379L12.5056 8.09638C12.5874 8.25318 12.7731 8.32483 12.9388 8.26351L13.2037 8.16585C13.8191 7.93888 14.3895 7.57378 14.8533 7.11007C14.9718 6.99156 14.9902 6.80597 14.8972 6.66651L14.8785 6.63842H15.0464C15.0989 6.63842 15.1486 6.6613 15.1827 6.70124L15.6158 7.2083C15.6297 7.22465 15.6405 7.24314 15.6479 7.26342L16.1258 8.57767C16.1669 8.69059 16.2628 8.77469 16.38 8.8007C16.4053 8.80629 16.4308 8.80903 16.4562 8.80903C16.5484 8.80903 16.6381 8.77272 16.7047 8.70606L16.9322 8.47857C17.0763 8.33446 17.1755 8.15214 17.2229 7.95003C17.5747 10.7697 16.4691 13.6866 14.1321 15.5208C13.9793 15.6407 13.9527 15.8616 14.0726 16.0144C14.1925 16.1671 14.4134 16.1938 14.5662 16.0739C16.2534 14.7496 17.4125 12.8556 17.83 10.7406C18.2514 8.60527 17.8834 6.3899 16.7939 4.50278ZM1.66224 9.94029L3.11184 11.0425C3.1547 11.0751 3.20441 11.0974 3.25721 11.1077L4.13092 11.2784C4.24243 11.3002 4.33546 11.3661 4.39294 11.4641C4.45042 11.5621 4.46251 11.6755 4.42714 11.7835C4.35437 12.0054 4.35402 12.2401 4.42619 12.4622L4.53757 12.8049C4.60412 13.0097 4.49155 13.2306 4.28676 13.2971L3.93742 13.4106C3.81553 13.4502 3.7249 13.553 3.70081 13.6788L3.41963 15.1465C2.80148 14.5808 2.25874 13.9121 1.8182 13.149C1.28073 12.2182 0.944916 11.2254 0.796908 10.2214L1.66224 9.94029ZM3.71105 4.33326L3.2975 4.77633C3.27905 4.79612 3.26291 4.81799 3.24944 4.84148L2.31035 6.48102L1.47571 7.07783C1.32024 7.189 1.28206 7.40391 1.38971 7.56183L1.70187 8.01971C1.52194 8.04649 1.36046 8.06857 1.2531 8.08028C1.23246 8.06049 1.21087 8.04041 1.18855 8.01967C1.10498 7.94205 0.988862 7.83837 0.815752 7.68688C1.10126 5.91982 1.95274 4.2551 3.29191 2.98438C3.54834 3.06514 3.75879 3.25642 3.86158 3.50592C3.97725 3.78654 3.91812 4.11131 3.71105 4.33326ZM6.57733 6.2543C6.73413 6.16606 7.09807 6.15315 7.36378 6.14373C7.47027 6.13997 7.57089 6.13638 7.66074 6.12886C7.70817 6.12489 7.76083 6.12563 7.81051 6.12949C7.78833 6.18645 7.78112 6.24896 7.79075 6.31097C7.80766 6.42006 7.87492 6.51481 7.97223 6.56687C8.03818 6.60217 8.12997 6.66338 8.22715 6.72817C8.50189 6.91133 8.81334 7.11893 9.10591 7.13756C9.37197 7.15483 9.52002 7.0032 9.58344 6.93862C9.5885 6.93348 9.59328 6.92835 9.59835 6.92367C9.63406 6.89456 9.66753 6.85554 9.69242 6.80847C9.74864 6.82453 9.8077 6.84053 9.86824 6.85695C10.0764 6.9133 10.4639 7.01821 10.5495 7.10891C10.7015 7.2701 10.82 7.57691 10.9246 7.84758C10.9775 7.98437 11.0274 8.11347 11.0834 8.23317C11.1074 8.28454 11.1311 8.33745 11.1551 8.39103C11.3173 8.75285 11.5012 9.16299 11.8913 9.41794C12.0681 9.53357 12.285 9.56679 12.4763 9.59615C12.4994 9.5997 12.5259 9.60378 12.5528 9.6082C12.4393 9.76662 12.2776 9.91716 12.1068 10.0762C11.6716 10.4815 11.13 10.9859 11.3794 11.7906C11.4971 12.1706 11.5026 12.2117 11.3133 12.4176C11.2875 12.4457 11.2635 12.4713 11.2409 12.4953C11.0788 12.6679 10.9507 12.8042 10.8447 13.1382C10.8139 13.2352 10.774 13.2801 10.7015 13.3617C10.6436 13.4269 10.5714 13.5082 10.5049 13.6221C10.4251 13.7586 10.3987 13.89 10.3776 13.9956C10.3568 14.0995 10.345 14.1516 10.3042 14.2017C10.2113 14.3157 10.0382 14.4812 9.86037 14.5941C9.69513 14.699 9.59866 14.7134 9.56579 14.7114C9.52828 14.6712 9.3924 14.4951 9.18709 13.8857C9.13646 13.7354 9.06622 13.5807 8.9983 13.4311C8.84857 13.1014 8.69378 12.7604 8.76908 12.5273C8.77798 12.4998 8.78676 12.4729 8.79541 12.4467C8.91572 12.08 9.02927 11.7338 8.8189 11.2296C8.75484 11.0761 8.65285 10.9639 8.56296 10.8649C8.50478 10.8009 8.43886 10.7283 8.4287 10.6866C8.41632 10.6356 8.41671 10.5768 8.41717 10.5087C8.41836 10.325 8.42019 10.0474 8.14425 9.78905C7.75521 9.4249 7.30155 9.53708 7.00132 9.61133C6.9091 9.63412 6.82199 9.6557 6.74478 9.66477C6.25091 9.72264 5.80998 9.53631 5.53471 9.15325C5.24674 8.75257 5.20494 8.21338 5.42565 7.74615C5.53249 7.52006 5.69389 7.33841 5.88078 7.12818C5.9216 7.08223 5.9628 7.03589 6.00401 6.98843C6.07256 6.9094 6.14801 6.80239 6.22778 6.68908C6.32301 6.5539 6.50034 6.30218 6.57733 6.2543Z" fill="#494949"/>
</g>
</g>
<g id="Group_5">
<g id="Group_6">
<path id="Vector_3" d="M14.4174 12.1039L14.2482 11.4664C14.2113 11.3272 14.0932 11.2246 13.9502 11.2075C13.807 11.1908 13.6682 11.2623 13.5995 11.3889C13.5609 11.4599 13.5262 11.5352 13.4927 11.6079C13.4363 11.7303 13.3779 11.8569 13.3172 11.9267C13.2831 11.9659 13.1955 12.0082 13.1108 12.0491C12.9084 12.1468 12.6312 12.2805 12.5253 12.6181C12.4596 12.8275 12.4841 12.9931 12.5021 13.1141C12.5176 13.219 12.5212 13.2553 12.4931 13.3213L12.4895 13.3294C12.3776 13.592 12.1695 14.0809 12.4614 14.4965C12.6697 14.793 12.8887 14.8693 13.0589 14.8693C13.0921 14.8694 13.1236 14.8665 13.1526 14.8617C13.5112 14.8031 13.7808 14.4301 14.0011 13.6878L14.4146 12.2941C14.433 12.2321 14.434 12.1663 14.4174 12.1039ZM13.3271 13.4878C13.2148 13.8662 13.1155 14.0429 13.0581 14.1213C13.0515 14.1128 13.0444 14.1033 13.0367 14.0923C12.9695 13.9966 13.0699 13.761 13.1364 13.605L13.1399 13.5967C13.2471 13.3452 13.2184 13.1521 13.1976 13.011C13.1842 12.9207 13.1794 12.8819 13.1962 12.8286C13.2099 12.7847 13.2923 12.7422 13.4164 12.6823C13.4714 12.6557 13.532 12.6265 13.5931 12.5911L13.3271 13.4878Z" fill="#494949"/>
</g>
</g>
<g id="Group_7">
<g id="Group_8">
<path id="Vector_4" d="M9.49171 4.17854L9.46798 4.17025C9.28492 4.10612 9.08418 4.20241 9.01991 4.38561C8.95565 4.56885 9.05208 4.76941 9.23528 4.83368L9.25897 4.84198C9.29747 4.85548 9.33671 4.86188 9.37534 4.86188C9.52047 4.86188 9.65631 4.77128 9.70708 4.62661C9.77134 4.44338 9.67491 4.24277 9.49171 4.17854Z" fill="#494949"/>
</g>
</g>
</g>
<defs>
<clipPath id="clip0_1111_31984">
<rect width="18" height="18" fill="white"/>
</clipPath>
</defs>
</svg>
