<svg width="176" height="24" viewBox="0 0 176 24" fill="none" xmlns="http://www.w3.org/2000/svg">
<path d="M45.368 8.2H41.88V18H39.728V8.2H36.24V6.432H45.368V8.2ZM59.4258 6.432V18H57.5298V10.528C57.5298 10.2293 57.5458 9.90667 57.5778 9.56L54.0818 16.128C53.9164 16.4427 53.6631 16.6 53.3218 16.6H53.0178C52.6764 16.6 52.4231 16.4427 52.2578 16.128L48.7218 9.536C48.7378 9.712 48.7511 9.88533 48.7618 10.056C48.7724 10.2267 48.7778 10.384 48.7778 10.528V18H46.8818V6.432H48.5058C48.6018 6.432 48.6844 6.43467 48.7538 6.44C48.8231 6.44533 48.8844 6.45867 48.9378 6.48C48.9964 6.50133 49.0471 6.536 49.0898 6.584C49.1378 6.632 49.1831 6.696 49.2258 6.776L52.6898 13.2C52.7804 13.3707 52.8631 13.5467 52.9378 13.728C53.0178 13.9093 53.0951 14.096 53.1698 14.288C53.2444 14.0907 53.3218 13.9013 53.4018 13.72C53.4818 13.5333 53.5671 13.3547 53.6578 13.184L57.0738 6.776C57.1164 6.696 57.1618 6.632 57.2098 6.584C57.2578 6.536 57.3084 6.50133 57.3618 6.48C57.4204 6.45867 57.4844 6.44533 57.5538 6.44C57.6231 6.43467 57.7058 6.432 57.8018 6.432H59.4258ZM68.1668 8.536C68.1028 8.648 68.0334 8.73067 67.9588 8.784C67.8894 8.832 67.8014 8.856 67.6948 8.856C67.5828 8.856 67.4601 8.816 67.3268 8.736C67.1988 8.65067 67.0441 8.55733 66.8628 8.456C66.6814 8.35467 66.4681 8.264 66.2228 8.184C65.9828 8.09867 65.6974 8.056 65.3668 8.056C65.0681 8.056 64.8068 8.09333 64.5828 8.168C64.3588 8.23733 64.1694 8.336 64.0148 8.464C63.8654 8.592 63.7534 8.74667 63.6788 8.928C63.6041 9.104 63.5668 9.29867 63.5668 9.512C63.5668 9.784 63.6414 10.0107 63.7908 10.192C63.9454 10.3733 64.1481 10.528 64.3988 10.656C64.6494 10.784 64.9348 10.8987 65.2548 11C65.5748 11.1013 65.9028 11.2107 66.2388 11.328C66.5748 11.44 66.9028 11.5733 67.2228 11.728C67.5428 11.8773 67.8281 12.0693 68.0788 12.304C68.3294 12.5333 68.5294 12.816 68.6788 13.152C68.8334 13.488 68.9108 13.896 68.9108 14.376C68.9108 14.8987 68.8201 15.3893 68.6388 15.848C68.4628 16.3013 68.2014 16.6987 67.8548 17.04C67.5134 17.376 67.0948 17.6427 66.5988 17.84C66.1028 18.032 65.5348 18.128 64.8948 18.128C64.5268 18.128 64.1641 18.0907 63.8068 18.016C63.4494 17.9467 63.1054 17.8453 62.7747 17.712C62.4494 17.5787 62.1428 17.4187 61.8548 17.232C61.5668 17.0453 61.3108 16.8373 61.0868 16.608L61.7188 15.576C61.7721 15.5013 61.8414 15.44 61.9268 15.392C62.0121 15.3387 62.1028 15.312 62.1988 15.312C62.3321 15.312 62.4761 15.368 62.6308 15.48C62.7854 15.5867 62.9694 15.7067 63.1828 15.84C63.3961 15.9733 63.6441 16.096 63.9268 16.208C64.2148 16.3147 64.5588 16.368 64.9588 16.368C65.5721 16.368 66.0468 16.224 66.3828 15.936C66.7188 15.6427 66.8868 15.224 66.8868 14.68C66.8868 14.376 66.8094 14.128 66.6548 13.936C66.5054 13.744 66.3054 13.584 66.0548 13.456C65.8041 13.3227 65.5188 13.2107 65.1988 13.12C64.8788 13.0293 64.5534 12.9307 64.2228 12.824C63.8921 12.7173 63.5668 12.5893 63.2468 12.44C62.9268 12.2907 62.6414 12.096 62.3908 11.856C62.1401 11.616 61.9374 11.3173 61.7828 10.96C61.6334 10.5973 61.5588 10.152 61.5588 9.624C61.5588 9.20267 61.6414 8.792 61.8068 8.392C61.9774 7.992 62.2228 7.63733 62.5428 7.328C62.8628 7.01867 63.2574 6.77067 63.7268 6.584C64.1961 6.39733 64.7348 6.304 65.3428 6.304C66.0254 6.304 66.6548 6.41067 67.2308 6.624C67.8068 6.83733 68.2974 7.136 68.7028 7.52L68.1668 8.536Z" fill="#506C84"/>
<path d="M4.02 5.97C2.75 7.65 2 9.74 2 12C2 17.52 6.48 22 12 22C17.52 22 22 17.52 22 12C22 6.48 17.52 2 12 2" stroke="#0E9594" stroke-width="1.5" stroke-linecap="round" stroke-linejoin="round"/>
<path d="M5 12C5 15.87 8.13 19 12 19C15.87 19 19 15.87 19 12C19 8.13 15.87 5 12 5" stroke="#0E9594" stroke-width="1.5" stroke-linecap="round" stroke-linejoin="round"/>
<path d="M12 16C14.21 16 16 14.21 16 12C16 9.79 14.21 8 12 8" stroke="#0E9594" stroke-width="1.5" stroke-linecap="round" stroke-linejoin="round"/>
</svg>
