<svg width="16" height="17" viewBox="0 0 16 17" fill="none" xmlns="http://www.w3.org/2000/svg">
<path d="M7.99935 9.83366C8.73573 9.83366 9.33268 9.23671 9.33268 8.50033C9.33268 7.76395 8.73573 7.16699 7.99935 7.16699C7.26297 7.16699 6.66602 7.76395 6.66602 8.50033C6.66602 9.23671 7.26297 9.83366 7.99935 9.83366Z" fill="#767676"/>
<path d="M2.66732 9.83366C3.4037 9.83366 4.00065 9.23671 4.00065 8.50033C4.00065 7.76395 3.4037 7.16699 2.66732 7.16699C1.93094 7.16699 1.33398 7.76395 1.33398 8.50033C1.33398 9.23671 1.93094 9.83366 2.66732 9.83366Z" fill="#767676"/>
<path d="M13.3333 9.83366C14.0697 9.83366 14.6667 9.23671 14.6667 8.50033C14.6667 7.76395 14.0697 7.16699 13.3333 7.16699C12.597 7.16699 12 7.76395 12 8.50033C12 9.23671 12.597 9.83366 13.3333 9.83366Z" fill="#767676"/>
</svg>
