<svg width="20" height="20" viewBox="0 0 20 20" fill="none" xmlns="http://www.w3.org/2000/svg">
<g id="ticket (4) 1" clip-path="url(#clip0_1111_36527)">
<path id="Vector" d="M17.9167 18.3327H2.08333C0.935 18.3327 0 17.3977 0 16.2494V14.5827C0 14.3527 0.186667 14.166 0.416667 14.166H0.833333C1.7525 14.166 2.5 13.4185 2.5 12.4993C2.5 11.5802 1.7525 10.8327 0.833333 10.8327H0.416667C0.186667 10.8327 0 10.646 0 10.416V8.74935C0 7.60102 0.935 6.66602 2.08333 6.66602H17.9167C19.065 6.66602 20 7.60102 20 8.74935V10.416C20 10.646 19.8133 10.8327 19.5833 10.8327H19.1667C18.2475 10.8327 17.5 11.5802 17.5 12.4993C17.5 12.9443 17.6733 13.3627 17.9883 13.6777C18.3025 13.9927 18.7208 14.166 19.1658 14.166H19.5825C19.8125 14.166 19.9992 14.3527 19.9992 14.5827V16.2494C20 17.3977 19.065 18.3327 17.9167 18.3327ZM0.833333 14.9993V16.2494C0.833333 16.9385 1.39417 17.4994 2.08333 17.4994H17.9167C18.6058 17.4994 19.1667 16.9385 19.1667 16.2494V14.9993C18.4992 14.9993 17.8708 14.7393 17.3992 14.2677C16.9267 13.7952 16.6667 13.1668 16.6667 12.4993C16.6667 11.121 17.7883 9.99935 19.1667 9.99935V8.74935C19.1667 8.06018 18.6058 7.49935 17.9167 7.49935H2.08333C1.39417 7.49935 0.833333 8.06018 0.833333 8.74935V9.99935C2.21167 9.99935 3.33333 11.121 3.33333 12.4993C3.33333 13.8777 2.21167 14.9993 0.833333 14.9993Z" fill="#222222"/>
<path id="Vector_2" d="M7.08366 8.33268C6.85366 8.33268 6.66699 8.14602 6.66699 7.91602V7.08268C6.66699 6.85268 6.85366 6.66602 7.08366 6.66602C7.31366 6.66602 7.50033 6.85268 7.50033 7.08268V7.91602C7.50033 8.14602 7.31366 8.33268 7.08366 8.33268Z" fill="#222222"/>
<path id="Vector_3" d="M7.08366 15.3836C6.85366 15.3836 6.66699 15.1969 6.66699 14.9669V13.5577C6.66699 13.3277 6.85366 13.1411 7.08366 13.1411C7.31366 13.1411 7.50033 13.3269 7.50033 13.5577V14.9677C7.50033 15.1977 7.31366 15.3836 7.08366 15.3836ZM7.08366 11.8586C6.85366 11.8586 6.66699 11.6719 6.66699 11.4419V10.0319C6.66699 9.8019 6.85366 9.61523 7.08366 9.61523C7.31366 9.61523 7.50033 9.8019 7.50033 10.0319V11.4419C7.50033 11.6719 7.31366 11.8586 7.08366 11.8586Z" fill="#222222"/>
<path id="Vector_4" d="M7.08366 18.3327C6.85366 18.3327 6.66699 18.146 6.66699 17.916V17.0827C6.66699 16.8527 6.85366 16.666 7.08366 16.666C7.31366 16.666 7.50033 16.8527 7.50033 17.0827V17.916C7.50033 18.146 7.31366 18.3327 7.08366 18.3327Z" fill="#222222"/>
<path id="Vector_5" d="M2.08365 7.49945C1.91448 7.49945 1.75532 7.39612 1.69365 7.22862C1.61282 7.01278 1.72198 6.77278 1.93782 6.69278L15.1878 1.74528C15.832 1.50362 16.5886 1.86528 16.8086 2.51445L18.3111 6.94862C18.3845 7.16695 18.2678 7.40278 18.0503 7.47695C17.8345 7.55112 17.5961 7.43362 17.522 7.21612L16.0195 2.78195C15.9461 2.56528 15.6945 2.44695 15.4786 2.52528L2.22865 7.47278C2.18115 7.49112 2.13198 7.49945 2.08365 7.49945Z" fill="#222222"/>
</g>
<defs>
<clipPath id="clip0_1111_36527">
<rect width="20" height="20" fill="white"/>
</clipPath>
</defs>
</svg>
