<svg width="24" height="24" viewBox="0 0 24 24" fill="none" xmlns="http://www.w3.org/2000/svg">
<g id="free-icon-coupon-4989332 1">
<path id="Coupon" d="M20.7097 2H3.93548C2.86817 2 2 2.86817 2 3.93548V5.22581C2 5.58215 2.2886 5.87097 2.64516 5.87097C3.71247 5.87097 4.58065 6.73914 4.58065 7.80645C4.58065 8.87376 3.71247 9.74194 2.64516 9.74194C2.2886 9.74194 2 10.0308 2 10.3871V11.6774C2 12.7447 2.86817 13.6129 3.93548 13.6129H8.82968L11.4103 16.1935L9.62946 17.9744C9.27118 16.5837 8.01699 15.5484 6.51613 15.5484C4.73742 15.5484 3.29032 16.9955 3.29032 18.7742C3.29032 20.5529 4.73742 22 6.51613 22C7.8972 22 9.06882 21.1232 9.52774 19.9006L12.3226 17.1058L15.1174 19.9006C15.5763 21.1232 16.748 22 18.129 22C19.9077 22 21.3548 20.5529 21.3548 18.7742C21.3548 16.9955 19.9077 15.5484 18.129 15.5484C16.6282 15.5484 15.374 16.5837 15.0157 17.9744L13.2348 16.1935L19.8755 9.5529C20.1275 9.30086 20.1275 8.89269 19.8755 8.64065C19.6234 8.3886 19.2153 8.3886 18.9632 8.64065L15.2813 12.3226H3.93548C3.57957 12.3226 3.29032 12.0331 3.29032 11.6774V10.9673C4.76086 10.6677 5.87097 9.3643 5.87097 7.80645C5.87097 6.2486 4.76086 4.94516 3.29032 4.64559V3.93548C3.29032 3.57978 3.57957 3.29032 3.93548 3.29032H20.7097C21.0656 3.29032 21.3548 3.57978 21.3548 3.93548V11.6774C21.3548 12.0331 21.0656 12.3226 20.7097 12.3226H19.3869L18.0966 13.6129H20.7097C21.777 13.6129 22.6452 12.7447 22.6452 11.6774V3.93548C22.6452 2.86817 21.777 2 20.7097 2ZM6.51613 20.7097C5.44882 20.7097 4.58065 19.8415 4.58065 18.7742C4.58065 17.7069 5.44882 16.8387 6.51613 16.8387C7.58344 16.8387 8.45161 17.7069 8.45161 18.7742C8.45161 19.8415 7.58344 20.7097 6.51613 20.7097ZM18.129 16.8387C19.1963 16.8387 20.0645 17.7069 20.0645 18.7742C20.0645 19.8415 19.1963 20.7097 18.129 20.7097C17.0617 20.7097 16.1935 19.8415 16.1935 18.7742C16.1935 17.7069 17.0617 16.8387 18.129 16.8387ZM12.3226 15.2813L10.6542 13.6129H13.991L12.3226 15.2813ZM12.3226 7.16129C11.966 7.16129 11.6774 6.87247 11.6774 6.51613V5.22581C11.6774 4.86946 11.966 4.58065 12.3226 4.58065C12.6791 4.58065 12.9677 4.86946 12.9677 5.22581V6.51613C12.9677 6.87247 12.6791 7.16129 12.3226 7.16129ZM12.3226 11.0323C11.966 11.0323 11.6774 10.7434 11.6774 10.3871V9.09677C11.6774 8.74043 11.966 8.45161 12.3226 8.45161C12.6791 8.45161 12.9677 8.74043 12.9677 9.09677V10.3871C12.9677 10.7434 12.6791 11.0323 12.3226 11.0323Z" fill="#494949"/>
</g>
</svg>
