<svg width="20" height="20" viewBox="0 0 20 20" fill="none" xmlns="http://www.w3.org/2000/svg">
<g id="ticket (4) 1" clip-path="url(#clip0_1111_33888)">
<path id="Vector" d="M17.9167 18.3337H2.08333C0.935 18.3337 0 17.3987 0 16.2503V14.5837C0 14.3537 0.186667 14.167 0.416667 14.167H0.833333C1.7525 14.167 2.5 13.4195 2.5 12.5003C2.5 11.5812 1.7525 10.8337 0.833333 10.8337H0.416667C0.186667 10.8337 0 10.647 0 10.417V8.75033C0 7.60199 0.935 6.66699 2.08333 6.66699H17.9167C19.065 6.66699 20 7.60199 20 8.75033V10.417C20 10.647 19.8133 10.8337 19.5833 10.8337H19.1667C18.2475 10.8337 17.5 11.5812 17.5 12.5003C17.5 12.9453 17.6733 13.3637 17.9883 13.6787C18.3025 13.9937 18.7208 14.167 19.1658 14.167H19.5825C19.8125 14.167 19.9992 14.3537 19.9992 14.5837V16.2503C20 17.3987 19.065 18.3337 17.9167 18.3337ZM0.833333 15.0003V16.2503C0.833333 16.9395 1.39417 17.5003 2.08333 17.5003H17.9167C18.6058 17.5003 19.1667 16.9395 19.1667 16.2503V15.0003C18.4992 15.0003 17.8708 14.7403 17.3992 14.2687C16.9267 13.7962 16.6667 13.1678 16.6667 12.5003C16.6667 11.122 17.7883 10.0003 19.1667 10.0003V8.75033C19.1667 8.06116 18.6058 7.50033 17.9167 7.50033H2.08333C1.39417 7.50033 0.833333 8.06116 0.833333 8.75033V10.0003C2.21167 10.0003 3.33333 11.122 3.33333 12.5003C3.33333 13.8787 2.21167 15.0003 0.833333 15.0003Z" fill="#49B776"/>
<path id="Vector_2" d="M7.08366 8.33366C6.85366 8.33366 6.66699 8.14699 6.66699 7.91699V7.08366C6.66699 6.85366 6.85366 6.66699 7.08366 6.66699C7.31366 6.66699 7.50033 6.85366 7.50033 7.08366V7.91699C7.50033 8.14699 7.31366 8.33366 7.08366 8.33366Z" fill="#49B776"/>
<path id="Vector_3" d="M7.08366 15.3845C6.85366 15.3845 6.66699 15.1979 6.66699 14.9679V13.5587C6.66699 13.3287 6.85366 13.142 7.08366 13.142C7.31366 13.142 7.50033 13.3279 7.50033 13.5587V14.9687C7.50033 15.1987 7.31366 15.3845 7.08366 15.3845ZM7.08366 11.8595C6.85366 11.8595 6.66699 11.6729 6.66699 11.4429V10.0329C6.66699 9.80288 6.85366 9.61621 7.08366 9.61621C7.31366 9.61621 7.50033 9.80288 7.50033 10.0329V11.4429C7.50033 11.6729 7.31366 11.8595 7.08366 11.8595Z" fill="#49B776"/>
<path id="Vector_4" d="M7.08366 18.3337C6.85366 18.3337 6.66699 18.147 6.66699 17.917V17.0837C6.66699 16.8537 6.85366 16.667 7.08366 16.667C7.31366 16.667 7.50033 16.8537 7.50033 17.0837V17.917C7.50033 18.147 7.31366 18.3337 7.08366 18.3337Z" fill="#49B776"/>
<path id="Vector_5" d="M2.08365 7.50043C1.91448 7.50043 1.75532 7.39709 1.69365 7.22959C1.61282 7.01376 1.72198 6.77376 1.93782 6.69376L15.1878 1.74626C15.832 1.50459 16.5886 1.86626 16.8086 2.51543L18.3111 6.94959C18.3845 7.16793 18.2678 7.40376 18.0503 7.47793C17.8345 7.55209 17.5961 7.43459 17.522 7.21709L16.0195 2.78293C15.9461 2.56626 15.6945 2.44793 15.4786 2.52626L2.22865 7.47376C2.18115 7.49209 2.13198 7.50043 2.08365 7.50043Z" fill="#49B776"/>
</g>
<defs>
<clipPath id="clip0_1111_33888">
<rect width="20" height="20" fill="white"/>
</clipPath>
</defs>
</svg>
