<svg width="20" height="21" viewBox="0 0 20 21" fill="none" xmlns="http://www.w3.org/2000/svg">
<g id="Delete">
<g id="Delete_2">
<path id="Stroke 1" d="M16.1042 8.39062C16.1042 8.39062 15.6517 14.0031 15.3892 16.3673C15.2642 17.4965 14.5667 18.1581 13.4242 18.179C11.25 18.2181 9.07332 18.2206 6.89999 18.1748C5.80082 18.1523 5.11499 17.4823 4.99249 16.3731C4.72832 13.9881 4.27832 8.39062 4.27832 8.39062" stroke="#F07379" stroke-width="1.5" stroke-linecap="round" stroke-linejoin="round"/>
<path id="Stroke 3" d="M17.2567 5.69987H3.125" stroke="#F07379" stroke-width="1.5" stroke-linecap="round" stroke-linejoin="round"/>
<path id="Stroke 5" d="M14.5335 5.69998C13.8793 5.69998 13.316 5.23748 13.1877 4.59665L12.9852 3.58331C12.8602 3.11581 12.4368 2.79248 11.9543 2.79248H8.42682C7.94432 2.79248 7.52099 3.11581 7.39599 3.58331L7.19349 4.59665C7.06516 5.23748 6.50182 5.69998 5.84766 5.69998" stroke="#F07379" stroke-width="1.5" stroke-linecap="round" stroke-linejoin="round"/>
</g>
</g>
</svg>
