<svg width="16" height="17" viewBox="0 0 16 17" fill="none" xmlns="http://www.w3.org/2000/svg">
<g id="Delete">
<g id="Delete_2">
<path id="Stroke 1" d="M12.8835 6.8125C12.8835 6.8125 12.5215 11.3025 12.3115 13.1938C12.2115 14.0972 11.6535 14.6265 10.7395 14.6432C9.00019 14.6745 7.25885 14.6765 5.52018 14.6398C4.64085 14.6218 4.09218 14.0858 3.99418 13.1985C3.78285 11.2905 3.42285 6.8125 3.42285 6.8125" stroke="#222222" stroke-opacity="0.8" stroke-width="1.5" stroke-linecap="round" stroke-linejoin="round"/>
<path id="Stroke 3" d="M13.8053 4.65951H2.5" stroke="#222222" stroke-opacity="0.8" stroke-width="1.5" stroke-linecap="round" stroke-linejoin="round"/>
<path id="Stroke 5" d="M11.6274 4.65998C11.104 4.65998 10.6534 4.28998 10.5507 3.77732L10.3887 2.96665C10.2887 2.59265 9.95004 2.33398 9.56404 2.33398H6.74204C6.35604 2.33398 6.01738 2.59265 5.91738 2.96665L5.75538 3.77732C5.65271 4.28998 5.20204 4.65998 4.67871 4.65998" stroke="#222222" stroke-opacity="0.8" stroke-width="1.5" stroke-linecap="round" stroke-linejoin="round"/>
</g>
</g>
</svg>
