<svg width="24" height="24" viewBox="0 0 24 24" fill="none" xmlns="http://www.w3.org/2000/svg">
<path fill-rule="evenodd" clip-rule="evenodd" d="M11.5333 3.3776C9.69479 3.3776 8.21539 4.89582 8.21539 6.7665C8.21539 8.5877 9.60826 10.0654 11.3669 10.1452C11.4735 10.1376 11.5862 10.1372 11.6925 10.1451C13.4493 10.0645 14.843 8.58776 14.8512 6.7651C14.8505 4.89607 13.3634 3.3776 11.5333 3.3776ZM6.86664 6.7665C6.86664 4.13701 8.94792 2 11.5333 2C14.1087 2 16.2 4.136 16.2 6.7665L16.2 6.76937C16.1895 9.34125 14.2047 11.4374 11.6998 11.5234C11.6699 11.5244 11.6399 11.5234 11.6101 11.5204C11.5667 11.516 11.5019 11.5154 11.4415 11.521C11.4137 11.5236 11.3857 11.5244 11.3578 11.5234C8.85343 11.4374 6.86664 9.34112 6.86664 6.7665Z" fill="#ABBDCF"/>
<path fill-rule="evenodd" clip-rule="evenodd" d="M12.0069 12.4761C13.7899 12.4761 15.6082 12.9314 17.0133 13.8862C18.2764 14.7416 19 15.9406 19 17.2309C19 18.5211 18.2765 19.7223 17.0139 20.5822L17.0138 20.5823C15.6044 21.5419 13.7838 21.9999 12 21.9999C10.2165 21.9999 8.39635 21.542 6.98702 20.5829C5.72377 19.7275 5 18.5284 5 17.238C5 15.9478 5.72353 14.7466 6.98606 13.8867L6.98861 13.8849L6.98861 13.8849C8.40196 12.9315 10.2237 12.4761 12.0069 12.4761ZM7.75639 15.0603C6.78207 15.7244 6.38705 16.5268 6.38705 17.238C6.38705 17.949 6.78191 18.749 7.75601 19.4084L7.75753 19.4094C8.89102 20.181 10.4272 20.5886 12 20.5886C13.5728 20.5886 15.1089 20.1811 16.2423 19.4095C17.2176 18.7452 17.6129 17.9424 17.6129 17.2309C17.6129 16.5199 17.2181 15.7199 16.244 15.0605L16.243 15.0598C15.1144 14.2929 13.5806 13.8874 12.0069 13.8874C10.4341 13.8874 8.89509 14.2926 7.75639 15.0603Z" fill="#ABBDCF"/>
</svg>
