<svg width="20" height="27" viewBox="0 0 20 27" fill="none" xmlns="http://www.w3.org/2000/svg">
<path d="M7.3741 16.7979C7.97171 16.6425 8.38131 16.1027 8.41875 15.4207C8.4566 14.726 8.07751 14.1079 7.48683 13.8872L6.3064 13.4062C2.01986 11.6382 2.00201 11.6382 1.7208 11.6347C1.2577 11.6108 0.828516 11.8532 0.554296 12.2837C0.553888 12.2845 0.553429 12.2854 0.55297 12.2863C0.0263092 13.1263 -0.079023 15.3932 0.0497729 16.6425C0.109861 17.1887 0.207796 17.584 0.347049 17.8469C0.580769 18.2939 0.999088 18.5699 1.4574 18.5851C1.48744 18.5868 1.51442 18.5886 1.54273 18.5886C1.79084 18.5886 2.1608 18.4715 5.70781 17.3311C6.90702 16.9485 7.25959 16.8357 7.3741 16.7979Z" fill="white"/>
<path d="M9.43847 17.6568C8.79383 17.4078 8.09002 17.5741 7.69389 18.0646C7.69343 18.0646 6.95305 18.9456 6.87776 19.0323C6.87429 19.0362 6.87077 19.0401 6.8673 19.0445C3.86786 22.5645 3.86001 22.5875 3.766 22.8587C3.69765 23.0424 3.67373 23.2383 3.69505 23.4142C3.7203 23.6788 3.83042 23.9308 4.02456 24.1659C4.72057 24.9973 7.62773 26.1089 8.97226 26.1089C9.07759 26.1089 9.17333 26.102 9.2578 26.0876C9.75881 25.9949 10.1388 25.6911 10.2999 25.2541C10.3003 25.2515 10.3012 25.2493 10.302 25.2471C10.3943 24.9838 10.3995 24.9677 10.4104 20.8252C10.4104 20.8252 10.4196 19.172 10.4218 19.0828C10.4597 18.4616 10.0735 17.9014 9.43847 17.6568Z" fill="white"/>
<path d="M19.5122 18.3489C19.2876 18.1808 19.2789 18.1748 15.3402 16.882C15.3402 16.882 13.8345 16.3845 13.6909 16.3331C13.6896 16.3327 13.6887 16.3322 13.6874 16.3318C13.1081 16.1067 12.4569 16.3039 12.0299 16.8306C11.5907 17.3664 11.5346 18.0907 11.8832 18.6222L12.5479 19.7047C14.9701 23.6391 14.9985 23.6617 15.2196 23.8341C15.445 24.0104 15.7127 24.1 15.9939 24.1C16.1741 24.1 16.3596 24.0635 16.5437 23.9886C17.6336 23.5537 19.8195 20.7741 19.9854 19.6115C20.0576 19.1071 19.8892 18.6496 19.5122 18.3489Z" fill="white"/>
<path d="M13.0716 14.9997C13.1008 15.0062 13.1308 15.0088 13.1608 15.0088C13.2126 15.0088 13.2648 14.9997 13.3153 14.9805C13.506 14.9082 13.9043 14.8111 14.5376 14.661C14.538 14.661 14.5385 14.661 14.5393 14.6606C19.0196 13.5754 19.05 13.5558 19.2951 13.397C19.676 13.1401 19.8788 12.7066 19.854 12.2074C19.8544 12.1817 19.8531 12.1495 19.8514 12.1307C19.7247 10.9255 17.7834 8.06141 16.7475 7.55474C16.287 7.33495 15.7982 7.35887 15.4129 7.61784C15.1762 7.77148 15.1762 7.77148 12.7208 11.1296C12.7208 11.1296 11.7323 12.4741 11.6853 12.5368C11.2913 13.0174 11.2761 13.6955 11.6465 14.2648C11.9799 14.7746 12.5306 15.0536 13.0716 14.9997Z" fill="white"/>
<path d="M9.91383 0.989222C9.78499 0.519589 9.41895 0.176558 8.90836 0.0477113C7.67044 -0.256961 3.32515 0.962238 2.44633 1.86712C2.09768 2.23143 1.95925 2.70851 2.0755 3.14203C2.08248 3.16814 2.09202 3.19293 2.10335 3.21731C2.22566 3.47154 6.20752 9.73938 7.42193 11.6485C7.93119 12.4755 8.49009 12.8908 9.08337 12.8908C9.22441 12.8908 9.36672 12.8673 9.51082 12.8207C10.273 12.5908 10.6303 11.8718 10.5725 10.6835C10.5075 9.18666 9.99611 1.44886 9.91383 0.989222Z" fill="white"/>
</svg>
