<svg width="21" height="20" viewBox="0 0 21 20" fill="none" xmlns="http://www.w3.org/2000/svg">
<g id="Icon" clip-path="url(#clip0_1111_35041)">
<g id="Group 993">
<g id="Group 992">
<path id="Path 3552" d="M3.39998 4.80015H5.29996V7.65013H14.7999V4.80015H16.6998V9.55011H18.5998V4.80015C18.5983 4.29671 18.3977 3.81432 18.0417 3.45833C17.6857 3.10234 17.2033 2.90168 16.6998 2.90017H12.7289C12.5344 2.34485 12.1721 1.86369 11.6921 1.52327C11.2122 1.18286 10.6383 1 10.0499 1C9.4615 1 8.88763 1.18286 8.40769 1.52327C7.92775 1.86369 7.56546 2.34485 7.37094 2.90017H3.39998C2.89654 2.90168 2.41414 3.10234 2.05815 3.45833C1.70216 3.81432 1.5015 4.29671 1.5 4.80015V18.1C1.5015 18.6035 1.70216 19.0859 2.05815 19.4418C2.41414 19.7978 2.89654 19.9985 3.39998 20H9.09992V18.1H3.39998V4.80015ZM10.0499 2.90017C10.2378 2.90017 10.4215 2.95589 10.5777 3.06028C10.7339 3.16466 10.8557 3.31303 10.9276 3.48662C10.9995 3.66021 11.0183 3.85122 10.9817 4.0355C10.945 4.21978 10.8545 4.38905 10.7217 4.52191C10.5888 4.65477 10.4195 4.74524 10.2352 4.7819C10.051 4.81856 9.85996 4.79974 9.68637 4.72784C9.51278 4.65594 9.36441 4.53417 9.26003 4.37795C9.15564 4.22172 9.09992 4.03805 9.09992 3.85016C9.09992 3.59821 9.20001 3.35658 9.37817 3.17842C9.55633 3.00026 9.79796 2.90017 10.0499 2.90017Z" fill="#494949"/>
<path id="Path 3553" d="M18.5966 10.9746L13.3811 16.1996L10.5217 13.3496L9.09668 14.7746L13.3811 19.0495L20.0216 12.3996L18.5966 10.9746Z" fill="#494949"/>
</g>
</g>
</g>
<defs>
<clipPath id="clip0_1111_35041">
<rect width="20" height="20" fill="white" transform="translate(0.5)"/>
</clipPath>
</defs>
</svg>
