<svg width="20" height="20" viewBox="0 0 20 20" fill="none" xmlns="http://www.w3.org/2000/svg">
<g id="Icon">
<g id="Layer 2">
<path id="Vector" d="M10.4986 13.0948C10.8483 13.0948 11.1319 12.8112 11.1319 12.4615C11.1319 12.1117 10.8483 11.8281 10.4986 11.8281C10.1488 11.8281 9.86523 12.1117 9.86523 12.4615C9.86523 12.8112 10.1488 13.0948 10.4986 13.0948Z" fill="#494949"/>
<path id="Vector_2" d="M10.4986 10.6368C10.8483 10.6368 11.1319 10.3532 11.1319 10.0034C11.1319 9.65367 10.8483 9.37012 10.4986 9.37012C10.1488 9.37012 9.86523 9.65367 9.86523 10.0034C9.86523 10.3532 10.1488 10.6368 10.4986 10.6368Z" fill="#494949"/>
<path id="Vector_3" d="M10.4986 8.10553C10.8483 8.10553 11.1319 7.82198 11.1319 7.4722C11.1319 7.12242 10.8483 6.83887 10.4986 6.83887C10.1488 6.83887 9.86523 7.12242 9.86523 7.4722C9.86523 7.82198 10.1488 8.10553 10.4986 8.10553Z" fill="#494949"/>
<path id="Vector_4" d="M18.4547 16.9333H2.54533C2.13549 16.9333 1.74242 16.7705 1.45262 16.4807C1.16281 16.1909 1 15.7978 1 15.388V12.9433C1.00284 12.6828 1.09792 12.4316 1.26836 12.2345C1.4388 12.0374 1.67357 11.9071 1.931 11.8667C2.38175 11.7952 2.79171 11.5639 3.08593 11.215C3.38015 10.8661 3.53896 10.423 3.53333 9.96667C3.53874 9.50939 3.37903 9.06551 3.08353 8.71649C2.78803 8.36748 2.37657 8.13676 1.92467 8.06667C1.66786 8.02609 1.43384 7.89552 1.26445 7.69828C1.09506 7.50104 1.00132 7.24999 1 6.99V4.54533C1 4.13549 1.16281 3.74242 1.45262 3.45262C1.74242 3.16281 2.13549 3 2.54533 3H18.4547C18.8645 3 19.2576 3.16281 19.5474 3.45262C19.8372 3.74242 20 4.13549 20 4.54533V6.99C19.9984 7.25092 19.9038 7.50273 19.7331 7.7001C19.5625 7.89747 19.327 8.02746 19.069 8.06667C18.6183 8.13813 18.2083 8.36945 17.9141 8.71833C17.6199 9.0672 17.461 9.51032 17.4667 9.96667C17.4613 10.4239 17.621 10.8678 17.9165 11.2168C18.212 11.5659 18.6234 11.7966 19.0753 11.8667C19.3316 11.9084 19.5649 12.0394 19.7341 12.2363C19.9032 12.4333 19.9974 12.6837 20 12.9433V15.388C20 15.7978 19.8372 16.1909 19.5474 16.4807C19.2576 16.7705 18.8645 16.9333 18.4547 16.9333ZM2.26667 13.0827V15.3943C2.26667 15.4682 2.29603 15.5391 2.34829 15.5914C2.40055 15.6436 2.47143 15.673 2.54533 15.673H18.4547C18.5286 15.673 18.5995 15.6436 18.6517 15.5914C18.704 15.5391 18.7333 15.4682 18.7333 15.3943V13.0827C18.0069 12.947 17.3508 12.5615 16.8787 11.993C16.4065 11.4245 16.1481 10.7088 16.1481 9.96983C16.1481 9.23085 16.4065 8.51513 16.8787 7.94664C17.3508 7.37815 18.0069 6.99268 18.7333 6.857V4.54533C18.7333 4.47143 18.704 4.40055 18.6517 4.34829C18.5995 4.29603 18.5286 4.26667 18.4547 4.26667H2.54533C2.47143 4.26667 2.40055 4.29603 2.34829 4.34829C2.29603 4.40055 2.26667 4.47143 2.26667 4.54533V6.857C2.99309 6.99268 3.64918 7.37815 4.12133 7.94664C4.59347 8.51513 4.85192 9.23085 4.85192 9.96983C4.85192 10.7088 4.59347 11.4245 4.12133 11.993C3.64918 12.5615 2.99309 12.947 2.26667 13.0827Z" fill="#494949"/>
</g>
</g>
</svg>
