<svg width="20" height="20" viewBox="0 0 20 20" fill="none" xmlns="http://www.w3.org/2000/svg">
<g id="phone-call (1) 1">
<g id="Layer 3">
<path id="Vector" d="M19.3567 14.396C19.3213 14.3667 15.324 11.5187 14.2447 11.6967C13.724 11.7887 13.4267 12.144 12.83 12.8547C12.734 12.9693 12.5027 13.2433 12.324 13.4387C11.9469 13.3158 11.5791 13.1661 11.2233 12.9907C9.38701 12.0967 7.90333 10.613 7.00933 8.77667C6.83391 8.42095 6.68419 8.05312 6.56133 7.676C6.75733 7.49667 7.032 7.26533 7.14933 7.16667C7.85667 6.57333 8.21133 6.27533 8.30333 5.754C8.492 4.67467 5.63333 0.678667 5.604 0.642667C5.47382 0.458038 5.30426 0.304616 5.10758 0.193478C4.9109 0.0823395 4.69199 0.0162567 4.46667 0C3.308 0 0 4.29067 0 5.014C0 5.056 0.0606667 9.32533 5.32533 14.6807C10.6747 19.9393 14.944 20 14.986 20C15.7087 20 20 16.692 20 15.5333C19.9836 15.308 19.9173 15.0891 19.8061 14.8924C19.6949 14.6957 19.5414 14.5262 19.3567 14.396ZM14.912 18.6627C14.3333 18.6133 10.7467 18.1407 6.26667 13.74C1.84467 9.238 1.384 5.64533 1.338 5.08867C2.21185 3.7171 3.26719 2.47001 4.47533 1.38133C4.502 1.408 4.53733 1.448 4.58267 1.5C5.50922 2.76482 6.30738 4.11885 6.96533 5.542C6.75137 5.75725 6.52522 5.96003 6.288 6.14933C5.92013 6.42963 5.58232 6.74733 5.28 7.09733C5.22885 7.16911 5.19243 7.25031 5.17286 7.33625C5.1533 7.42219 5.15096 7.51115 5.166 7.598C5.30709 8.20915 5.52317 8.80052 5.80933 9.35867C6.83459 11.464 8.53584 13.165 10.6413 14.19C11.1994 14.4766 11.7908 14.6929 12.402 14.834C12.4888 14.849 12.5778 14.8467 12.6638 14.8271C12.7497 14.8076 12.8309 14.7712 12.9027 14.72C13.2539 14.4164 13.5727 14.0773 13.854 13.708C14.0633 13.4587 14.3427 13.126 14.4487 13.032C15.8754 13.6893 17.2325 14.4884 18.4993 15.4173C18.5547 15.464 18.594 15.5 18.62 15.5233C17.5313 16.7319 16.2839 17.7874 14.912 18.6613V18.6627Z" fill="#494949"/>
<path id="Vector_2" d="M10.6667 5.33333C11.7272 5.33439 12.744 5.75616 13.4939 6.50608C14.2438 7.25599 14.6656 8.27279 14.6667 9.33333C14.6667 9.51014 14.7369 9.67971 14.8619 9.80474C14.987 9.92976 15.1565 10 15.3333 10C15.5101 10 15.6797 9.92976 15.8047 9.80474C15.9298 9.67971 16 9.51014 16 9.33333C15.9984 7.91933 15.436 6.5637 14.4361 5.56385C13.4363 4.564 12.0807 4.00159 10.6667 4C10.4899 4 10.3203 4.07024 10.1953 4.19526C10.0702 4.32029 10 4.48986 10 4.66667C10 4.84348 10.0702 5.01305 10.1953 5.13807C10.3203 5.2631 10.4899 5.33333 10.6667 5.33333Z" fill="#494949"/>
<path id="Vector_3" d="M10.6667 2.00033C12.6109 2.00262 14.4748 2.77597 15.8496 4.15074C17.2244 5.52551 17.9977 7.38944 18 9.33366C18 9.51047 18.0702 9.68004 18.1953 9.80506C18.3203 9.93009 18.4899 10.0003 18.6667 10.0003C18.8435 10.0003 19.013 9.93009 19.1381 9.80506C19.2631 9.68004 19.3333 9.51047 19.3333 9.33366C19.3307 7.03593 18.4167 4.83306 16.792 3.20832C15.1673 1.58358 12.9644 0.669639 10.6667 0.666992C10.4899 0.666992 10.3203 0.73723 10.1953 0.862254C10.0702 0.987279 10 1.15685 10 1.33366C10 1.51047 10.0702 1.68004 10.1953 1.80506C10.3203 1.93009 10.4899 2.00033 10.6667 2.00033Z" fill="#494949"/>
</g>
</g>
</svg>
