<svg width="19" height="19" viewBox="0 0 19 19" fill="none" xmlns="http://www.w3.org/2000/svg">
<g id="heart (1) 1" clip-path="url(#clip0_1111_35022)">
<g id="Group">
<g id="Group_2">
<path id="Vector" d="M14.9242 1.07576C14.3069 0.38204 13.4513 0 12.5149 0C11.4697 0 10.5636 0.494222 9.89473 1.42919C9.84456 1.49929 9.79765 1.56939 9.75368 1.63878C9.70974 1.56935 9.66284 1.49929 9.61266 1.42919C8.94373 0.494222 8.03771 0 6.99249 0C6.05607 0 5.20041 0.38204 4.58317 1.07572C3.99743 1.73404 3.6748 2.61413 3.6748 3.55385C3.6748 4.57506 4.07109 5.51737 4.92183 6.51947C5.66412 7.39377 6.72886 8.29245 7.96178 9.33306C8.41737 9.71763 8.88851 10.1153 9.38916 10.5492C9.49373 10.6398 9.62369 10.6851 9.75364 10.6851C9.88356 10.6851 10.0135 10.6398 10.1181 10.5492C10.6187 10.1154 11.0898 9.71774 11.5454 9.33325C12.3372 8.66491 13.021 8.08775 13.6144 7.52792C14.7665 6.44091 15.8326 5.20714 15.8326 3.55388C15.8326 2.61413 15.51 1.73408 14.9242 1.07576ZM12.8506 6.71831C12.2796 7.25702 11.6067 7.82498 10.8275 8.48263C10.4808 8.77516 10.1253 9.07523 9.75368 9.39392C9.38196 9.07527 9.02634 8.77513 8.6797 8.48252C6.25279 6.43412 4.78786 5.19771 4.78786 3.55388C4.78779 2.1624 5.73556 1.11309 6.99245 1.11309C7.66394 1.11309 8.23502 1.42919 8.68979 2.05259C9.06304 2.56418 9.21626 3.09454 9.2173 3.09811C9.2841 3.33921 9.50349 3.50612 9.75364 3.50612C10.0038 3.50612 10.2232 3.33921 10.29 3.09811C10.2955 3.07825 10.8589 1.11309 12.5149 1.11309C13.7717 1.11309 14.7195 2.16243 14.7195 3.55388C14.7195 4.56211 14.1955 5.44932 12.8506 6.71831Z" fill="#494949"/>
</g>
</g>
<g id="Group_3">
<g id="Group_4">
<path id="Vector_2" d="M17.3282 11.209C16.8665 11.209 16.4211 11.4028 16.1064 11.7407L14.4707 13.4966C14.2593 12.817 13.6244 12.322 12.8761 12.322H10.3051C9.9452 12.322 9.59812 12.1911 9.32789 11.9533C7.87458 10.6743 5.6901 10.6631 4.22299 11.9179C3.92044 11.4896 3.42191 11.209 2.85874 11.209H0.558481C0.251142 11.209 0.00195312 11.4582 0.00195312 11.7655V18.4437C0.00195312 18.7511 0.251105 19.0003 0.558481 19.0003H2.85874C3.35853 19.0003 3.8074 18.7792 4.11363 18.4301L4.44319 18.5227C5.5705 18.8396 6.73581 19.0002 7.90679 19.0002H12.876C14.0957 19.0002 15.2607 18.4177 15.9925 17.442L18.6643 13.8796C18.6644 13.8795 18.6644 13.8794 18.6645 13.8794C18.8825 13.5886 18.9977 13.2426 18.9977 12.8785C18.9977 11.9579 18.2487 11.209 17.3282 11.209ZM3.41527 17.3306C3.41527 17.6375 3.16563 17.8872 2.85874 17.8872H1.11497V12.322H2.85874C3.1656 12.322 3.41527 12.5716 3.41527 12.8785V17.3306ZM17.774 13.2116L17.7739 13.2117L15.1021 16.7742C14.5794 17.4711 13.7472 17.8872 12.876 17.8872H7.9069C6.83775 17.8872 5.77375 17.7405 4.74449 17.4512L4.52684 17.39C4.52754 17.3703 4.52836 17.3506 4.52836 17.3307V13.1301L4.91619 12.7888C5.96416 11.8666 7.54468 11.8665 8.59272 12.7888C9.06627 13.2055 9.67438 13.435 10.3052 13.435H12.8761C13.183 13.435 13.4327 13.6846 13.4327 13.9915C13.4327 14.2984 13.183 14.548 12.8761 14.548H8.92084C8.6135 14.548 8.36431 14.7972 8.36431 15.1046C8.36431 15.4119 8.61346 15.6611 8.92084 15.6611H13.249C13.7107 15.6611 14.156 15.4673 14.4707 15.1295L16.9208 12.4993C17.0273 12.385 17.172 12.322 17.3282 12.322C17.635 12.322 17.8847 12.5716 17.8847 12.8785C17.8847 12.9999 17.8464 13.1151 17.774 13.2116Z" fill="#494949"/>
</g>
</g>
</g>
<defs>
<clipPath id="clip0_1111_35022">
<rect width="19" height="19" fill="white"/>
</clipPath>
</defs>
</svg>
