<svg id="Donate_Icon" data-name="Donate Icon" xmlns="http://www.w3.org/2000/svg" width="24" height="24" viewBox="0 0 24 24">
  <g id="Group_986" data-name="Group 986">
    <rect id="Rectangle_1458" data-name="Rectangle 1458" width="24" height="24" fill="none"/>
  </g>
  <g id="Group_990" data-name="Group 990">
    <g id="Group_989" data-name="Group 989">
      <g id="Group_988" data-name="Group 988">
        <g id="Group_987" data-name="Group 987">
          <path id="Path_3548" data-name="Path 3548" d="M16,13c3.09-2.81,6-5.44,6-7.7A3.265,3.265,0,0,0,18.7,2,3.617,3.617,0,0,0,16,3.25,3.633,3.633,0,0,0,13.3,2,3.265,3.265,0,0,0,10,5.3C10,7.56,12.91,10.19,16,13ZM13.3,4a1.59,1.59,0,0,1,1.18.55L16,6.34l1.52-1.79A1.59,1.59,0,0,1,18.7,4,1.273,1.273,0,0,1,20,5.3c0,1.12-2.04,3.17-4,4.99-1.96-1.82-4-3.88-4-4.99A1.273,1.273,0,0,1,13.3,4Z" fill="#fff"/>
          <path id="Path_3549" data-name="Path 3549" d="M19,16H17a2.89,2.89,0,0,0-1.87-2.7L8.97,11H1V22H7V20.56l7,1.94L22,20V19A3,3,0,0,0,19,16ZM3,20V13H5v7Zm10.97.41L7,18.48V13H8.61l5.82,2.17A.89.89,0,0,1,15,16a22.023,22.023,0,0,1-2.3-.15l-2.38-.79-.63,1.9,2.38.79a4.984,4.984,0,0,0,1.58.26H19a1.008,1.008,0,0,1,.9.56Z" fill="#fff"/>
        </g>
      </g>
    </g>
  </g>
</svg>
