<svg width="18" height="18" viewBox="0 0 18 18" fill="none" xmlns="http://www.w3.org/2000/svg">
<g id="user (18) 1" clip-path="url(#clip0_1111_35012)">
<g id="Group">
<path id="Vector" d="M6.3 9.44922C2.79 9.44922 0 12.2392 0 15.7492V16.6492H12.6V15.7492C12.6 12.2392 9.81 9.44922 6.3 9.44922ZM1.89 14.8492C2.34 12.7792 4.14 11.2492 6.3 11.2492C8.46 11.2492 10.26 12.7792 10.71 14.8492H1.89Z" fill="#494949"/>
<path id="Vector_2" d="M6.3002 8.54961C8.2802 8.54961 9.9002 6.92961 9.9002 4.94961C9.9002 2.96961 8.2802 1.34961 6.3002 1.34961C4.3202 1.34961 2.7002 2.96961 2.7002 4.94961C2.7002 6.92961 4.3202 8.54961 6.3002 8.54961ZM6.3002 3.14961C7.2902 3.14961 8.1002 3.95961 8.1002 4.94961C8.1002 5.93961 7.2902 6.74961 6.3002 6.74961C5.3102 6.74961 4.5002 5.93961 4.5002 4.94961C4.5002 3.95961 5.3102 3.14961 6.3002 3.14961Z" fill="#494949"/>
<path id="Vector_3" d="M16.7403 5.39941L13.7703 8.36941L12.3303 7.01941L11.0703 8.27941L13.7703 10.9794L18.0003 6.65941L16.7403 5.39941Z" fill="#494949"/>
</g>
</g>
<defs>
<clipPath id="clip0_1111_35012">
<rect width="18" height="18" fill="white"/>
</clipPath>
</defs>
</svg>
