<svg xmlns="http://www.w3.org/2000/svg" xmlns:xlink="http://www.w3.org/1999/xlink" width="1210" height="800" viewBox="0 0 1210 800"><defs><style>.a{fill:#fff;}.b{clip-path:url(#a);}.c{opacity:0.8;}.d{fill:#f3f3f3;opacity:0.52;}.aj,.dr,.e,.ed,.ee,.ez,.f,.fa,.fe,.ff,.fg,.fh,.fi,.fl,.fm,.fs,.g{fill:#387dff;}.e,.fw{opacity:0.1;}.f{opacity:0.4;}.g{opacity:0.15;}.h{fill:url(#b);}.i{fill:url(#c);}.j{fill:url(#d);}.k{fill:url(#e);}.l{fill:url(#f);}.m{fill:url(#g);}.n{fill:url(#h);}.o{fill:url(#i);}.p{fill:url(#j);}.q{fill:url(#k);}.r{fill:url(#l);}.s{fill:url(#m);}.t{fill:url(#n);}.u{fill:url(#o);}.v{fill:url(#p);}.w{fill:url(#q);}.x{fill:url(#r);}.y{fill:url(#s);}.z{fill:url(#t);}.aa{fill:url(#u);}.ab{fill:url(#v);}.ac{fill:url(#w);}.ad{fill:url(#x);}.ae{fill:url(#y);}.af{fill:url(#z);}.ag{fill:url(#aa);}.ah{fill:url(#ab);}.ai{fill:url(#ac);}.aj{opacity:0.19;}.ak{fill:url(#ad);}.al{fill:url(#ae);}.am{fill:url(#af);}.an{fill:url(#ag);}.ao{fill:url(#ah);}.ap{fill:url(#ai);}.aq{fill:url(#aj);}.ar{fill:url(#ak);}.as{fill:url(#al);}.at{fill:url(#am);}.au{fill:url(#an);}.av{fill:url(#ao);}.aw{fill:url(#ap);}.ax{fill:url(#aq);}.ay{fill:url(#ar);}.az{fill:url(#as);}.ba{fill:url(#at);}.bb{fill:url(#au);}.bc{fill:url(#av);}.bd{fill:url(#aw);}.be{fill:url(#ax);}.bf{fill:url(#ay);}.bg{fill:url(#az);}.bh{fill:url(#ba);}.bi{fill:url(#bb);}.bj{fill:url(#bc);}.bk{fill:url(#bd);}.bl{fill:url(#be);}.bm{fill:rgba(56,125,255,0.41);}.bn{fill:url(#bf);}.bo{fill:url(#bg);}.bp{fill:url(#bh);}.bq{fill:url(#bi);}.br{fill:url(#bj);}.bs{fill:url(#bk);}.bt{fill:url(#bl);}.bu{fill:url(#bm);}.bv{fill:url(#bn);}.bw{fill:url(#bo);}.bx{fill:url(#bp);}.by{fill:url(#bq);}.bz{fill:url(#br);}.ca{fill:url(#bs);}.cb{fill:url(#bt);}.cc{fill:url(#bu);}.cd{fill:url(#bv);}.ce{fill:url(#bw);}.cf{fill:url(#bx);}.cg{fill:url(#by);}.ch{fill:url(#bz);}.ci{fill:url(#ca);}.cj{fill:url(#cb);}.ck{fill:url(#cc);}.cl{fill:url(#cd);}.cm{fill:url(#ce);}.cn{fill:url(#cf);}.co{fill:url(#cg);}.cp{fill:url(#ch);}.cq{fill:url(#ci);}.cr{fill:url(#cj);}.cs{fill:url(#ck);}.ct{fill:url(#cl);}.cu{fill:url(#cm);}.cv{fill:url(#cn);}.cw{fill:url(#co);}.cx{fill:url(#cp);}.cy{fill:url(#cq);}.cz{fill:url(#cr);}.da{fill:url(#cs);}.db{fill:url(#ct);}.dc{fill:url(#cu);}.dd{fill:url(#cv);}.de{fill:url(#cw);}.df{fill:url(#cx);}.dg{fill:url(#cy);}.dh{fill:url(#cz);}.di{fill:url(#da);}.dj{fill:url(#db);}.dk{fill:url(#dc);}.dl{fill:url(#dd);}.dm{fill:url(#de);}.dn{fill:url(#df);}.do{fill:url(#dg);}.dp{fill:url(#dh);}.dq{fill:url(#di);}.dr{opacity:0.92;}.ds{fill:#cacaca;}.dt{fill:url(#dj);}.du{fill:url(#dk);}.dv{fill:url(#dl);}.dw{fill:url(#dm);}.dx{fill:url(#dn);}.dy{fill:url(#do);}.dz{fill:url(#dp);}.ea{fill:url(#dq);}.eb{fill:rgba(56,125,255,0.27);}.ec{fill:rgba(56,125,255,0.44);}.ed{opacity:0.3;}.ee,.fj{opacity:0.5;}.ef{fill:url(#dr);}.eg{fill:url(#ds);}.eh{fill:url(#dt);}.ei{fill:url(#du);}.ej{fill:url(#dv);}.ek{fill:url(#dw);}.el{fill:url(#dx);}.em{fill:url(#dy);}.en{fill:url(#dz);}.eo{fill:url(#ea);}.ep{fill:url(#eb);}.eq{fill:url(#ec);}.er{fill:url(#ed);}.es{fill:url(#ee);}.et{fill:url(#ef);}.eu{fill:url(#eg);}.ev{fill:url(#eh);}.ew{fill:url(#ei);}.ex{fill:url(#ej);}.ey{fill:url(#ek);}.ez{opacity:0.56;}.fa{opacity:0.7;}.fb{opacity:0.48;fill:url(#el);}.fc{fill:rgba(255,255,255,0);}.fd{fill:url(#ep);}.fe{opacity:0.24;}.ff{opacity:0.28;}.fg{opacity:0.26;}.fh{opacity:0.41;}.fi{opacity:0.44;}.fj{fill:url(#eu);}.fk{fill:#68e1fd;}.fl{opacity:0.58;}.fm{opacity:0.63;}.fn{fill:url(#ev);}.fo{fill:#e0eaff;opacity:0.68;}.fp{fill:#3f3d56;}.fq{fill:#e1edfe;}.fr,.fu{fill:none;stroke-miterlimit:10;}.fr{stroke:#f2f2f2;stroke-width:2px;}.ft{fill:rgba(56,125,255,0.2);}.fu{stroke:#3f3d56;stroke-width:4px;}.fv{fill:#4fdc6f;}.fx{fill:#656380;}.fy{opacity:0.2;}.fz{fill:url(#ew);}.ga{fill:#fbbebe;}.gb{fill:#2e3037;}.gc{fill:#db8b8b;}.gd{fill:#474463;}.ge{fill:#fc6681;}.gf{opacity:0.05;}.gf,.gg{fill:url(#ex);}.gh{fill:#f07379;}</style><clipPath id="a"><rect class="a" width="1210" height="800" transform="translate(710 70)"/></clipPath><linearGradient id="b" x1="0.614" y1="52.7" x2="0.445" y2="-24.325" gradientUnits="objectBoundingBox"><stop offset="0" stop-color="#fff" stop-opacity="0"/><stop offset="0.95" stop-color="#fff"/></linearGradient><linearGradient id="c" x1="0.611" y1="51.296" x2="0.443" y2="-25.73" xlink:href="#b"/><linearGradient id="d" x1="0.609" y1="49.891" x2="0.44" y2="-27.135" xlink:href="#b"/><linearGradient id="e" x1="0.604" y1="48.484" x2="0.437" y2="-28.542" xlink:href="#b"/><linearGradient id="f" x1="0.601" y1="47.079" x2="0.433" y2="-29.946" xlink:href="#b"/><linearGradient id="g" x1="0.599" y1="45.675" x2="0.43" y2="-31.351" xlink:href="#b"/><linearGradient id="h" x1="0.596" y1="44.27" x2="0.427" y2="-32.756" xlink:href="#b"/><linearGradient id="i" x1="0.593" y1="42.863" x2="0.424" y2="-34.163" xlink:href="#b"/><linearGradient id="j" x1="0.59" y1="41.458" x2="0.421" y2="-35.567" xlink:href="#b"/><linearGradient id="k" x1="0.586" y1="40.054" x2="0.418" y2="-36.972" xlink:href="#b"/><linearGradient id="l" x1="0.583" y1="38.647" x2="0.414" y2="-38.379" xlink:href="#b"/><linearGradient id="m" x1="0.58" y1="37.242" x2="0.411" y2="-39.784" xlink:href="#b"/><linearGradient id="n" x1="0.577" y1="35.837" x2="0.409" y2="-41.188" xlink:href="#b"/><linearGradient id="o" x1="0.574" y1="34.43" x2="0.406" y2="-42.595" xlink:href="#b"/><linearGradient id="p" x1="0.572" y1="33.026" x2="0.403" y2="-44" xlink:href="#b"/><linearGradient id="q" x1="0.567" y1="31.621" x2="0.4" y2="-45.405" xlink:href="#b"/><linearGradient id="r" x1="0.565" y1="30.214" x2="0.396" y2="-46.812" xlink:href="#b"/><linearGradient id="s" x1="0.562" y1="28.809" x2="0.393" y2="-48.216" xlink:href="#b"/><linearGradient id="t" x1="0.559" y1="27.405" x2="0.39" y2="-49.621" xlink:href="#b"/><linearGradient id="u" x1="0.556" y1="26" x2="0.387" y2="-51.026" xlink:href="#b"/><linearGradient id="v" x1="0.553" y1="24.593" x2="0.384" y2="-52.433" xlink:href="#b"/><linearGradient id="w" x1="0.549" y1="23.188" x2="0.382" y2="-53.837" xlink:href="#b"/><linearGradient id="x" x1="0.546" y1="21.784" x2="0.377" y2="-55.242" xlink:href="#b"/><linearGradient id="y" x1="0.543" y1="20.377" x2="0.374" y2="-56.649" xlink:href="#b"/><linearGradient id="z" x1="0.54" y1="18.972" x2="0.372" y2="-58.053" xlink:href="#b"/><linearGradient id="aa" x1="0.538" y1="17.567" x2="0.369" y2="-59.458" xlink:href="#b"/><linearGradient id="ab" x1="0.535" y1="16.161" x2="0.366" y2="-60.865" xlink:href="#b"/><linearGradient id="ac" x1="0.53" y1="14.756" x2="0.363" y2="-62.27" xlink:href="#b"/><linearGradient id="ad" x1="0.519" y1="52.677" x2="0.491" y2="-24.349" xlink:href="#b"/><linearGradient id="ae" x1="0.519" y1="51.272" x2="0.49" y2="-25.754" xlink:href="#b"/><linearGradient id="af" x1="0.518" y1="49.867" x2="0.49" y2="-27.158" xlink:href="#b"/><linearGradient id="ag" x1="0.518" y1="48.46" x2="0.489" y2="-28.565" xlink:href="#b"/><linearGradient id="ah" x1="0.517" y1="47.056" x2="0.489" y2="-29.97" xlink:href="#b"/><linearGradient id="ai" x1="0.517" y1="45.651" x2="0.488" y2="-31.375" xlink:href="#b"/><linearGradient id="aj" x1="0.516" y1="44.244" x2="0.488" y2="-32.779" xlink:href="#b"/><linearGradient id="ak" x1="0.516" y1="42.839" x2="0.487" y2="-34.186" xlink:href="#b"/><linearGradient id="al" x1="0.515" y1="41.435" x2="0.487" y2="-35.591" xlink:href="#b"/><linearGradient id="am" x1="0.515" y1="40.03" x2="0.486" y2="-36.996" xlink:href="#b"/><linearGradient id="an" x1="0.514" y1="38.623" x2="0.486" y2="-38.403" xlink:href="#b"/><linearGradient id="ao" x1="0.514" y1="37.218" x2="0.485" y2="-39.807" xlink:href="#b"/><linearGradient id="ap" x1="0.513" y1="35.814" x2="0.485" y2="-41.212" xlink:href="#b"/><linearGradient id="aq" x1="0.513" y1="34.407" x2="0.484" y2="-42.619" xlink:href="#b"/><linearGradient id="ar" x1="0.512" y1="33.002" x2="0.484" y2="-44.024" xlink:href="#b"/><linearGradient id="as" x1="0.512" y1="31.597" x2="0.483" y2="-45.428" xlink:href="#b"/><linearGradient id="at" x1="0.511" y1="30.191" x2="0.482" y2="-46.835" xlink:href="#b"/><linearGradient id="au" x1="0.511" y1="28.786" x2="0.482" y2="-48.24" xlink:href="#b"/><linearGradient id="av" x1="0.51" y1="27.381" x2="0.482" y2="-49.645" xlink:href="#b"/><linearGradient id="aw" x1="0.51" y1="25.976" x2="0.481" y2="-51.049" xlink:href="#b"/><linearGradient id="ax" x1="0.509" y1="24.57" x2="0.481" y2="-52.456" xlink:href="#b"/><linearGradient id="ay" x1="0.508" y1="23.165" x2="0.48" y2="-53.861" xlink:href="#b"/><linearGradient id="az" x1="0.508" y1="21.76" x2="0.479" y2="-55.266" xlink:href="#b"/><linearGradient id="ba" x1="0.507" y1="20.353" x2="0.479" y2="-56.672" xlink:href="#b"/><linearGradient id="bb" x1="0.507" y1="18.949" x2="0.478" y2="-58.077" xlink:href="#b"/><linearGradient id="bc" x1="0.506" y1="17.544" x2="0.478" y2="-59.482" xlink:href="#b"/><linearGradient id="bd" x1="0.506" y1="16.137" x2="0.477" y2="-60.888" xlink:href="#b"/><linearGradient id="be" x1="0.505" y1="14.732" x2="0.477" y2="-62.293" xlink:href="#b"/><linearGradient id="bf" x1="0.615" y1="52.661" x2="0.446" y2="-24.307" xlink:href="#b"/><linearGradient id="bg" x1="0.611" y1="51.256" x2="0.444" y2="-25.711" xlink:href="#b"/><linearGradient id="bh" x1="0.607" y1="49.851" x2="0.44" y2="-27.116" xlink:href="#b"/><linearGradient id="bi" x1="0.606" y1="48.446" x2="0.438" y2="-28.521" xlink:href="#b"/><linearGradient id="bj" x1="0.602" y1="47.042" x2="0.434" y2="-29.926" xlink:href="#b"/><linearGradient id="bk" x1="0.6" y1="45.64" x2="0.43" y2="-31.327" xlink:href="#b"/><linearGradient id="bl" x1="0.596" y1="44.235" x2="0.428" y2="-32.732" xlink:href="#b"/><linearGradient id="bm" x1="0.594" y1="42.83" x2="0.424" y2="-34.137" xlink:href="#b"/><linearGradient id="bn" x1="0.59" y1="41.426" x2="0.422" y2="-35.539" xlink:href="#b"/><linearGradient id="bo" x1="0.588" y1="40.021" x2="0.418" y2="-36.943" xlink:href="#b"/><linearGradient id="bp" x1="0.584" y1="38.616" x2="0.416" y2="-38.348" xlink:href="#b"/><linearGradient id="bq" x1="0.58" y1="37.214" x2="0.412" y2="-39.75" xlink:href="#b"/><linearGradient id="br" x1="0.578" y1="35.81" x2="0.408" y2="-41.155" xlink:href="#b"/><linearGradient id="bs" x1="0.574" y1="34.405" x2="0.406" y2="-42.56" xlink:href="#b"/><linearGradient id="bt" x1="0.572" y1="33" x2="0.402" y2="-43.964" xlink:href="#b"/><linearGradient id="bu" x1="0.568" y1="31.595" x2="0.4" y2="-45.369" xlink:href="#b"/><linearGradient id="bv" x1="0.566" y1="30.19" x2="0.396" y2="-46.774" xlink:href="#b"/><linearGradient id="bw" x1="0.562" y1="28.789" x2="0.394" y2="-48.176" xlink:href="#b"/><linearGradient id="bx" x1="0.558" y1="27.384" x2="0.391" y2="-49.58" xlink:href="#b"/><linearGradient id="by" x1="0.556" y1="25.979" x2="0.389" y2="-50.985" xlink:href="#b"/><linearGradient id="bz" x1="0.552" y1="24.575" x2="0.385" y2="-52.39" xlink:href="#b"/><linearGradient id="ca" x1="0.55" y1="23.17" x2="0.381" y2="-53.795" xlink:href="#b"/><linearGradient id="cb" x1="0.546" y1="21.765" x2="0.379" y2="-55.2" xlink:href="#b"/><linearGradient id="cc" x1="0.544" y1="20.363" x2="0.375" y2="-56.601" xlink:href="#b"/><linearGradient id="cd" x1="0.54" y1="18.958" x2="0.373" y2="-58.006" xlink:href="#b"/><linearGradient id="ce" x1="0.538" y1="17.554" x2="0.369" y2="-59.411" xlink:href="#b"/><linearGradient id="cf" x1="0.535" y1="16.149" x2="0.367" y2="-60.816" xlink:href="#b"/><linearGradient id="cg" x1="0.531" y1="14.744" x2="0.363" y2="-62.221" xlink:href="#b"/><linearGradient id="ch" x1="0.519" y1="52.637" x2="0.491" y2="-24.327" xlink:href="#b"/><linearGradient id="ci" x1="0.519" y1="51.232" x2="0.49" y2="-25.732" xlink:href="#b"/><linearGradient id="cj" x1="0.518" y1="49.827" x2="0.49" y2="-27.137" xlink:href="#b"/><linearGradient id="ck" x1="0.518" y1="48.423" x2="0.489" y2="-28.542" xlink:href="#b"/><linearGradient id="cl" x1="0.517" y1="47.018" x2="0.489" y2="-29.946" xlink:href="#b"/><linearGradient id="cm" x1="0.517" y1="45.616" x2="0.488" y2="-31.348" xlink:href="#b"/><linearGradient id="cn" x1="0.516" y1="44.211" x2="0.488" y2="-32.756" xlink:href="#b"/><linearGradient id="co" x1="0.516" y1="42.807" x2="0.487" y2="-34.158" xlink:href="#b"/><linearGradient id="cp" x1="0.515" y1="41.402" x2="0.487" y2="-35.562" xlink:href="#b"/><linearGradient id="cq" x1="0.515" y1="39.997" x2="0.486" y2="-36.967" xlink:href="#b"/><linearGradient id="cr" x1="0.514" y1="38.592" x2="0.486" y2="-38.372" xlink:href="#b"/><linearGradient id="cs" x1="0.514" y1="37.19" x2="0.485" y2="-39.774" xlink:href="#b"/><linearGradient id="ct" x1="0.513" y1="35.786" x2="0.485" y2="-41.179" xlink:href="#b"/><linearGradient id="cu" x1="0.512" y1="34.381" x2="0.484" y2="-42.583" xlink:href="#b"/><linearGradient id="cv" x1="0.512" y1="32.976" x2="0.484" y2="-43.988" xlink:href="#b"/><linearGradient id="cw" x1="0.511" y1="31.571" x2="0.483" y2="-45.393" xlink:href="#b"/><linearGradient id="cx" x1="0.511" y1="30.167" x2="0.482" y2="-46.798" xlink:href="#b"/><linearGradient id="cy" x1="0.51" y1="28.765" x2="0.482" y2="-48.199" xlink:href="#b"/><linearGradient id="cz" x1="0.51" y1="27.36" x2="0.481" y2="-49.604" xlink:href="#b"/><linearGradient id="da" x1="0.509" y1="25.955" x2="0.481" y2="-51.009" xlink:href="#b"/><linearGradient id="db" x1="0.509" y1="24.551" x2="0.48" y2="-52.414" xlink:href="#b"/><linearGradient id="dc" x1="0.508" y1="23.146" x2="0.48" y2="-53.819" xlink:href="#b"/><linearGradient id="dd" x1="0.508" y1="21.741" x2="0.479" y2="-55.223" xlink:href="#b"/><linearGradient id="de" x1="0.507" y1="20.339" x2="0.479" y2="-56.625" xlink:href="#b"/><linearGradient id="df" x1="0.507" y1="18.935" x2="0.478" y2="-58.03" xlink:href="#b"/><linearGradient id="dg" x1="0.506" y1="17.53" x2="0.478" y2="-59.435" xlink:href="#b"/><linearGradient id="dh" x1="0.506" y1="16.125" x2="0.477" y2="-60.84" xlink:href="#b"/><linearGradient id="di" x1="0.505" y1="14.72" x2="0.477" y2="-62.244" xlink:href="#b"/><linearGradient id="dj" x1="-51.26" y1="5.542" x2="-43.562" y2="6.02" gradientUnits="objectBoundingBox"><stop offset="0" stop-color="#1c265c"/><stop offset="1" stop-color="#fff" stop-opacity="0"/></linearGradient><linearGradient id="dk" x1="-51.489" y1="5.527" x2="-43.792" y2="6.005" xlink:href="#dj"/><linearGradient id="dl" x1="-51.719" y1="5.513" x2="-44.023" y2="5.992" xlink:href="#dj"/><linearGradient id="dm" x1="-51.95" y1="5.498" x2="-44.253" y2="5.977" xlink:href="#dj"/><linearGradient id="dn" x1="-52.18" y1="5.484" x2="-44.484" y2="5.963" xlink:href="#dj"/><linearGradient id="do" x1="-52.411" y1="5.47" x2="-44.714" y2="5.948" xlink:href="#dj"/><linearGradient id="dp" x1="-52.641" y1="5.469" x2="-44.943" y2="5.95" xlink:href="#dj"/><linearGradient id="dq" x1="-49.979" y1="5.701" x2="-42.44" y2="6.194" xlink:href="#dj"/><linearGradient id="dr" x1="56.081" y1="-0.882" x2="41.746" y2="0.672" xlink:href="#b"/><linearGradient id="ds" x1="56.059" y1="-0.882" x2="41.725" y2="0.672" xlink:href="#b"/><linearGradient id="dt" x1="56.038" y1="-0.876" x2="41.703" y2="0.677" xlink:href="#b"/><linearGradient id="du" x1="56.018" y1="-0.876" x2="41.682" y2="0.677" xlink:href="#b"/><linearGradient id="dv" x1="55.996" y1="-0.871" x2="41.66" y2="0.683" xlink:href="#b"/><linearGradient id="dw" x1="55.975" y1="-0.871" x2="41.64" y2="0.683" xlink:href="#b"/><linearGradient id="dx" x1="55.954" y1="-0.871" x2="41.619" y2="0.688" xlink:href="#b"/><linearGradient id="dy" x1="55.932" y1="-0.871" x2="41.598" y2="0.688" xlink:href="#b"/><linearGradient id="dz" x1="107.461" y1="-0.521" x2="79.243" y2="0.5" xlink:href="#b"/><linearGradient id="ea" x1="109.454" y1="-0.447" x2="81.24" y2="0.57" xlink:href="#b"/><linearGradient id="eb" x1="107.402" y1="-0.518" x2="79.187" y2="0.5" xlink:href="#b"/><linearGradient id="ec" x1="109.398" y1="-0.447" x2="81.183" y2="0.574" xlink:href="#b"/><linearGradient id="ed" x1="107.345" y1="-0.518" x2="79.127" y2="0.5" xlink:href="#b"/><linearGradient id="ee" x1="109.338" y1="-0.447" x2="81.123" y2="0.574" xlink:href="#b"/><linearGradient id="ef" x1="107.285" y1="-0.514" x2="79.071" y2="0.504" xlink:href="#b"/><linearGradient id="eg" x1="109.282" y1="-0.444" x2="81.067" y2="0.574" xlink:href="#b"/><linearGradient id="eh" x1="107.229" y1="-0.514" x2="79.014" y2="0.507" xlink:href="#b"/><linearGradient id="ei" x1="109.225" y1="-0.44" x2="81.007" y2="0.577" xlink:href="#b"/><linearGradient id="ej" x1="107.169" y1="-0.511" x2="78.954" y2="0.511" xlink:href="#b"/><linearGradient id="ek" x1="109.166" y1="-0.437" x2="80.951" y2="0.581" xlink:href="#b"/><linearGradient id="el" x1="0.364" y1="49.976" x2="0.671" y2="-61.673" gradientUnits="objectBoundingBox"><stop offset="0" stop-color="#010101" stop-opacity="0"/><stop offset="0.95" stop-color="#387dff"/><stop offset="1" stop-color="#010101"/></linearGradient><linearGradient id="ep" x1="19.432" y1="19.16" x2="-7.631" y2="-7.515" xlink:href="#b"/><linearGradient id="eu" x1="0.5" y1="1" x2="0.5" gradientUnits="objectBoundingBox"><stop offset="0" stop-color="#e9e9e9"/><stop offset="1" stop-color="#387dff"/></linearGradient><linearGradient id="ev" x1="0.5" y1="-0.445" x2="0.5" y2="5.083" xlink:href="#b"/><linearGradient id="ew" x1="6.341" y1="1" x2="6.341" gradientUnits="objectBoundingBox"><stop offset="0" stop-color="gray" stop-opacity="0.251"/><stop offset="0.54" stop-color="gray" stop-opacity="0.122"/><stop offset="1" stop-color="gray" stop-opacity="0.102"/></linearGradient><linearGradient id="ex" x1="0.5" x2="0.5" y2="1" gradientUnits="objectBoundingBox"><stop offset="0" stop-color="#ffa330"/><stop offset="0.274" stop-color="#ff9346"/><stop offset="0.539" stop-color="#ff8559"/><stop offset="0.766" stop-color="#fb7a6a"/><stop offset="1" stop-color="#f07379"/></linearGradient></defs><g class="b" transform="translate(-710 -70)"><g transform="translate(666.74 -222.979)"><g class="c" transform="translate(43.191 386.266)"><path class="d" d="M5.42,630.05A231.849,231.849,0,0,0,19.5,659.736c40.447,71.741,117.729,121.218,199.736,127.749,66.4,5.393,132.424-15.486,198.995-14.843,51.258.47,101.427,13.68,151.448,24.243a1482.077,1482.077,0,0,0,404.99,28.4c94.2-6.333,190.485-22.759,270.76-72.434a309.672,309.672,0,0,0,95.044-91.977,249.858,249.858,0,0,0,33.718-74.71l-3.612-123.2c-1.237-4.676-2.647-9.376-4.057-14.076-2.894-9.7-6.036-19.395-9.153-29.092-5.1-15.585-10.093-31.22-14.076-47-1.089-4.23-2.128-8.436-3.068-12.666-7.966-36.39-9.9-73.7-12.369-110.852h-71.37V187.507h-81.636V282.23h-34.089V206.283h-40.125v70.479h-53.509v82.6H986.564v-80.4H880.808v80.4H788.336V232.728h-47.4V273.4H701.356v85.966H661.775V302.169H613.288v57.244H586.843V265.408H540.607V227.162H452.49v132.2H413.527V150.82H325.459V359.364H288.772V186.2h-67.61v73.374h-35.2v99.893Z" transform="translate(12.62 -141.221)"/><path class="e" d="M5.42,630.05A231.849,231.849,0,0,0,19.5,659.736c40.447,71.741,117.729,121.218,199.736,127.749,66.4,5.393,132.424-15.486,198.995-14.843,51.258.47,101.427,13.68,151.448,24.243a1482.077,1482.077,0,0,0,404.99,28.4c94.2-6.333,190.485-22.759,270.76-72.434a309.672,309.672,0,0,0,95.044-91.977,249.858,249.858,0,0,0,33.718-74.71l-3.612-123.2c-1.237-4.676-2.647-9.376-4.057-14.076-2.894-9.7-6.036-19.395-9.153-29.092-5.1-15.585-10.093-31.22-14.076-47-1.089-4.23-2.128-8.436-3.068-12.666-7.966-36.39-9.9-73.7-12.369-110.852h-71.37V187.507h-81.636V282.23h-34.089V206.283h-40.125v70.479h-53.509v82.6H986.564v-80.4H880.808v80.4H788.336V232.728h-47.4V273.4H701.356v85.966H661.775V302.169H613.288v57.244H586.843V265.408H540.607V227.162H452.49v132.2H413.527V150.82H325.459V359.364H288.772V186.2h-67.61v73.374h-35.2v99.893Z" transform="translate(12.621 -141.222)"/><path class="e" d="M18.733,586.691c9.4,11.182,19.024,22.067,28.548,33.1,2.053,2.474,4.082,4.75,6.11,7.174H71.227v-4.675H1355.662c27.682-42.055,43.49-90.913,40.373-141.008-1.484-24.169-7.273-47.646-14.323-70.949h-9.153V381.19c-5.1-15.585-10.093-31.22-14.076-47H1325.63v76.095h-21.794V344.874h-29.142v65.408h-6.259V258.29h-58.6V410.282H211.889V177H162.982a445.942,445.942,0,0,1-27.459,54.424c-2.177,3.612-4.379,7.125-6.729,10.637V261.7H115.262C85.7,302.151,50.942,339.159,28.431,383.985-2.542,446.425-5.585,521.6,18.733,586.691Z" transform="translate(-2.572 -102.637)"/><path class="a" d="M1324.22,361.728c8.782,1.014,19.123,3.241,22.536,11.4,2.474,5.863.247,12.617-2.474,18.331-17.737,36.637-56.75,59.174-96.479,67.56s-81.042,4.725-121.613,1.707C776,434.682,423.179,459.4,73.553,426.667c-19.791-1.855-42.723-5.789-52.42-23.18-9-16.1-1.632-37.5,12.369-49.65s32.63-16.946,50.763-20.236c103.678-18.752,209.879.322,314.77,10.019,125.027,11.577,250.722,9.772,376.021,6.852,62.489-1.46,124.978-3.216,187.491-3.736,31.541-.247,63.107-.3,94.624.371,20.83.421,39.581,7.422,60.04,8.362C1186.453,358.414,1254.681,353.713,1324.22,361.728Z" transform="translate(9.871 116.462)"/><path class="f" d="M1324.22,361.728c8.782,1.014,19.123,3.241,22.536,11.4,2.474,5.863.247,12.617-2.474,18.331-17.737,36.637-56.75,59.174-96.479,67.56s-81.042,4.725-121.613,1.707C776,434.682,423.179,459.4,73.553,426.667c-19.791-1.855-42.723-5.789-52.42-23.18-9-16.1-1.632-37.5,12.369-49.65s32.63-16.946,50.763-20.236c103.678-18.752,209.879.322,314.77,10.019,125.027,11.577,250.722,9.772,376.021,6.852,62.489-1.46,124.978-3.216,187.491-3.736,31.541-.247,63.107-.3,94.624.371,20.83.421,39.581,7.422,60.04,8.362C1186.453,358.414,1254.681,353.713,1324.22,361.728Z" transform="translate(9.871 116.958)"/><rect class="g" width="152.116" height="492.168" transform="translate(819.091 0)"/><line class="a" x1="17.44" transform="translate(825.696 41.436)"/><rect class="h" width="17.44" height="11.553" transform="translate(825.696 35.672)"/><line class="a" x1="17.44" transform="translate(825.696 57.665)"/><rect class="i" width="17.44" height="11.553" transform="translate(825.696 51.901)"/><line class="a" x1="17.44" transform="translate(825.696 73.918)"/><rect class="j" width="17.44" height="11.553" transform="translate(825.696 68.129)"/><line class="a" x2="17.44" transform="translate(825.696 90.146)"/><rect class="k" width="17.44" height="11.553" transform="translate(825.696 84.382)"/><line class="a" x1="17.44" transform="translate(825.696 106.374)"/><rect class="l" width="17.44" height="11.553" transform="translate(825.696 100.61)"/><line class="a" x1="17.44" transform="translate(825.696 122.627)"/><rect class="m" width="17.44" height="11.553" transform="translate(825.696 116.839)"/><line class="a" x1="17.44" transform="translate(825.696 138.856)"/><rect class="n" width="17.44" height="11.553" transform="translate(825.696 133.067)"/><line class="a" x1="17.44" transform="translate(825.696 155.084)"/><rect class="o" width="17.44" height="11.553" transform="translate(825.696 149.32)"/><line class="a" x1="17.44" transform="translate(825.696 171.337)"/><rect class="p" width="17.44" height="11.553" transform="translate(825.696 165.548)"/><line class="a" x1="17.44" transform="translate(825.696 187.565)"/><rect class="q" width="17.44" height="11.553" transform="translate(825.696 181.777)"/><line class="a" x1="17.44" transform="translate(825.696 203.794)"/><rect class="r" width="17.44" height="11.553" transform="translate(825.696 198.03)"/><line class="a" x1="17.44" transform="translate(825.696 220.022)"/><rect class="s" width="17.44" height="11.553" transform="translate(825.696 214.258)"/><line class="a" x1="17.44" transform="translate(825.696 236.275)"/><rect class="t" width="17.44" height="11.553" transform="translate(825.696 230.486)"/><line class="a" x1="17.44" transform="translate(825.696 252.503)"/><rect class="u" width="17.44" height="11.553" transform="translate(825.696 246.739)"/><line class="a" x1="17.44" transform="translate(825.696 268.732)"/><rect class="v" width="17.44" height="11.553" transform="translate(825.696 262.968)"/><line class="a" x1="17.44" transform="translate(825.696 284.985)"/><rect class="w" width="17.44" height="11.553" transform="translate(825.696 279.196)"/><line class="a" x1="17.44" transform="translate(825.696 301.213)"/><rect class="x" width="17.44" height="11.553" transform="translate(825.696 295.449)"/><line class="a" x1="17.44" transform="translate(825.696 317.441)"/><rect class="y" width="17.44" height="11.553" transform="translate(825.696 311.677)"/><line class="a" x1="17.44" transform="translate(825.696 333.694)"/><rect class="z" width="17.44" height="11.553" transform="translate(825.696 327.906)"/><line class="a" x1="17.44" transform="translate(825.696 349.923)"/><rect class="aa" width="17.44" height="11.553" transform="translate(825.696 344.134)"/><line class="a" x1="17.44" transform="translate(825.696 366.151)"/><rect class="ab" width="17.44" height="11.553" transform="translate(825.696 360.387)"/><line class="a" x1="17.44" transform="translate(825.696 382.404)"/><rect class="ac" width="17.44" height="11.553" transform="translate(825.696 376.615)"/><line class="a" x1="17.44" transform="translate(825.696 398.632)"/><rect class="ad" width="17.44" height="11.553" transform="translate(825.696 392.844)"/><line class="a" x1="17.44" transform="translate(825.696 414.861)"/><rect class="ae" width="17.44" height="11.553" transform="translate(825.696 409.097)"/><line class="a" x1="17.44" transform="translate(825.696 431.089)"/><rect class="af" width="17.44" height="11.553" transform="translate(825.696 425.325)"/><line class="a" x1="17.44" transform="translate(825.696 447.342)"/><rect class="ag" width="17.44" height="11.553" transform="translate(825.696 441.553)"/><line class="a" x1="17.44" transform="translate(825.696 463.57)"/><rect class="ah" width="17.44" height="11.553" transform="translate(825.696 457.806)"/><line class="a" x1="17.44" transform="translate(825.696 479.799)"/><rect class="ai" width="17.44" height="11.553" transform="translate(825.696 474.035)"/><rect class="aj" width="119.461" height="492.168" transform="translate(851.696 0)"/><line class="a" x1="103.159" transform="translate(864.04 41.436)"/><rect class="ak" width="103.159" height="11.553" transform="translate(864.04 35.672)"/><line class="a" x1="103.159" transform="translate(864.04 57.665)"/><rect class="al" width="103.159" height="11.553" transform="translate(864.04 51.901)"/><line class="a" x1="103.159" transform="translate(864.04 73.918)"/><rect class="am" width="103.159" height="11.553" transform="translate(864.04 68.129)"/><line class="a" x2="103.159" transform="translate(864.04 90.146)"/><rect class="an" width="103.159" height="11.553" transform="translate(864.04 84.382)"/><line class="a" x1="103.159" transform="translate(864.04 106.374)"/><rect class="ao" width="103.159" height="11.553" transform="translate(864.04 100.61)"/><line class="a" x1="103.159" transform="translate(864.04 122.627)"/><rect class="ap" width="103.159" height="11.553" transform="translate(864.04 116.839)"/><line class="a" x1="103.159" transform="translate(864.04 138.856)"/><rect class="aq" width="103.159" height="11.553" transform="translate(864.04 133.067)"/><line class="a" x1="103.159" transform="translate(864.04 155.084)"/><rect class="ar" width="103.159" height="11.553" transform="translate(864.04 149.32)"/><line class="a" x1="103.159" transform="translate(864.04 171.337)"/><rect class="as" width="103.159" height="11.553" transform="translate(864.04 165.548)"/><line class="a" x1="103.159" transform="translate(864.04 187.565)"/><rect class="at" width="103.159" height="11.553" transform="translate(864.04 181.777)"/><line class="a" x1="103.159" transform="translate(864.04 203.794)"/><rect class="au" width="103.159" height="11.553" transform="translate(864.04 198.03)"/><line class="a" x1="103.159" transform="translate(864.04 220.022)"/><rect class="av" width="103.159" height="11.553" transform="translate(864.04 214.258)"/><line class="a" x1="103.159" transform="translate(864.04 236.275)"/><rect class="aw" width="103.159" height="11.553" transform="translate(864.04 230.486)"/><line class="a" x1="103.159" transform="translate(864.04 252.503)"/><rect class="ax" width="103.159" height="11.553" transform="translate(864.04 246.739)"/><line class="a" x1="103.159" transform="translate(864.04 268.732)"/><rect class="ay" width="103.159" height="11.553" transform="translate(864.04 262.968)"/><line class="a" x1="103.159" transform="translate(864.04 284.985)"/><rect class="az" width="103.159" height="11.553" transform="translate(864.04 279.196)"/><line class="a" x1="103.159" transform="translate(864.04 301.213)"/><rect class="ba" width="103.159" height="11.553" transform="translate(864.04 295.449)"/><line class="a" x1="103.159" transform="translate(864.04 317.441)"/><rect class="bb" width="103.159" height="11.553" transform="translate(864.04 311.677)"/><line class="a" x1="103.159" transform="translate(864.04 333.694)"/><rect class="bc" width="103.159" height="11.553" transform="translate(864.04 327.906)"/><line class="a" x1="103.159" transform="translate(864.04 349.923)"/><rect class="bd" width="103.159" height="11.553" transform="translate(864.04 344.134)"/><line class="a" x1="103.159" transform="translate(864.04 366.151)"/><rect class="be" width="103.159" height="11.553" transform="translate(864.04 360.387)"/><line class="a" x1="103.159" transform="translate(864.04 382.404)"/><rect class="bf" width="103.159" height="11.553" transform="translate(864.04 376.615)"/><line class="a" x1="103.159" transform="translate(864.04 398.632)"/><rect class="bg" width="103.159" height="11.553" transform="translate(864.04 392.844)"/><line class="a" x1="103.159" transform="translate(864.04 414.861)"/><rect class="bh" width="103.159" height="11.553" transform="translate(864.04 409.097)"/><line class="a" x1="103.159" transform="translate(864.04 431.089)"/><rect class="bi" width="103.159" height="11.553" transform="translate(864.04 425.325)"/><line class="a" x1="103.159" transform="translate(864.04 447.342)"/><rect class="bj" width="103.159" height="11.553" transform="translate(864.04 441.553)"/><line class="a" x1="103.159" transform="translate(864.04 463.57)"/><rect class="bk" width="103.159" height="11.553" transform="translate(864.04 457.806)"/><line class="a" x1="103.159" transform="translate(864.04 479.799)"/><rect class="bl" width="103.159" height="11.553" transform="translate(864.04 474.035)"/><rect class="bm" width="109.368" height="353.832" transform="translate(166.199 154.466)"/><line class="a" x1="12.542" transform="translate(170.949 184.25)"/><rect class="bn" width="12.542" height="8.312" transform="translate(170.949 180.094)"/><line class="a" x1="12.542" transform="translate(170.949 195.927)"/><rect class="bo" width="12.542" height="8.312" transform="translate(170.949 191.771)"/><line class="a" x1="12.542" transform="translate(170.949 207.603)"/><rect class="bp" width="12.542" height="8.312" transform="translate(170.949 203.447)"/><line class="a" x2="12.542" transform="translate(170.949 219.28)"/><rect class="bq" width="12.542" height="8.312" transform="translate(170.949 215.124)"/><line class="a" x1="12.542" transform="translate(170.949 230.932)"/><rect class="br" width="12.542" height="8.312" transform="translate(170.949 226.8)"/><line class="a" x1="12.542" transform="translate(170.949 242.608)"/><rect class="bs" width="12.542" height="8.312" transform="translate(170.949 238.452)"/><line class="a" x1="12.542" transform="translate(170.949 254.285)"/><rect class="bt" width="12.542" height="8.312" transform="translate(170.949 250.129)"/><line class="a" x1="12.542" transform="translate(170.949 265.961)"/><rect class="bu" width="12.542" height="8.312" transform="translate(170.949 261.805)"/><line class="a" x1="12.542" transform="translate(170.949 277.637)"/><rect class="bv" width="12.542" height="8.312" transform="translate(170.949 273.482)"/><line class="a" x1="12.542" transform="translate(170.949 289.314)"/><rect class="bw" width="12.542" height="8.312" transform="translate(170.949 285.158)"/><line class="a" x1="12.542" transform="translate(170.949 300.966)"/><rect class="bx" width="12.542" height="8.312" transform="translate(170.949 296.834)"/><line class="a" x1="12.542" transform="translate(170.949 312.642)"/><rect class="by" width="12.542" height="8.312" transform="translate(170.949 308.486)"/><line class="a" x1="12.542" transform="translate(170.949 324.319)"/><rect class="bz" width="12.542" height="8.312" transform="translate(170.949 320.163)"/><line class="a" x1="12.542" transform="translate(170.949 335.995)"/><rect class="ca" width="12.542" height="8.312" transform="translate(170.949 331.839)"/><line class="a" x1="12.542" transform="translate(170.949 347.672)"/><rect class="cb" width="12.542" height="8.312" transform="translate(170.949 343.516)"/><line class="a" x1="12.542" transform="translate(170.949 359.348)"/><rect class="cc" width="12.542" height="8.312" transform="translate(170.949 355.192)"/><line class="a" x1="12.542" transform="translate(170.949 371)"/><rect class="cd" width="12.542" height="8.312" transform="translate(170.949 366.868)"/><line class="a" x1="12.542" transform="translate(170.949 382.676)"/><rect class="ce" width="12.542" height="8.312" transform="translate(170.949 378.52)"/><line class="a" x1="12.542" transform="translate(170.949 394.353)"/><rect class="cf" width="12.542" height="8.312" transform="translate(170.949 390.197)"/><line class="a" x1="12.542" transform="translate(170.949 406.029)"/><rect class="cg" width="12.542" height="8.312" transform="translate(170.949 401.873)"/><line class="a" x1="12.542" transform="translate(170.949 417.706)"/><rect class="ch" width="12.542" height="8.312" transform="translate(170.949 413.55)"/><line class="a" x1="12.542" transform="translate(170.949 429.382)"/><rect class="ci" width="12.542" height="8.312" transform="translate(170.949 425.226)"/><line class="a" x1="12.542" transform="translate(170.949 441.034)"/><rect class="cj" width="12.542" height="8.312" transform="translate(170.949 436.903)"/><line class="a" x1="12.542" transform="translate(170.949 452.71)"/><rect class="ck" width="12.542" height="8.312" transform="translate(170.949 448.554)"/><line class="a" x1="12.542" transform="translate(170.949 464.387)"/><rect class="cl" width="12.542" height="8.312" transform="translate(170.949 460.231)"/><line class="a" x1="12.542" transform="translate(170.949 476.063)"/><rect class="cm" width="12.542" height="8.312" transform="translate(170.949 471.907)"/><line class="a" x1="12.542" transform="translate(170.949 487.74)"/><rect class="cn" width="12.542" height="8.312" transform="translate(170.949 483.584)"/><line class="a" x1="12.542" transform="translate(170.949 499.416)"/><rect class="co" width="12.542" height="8.312" transform="translate(170.949 495.26)"/><rect class="f" width="85.891" height="353.832" transform="translate(187.993 154.466)"/><line class="a" x1="74.165" transform="translate(198.532 184.25)"/><rect class="cp" width="74.165" height="8.312" transform="translate(198.532 180.094)"/><line class="a" x1="74.165" transform="translate(198.532 195.927)"/><rect class="cq" width="74.165" height="8.312" transform="translate(198.532 191.771)"/><line class="a" x1="74.165" transform="translate(198.532 207.603)"/><rect class="cr" width="74.165" height="8.312" transform="translate(198.532 203.447)"/><line class="a" x2="74.165" transform="translate(198.532 219.28)"/><rect class="cs" width="74.165" height="8.312" transform="translate(198.532 215.124)"/><line class="a" x1="74.165" transform="translate(198.532 230.932)"/><rect class="ct" width="74.165" height="8.312" transform="translate(198.532 226.8)"/><line class="a" x1="74.165" transform="translate(198.532 242.608)"/><rect class="cu" width="74.165" height="8.312" transform="translate(198.532 238.452)"/><line class="a" x1="74.165" transform="translate(198.532 254.285)"/><rect class="cv" width="74.165" height="8.312" transform="translate(198.532 250.129)"/><line class="a" x1="74.165" transform="translate(198.532 265.961)"/><rect class="cw" width="74.165" height="8.312" transform="translate(198.532 261.805)"/><line class="a" x1="74.165" transform="translate(198.532 277.637)"/><rect class="cx" width="74.165" height="8.312" transform="translate(198.532 273.482)"/><line class="a" x1="74.165" transform="translate(198.532 289.314)"/><rect class="cy" width="74.165" height="8.312" transform="translate(198.532 285.158)"/><line class="a" x1="74.165" transform="translate(198.532 300.966)"/><rect class="cz" width="74.165" height="8.312" transform="translate(198.532 296.834)"/><line class="a" x1="74.165" transform="translate(198.532 312.642)"/><rect class="da" width="74.165" height="8.312" transform="translate(198.532 308.486)"/><line class="a" x1="74.165" transform="translate(198.532 324.319)"/><rect class="db" width="74.165" height="8.312" transform="translate(198.532 320.163)"/><line class="a" x1="74.165" transform="translate(198.532 335.995)"/><rect class="dc" width="74.165" height="8.312" transform="translate(198.532 331.839)"/><line class="a" x1="74.165" transform="translate(198.532 347.672)"/><rect class="dd" width="74.165" height="8.312" transform="translate(198.532 343.516)"/><line class="a" x1="74.165" transform="translate(198.532 359.348)"/><rect class="de" width="74.165" height="8.312" transform="translate(198.532 355.192)"/><line class="a" x1="74.165" transform="translate(198.532 371)"/><rect class="df" width="74.165" height="8.312" transform="translate(198.532 366.868)"/><line class="a" x1="74.165" transform="translate(198.532 382.676)"/><rect class="dg" width="74.165" height="8.312" transform="translate(198.532 378.52)"/><line class="a" x1="74.165" transform="translate(198.532 394.353)"/><rect class="dh" width="74.165" height="8.312" transform="translate(198.532 390.197)"/><line class="a" x1="74.165" transform="translate(198.532 406.029)"/><rect class="di" width="74.165" height="8.312" transform="translate(198.532 401.873)"/><line class="a" x1="74.165" transform="translate(198.532 417.706)"/><rect class="dj" width="74.165" height="8.312" transform="translate(198.532 413.55)"/><line class="a" x1="74.165" transform="translate(198.532 429.382)"/><rect class="dk" width="74.165" height="8.312" transform="translate(198.532 425.226)"/><line class="a" x1="74.165" transform="translate(198.532 441.034)"/><rect class="dl" width="74.165" height="8.312" transform="translate(198.532 436.903)"/><line class="a" x1="74.165" transform="translate(198.532 452.71)"/><rect class="dm" width="74.165" height="8.312" transform="translate(198.532 448.554)"/><line class="a" x1="74.165" transform="translate(198.532 464.387)"/><rect class="dn" width="74.165" height="8.312" transform="translate(198.532 460.231)"/><line class="a" x1="74.165" transform="translate(198.532 476.063)"/><rect class="do" width="74.165" height="8.312" transform="translate(198.532 471.907)"/><line class="a" x1="74.165" transform="translate(198.532 487.74)"/><rect class="dp" width="74.165" height="8.312" transform="translate(198.532 483.584)"/><line class="a" x1="74.165" transform="translate(198.532 499.416)"/><rect class="dq" width="74.165" height="8.312" transform="translate(198.532 495.26)"/><rect class="a" width="16.698" height="334.882" transform="translate(331.871 170.57)"/><rect class="dr" width="16.698" height="334.882" transform="translate(331.858 170.57)"/><rect class="ds" width="66.323" height="3.958" transform="translate(273.884 195.605)"/><g transform="translate(335.953 199.44)"><rect class="dt" width="15.239" height="27.534" transform="translate(0 30.873)"/><rect class="du" width="15.239" height="27.534" transform="translate(0 62.514)"/><rect class="dv" width="15.239" height="27.534" transform="translate(0 94.129)"/><rect class="dw" width="15.239" height="27.534" transform="translate(0 125.769)"/><rect class="dx" width="15.239" height="27.534" transform="translate(0 157.385)"/><rect class="dy" width="15.239" height="27.534" transform="translate(0 189.025)"/><rect class="dz" width="15.239" height="27.459" transform="translate(0 220.641)"/><rect class="ea" width="15.56" height="26.767" transform="translate(0.025)"/></g><path class="eb" d="M531.122,493.324H429.2V198.171h20.434l-.421-19.37,82.131-20.211-.223,39.581Z" transform="translate(-199.251 12.129)"/><path class="ec" d="M496.346,310.7H478.807c1.385,97.221-21.547,192.439-21.547,192.439l.445-192.439V232.11h38.641Z" transform="translate(-226.32 -21.414)"/><rect class="a" width="74.561" height="27.534" transform="translate(276.977 198.698)"/><rect class="a" width="74.239" height="27.534" transform="translate(276.952 230.313)"/><rect class="a" width="74.239" height="27.534" transform="translate(276.952 261.953)"/><rect class="a" width="74.239" height="27.534" transform="translate(276.952 293.569)"/><rect class="a" width="74.239" height="27.534" transform="translate(276.952 325.209)"/><rect class="a" width="74.239" height="27.534" transform="translate(276.952 356.825)"/><rect class="a" width="74.239" height="27.534" transform="translate(276.952 388.465)"/><rect class="a" width="74.239" height="27.534" transform="translate(276.952 420.08)"/><rect class="ed" width="74.561" height="27.534" transform="translate(276.63 198.698)"/><rect class="ed" width="74.239" height="27.534" transform="translate(276.79 230.313)"/><rect class="ed" width="74.239" height="27.534" transform="translate(276.79 261.953)"/><rect class="ee" width="74.239" height="27.534" transform="translate(276.79 293.569)"/><rect class="ee" width="74.239" height="27.534" transform="translate(276.79 325.209)"/><rect class="ee" width="74.239" height="27.534" transform="translate(276.79 356.825)"/><rect class="ee" width="74.239" height="27.534" transform="translate(276.79 388.465)"/><rect class="ee" width="74.239" height="27.534" transform="translate(276.79 420.08)"/><rect class="a" width="3.068" height="253.023" transform="translate(299.81 197.931)"/><rect class="ef" width="13.829" height="4.601" transform="translate(255.454 295.325)"/><rect class="eg" width="13.829" height="4.601" transform="translate(255.454 303.464)"/><rect class="eh" width="13.829" height="4.601" transform="translate(255.454 311.578)"/><rect class="ei" width="13.829" height="4.601" transform="translate(255.454 319.717)"/><rect class="ej" width="13.829" height="4.601" transform="translate(255.454 327.832)"/><rect class="ek" width="13.829" height="4.601" transform="translate(255.454 335.97)"/><rect class="el" width="13.829" height="4.601" transform="translate(255.454 344.109)"/><rect class="em" width="13.829" height="4.601" transform="translate(255.454 352.248)"/><rect class="en" width="7.026" height="7.026" transform="translate(238.979 217.573)"/><rect class="eo" width="7.026" height="7.026" transform="translate(252.931 217.573)"/><rect class="ep" width="7.026" height="7.026" transform="translate(238.979 228.829)"/><rect class="eq" width="7.026" height="7.026" transform="translate(252.931 228.829)"/><rect class="er" width="7.026" height="7.026" transform="translate(238.979 240.134)"/><rect class="es" width="7.026" height="7.026" transform="translate(252.931 240.134)"/><rect class="et" width="7.026" height="7.026" transform="translate(238.979 251.415)"/><rect class="eu" width="7.026" height="7.026" transform="translate(252.931 251.415)"/><rect class="ev" width="7.026" height="7.026" transform="translate(238.979 262.671)"/><rect class="ew" width="7.026" height="7.026" transform="translate(252.931 262.671)"/><rect class="ex" width="7.026" height="7.026" transform="translate(238.979 273.952)"/><rect class="ey" width="7.026" height="7.026" transform="translate(252.931 273.952)"/><rect class="a" width="77.678" height="4.156" transform="translate(276.358 195.408)"/><rect class="ez" width="74.536" height="4.156" transform="translate(276.952 199.588)"/><rect class="fa" width="74.264" height="4.156" transform="translate(276.952 230.338)"/><rect class="fa" width="74.264" height="4.156" transform="translate(276.952 261.953)"/><rect class="fa" width="74.264" height="4.156" transform="translate(276.952 293.594)"/><rect class="fb" width="74.264" height="4.156" transform="translate(276.952 325.209)"/><rect class="fb" width="74.264" height="4.156" transform="translate(276.952 356.849)"/><rect class="fb" width="74.264" height="4.156" transform="translate(276.952 388.465)"/><rect class="fb" width="74.264" height="4.156" transform="translate(276.952 420.105)"/><rect class="e" width="173.366" height="213.838" transform="translate(671.873 277.242)"/><rect class="fc" width="160.056" height="5.863" transform="translate(672.096 302.549)"/><rect class="fc" width="160.056" height="5.863" transform="translate(672.096 323.131)"/><rect class="fd" width="160.056" height="5.863" transform="translate(672.096 343.689)"/><rect class="fd" width="160.056" height="5.863" transform="translate(672.096 364.246)"/><rect class="fd" width="160.056" height="5.863" transform="translate(672.096 384.804)"/><rect class="fd" width="160.056" height="5.863" transform="translate(672.096 405.361)"/><rect class="fd" width="160.056" height="5.863" transform="translate(672.096 425.919)"/><rect class="fe" width="144.719" height="213.838" transform="translate(700.52 277.242)"/><rect class="ff" width="267.322" height="129.257" transform="translate(402.597 361.822)"/><rect class="a" width="109.12" height="247.581" transform="translate(1004.059 242.385)"/><rect class="fg" width="109.12" height="247.581" transform="translate(1004.454 244.587)"/><rect class="a" width="36.984" height="247.581" transform="translate(967.075 242.361)"/><rect class="fh" width="36.984" height="247.581" transform="translate(967.075 244.587)"/><rect class="a" width="114.365" height="15.412" transform="translate(1001.832 226.949)"/><rect class="fi" width="114.365" height="15.412" transform="translate(1004.454 226.949)"/><rect class="a" width="40.472" height="15.412" transform="translate(963.587 226.949)"/><rect class="fj" width="40.472" height="15.412" transform="translate(963.588 226.949)"/><rect class="a" width="146.154" height="2.004" transform="translate(967.1 256.511)"/><rect class="a" width="36.984" height="2.004" transform="translate(967.075 256.511)"/><rect class="a" width="146.154" height="2.004" transform="translate(967.1 279.79)"/><rect class="a" width="36.984" height="2.004" transform="translate(967.075 279.79)"/><rect class="a" width="146.154" height="2.004" transform="translate(967.1 303.044)"/><rect class="a" width="36.984" height="2.004" transform="translate(967.075 303.044)"/><rect class="a" width="146.154" height="2.004" transform="translate(967.1 326.322)"/><rect class="a" width="36.984" height="2.004" transform="translate(967.075 326.322)"/><rect class="a" width="146.154" height="2.004" transform="translate(967.1 349.576)"/><rect class="a" width="36.984" height="2.004" transform="translate(967.075 349.576)"/><rect class="fk" width="146.154" height="2.004" transform="translate(967.1 372.83)"/><rect class="fk" width="36.984" height="2.004" transform="translate(967.075 372.83)"/><rect class="a" width="146.154" height="2.004" transform="translate(967.1 396.109)"/><rect class="a" width="36.984" height="2.004" transform="translate(967.075 396.109)"/><rect class="a" width="146.154" height="2.004" transform="translate(967.1 419.363)"/><rect class="a" width="36.984" height="2.004" transform="translate(967.075 419.363)"/><rect class="a" width="146.154" height="2.004" transform="translate(967.1 442.617)"/><rect class="a" width="36.984" height="2.004" transform="translate(967.075 442.617)"/><rect class="a" width="146.154" height="2.004" transform="translate(967.1 465.896)"/><rect class="a" width="36.984" height="2.004" transform="translate(967.075 465.896)"/><rect class="a" width="146.154" height="2.004" transform="translate(967.1 372.83)"/><rect class="a" width="36.984" height="2.004" transform="translate(967.075 372.83)"/><rect class="a" width="109.12" height="213.368" transform="translate(485.471 194.393)"/><rect class="fh" width="109.12" height="208.643" transform="translate(485.471 197.635)"/><rect class="a" width="36.984" height="247.581" transform="translate(448.487 194.393)"/><rect class="fl" width="36.984" height="247.581" transform="translate(448.485 197.633)"/><rect class="a" width="114.365" height="15.412" transform="translate(483.244 178.981)"/><rect class="fm" width="114.365" height="15.412" transform="translate(483.244 178.983)"/><rect class="a" width="40.472" height="15.412" transform="translate(444.999 178.981)"/><rect class="ee" width="40.472" height="15.412" transform="translate(444.997 178.981)"/><rect class="a" width="146.154" height="2.004" transform="translate(448.512 208.544)"/><rect class="a" width="36.984" height="2.004" transform="translate(448.487 208.544)"/><rect class="a" width="146.154" height="2.004" transform="translate(448.512 231.822)"/><rect class="a" width="36.984" height="2.004" transform="translate(448.487 231.822)"/><rect class="a" width="146.154" height="2.004" transform="translate(448.512 255.076)"/><rect class="a" width="36.984" height="2.004" transform="translate(448.487 255.076)"/><rect class="a" width="146.154" height="2.004" transform="translate(448.512 278.33)"/><rect class="a" width="36.984" height="2.004" transform="translate(448.487 278.33)"/><rect class="a" width="146.154" height="2.004" transform="translate(448.512 301.609)"/><rect class="a" width="36.984" height="2.004" transform="translate(448.487 301.609)"/><rect class="fk" width="36.984" height="2.004" transform="translate(448.487 324.863)"/><rect class="a" width="146.154" height="2.004" transform="translate(448.512 348.117)"/><rect class="a" width="36.984" height="2.004" transform="translate(448.487 348.117)"/><rect class="a" width="146.154" height="2.004" transform="translate(448.512 371.396)"/><rect class="a" width="36.984" height="2.004" transform="translate(448.487 371.396)"/><rect class="a" width="146.154" height="2.004" transform="translate(448.512 394.65)"/><rect class="a" width="36.984" height="2.004" transform="translate(448.487 394.65)"/><rect class="fk" width="36.984" height="2.004" transform="translate(448.487 417.928)"/><rect class="a" width="146.154" height="2.004" transform="translate(448.437 324.863)"/><rect class="a" width="36.984" height="2.004" transform="translate(448.487 324.863)"/><rect class="fn" width="113.079" transform="translate(504.197 407.761)"/><rect class="fo" width="189.619" height="19.815" transform="translate(665.293 265.491)"/></g><g transform="translate(394.502 586.194)"><ellipse class="fp" cx="310.379" cy="11.076" rx="310.379" ry="11.076" transform="translate(0 343.932)"/><rect class="fq" width="439.857" height="240.497" rx="20.42" transform="translate(90.45 109.104)"/><path class="fp" d="M622.857,295.13v6.107H183V295.13a10.77,10.77,0,0,1,10.77-10.77H612.087A10.77,10.77,0,0,1,622.857,295.13Z" transform="translate(-92.55 -175.256)"/><circle class="a" cx="3.164" cy="3.164" r="3.164" transform="translate(98.625 114.642)"/><circle class="a" cx="3.164" cy="3.164" r="3.164" transform="translate(106.536 114.642)"/><circle class="a" cx="3.164" cy="3.164" r="3.164" transform="translate(114.447 114.642)"/><path class="fr" d="M347.5,503.86" transform="translate(-170.291 -278.99)"/><path class="fr" d="M333.5,502.86" transform="translate(-163.675 -278.517)"/><rect class="a" width="50.631" height="41.138" rx="9.29" transform="translate(157.431 153.934)"/><rect class="fs" width="50.631" height="41.138" rx="9.29" transform="translate(216.443 153.711)"/><rect class="a" width="50.631" height="41.138" rx="9.29" transform="translate(275.57 153.934)"/><rect class="a" width="50.631" height="41.138" rx="9.29" transform="translate(334.639 153.934)"/><rect class="fs" width="50.631" height="41.138" rx="9.29" transform="translate(393.534 153.711)"/><rect class="a" width="50.631" height="41.138" rx="9.29" transform="translate(157.431 223.024)"/><rect class="a" width="50.631" height="41.138" rx="9.29" transform="translate(216.5 223.024)"/><path class="fs" d="M9.29,0H41.341a9.29,9.29,0,0,1,9.29,9.29V31.848a9.29,9.29,0,0,1-9.29,9.29H9.29A9.29,9.29,0,0,1,0,31.848V9.29A9.29,9.29,0,0,1,9.29,0Z" transform="translate(275.473 222.918)"/><rect class="a" width="50.631" height="41.138" rx="9.29" transform="translate(334.639 223.024)"/><rect class="a" width="50.631" height="41.138" rx="9.29" transform="translate(393.709 223.024)"/><rect class="a" width="50.631" height="41.138" rx="9.29" transform="translate(157.431 292.114)"/><rect class="a" width="50.631" height="41.138" rx="9.29" transform="translate(216.5 292.114)"/><rect class="a" width="50.631" height="41.138" rx="9.29" transform="translate(275.57 292.114)"/><rect class="ft" width="50.631" height="41.138" rx="9.29" transform="translate(334.503 292.126)"/><rect class="a" width="50.631" height="41.138" rx="9.29" transform="translate(393.709 292.114)"/><path class="fu" d="M1011.447,689.44c-1.582-2.906.211-6.471,2.263-9.061s4.541-5.274,4.488-8.591c-.079-4.747-5.116-7.552-9.14-10.068a44.3,44.3,0,0,1-8.206-6.6,12.03,12.03,0,0,1-2.521-3.375,13.692,13.692,0,0,1-.759-6q.269-10.158,1.007-20.3" transform="translate(-477.501 -336.453)"/><path class="fv" d="M984.993,618.425a7.383,7.383,0,0,1,3.692-6.065l1.656,3.28-.053-3.971a7.5,7.5,0,0,1,2.442-.3,7.384,7.384,0,1,1-7.737,7.052Z" transform="translate(-471.563 -329.797)"/><path class="fv" d="M1009.263,710.09a7.384,7.384,0,1,0-.359-5.96l4.625,3.76-5.09-1.176A7.384,7.384,0,0,0,1009.263,710.09Z" transform="translate(-482.647 -371.363)"/><path class="fv" d="M1010.673,679.249a7.384,7.384,0,0,0,2.32-14.5l.042,3.048-1.677-3.317h0a7.384,7.384,0,0,0-7.737,7.046,7.3,7.3,0,0,0,.316,2.526,7.384,7.384,0,0,0,6.735,5.195Z" transform="translate(-480.366 -354.895)"/><path class="fv" d="M976.558,656.592a7.384,7.384,0,1,0-3.275-13.855l1.308,3.586-2.69-2.584a7.383,7.383,0,0,0-2.389,5.111,7.269,7.269,0,0,0,.184,2.041,7.384,7.384,0,0,0,6.862,5.7Z" transform="translate(-464.246 -344.193)"/><path class="fw" d="M986.129,624.029c1.709.185,3.37.717,5.084.823a5.529,5.529,0,0,0,4.683-1.635,22.91,22.91,0,0,0,1.366-2.41,5.275,5.275,0,0,1,1.867-1.756,7.384,7.384,0,1,1-13.839,4.915Q985.712,623.981,986.129,624.029Z" transform="translate(-471.707 -333.428)"/><path class="fw" d="M976.746,660.368a7.384,7.384,0,0,0,7.041-10.548,5.469,5.469,0,0,0-1.487,1.487,24.218,24.218,0,0,1-1.466,2.447,6.064,6.064,0,0,1-4.91,1.719c-1.788-.079-3.513-.591-5.274-.754-.248,0-.5-.037-.749-.042a7.384,7.384,0,0,0,6.846,5.691Z" transform="translate(-464.434 -347.97)"/><path class="fw" d="M1010.974,683.151a7.384,7.384,0,0,0,7.1-10.421,6.055,6.055,0,0,0-1.582,1.5c-.575.812-.934,1.746-1.582,2.495a6.856,6.856,0,0,1-5.237,1.841c-1.888-.042-3.6-.491-5.422-.633a7.384,7.384,0,0,0,6.724,5.216Z" transform="translate(-480.667 -358.797)"/><path class="fw" d="M1010,714.329a7.393,7.393,0,1,0,13.5-6.039,7.167,7.167,0,0,0-1.625,1.45,32.182,32.182,0,0,1-1.983,2.637,9.219,9.219,0,0,1-6.134,2.157,31.609,31.609,0,0,1-3.755-.206Z" transform="translate(-483.385 -375.602)"/><path class="fx" d="M1025.587,737.6s-5.844-.179-7.605-1.434-8.966-2.748-9.42-.738-8.781,10.021-2.189,10.052,15.327-1.055,17.088-2.11S1025.587,737.6,1025.587,737.6Z" transform="translate(-480.476 -387.963)"/><path class="fy" d="M1006.278,747.6c6.6.053,15.326-1.028,17.083-2.11,1.34-.818,1.872-3.74,2.052-5.09h.2s-.369,4.715-2.11,5.8-10.49,2.152-17.088,2.11c-1.9,0-2.558-.691-2.521-1.693C1004.136,747.209,1004.859,747.573,1006.278,747.6Z" transform="translate(-480.496 -390.777)"/><path class="fu" d="M177.452,657.322c-2.315-4.283.311-9.535,3.328-13.359s6.7-7.8,6.624-12.658c-.116-7-7.542-11.128-13.48-14.841a65.719,65.719,0,0,1-12.1-9.725,17.819,17.819,0,0,1-3.692-4.979c-1.229-2.737-1.192-5.849-1.113-8.85q.38-14.978,1.477-29.93" transform="translate(-80.256 -306.93)"/><path class="fv" d="M138.4,552.585a10.907,10.907,0,0,1,5.448-8.966l2.447,4.836-.074-5.854a10.917,10.917,0,1,1-7.821,9.963Z" transform="translate(-71.466 -297.088)"/><path class="fv" d="M174.224,687.749a10.912,10.912,0,1,0-.527-8.786l6.814,5.543L173,682.77A10.869,10.869,0,0,0,174.224,687.749Z" transform="translate(-87.824 -358.378)"/><path class="fv" d="M176.213,642.267a10.917,10.917,0,0,0,3.46-21.413l.058,4.493-2.474-4.889h-.026a10.917,10.917,0,1,0-1.018,21.81Z" transform="translate(-84.423 -334.088)"/><path class="fv" d="M125.958,608.833a10.923,10.923,0,0,0,11.413-10.4,10.78,10.78,0,0,0-1.055-5.174,10.9,10.9,0,0,0-15.205-4.857l1.925,5.274-3.966-3.808a10.917,10.917,0,0,0,6.856,18.95Z" transform="translate(-60.665 -318.285)"/><path class="fw" d="M140.089,560.866c2.516.279,4.968,1.055,7.494,1.218s5.306-.448,6.9-2.416a33.9,33.9,0,0,0,2.02-3.549,7.79,7.79,0,0,1,2.748-2.589,10.917,10.917,0,1,1-20.405,7.246C139.261,560.792,139.678,560.824,140.089,560.866Z" transform="translate(-71.685 -302.464)"/><path class="fw" d="M126.217,614.439a10.923,10.923,0,0,0,11.413-10.4,10.781,10.781,0,0,0-1.055-5.174,8.114,8.114,0,0,0-2.194,2.194,34.914,34.914,0,0,1-2.162,3.607c-1.7,2-4.6,2.637-7.236,2.532s-5.179-.865-7.8-1.108c-.364-.032-.733-.058-1.1-.068A10.912,10.912,0,0,0,126.217,614.439Z" transform="translate(-60.924 -323.891)"/><path class="fw" d="M176.646,648.049a10.912,10.912,0,0,0,10.469-15.369,8.8,8.8,0,0,0-2.3,2.22,38.453,38.453,0,0,1-2.373,3.692c-1.841,2.052-4.937,2.774-7.726,2.711-2.7-.063-5.306-.722-7.99-.928A10.923,10.923,0,0,0,176.646,648.049Z" transform="translate(-84.856 -339.869)"/><path class="fw" d="M175.32,694.018a10.917,10.917,0,0,0,19.9-8.908,11.025,11.025,0,0,0-2.4,2.11A46.664,46.664,0,0,1,189.9,691.1c-2.231,2.189-5.833,3.09-9.04,3.164A46.988,46.988,0,0,1,175.32,694.018Z" transform="translate(-88.92 -364.647)"/><path class="fx" d="M198.277,728.344s-8.613-.264-11.213-2.11-13.248-4.056-13.892-1.092-12.948,14.767-3.222,14.825,22.6-1.514,25.189-3.1S198.277,728.344,198.277,728.344Z" transform="translate(-84.621 -382.882)"/><path class="fy" d="M169.818,743.086c9.725.079,22.6-1.514,25.189-3.091,1.973-1.2,2.764-5.517,3.022-7.505h.29s-.527,6.946-3.138,8.523-15.464,3.164-25.189,3.1c-2.806,0-3.776-1.023-3.724-2.5C166.653,742.511,167.708,743.07,169.818,743.086Z" transform="translate(-84.642 -387.039)"/><g transform="translate(436.163 156.164)"><path class="fz" d="M855.646,302.092c2.09,1.234,5.351,2.037,9.482-.615l-.04,5.873c.294,4.014,5.274,18.7,5.274,18.7l3.512,12.074a94.473,94.473,0,0,1,3.86,26.265,25.135,25.135,0,0,0,1.12,8.268c1.87,5.054-.736,11.566-1.866,13.991a58.765,58.765,0,0,1-5.8,1.632,3.985,3.985,0,0,0-.518.157l-.023-.033s-5.271,2.09-7.612,1.8c-1.746-.214-2.84,1.963-1.472,3.565a10.7,10.7,0,0,1-3.508.462c-2.341-.288-3.515,3.739.88,4.89s29.3,0,29.3,0a3.532,3.532,0,0,0,1.873-3.9c1.913-.074,3.107-.13,3.107-.13s4.395-2.007,0-7.482l-.234.177-.94-2.766v-3.736s5.566-26.757,3.81-29.921-2.636-19.275-2.636-19.275l.6-17.549c1.589-3.278,2.4-8.415,2.813-12.432a26.385,26.385,0,0,0,1.124-5.9c.07-.943.127-1.933.164-2.96a19.842,19.842,0,0,0-1.09-6.619,65.682,65.682,0,0,1,6.636-8.331,8.549,8.549,0,0,0,2.636-7.482l-1.465-9.783-3.515-16.686c.442-4.629-.525-7.295-1.592-8.8.254-1.5.492-2.99.669-4.492a57.481,57.481,0,0,0-1.027-19.559,13.245,13.245,0,0,0-2.769-6.228c-1.776-1.92-4.659-3.09-5.321-5.606a16.258,16.258,0,0,0-.408-1.893c-.642-1.646-2.676-2.244-4.455-2.458-3.171-.385-7.756-.669-10.8.569a13.107,13.107,0,0,0-6.221,5.833,4.385,4.385,0,0,0-.191,4.816,11.038,11.038,0,0,0-.682,3.843,11.224,11.224,0,0,0,7.164,10.412c.07.221.134.438.187.652a11.193,11.193,0,0,1,.288,1.569c-.057,1-.12,2.037-.167,3.057q-.05.211-.107.415a75.414,75.414,0,0,0-7.358,3.753c1.759,2.589-.294,13.522-.294,13.522-4.395,2.589-8.79,9.208-4.1,16.111a17.225,17.225,0,0,1,2.05,14.382l-.732,11.248h0v.02l-.147,2.251h.057l-.057.853.127.023v.916a13.661,13.661,0,0,0-6.857,5.1,18,18,0,0,1-3.067,3.763,2.261,2.261,0,0,0,.351,3.669ZM891.019,272.2a10.7,10.7,0,0,1,1.04-5.659q1.034.02,2.07.023c.07.485.154.947.254,1.368.6,2.535-1.783,3.749-3.368,4.264Z" transform="translate(-854.513 -194.987)"/><path class="ga" d="M918.8,754.791l1.127,3.381-3.679,3.679-12.121,2.82-8.74-.846.565-3.1h0a3.739,3.739,0,0,1,2.776-2.733c3.592-.843,10.442-2.769,11.88-5.442Z" transform="translate(-881.718 -566.067)"/><path class="gb" d="M885.281,772.476l1.693-2.254-1.693-2.612s-5.074,2.047-7.328,1.766-3.381,3.679.846,4.793,28.188,0,28.188,0,4.228-1.973,0-7.328l-3.679,2.819s-6.2,3.381-9.3,2.82Z" transform="translate(-868.776 -575.577)"/><path class="ga" d="M881.1,775.545l8.739.846,12.121-2.819,3.679-3.679-.3-.9-.421-1.258-.421-1.224-8.174-2.254a5.065,5.065,0,0,1-1.672,1.672c-2.656,1.816-7.425,3.127-10.224,3.783a2.9,2.9,0,0,0-.335.1,3.726,3.726,0,0,0-2.428,2.629Z" transform="translate(-872.208 -573.86)"/><path class="fw" d="M881.1,784.969l8.739.846L901.96,783l3.679-3.679-.3-.9-3.365,2.589s-6.2,3.381-9.3,2.82H883.92l1.692-2.254-1.518-2.341a3.726,3.726,0,0,0-2.428,2.629Z" transform="translate(-872.208 -583.284)"/><path class="gb" d="M870.951,784.276l1.692-2.254-1.692-2.612s-5.074,2.047-7.328,1.766-3.382,3.679.846,4.793,28.188,0,28.188,0,4.228-1.973,0-7.328l-3.679,2.82s-6.2,3.381-9.3,2.819Z" transform="translate(-859.239 -583.431)"/><path class="gc" d="M910.6,276.937s13.532,1.408,11.559-4.228a10.147,10.147,0,0,1-.418-4.977A13.794,13.794,0,0,1,924.132,262l-12.686,1.973a15.878,15.878,0,0,1,1.719,4.074C914.677,274.024,910.6,276.937,910.6,276.937Z" transform="translate(-891.841 -239.587)"/><path class="gd" d="M947.145,498.82s-.281,12.121-3.1,18.041l-.565,17.195s.846,15.786,2.538,18.887-3.679,29.316-3.679,29.316v4.512s-9.03,3.381-11.559-.565l2.538-33.547-1.127-46.51Z" transform="translate(-905.272 -397.2)"/><path class="fw" d="M947.145,498.82s-.281,12.121-3.1,18.041l-.565,17.195s.846,15.786,2.538,18.887-3.679,29.316-3.679,29.316v4.512s-9.03,3.381-11.559-.565l2.538-33.547-1.127-46.51Z" transform="translate(-905.272 -397.2)"/><path class="ge" d="M971.333,382.51l1.692,4.512,1.408,9.586a8.478,8.478,0,0,1-2.539,7.328c-3.381,3.381-7.893,10.429-7.893,10.429L958.65,398.31s5.351-.846,4.512-4.512-.568-10.455-.568-10.455Z" transform="translate(-923.82 -319.791)"/><path class="gf" d="M971.333,382.51l1.692,4.512,1.408,9.586a8.478,8.478,0,0,1-2.539,7.328c-3.381,3.381-7.893,10.429-7.893,10.429L958.65,398.31s5.351-.846,4.512-4.512-.568-10.455-.568-10.455Z" transform="translate(-923.82 -319.791)"/><path class="fw" d="M921.66,765.936c3.616,5.686,9.244,2.465,10.241,1.823l-.408-1.244-8.174-2.254a5.063,5.063,0,0,1-1.659,1.676Z" transform="translate(-899.202 -573.86)"/><path class="gd" d="M887.85,469.4c.281,3.947,5.074,18.322,5.074,18.322l3.381,11.83a94.132,94.132,0,0,1,3.716,25.734,24.992,24.992,0,0,0,1.08,8.1c2.254,6.2-2.254,14.659-2.254,14.659,3.947,7.047,10.7,2.254,10.7,2.254v-4.508s5.351-24.526,3.947-29.315-1.973-17.76-1.973-17.76V475.306a26.549,26.549,0,0,0,7.736-16.83c.067-.923.12-1.893.157-2.9.228-6.355-4.121-13.817-5.819-16.472-.408-.642-.669-1-.669-1l-24.891,9.873-.057.023v3.094Z" transform="translate(-876.7 -356.788)"/><path class="fw" d="M913.13,263.97a15.882,15.882,0,0,1,1.719,4.074,11.037,11.037,0,0,0,8.576-.314A13.8,13.8,0,0,1,925.816,262Z" transform="translate(-893.525 -239.587)"/><circle class="ga" cx="10.994" cy="10.994" r="10.994" transform="translate(14.25 6.62)"/><path class="fw" d="M887.85,451.107l.12.023c11.82,2.432,26.66-9.89,26.66-9.89a14.632,14.632,0,0,1-1.027-2.1c-.408-.642-.669-1-.669-1l-24.891,9.873-.063.987Z" transform="translate(-876.7 -356.815)"/><path class="gg" d="M884.854,292.692s15.786-9.586,20.86-5.639l7.047,9.03s4.512,1.408,3.679,10.429l3.368,16.345L909.661,325.4s-5.92,5.639-1.127,13.813c0,0-14.94,12.4-26.781,9.867l.846-13.248a17.157,17.157,0,0,0-1.973-14.094c-4.512-6.766-.281-13.248,3.947-15.787C884.573,305.944,886.543,295.231,884.854,292.692Z" transform="translate(-870.603 -255.626)"/><path class="ga" d="M869.868,477.75s-5.92,1.127-8.74,5.639a17.572,17.572,0,0,1-2.95,3.679,2.238,2.238,0,0,0,.334,3.565c2.238,1.338,5.887,2.171,10.5-1.615C876.915,482.543,869.868,477.75,869.868,477.75Z" transform="translate(-856.464 -383.177)"/><path class="fw" d="M901.679,321.409s5.639-.565,7.047,14.094,3.679,18.041,3.679,18.041,1.408,7.612-1.973,12.121-9.867,14.094-9.867,14.094-7.047,1.973-8.455-5.074l8.739-16.348s1.408-5.639-1.973-9.586S892.939,318.589,901.679,321.409Z" transform="translate(-879.535 -278.985)"/><path class="gg" d="M899.959,318.879s5.639-.565,7.047,14.094,3.679,18.041,3.679,18.041,1.408,7.612-1.973,12.121-9.867,14.094-9.867,14.094-7.047,1.973-8.455-5.074l8.74-16.349s1.408-5.639-1.973-9.586S891.229,316.059,899.959,318.879Z" transform="translate(-878.391 -277.301)"/><path class="fw" d="M905.014,350.9s-.562,8.729,1.967,13.532,2.538,10.994,0,14.382" transform="translate(-888.088 -298.753)"/><path class="fw" d="M900.91,309.343s2.254-2.254,8.739-2.539,9.3-2.254,9.3-2.254" transform="translate(-885.392 -267.905)"/><path class="fw" d="M914.3,204.535c1.713.211,3.679.8,4.288,2.408a16.54,16.54,0,0,1,.391,1.856c.639,2.462,3.412,3.609,5.121,5.492a13.3,13.3,0,0,1,2.676,6.1,57.328,57.328,0,0,1,1,19.151c-.548,4.682-1.672,9.278-1.987,13.974s.261,9.636,2.826,13.582c1.1,1.7,2.562,3.187,3.344,5.054-1.615,1.311-3.846,1.5-5.93,1.569q-3.636.124-7.275,0a7.759,7.759,0,0,1-3.7-.769,5.709,5.709,0,0,1-1.94-2.084,14.814,14.814,0,0,1-1.672-7.913c.064-2.729.492-5.445.542-8.178a7.153,7.153,0,0,0-.947-4.288,13.976,13.976,0,0,0-2.361-2.184c-3.01-2.676-4.054-6.963-4.154-10.994s.565-8.067.224-12.084c-.134-1.572-.722-3.462-2.268-3.766a7.979,7.979,0,0,1-1.472-.187c-1.241-.478-1.12-2.228-1.475-3.508-.4-1.438-1.625-2.549-1.97-4.014-.813-3.411,3.529-7.482,6.375-8.669C906.84,203.872,911.251,204.16,914.3,204.535Z" transform="translate(-883.104 -201.125)"/><path class="gd" d="M915.141,202.85c1.712.211,3.679.8,4.288,2.408a16.515,16.515,0,0,1,.391,1.856c.639,2.462,3.412,3.609,5.121,5.492a13.3,13.3,0,0,1,2.676,6.1,57.327,57.327,0,0,1,1,19.151c-.549,4.682-1.672,9.278-1.987,13.974s.261,9.636,2.826,13.582c1.1,1.7,2.562,3.187,3.345,5.054-1.615,1.311-3.846,1.5-5.93,1.569q-3.636.124-7.275,0a7.757,7.757,0,0,1-3.7-.769,5.707,5.707,0,0,1-1.94-2.084,14.815,14.815,0,0,1-1.672-7.913c.064-2.729.492-5.445.542-8.178a7.155,7.155,0,0,0-.947-4.288,13.969,13.969,0,0,0-2.361-2.184c-3.01-2.676-4.054-6.963-4.154-10.994s.565-8.067.224-12.084c-.134-1.572-.722-3.462-2.268-3.766a7.981,7.981,0,0,1-1.472-.187c-1.241-.478-1.12-2.228-1.475-3.509-.4-1.438-1.625-2.549-1.97-4.014-.813-3.412,3.529-7.482,6.375-8.669C907.68,202.184,912.091,202.472,915.141,202.85Z" transform="translate(-883.363 -199.154)"/></g><path class="gh" d="M229.282,517.152,235.227,523a1.481,1.481,0,0,1-1.04,2.535h-.253a1.5,1.5,0,0,1-1.049-.431l-5.786-5.791a1.485,1.485,0,0,0-2.094,0l-5.786,5.791a1.476,1.476,0,0,1-1.045.431h-.258a1.481,1.481,0,0,1-1.04-2.535l5.95-5.852a1.471,1.471,0,0,0,0-2.08h0l-6.006-6.006a1.481,1.481,0,0,1,1.045-2.525h0a1.47,1.47,0,0,1,1.035.421l6.09,6.006a1.48,1.48,0,0,0,2.075,0l6.09-6.006a1.471,1.471,0,0,1,1.035-.422h0a1.481,1.481,0,0,1,1.049,2.525l-6.006,6.006a1.471,1.471,0,0,0,.028,2.08h0Z" transform="translate(133.721 -203.558)"/><path class="fv" d="M365.08,440.369l5.492,8.532a1.711,1.711,0,0,0,2.359.512,1.868,1.868,0,0,0,.365-.321l15.125-17.435a1.7,1.7,0,0,0-1.28-2.817h-.125a1.7,1.7,0,0,0-1.308.61l-11.834,14.166a1.7,1.7,0,0,1-2.386.223,1.733,1.733,0,0,1-.338-.381l-3.22-4.9a1.706,1.706,0,0,0-1.678-.746h0a1.694,1.694,0,0,0-1.171,2.539Z" transform="translate(-75.797 -195.744)"/><path class="fv" d="M365.08,440.369l5.492,8.532a1.711,1.711,0,0,0,2.359.512,1.868,1.868,0,0,0,.365-.321l15.125-17.435a1.7,1.7,0,0,0-1.28-2.817h-.125a1.7,1.7,0,0,0-1.308.61l-11.834,14.166a1.7,1.7,0,0,1-2.386.223,1.733,1.733,0,0,1-.338-.381l-3.22-4.9a1.706,1.706,0,0,0-1.678-.746h0a1.694,1.694,0,0,0-1.171,2.539Z" transform="translate(42.263 -264.951)"/><path class="fv" d="M365.08,440.369l5.492,8.532a1.711,1.711,0,0,0,2.359.512,1.868,1.868,0,0,0,.365-.321l15.125-17.435a1.7,1.7,0,0,0-1.28-2.817h-.125a1.7,1.7,0,0,0-1.308.61l-11.834,14.166a1.7,1.7,0,0,1-2.386.223,1.733,1.733,0,0,1-.338-.381l-3.22-4.9a1.706,1.706,0,0,0-1.678-.746h0a1.694,1.694,0,0,0-1.171,2.539Z" transform="translate(-134.827 -264.952)"/></g></g></g></svg>