<svg xmlns="http://www.w3.org/2000/svg" xmlns:xlink="http://www.w3.org/1999/xlink" width="768" height="404" viewBox="0 0 768 404"><defs><style>.a{fill:#fff;}.b{clip-path:url(#a);}.c{opacity:0.8;}.d{fill:#f3f3f3;opacity:0.52;}.aj,.e,.fp,.fq,.fr,.g{fill:#387dff;}.e,.gh{opacity:0.1;}.cp,.f{opacity:0.4;}.f{fill:url(#b);}.g{opacity:0.15;}.h{fill:url(#c);}.i{fill:url(#d);}.j{fill:url(#e);}.k{fill:url(#f);}.l{fill:url(#g);}.m{fill:url(#h);}.n{fill:url(#i);}.o{fill:url(#j);}.p{fill:url(#k);}.q{fill:url(#l);}.r{fill:url(#m);}.s{fill:url(#n);}.t{fill:url(#o);}.u{fill:url(#p);}.v{fill:url(#q);}.w{fill:url(#r);}.x{fill:url(#s);}.y{fill:url(#t);}.z{fill:url(#u);}.aa{fill:url(#v);}.ab{fill:url(#w);}.ac{fill:url(#x);}.ad{fill:url(#y);}.ae{fill:url(#z);}.af{fill:url(#aa);}.ag{fill:url(#ab);}.ah{fill:url(#ac);}.ai{fill:url(#ad);}.aj{opacity:0.19;}.ak{fill:url(#ae);}.al{fill:url(#af);}.am{fill:url(#ag);}.an{fill:url(#ah);}.ao{fill:url(#ai);}.ap{fill:url(#aj);}.aq{fill:url(#ak);}.ar{fill:url(#al);}.as{fill:url(#am);}.at{fill:url(#an);}.au{fill:url(#ao);}.av{fill:url(#ap);}.aw{fill:url(#aq);}.ax{fill:url(#ar);}.ay{fill:url(#as);}.az{fill:url(#at);}.ba{fill:url(#au);}.bb{fill:url(#av);}.bc{fill:url(#aw);}.bd{fill:url(#ax);}.be{fill:url(#ay);}.bf{fill:url(#az);}.bg{fill:url(#ba);}.bh{fill:url(#bb);}.bi{fill:url(#bc);}.bj{fill:url(#bd);}.bk{fill:url(#be);}.bl{fill:url(#bf);}.bm{fill:rgba(56,125,255,0.41);}.bn{fill:url(#bg);}.bo{fill:url(#bh);}.bp{fill:url(#bi);}.bq{fill:url(#bj);}.br{fill:url(#bk);}.bs{fill:url(#bl);}.bt{fill:url(#bm);}.bu{fill:url(#bn);}.bv{fill:url(#bo);}.bw{fill:url(#bp);}.bx{fill:url(#bq);}.by{fill:url(#br);}.bz{fill:url(#bs);}.ca{fill:url(#bt);}.cb{fill:url(#bu);}.cc{fill:url(#bv);}.cd{fill:url(#bw);}.ce{fill:url(#bx);}.cf{fill:url(#by);}.cg{fill:url(#bz);}.ch{fill:url(#ca);}.ci{fill:url(#cb);}.cj{fill:url(#cc);}.ck{fill:url(#cd);}.cl{fill:url(#ce);}.cm{fill:url(#cf);}.cn{fill:url(#cg);}.co{fill:url(#ch);}.cp,.fn,.fu,.fw,.gd{fill:url(#ci);}.cq{fill:url(#cj);}.cr{fill:url(#ck);}.cs{fill:url(#cl);}.ct{fill:url(#cm);}.cu{fill:url(#cn);}.cv{fill:url(#co);}.cw{fill:url(#cp);}.cx{fill:url(#cq);}.cy{fill:url(#cr);}.cz{fill:url(#cs);}.da{fill:url(#ct);}.db{fill:url(#cu);}.dc{fill:url(#cv);}.dd{fill:url(#cw);}.de{fill:url(#cx);}.df{fill:url(#cy);}.dg{fill:url(#cz);}.dh{fill:url(#da);}.di{fill:url(#db);}.dj{fill:url(#dc);}.dk{fill:url(#dd);}.dl{fill:url(#de);}.dm{fill:url(#df);}.dn{fill:url(#dg);}.do{fill:url(#dh);}.dp{fill:url(#di);}.dq{fill:url(#dj);}.dr{fill:url(#dk);}.ds{opacity:0.92;fill:url(#dl);}.dt{fill:#cacaca;}.du{fill:url(#dm);}.dv{fill:url(#dn);}.dw{fill:url(#do);}.dx{fill:url(#dp);}.dy{fill:url(#dq);}.dz{fill:url(#dr);}.ea{fill:url(#ds);}.eb{fill:url(#dt);}.ec{fill:rgba(56,125,255,0.27);}.ed{fill:rgba(56,125,255,0.44);}.ee,.ef,.eg{opacity:0.3;}.ee{fill:url(#du);}.ef{fill:url(#dv);}.eg{fill:url(#dw);}.eh,.ei,.ej,.ek,.el,.fs,.fx{opacity:0.5;}.eh{fill:url(#dx);}.ei{fill:url(#dy);}.ej{fill:url(#dz);}.ek{fill:url(#ea);}.el{fill:url(#eb);}.em{fill:url(#ec);}.en{fill:url(#ed);}.eo{fill:url(#ee);}.ep{fill:url(#ef);}.eq{fill:url(#eg);}.er{fill:url(#eh);}.es{fill:url(#ei);}.et{fill:url(#ej);}.eu{fill:url(#ek);}.ev{fill:url(#el);}.ew{fill:url(#em);}.ex{fill:url(#en);}.ey{fill:url(#eo);}.ez{fill:url(#ep);}.fa{fill:url(#eq);}.fb{fill:url(#er);}.fc{fill:url(#es);}.fd{fill:url(#et);}.fe{fill:url(#eu);}.ff{fill:url(#ev);}.fg{opacity:0.56;fill:url(#ew);}.fh,.fi,.fj{opacity:0.7;}.fh{fill:url(#ex);}.fi{fill:url(#ey);}.fj{fill:url(#ez);}.fk{opacity:0.48;fill:url(#fa);}.fl{fill:rgba(255,255,255,0);}.fm{fill:url(#fe);}.fn{opacity:0.24;}.fo{opacity:0.28;fill:url(#fk);}.fp{opacity:0.26;}.fq,.fu{opacity:0.41;}.fr{opacity:0.44;}.fs{fill:url(#fl);}.ft{fill:#68e1fd;}.fv{opacity:0.58;}.fv,.fx{fill:url(#fn);}.fw{opacity:0.63;}.fy{fill:url(#fq);}.fz{fill:#e0eaff;opacity:0.68;}.ga{fill:#3f3d56;}.gb{fill:#e1edfe;}.gc,.gf{fill:none;stroke-miterlimit:10;}.gc{stroke:#f2f2f2;stroke-width:2px;}.ge{fill:rgba(56,125,255,0.2);}.gf{stroke:#3f3d56;stroke-width:4px;}.gg{fill:#4fdc6f;}.gi{fill:#656380;}.gj{opacity:0.2;}.gk{fill:url(#fu);}.gl{fill:#fbbebe;}.gm{fill:#2e3037;}.gn{fill:#db8b8b;}.go{fill:#474463;}.gp{fill:#fc6681;}.gq{opacity:0.05;}.gq,.gr{fill:url(#fv);}.gs{fill:#f07379;}</style><clipPath id="a"><rect class="a" width="768" height="404" transform="translate(773 70)"/></clipPath><linearGradient id="b" x1="0.501" y1="1.05" x2="0.497" y2="-1.399" gradientUnits="objectBoundingBox"><stop offset="0" stop-color="#5690ff"/><stop offset="1" stop-color="#766de8"/></linearGradient><linearGradient id="c" x1="0.614" y1="52.7" x2="0.445" y2="-24.325" gradientUnits="objectBoundingBox"><stop offset="0" stop-color="#fff" stop-opacity="0"/><stop offset="0.95" stop-color="#fff"/></linearGradient><linearGradient id="d" x1="0.611" y1="51.296" x2="0.443" y2="-25.73" xlink:href="#c"/><linearGradient id="e" x1="0.609" y1="49.891" x2="0.44" y2="-27.135" xlink:href="#c"/><linearGradient id="f" x1="0.604" y1="48.484" x2="0.437" y2="-28.542" xlink:href="#c"/><linearGradient id="g" x1="0.601" y1="47.079" x2="0.433" y2="-29.946" xlink:href="#c"/><linearGradient id="h" x1="0.599" y1="45.675" x2="0.43" y2="-31.351" xlink:href="#c"/><linearGradient id="i" x1="0.596" y1="44.27" x2="0.427" y2="-32.756" xlink:href="#c"/><linearGradient id="j" x1="0.593" y1="42.863" x2="0.424" y2="-34.163" xlink:href="#c"/><linearGradient id="k" x1="0.59" y1="41.458" x2="0.421" y2="-35.567" xlink:href="#c"/><linearGradient id="l" x1="0.586" y1="40.054" x2="0.418" y2="-36.972" xlink:href="#c"/><linearGradient id="m" x1="0.583" y1="38.647" x2="0.414" y2="-38.379" xlink:href="#c"/><linearGradient id="n" x1="0.58" y1="37.242" x2="0.411" y2="-39.784" xlink:href="#c"/><linearGradient id="o" x1="0.577" y1="35.837" x2="0.409" y2="-41.188" xlink:href="#c"/><linearGradient id="p" x1="0.574" y1="34.43" x2="0.406" y2="-42.595" xlink:href="#c"/><linearGradient id="q" x1="0.572" y1="33.026" x2="0.403" y2="-44" xlink:href="#c"/><linearGradient id="r" x1="0.567" y1="31.621" x2="0.4" y2="-45.405" xlink:href="#c"/><linearGradient id="s" x1="0.565" y1="30.214" x2="0.396" y2="-46.812" xlink:href="#c"/><linearGradient id="t" x1="0.562" y1="28.809" x2="0.393" y2="-48.216" xlink:href="#c"/><linearGradient id="u" x1="0.559" y1="27.405" x2="0.39" y2="-49.621" xlink:href="#c"/><linearGradient id="v" x1="0.556" y1="26" x2="0.387" y2="-51.026" xlink:href="#c"/><linearGradient id="w" x1="0.553" y1="24.593" x2="0.384" y2="-52.433" xlink:href="#c"/><linearGradient id="x" x1="0.549" y1="23.188" x2="0.382" y2="-53.837" xlink:href="#c"/><linearGradient id="y" x1="0.546" y1="21.784" x2="0.377" y2="-55.242" xlink:href="#c"/><linearGradient id="z" x1="0.543" y1="20.377" x2="0.374" y2="-56.649" xlink:href="#c"/><linearGradient id="aa" x1="0.54" y1="18.972" x2="0.372" y2="-58.053" xlink:href="#c"/><linearGradient id="ab" x1="0.538" y1="17.567" x2="0.369" y2="-59.458" xlink:href="#c"/><linearGradient id="ac" x1="0.535" y1="16.161" x2="0.366" y2="-60.865" xlink:href="#c"/><linearGradient id="ad" x1="0.53" y1="14.756" x2="0.363" y2="-62.27" xlink:href="#c"/><linearGradient id="ae" x1="0.519" y1="52.677" x2="0.491" y2="-24.349" xlink:href="#c"/><linearGradient id="af" x1="0.519" y1="51.272" x2="0.49" y2="-25.754" xlink:href="#c"/><linearGradient id="ag" x1="0.518" y1="49.867" x2="0.49" y2="-27.158" xlink:href="#c"/><linearGradient id="ah" x1="0.518" y1="48.46" x2="0.489" y2="-28.565" xlink:href="#c"/><linearGradient id="ai" x1="0.517" y1="47.056" x2="0.489" y2="-29.97" xlink:href="#c"/><linearGradient id="aj" x1="0.517" y1="45.651" x2="0.488" y2="-31.375" xlink:href="#c"/><linearGradient id="ak" x1="0.516" y1="44.244" x2="0.488" y2="-32.779" xlink:href="#c"/><linearGradient id="al" x1="0.516" y1="42.839" x2="0.487" y2="-34.186" xlink:href="#c"/><linearGradient id="am" x1="0.515" y1="41.435" x2="0.487" y2="-35.591" xlink:href="#c"/><linearGradient id="an" x1="0.515" y1="40.03" x2="0.486" y2="-36.996" xlink:href="#c"/><linearGradient id="ao" x1="0.514" y1="38.623" x2="0.486" y2="-38.403" xlink:href="#c"/><linearGradient id="ap" x1="0.514" y1="37.218" x2="0.485" y2="-39.807" xlink:href="#c"/><linearGradient id="aq" x1="0.513" y1="35.814" x2="0.485" y2="-41.212" xlink:href="#c"/><linearGradient id="ar" x1="0.513" y1="34.407" x2="0.484" y2="-42.619" xlink:href="#c"/><linearGradient id="as" x1="0.512" y1="33.002" x2="0.484" y2="-44.024" xlink:href="#c"/><linearGradient id="at" x1="0.512" y1="31.597" x2="0.483" y2="-45.428" xlink:href="#c"/><linearGradient id="au" x1="0.511" y1="30.191" x2="0.482" y2="-46.835" xlink:href="#c"/><linearGradient id="av" x1="0.511" y1="28.786" x2="0.482" y2="-48.24" xlink:href="#c"/><linearGradient id="aw" x1="0.51" y1="27.381" x2="0.482" y2="-49.645" xlink:href="#c"/><linearGradient id="ax" x1="0.51" y1="25.976" x2="0.481" y2="-51.049" xlink:href="#c"/><linearGradient id="ay" x1="0.509" y1="24.57" x2="0.481" y2="-52.456" xlink:href="#c"/><linearGradient id="az" x1="0.508" y1="23.165" x2="0.48" y2="-53.861" xlink:href="#c"/><linearGradient id="ba" x1="0.508" y1="21.76" x2="0.479" y2="-55.266" xlink:href="#c"/><linearGradient id="bb" x1="0.507" y1="20.353" x2="0.479" y2="-56.672" xlink:href="#c"/><linearGradient id="bc" x1="0.507" y1="18.949" x2="0.478" y2="-58.077" xlink:href="#c"/><linearGradient id="bd" x1="0.506" y1="17.544" x2="0.478" y2="-59.482" xlink:href="#c"/><linearGradient id="be" x1="0.506" y1="16.137" x2="0.477" y2="-60.888" xlink:href="#c"/><linearGradient id="bf" x1="0.505" y1="14.732" x2="0.477" y2="-62.293" xlink:href="#c"/><linearGradient id="bg" x1="0.615" y1="52.661" x2="0.446" y2="-24.307" xlink:href="#c"/><linearGradient id="bh" x1="0.611" y1="51.256" x2="0.444" y2="-25.711" xlink:href="#c"/><linearGradient id="bi" x1="0.607" y1="49.851" x2="0.44" y2="-27.116" xlink:href="#c"/><linearGradient id="bj" x1="0.606" y1="48.446" x2="0.438" y2="-28.521" xlink:href="#c"/><linearGradient id="bk" x1="0.602" y1="47.042" x2="0.434" y2="-29.926" xlink:href="#c"/><linearGradient id="bl" x1="0.6" y1="45.64" x2="0.43" y2="-31.327" xlink:href="#c"/><linearGradient id="bm" x1="0.596" y1="44.235" x2="0.428" y2="-32.732" xlink:href="#c"/><linearGradient id="bn" x1="0.594" y1="42.83" x2="0.424" y2="-34.137" xlink:href="#c"/><linearGradient id="bo" x1="0.59" y1="41.426" x2="0.422" y2="-35.539" xlink:href="#c"/><linearGradient id="bp" x1="0.588" y1="40.021" x2="0.418" y2="-36.943" xlink:href="#c"/><linearGradient id="bq" x1="0.584" y1="38.616" x2="0.416" y2="-38.348" xlink:href="#c"/><linearGradient id="br" x1="0.58" y1="37.214" x2="0.412" y2="-39.75" xlink:href="#c"/><linearGradient id="bs" x1="0.578" y1="35.81" x2="0.408" y2="-41.155" xlink:href="#c"/><linearGradient id="bt" x1="0.574" y1="34.405" x2="0.406" y2="-42.56" xlink:href="#c"/><linearGradient id="bu" x1="0.572" y1="33" x2="0.402" y2="-43.964" xlink:href="#c"/><linearGradient id="bv" x1="0.568" y1="31.595" x2="0.4" y2="-45.369" xlink:href="#c"/><linearGradient id="bw" x1="0.566" y1="30.19" x2="0.396" y2="-46.774" xlink:href="#c"/><linearGradient id="bx" x1="0.562" y1="28.789" x2="0.394" y2="-48.176" xlink:href="#c"/><linearGradient id="by" x1="0.558" y1="27.384" x2="0.391" y2="-49.58" xlink:href="#c"/><linearGradient id="bz" x1="0.556" y1="25.979" x2="0.389" y2="-50.985" xlink:href="#c"/><linearGradient id="ca" x1="0.552" y1="24.575" x2="0.385" y2="-52.39" xlink:href="#c"/><linearGradient id="cb" x1="0.55" y1="23.17" x2="0.381" y2="-53.795" xlink:href="#c"/><linearGradient id="cc" x1="0.546" y1="21.765" x2="0.379" y2="-55.2" xlink:href="#c"/><linearGradient id="cd" x1="0.544" y1="20.363" x2="0.375" y2="-56.601" xlink:href="#c"/><linearGradient id="ce" x1="0.54" y1="18.958" x2="0.373" y2="-58.006" xlink:href="#c"/><linearGradient id="cf" x1="0.538" y1="17.554" x2="0.369" y2="-59.411" xlink:href="#c"/><linearGradient id="cg" x1="0.535" y1="16.149" x2="0.367" y2="-60.816" xlink:href="#c"/><linearGradient id="ch" x1="0.531" y1="14.744" x2="0.363" y2="-62.221" xlink:href="#c"/><linearGradient id="ci" x1="0.5" y1="0" x2="0.5" y2="1" xlink:href="#b"/><linearGradient id="cj" x1="0.519" y1="52.637" x2="0.491" y2="-24.327" xlink:href="#c"/><linearGradient id="ck" x1="0.519" y1="51.232" x2="0.49" y2="-25.732" xlink:href="#c"/><linearGradient id="cl" x1="0.518" y1="49.827" x2="0.49" y2="-27.137" xlink:href="#c"/><linearGradient id="cm" x1="0.518" y1="48.423" x2="0.489" y2="-28.542" xlink:href="#c"/><linearGradient id="cn" x1="0.517" y1="47.018" x2="0.489" y2="-29.946" xlink:href="#c"/><linearGradient id="co" x1="0.517" y1="45.616" x2="0.488" y2="-31.348" xlink:href="#c"/><linearGradient id="cp" x1="0.516" y1="44.211" x2="0.488" y2="-32.756" xlink:href="#c"/><linearGradient id="cq" x1="0.516" y1="42.807" x2="0.487" y2="-34.158" xlink:href="#c"/><linearGradient id="cr" x1="0.515" y1="41.402" x2="0.487" y2="-35.562" xlink:href="#c"/><linearGradient id="cs" x1="0.515" y1="39.997" x2="0.486" y2="-36.967" xlink:href="#c"/><linearGradient id="ct" x1="0.514" y1="38.592" x2="0.486" y2="-38.372" xlink:href="#c"/><linearGradient id="cu" x1="0.514" y1="37.19" x2="0.485" y2="-39.774" xlink:href="#c"/><linearGradient id="cv" x1="0.513" y1="35.786" x2="0.485" y2="-41.179" xlink:href="#c"/><linearGradient id="cw" x1="0.512" y1="34.381" x2="0.484" y2="-42.583" xlink:href="#c"/><linearGradient id="cx" x1="0.512" y1="32.976" x2="0.484" y2="-43.988" xlink:href="#c"/><linearGradient id="cy" x1="0.511" y1="31.571" x2="0.483" y2="-45.393" xlink:href="#c"/><linearGradient id="cz" x1="0.511" y1="30.167" x2="0.482" y2="-46.798" xlink:href="#c"/><linearGradient id="da" x1="0.51" y1="28.765" x2="0.482" y2="-48.199" xlink:href="#c"/><linearGradient id="db" x1="0.51" y1="27.36" x2="0.481" y2="-49.604" xlink:href="#c"/><linearGradient id="dc" x1="0.509" y1="25.955" x2="0.481" y2="-51.009" xlink:href="#c"/><linearGradient id="dd" x1="0.509" y1="24.551" x2="0.48" y2="-52.414" xlink:href="#c"/><linearGradient id="de" x1="0.508" y1="23.146" x2="0.48" y2="-53.819" xlink:href="#c"/><linearGradient id="df" x1="0.508" y1="21.741" x2="0.479" y2="-55.223" xlink:href="#c"/><linearGradient id="dg" x1="0.507" y1="20.339" x2="0.479" y2="-56.625" xlink:href="#c"/><linearGradient id="dh" x1="0.507" y1="18.935" x2="0.478" y2="-58.03" xlink:href="#c"/><linearGradient id="di" x1="0.506" y1="17.53" x2="0.478" y2="-59.435" xlink:href="#c"/><linearGradient id="dj" x1="0.506" y1="16.125" x2="0.477" y2="-60.84" xlink:href="#c"/><linearGradient id="dk" x1="0.505" y1="14.72" x2="0.477" y2="-62.244" xlink:href="#c"/><linearGradient id="dl" x1="6.576" y1="0.577" x2="-30.181" y2="0.112" xlink:href="#b"/><linearGradient id="dm" x1="-51.26" y1="5.542" x2="-43.562" y2="6.02" gradientUnits="objectBoundingBox"><stop offset="0" stop-color="#1c265c"/><stop offset="1" stop-color="#fff" stop-opacity="0"/></linearGradient><linearGradient id="dn" x1="-51.489" y1="5.527" x2="-43.792" y2="6.005" xlink:href="#dm"/><linearGradient id="do" x1="-51.719" y1="5.513" x2="-44.023" y2="5.992" xlink:href="#dm"/><linearGradient id="dp" x1="-51.95" y1="5.498" x2="-44.253" y2="5.977" xlink:href="#dm"/><linearGradient id="dq" x1="-52.18" y1="5.484" x2="-44.484" y2="5.963" xlink:href="#dm"/><linearGradient id="dr" x1="-52.411" y1="5.47" x2="-44.714" y2="5.948" xlink:href="#dm"/><linearGradient id="ds" x1="-52.641" y1="5.469" x2="-44.943" y2="5.95" xlink:href="#dm"/><linearGradient id="dt" x1="-49.979" y1="5.701" x2="-42.44" y2="6.194" xlink:href="#dm"/><linearGradient id="du" x1="0.5" y1="-2.054" x2="0.5" y2="14.385" xlink:href="#b"/><linearGradient id="dv" x1="0.5" y1="-3.202" x2="0.5" y2="13.237" xlink:href="#b"/><linearGradient id="dw" x1="0.5" y1="-4.351" x2="0.5" y2="12.088" xlink:href="#b"/><linearGradient id="dx" x1="0.5" y1="-5.5" x2="0.5" y2="10.94" xlink:href="#b"/><linearGradient id="dy" x1="0.5" y1="-6.649" x2="0.5" y2="9.791" xlink:href="#b"/><linearGradient id="dz" x1="0.5" y1="-7.797" x2="0.5" y2="8.642" xlink:href="#b"/><linearGradient id="ea" x1="0.5" y1="-8.946" x2="0.5" y2="7.493" xlink:href="#b"/><linearGradient id="eb" x1="0.5" y1="-10.094" x2="0.5" y2="6.345" xlink:href="#b"/><linearGradient id="ec" x1="56.081" y1="-0.882" x2="41.746" y2="0.672" xlink:href="#c"/><linearGradient id="ed" x1="56.059" y1="-0.882" x2="41.725" y2="0.672" xlink:href="#c"/><linearGradient id="ee" x1="56.038" y1="-0.876" x2="41.703" y2="0.677" xlink:href="#c"/><linearGradient id="ef" x1="56.018" y1="-0.876" x2="41.682" y2="0.677" xlink:href="#c"/><linearGradient id="eg" x1="55.996" y1="-0.871" x2="41.66" y2="0.683" xlink:href="#c"/><linearGradient id="eh" x1="55.975" y1="-0.871" x2="41.64" y2="0.683" xlink:href="#c"/><linearGradient id="ei" x1="55.954" y1="-0.871" x2="41.619" y2="0.688" xlink:href="#c"/><linearGradient id="ej" x1="55.932" y1="-0.871" x2="41.598" y2="0.688" xlink:href="#c"/><linearGradient id="ek" x1="107.461" y1="-0.521" x2="79.243" y2="0.5" xlink:href="#c"/><linearGradient id="el" x1="109.454" y1="-0.447" x2="81.24" y2="0.57" xlink:href="#c"/><linearGradient id="em" x1="107.402" y1="-0.518" x2="79.187" y2="0.5" xlink:href="#c"/><linearGradient id="en" x1="109.398" y1="-0.447" x2="81.183" y2="0.574" xlink:href="#c"/><linearGradient id="eo" x1="107.345" y1="-0.518" x2="79.127" y2="0.5" xlink:href="#c"/><linearGradient id="ep" x1="109.338" y1="-0.447" x2="81.123" y2="0.574" xlink:href="#c"/><linearGradient id="eq" x1="107.285" y1="-0.514" x2="79.071" y2="0.504" xlink:href="#c"/><linearGradient id="er" x1="109.282" y1="-0.444" x2="81.067" y2="0.574" xlink:href="#c"/><linearGradient id="es" x1="107.229" y1="-0.514" x2="79.014" y2="0.507" xlink:href="#c"/><linearGradient id="et" x1="109.225" y1="-0.44" x2="81.007" y2="0.577" xlink:href="#c"/><linearGradient id="eu" x1="107.169" y1="-0.511" x2="78.954" y2="0.511" xlink:href="#c"/><linearGradient id="ev" x1="109.166" y1="-0.437" x2="80.951" y2="0.581" xlink:href="#c"/><linearGradient id="ew" x1="0.468" y1="12.226" x2="0.773" y2="-99.423" xlink:href="#b"/><linearGradient id="ex" x1="0.448" y1="19.607" x2="0.754" y2="-92.042" xlink:href="#b"/><linearGradient id="ey" x1="0.427" y1="27.202" x2="0.733" y2="-84.447" xlink:href="#b"/><linearGradient id="ez" x1="0.406" y1="34.792" x2="0.712" y2="-76.857" xlink:href="#b"/><linearGradient id="fa" x1="0.364" y1="49.976" x2="0.671" y2="-61.673" gradientUnits="objectBoundingBox"><stop offset="0" stop-color="#010101" stop-opacity="0"/><stop offset="0.95" stop-color="#387dff"/><stop offset="1" stop-color="#010101"/></linearGradient><linearGradient id="fe" x1="19.432" y1="19.16" x2="-7.631" y2="-7.515" xlink:href="#c"/><linearGradient id="fk" x1="0.495" y1="-0.712" x2="0.519" y2="4.764" xlink:href="#b"/><linearGradient id="fl" x1="0.5" y1="1" x2="0.5" gradientUnits="objectBoundingBox"><stop offset="0" stop-color="#e9e9e9"/><stop offset="1" stop-color="#387dff"/></linearGradient><linearGradient id="fn" x1="0.5" y1="1" x2="0.5" y2="0" xlink:href="#b"/><linearGradient id="fq" x1="0.5" y1="-0.445" x2="0.5" y2="5.083" xlink:href="#c"/><linearGradient id="fu" x1="6.341" y1="1" x2="6.341" gradientUnits="objectBoundingBox"><stop offset="0" stop-color="gray" stop-opacity="0.251"/><stop offset="0.54" stop-color="gray" stop-opacity="0.122"/><stop offset="1" stop-color="gray" stop-opacity="0.102"/></linearGradient><linearGradient id="fv" x1="0.5" x2="0.5" y2="1" gradientUnits="objectBoundingBox"><stop offset="0" stop-color="#ffa330"/><stop offset="0.274" stop-color="#ff9346"/><stop offset="0.539" stop-color="#ff8559"/><stop offset="0.766" stop-color="#fb7a6a"/><stop offset="1" stop-color="#f07379"/></linearGradient></defs><g class="b" transform="translate(-773 -70)"><g transform="translate(813 102)"><g class="c"><path class="d" d="M5.42,387.366a114.439,114.439,0,0,0,6.948,14.653c19.964,35.411,58.111,59.833,98.589,63.056,32.774,2.662,65.364-7.644,98.223-7.326,25.3.232,50.064,6.752,74.754,11.966a731.544,731.544,0,0,0,199.9,14.018c46.5-3.126,94.022-11.234,133.646-35.753a152.853,152.853,0,0,0,46.913-45.4A123.328,123.328,0,0,0,681.038,365.7l-1.783-60.809c-.611-2.308-1.307-4.628-2-6.948-1.429-4.787-2.979-9.573-4.518-14.36-2.516-7.693-4.982-15.41-6.948-23.2-.537-2.088-1.05-4.164-1.514-6.252-3.932-17.962-4.884-36.376-6.105-54.716H622.94v-30.49h-40.3v46.755H565.818V178.2H546.012v34.788H519.6v40.772H489.709V214.072h-52.2v39.685H391.864V191.25h-23.4v20.074H348.932v42.432H329.395V225.525H305.461v28.256H292.408v-46.4H269.586V188.5H226.092v65.254H206.86V150.82H163.39V253.756H145.282V168.281H111.91V204.5H94.534v49.307Z" transform="translate(3.484 -146.082)"/><path class="e" d="M5.42,387.366a114.439,114.439,0,0,0,6.948,14.653c19.964,35.411,58.111,59.833,98.589,63.056,32.774,2.662,65.364-7.644,98.223-7.326,25.3.232,50.064,6.752,74.754,11.966a731.544,731.544,0,0,0,199.9,14.018c46.5-3.126,94.022-11.234,133.646-35.753a152.853,152.853,0,0,0,46.913-45.4A123.328,123.328,0,0,0,681.038,365.7l-1.783-60.809c-.611-2.308-1.307-4.628-2-6.948-1.429-4.787-2.979-9.573-4.518-14.36-2.516-7.693-4.982-15.41-6.948-23.2-.537-2.088-1.05-4.164-1.514-6.252-3.932-17.962-4.884-36.376-6.105-54.716H622.94v-30.49h-40.3v46.755H565.818V178.2H546.012v34.788H519.6v40.772H489.709V214.072h-52.2v39.685H391.864V191.25h-23.4v20.074H348.932v42.432H329.395V225.525H305.461v28.256H292.408v-46.4H269.586V188.5H226.092v65.254H206.86V150.82H163.39V253.756H145.282V168.281H111.91V204.5H94.534v49.307Z" transform="translate(3.485 -146.082)"/><path class="e" d="M10.549,379.222c4.64,5.519,9.39,10.892,14.091,16.338,1.014,1.221,2.015,2.344,3.016,3.541h8.8v-2.308H670.453c13.664-20.758,21.467-44.874,19.928-69.6-.733-11.93-3.59-23.518-7.07-35.02h-4.518V277.787c-2.515-7.693-4.982-15.41-6.948-23.2H655.629v37.56H644.871V259.862H630.487v32.285H627.4V217.124H598.471v75.023H105.891V177H81.75A220.113,220.113,0,0,1,68.2,203.864c-1.075,1.783-2.161,3.517-3.321,5.251v9.7H58.2c-14.592,19.965-31.748,38.232-42.86,60.358C.048,309.987-1.454,347.1,10.549,379.222Z" transform="translate(-2.573 -140.295)"/><path class="a" d="M662.334,343.463c4.335.5,9.439,1.6,11.124,5.629,1.221,2.894.122,6.228-1.221,9.048-8.755,18.084-28.011,29.208-47.622,33.348s-40,2.332-60.028.843c-172.855-12.858-347-.659-519.578-16.814-9.769-.916-21.088-2.857-25.875-11.441-4.445-7.949-.806-18.511,6.105-24.507S41.346,331.2,50.3,329.58c51.175-9.256,103.6.159,155.369,4.945,61.713,5.715,123.756,4.823,185.6,3.382,30.844-.72,61.688-1.587,92.545-1.844,15.569-.122,31.15-.147,46.706.183,10.281.208,19.537,3.663,29.635,4.127C594.332,341.827,628.009,339.507,662.334,343.463Z" transform="translate(-3.832 -107.43)"/><path class="f" d="M662.334,343.463c4.335.5,9.439,1.6,11.124,5.629,1.221,2.894.122,6.228-1.221,9.048-8.755,18.084-28.011,29.208-47.622,33.348s-40,2.332-60.028.843c-172.855-12.858-347-.659-519.578-16.814-9.769-.916-21.088-2.857-25.875-11.441-4.445-7.949-.806-18.511,6.105-24.507S41.346,331.2,50.3,329.58c51.175-9.256,103.6.159,155.369,4.945,61.713,5.715,123.756,4.823,185.6,3.382,30.844-.72,61.688-1.587,92.545-1.844,15.569-.122,31.15-.147,46.706.183,10.281.208,19.537,3.663,29.635,4.127C594.332,341.827,628.009,339.507,662.334,343.463Z" transform="translate(-3.832 -107.186)"/><rect class="g" width="75.084" height="242.932" transform="translate(404.3)"/><line class="a" x1="8.609" transform="translate(407.56 20.453)"/><rect class="h" width="8.609" height="5.702" transform="translate(407.56 17.608)"/><line class="a" x1="8.609" transform="translate(407.56 28.463)"/><rect class="i" width="8.609" height="5.702" transform="translate(407.56 25.618)"/><line class="a" x1="8.609" transform="translate(407.56 36.486)"/><rect class="j" width="8.609" height="5.702" transform="translate(407.56 33.628)"/><line class="a" x2="8.609" transform="translate(407.56 44.496)"/><rect class="k" width="8.609" height="5.702" transform="translate(407.56 41.651)"/><line class="a" x1="8.609" transform="translate(407.56 52.506)"/><rect class="l" width="8.609" height="5.702" transform="translate(407.56 49.661)"/><line class="a" x1="8.609" transform="translate(407.56 60.529)"/><rect class="m" width="8.609" height="5.702" transform="translate(407.56 57.671)"/><line class="a" x1="8.609" transform="translate(407.56 68.539)"/><rect class="n" width="8.609" height="5.702" transform="translate(407.56 65.681)"/><line class="a" x1="8.609" transform="translate(407.56 76.549)"/><rect class="o" width="8.609" height="5.702" transform="translate(407.56 73.704)"/><line class="a" x1="8.609" transform="translate(407.56 84.571)"/><rect class="p" width="8.609" height="5.702" transform="translate(407.56 81.714)"/><line class="a" x1="8.609" transform="translate(407.56 92.582)"/><rect class="q" width="8.609" height="5.702" transform="translate(407.56 89.724)"/><line class="a" x1="8.609" transform="translate(407.56 100.592)"/><rect class="r" width="8.609" height="5.702" transform="translate(407.56 97.747)"/><line class="a" x1="8.609" transform="translate(407.56 108.602)"/><rect class="s" width="8.609" height="5.702" transform="translate(407.56 105.757)"/><line class="a" x1="8.609" transform="translate(407.56 116.625)"/><rect class="t" width="8.609" height="5.702" transform="translate(407.56 113.767)"/><line class="a" x1="8.609" transform="translate(407.56 124.635)"/><rect class="u" width="8.609" height="5.702" transform="translate(407.56 121.79)"/><line class="a" x1="8.609" transform="translate(407.56 132.645)"/><rect class="v" width="8.609" height="5.702" transform="translate(407.56 129.8)"/><line class="a" x1="8.609" transform="translate(407.56 140.667)"/><rect class="w" width="8.609" height="5.702" transform="translate(407.56 137.81)"/><line class="a" x1="8.609" transform="translate(407.56 148.678)"/><rect class="x" width="8.609" height="5.702" transform="translate(407.56 145.833)"/><line class="a" x1="8.609" transform="translate(407.56 156.688)"/><rect class="y" width="8.609" height="5.702" transform="translate(407.56 153.843)"/><line class="a" x1="8.609" transform="translate(407.56 164.71)"/><rect class="z" width="8.609" height="5.702" transform="translate(407.56 161.853)"/><line class="a" x1="8.609" transform="translate(407.56 172.721)"/><rect class="aa" width="8.609" height="5.702" transform="translate(407.56 169.863)"/><line class="a" x1="8.609" transform="translate(407.56 180.731)"/><rect class="ab" width="8.609" height="5.702" transform="translate(407.56 177.886)"/><line class="a" x1="8.609" transform="translate(407.56 188.753)"/><rect class="ac" width="8.609" height="5.702" transform="translate(407.56 185.896)"/><line class="a" x1="8.609" transform="translate(407.56 196.764)"/><rect class="ad" width="8.609" height="5.702" transform="translate(407.56 193.906)"/><line class="a" x1="8.609" transform="translate(407.56 204.774)"/><rect class="ae" width="8.609" height="5.702" transform="translate(407.56 201.929)"/><line class="a" x1="8.609" transform="translate(407.56 212.784)"/><rect class="af" width="8.609" height="5.702" transform="translate(407.56 209.939)"/><line class="a" x1="8.609" transform="translate(407.56 220.806)"/><rect class="ag" width="8.609" height="5.702" transform="translate(407.56 217.949)"/><line class="a" x1="8.609" transform="translate(407.56 228.817)"/><rect class="ah" width="8.609" height="5.702" transform="translate(407.56 225.972)"/><line class="a" x1="8.609" transform="translate(407.56 236.827)"/><rect class="ai" width="8.609" height="5.702" transform="translate(407.56 233.982)"/><rect class="aj" width="58.966" height="242.932" transform="translate(420.393)"/><line class="a" x1="50.919" transform="translate(426.486 20.453)"/><rect class="ak" width="50.919" height="5.702" transform="translate(426.486 17.608)"/><line class="a" x1="50.919" transform="translate(426.486 28.463)"/><rect class="al" width="50.919" height="5.702" transform="translate(426.486 25.618)"/><line class="a" x1="50.919" transform="translate(426.486 36.486)"/><rect class="am" width="50.919" height="5.702" transform="translate(426.486 33.628)"/><line class="a" x2="50.919" transform="translate(426.486 44.496)"/><rect class="an" width="50.919" height="5.702" transform="translate(426.486 41.651)"/><line class="a" x1="50.919" transform="translate(426.486 52.506)"/><rect class="ao" width="50.919" height="5.702" transform="translate(426.486 49.661)"/><line class="a" x1="50.919" transform="translate(426.486 60.529)"/><rect class="ap" width="50.919" height="5.702" transform="translate(426.486 57.671)"/><line class="a" x1="50.919" transform="translate(426.486 68.539)"/><rect class="aq" width="50.919" height="5.702" transform="translate(426.486 65.681)"/><line class="a" x1="50.919" transform="translate(426.486 76.549)"/><rect class="ar" width="50.919" height="5.702" transform="translate(426.486 73.704)"/><line class="a" x1="50.919" transform="translate(426.486 84.571)"/><rect class="as" width="50.919" height="5.702" transform="translate(426.486 81.714)"/><line class="a" x1="50.919" transform="translate(426.486 92.582)"/><rect class="at" width="50.919" height="5.702" transform="translate(426.486 89.724)"/><line class="a" x1="50.919" transform="translate(426.486 100.592)"/><rect class="au" width="50.919" height="5.702" transform="translate(426.486 97.747)"/><line class="a" x1="50.919" transform="translate(426.486 108.602)"/><rect class="av" width="50.919" height="5.702" transform="translate(426.486 105.757)"/><line class="a" x1="50.919" transform="translate(426.486 116.625)"/><rect class="aw" width="50.919" height="5.702" transform="translate(426.486 113.767)"/><line class="a" x1="50.919" transform="translate(426.486 124.635)"/><rect class="ax" width="50.919" height="5.702" transform="translate(426.486 121.79)"/><line class="a" x1="50.919" transform="translate(426.486 132.645)"/><rect class="ay" width="50.919" height="5.702" transform="translate(426.486 129.8)"/><line class="a" x1="50.919" transform="translate(426.486 140.667)"/><rect class="az" width="50.919" height="5.702" transform="translate(426.486 137.81)"/><line class="a" x1="50.919" transform="translate(426.486 148.678)"/><rect class="ba" width="50.919" height="5.702" transform="translate(426.486 145.833)"/><line class="a" x1="50.919" transform="translate(426.486 156.688)"/><rect class="bb" width="50.919" height="5.702" transform="translate(426.486 153.843)"/><line class="a" x1="50.919" transform="translate(426.486 164.71)"/><rect class="bc" width="50.919" height="5.702" transform="translate(426.486 161.853)"/><line class="a" x1="50.919" transform="translate(426.486 172.721)"/><rect class="bd" width="50.919" height="5.702" transform="translate(426.486 169.863)"/><line class="a" x1="50.919" transform="translate(426.486 180.731)"/><rect class="be" width="50.919" height="5.702" transform="translate(426.486 177.886)"/><line class="a" x1="50.919" transform="translate(426.486 188.753)"/><rect class="bf" width="50.919" height="5.702" transform="translate(426.486 185.896)"/><line class="a" x1="50.919" transform="translate(426.486 196.764)"/><rect class="bg" width="50.919" height="5.702" transform="translate(426.486 193.906)"/><line class="a" x1="50.919" transform="translate(426.486 204.774)"/><rect class="bh" width="50.919" height="5.702" transform="translate(426.486 201.929)"/><line class="a" x1="50.919" transform="translate(426.486 212.784)"/><rect class="bi" width="50.919" height="5.702" transform="translate(426.486 209.939)"/><line class="a" x1="50.919" transform="translate(426.486 220.806)"/><rect class="bj" width="50.919" height="5.702" transform="translate(426.486 217.949)"/><line class="a" x1="50.919" transform="translate(426.486 228.817)"/><rect class="bk" width="50.919" height="5.702" transform="translate(426.486 225.972)"/><line class="a" x1="50.919" transform="translate(426.486 236.827)"/><rect class="bl" width="50.919" height="5.702" transform="translate(426.486 233.982)"/><rect class="bm" width="53.984" height="174.65" transform="translate(82.035 76.244)"/><line class="a" x1="6.191" transform="translate(84.379 90.945)"/><rect class="bn" width="6.191" height="4.103" transform="translate(84.379 88.894)"/><line class="a" x1="6.191" transform="translate(84.379 96.709)"/><rect class="bo" width="6.191" height="4.103" transform="translate(84.379 94.658)"/><line class="a" x1="6.191" transform="translate(84.379 102.472)"/><rect class="bp" width="6.191" height="4.103" transform="translate(84.379 100.421)"/><line class="a" x2="6.191" transform="translate(84.379 108.236)"/><rect class="bq" width="6.191" height="4.103" transform="translate(84.379 106.184)"/><line class="a" x1="6.191" transform="translate(84.379 113.987)"/><rect class="br" width="6.191" height="4.103" transform="translate(84.379 111.948)"/><line class="a" x1="6.191" transform="translate(84.379 119.751)"/><rect class="bs" width="6.191" height="4.103" transform="translate(84.379 117.699)"/><line class="a" x1="6.191" transform="translate(84.379 125.514)"/><rect class="bt" width="6.191" height="4.103" transform="translate(84.379 123.463)"/><line class="a" x1="6.191" transform="translate(84.379 131.277)"/><rect class="bu" width="6.191" height="4.103" transform="translate(84.379 129.226)"/><line class="a" x1="6.191" transform="translate(84.379 137.041)"/><rect class="bv" width="6.191" height="4.103" transform="translate(84.379 134.99)"/><line class="a" x1="6.191" transform="translate(84.379 142.804)"/><rect class="bw" width="6.191" height="4.103" transform="translate(84.379 140.753)"/><line class="a" x1="6.191" transform="translate(84.379 148.556)"/><rect class="bx" width="6.191" height="4.103" transform="translate(84.379 146.516)"/><line class="a" x1="6.191" transform="translate(84.379 154.319)"/><rect class="by" width="6.191" height="4.103" transform="translate(84.379 152.268)"/><line class="a" x1="6.191" transform="translate(84.379 160.083)"/><rect class="bz" width="6.191" height="4.103" transform="translate(84.379 158.031)"/><line class="a" x1="6.191" transform="translate(84.379 165.846)"/><rect class="ca" width="6.191" height="4.103" transform="translate(84.379 163.795)"/><line class="a" x1="6.191" transform="translate(84.379 171.609)"/><rect class="cb" width="6.191" height="4.103" transform="translate(84.379 169.558)"/><line class="a" x1="6.191" transform="translate(84.379 177.373)"/><rect class="cc" width="6.191" height="4.103" transform="translate(84.379 175.322)"/><line class="a" x1="6.191" transform="translate(84.379 183.124)"/><rect class="cd" width="6.191" height="4.103" transform="translate(84.379 181.085)"/><line class="a" x1="6.191" transform="translate(84.379 188.888)"/><rect class="ce" width="6.191" height="4.103" transform="translate(84.379 186.836)"/><line class="a" x1="6.191" transform="translate(84.379 194.651)"/><rect class="cf" width="6.191" height="4.103" transform="translate(84.379 192.6)"/><line class="a" x1="6.191" transform="translate(84.379 200.415)"/><rect class="cg" width="6.191" height="4.103" transform="translate(84.379 198.363)"/><line class="a" x1="6.191" transform="translate(84.379 206.178)"/><rect class="ch" width="6.191" height="4.103" transform="translate(84.379 204.127)"/><line class="a" x1="6.191" transform="translate(84.379 211.941)"/><rect class="ci" width="6.191" height="4.103" transform="translate(84.379 209.89)"/><line class="a" x1="6.191" transform="translate(84.379 217.693)"/><rect class="cj" width="6.191" height="4.103" transform="translate(84.379 215.654)"/><line class="a" x1="6.191" transform="translate(84.379 223.456)"/><rect class="ck" width="6.191" height="4.103" transform="translate(84.379 221.405)"/><line class="a" x1="6.191" transform="translate(84.379 229.22)"/><rect class="cl" width="6.191" height="4.103" transform="translate(84.379 227.168)"/><line class="a" x1="6.191" transform="translate(84.379 234.983)"/><rect class="cm" width="6.191" height="4.103" transform="translate(84.379 232.932)"/><line class="a" x1="6.191" transform="translate(84.379 240.747)"/><rect class="cn" width="6.191" height="4.103" transform="translate(84.379 238.695)"/><line class="a" x1="6.191" transform="translate(84.379 246.51)"/><rect class="co" width="6.191" height="4.103" transform="translate(84.379 244.459)"/><rect class="cp" width="42.396" height="174.65" transform="translate(92.792 76.244)"/><line class="a" x1="36.608" transform="translate(97.994 90.945)"/><rect class="cq" width="36.608" height="4.103" transform="translate(97.994 88.894)"/><line class="a" x1="36.608" transform="translate(97.994 96.709)"/><rect class="cr" width="36.608" height="4.103" transform="translate(97.994 94.658)"/><line class="a" x1="36.608" transform="translate(97.994 102.472)"/><rect class="cs" width="36.608" height="4.103" transform="translate(97.994 100.421)"/><line class="a" x2="36.608" transform="translate(97.994 108.236)"/><rect class="ct" width="36.608" height="4.103" transform="translate(97.994 106.184)"/><line class="a" x1="36.608" transform="translate(97.994 113.987)"/><rect class="cu" width="36.608" height="4.103" transform="translate(97.994 111.948)"/><line class="a" x1="36.608" transform="translate(97.994 119.751)"/><rect class="cv" width="36.608" height="4.103" transform="translate(97.994 117.699)"/><line class="a" x1="36.608" transform="translate(97.994 125.514)"/><rect class="cw" width="36.608" height="4.103" transform="translate(97.994 123.463)"/><line class="a" x1="36.608" transform="translate(97.994 131.277)"/><rect class="cx" width="36.608" height="4.103" transform="translate(97.994 129.226)"/><line class="a" x1="36.608" transform="translate(97.994 137.041)"/><rect class="cy" width="36.608" height="4.103" transform="translate(97.994 134.99)"/><line class="a" x1="36.608" transform="translate(97.994 142.804)"/><rect class="cz" width="36.608" height="4.103" transform="translate(97.994 140.753)"/><line class="a" x1="36.608" transform="translate(97.994 148.556)"/><rect class="da" width="36.608" height="4.103" transform="translate(97.994 146.516)"/><line class="a" x1="36.608" transform="translate(97.994 154.319)"/><rect class="db" width="36.608" height="4.103" transform="translate(97.994 152.268)"/><line class="a" x1="36.608" transform="translate(97.994 160.083)"/><rect class="dc" width="36.608" height="4.103" transform="translate(97.994 158.031)"/><line class="a" x1="36.608" transform="translate(97.994 165.846)"/><rect class="dd" width="36.608" height="4.103" transform="translate(97.994 163.795)"/><line class="a" x1="36.608" transform="translate(97.994 171.609)"/><rect class="de" width="36.608" height="4.103" transform="translate(97.994 169.558)"/><line class="a" x1="36.608" transform="translate(97.994 177.373)"/><rect class="df" width="36.608" height="4.103" transform="translate(97.994 175.322)"/><line class="a" x1="36.608" transform="translate(97.994 183.124)"/><rect class="dg" width="36.608" height="4.103" transform="translate(97.994 181.085)"/><line class="a" x1="36.608" transform="translate(97.994 188.888)"/><rect class="dh" width="36.608" height="4.103" transform="translate(97.994 186.836)"/><line class="a" x1="36.608" transform="translate(97.994 194.651)"/><rect class="di" width="36.608" height="4.103" transform="translate(97.994 192.6)"/><line class="a" x1="36.608" transform="translate(97.994 200.415)"/><rect class="dj" width="36.608" height="4.103" transform="translate(97.994 198.363)"/><line class="a" x1="36.608" transform="translate(97.994 206.178)"/><rect class="dk" width="36.608" height="4.103" transform="translate(97.994 204.127)"/><line class="a" x1="36.608" transform="translate(97.994 211.941)"/><rect class="dl" width="36.608" height="4.103" transform="translate(97.994 209.89)"/><line class="a" x1="36.608" transform="translate(97.994 217.693)"/><rect class="dm" width="36.608" height="4.103" transform="translate(97.994 215.654)"/><line class="a" x1="36.608" transform="translate(97.994 223.456)"/><rect class="dn" width="36.608" height="4.103" transform="translate(97.994 221.405)"/><line class="a" x1="36.608" transform="translate(97.994 229.22)"/><rect class="do" width="36.608" height="4.103" transform="translate(97.994 227.168)"/><line class="a" x1="36.608" transform="translate(97.994 234.983)"/><rect class="dp" width="36.608" height="4.103" transform="translate(97.994 232.932)"/><line class="a" x1="36.608" transform="translate(97.994 240.747)"/><rect class="dq" width="36.608" height="4.103" transform="translate(97.994 238.695)"/><line class="a" x1="36.608" transform="translate(97.994 246.51)"/><rect class="dr" width="36.608" height="4.103" transform="translate(97.994 244.459)"/><rect class="a" width="8.242" height="165.296" transform="translate(163.81 84.193)"/><rect class="ds" width="8.242" height="165.296" transform="translate(163.803 84.193)"/><rect class="dt" width="32.737" height="1.954" transform="translate(135.188 96.55)"/><g transform="translate(165.824 98.443)"><rect class="du" width="7.522" height="13.591" transform="translate(0 15.239)"/><rect class="dv" width="7.522" height="13.591" transform="translate(0 30.856)"/><rect class="dw" width="7.522" height="13.591" transform="translate(0 46.462)"/><rect class="dx" width="7.522" height="13.591" transform="translate(0 62.079)"/><rect class="dy" width="7.522" height="13.591" transform="translate(0 77.685)"/><rect class="dz" width="7.522" height="13.591" transform="translate(0 93.302)"/><rect class="ea" width="7.522" height="13.554" transform="translate(0 108.907)"/><rect class="eb" width="7.681" height="13.212" transform="translate(0.012)"/></g><path class="ec" d="M479.508,323.813H429.2V178.127h10.086l-.208-9.561,40.54-9.976-.11,19.537Z" transform="translate(-315.698 -74.324)"/><path class="ed" d="M476.553,270.9H467.9c.684,47.988-10.635,94.987-10.635,94.987l.22-94.987V232.11h19.073Z" transform="translate(-343.269 -128.111)"/><rect class="a" width="36.803" height="13.591" transform="translate(136.714 98.077)"/><rect class="a" width="36.644" height="13.591" transform="translate(136.702 113.682)"/><rect class="a" width="36.644" height="13.591" transform="translate(136.702 129.299)"/><rect class="a" width="36.644" height="13.591" transform="translate(136.702 144.905)"/><rect class="a" width="36.644" height="13.591" transform="translate(136.702 160.522)"/><rect class="a" width="36.644" height="13.591" transform="translate(136.702 176.127)"/><rect class="a" width="36.644" height="13.591" transform="translate(136.702 191.745)"/><rect class="a" width="36.644" height="13.591" transform="translate(136.702 207.35)"/><rect class="ee" width="36.803" height="13.591" transform="translate(136.543 98.077)"/><rect class="ef" width="36.644" height="13.591" transform="translate(136.622 113.682)"/><rect class="eg" width="36.644" height="13.591" transform="translate(136.622 129.299)"/><rect class="eh" width="36.644" height="13.591" transform="translate(136.622 144.905)"/><rect class="ei" width="36.644" height="13.591" transform="translate(136.622 160.522)"/><rect class="ej" width="36.644" height="13.591" transform="translate(136.622 176.127)"/><rect class="ek" width="36.644" height="13.591" transform="translate(136.622 191.745)"/><rect class="el" width="36.644" height="13.591" transform="translate(136.622 207.35)"/><rect class="a" width="1.514" height="124.891" transform="translate(147.985 97.698)"/><rect class="em" width="6.826" height="2.271" transform="translate(126.091 145.772)"/><rect class="en" width="6.826" height="2.271" transform="translate(126.091 149.789)"/><rect class="eo" width="6.826" height="2.271" transform="translate(126.091 153.794)"/><rect class="ep" width="6.826" height="2.271" transform="translate(126.091 157.811)"/><rect class="eq" width="6.826" height="2.271" transform="translate(126.091 161.816)"/><rect class="er" width="6.826" height="2.271" transform="translate(126.091 165.834)"/><rect class="es" width="6.826" height="2.271" transform="translate(126.091 169.851)"/><rect class="et" width="6.826" height="2.271" transform="translate(126.091 173.868)"/><rect class="eu" width="3.468" height="3.468" transform="translate(117.958 107.393)"/><rect class="ev" width="3.468" height="3.468" transform="translate(124.845 107.393)"/><rect class="ew" width="3.468" height="3.468" transform="translate(117.958 112.949)"/><rect class="ex" width="3.468" height="3.468" transform="translate(124.845 112.949)"/><rect class="ey" width="3.468" height="3.468" transform="translate(117.958 118.529)"/><rect class="ez" width="3.468" height="3.468" transform="translate(124.845 118.529)"/><rect class="fa" width="3.468" height="3.468" transform="translate(117.958 124.098)"/><rect class="fb" width="3.468" height="3.468" transform="translate(124.845 124.098)"/><rect class="fc" width="3.468" height="3.468" transform="translate(117.958 129.653)"/><rect class="fd" width="3.468" height="3.468" transform="translate(124.845 129.653)"/><rect class="fe" width="3.468" height="3.468" transform="translate(117.958 135.222)"/><rect class="ff" width="3.468" height="3.468" transform="translate(124.845 135.222)"/><rect class="a" width="38.342" height="2.051" transform="translate(136.409 96.453)"/><rect class="fg" width="36.791" height="2.051" transform="translate(136.702 98.516)"/><rect class="fh" width="36.657" height="2.051" transform="translate(136.702 113.694)"/><rect class="fi" width="36.657" height="2.051" transform="translate(136.702 129.299)"/><rect class="fj" width="36.657" height="2.051" transform="translate(136.702 144.917)"/><rect class="fk" width="36.657" height="2.051" transform="translate(136.702 160.522)"/><rect class="fk" width="36.657" height="2.051" transform="translate(136.702 176.14)"/><rect class="fk" width="36.657" height="2.051" transform="translate(136.702 191.745)"/><rect class="fk" width="36.657" height="2.051" transform="translate(136.702 207.362)"/><rect class="e" width="85.573" height="105.549" transform="translate(331.634 136.846)"/><rect class="fl" width="79.003" height="2.894" transform="translate(331.744 149.337)"/><rect class="fl" width="79.003" height="2.894" transform="translate(331.744 159.496)"/><rect class="fm" width="79.003" height="2.894" transform="translate(331.744 169.644)"/><rect class="fm" width="79.003" height="2.894" transform="translate(331.744 179.791)"/><rect class="fm" width="79.003" height="2.894" transform="translate(331.744 189.938)"/><rect class="fm" width="79.003" height="2.894" transform="translate(331.744 200.085)"/><rect class="fm" width="79.003" height="2.894" transform="translate(331.744 210.232)"/><rect class="fn" width="71.433" height="105.549" transform="translate(345.774 136.846)"/><rect class="fo" width="131.949" height="63.801" transform="translate(198.72 178.594)"/><rect class="a" width="53.861" height="122.205" transform="translate(495.599 119.641)"/><rect class="fp" width="53.861" height="122.205" transform="translate(495.794 120.727)"/><rect class="a" width="18.255" height="122.205" transform="translate(477.344 119.628)"/><rect class="fq" width="18.255" height="122.205" transform="translate(477.344 120.727)"/><rect class="a" width="56.45" height="7.607" transform="translate(494.5 112.021)"/><rect class="fr" width="56.45" height="7.607" transform="translate(495.794 112.021)"/><rect class="a" width="19.977" height="7.607" transform="translate(475.622 112.021)"/><rect class="fs" width="19.977" height="7.607" transform="translate(475.623 112.021)"/><rect class="a" width="72.141" height="0.989" transform="translate(477.356 126.613)"/><rect class="a" width="18.255" height="0.989" transform="translate(477.344 126.613)"/><rect class="a" width="72.141" height="0.989" transform="translate(477.356 138.103)"/><rect class="a" width="18.255" height="0.989" transform="translate(477.344 138.103)"/><rect class="a" width="72.141" height="0.989" transform="translate(477.356 149.581)"/><rect class="a" width="18.255" height="0.989" transform="translate(477.344 149.581)"/><rect class="a" width="72.141" height="0.989" transform="translate(477.356 161.072)"/><rect class="a" width="18.255" height="0.989" transform="translate(477.344 161.072)"/><rect class="a" width="72.141" height="0.989" transform="translate(477.356 172.55)"/><rect class="a" width="18.255" height="0.989" transform="translate(477.344 172.55)"/><rect class="ft" width="72.141" height="0.989" transform="translate(477.356 184.028)"/><rect class="ft" width="18.255" height="0.989" transform="translate(477.344 184.028)"/><rect class="a" width="72.141" height="0.989" transform="translate(477.356 195.518)"/><rect class="a" width="18.255" height="0.989" transform="translate(477.344 195.518)"/><rect class="a" width="72.141" height="0.989" transform="translate(477.356 206.996)"/><rect class="a" width="18.255" height="0.989" transform="translate(477.344 206.996)"/><rect class="a" width="72.141" height="0.989" transform="translate(477.356 218.474)"/><rect class="a" width="18.255" height="0.989" transform="translate(477.344 218.474)"/><rect class="a" width="72.141" height="0.989" transform="translate(477.356 229.965)"/><rect class="a" width="18.255" height="0.989" transform="translate(477.344 229.965)"/><rect class="a" width="72.141" height="0.989" transform="translate(477.356 184.028)"/><rect class="a" width="18.255" height="0.989" transform="translate(477.344 184.028)"/><rect class="a" width="53.861" height="105.317" transform="translate(239.626 95.952)"/><rect class="fu" width="53.861" height="102.985" transform="translate(239.626 97.552)"/><rect class="a" width="18.255" height="122.205" transform="translate(221.371 95.952)"/><rect class="fv" width="18.255" height="122.205" transform="translate(221.37 97.551)"/><rect class="a" width="56.45" height="7.607" transform="translate(238.527 88.345)"/><rect class="fw" width="56.45" height="7.607" transform="translate(238.527 88.345)"/><rect class="a" width="19.977" height="7.607" transform="translate(219.649 88.345)"/><rect class="fx" width="19.977" height="7.607" transform="translate(219.649 88.345)"/><rect class="a" width="72.141" height="0.989" transform="translate(221.383 102.936)"/><rect class="a" width="18.255" height="0.989" transform="translate(221.371 102.936)"/><rect class="a" width="72.141" height="0.989" transform="translate(221.383 114.427)"/><rect class="a" width="18.255" height="0.989" transform="translate(221.371 114.427)"/><rect class="a" width="72.141" height="0.989" transform="translate(221.383 125.905)"/><rect class="a" width="18.255" height="0.989" transform="translate(221.371 125.905)"/><rect class="a" width="72.141" height="0.989" transform="translate(221.383 137.383)"/><rect class="a" width="18.255" height="0.989" transform="translate(221.371 137.383)"/><rect class="a" width="72.141" height="0.989" transform="translate(221.383 148.873)"/><rect class="a" width="18.255" height="0.989" transform="translate(221.371 148.873)"/><rect class="ft" width="18.255" height="0.989" transform="translate(221.371 160.351)"/><rect class="a" width="72.141" height="0.989" transform="translate(221.383 171.829)"/><rect class="a" width="18.255" height="0.989" transform="translate(221.371 171.829)"/><rect class="a" width="72.141" height="0.989" transform="translate(221.383 183.32)"/><rect class="a" width="18.255" height="0.989" transform="translate(221.371 183.32)"/><rect class="a" width="72.141" height="0.989" transform="translate(221.383 194.798)"/><rect class="a" width="18.255" height="0.989" transform="translate(221.371 194.798)"/><rect class="ft" width="18.255" height="0.989" transform="translate(221.371 206.288)"/><rect class="a" width="72.141" height="0.989" transform="translate(221.347 160.351)"/><rect class="a" width="18.255" height="0.989" transform="translate(221.371 160.351)"/><rect class="fy" width="55.815" transform="translate(248.869 201.269)"/><rect class="fz" width="93.595" height="9.781" transform="translate(328.386 131.045)"/></g><g transform="translate(173.405 152.537)"><ellipse class="ga" cx="153.202" cy="5.467" rx="153.202" ry="5.467" transform="translate(0 115.91)"/><rect class="gb" width="217.112" height="118.709" rx="8" transform="translate(44.646 0)"/><path class="ga" d="M400.112,289.676v3.015H183v-3.015a5.316,5.316,0,0,1,5.316-5.316H394.8A5.316,5.316,0,0,1,400.112,289.676Z" transform="translate(-138.354 -284.36)"/><circle class="a" cx="1.562" cy="1.562" r="1.562" transform="translate(48.681 2.733)"/><circle class="a" cx="1.562" cy="1.562" r="1.562" transform="translate(52.586 2.733)"/><circle class="a" cx="1.562" cy="1.562" r="1.562" transform="translate(56.491 2.733)"/><path class="gc" d="M347.5,503.86" transform="translate(-260.031 -446.718)"/><path class="gc" d="M333.5,502.86" transform="translate(-249.675 -445.979)"/><rect class="a" width="24.991" height="20.305" rx="9.29" transform="translate(77.707 22.128)"/><rect class="gd" width="24.991" height="20.305" rx="9.29" transform="translate(106.836 22.018)"/><rect class="a" width="24.991" height="20.305" rx="9.29" transform="translate(136.02 22.128)"/><rect class="a" width="24.991" height="20.305" rx="9.29" transform="translate(165.177 22.128)"/><rect class="gd" width="24.991" height="20.305" rx="9.29" transform="translate(194.247 22.018)"/><rect class="a" width="24.991" height="20.305" rx="9.29" transform="translate(77.707 56.23)"/><rect class="a" width="24.991" height="20.305" rx="9.29" transform="translate(106.864 56.23)"/><path class="gd" d="M4.586,0h15.82a4.586,4.586,0,0,1,4.586,4.586V15.72a4.586,4.586,0,0,1-4.586,4.586H4.586A4.586,4.586,0,0,1,0,15.72V4.586A4.586,4.586,0,0,1,4.586,0Z" transform="translate(135.972 56.178)"/><rect class="a" width="24.991" height="20.305" rx="9.29" transform="translate(165.177 56.23)"/><rect class="a" width="24.991" height="20.305" rx="9.29" transform="translate(194.333 56.23)"/><rect class="a" width="24.991" height="20.305" rx="9.29" transform="translate(77.707 90.333)"/><rect class="a" width="24.991" height="20.305" rx="9.29" transform="translate(106.864 90.333)"/><rect class="a" width="24.991" height="20.305" rx="9.29" transform="translate(136.02 90.333)"/><rect class="ge" width="24.991" height="20.305" rx="9.29" transform="translate(165.109 90.339)"/><rect class="a" width="24.991" height="20.305" rx="9.29" transform="translate(194.333 90.333)"/><path class="gf" d="M1004.409,657.035c-.781-1.434.1-3.194,1.117-4.472s2.241-2.6,2.215-4.241c-.039-2.343-2.525-3.728-4.511-4.97a21.875,21.875,0,0,1-4.051-3.257,5.94,5.94,0,0,1-1.244-1.666,6.757,6.757,0,0,1-.375-2.96q.133-5.014.5-10.02" transform="translate(-740.855 -536.655)"/><path class="gg" d="M984.99,614.85a3.644,3.644,0,0,1,1.822-2.994l.817,1.619-.026-1.96a3.7,3.7,0,0,1,1.205-.146,3.645,3.645,0,1,1-3.819,3.481Z" transform="translate(-731.563 -526.238)"/><path class="gg" d="M1008.846,704.636a3.645,3.645,0,1,0-.177-2.942l2.283,1.856-2.512-.58A3.646,3.646,0,0,0,1008.846,704.636Z" transform="translate(-748.911 -591.295)"/><path class="gg" d="M1007.1,671.767a3.645,3.645,0,0,0,1.145-7.156l.021,1.5-.828-1.638h0a3.645,3.645,0,0,0-3.819,3.478,3.6,3.6,0,0,0,.156,1.247A3.645,3.645,0,0,0,1007.1,671.767Z" transform="translate(-745.34 -565.52)"/><path class="gg" d="M972.985,649.116a3.645,3.645,0,1,0-1.617-6.839l.646,1.77-1.328-1.276a3.644,3.644,0,0,0-1.179,2.522,3.588,3.588,0,0,0,.091,1.007A3.644,3.644,0,0,0,972.985,649.116Z" transform="translate(-720.11 -548.771)"/><path class="gh" d="M985.7,621.507c.843.091,1.664.354,2.51.406a2.729,2.729,0,0,0,2.312-.807,11.278,11.278,0,0,0,.674-1.19,2.6,2.6,0,0,1,.922-.867,3.645,3.645,0,1,1-6.831,2.426Q985.5,621.484,985.7,621.507Z" transform="translate(-731.787 -531.922)"/><path class="gh" d="M973.279,655.027a3.645,3.645,0,0,0,3.475-5.207,2.7,2.7,0,0,0-.734.734,11.941,11.941,0,0,1-.724,1.208,2.993,2.993,0,0,1-2.424.849c-.883-.039-1.734-.292-2.6-.372-.122,0-.245-.018-.37-.021a3.645,3.645,0,0,0,3.379,2.809Z" transform="translate(-720.404 -554.681)"/><path class="gh" d="M1007.569,677.874a3.644,3.644,0,0,0,3.5-5.144,2.989,2.989,0,0,0-.781.742c-.284.4-.461.862-.781,1.231a3.383,3.383,0,0,1-2.585.909c-.932-.021-1.778-.242-2.676-.312a3.644,3.644,0,0,0,3.319,2.575Z" transform="translate(-745.812 -571.627)"/><path class="gh" d="M1010,711.271a3.649,3.649,0,0,0,6.662-2.981,3.542,3.542,0,0,0-.8.716,15.9,15.9,0,0,1-.979,1.3,4.551,4.551,0,0,1-3.028,1.065,15.645,15.645,0,0,1-1.854-.1Z" transform="translate(-750.065 -597.93)"/><path class="gi" d="M1014.577,736s-2.885-.089-3.754-.708-4.426-1.356-4.65-.364-4.334,4.946-1.08,4.962,7.565-.521,8.435-1.041S1014.577,736,1014.577,736Z" transform="translate(-745.512 -617.277)"/><path class="gj" d="M1005.067,743.953c3.257.026,7.565-.508,8.432-1.041.661-.4.924-1.846,1.013-2.512h.1s-.182,2.327-1.041,2.864-5.178,1.062-8.435,1.041c-.94,0-1.263-.341-1.244-.836C1004.01,743.761,1004.367,743.94,1005.067,743.953Z" transform="translate(-745.543 -621.681)"/><path class="gf" d="M167.089,609.547c-1.143-2.114.154-4.707,1.643-6.594s3.306-3.848,3.27-6.248c-.057-3.454-3.723-5.493-6.654-7.326a32.44,32.44,0,0,1-5.972-4.8,8.8,8.8,0,0,1-1.822-2.458,9.959,9.959,0,0,1-.549-4.368q.187-7.393.729-14.773" transform="translate(-119.113 -490.448)"/><path class="gg" d="M138.393,547.3a5.383,5.383,0,0,1,2.689-4.425l1.208,2.387-.036-2.89a5.389,5.389,0,1,1-3.861,4.918Z" transform="translate(-105.355 -475.044)"/><path class="gg" d="M173.6,679.695a5.386,5.386,0,1,0-.26-4.337l3.363,2.736L173,677.237A5.365,5.365,0,0,0,173.6,679.695Z" transform="translate(-130.957 -570.972)"/><path class="gg" d="M170.942,631.217a5.389,5.389,0,0,0,1.708-10.569l.029,2.218-1.221-2.413h-.013a5.388,5.388,0,1,0-.5,10.765Z" transform="translate(-125.635 -532.955)"/><path class="gg" d="M120.678,597.78a5.391,5.391,0,0,0,5.633-5.131,5.321,5.321,0,0,0-.521-2.554,5.381,5.381,0,0,0-7.505-2.4l.95,2.6-1.958-1.88a5.389,5.389,0,0,0,3.384,9.353Z" transform="translate(-88.45 -508.22)"/><path class="gh" d="M139.462,557.151c1.242.138,2.452.521,3.7.6a4.01,4.01,0,0,0,3.408-1.192,16.737,16.737,0,0,0,1-1.752,3.843,3.843,0,0,1,1.356-1.278,5.389,5.389,0,1,1-10.072,3.577C139.053,557.115,139.259,557.13,139.462,557.151Z" transform="translate(-105.698 -483.458)"/><path class="gh" d="M121.083,606.555a5.391,5.391,0,0,0,5.633-5.131,5.32,5.32,0,0,0-.521-2.554,4,4,0,0,0-1.083,1.083,17.246,17.246,0,0,1-1.067,1.781,4.425,4.425,0,0,1-3.572,1.25c-1.3-.052-2.556-.427-3.85-.547-.18-.016-.362-.029-.544-.034A5.386,5.386,0,0,0,121.083,606.555Z" transform="translate(-88.855 -516.995)"/><path class="gh" d="M171.619,640.266a5.386,5.386,0,0,0,5.167-7.586,4.346,4.346,0,0,0-1.138,1.1,19,19,0,0,1-1.171,1.822,4.988,4.988,0,0,1-3.814,1.338c-1.333-.031-2.619-.357-3.944-.458A5.391,5.391,0,0,0,171.619,640.266Z" transform="translate(-126.312 -542.003)"/><path class="gh" d="M175.32,689.507a5.389,5.389,0,0,0,9.822-4.4,5.445,5.445,0,0,0-1.184,1.041,23.044,23.044,0,0,1-1.442,1.916,6.722,6.722,0,0,1-4.462,1.562A23.188,23.188,0,0,1,175.32,689.507Z" transform="translate(-132.673 -580.784)"/><path class="gi" d="M182.044,725.989s-4.251-.13-5.535-1.041-6.539-2-6.857-.539-6.391,7.289-1.591,7.318,11.155-.747,12.433-1.528S182.044,725.989,182.044,725.989Z" transform="translate(-125.944 -609.324)"/><path class="gj" d="M168.019,737.72c4.8.039,11.155-.747,12.433-1.526.974-.593,1.364-2.723,1.492-3.7h.143s-.26,3.429-1.549,4.207-7.633,1.562-12.433,1.528c-1.385,0-1.864-.5-1.838-1.234C166.457,737.436,166.978,737.712,168.019,737.72Z" transform="translate(-125.977 -615.83)"/><g transform="translate(215.288 23.228)"><path class="gk" d="M855.072,247.854a4.2,4.2,0,0,0,4.68-.3l-.02,2.9c.145,1.981,2.6,9.23,2.6,9.23l1.733,5.96a46.629,46.629,0,0,1,1.905,12.964,12.407,12.407,0,0,0,.553,4.081c.923,2.495-.363,5.709-.921,6.906a28.994,28.994,0,0,1-2.861.806,1.962,1.962,0,0,0-.256.078l-.012-.016a11.816,11.816,0,0,1-3.757.89,1.014,1.014,0,0,0-.727,1.76,5.28,5.28,0,0,1-1.732.228c-1.156-.142-1.735,1.846.434,2.414s14.46,0,14.46,0a1.744,1.744,0,0,0,.924-1.925c.944-.036,1.534-.064,1.534-.064s2.169-.991,0-3.693l-.116.087-.464-1.365v-1.844s2.747-13.207,1.881-14.769-1.3-9.514-1.3-9.514l.294-8.662a20.49,20.49,0,0,0,1.389-6.136,13.034,13.034,0,0,0,.555-2.91c.035-.466.063-.954.081-1.461a9.8,9.8,0,0,0-.538-3.267,32.4,32.4,0,0,1,3.275-4.112,4.22,4.22,0,0,0,1.3-3.693l-.723-4.829-1.735-8.236a6.3,6.3,0,0,0-.786-4.344c.125-.738.243-1.476.33-2.217a28.376,28.376,0,0,0-.507-9.654,6.536,6.536,0,0,0-1.367-3.074c-.877-.948-2.3-1.525-2.627-2.767a8.036,8.036,0,0,0-.2-.934c-.317-.812-1.321-1.108-2.2-1.213a11.99,11.99,0,0,0-5.332.281,6.469,6.469,0,0,0-3.07,2.879,2.165,2.165,0,0,0-.094,2.377,5.448,5.448,0,0,0-.337,1.9,5.54,5.54,0,0,0,3.536,5.139c.035.109.066.216.092.322a5.526,5.526,0,0,1,.142.774c-.028.5-.059,1.005-.083,1.509q-.025.1-.053.2a37.222,37.222,0,0,0-3.632,1.852c.868,1.278-.145,6.675-.145,6.675-2.169,1.278-4.338,4.545-2.024,7.952a8.5,8.5,0,0,1,1.012,7.1l-.362,5.552h0v.01l-.073,1.111h.028l-.028.421.063.012v.452a6.744,6.744,0,0,0-3.384,2.518,8.882,8.882,0,0,1-1.514,1.857,1.116,1.116,0,0,0,.173,1.811Zm17.46-14.752a5.284,5.284,0,0,1,.513-2.793q.51.01,1.022.012c.035.239.076.467.125.675.294,1.251-.88,1.851-1.662,2.1Z" transform="translate(-854.513 -194.987)"/><path class="gl" d="M906.946,753.656l.556,1.669-1.816,1.816-5.983,1.392-4.314-.418.279-1.53h0a1.846,1.846,0,0,1,1.37-1.349c1.773-.416,5.154-1.367,5.864-2.686Z" transform="translate(-888.642 -660.503)"/><path class="gm" d="M880.553,769.622l.835-1.113-.835-1.289a11.224,11.224,0,0,1-3.617.872c-1.113-.139-1.669,1.816.418,2.366s13.914,0,13.914,0,2.087-.974,0-3.617l-1.816,1.392s-3.061,1.669-4.591,1.392Z" transform="translate(-872.406 -672.434)"/><path class="gl" d="M881.1,769.83l4.314.418,5.983-1.392,1.816-1.816-.147-.442-.208-.621-.208-.6-4.035-1.113a2.5,2.5,0,0,1-.825.825,17.276,17.276,0,0,1-5.047,1.867,1.419,1.419,0,0,0-.165.051,1.839,1.839,0,0,0-1.2,1.3Z" transform="translate(-876.711 -670.279)"/><path class="gh" d="M881.1,781.653l4.314.417,5.983-1.392,1.816-1.816-.147-.443L891.4,779.7s-3.061,1.669-4.591,1.392h-4.322l.835-1.113-.75-1.156a1.839,1.839,0,0,0-1.2,1.3Z" transform="translate(-876.711 -682.102)"/><path class="gm" d="M866.223,781.422l.835-1.113-.835-1.289a11.228,11.228,0,0,1-3.617.872c-1.113-.139-1.669,1.816.418,2.366s13.914,0,13.914,0,2.087-.974,0-3.617l-1.816,1.392s-3.061,1.669-4.591,1.392Z" transform="translate(-860.442 -682.286)"/><path class="gn" d="M910.6,269.373s6.679.695,5.705-2.087a5.007,5.007,0,0,1-.206-2.457,6.81,6.81,0,0,1,1.18-2.83l-6.262.974a7.838,7.838,0,0,1,.849,2.011A4.1,4.1,0,0,1,910.6,269.373Z" transform="translate(-901.341 -250.937)"/><path class="go" d="M938.858,498.82s-.139,5.983-1.53,8.9l-.279,8.487s.418,7.792,1.253,9.323S936.485,540,936.485,540v2.227s-4.457,1.669-5.706-.279l1.253-16.558-.556-22.957Z" transform="translate(-918.189 -448.661)"/><path class="gh" d="M938.858,498.82s-.139,5.983-1.53,8.9l-.279,8.487s.418,7.792,1.253,9.323S936.485,540,936.485,540v2.227s-4.457,1.669-5.706-.279l1.253-16.558-.556-22.957Z" transform="translate(-918.189 -448.661)"/><path class="gp" d="M964.91,382.51l.835,2.227.7,4.731a4.185,4.185,0,0,1-1.253,3.617,39.853,39.853,0,0,0-3.9,5.147l-2.641-7.924s2.641-.418,2.227-2.227a26.3,26.3,0,0,1-.281-5.161Z" transform="translate(-941.458 -351.552)"/><path class="gq" d="M964.91,382.51l.835,2.227.7,4.731a4.185,4.185,0,0,1-1.253,3.617,39.853,39.853,0,0,0-3.9,5.147l-2.641-7.924s2.641-.418,2.227-2.227a26.3,26.3,0,0,1-.281-5.161Z" transform="translate(-941.458 -351.552)"/><path class="gh" d="M921.66,765.087c1.785,2.806,4.563,1.217,5.055.9l-.2-.614-4.035-1.113a2.5,2.5,0,0,1-.819.827Z" transform="translate(-910.575 -670.279)"/><path class="go" d="M887.85,453.551c.139,1.948,2.5,9.044,2.5,9.044l1.669,5.839a46.462,46.462,0,0,1,1.834,12.7,12.335,12.335,0,0,0,.533,4c1.113,3.061-1.113,7.236-1.113,7.236,1.948,3.478,5.283,1.113,5.283,1.113v-2.225s2.641-12.106,1.948-14.47-.974-8.766-.974-8.766V456.464a13.1,13.1,0,0,0,3.818-8.307c.033-.456.06-.934.078-1.431.112-3.137-2.034-6.82-2.872-8.131-.2-.317-.33-.5-.33-.5l-12.286,4.873-.028.011v1.527Z" transform="translate(-882.346 -397.965)"/><path class="gh" d="M913.13,262.972a7.838,7.838,0,0,1,.849,2.011,5.448,5.448,0,0,0,4.233-.155,6.811,6.811,0,0,1,1.18-2.828Z" transform="translate(-903.453 -250.937)"/><circle class="gl" cx="5.426" cy="5.426" r="5.426" transform="translate(7.034 3.268)"/><path class="gh" d="M887.85,444.541l.059.012c5.834,1.2,13.159-4.882,13.159-4.882a7.215,7.215,0,0,1-.507-1.035c-.2-.317-.33-.5-.33-.5l-12.286,4.873-.031.487Z" transform="translate(-882.346 -397.998)"/><path class="gr" d="M881.732,289.354s7.792-4.731,10.3-2.783l3.478,4.457s2.227.695,1.816,5.147l1.663,8.068-5.009,1.253a5.479,5.479,0,0,0-.556,6.818s-7.375,6.122-13.219,4.87l.418-6.539a8.469,8.469,0,0,0-.974-6.957c-2.227-3.34-.139-6.539,1.948-7.792C881.594,295.895,882.566,290.607,881.732,289.354Z" transform="translate(-874.698 -271.058)"/><path class="gl" d="M863.577,477.75a7.183,7.183,0,0,0-4.314,2.783,8.672,8.672,0,0,1-1.456,1.816,1.1,1.1,0,0,0,.165,1.76c1.1.66,2.906,1.071,5.181-.8C867.055,480.116,863.577,477.75,863.577,477.75Z" transform="translate(-856.96 -431.069)"/><path class="gh" d="M896.833,321.3s2.783-.279,3.478,6.957,1.816,8.9,1.816,8.9.7,3.757-.974,5.983-4.87,6.957-4.87,6.957-3.478.974-4.173-2.5l4.314-8.07a5.8,5.8,0,0,0-.974-4.731C893.781,332.85,892.519,319.91,896.833,321.3Z" transform="translate(-885.903 -300.361)"/><path class="gr" d="M895.113,318.772s2.783-.279,3.478,6.957,1.816,8.9,1.816,8.9.7,3.757-.974,5.983-4.87,6.957-4.87,6.957-3.478.974-4.173-2.5L894.7,337a5.8,5.8,0,0,0-.974-4.731C892.061,330.32,890.8,317.38,895.113,318.772Z" transform="translate(-884.467 -298.249)"/><path class="gh" d="M904.987,350.9s-.277,4.309.971,6.679,1.253,5.426,0,7.1" transform="translate(-896.633 -325.161)"/><path class="gh" d="M900.91,306.916s1.113-1.113,4.314-1.253a9.235,9.235,0,0,0,4.591-1.113" transform="translate(-893.251 -286.462)"/><path class="gh" d="M905.779,204.37c.845.1,1.816.395,2.117,1.189a8.2,8.2,0,0,1,.193.916c.315,1.215,1.684,1.781,2.528,2.711a6.564,6.564,0,0,1,1.321,3.011,28.3,28.3,0,0,1,.5,9.453c-.271,2.311-.826,4.58-.981,6.9a10.93,10.93,0,0,0,1.4,6.7,16.733,16.733,0,0,1,1.651,2.494,4.813,4.813,0,0,1-2.927.774q-1.794.061-3.591,0a3.829,3.829,0,0,1-1.824-.38,2.817,2.817,0,0,1-.957-1.028,7.312,7.312,0,0,1-.825-3.906c.031-1.347.243-2.688.267-4.036a3.532,3.532,0,0,0-.467-2.116,6.9,6.9,0,0,0-1.166-1.078,7.4,7.4,0,0,1-2.05-5.426c-.049-1.989.279-3.982.111-5.965-.066-.776-.357-1.709-1.119-1.859a3.936,3.936,0,0,1-.726-.092c-.612-.236-.553-1.1-.728-1.732-.2-.71-.8-1.258-.972-1.981-.4-1.684,1.742-3.693,3.147-4.279A11.264,11.264,0,0,1,905.779,204.37Z" transform="translate(-890.38 -202.688)"/><path class="go" d="M906.619,202.684c.845.1,1.816.395,2.117,1.189a8.2,8.2,0,0,1,.193.916c.315,1.215,1.684,1.781,2.528,2.711a6.567,6.567,0,0,1,1.321,3.011,28.3,28.3,0,0,1,.5,9.453c-.271,2.311-.826,4.58-.981,6.9a10.93,10.93,0,0,0,1.4,6.7,16.723,16.723,0,0,1,1.651,2.495,4.813,4.813,0,0,1-2.927.774q-1.795.061-3.591,0a3.828,3.828,0,0,1-1.824-.38,2.817,2.817,0,0,1-.958-1.029,7.313,7.313,0,0,1-.825-3.906c.031-1.347.243-2.688.267-4.036a3.532,3.532,0,0,0-.467-2.116,6.9,6.9,0,0,0-1.166-1.078,7.4,7.4,0,0,1-2.05-5.426c-.049-1.989.279-3.982.111-5.965-.066-.776-.357-1.709-1.119-1.859a3.94,3.94,0,0,1-.726-.092c-.613-.236-.553-1.1-.728-1.732-.2-.71-.8-1.258-.972-1.981-.4-1.684,1.742-3.693,3.147-4.279A11.218,11.218,0,0,1,906.619,202.684Z" transform="translate(-890.933 -200.86)"/></g><path class="gs" d="M222.753,511.778l2.934,2.888a.731.731,0,0,1-.513,1.251h-.125a.738.738,0,0,1-.518-.213l-2.856-2.858a.733.733,0,0,0-1.034,0l-2.856,2.858a.729.729,0,0,1-.516.213h-.127a.731.731,0,0,1-.513-1.251l2.937-2.888a.726.726,0,0,0,0-1.027h0l-2.964-2.965a.731.731,0,0,1,.516-1.247h0a.726.726,0,0,1,.511.208l3.006,2.965a.731.731,0,0,0,1.024,0l3.006-2.965a.726.726,0,0,1,.511-.208h0a.731.731,0,0,1,.518,1.247l-2.964,2.965a.726.726,0,0,0,.014,1.027h0Z" transform="translate(-43.576 -410.843)"/><path class="gg" d="M364.959,434.531l2.711,4.211a.844.844,0,0,0,1.164.253.921.921,0,0,0,.18-.159l7.466-8.606a.839.839,0,0,0-.632-1.39h-.062a.839.839,0,0,0-.645.3l-5.841,6.992a.839.839,0,0,1-1.178.11.855.855,0,0,1-.167-.188l-1.589-2.42a.842.842,0,0,0-.828-.368h0a.836.836,0,0,0-.578,1.253Z" transform="translate(-222.17 -367.638)"/><path class="gg" d="M364.959,434.531l2.711,4.211a.844.844,0,0,0,1.164.253.921.921,0,0,0,.18-.159l7.466-8.606a.839.839,0,0,0-.632-1.39h-.062a.839.839,0,0,0-.645.3l-5.841,6.992a.839.839,0,0,1-1.178.11.855.855,0,0,1-.167-.188l-1.589-2.42a.842.842,0,0,0-.828-.368h0a.836.836,0,0,0-.578,1.253Z" transform="translate(-163.896 -401.799)"/><path class="gg" d="M364.959,434.531l2.711,4.211a.844.844,0,0,0,1.164.253.921.921,0,0,0,.18-.159l7.466-8.606a.839.839,0,0,0-.632-1.39h-.062a.839.839,0,0,0-.645.3l-5.841,6.992a.839.839,0,0,1-1.178.11.855.855,0,0,1-.167-.188l-1.589-2.42a.842.842,0,0,0-.828-.368h0a.836.836,0,0,0-.578,1.253Z" transform="translate(-251.307 -401.799)"/></g></g></g></svg>