<svg xmlns="http://www.w3.org/2000/svg" xmlns:xlink="http://www.w3.org/1999/xlink" width="765" height="550" viewBox="0 0 765 550"><defs><style>.a{fill:#fff;}.b{clip-path:url(#a);}.c{opacity:0.8;}.d{fill:#f3f3f3;opacity:0.52;}.aj,.e,.fp,.fq,.fr,.g{fill:#387dff;}.e,.gh{opacity:0.1;}.cp,.f{opacity:0.4;}.f{fill:url(#b);}.g{opacity:0.15;}.h{fill:url(#c);}.i{fill:url(#d);}.j{fill:url(#e);}.k{fill:url(#f);}.l{fill:url(#g);}.m{fill:url(#h);}.n{fill:url(#i);}.o{fill:url(#j);}.p{fill:url(#k);}.q{fill:url(#l);}.r{fill:url(#m);}.s{fill:url(#n);}.t{fill:url(#o);}.u{fill:url(#p);}.v{fill:url(#q);}.w{fill:url(#r);}.x{fill:url(#s);}.y{fill:url(#t);}.z{fill:url(#u);}.aa{fill:url(#v);}.ab{fill:url(#w);}.ac{fill:url(#x);}.ad{fill:url(#y);}.ae{fill:url(#z);}.af{fill:url(#aa);}.ag{fill:url(#ab);}.ah{fill:url(#ac);}.ai{fill:url(#ad);}.aj{opacity:0.19;}.ak{fill:url(#ae);}.al{fill:url(#af);}.am{fill:url(#ag);}.an{fill:url(#ah);}.ao{fill:url(#ai);}.ap{fill:url(#aj);}.aq{fill:url(#ak);}.ar{fill:url(#al);}.as{fill:url(#am);}.at{fill:url(#an);}.au{fill:url(#ao);}.av{fill:url(#ap);}.aw{fill:url(#aq);}.ax{fill:url(#ar);}.ay{fill:url(#as);}.az{fill:url(#at);}.ba{fill:url(#au);}.bb{fill:url(#av);}.bc{fill:url(#aw);}.bd{fill:url(#ax);}.be{fill:url(#ay);}.bf{fill:url(#az);}.bg{fill:url(#ba);}.bh{fill:url(#bb);}.bi{fill:url(#bc);}.bj{fill:url(#bd);}.bk{fill:url(#be);}.bl{fill:url(#bf);}.bm{fill:rgba(56,125,255,0.41);}.bn{fill:url(#bg);}.bo{fill:url(#bh);}.bp{fill:url(#bi);}.bq{fill:url(#bj);}.br{fill:url(#bk);}.bs{fill:url(#bl);}.bt{fill:url(#bm);}.bu{fill:url(#bn);}.bv{fill:url(#bo);}.bw{fill:url(#bp);}.bx{fill:url(#bq);}.by{fill:url(#br);}.bz{fill:url(#bs);}.ca{fill:url(#bt);}.cb{fill:url(#bu);}.cc{fill:url(#bv);}.cd{fill:url(#bw);}.ce{fill:url(#bx);}.cf{fill:url(#by);}.cg{fill:url(#bz);}.ch{fill:url(#ca);}.ci{fill:url(#cb);}.cj{fill:url(#cc);}.ck{fill:url(#cd);}.cl{fill:url(#ce);}.cm{fill:url(#cf);}.cn{fill:url(#cg);}.co{fill:url(#ch);}.cp,.fn,.fu,.fw,.gd{fill:url(#ci);}.cq{fill:url(#cj);}.cr{fill:url(#ck);}.cs{fill:url(#cl);}.ct{fill:url(#cm);}.cu{fill:url(#cn);}.cv{fill:url(#co);}.cw{fill:url(#cp);}.cx{fill:url(#cq);}.cy{fill:url(#cr);}.cz{fill:url(#cs);}.da{fill:url(#ct);}.db{fill:url(#cu);}.dc{fill:url(#cv);}.dd{fill:url(#cw);}.de{fill:url(#cx);}.df{fill:url(#cy);}.dg{fill:url(#cz);}.dh{fill:url(#da);}.di{fill:url(#db);}.dj{fill:url(#dc);}.dk{fill:url(#dd);}.dl{fill:url(#de);}.dm{fill:url(#df);}.dn{fill:url(#dg);}.do{fill:url(#dh);}.dp{fill:url(#di);}.dq{fill:url(#dj);}.dr{fill:url(#dk);}.ds{opacity:0.92;fill:url(#dl);}.dt{fill:#cacaca;}.du{fill:url(#dm);}.dv{fill:url(#dn);}.dw{fill:url(#do);}.dx{fill:url(#dp);}.dy{fill:url(#dq);}.dz{fill:url(#dr);}.ea{fill:url(#ds);}.eb{fill:url(#dt);}.ec{fill:rgba(56,125,255,0.27);}.ed{fill:rgba(56,125,255,0.44);}.ee,.ef,.eg{opacity:0.3;}.ee{fill:url(#du);}.ef{fill:url(#dv);}.eg{fill:url(#dw);}.eh,.ei,.ej,.ek,.el,.fs,.fx{opacity:0.5;}.eh{fill:url(#dx);}.ei{fill:url(#dy);}.ej{fill:url(#dz);}.ek{fill:url(#ea);}.el{fill:url(#eb);}.em{fill:url(#ec);}.en{fill:url(#ed);}.eo{fill:url(#ee);}.ep{fill:url(#ef);}.eq{fill:url(#eg);}.er{fill:url(#eh);}.es{fill:url(#ei);}.et{fill:url(#ej);}.eu{fill:url(#ek);}.ev{fill:url(#el);}.ew{fill:url(#em);}.ex{fill:url(#en);}.ey{fill:url(#eo);}.ez{fill:url(#ep);}.fa{fill:url(#eq);}.fb{fill:url(#er);}.fc{fill:url(#es);}.fd{fill:url(#et);}.fe{fill:url(#eu);}.ff{fill:url(#ev);}.fg{opacity:0.56;fill:url(#ew);}.fh,.fi,.fj{opacity:0.7;}.fh{fill:url(#ex);}.fi{fill:url(#ey);}.fj{fill:url(#ez);}.fk{opacity:0.48;fill:url(#fa);}.fl{fill:rgba(255,255,255,0);}.fm{fill:url(#fe);}.fn{opacity:0.24;}.fo{opacity:0.28;fill:url(#fk);}.fp{opacity:0.26;}.fq,.fu{opacity:0.41;}.fr{opacity:0.44;}.fs{fill:url(#fl);}.ft{fill:#68e1fd;}.fv{opacity:0.58;}.fv,.fx{fill:url(#fn);}.fw{opacity:0.63;}.fy{fill:url(#fq);}.fz{fill:#e0eaff;opacity:0.68;}.ga{fill:#3f3d56;}.gb{fill:#e1edfe;}.gc,.gf{fill:none;stroke-miterlimit:10;}.gc{stroke:#f2f2f2;stroke-width:2px;}.ge{fill:rgba(56,125,255,0.2);}.gf{stroke:#3f3d56;stroke-width:4px;}.gg{fill:#4fdc6f;}.gi{fill:#656380;}.gj{opacity:0.2;}.gk{fill:url(#fu);}.gl{fill:#fbbebe;}.gm{fill:#2e3037;}.gn{fill:#db8b8b;}.go{fill:#474463;}.gp{fill:#fc6681;}.gq{opacity:0.05;}.gq,.gr{fill:url(#fv);}.gs{fill:#f07379;}</style><clipPath id="a"><rect class="a" width="765" height="550" transform="translate(853 70)"/></clipPath><linearGradient id="b" x1="0.501" y1="1.05" x2="0.497" y2="-1.399" gradientUnits="objectBoundingBox"><stop offset="0" stop-color="#5690ff"/><stop offset="1" stop-color="#766de8"/></linearGradient><linearGradient id="c" x1="0.614" y1="52.7" x2="0.445" y2="-24.325" gradientUnits="objectBoundingBox"><stop offset="0" stop-color="#fff" stop-opacity="0"/><stop offset="0.95" stop-color="#fff"/></linearGradient><linearGradient id="d" x1="0.611" y1="51.296" x2="0.443" y2="-25.73" xlink:href="#c"/><linearGradient id="e" x1="0.609" y1="49.891" x2="0.44" y2="-27.135" xlink:href="#c"/><linearGradient id="f" x1="0.604" y1="48.484" x2="0.437" y2="-28.542" xlink:href="#c"/><linearGradient id="g" x1="0.601" y1="47.079" x2="0.433" y2="-29.946" xlink:href="#c"/><linearGradient id="h" x1="0.599" y1="45.675" x2="0.43" y2="-31.351" xlink:href="#c"/><linearGradient id="i" x1="0.596" y1="44.27" x2="0.427" y2="-32.756" xlink:href="#c"/><linearGradient id="j" x1="0.593" y1="42.863" x2="0.424" y2="-34.163" xlink:href="#c"/><linearGradient id="k" x1="0.59" y1="41.458" x2="0.421" y2="-35.567" xlink:href="#c"/><linearGradient id="l" x1="0.586" y1="40.054" x2="0.418" y2="-36.972" xlink:href="#c"/><linearGradient id="m" x1="0.583" y1="38.647" x2="0.414" y2="-38.379" xlink:href="#c"/><linearGradient id="n" x1="0.58" y1="37.242" x2="0.411" y2="-39.784" xlink:href="#c"/><linearGradient id="o" x1="0.577" y1="35.837" x2="0.409" y2="-41.188" xlink:href="#c"/><linearGradient id="p" x1="0.574" y1="34.43" x2="0.406" y2="-42.595" xlink:href="#c"/><linearGradient id="q" x1="0.572" y1="33.026" x2="0.403" y2="-44" xlink:href="#c"/><linearGradient id="r" x1="0.567" y1="31.621" x2="0.4" y2="-45.405" xlink:href="#c"/><linearGradient id="s" x1="0.565" y1="30.214" x2="0.396" y2="-46.812" xlink:href="#c"/><linearGradient id="t" x1="0.562" y1="28.809" x2="0.393" y2="-48.216" xlink:href="#c"/><linearGradient id="u" x1="0.559" y1="27.405" x2="0.39" y2="-49.621" xlink:href="#c"/><linearGradient id="v" x1="0.556" y1="26" x2="0.387" y2="-51.026" xlink:href="#c"/><linearGradient id="w" x1="0.553" y1="24.593" x2="0.384" y2="-52.433" xlink:href="#c"/><linearGradient id="x" x1="0.549" y1="23.188" x2="0.382" y2="-53.837" xlink:href="#c"/><linearGradient id="y" x1="0.546" y1="21.784" x2="0.377" y2="-55.242" xlink:href="#c"/><linearGradient id="z" x1="0.543" y1="20.377" x2="0.374" y2="-56.649" xlink:href="#c"/><linearGradient id="aa" x1="0.54" y1="18.972" x2="0.372" y2="-58.053" xlink:href="#c"/><linearGradient id="ab" x1="0.538" y1="17.567" x2="0.369" y2="-59.458" xlink:href="#c"/><linearGradient id="ac" x1="0.535" y1="16.161" x2="0.366" y2="-60.865" xlink:href="#c"/><linearGradient id="ad" x1="0.53" y1="14.756" x2="0.363" y2="-62.27" xlink:href="#c"/><linearGradient id="ae" x1="0.519" y1="52.677" x2="0.491" y2="-24.349" xlink:href="#c"/><linearGradient id="af" x1="0.519" y1="51.272" x2="0.49" y2="-25.754" xlink:href="#c"/><linearGradient id="ag" x1="0.518" y1="49.867" x2="0.49" y2="-27.158" xlink:href="#c"/><linearGradient id="ah" x1="0.518" y1="48.46" x2="0.489" y2="-28.565" xlink:href="#c"/><linearGradient id="ai" x1="0.517" y1="47.056" x2="0.489" y2="-29.97" xlink:href="#c"/><linearGradient id="aj" x1="0.517" y1="45.651" x2="0.488" y2="-31.375" xlink:href="#c"/><linearGradient id="ak" x1="0.516" y1="44.244" x2="0.488" y2="-32.779" xlink:href="#c"/><linearGradient id="al" x1="0.516" y1="42.839" x2="0.487" y2="-34.186" xlink:href="#c"/><linearGradient id="am" x1="0.515" y1="41.435" x2="0.487" y2="-35.591" xlink:href="#c"/><linearGradient id="an" x1="0.515" y1="40.03" x2="0.486" y2="-36.996" xlink:href="#c"/><linearGradient id="ao" x1="0.514" y1="38.623" x2="0.486" y2="-38.403" xlink:href="#c"/><linearGradient id="ap" x1="0.514" y1="37.218" x2="0.485" y2="-39.807" xlink:href="#c"/><linearGradient id="aq" x1="0.513" y1="35.814" x2="0.485" y2="-41.212" xlink:href="#c"/><linearGradient id="ar" x1="0.513" y1="34.407" x2="0.484" y2="-42.619" xlink:href="#c"/><linearGradient id="as" x1="0.512" y1="33.002" x2="0.484" y2="-44.024" xlink:href="#c"/><linearGradient id="at" x1="0.512" y1="31.597" x2="0.483" y2="-45.428" xlink:href="#c"/><linearGradient id="au" x1="0.511" y1="30.191" x2="0.482" y2="-46.835" xlink:href="#c"/><linearGradient id="av" x1="0.511" y1="28.786" x2="0.482" y2="-48.24" xlink:href="#c"/><linearGradient id="aw" x1="0.51" y1="27.381" x2="0.482" y2="-49.645" xlink:href="#c"/><linearGradient id="ax" x1="0.51" y1="25.976" x2="0.481" y2="-51.049" xlink:href="#c"/><linearGradient id="ay" x1="0.509" y1="24.57" x2="0.481" y2="-52.456" xlink:href="#c"/><linearGradient id="az" x1="0.508" y1="23.165" x2="0.48" y2="-53.861" xlink:href="#c"/><linearGradient id="ba" x1="0.508" y1="21.76" x2="0.479" y2="-55.266" xlink:href="#c"/><linearGradient id="bb" x1="0.507" y1="20.353" x2="0.479" y2="-56.672" xlink:href="#c"/><linearGradient id="bc" x1="0.507" y1="18.949" x2="0.478" y2="-58.077" xlink:href="#c"/><linearGradient id="bd" x1="0.506" y1="17.544" x2="0.478" y2="-59.482" xlink:href="#c"/><linearGradient id="be" x1="0.506" y1="16.137" x2="0.477" y2="-60.888" xlink:href="#c"/><linearGradient id="bf" x1="0.505" y1="14.732" x2="0.477" y2="-62.293" xlink:href="#c"/><linearGradient id="bg" x1="0.615" y1="52.661" x2="0.446" y2="-24.307" xlink:href="#c"/><linearGradient id="bh" x1="0.611" y1="51.256" x2="0.444" y2="-25.711" xlink:href="#c"/><linearGradient id="bi" x1="0.607" y1="49.851" x2="0.44" y2="-27.116" xlink:href="#c"/><linearGradient id="bj" x1="0.606" y1="48.446" x2="0.438" y2="-28.521" xlink:href="#c"/><linearGradient id="bk" x1="0.602" y1="47.042" x2="0.434" y2="-29.926" xlink:href="#c"/><linearGradient id="bl" x1="0.6" y1="45.64" x2="0.43" y2="-31.327" xlink:href="#c"/><linearGradient id="bm" x1="0.596" y1="44.235" x2="0.428" y2="-32.732" xlink:href="#c"/><linearGradient id="bn" x1="0.594" y1="42.83" x2="0.424" y2="-34.137" xlink:href="#c"/><linearGradient id="bo" x1="0.59" y1="41.426" x2="0.422" y2="-35.539" xlink:href="#c"/><linearGradient id="bp" x1="0.588" y1="40.021" x2="0.418" y2="-36.943" xlink:href="#c"/><linearGradient id="bq" x1="0.584" y1="38.616" x2="0.416" y2="-38.348" xlink:href="#c"/><linearGradient id="br" x1="0.58" y1="37.214" x2="0.412" y2="-39.75" xlink:href="#c"/><linearGradient id="bs" x1="0.578" y1="35.81" x2="0.408" y2="-41.155" xlink:href="#c"/><linearGradient id="bt" x1="0.574" y1="34.405" x2="0.406" y2="-42.56" xlink:href="#c"/><linearGradient id="bu" x1="0.572" y1="33" x2="0.402" y2="-43.964" xlink:href="#c"/><linearGradient id="bv" x1="0.568" y1="31.595" x2="0.4" y2="-45.369" xlink:href="#c"/><linearGradient id="bw" x1="0.566" y1="30.19" x2="0.396" y2="-46.774" xlink:href="#c"/><linearGradient id="bx" x1="0.562" y1="28.789" x2="0.394" y2="-48.176" xlink:href="#c"/><linearGradient id="by" x1="0.558" y1="27.384" x2="0.391" y2="-49.58" xlink:href="#c"/><linearGradient id="bz" x1="0.556" y1="25.979" x2="0.389" y2="-50.985" xlink:href="#c"/><linearGradient id="ca" x1="0.552" y1="24.575" x2="0.385" y2="-52.39" xlink:href="#c"/><linearGradient id="cb" x1="0.55" y1="23.17" x2="0.381" y2="-53.795" xlink:href="#c"/><linearGradient id="cc" x1="0.546" y1="21.765" x2="0.379" y2="-55.2" xlink:href="#c"/><linearGradient id="cd" x1="0.544" y1="20.363" x2="0.375" y2="-56.601" xlink:href="#c"/><linearGradient id="ce" x1="0.54" y1="18.958" x2="0.373" y2="-58.006" xlink:href="#c"/><linearGradient id="cf" x1="0.538" y1="17.554" x2="0.369" y2="-59.411" xlink:href="#c"/><linearGradient id="cg" x1="0.535" y1="16.149" x2="0.367" y2="-60.816" xlink:href="#c"/><linearGradient id="ch" x1="0.531" y1="14.744" x2="0.363" y2="-62.221" xlink:href="#c"/><linearGradient id="ci" x1="0.5" y1="0" x2="0.5" y2="1" xlink:href="#b"/><linearGradient id="cj" x1="0.519" y1="52.637" x2="0.491" y2="-24.327" xlink:href="#c"/><linearGradient id="ck" x1="0.519" y1="51.232" x2="0.49" y2="-25.732" xlink:href="#c"/><linearGradient id="cl" x1="0.518" y1="49.827" x2="0.49" y2="-27.137" xlink:href="#c"/><linearGradient id="cm" x1="0.518" y1="48.423" x2="0.489" y2="-28.542" xlink:href="#c"/><linearGradient id="cn" x1="0.517" y1="47.018" x2="0.489" y2="-29.946" xlink:href="#c"/><linearGradient id="co" x1="0.517" y1="45.616" x2="0.488" y2="-31.348" xlink:href="#c"/><linearGradient id="cp" x1="0.516" y1="44.211" x2="0.488" y2="-32.756" xlink:href="#c"/><linearGradient id="cq" x1="0.516" y1="42.807" x2="0.487" y2="-34.158" xlink:href="#c"/><linearGradient id="cr" x1="0.515" y1="41.402" x2="0.487" y2="-35.562" xlink:href="#c"/><linearGradient id="cs" x1="0.515" y1="39.997" x2="0.486" y2="-36.967" xlink:href="#c"/><linearGradient id="ct" x1="0.514" y1="38.592" x2="0.486" y2="-38.372" xlink:href="#c"/><linearGradient id="cu" x1="0.514" y1="37.19" x2="0.485" y2="-39.774" xlink:href="#c"/><linearGradient id="cv" x1="0.513" y1="35.786" x2="0.485" y2="-41.179" xlink:href="#c"/><linearGradient id="cw" x1="0.512" y1="34.381" x2="0.484" y2="-42.583" xlink:href="#c"/><linearGradient id="cx" x1="0.512" y1="32.976" x2="0.484" y2="-43.988" xlink:href="#c"/><linearGradient id="cy" x1="0.511" y1="31.571" x2="0.483" y2="-45.393" xlink:href="#c"/><linearGradient id="cz" x1="0.511" y1="30.167" x2="0.482" y2="-46.798" xlink:href="#c"/><linearGradient id="da" x1="0.51" y1="28.765" x2="0.482" y2="-48.199" xlink:href="#c"/><linearGradient id="db" x1="0.51" y1="27.36" x2="0.481" y2="-49.604" xlink:href="#c"/><linearGradient id="dc" x1="0.509" y1="25.955" x2="0.481" y2="-51.009" xlink:href="#c"/><linearGradient id="dd" x1="0.509" y1="24.551" x2="0.48" y2="-52.414" xlink:href="#c"/><linearGradient id="de" x1="0.508" y1="23.146" x2="0.48" y2="-53.819" xlink:href="#c"/><linearGradient id="df" x1="0.508" y1="21.741" x2="0.479" y2="-55.223" xlink:href="#c"/><linearGradient id="dg" x1="0.507" y1="20.339" x2="0.479" y2="-56.625" xlink:href="#c"/><linearGradient id="dh" x1="0.507" y1="18.935" x2="0.478" y2="-58.03" xlink:href="#c"/><linearGradient id="di" x1="0.506" y1="17.53" x2="0.478" y2="-59.435" xlink:href="#c"/><linearGradient id="dj" x1="0.506" y1="16.125" x2="0.477" y2="-60.84" xlink:href="#c"/><linearGradient id="dk" x1="0.505" y1="14.72" x2="0.477" y2="-62.244" xlink:href="#c"/><linearGradient id="dl" x1="6.576" y1="0.577" x2="-30.181" y2="0.112" xlink:href="#b"/><linearGradient id="dm" x1="-51.26" y1="5.542" x2="-43.562" y2="6.02" gradientUnits="objectBoundingBox"><stop offset="0" stop-color="#1c265c"/><stop offset="1" stop-color="#fff" stop-opacity="0"/></linearGradient><linearGradient id="dn" x1="-51.489" y1="5.527" x2="-43.792" y2="6.005" xlink:href="#dm"/><linearGradient id="do" x1="-51.719" y1="5.513" x2="-44.023" y2="5.992" xlink:href="#dm"/><linearGradient id="dp" x1="-51.95" y1="5.498" x2="-44.253" y2="5.977" xlink:href="#dm"/><linearGradient id="dq" x1="-52.18" y1="5.484" x2="-44.484" y2="5.963" xlink:href="#dm"/><linearGradient id="dr" x1="-52.411" y1="5.47" x2="-44.714" y2="5.948" xlink:href="#dm"/><linearGradient id="ds" x1="-52.641" y1="5.469" x2="-44.943" y2="5.95" xlink:href="#dm"/><linearGradient id="dt" x1="-49.979" y1="5.701" x2="-42.44" y2="6.194" xlink:href="#dm"/><linearGradient id="du" x1="0.5" y1="-2.054" x2="0.5" y2="14.385" xlink:href="#b"/><linearGradient id="dv" x1="0.5" y1="-3.202" x2="0.5" y2="13.237" xlink:href="#b"/><linearGradient id="dw" x1="0.5" y1="-4.351" x2="0.5" y2="12.088" xlink:href="#b"/><linearGradient id="dx" x1="0.5" y1="-5.5" x2="0.5" y2="10.94" xlink:href="#b"/><linearGradient id="dy" x1="0.5" y1="-6.649" x2="0.5" y2="9.791" xlink:href="#b"/><linearGradient id="dz" x1="0.5" y1="-7.797" x2="0.5" y2="8.642" xlink:href="#b"/><linearGradient id="ea" x1="0.5" y1="-8.946" x2="0.5" y2="7.493" xlink:href="#b"/><linearGradient id="eb" x1="0.5" y1="-10.094" x2="0.5" y2="6.345" xlink:href="#b"/><linearGradient id="ec" x1="56.081" y1="-0.882" x2="41.746" y2="0.672" xlink:href="#c"/><linearGradient id="ed" x1="56.059" y1="-0.882" x2="41.725" y2="0.672" xlink:href="#c"/><linearGradient id="ee" x1="56.038" y1="-0.876" x2="41.703" y2="0.677" xlink:href="#c"/><linearGradient id="ef" x1="56.018" y1="-0.876" x2="41.682" y2="0.677" xlink:href="#c"/><linearGradient id="eg" x1="55.996" y1="-0.871" x2="41.66" y2="0.683" xlink:href="#c"/><linearGradient id="eh" x1="55.975" y1="-0.871" x2="41.64" y2="0.683" xlink:href="#c"/><linearGradient id="ei" x1="55.954" y1="-0.871" x2="41.619" y2="0.688" xlink:href="#c"/><linearGradient id="ej" x1="55.932" y1="-0.871" x2="41.598" y2="0.688" xlink:href="#c"/><linearGradient id="ek" x1="107.461" y1="-0.521" x2="79.243" y2="0.5" xlink:href="#c"/><linearGradient id="el" x1="109.454" y1="-0.447" x2="81.24" y2="0.57" xlink:href="#c"/><linearGradient id="em" x1="107.402" y1="-0.518" x2="79.187" y2="0.5" xlink:href="#c"/><linearGradient id="en" x1="109.398" y1="-0.447" x2="81.183" y2="0.574" xlink:href="#c"/><linearGradient id="eo" x1="107.345" y1="-0.518" x2="79.127" y2="0.5" xlink:href="#c"/><linearGradient id="ep" x1="109.338" y1="-0.447" x2="81.123" y2="0.574" xlink:href="#c"/><linearGradient id="eq" x1="107.285" y1="-0.514" x2="79.071" y2="0.504" xlink:href="#c"/><linearGradient id="er" x1="109.282" y1="-0.444" x2="81.067" y2="0.574" xlink:href="#c"/><linearGradient id="es" x1="107.229" y1="-0.514" x2="79.014" y2="0.507" xlink:href="#c"/><linearGradient id="et" x1="109.225" y1="-0.44" x2="81.007" y2="0.577" xlink:href="#c"/><linearGradient id="eu" x1="107.169" y1="-0.511" x2="78.954" y2="0.511" xlink:href="#c"/><linearGradient id="ev" x1="109.166" y1="-0.437" x2="80.951" y2="0.581" xlink:href="#c"/><linearGradient id="ew" x1="0.468" y1="12.226" x2="0.773" y2="-99.423" xlink:href="#b"/><linearGradient id="ex" x1="0.448" y1="19.607" x2="0.754" y2="-92.042" xlink:href="#b"/><linearGradient id="ey" x1="0.427" y1="27.202" x2="0.733" y2="-84.447" xlink:href="#b"/><linearGradient id="ez" x1="0.406" y1="34.792" x2="0.712" y2="-76.857" xlink:href="#b"/><linearGradient id="fa" x1="0.364" y1="49.976" x2="0.671" y2="-61.673" gradientUnits="objectBoundingBox"><stop offset="0" stop-color="#010101" stop-opacity="0"/><stop offset="0.95" stop-color="#387dff"/><stop offset="1" stop-color="#010101"/></linearGradient><linearGradient id="fe" x1="19.432" y1="19.16" x2="-7.631" y2="-7.515" xlink:href="#c"/><linearGradient id="fk" x1="0.495" y1="-0.712" x2="0.519" y2="4.764" xlink:href="#b"/><linearGradient id="fl" x1="0.5" y1="1" x2="0.5" gradientUnits="objectBoundingBox"><stop offset="0" stop-color="#e9e9e9"/><stop offset="1" stop-color="#387dff"/></linearGradient><linearGradient id="fn" x1="0.5" y1="1" x2="0.5" y2="0" xlink:href="#b"/><linearGradient id="fq" x1="0.5" y1="-0.445" x2="0.5" y2="5.083" xlink:href="#c"/><linearGradient id="fu" x1="6.341" y1="1" x2="6.341" gradientUnits="objectBoundingBox"><stop offset="0" stop-color="gray" stop-opacity="0.251"/><stop offset="0.54" stop-color="gray" stop-opacity="0.122"/><stop offset="1" stop-color="gray" stop-opacity="0.102"/></linearGradient><linearGradient id="fv" x1="0.5" x2="0.5" y2="1" gradientUnits="objectBoundingBox"><stop offset="0" stop-color="#ffa330"/><stop offset="0.274" stop-color="#ff9346"/><stop offset="0.539" stop-color="#ff8559"/><stop offset="0.766" stop-color="#fb7a6a"/><stop offset="1" stop-color="#f07379"/></linearGradient></defs><g class="b" transform="translate(-853 -70)"><g transform="translate(852.949 153.001)"><g class="c"><path class="d" d="M5.42,453.379a146.378,146.378,0,0,0,8.887,18.742c25.536,45.293,74.328,76.53,126.1,80.653,41.92,3.4,83.605-9.777,125.634-9.371,32.361.3,64.035,8.637,95.616,15.306a935.7,935.7,0,0,0,255.688,17.93c59.475-4,120.261-14.369,170.943-45.731A195.509,195.509,0,0,0,848.3,472.84a157.746,157.746,0,0,0,21.288-47.168l-2.28-77.779c-.781-2.952-1.671-5.919-2.561-8.887-1.827-6.122-3.811-12.245-5.779-18.367-3.217-9.84-6.372-19.71-8.887-29.675-.687-2.671-1.343-5.326-1.937-8-5.029-22.975-6.247-46.527-7.809-69.986H795.271v-39h-51.54v59.8H722.208V185.836H696.876v44.5H663.093v52.15H624.859v-50.76H558.091v50.76H499.709v-79.95H469.785v25.677H444.8v54.274H419.806v-36.11H389.194v36.141H372.5v-59.35H343.307V199.018H287.675v83.465h-24.6V150.82h-55.6V282.483H184.313V173.154H141.628v46.324H119.4v63.067Z" transform="translate(5.969 -144.759)"/><path class="e" d="M5.42,453.379a146.378,146.378,0,0,0,8.887,18.742c25.536,45.293,74.328,76.53,126.1,80.653,41.92,3.4,83.605-9.777,125.634-9.371,32.361.3,64.035,8.637,95.616,15.306a935.7,935.7,0,0,0,255.688,17.93c59.475-4,120.261-14.369,170.943-45.731A195.509,195.509,0,0,0,848.3,472.84a157.746,157.746,0,0,0,21.288-47.168l-2.28-77.779c-.781-2.952-1.671-5.919-2.561-8.887-1.827-6.122-3.811-12.245-5.779-18.367-3.217-9.84-6.372-19.71-8.887-29.675-.687-2.671-1.343-5.326-1.937-8-5.029-22.975-6.247-46.527-7.809-69.986H795.271v-39h-51.54v59.8H722.208V185.836H696.876v44.5H663.093v52.15H624.859v-50.76H558.091v50.76H499.709v-79.95H469.785v25.677H444.8v54.274H419.806v-36.11H389.194v36.141H372.5v-59.35H343.307V199.018H287.675v83.465h-24.6V150.82h-55.6V282.483H184.313V173.154H141.628v46.324H119.4v63.067Z" transform="translate(5.97 -144.76)"/><path class="e" d="M12.775,435.656c5.935,7.06,12.01,13.932,18.023,20.9,1.3,1.562,2.577,3,3.858,4.529H45.917v-2.952h810.92c17.477-26.551,27.457-57.4,25.489-89.025-.937-15.259-4.592-30.081-9.043-44.793h-5.779v-18.4c-3.217-9.84-6.372-19.71-8.887-29.675H837.877v48.042h-13.76V282.986h-18.4v41.295h-3.951V228.322h-37v95.959H134.723V177H103.846A281.542,281.542,0,0,1,86.51,211.36c-1.374,2.28-2.765,4.5-4.248,6.716v12.4H73.718c-18.664,25.536-40.608,48.9-54.82,77.2C-.656,347.1-2.577,394.564,12.775,435.656Z" transform="translate(-2.573 -130.051)"/><path class="a" d="M842.375,348.432c5.545.64,12.073,2.046,14.228,7.2,1.562,3.7.156,7.965-1.562,11.573-11.2,23.131-35.828,37.359-60.912,42.654s-51.166,2.983-76.78,1.078c-221.093-16.446-443.842-.843-664.577-21.506-12.495-1.171-26.973-3.655-33.1-14.634-5.685-10.168-1.031-23.677,7.809-31.346s20.6-10.7,32.049-12.776c65.457-11.839,132.506.2,198.728,6.325,78.935,7.309,158.292,6.169,237.4,4.326,39.452-.922,78.9-2.03,118.371-2.358,19.913-.156,39.842-.187,59.74.234,13.151.266,24.989,4.686,37.906,5.279C755.4,346.339,798.472,343.371,842.375,348.432Z" transform="translate(-0.104 -46.529)"/><path class="f" d="M842.375,348.432c5.545.64,12.073,2.046,14.228,7.2,1.562,3.7.156,7.965-1.562,11.573-11.2,23.131-35.828,37.359-60.912,42.654s-51.166,2.983-76.78,1.078c-221.093-16.446-443.842-.843-664.577-21.506-12.495-1.171-26.973-3.655-33.1-14.634-5.685-10.168-1.031-23.677,7.809-31.346s20.6-10.7,32.049-12.776c65.457-11.839,132.506.2,198.728,6.325,78.935,7.309,158.292,6.169,237.4,4.326,39.452-.922,78.9-2.03,118.371-2.358,19.913-.156,39.842-.187,59.74.234,13.151.266,24.989,4.686,37.906,5.279C755.4,346.339,798.472,343.371,842.375,348.432Z" transform="translate(-0.104 -46.216)"/><rect class="g" width="96.037" height="310.727" transform="translate(517.127)"/><line class="a" x1="11.011" transform="translate(521.298 26.161)"/><rect class="h" width="11.011" height="7.294" transform="translate(521.298 22.522)"/><line class="a" x1="11.011" transform="translate(521.298 36.406)"/><rect class="i" width="11.011" height="7.294" transform="translate(521.298 32.767)"/><line class="a" x1="11.011" transform="translate(521.298 46.668)"/><rect class="j" width="11.011" height="7.294" transform="translate(521.298 43.013)"/><line class="a" x2="11.011" transform="translate(521.298 56.913)"/><rect class="k" width="11.011" height="7.294" transform="translate(521.298 53.274)"/><line class="a" x1="11.011" transform="translate(521.298 67.159)"/><rect class="l" width="11.011" height="7.294" transform="translate(521.298 63.52)"/><line class="a" x1="11.011" transform="translate(521.298 77.42)"/><rect class="m" width="11.011" height="7.294" transform="translate(521.298 73.766)"/><line class="a" x1="11.011" transform="translate(521.298 87.666)"/><rect class="n" width="11.011" height="7.294" transform="translate(521.298 84.011)"/><line class="a" x1="11.011" transform="translate(521.298 97.912)"/><rect class="o" width="11.011" height="7.294" transform="translate(521.298 94.272)"/><line class="a" x1="11.011" transform="translate(521.298 108.173)"/><rect class="p" width="11.011" height="7.294" transform="translate(521.298 104.518)"/><line class="a" x1="11.011" transform="translate(521.298 118.418)"/><rect class="q" width="11.011" height="7.294" transform="translate(521.298 114.764)"/><line class="a" x1="11.011" transform="translate(521.298 128.664)"/><rect class="r" width="11.011" height="7.294" transform="translate(521.298 125.025)"/><line class="a" x1="11.011" transform="translate(521.298 138.91)"/><rect class="s" width="11.011" height="7.294" transform="translate(521.298 135.271)"/><line class="a" x1="11.011" transform="translate(521.298 149.171)"/><rect class="t" width="11.011" height="7.294" transform="translate(521.298 145.516)"/><line class="a" x1="11.011" transform="translate(521.298 159.417)"/><rect class="u" width="11.011" height="7.294" transform="translate(521.298 155.778)"/><line class="a" x1="11.011" transform="translate(521.298 169.662)"/><rect class="v" width="11.011" height="7.294" transform="translate(521.298 166.023)"/><line class="a" x1="11.011" transform="translate(521.298 179.924)"/><rect class="w" width="11.011" height="7.294" transform="translate(521.298 176.269)"/><line class="a" x1="11.011" transform="translate(521.298 190.169)"/><rect class="x" width="11.011" height="7.294" transform="translate(521.298 186.53)"/><line class="a" x1="11.011" transform="translate(521.298 200.415)"/><rect class="y" width="11.011" height="7.294" transform="translate(521.298 196.776)"/><line class="a" x1="11.011" transform="translate(521.298 210.676)"/><rect class="z" width="11.011" height="7.294" transform="translate(521.298 207.021)"/><line class="a" x1="11.011" transform="translate(521.298 220.922)"/><rect class="aa" width="11.011" height="7.294" transform="translate(521.298 217.267)"/><line class="a" x1="11.011" transform="translate(521.298 231.167)"/><rect class="ab" width="11.011" height="7.294" transform="translate(521.298 227.528)"/><line class="a" x1="11.011" transform="translate(521.298 241.429)"/><rect class="ac" width="11.011" height="7.294" transform="translate(521.298 237.774)"/><line class="a" x1="11.011" transform="translate(521.298 251.674)"/><rect class="ad" width="11.011" height="7.294" transform="translate(521.298 248.02)"/><line class="a" x1="11.011" transform="translate(521.298 261.92)"/><rect class="ae" width="11.011" height="7.294" transform="translate(521.298 258.281)"/><line class="a" x1="11.011" transform="translate(521.298 272.166)"/><rect class="af" width="11.011" height="7.294" transform="translate(521.298 268.527)"/><line class="a" x1="11.011" transform="translate(521.298 282.427)"/><rect class="ag" width="11.011" height="7.294" transform="translate(521.298 278.772)"/><line class="a" x1="11.011" transform="translate(521.298 292.673)"/><rect class="ah" width="11.011" height="7.294" transform="translate(521.298 289.034)"/><line class="a" x1="11.011" transform="translate(521.298 302.918)"/><rect class="ai" width="11.011" height="7.294" transform="translate(521.298 299.279)"/><rect class="aj" width="75.421" height="310.727" transform="translate(537.712)"/><line class="a" x1="65.129" transform="translate(545.506 26.161)"/><rect class="ak" width="65.129" height="7.294" transform="translate(545.506 22.522)"/><line class="a" x1="65.129" transform="translate(545.506 36.406)"/><rect class="al" width="65.129" height="7.294" transform="translate(545.506 32.767)"/><line class="a" x1="65.129" transform="translate(545.506 46.668)"/><rect class="am" width="65.129" height="7.294" transform="translate(545.506 43.013)"/><line class="a" x2="65.129" transform="translate(545.506 56.913)"/><rect class="an" width="65.129" height="7.294" transform="translate(545.506 53.274)"/><line class="a" x1="65.129" transform="translate(545.506 67.159)"/><rect class="ao" width="65.129" height="7.294" transform="translate(545.506 63.52)"/><line class="a" x1="65.129" transform="translate(545.506 77.42)"/><rect class="ap" width="65.129" height="7.294" transform="translate(545.506 73.766)"/><line class="a" x1="65.129" transform="translate(545.506 87.666)"/><rect class="aq" width="65.129" height="7.294" transform="translate(545.506 84.011)"/><line class="a" x1="65.129" transform="translate(545.506 97.912)"/><rect class="ar" width="65.129" height="7.294" transform="translate(545.506 94.272)"/><line class="a" x1="65.129" transform="translate(545.506 108.173)"/><rect class="as" width="65.129" height="7.294" transform="translate(545.506 104.518)"/><line class="a" x1="65.129" transform="translate(545.506 118.418)"/><rect class="at" width="65.129" height="7.294" transform="translate(545.506 114.764)"/><line class="a" x1="65.129" transform="translate(545.506 128.664)"/><rect class="au" width="65.129" height="7.294" transform="translate(545.506 125.025)"/><line class="a" x1="65.129" transform="translate(545.506 138.91)"/><rect class="av" width="65.129" height="7.294" transform="translate(545.506 135.271)"/><line class="a" x1="65.129" transform="translate(545.506 149.171)"/><rect class="aw" width="65.129" height="7.294" transform="translate(545.506 145.516)"/><line class="a" x1="65.129" transform="translate(545.506 159.417)"/><rect class="ax" width="65.129" height="7.294" transform="translate(545.506 155.778)"/><line class="a" x1="65.129" transform="translate(545.506 169.662)"/><rect class="ay" width="65.129" height="7.294" transform="translate(545.506 166.023)"/><line class="a" x1="65.129" transform="translate(545.506 179.924)"/><rect class="az" width="65.129" height="7.294" transform="translate(545.506 176.269)"/><line class="a" x1="65.129" transform="translate(545.506 190.169)"/><rect class="ba" width="65.129" height="7.294" transform="translate(545.506 186.53)"/><line class="a" x1="65.129" transform="translate(545.506 200.415)"/><rect class="bb" width="65.129" height="7.294" transform="translate(545.506 196.776)"/><line class="a" x1="65.129" transform="translate(545.506 210.676)"/><rect class="bc" width="65.129" height="7.294" transform="translate(545.506 207.021)"/><line class="a" x1="65.129" transform="translate(545.506 220.922)"/><rect class="bd" width="65.129" height="7.294" transform="translate(545.506 217.267)"/><line class="a" x1="65.129" transform="translate(545.506 231.167)"/><rect class="be" width="65.129" height="7.294" transform="translate(545.506 227.528)"/><line class="a" x1="65.129" transform="translate(545.506 241.429)"/><rect class="bf" width="65.129" height="7.294" transform="translate(545.506 237.774)"/><line class="a" x1="65.129" transform="translate(545.506 251.674)"/><rect class="bg" width="65.129" height="7.294" transform="translate(545.506 248.02)"/><line class="a" x1="65.129" transform="translate(545.506 261.92)"/><rect class="bh" width="65.129" height="7.294" transform="translate(545.506 258.281)"/><line class="a" x1="65.129" transform="translate(545.506 272.166)"/><rect class="bi" width="65.129" height="7.294" transform="translate(545.506 268.527)"/><line class="a" x1="65.129" transform="translate(545.506 282.427)"/><rect class="bj" width="65.129" height="7.294" transform="translate(545.506 278.772)"/><line class="a" x1="65.129" transform="translate(545.506 292.673)"/><rect class="bk" width="65.129" height="7.294" transform="translate(545.506 289.034)"/><line class="a" x1="65.129" transform="translate(545.506 302.918)"/><rect class="bl" width="65.129" height="7.294" transform="translate(545.506 299.279)"/><rect class="bm" width="69.049" height="223.39" transform="translate(104.928 97.521)"/><line class="a" x1="7.919" transform="translate(107.927 116.326)"/><rect class="bn" width="7.919" height="5.248" transform="translate(107.927 113.702)"/><line class="a" x1="7.919" transform="translate(107.927 123.697)"/><rect class="bo" width="7.919" height="5.248" transform="translate(107.927 121.074)"/><line class="a" x1="7.919" transform="translate(107.927 131.069)"/><rect class="bp" width="7.919" height="5.248" transform="translate(107.927 128.445)"/><line class="a" x2="7.919" transform="translate(107.927 138.441)"/><rect class="bq" width="7.919" height="5.248" transform="translate(107.927 135.817)"/><line class="a" x1="7.919" transform="translate(107.927 145.797)"/><rect class="br" width="7.919" height="5.248" transform="translate(107.927 143.189)"/><line class="a" x1="7.919" transform="translate(107.927 153.169)"/><rect class="bs" width="7.919" height="5.248" transform="translate(107.927 150.545)"/><line class="a" x1="7.919" transform="translate(107.927 160.541)"/><rect class="bt" width="7.919" height="5.248" transform="translate(107.927 157.917)"/><line class="a" x1="7.919" transform="translate(107.927 167.913)"/><rect class="bu" width="7.919" height="5.248" transform="translate(107.927 165.289)"/><line class="a" x1="7.919" transform="translate(107.927 175.285)"/><rect class="bv" width="7.919" height="5.248" transform="translate(107.927 172.661)"/><line class="a" x1="7.919" transform="translate(107.927 182.657)"/><rect class="bw" width="7.919" height="5.248" transform="translate(107.927 180.033)"/><line class="a" x1="7.919" transform="translate(107.927 190.013)"/><rect class="bx" width="7.919" height="5.248" transform="translate(107.927 187.405)"/><line class="a" x1="7.919" transform="translate(107.927 197.385)"/><rect class="by" width="7.919" height="5.248" transform="translate(107.927 194.761)"/><line class="a" x1="7.919" transform="translate(107.927 204.757)"/><rect class="bz" width="7.919" height="5.248" transform="translate(107.927 202.133)"/><line class="a" x1="7.919" transform="translate(107.927 212.129)"/><rect class="ca" width="7.919" height="5.248" transform="translate(107.927 209.505)"/><line class="a" x1="7.919" transform="translate(107.927 219.5)"/><rect class="cb" width="7.919" height="5.248" transform="translate(107.927 216.877)"/><line class="a" x1="7.919" transform="translate(107.927 226.872)"/><rect class="cc" width="7.919" height="5.248" transform="translate(107.927 224.249)"/><line class="a" x1="7.919" transform="translate(107.927 234.229)"/><rect class="cd" width="7.919" height="5.248" transform="translate(107.927 231.62)"/><line class="a" x1="7.919" transform="translate(107.927 241.6)"/><rect class="ce" width="7.919" height="5.248" transform="translate(107.927 238.977)"/><line class="a" x1="7.919" transform="translate(107.927 248.972)"/><rect class="cf" width="7.919" height="5.248" transform="translate(107.927 246.348)"/><line class="a" x1="7.919" transform="translate(107.927 256.344)"/><rect class="cg" width="7.919" height="5.248" transform="translate(107.927 253.72)"/><line class="a" x1="7.919" transform="translate(107.927 263.716)"/><rect class="ch" width="7.919" height="5.248" transform="translate(107.927 261.092)"/><line class="a" x1="7.919" transform="translate(107.927 271.088)"/><rect class="ci" width="7.919" height="5.248" transform="translate(107.927 268.464)"/><line class="a" x1="7.919" transform="translate(107.927 278.444)"/><rect class="cj" width="7.919" height="5.248" transform="translate(107.927 275.836)"/><line class="a" x1="7.919" transform="translate(107.927 285.816)"/><rect class="ck" width="7.919" height="5.248" transform="translate(107.927 283.192)"/><line class="a" x1="7.919" transform="translate(107.927 293.188)"/><rect class="cl" width="7.919" height="5.248" transform="translate(107.927 290.564)"/><line class="a" x1="7.919" transform="translate(107.927 300.56)"/><rect class="cm" width="7.919" height="5.248" transform="translate(107.927 297.936)"/><line class="a" x1="7.919" transform="translate(107.927 307.932)"/><rect class="cn" width="7.919" height="5.248" transform="translate(107.927 305.308)"/><line class="a" x1="7.919" transform="translate(107.927 315.304)"/><rect class="co" width="7.919" height="5.248" transform="translate(107.927 312.68)"/><rect class="cp" width="54.227" height="223.39" transform="translate(118.688 97.521)"/><line class="a" x1="46.824" transform="translate(125.341 116.326)"/><rect class="cq" width="46.824" height="5.248" transform="translate(125.341 113.702)"/><line class="a" x1="46.824" transform="translate(125.341 123.697)"/><rect class="cr" width="46.824" height="5.248" transform="translate(125.341 121.074)"/><line class="a" x1="46.824" transform="translate(125.341 131.069)"/><rect class="cs" width="46.824" height="5.248" transform="translate(125.341 128.445)"/><line class="a" x2="46.824" transform="translate(125.341 138.441)"/><rect class="ct" width="46.824" height="5.248" transform="translate(125.341 135.817)"/><line class="a" x1="46.824" transform="translate(125.341 145.797)"/><rect class="cu" width="46.824" height="5.248" transform="translate(125.341 143.189)"/><line class="a" x1="46.824" transform="translate(125.341 153.169)"/><rect class="cv" width="46.824" height="5.248" transform="translate(125.341 150.545)"/><line class="a" x1="46.824" transform="translate(125.341 160.541)"/><rect class="cw" width="46.824" height="5.248" transform="translate(125.341 157.917)"/><line class="a" x1="46.824" transform="translate(125.341 167.913)"/><rect class="cx" width="46.824" height="5.248" transform="translate(125.341 165.289)"/><line class="a" x1="46.824" transform="translate(125.341 175.285)"/><rect class="cy" width="46.824" height="5.248" transform="translate(125.341 172.661)"/><line class="a" x1="46.824" transform="translate(125.341 182.657)"/><rect class="cz" width="46.824" height="5.248" transform="translate(125.341 180.033)"/><line class="a" x1="46.824" transform="translate(125.341 190.013)"/><rect class="da" width="46.824" height="5.248" transform="translate(125.341 187.405)"/><line class="a" x1="46.824" transform="translate(125.341 197.385)"/><rect class="db" width="46.824" height="5.248" transform="translate(125.341 194.761)"/><line class="a" x1="46.824" transform="translate(125.341 204.757)"/><rect class="dc" width="46.824" height="5.248" transform="translate(125.341 202.133)"/><line class="a" x1="46.824" transform="translate(125.341 212.129)"/><rect class="dd" width="46.824" height="5.248" transform="translate(125.341 209.505)"/><line class="a" x1="46.824" transform="translate(125.341 219.5)"/><rect class="de" width="46.824" height="5.248" transform="translate(125.341 216.877)"/><line class="a" x1="46.824" transform="translate(125.341 226.872)"/><rect class="df" width="46.824" height="5.248" transform="translate(125.341 224.249)"/><line class="a" x1="46.824" transform="translate(125.341 234.229)"/><rect class="dg" width="46.824" height="5.248" transform="translate(125.341 231.62)"/><line class="a" x1="46.824" transform="translate(125.341 241.6)"/><rect class="dh" width="46.824" height="5.248" transform="translate(125.341 238.977)"/><line class="a" x1="46.824" transform="translate(125.341 248.972)"/><rect class="di" width="46.824" height="5.248" transform="translate(125.341 246.348)"/><line class="a" x1="46.824" transform="translate(125.341 256.344)"/><rect class="dj" width="46.824" height="5.248" transform="translate(125.341 253.72)"/><line class="a" x1="46.824" transform="translate(125.341 263.716)"/><rect class="dk" width="46.824" height="5.248" transform="translate(125.341 261.092)"/><line class="a" x1="46.824" transform="translate(125.341 271.088)"/><rect class="dl" width="46.824" height="5.248" transform="translate(125.341 268.464)"/><line class="a" x1="46.824" transform="translate(125.341 278.444)"/><rect class="dm" width="46.824" height="5.248" transform="translate(125.341 275.836)"/><line class="a" x1="46.824" transform="translate(125.341 285.816)"/><rect class="dn" width="46.824" height="5.248" transform="translate(125.341 283.192)"/><line class="a" x1="46.824" transform="translate(125.341 293.188)"/><rect class="do" width="46.824" height="5.248" transform="translate(125.341 290.564)"/><line class="a" x1="46.824" transform="translate(125.341 300.56)"/><rect class="dp" width="46.824" height="5.248" transform="translate(125.341 297.936)"/><line class="a" x1="46.824" transform="translate(125.341 307.932)"/><rect class="dq" width="46.824" height="5.248" transform="translate(125.341 305.308)"/><line class="a" x1="46.824" transform="translate(125.341 315.304)"/><rect class="dr" width="46.824" height="5.248" transform="translate(125.341 312.68)"/><rect class="a" width="10.542" height="211.426" transform="translate(209.524 107.689)"/><rect class="ds" width="10.542" height="211.426" transform="translate(209.516 107.689)"/><rect class="dt" width="41.873" height="2.499" transform="translate(172.915 123.494)"/><g transform="translate(212.101 125.915)"><rect class="du" width="9.621" height="17.383" transform="translate(0 19.492)"/><rect class="dv" width="9.621" height="17.383" transform="translate(0 39.468)"/><rect class="dw" width="9.621" height="17.383" transform="translate(0 59.428)"/><rect class="dx" width="9.621" height="17.383" transform="translate(0 79.404)"/><rect class="dy" width="9.621" height="17.383" transform="translate(0 99.364)"/><rect class="dz" width="9.621" height="17.383" transform="translate(0 119.34)"/><rect class="ea" width="9.621" height="17.336" transform="translate(0 139.3)"/><rect class="eb" width="9.824" height="16.899" transform="translate(0.016)"/></g><path class="ec" d="M493.548,369.922H429.2V183.579h12.9l-.265-12.229,51.853-12.76-.141,24.989Z" transform="translate(-284.023 -50.808)"/><path class="ed" d="M481.937,281.73H470.864c.875,61.38-13.6,121.5-13.6,121.5l.281-121.5V232.11h24.4Z" transform="translate(-311.458 -99.088)"/><rect class="a" width="47.074" height="17.383" transform="translate(174.867 125.447)"/><rect class="a" width="46.871" height="17.383" transform="translate(174.851 145.407)"/><rect class="a" width="46.871" height="17.383" transform="translate(174.851 165.383)"/><rect class="a" width="46.871" height="17.383" transform="translate(174.851 185.343)"/><rect class="a" width="46.871" height="17.383" transform="translate(174.851 205.319)"/><rect class="a" width="46.871" height="17.383" transform="translate(174.851 225.279)"/><rect class="a" width="46.871" height="17.383" transform="translate(174.851 245.255)"/><rect class="a" width="46.871" height="17.383" transform="translate(174.851 265.215)"/><rect class="ee" width="47.074" height="17.383" transform="translate(174.648 125.447)"/><rect class="ef" width="46.871" height="17.383" transform="translate(174.749 145.407)"/><rect class="eg" width="46.871" height="17.383" transform="translate(174.749 165.383)"/><rect class="eh" width="46.871" height="17.383" transform="translate(174.749 185.343)"/><rect class="ei" width="46.871" height="17.383" transform="translate(174.749 205.319)"/><rect class="ej" width="46.871" height="17.383" transform="translate(174.749 225.279)"/><rect class="ek" width="46.871" height="17.383" transform="translate(174.749 245.255)"/><rect class="el" width="46.871" height="17.383" transform="translate(174.749 265.215)"/><rect class="a" width="1.937" height="159.745" transform="translate(189.283 124.963)"/><rect class="em" width="8.731" height="2.905" transform="translate(161.279 186.452)"/><rect class="en" width="8.731" height="2.905" transform="translate(161.279 191.59)"/><rect class="eo" width="8.731" height="2.905" transform="translate(161.279 196.713)"/><rect class="ep" width="8.731" height="2.905" transform="translate(161.279 201.852)"/><rect class="eq" width="8.731" height="2.905" transform="translate(161.279 206.975)"/><rect class="er" width="8.731" height="2.905" transform="translate(161.279 212.113)"/><rect class="es" width="8.731" height="2.905" transform="translate(161.279 217.251)"/><rect class="et" width="8.731" height="2.905" transform="translate(161.279 222.39)"/><rect class="eu" width="4.436" height="4.436" transform="translate(150.877 137.364)"/><rect class="ev" width="4.436" height="4.436" transform="translate(159.686 137.364)"/><rect class="ew" width="4.436" height="4.436" transform="translate(150.877 144.47)"/><rect class="ex" width="4.436" height="4.436" transform="translate(159.686 144.47)"/><rect class="ey" width="4.436" height="4.436" transform="translate(150.877 151.607)"/><rect class="ez" width="4.436" height="4.436" transform="translate(159.686 151.607)"/><rect class="fa" width="4.436" height="4.436" transform="translate(150.877 158.729)"/><rect class="fb" width="4.436" height="4.436" transform="translate(159.686 158.729)"/><rect class="fc" width="4.436" height="4.436" transform="translate(150.877 165.836)"/><rect class="fd" width="4.436" height="4.436" transform="translate(159.686 165.836)"/><rect class="fe" width="4.436" height="4.436" transform="translate(150.877 172.958)"/><rect class="ff" width="4.436" height="4.436" transform="translate(159.686 172.958)"/><rect class="a" width="49.042" height="2.624" transform="translate(174.477 123.37)"/><rect class="fg" width="47.058" height="2.624" transform="translate(174.851 126.009)"/><rect class="fh" width="46.886" height="2.624" transform="translate(174.851 145.423)"/><rect class="fi" width="46.886" height="2.624" transform="translate(174.851 165.383)"/><rect class="fj" width="46.886" height="2.624" transform="translate(174.851 185.359)"/><rect class="fk" width="46.886" height="2.624" transform="translate(174.851 205.319)"/><rect class="fk" width="46.886" height="2.624" transform="translate(174.851 225.295)"/><rect class="fk" width="46.886" height="2.624" transform="translate(174.851 245.255)"/><rect class="fk" width="46.886" height="2.624" transform="translate(174.851 265.231)"/><rect class="e" width="109.453" height="135.005" transform="translate(424.183 175.035)"/><rect class="fl" width="101.051" height="3.702" transform="translate(424.323 191.013)"/><rect class="fl" width="101.051" height="3.702" transform="translate(424.323 204.007)"/><rect class="fm" width="101.051" height="3.702" transform="translate(424.323 216.986)"/><rect class="fm" width="101.051" height="3.702" transform="translate(424.323 229.965)"/><rect class="fm" width="101.051" height="3.702" transform="translate(424.323 242.944)"/><rect class="fm" width="101.051" height="3.702" transform="translate(424.323 255.923)"/><rect class="fm" width="101.051" height="3.702" transform="translate(424.323 268.901)"/><rect class="fn" width="91.367" height="135.005" transform="translate(442.269 175.035)"/><rect class="fo" width="168.772" height="81.606" transform="translate(254.177 228.434)"/><rect class="a" width="68.893" height="156.309" transform="translate(633.906 153.029)"/><rect class="fp" width="68.893" height="156.309" transform="translate(634.156 154.419)"/><rect class="a" width="23.349" height="156.309" transform="translate(610.556 153.013)"/><rect class="fq" width="23.349" height="156.309" transform="translate(610.556 154.419)"/><rect class="a" width="72.204" height="9.73" transform="translate(632.5 143.283)"/><rect class="fr" width="72.204" height="9.73" transform="translate(634.155 143.283)"/><rect class="a" width="25.552" height="9.73" transform="translate(608.354 143.283)"/><rect class="fs" width="25.552" height="9.73" transform="translate(608.355 143.283)"/><rect class="a" width="92.273" height="1.265" transform="translate(610.572 161.947)"/><rect class="a" width="23.349" height="1.265" transform="translate(610.556 161.947)"/><rect class="a" width="92.273" height="1.265" transform="translate(610.572 176.644)"/><rect class="a" width="23.349" height="1.265" transform="translate(610.556 176.644)"/><rect class="a" width="92.273" height="1.265" transform="translate(610.572 191.325)"/><rect class="a" width="23.349" height="1.265" transform="translate(610.556 191.325)"/><rect class="a" width="92.273" height="1.265" transform="translate(610.572 206.022)"/><rect class="a" width="23.349" height="1.265" transform="translate(610.556 206.022)"/><rect class="a" width="92.273" height="1.265" transform="translate(610.572 220.703)"/><rect class="a" width="23.349" height="1.265" transform="translate(610.556 220.703)"/><rect class="ft" width="92.273" height="1.265" transform="translate(610.572 235.384)"/><rect class="ft" width="23.349" height="1.265" transform="translate(610.556 235.384)"/><rect class="a" width="92.273" height="1.265" transform="translate(610.572 250.081)"/><rect class="a" width="23.349" height="1.265" transform="translate(610.556 250.081)"/><rect class="a" width="92.273" height="1.265" transform="translate(610.572 264.763)"/><rect class="a" width="23.349" height="1.265" transform="translate(610.556 264.763)"/><rect class="a" width="92.273" height="1.265" transform="translate(610.572 279.444)"/><rect class="a" width="23.349" height="1.265" transform="translate(610.556 279.444)"/><rect class="a" width="92.273" height="1.265" transform="translate(610.572 294.141)"/><rect class="a" width="23.349" height="1.265" transform="translate(610.556 294.141)"/><rect class="a" width="92.273" height="1.265" transform="translate(610.572 235.384)"/><rect class="a" width="23.349" height="1.265" transform="translate(610.556 235.384)"/><rect class="a" width="68.893" height="134.708" transform="translate(306.498 122.729)"/><rect class="fu" width="68.893" height="131.725" transform="translate(306.498 124.776)"/><rect class="a" width="23.349" height="156.309" transform="translate(283.149 122.729)"/><rect class="fv" width="23.349" height="156.309" transform="translate(283.148 124.775)"/><rect class="a" width="72.204" height="9.73" transform="translate(305.093 112.999)"/><rect class="fw" width="72.204" height="9.73" transform="translate(305.093 113)"/><rect class="a" width="25.552" height="9.73" transform="translate(280.947 112.999)"/><rect class="fx" width="25.552" height="9.73" transform="translate(280.946 112.999)"/><rect class="a" width="92.273" height="1.265" transform="translate(283.165 131.663)"/><rect class="a" width="23.349" height="1.265" transform="translate(283.149 131.663)"/><rect class="a" width="92.273" height="1.265" transform="translate(283.165 146.36)"/><rect class="a" width="23.349" height="1.265" transform="translate(283.149 146.36)"/><rect class="a" width="92.273" height="1.265" transform="translate(283.165 161.041)"/><rect class="a" width="23.349" height="1.265" transform="translate(283.149 161.041)"/><rect class="a" width="92.273" height="1.265" transform="translate(283.165 175.722)"/><rect class="a" width="23.349" height="1.265" transform="translate(283.149 175.722)"/><rect class="a" width="92.273" height="1.265" transform="translate(283.165 190.419)"/><rect class="a" width="23.349" height="1.265" transform="translate(283.149 190.419)"/><rect class="ft" width="23.349" height="1.265" transform="translate(283.149 205.1)"/><rect class="a" width="92.273" height="1.265" transform="translate(283.165 219.782)"/><rect class="a" width="23.349" height="1.265" transform="translate(283.149 219.782)"/><rect class="a" width="92.273" height="1.265" transform="translate(283.165 234.479)"/><rect class="a" width="23.349" height="1.265" transform="translate(283.149 234.479)"/><rect class="a" width="92.273" height="1.265" transform="translate(283.165 249.16)"/><rect class="a" width="23.349" height="1.265" transform="translate(283.149 249.16)"/><rect class="ft" width="23.349" height="1.265" transform="translate(283.149 263.857)"/><rect class="a" width="92.273" height="1.265" transform="translate(283.118 205.1)"/><rect class="a" width="23.349" height="1.265" transform="translate(283.149 205.1)"/><rect class="fy" width="71.391" transform="translate(318.321 257.438)"/><rect class="fz" width="119.715" height="12.51" transform="translate(420.028 167.616)"/></g><g transform="translate(221.798 195.106)"><ellipse class="ga" cx="195.956" cy="6.992" rx="195.956" ry="6.992" transform="translate(0 148.257)"/><rect class="gb" width="277.701" height="151.837" rx="7" transform="translate(57.105 0)"/><path class="ga" d="M460.7,291.159v3.856H183v-3.856a6.8,6.8,0,0,1,6.8-6.8H453.9A6.8,6.8,0,0,1,460.7,291.159Z" transform="translate(-125.895 -284.36)"/><circle class="a" cx="1.998" cy="1.998" r="1.998" transform="translate(62.266 3.496)"/><circle class="a" cx="1.998" cy="1.998" r="1.998" transform="translate(67.261 3.496)"/><circle class="a" cx="1.998" cy="1.998" r="1.998" transform="translate(72.256 3.496)"/><path class="gc" d="M347.5,503.86" transform="translate(-235.62 -430.772)"/><path class="gc" d="M333.5,502.86" transform="translate(-226.282 -430.105)"/><rect class="a" width="31.966" height="25.972" rx="9.29" transform="translate(99.393 28.303)"/><rect class="gd" width="31.966" height="25.972" rx="9.29" transform="translate(136.65 28.162)"/><rect class="a" width="31.966" height="25.972" rx="9.29" transform="translate(173.979 28.303)"/><rect class="a" width="31.966" height="25.972" rx="9.29" transform="translate(211.273 28.303)"/><rect class="gd" width="31.966" height="25.972" rx="9.29" transform="translate(248.455 28.162)"/><rect class="a" width="31.966" height="25.972" rx="9.29" transform="translate(99.393 71.923)"/><rect class="a" width="31.966" height="25.972" rx="9.29" transform="translate(136.686 71.923)"/><path class="gd" d="M5.865,0H26.1a5.865,5.865,0,0,1,5.865,5.865V20.107A5.865,5.865,0,0,1,26.1,25.972H5.865A5.865,5.865,0,0,1,0,20.107V5.865A5.865,5.865,0,0,1,5.865,0Z" transform="translate(173.918 71.856)"/><rect class="a" width="31.966" height="25.972" rx="9.29" transform="translate(211.273 71.923)"/><rect class="a" width="31.966" height="25.972" rx="9.29" transform="translate(248.566 71.923)"/><rect class="a" width="31.966" height="25.972" rx="9.29" transform="translate(99.393 115.542)"/><rect class="a" width="31.966" height="25.972" rx="9.29" transform="translate(136.686 115.542)"/><rect class="a" width="31.966" height="25.972" rx="9.29" transform="translate(173.979 115.542)"/><rect class="ge" width="31.966" height="25.972" rx="9.29" transform="translate(211.186 115.55)"/><rect class="a" width="31.966" height="25.972" rx="9.29" transform="translate(248.566 115.542)"/><path class="gf" d="M1006.323,665.85c-1-1.835.133-4.086,1.429-5.721s2.867-3.33,2.834-5.424c-.05-3-3.23-4.768-5.77-6.356a27.976,27.976,0,0,1-5.181-4.166,7.6,7.6,0,0,1-1.592-2.131,8.643,8.643,0,0,1-.479-3.786q.17-6.413.636-12.816" transform="translate(-669.22 -511.876)"/><path class="gg" d="M984.991,615.823a4.661,4.661,0,0,1,2.331-3.829l1.046,2.071-.033-2.507a4.731,4.731,0,0,1,1.542-.186,4.662,4.662,0,1,1-4.885,4.452Z" transform="translate(-660.84 -502.481)"/><path class="gg" d="M1008.959,706.119a4.662,4.662,0,1,0-.226-3.763l2.92,2.374-3.213-.742A4.662,4.662,0,0,0,1008.959,706.119Z" transform="translate(-676.484 -561.149)"/><path class="gg" d="M1008.07,673.8a4.662,4.662,0,0,0,1.465-9.153l.027,1.924-1.059-2.094h0a4.662,4.662,0,0,0-4.885,4.449,4.608,4.608,0,0,0,.2,1.595,4.662,4.662,0,0,0,4.252,3.28Z" transform="translate(-673.264 -537.905)"/><path class="gg" d="M973.957,651.149a4.662,4.662,0,1,0-2.068-8.747l.826,2.264-1.7-1.632a4.661,4.661,0,0,0-1.508,3.226,4.587,4.587,0,0,0,.116,1.289,4.662,4.662,0,0,0,4.332,3.6Z" transform="translate(-650.511 -522.801)"/><path class="gh" d="M985.82,622.193c1.079.117,2.128.453,3.21.519a3.49,3.49,0,0,0,2.957-1.032,14.453,14.453,0,0,0,.862-1.522,3.33,3.33,0,0,1,1.179-1.109,4.662,4.662,0,1,1-8.737,3.1Q985.556,622.163,985.82,622.193Z" transform="translate(-661.042 -507.607)"/><path class="gh" d="M974.222,656.48a4.662,4.662,0,0,0,4.445-6.659,3.453,3.453,0,0,0-.939.939,15.3,15.3,0,0,1-.926,1.545,3.829,3.829,0,0,1-3.1,1.086c-1.129-.05-2.218-.373-3.33-.476-.156,0-.313-.023-.473-.027a4.662,4.662,0,0,0,4.322,3.593Z" transform="translate(-650.777 -528.131)"/><path class="gh" d="M1008.5,679.31a4.662,4.662,0,0,0,4.482-6.579,3.822,3.822,0,0,0-1,.949c-.363.513-.589,1.1-1,1.575a4.328,4.328,0,0,1-3.306,1.162c-1.192-.027-2.274-.31-3.423-.4a4.661,4.661,0,0,0,4.245,3.293Z" transform="translate(-673.689 -543.413)"/><path class="gh" d="M1010,712.1a4.667,4.667,0,0,0,8.521-3.813,4.527,4.527,0,0,0-1.026.916,20.319,20.319,0,0,1-1.252,1.665,5.821,5.821,0,0,1-3.873,1.362,19.966,19.966,0,0,1-2.371-.13Z" transform="translate(-677.524 -567.132)"/><path class="gi" d="M1017.572,736.438s-3.69-.113-4.8-.906-5.661-1.735-5.947-.466-5.544,6.326-1.382,6.346,9.676-.666,10.788-1.332S1017.572,736.438,1017.572,736.438Z" transform="translate(-673.419 -584.578)"/><path class="gj" d="M1005.4,744.945c4.166.033,9.676-.649,10.785-1.332.846-.516,1.182-2.361,1.3-3.213h.123s-.233,2.977-1.332,3.663-6.623,1.359-10.788,1.332c-1.2,0-1.615-.436-1.592-1.069C1004.044,744.7,1004.5,744.928,1005.4,744.945Z" transform="translate(-673.447 -588.55)"/><path class="gf" d="M169.908,622.542c-1.462-2.7.2-6.02,2.1-8.434s4.229-4.921,4.182-7.991c-.073-4.419-4.762-7.026-8.511-9.37a41.491,41.491,0,0,1-7.638-6.14,11.25,11.25,0,0,1-2.331-3.143,12.739,12.739,0,0,1-.7-5.587q.24-9.456.932-18.9" transform="translate(-108.544 -470.206)"/><path class="gg" d="M138.395,548.74a6.886,6.886,0,0,1,3.44-5.66l1.545,3.053-.047-3.7a6.893,6.893,0,1,1-4.938,6.29Z" transform="translate(-96.137 -456.316)"/><path class="gg" d="M173.772,681.885a6.889,6.889,0,1,0-.333-5.547l4.3,3.5-4.742-1.1A6.863,6.863,0,0,0,173.772,681.885Z" transform="translate(-119.225 -542.822)"/><path class="gg" d="M172.376,634.223A6.893,6.893,0,0,0,174.56,620.7l.037,2.837-1.562-3.087h-.017a6.892,6.892,0,1,0-.643,13.769Z" transform="translate(-114.425 -508.538)"/><path class="gg" d="M122.115,600.787a6.9,6.9,0,0,0,7.206-6.563,6.806,6.806,0,0,0-.666-3.266,6.882,6.882,0,0,0-9.6-3.067l1.215,3.33-2.5-2.4a6.893,6.893,0,0,0,4.329,11.964Z" transform="translate(-80.892 -486.233)"/><path class="gh" d="M139.632,558.162c1.588.176,3.137.666,4.732.769a5.13,5.13,0,0,0,4.359-1.525A21.393,21.393,0,0,0,150,555.165a4.917,4.917,0,0,1,1.735-1.635,6.893,6.893,0,1,1-12.883,4.575C139.11,558.115,139.373,558.135,139.632,558.162Z" transform="translate(-96.446 -463.903)"/><path class="gh" d="M122.48,608.7a6.9,6.9,0,0,0,7.206-6.563,6.806,6.806,0,0,0-.666-3.266,5.122,5.122,0,0,0-1.385,1.385,22.045,22.045,0,0,1-1.365,2.277,5.66,5.66,0,0,1-4.568,1.6c-1.662-.067-3.27-.546-4.925-.7-.23-.02-.463-.037-.7-.043A6.889,6.889,0,0,0,122.48,608.7Z" transform="translate(-81.257 -494.146)"/><path class="gh" d="M172.987,642.383a6.889,6.889,0,0,0,6.61-9.7,5.559,5.559,0,0,0-1.455,1.4,24.29,24.29,0,0,1-1.5,2.331,6.38,6.38,0,0,1-4.878,1.712c-1.7-.04-3.35-.456-5.045-.586A6.9,6.9,0,0,0,172.987,642.383Z" transform="translate(-115.036 -516.698)"/><path class="gh" d="M175.32,690.734a6.893,6.893,0,0,0,12.563-5.624,6.96,6.96,0,0,0-1.515,1.332,29.465,29.465,0,0,1-1.845,2.451,8.6,8.6,0,0,1-5.707,2A29.672,29.672,0,0,1,175.32,690.734Z" transform="translate(-120.772 -551.67)"/><path class="gi" d="M186.46,726.629s-5.437-.167-7.079-1.332-8.364-2.561-8.771-.689-8.175,9.323-2.034,9.36,14.268-.956,15.9-1.955S186.46,726.629,186.46,726.629Z" transform="translate(-114.704 -577.407)"/><path class="gj" d="M168.508,739.18c6.14.05,14.268-.956,15.9-1.951,1.245-.759,1.745-3.483,1.908-4.738h.183s-.333,4.385-1.981,5.381-9.763,2-15.9,1.955c-1.771,0-2.384-.646-2.351-1.578C166.511,738.817,167.176,739.169,168.508,739.18Z" transform="translate(-114.733 -583.274)"/><g transform="translate(275.369 29.711)"><path class="gk" d="M855.229,262.607c1.32.779,3.378,1.286,5.986-.389l-.025,3.708c.186,2.534,3.33,11.806,3.33,11.806l2.217,7.623a59.645,59.645,0,0,1,2.437,16.582,15.867,15.867,0,0,0,.707,5.22c1.18,3.191-.465,7.3-1.178,8.833a37.1,37.1,0,0,1-3.659,1.03,2.515,2.515,0,0,0-.327.1l-.015-.021s-3.328,1.32-4.806,1.138a1.3,1.3,0,0,0-.929,2.251,6.757,6.757,0,0,1-2.215.291c-1.478-.182-2.219,2.361.555,3.087s18.5,0,18.5,0a2.23,2.23,0,0,0,1.182-2.462c1.208-.046,1.962-.082,1.962-.082s2.775-1.267,0-4.724l-.148.112-.593-1.746v-2.359s3.514-16.893,2.405-18.89-1.664-12.169-1.664-12.169l.376-11.08a26.2,26.2,0,0,0,1.776-7.849,16.67,16.67,0,0,0,.71-3.723c.044-.6.08-1.221.1-1.869a12.531,12.531,0,0,0-.688-4.179,41.451,41.451,0,0,1,4.189-5.26,5.4,5.4,0,0,0,1.664-4.724l-.925-6.176-2.219-10.535c.279-2.922-.332-4.605-1.005-5.556.16-.944.31-1.888.422-2.836a36.292,36.292,0,0,0-.648-12.349,8.362,8.362,0,0,0-1.748-3.932c-1.121-1.212-2.941-1.951-3.36-3.539a10.29,10.29,0,0,0-.258-1.2c-.406-1.039-1.689-1.417-2.813-1.552-2-.243-4.9-.422-6.821.359a8.275,8.275,0,0,0-3.928,3.683,2.769,2.769,0,0,0-.12,3.041,6.971,6.971,0,0,0-.431,2.426,7.087,7.087,0,0,0,4.523,6.573c.044.139.084.277.118.412a7.071,7.071,0,0,1,.182.99c-.036.633-.076,1.286-.106,1.93q-.032.133-.068.262a47.6,47.6,0,0,0-4.646,2.369c1.111,1.634-.186,8.537-.186,8.537-2.775,1.634-5.549,5.813-2.589,10.172a10.875,10.875,0,0,1,1.294,9.08l-.462,7.1h0v.013l-.093,1.421h.036l-.036.538.08.015v.579a8.625,8.625,0,0,0-4.329,3.22,11.366,11.366,0,0,1-1.936,2.376,1.427,1.427,0,0,0,.222,2.316Zm22.332-18.869a6.757,6.757,0,0,1,.657-3.573q.653.013,1.307.015c.044.306.1.6.161.864.376,1.6-1.126,2.367-2.126,2.692Z" transform="translate(-854.513 -194.987)"/><path class="gl" d="M910.171,753.965l.712,2.135-2.323,2.323-7.652,1.78-5.518-.534.357-1.957h0a2.361,2.361,0,0,1,1.753-1.725c2.268-.532,6.592-1.748,7.5-3.435Z" transform="translate(-886.758 -634.815)"/><path class="gm" d="M881.839,770.4l1.069-1.423-1.069-1.649s-3.2,1.292-4.627,1.115-2.135,2.323.534,3.026,17.8,0,17.8,0,2.669-1.246,0-4.626l-2.323,1.78s-3.915,2.135-5.872,1.78Z" transform="translate(-871.419 -646.087)"/><path class="gl" d="M881.1,771.385l5.518.534,7.652-1.78,2.323-2.323-.188-.566-.266-.794-.266-.773-5.161-1.423a3.2,3.2,0,0,1-1.056,1.056A22.1,22.1,0,0,1,883.2,767.7a1.825,1.825,0,0,0-.211.065,2.352,2.352,0,0,0-1.533,1.66Z" transform="translate(-875.486 -644.052)"/><path class="gh" d="M881.1,782.555l5.518.534,7.652-1.78,2.323-2.323-.188-.566-2.124,1.634s-3.915,2.135-5.872,1.78H882.88l1.068-1.423-.959-1.478a2.352,2.352,0,0,0-1.533,1.66Z" transform="translate(-875.486 -655.222)"/><path class="gm" d="M867.509,782.2l1.068-1.423-1.068-1.649s-3.2,1.292-4.627,1.115-2.135,2.323.534,3.026,17.8,0,17.8,0,2.669-1.246,0-4.627l-2.323,1.78s-3.915,2.135-5.872,1.78Z" transform="translate(-860.115 -655.396)"/><path class="gn" d="M910.6,271.43s8.544.889,7.3-2.669a6.407,6.407,0,0,1-.264-3.142,8.709,8.709,0,0,1,1.51-3.619l-8.009,1.246a10.024,10.024,0,0,1,1.085,2.572A5.237,5.237,0,0,1,910.6,271.43Z" transform="translate(-898.757 -247.85)"/><path class="go" d="M941.112,498.82s-.177,7.652-1.957,11.39l-.357,10.856s.534,9.967,1.6,11.924-2.323,18.508-2.323,18.508v2.849s-5.7,2.135-7.3-.357l1.6-21.179-.712-29.364Z" transform="translate(-914.675 -434.662)"/><path class="gh" d="M941.112,498.82s-.177,7.652-1.957,11.39l-.357,10.856s.534,9.967,1.6,11.924-2.323,18.508-2.323,18.508v2.849s-5.7,2.135-7.3-.357l1.6-21.179-.712-29.364Z" transform="translate(-914.675 -434.662)"/><path class="gp" d="M966.657,382.51l1.068,2.849.889,6.052a5.353,5.353,0,0,1-1.6,4.626,50.963,50.963,0,0,0-4.983,6.584l-3.379-10.136s3.379-.534,2.849-2.849a33.637,33.637,0,0,1-.359-6.6Z" transform="translate(-936.66 -342.913)"/><path class="gq" d="M966.657,382.51l1.068,2.849.889,6.052a5.353,5.353,0,0,1-1.6,4.626,50.963,50.963,0,0,0-4.983,6.584l-3.379-10.136s3.379-.534,2.849-2.849a33.637,33.637,0,0,1-.359-6.6Z" transform="translate(-936.66 -342.913)"/><path class="gh" d="M921.66,765.318c2.283,3.59,5.836,1.556,6.466,1.151l-.257-.786-5.161-1.423a3.2,3.2,0,0,1-1.047,1.058Z" transform="translate(-907.481 -644.052)"/><path class="go" d="M887.85,457.862c.177,2.492,3.2,11.567,3.2,11.567l2.135,7.469a59.428,59.428,0,0,1,2.346,16.247,15.779,15.779,0,0,0,.682,5.114c1.423,3.915-1.423,9.255-1.423,9.255,2.492,4.449,6.757,1.423,6.757,1.423v-2.846s3.379-15.484,2.492-18.508-1.246-11.213-1.246-11.213V461.589a16.762,16.762,0,0,0,4.884-10.626c.042-.583.076-1.2.1-1.831.144-4.012-2.6-8.723-3.674-10.4-.258-.405-.422-.633-.422-.633l-15.714,6.233-.036.015V446.3Z" transform="translate(-880.81 -386.764)"/><path class="gh" d="M913.13,263.244a10.027,10.027,0,0,1,1.085,2.572,6.968,6.968,0,0,0,5.414-.2,8.71,8.71,0,0,1,1.51-3.617Z" transform="translate(-900.753 -247.85)"/><circle class="gl" cx="6.941" cy="6.941" r="6.941" transform="translate(8.997 4.18)"/><path class="gh" d="M887.85,446.327l.076.015c7.462,1.535,16.832-6.244,16.832-6.244a9.236,9.236,0,0,1-.648-1.324c-.257-.405-.422-.633-.422-.633l-15.714,6.233-.04.623Z" transform="translate(-880.81 -386.796)"/><path class="gr" d="M882.581,290.262s9.967-6.052,13.17-3.56l4.449,5.7s2.849.889,2.323,6.584l2.127,10.319-6.407,1.6a7.008,7.008,0,0,0-.711,8.721s-9.433,7.83-16.908,6.229l.534-8.364a10.832,10.832,0,0,0-1.246-8.9c-2.849-4.272-.177-8.364,2.492-9.967C882.4,298.628,883.648,291.865,882.581,290.262Z" transform="translate(-873.584 -266.861)"/><path class="gl" d="M865.288,477.75s-3.738.712-5.518,3.56a11.094,11.094,0,0,1-1.863,2.323,1.413,1.413,0,0,0,.211,2.251c1.413.845,3.717,1.37,6.626-1.02C869.737,480.776,865.288,477.75,865.288,477.75Z" transform="translate(-856.825 -418.042)"/><path class="gh" d="M898.151,321.331s3.56-.357,4.449,8.9,2.323,11.39,2.323,11.39.889,4.806-1.246,7.652-6.229,8.9-6.229,8.9-4.449,1.246-5.338-3.2l5.518-10.322s.889-3.56-1.246-6.052S892.634,319.551,898.151,321.331Z" transform="translate(-884.171 -294.547)"/><path class="gr" d="M896.431,318.8s3.56-.357,4.449,8.9,2.323,11.39,2.323,11.39.889,4.806-1.246,7.652-6.229,8.9-6.229,8.9-4.449,1.246-5.338-3.2l5.518-10.322s.889-3.56-1.246-6.052S890.92,317.021,896.431,318.8Z" transform="translate(-882.814 -292.551)"/><path class="gh" d="M904.995,350.9s-.355,5.511,1.242,8.543,1.6,6.941,0,9.08" transform="translate(-894.308 -317.977)"/><path class="gh" d="M900.91,307.576s1.423-1.423,5.518-1.6,5.872-1.423,5.872-1.423" transform="translate(-891.113 -281.415)"/><path class="gh" d="M908.1,204.415c1.081.133,2.323.5,2.707,1.52a10.449,10.449,0,0,1,.247,1.172c.4,1.554,2.154,2.278,3.233,3.467a8.4,8.4,0,0,1,1.689,3.852,36.193,36.193,0,0,1,.633,12.091c-.346,2.956-1.056,5.858-1.254,8.822a13.979,13.979,0,0,0,1.784,8.575,21.4,21.4,0,0,1,2.111,3.191,6.156,6.156,0,0,1-3.744.99q-2.3.078-4.593,0a4.9,4.9,0,0,1-2.333-.486,3.6,3.6,0,0,1-1.225-1.316,9.353,9.353,0,0,1-1.056-5c.04-1.723.31-3.438.342-5.163a4.516,4.516,0,0,0-.6-2.707,8.825,8.825,0,0,0-1.491-1.379c-1.9-1.689-2.559-4.4-2.623-6.941s.357-5.093.142-7.629c-.084-.992-.456-2.186-1.432-2.378a5.037,5.037,0,0,1-.929-.118c-.783-.3-.707-1.406-.931-2.215-.251-.908-1.026-1.609-1.244-2.534-.513-2.154,2.228-4.724,4.025-5.473C903.386,204,906.171,204.178,908.1,204.415Z" transform="translate(-888.401 -202.263)"/><path class="go" d="M908.937,202.729c1.081.133,2.323.5,2.707,1.52a10.424,10.424,0,0,1,.247,1.172c.4,1.554,2.154,2.278,3.233,3.467a8.4,8.4,0,0,1,1.689,3.852,36.193,36.193,0,0,1,.633,12.091c-.346,2.956-1.056,5.858-1.254,8.822a13.98,13.98,0,0,0,1.784,8.575,21.4,21.4,0,0,1,2.112,3.191,6.156,6.156,0,0,1-3.744.99q-2.3.078-4.593,0a4.9,4.9,0,0,1-2.333-.486,3.6,3.6,0,0,1-1.225-1.316,9.354,9.354,0,0,1-1.056-5c.04-1.723.31-3.438.342-5.163a4.517,4.517,0,0,0-.6-2.707,8.817,8.817,0,0,0-1.491-1.379c-1.9-1.689-2.559-4.4-2.623-6.941s.357-5.093.142-7.629c-.084-.992-.456-2.185-1.432-2.378a5.04,5.04,0,0,1-.929-.118c-.783-.3-.707-1.406-.931-2.215-.251-.908-1.026-1.609-1.244-2.534-.513-2.154,2.228-4.724,4.025-5.473C904.226,202.309,907.011,202.49,908.937,202.729Z" transform="translate(-888.874 -200.396)"/></g><path class="gs" d="M224.529,513.24l3.753,3.694a.935.935,0,0,1-.657,1.6h-.16a.944.944,0,0,1-.663-.272l-3.653-3.656a.937.937,0,0,0-1.322,0l-3.653,3.656a.932.932,0,0,1-.66.272h-.163a.935.935,0,0,1-.657-1.6l3.756-3.694a.929.929,0,0,0,0-1.313h0l-3.792-3.792a.935.935,0,0,1,.66-1.594h0a.928.928,0,0,1,.654.266l3.845,3.792a.934.934,0,0,0,1.31,0l3.845-3.792a.929.929,0,0,1,.654-.266h0a.935.935,0,0,1,.663,1.594l-3.792,3.792a.929.929,0,0,0,.018,1.313h0Z" transform="translate(4.651 -384.136)"/><path class="gg" d="M364.992,436.119l3.467,5.387a1.08,1.08,0,0,0,1.489.323,1.178,1.178,0,0,0,.231-.2l9.549-11.007a1.073,1.073,0,0,0-.808-1.778h-.079a1.074,1.074,0,0,0-.826.385l-7.471,8.943a1.073,1.073,0,0,1-1.507.141,1.093,1.093,0,0,1-.213-.241l-2.033-3.1a1.077,1.077,0,0,0-1.059-.471h0a1.07,1.07,0,0,0-.74,1.6Z" transform="translate(-182.354 -350.558)"/><path class="gg" d="M364.992,436.119l3.467,5.387a1.08,1.08,0,0,0,1.489.323,1.178,1.178,0,0,0,.231-.2l9.549-11.007a1.073,1.073,0,0,0-.808-1.778h-.079a1.074,1.074,0,0,0-.826.385l-7.471,8.943a1.073,1.073,0,0,1-1.507.141,1.093,1.093,0,0,1-.213-.241l-2.033-3.1a1.077,1.077,0,0,0-1.059-.471h0a1.07,1.07,0,0,0-.74,1.6Z" transform="translate(-107.818 -394.252)"/><path class="gg" d="M364.992,436.119l3.467,5.387a1.08,1.08,0,0,0,1.489.323,1.178,1.178,0,0,0,.231-.2l9.549-11.007a1.073,1.073,0,0,0-.808-1.778h-.079a1.074,1.074,0,0,0-.826.385l-7.471,8.943a1.073,1.073,0,0,1-1.507.141,1.093,1.093,0,0,1-.213-.241l-2.033-3.1a1.077,1.077,0,0,0-1.059-.471h0a1.07,1.07,0,0,0-.74,1.6Z" transform="translate(-219.623 -394.253)"/></g></g></g></svg>