<svg xmlns="http://www.w3.org/2000/svg" xmlns:xlink="http://www.w3.org/1999/xlink" width="375" height="218" viewBox="0 0 375 218"><defs><style>.a{fill:#fff;}.b{clip-path:url(#a);}.c{opacity:0.8;}.d{fill:#f3f3f3;opacity:0.52;}.aj,.e,.fp,.fq,.fr,.g{fill:#387dff;}.e,.gh{opacity:0.1;}.cp,.f{opacity:0.4;}.f{fill:url(#b);}.g{opacity:0.15;}.h{fill:url(#c);}.i{fill:url(#d);}.j{fill:url(#e);}.k{fill:url(#f);}.l{fill:url(#g);}.m{fill:url(#h);}.n{fill:url(#i);}.o{fill:url(#j);}.p{fill:url(#k);}.q{fill:url(#l);}.r{fill:url(#m);}.s{fill:url(#n);}.t{fill:url(#o);}.u{fill:url(#p);}.v{fill:url(#q);}.w{fill:url(#r);}.x{fill:url(#s);}.y{fill:url(#t);}.z{fill:url(#u);}.aa{fill:url(#v);}.ab{fill:url(#w);}.ac{fill:url(#x);}.ad{fill:url(#y);}.ae{fill:url(#z);}.af{fill:url(#aa);}.ag{fill:url(#ab);}.ah{fill:url(#ac);}.ai{fill:url(#ad);}.aj{opacity:0.19;}.ak{fill:url(#ae);}.al{fill:url(#af);}.am{fill:url(#ag);}.an{fill:url(#ah);}.ao{fill:url(#ai);}.ap{fill:url(#aj);}.aq{fill:url(#ak);}.ar{fill:url(#al);}.as{fill:url(#am);}.at{fill:url(#an);}.au{fill:url(#ao);}.av{fill:url(#ap);}.aw{fill:url(#aq);}.ax{fill:url(#ar);}.ay{fill:url(#as);}.az{fill:url(#at);}.ba{fill:url(#au);}.bb{fill:url(#av);}.bc{fill:url(#aw);}.bd{fill:url(#ax);}.be{fill:url(#ay);}.bf{fill:url(#az);}.bg{fill:url(#ba);}.bh{fill:url(#bb);}.bi{fill:url(#bc);}.bj{fill:url(#bd);}.bk{fill:url(#be);}.bl{fill:url(#bf);}.bm{fill:rgba(56,125,255,0.41);}.bn{fill:url(#bg);}.bo{fill:url(#bh);}.bp{fill:url(#bi);}.bq{fill:url(#bj);}.br{fill:url(#bk);}.bs{fill:url(#bl);}.bt{fill:url(#bm);}.bu{fill:url(#bn);}.bv{fill:url(#bo);}.bw{fill:url(#bp);}.bx{fill:url(#bq);}.by{fill:url(#br);}.bz{fill:url(#bs);}.ca{fill:url(#bt);}.cb{fill:url(#bu);}.cc{fill:url(#bv);}.cd{fill:url(#bw);}.ce{fill:url(#bx);}.cf{fill:url(#by);}.cg{fill:url(#bz);}.ch{fill:url(#ca);}.ci{fill:url(#cb);}.cj{fill:url(#cc);}.ck{fill:url(#cd);}.cl{fill:url(#ce);}.cm{fill:url(#cf);}.cn{fill:url(#cg);}.co{fill:url(#ch);}.cp,.fn,.fu,.fw,.gd{fill:url(#ci);}.cq{fill:url(#cj);}.cr{fill:url(#ck);}.cs{fill:url(#cl);}.ct{fill:url(#cm);}.cu{fill:url(#cn);}.cv{fill:url(#co);}.cw{fill:url(#cp);}.cx{fill:url(#cq);}.cy{fill:url(#cr);}.cz{fill:url(#cs);}.da{fill:url(#ct);}.db{fill:url(#cu);}.dc{fill:url(#cv);}.dd{fill:url(#cw);}.de{fill:url(#cx);}.df{fill:url(#cy);}.dg{fill:url(#cz);}.dh{fill:url(#da);}.di{fill:url(#db);}.dj{fill:url(#dc);}.dk{fill:url(#dd);}.dl{fill:url(#de);}.dm{fill:url(#df);}.dn{fill:url(#dg);}.do{fill:url(#dh);}.dp{fill:url(#di);}.dq{fill:url(#dj);}.dr{fill:url(#dk);}.ds{opacity:0.92;fill:url(#dl);}.dt{fill:#cacaca;}.du{fill:url(#dm);}.dv{fill:url(#dn);}.dw{fill:url(#do);}.dx{fill:url(#dp);}.dy{fill:url(#dq);}.dz{fill:url(#dr);}.ea{fill:url(#ds);}.eb{fill:url(#dt);}.ec{fill:rgba(56,125,255,0.27);}.ed{fill:rgba(56,125,255,0.44);}.ee,.ef,.eg{opacity:0.3;}.ee{fill:url(#du);}.ef{fill:url(#dv);}.eg{fill:url(#dw);}.eh,.ei,.ej,.ek,.el,.fs,.fx{opacity:0.5;}.eh{fill:url(#dx);}.ei{fill:url(#dy);}.ej{fill:url(#dz);}.ek{fill:url(#ea);}.el{fill:url(#eb);}.em{fill:url(#ec);}.en{fill:url(#ed);}.eo{fill:url(#ee);}.ep{fill:url(#ef);}.eq{fill:url(#eg);}.er{fill:url(#eh);}.es{fill:url(#ei);}.et{fill:url(#ej);}.eu{fill:url(#ek);}.ev{fill:url(#el);}.ew{fill:url(#em);}.ex{fill:url(#en);}.ey{fill:url(#eo);}.ez{fill:url(#ep);}.fa{fill:url(#eq);}.fb{fill:url(#er);}.fc{fill:url(#es);}.fd{fill:url(#et);}.fe{fill:url(#eu);}.ff{fill:url(#ev);}.fg{opacity:0.56;fill:url(#ew);}.fh,.fi,.fj{opacity:0.7;}.fh{fill:url(#ex);}.fi{fill:url(#ey);}.fj{fill:url(#ez);}.fk{opacity:0.48;fill:url(#fa);}.fl{fill:rgba(255,255,255,0);}.fm{fill:url(#fe);}.fn{opacity:0.24;}.fo{opacity:0.28;fill:url(#fk);}.fp{opacity:0.26;}.fq,.fu{opacity:0.41;}.fr{opacity:0.44;}.fs{fill:url(#fl);}.ft{fill:#68e1fd;}.fv{opacity:0.58;}.fv,.fx{fill:url(#fn);}.fw{opacity:0.63;}.fy{fill:url(#fq);}.fz{fill:#e0eaff;opacity:0.68;}.ga{fill:#3f3d56;}.gb{fill:#e1edfe;}.gc,.gf{fill:none;stroke-miterlimit:10;}.gc{stroke:#f2f2f2;stroke-width:2px;}.ge{fill:rgba(56,125,255,0.2);}.gf{stroke:#3f3d56;}.gg{fill:#4fdc6f;}.gi{fill:#656380;}.gj{opacity:0.2;}.gk{fill:url(#fu);}.gl{fill:#fbbebe;}.gm{fill:#2e3037;}.gn{fill:#db8b8b;}.go{fill:#474463;}.gp{fill:#fc6681;}.gq{opacity:0.05;}.gq,.gr{fill:url(#fv);}.gs{fill:#f07379;}</style><clipPath id="a"><rect class="a" width="375" height="218" transform="translate(821 70)"/></clipPath><linearGradient id="b" x1="0.501" y1="1.05" x2="0.497" y2="-1.399" gradientUnits="objectBoundingBox"><stop offset="0" stop-color="#5690ff"/><stop offset="1" stop-color="#766de8"/></linearGradient><linearGradient id="c" x1="0.614" y1="52.7" x2="0.445" y2="-24.325" gradientUnits="objectBoundingBox"><stop offset="0" stop-color="#fff" stop-opacity="0"/><stop offset="0.95" stop-color="#fff"/></linearGradient><linearGradient id="d" x1="0.611" y1="51.296" x2="0.443" y2="-25.73" xlink:href="#c"/><linearGradient id="e" x1="0.609" y1="49.891" x2="0.44" y2="-27.135" xlink:href="#c"/><linearGradient id="f" x1="0.604" y1="48.484" x2="0.437" y2="-28.542" xlink:href="#c"/><linearGradient id="g" x1="0.601" y1="47.079" x2="0.433" y2="-29.946" xlink:href="#c"/><linearGradient id="h" x1="0.599" y1="45.675" x2="0.43" y2="-31.351" xlink:href="#c"/><linearGradient id="i" x1="0.596" y1="44.27" x2="0.427" y2="-32.756" xlink:href="#c"/><linearGradient id="j" x1="0.593" y1="42.863" x2="0.424" y2="-34.163" xlink:href="#c"/><linearGradient id="k" x1="0.59" y1="41.458" x2="0.421" y2="-35.567" xlink:href="#c"/><linearGradient id="l" x1="0.586" y1="40.054" x2="0.418" y2="-36.972" xlink:href="#c"/><linearGradient id="m" x1="0.583" y1="38.647" x2="0.414" y2="-38.379" xlink:href="#c"/><linearGradient id="n" x1="0.58" y1="37.242" x2="0.411" y2="-39.784" xlink:href="#c"/><linearGradient id="o" x1="0.577" y1="35.837" x2="0.409" y2="-41.188" xlink:href="#c"/><linearGradient id="p" x1="0.574" y1="34.43" x2="0.406" y2="-42.595" xlink:href="#c"/><linearGradient id="q" x1="0.572" y1="33.026" x2="0.403" y2="-44" xlink:href="#c"/><linearGradient id="r" x1="0.567" y1="31.621" x2="0.4" y2="-45.405" xlink:href="#c"/><linearGradient id="s" x1="0.565" y1="30.214" x2="0.396" y2="-46.812" xlink:href="#c"/><linearGradient id="t" x1="0.562" y1="28.809" x2="0.393" y2="-48.216" xlink:href="#c"/><linearGradient id="u" x1="0.559" y1="27.405" x2="0.39" y2="-49.621" xlink:href="#c"/><linearGradient id="v" x1="0.556" y1="26" x2="0.387" y2="-51.026" xlink:href="#c"/><linearGradient id="w" x1="0.553" y1="24.593" x2="0.384" y2="-52.433" xlink:href="#c"/><linearGradient id="x" x1="0.549" y1="23.188" x2="0.382" y2="-53.837" xlink:href="#c"/><linearGradient id="y" x1="0.546" y1="21.784" x2="0.377" y2="-55.242" xlink:href="#c"/><linearGradient id="z" x1="0.543" y1="20.377" x2="0.374" y2="-56.649" xlink:href="#c"/><linearGradient id="aa" x1="0.54" y1="18.972" x2="0.372" y2="-58.053" xlink:href="#c"/><linearGradient id="ab" x1="0.538" y1="17.567" x2="0.369" y2="-59.458" xlink:href="#c"/><linearGradient id="ac" x1="0.535" y1="16.161" x2="0.366" y2="-60.865" xlink:href="#c"/><linearGradient id="ad" x1="0.53" y1="14.756" x2="0.363" y2="-62.27" xlink:href="#c"/><linearGradient id="ae" x1="0.519" y1="52.677" x2="0.491" y2="-24.349" xlink:href="#c"/><linearGradient id="af" x1="0.519" y1="51.272" x2="0.49" y2="-25.754" xlink:href="#c"/><linearGradient id="ag" x1="0.518" y1="49.867" x2="0.49" y2="-27.158" xlink:href="#c"/><linearGradient id="ah" x1="0.518" y1="48.46" x2="0.489" y2="-28.565" xlink:href="#c"/><linearGradient id="ai" x1="0.517" y1="47.056" x2="0.489" y2="-29.97" xlink:href="#c"/><linearGradient id="aj" x1="0.517" y1="45.651" x2="0.488" y2="-31.375" xlink:href="#c"/><linearGradient id="ak" x1="0.516" y1="44.244" x2="0.488" y2="-32.779" xlink:href="#c"/><linearGradient id="al" x1="0.516" y1="42.839" x2="0.487" y2="-34.186" xlink:href="#c"/><linearGradient id="am" x1="0.515" y1="41.435" x2="0.487" y2="-35.591" xlink:href="#c"/><linearGradient id="an" x1="0.515" y1="40.03" x2="0.486" y2="-36.996" xlink:href="#c"/><linearGradient id="ao" x1="0.514" y1="38.623" x2="0.486" y2="-38.403" xlink:href="#c"/><linearGradient id="ap" x1="0.514" y1="37.218" x2="0.485" y2="-39.807" xlink:href="#c"/><linearGradient id="aq" x1="0.513" y1="35.814" x2="0.485" y2="-41.212" xlink:href="#c"/><linearGradient id="ar" x1="0.513" y1="34.407" x2="0.484" y2="-42.619" xlink:href="#c"/><linearGradient id="as" x1="0.512" y1="33.002" x2="0.484" y2="-44.024" xlink:href="#c"/><linearGradient id="at" x1="0.512" y1="31.597" x2="0.483" y2="-45.428" xlink:href="#c"/><linearGradient id="au" x1="0.511" y1="30.191" x2="0.482" y2="-46.835" xlink:href="#c"/><linearGradient id="av" x1="0.511" y1="28.786" x2="0.482" y2="-48.24" xlink:href="#c"/><linearGradient id="aw" x1="0.51" y1="27.381" x2="0.482" y2="-49.645" xlink:href="#c"/><linearGradient id="ax" x1="0.51" y1="25.976" x2="0.481" y2="-51.049" xlink:href="#c"/><linearGradient id="ay" x1="0.509" y1="24.57" x2="0.481" y2="-52.456" xlink:href="#c"/><linearGradient id="az" x1="0.508" y1="23.165" x2="0.48" y2="-53.861" xlink:href="#c"/><linearGradient id="ba" x1="0.508" y1="21.76" x2="0.479" y2="-55.266" xlink:href="#c"/><linearGradient id="bb" x1="0.507" y1="20.353" x2="0.479" y2="-56.672" xlink:href="#c"/><linearGradient id="bc" x1="0.507" y1="18.949" x2="0.478" y2="-58.077" xlink:href="#c"/><linearGradient id="bd" x1="0.506" y1="17.544" x2="0.478" y2="-59.482" xlink:href="#c"/><linearGradient id="be" x1="0.506" y1="16.137" x2="0.477" y2="-60.888" xlink:href="#c"/><linearGradient id="bf" x1="0.505" y1="14.732" x2="0.477" y2="-62.293" xlink:href="#c"/><linearGradient id="bg" x1="0.615" y1="52.661" x2="0.446" y2="-24.307" xlink:href="#c"/><linearGradient id="bh" x1="0.611" y1="51.256" x2="0.444" y2="-25.711" xlink:href="#c"/><linearGradient id="bi" x1="0.607" y1="49.851" x2="0.44" y2="-27.116" xlink:href="#c"/><linearGradient id="bj" x1="0.606" y1="48.446" x2="0.438" y2="-28.521" xlink:href="#c"/><linearGradient id="bk" x1="0.602" y1="47.042" x2="0.434" y2="-29.926" xlink:href="#c"/><linearGradient id="bl" x1="0.6" y1="45.64" x2="0.43" y2="-31.327" xlink:href="#c"/><linearGradient id="bm" x1="0.596" y1="44.235" x2="0.428" y2="-32.732" xlink:href="#c"/><linearGradient id="bn" x1="0.594" y1="42.83" x2="0.424" y2="-34.137" xlink:href="#c"/><linearGradient id="bo" x1="0.59" y1="41.426" x2="0.422" y2="-35.539" xlink:href="#c"/><linearGradient id="bp" x1="0.588" y1="40.021" x2="0.418" y2="-36.943" xlink:href="#c"/><linearGradient id="bq" x1="0.584" y1="38.616" x2="0.416" y2="-38.348" xlink:href="#c"/><linearGradient id="br" x1="0.58" y1="37.214" x2="0.412" y2="-39.75" xlink:href="#c"/><linearGradient id="bs" x1="0.578" y1="35.81" x2="0.408" y2="-41.155" xlink:href="#c"/><linearGradient id="bt" x1="0.574" y1="34.405" x2="0.406" y2="-42.56" xlink:href="#c"/><linearGradient id="bu" x1="0.572" y1="33" x2="0.402" y2="-43.964" xlink:href="#c"/><linearGradient id="bv" x1="0.568" y1="31.595" x2="0.4" y2="-45.369" xlink:href="#c"/><linearGradient id="bw" x1="0.566" y1="30.19" x2="0.396" y2="-46.774" xlink:href="#c"/><linearGradient id="bx" x1="0.562" y1="28.789" x2="0.394" y2="-48.176" xlink:href="#c"/><linearGradient id="by" x1="0.558" y1="27.384" x2="0.391" y2="-49.58" xlink:href="#c"/><linearGradient id="bz" x1="0.556" y1="25.979" x2="0.389" y2="-50.985" xlink:href="#c"/><linearGradient id="ca" x1="0.552" y1="24.575" x2="0.385" y2="-52.39" xlink:href="#c"/><linearGradient id="cb" x1="0.55" y1="23.17" x2="0.381" y2="-53.795" xlink:href="#c"/><linearGradient id="cc" x1="0.546" y1="21.765" x2="0.379" y2="-55.2" xlink:href="#c"/><linearGradient id="cd" x1="0.544" y1="20.363" x2="0.375" y2="-56.601" xlink:href="#c"/><linearGradient id="ce" x1="0.54" y1="18.958" x2="0.373" y2="-58.006" xlink:href="#c"/><linearGradient id="cf" x1="0.538" y1="17.554" x2="0.369" y2="-59.411" xlink:href="#c"/><linearGradient id="cg" x1="0.535" y1="16.149" x2="0.367" y2="-60.816" xlink:href="#c"/><linearGradient id="ch" x1="0.531" y1="14.744" x2="0.363" y2="-62.221" xlink:href="#c"/><linearGradient id="ci" x1="0.5" y1="0" x2="0.5" y2="1" xlink:href="#b"/><linearGradient id="cj" x1="0.519" y1="52.637" x2="0.491" y2="-24.327" xlink:href="#c"/><linearGradient id="ck" x1="0.519" y1="51.232" x2="0.49" y2="-25.732" xlink:href="#c"/><linearGradient id="cl" x1="0.518" y1="49.827" x2="0.49" y2="-27.137" xlink:href="#c"/><linearGradient id="cm" x1="0.518" y1="48.423" x2="0.489" y2="-28.542" xlink:href="#c"/><linearGradient id="cn" x1="0.517" y1="47.018" x2="0.489" y2="-29.946" xlink:href="#c"/><linearGradient id="co" x1="0.517" y1="45.616" x2="0.488" y2="-31.348" xlink:href="#c"/><linearGradient id="cp" x1="0.516" y1="44.211" x2="0.488" y2="-32.756" xlink:href="#c"/><linearGradient id="cq" x1="0.516" y1="42.807" x2="0.487" y2="-34.158" xlink:href="#c"/><linearGradient id="cr" x1="0.515" y1="41.402" x2="0.487" y2="-35.562" xlink:href="#c"/><linearGradient id="cs" x1="0.515" y1="39.997" x2="0.486" y2="-36.967" xlink:href="#c"/><linearGradient id="ct" x1="0.514" y1="38.592" x2="0.486" y2="-38.372" xlink:href="#c"/><linearGradient id="cu" x1="0.514" y1="37.19" x2="0.485" y2="-39.774" xlink:href="#c"/><linearGradient id="cv" x1="0.513" y1="35.786" x2="0.485" y2="-41.179" xlink:href="#c"/><linearGradient id="cw" x1="0.512" y1="34.381" x2="0.484" y2="-42.583" xlink:href="#c"/><linearGradient id="cx" x1="0.512" y1="32.976" x2="0.484" y2="-43.988" xlink:href="#c"/><linearGradient id="cy" x1="0.511" y1="31.571" x2="0.483" y2="-45.393" xlink:href="#c"/><linearGradient id="cz" x1="0.511" y1="30.167" x2="0.482" y2="-46.798" xlink:href="#c"/><linearGradient id="da" x1="0.51" y1="28.765" x2="0.482" y2="-48.199" xlink:href="#c"/><linearGradient id="db" x1="0.51" y1="27.36" x2="0.481" y2="-49.604" xlink:href="#c"/><linearGradient id="dc" x1="0.509" y1="25.955" x2="0.481" y2="-51.009" xlink:href="#c"/><linearGradient id="dd" x1="0.509" y1="24.551" x2="0.48" y2="-52.414" xlink:href="#c"/><linearGradient id="de" x1="0.508" y1="23.146" x2="0.48" y2="-53.819" xlink:href="#c"/><linearGradient id="df" x1="0.508" y1="21.741" x2="0.479" y2="-55.223" xlink:href="#c"/><linearGradient id="dg" x1="0.507" y1="20.339" x2="0.479" y2="-56.625" xlink:href="#c"/><linearGradient id="dh" x1="0.507" y1="18.935" x2="0.478" y2="-58.03" xlink:href="#c"/><linearGradient id="di" x1="0.506" y1="17.53" x2="0.478" y2="-59.435" xlink:href="#c"/><linearGradient id="dj" x1="0.506" y1="16.125" x2="0.477" y2="-60.84" xlink:href="#c"/><linearGradient id="dk" x1="0.505" y1="14.72" x2="0.477" y2="-62.244" xlink:href="#c"/><linearGradient id="dl" x1="6.576" y1="0.577" x2="-30.181" y2="0.112" xlink:href="#b"/><linearGradient id="dm" x1="-51.26" y1="5.542" x2="-43.562" y2="6.02" gradientUnits="objectBoundingBox"><stop offset="0" stop-color="#1c265c"/><stop offset="1" stop-color="#fff" stop-opacity="0"/></linearGradient><linearGradient id="dn" x1="-51.489" y1="5.527" x2="-43.792" y2="6.005" xlink:href="#dm"/><linearGradient id="do" x1="-51.719" y1="5.513" x2="-44.023" y2="5.992" xlink:href="#dm"/><linearGradient id="dp" x1="-51.95" y1="5.498" x2="-44.253" y2="5.977" xlink:href="#dm"/><linearGradient id="dq" x1="-52.18" y1="5.484" x2="-44.484" y2="5.963" xlink:href="#dm"/><linearGradient id="dr" x1="-52.411" y1="5.47" x2="-44.714" y2="5.948" xlink:href="#dm"/><linearGradient id="ds" x1="-52.641" y1="5.469" x2="-44.943" y2="5.95" xlink:href="#dm"/><linearGradient id="dt" x1="-49.979" y1="5.701" x2="-42.44" y2="6.194" xlink:href="#dm"/><linearGradient id="du" x1="0.5" y1="-2.054" x2="0.5" y2="14.385" xlink:href="#b"/><linearGradient id="dv" x1="0.5" y1="-3.202" x2="0.5" y2="13.237" xlink:href="#b"/><linearGradient id="dw" x1="0.5" y1="-4.351" x2="0.5" y2="12.088" xlink:href="#b"/><linearGradient id="dx" x1="0.5" y1="-5.5" x2="0.5" y2="10.94" xlink:href="#b"/><linearGradient id="dy" x1="0.5" y1="-6.649" x2="0.5" y2="9.791" xlink:href="#b"/><linearGradient id="dz" x1="0.5" y1="-7.797" x2="0.5" y2="8.642" xlink:href="#b"/><linearGradient id="ea" x1="0.5" y1="-8.946" x2="0.5" y2="7.493" xlink:href="#b"/><linearGradient id="eb" x1="0.5" y1="-10.094" x2="0.5" y2="6.345" xlink:href="#b"/><linearGradient id="ec" x1="56.081" y1="-0.882" x2="41.746" y2="0.672" xlink:href="#c"/><linearGradient id="ed" x1="56.059" y1="-0.882" x2="41.725" y2="0.672" xlink:href="#c"/><linearGradient id="ee" x1="56.038" y1="-0.876" x2="41.703" y2="0.677" xlink:href="#c"/><linearGradient id="ef" x1="56.018" y1="-0.876" x2="41.682" y2="0.677" xlink:href="#c"/><linearGradient id="eg" x1="55.996" y1="-0.871" x2="41.66" y2="0.683" xlink:href="#c"/><linearGradient id="eh" x1="55.975" y1="-0.871" x2="41.64" y2="0.683" xlink:href="#c"/><linearGradient id="ei" x1="55.954" y1="-0.871" x2="41.619" y2="0.688" xlink:href="#c"/><linearGradient id="ej" x1="55.932" y1="-0.871" x2="41.598" y2="0.688" xlink:href="#c"/><linearGradient id="ek" x1="107.461" y1="-0.521" x2="79.243" y2="0.5" xlink:href="#c"/><linearGradient id="el" x1="109.454" y1="-0.447" x2="81.24" y2="0.57" xlink:href="#c"/><linearGradient id="em" x1="107.402" y1="-0.518" x2="79.187" y2="0.5" xlink:href="#c"/><linearGradient id="en" x1="109.398" y1="-0.447" x2="81.183" y2="0.574" xlink:href="#c"/><linearGradient id="eo" x1="107.345" y1="-0.518" x2="79.127" y2="0.5" xlink:href="#c"/><linearGradient id="ep" x1="109.338" y1="-0.447" x2="81.123" y2="0.574" xlink:href="#c"/><linearGradient id="eq" x1="107.285" y1="-0.514" x2="79.071" y2="0.504" xlink:href="#c"/><linearGradient id="er" x1="109.282" y1="-0.444" x2="81.067" y2="0.574" xlink:href="#c"/><linearGradient id="es" x1="107.229" y1="-0.514" x2="79.014" y2="0.507" xlink:href="#c"/><linearGradient id="et" x1="109.225" y1="-0.44" x2="81.007" y2="0.577" xlink:href="#c"/><linearGradient id="eu" x1="107.169" y1="-0.511" x2="78.954" y2="0.511" xlink:href="#c"/><linearGradient id="ev" x1="109.166" y1="-0.437" x2="80.951" y2="0.581" xlink:href="#c"/><linearGradient id="ew" x1="0.468" y1="12.226" x2="0.773" y2="-99.423" xlink:href="#b"/><linearGradient id="ex" x1="0.448" y1="19.607" x2="0.754" y2="-92.042" xlink:href="#b"/><linearGradient id="ey" x1="0.427" y1="27.202" x2="0.733" y2="-84.447" xlink:href="#b"/><linearGradient id="ez" x1="0.406" y1="34.792" x2="0.712" y2="-76.857" xlink:href="#b"/><linearGradient id="fa" x1="0.364" y1="49.976" x2="0.671" y2="-61.673" gradientUnits="objectBoundingBox"><stop offset="0" stop-color="#010101" stop-opacity="0"/><stop offset="0.95" stop-color="#387dff"/><stop offset="1" stop-color="#010101"/></linearGradient><linearGradient id="fe" x1="19.432" y1="19.16" x2="-7.631" y2="-7.515" xlink:href="#c"/><linearGradient id="fk" x1="0.495" y1="-0.712" x2="0.519" y2="4.764" xlink:href="#b"/><linearGradient id="fl" x1="0.5" y1="1" x2="0.5" gradientUnits="objectBoundingBox"><stop offset="0" stop-color="#e9e9e9"/><stop offset="1" stop-color="#387dff"/></linearGradient><linearGradient id="fn" x1="0.5" y1="1" x2="0.5" y2="0" xlink:href="#b"/><linearGradient id="fq" x1="0.5" y1="-0.445" x2="0.5" y2="5.083" xlink:href="#c"/><linearGradient id="fu" x1="6.341" y1="1" x2="6.341" gradientUnits="objectBoundingBox"><stop offset="0" stop-color="gray" stop-opacity="0.251"/><stop offset="0.54" stop-color="gray" stop-opacity="0.122"/><stop offset="1" stop-color="gray" stop-opacity="0.102"/></linearGradient><linearGradient id="fv" x1="0.5" x2="0.5" y2="1" gradientUnits="objectBoundingBox"><stop offset="0" stop-color="#ffa330"/><stop offset="0.274" stop-color="#ff9346"/><stop offset="0.539" stop-color="#ff8559"/><stop offset="0.766" stop-color="#fb7a6a"/><stop offset="1" stop-color="#f07379"/></linearGradient></defs><g class="b" transform="translate(-821 -70)"><g transform="translate(837 108)"><g class="c" transform="translate(0 -14)"><path class="d" d="M5.42,268.749a57.053,57.053,0,0,0,3.464,7.305,63.2,63.2,0,0,0,49.151,31.436c16.339,1.327,32.587-3.811,48.969-3.653,12.614.116,24.959,3.366,37.268,5.966a364.71,364.71,0,0,0,99.66,6.989c23.182-1.559,46.875-5.6,66.629-17.825a76.205,76.205,0,0,0,23.389-22.634,61.486,61.486,0,0,0,8.3-18.385l-.889-30.316c-.3-1.151-.651-2.307-1-3.464-.712-2.386-1.485-4.773-2.252-7.159-1.254-3.835-2.484-7.683-3.464-11.566-.268-1.041-.524-2.076-.755-3.117-1.96-8.955-2.435-18.135-3.044-27.279H313.282v-15.2H293.193v23.309H284.8V164.468H274.93v17.344H261.763v20.327h-14.9V182.354H220.836v19.785H198.081V170.976H186.417v10.008h-9.74v21.154h-9.74V188.064H155v14.087H148.5V179.018H137.119v-9.411H115.435v32.532h-9.588V150.82H84.175v51.319H75.147V159.525H58.51v18.056H49.847v24.582Z" transform="translate(-0.981 -148.458)"/><path class="e" d="M5.42,268.749a57.053,57.053,0,0,0,3.464,7.305,63.2,63.2,0,0,0,49.151,31.436c16.339,1.327,32.587-3.811,48.969-3.653,12.614.116,24.959,3.366,37.268,5.966a364.71,364.71,0,0,0,99.66,6.989c23.182-1.559,46.875-5.6,66.629-17.825a76.205,76.205,0,0,0,23.389-22.634,61.486,61.486,0,0,0,8.3-18.385l-.889-30.316c-.3-1.151-.651-2.307-1-3.464-.712-2.386-1.485-4.773-2.252-7.159-1.254-3.835-2.484-7.683-3.464-11.566-.268-1.041-.524-2.076-.755-3.117-1.96-8.955-2.435-18.135-3.044-27.279H313.282v-15.2H293.193v23.309H284.8V164.468H274.93v17.344H261.763v20.327h-14.9V182.354H220.836v19.785H198.081V170.976H186.417v10.008h-9.74v21.154h-9.74V188.064H155v14.087H148.5V179.018H137.119v-9.411H115.435v32.532h-9.588V150.82H84.175v51.319H75.147V159.525H58.51v18.056H49.847v24.582Z" transform="translate(-0.981 -148.458)"/><path class="e" d="M6.549,277.817c2.313,2.752,4.681,5.43,7.025,8.145.505.609,1,1.169,1.5,1.765h4.389v-1.151H335.542c6.812-10.349,10.7-22.372,9.935-34.7a76.622,76.622,0,0,0-3.525-17.459H339.7v-7.171c-1.254-3.835-2.484-7.683-3.464-11.566h-8.084v18.725h-5.363v-16.1h-7.171v16.1h-1.54V197H299.655v37.4H54.081V177H42.046a109.738,109.738,0,0,1-6.757,13.393c-.536.889-1.078,1.753-1.656,2.618v4.834H30.3C23.029,207.8,14.475,216.9,8.936,227.935A63.582,63.582,0,0,0,6.549,277.817Z" transform="translate(-2.573 -158.701)"/><path class="a" d="M338.823,334.536c2.161.25,4.706.8,5.546,2.806.609,1.443.061,3.1-.609,4.511-4.365,9.016-13.965,14.562-23.742,16.625s-19.943,1.163-29.927.42c-86.176-6.41-173-.329-259.034-8.383-4.87-.457-10.513-1.424-12.9-5.7-2.216-3.963-.4-9.229,3.044-12.218s8.03-4.17,12.492-4.98c25.513-4.615,51.647.079,77.459,2.465,30.767,2.849,61.7,2.4,92.532,1.686,15.377-.359,30.755-.791,46.138-.919,7.762-.061,15.53-.073,23.285.091,5.126.1,9.74,1.826,14.775,2.058C304.921,333.72,321.71,332.563,338.823,334.536Z" transform="translate(-10.529 -216.862)"/><path class="f" d="M338.823,334.536c2.161.25,4.706.8,5.546,2.806.609,1.443.061,3.1-.609,4.511-4.365,9.016-13.965,14.562-23.742,16.625s-19.943,1.163-29.927.42c-86.176-6.41-173-.329-259.034-8.383-4.87-.457-10.513-1.424-12.9-5.7-2.216-3.963-.4-9.229,3.044-12.218s8.03-4.17,12.492-4.98c25.513-4.615,51.647.079,77.459,2.465,30.767,2.849,61.7,2.4,92.532,1.686,15.377-.359,30.755-.791,46.138-.919,7.762-.061,15.53-.073,23.285.091,5.126.1,9.74,1.826,14.775,2.058C304.921,333.72,321.71,332.563,338.823,334.536Z" transform="translate(-10.529 -216.74)"/><rect class="g" width="37.433" height="121.113" transform="translate(201.562)"/><line class="a" x1="4.292" transform="translate(203.188 10.197)"/><rect class="h" width="4.292" height="2.843" transform="translate(203.188 8.778)"/><line class="a" x1="4.292" transform="translate(203.188 14.19)"/><rect class="i" width="4.292" height="2.843" transform="translate(203.188 12.772)"/><line class="a" x1="4.292" transform="translate(203.188 18.19)"/><rect class="j" width="4.292" height="2.843" transform="translate(203.188 16.765)"/><line class="a" x2="4.292" transform="translate(203.188 22.183)"/><rect class="k" width="4.292" height="2.843" transform="translate(203.188 20.765)"/><line class="a" x1="4.292" transform="translate(203.188 26.177)"/><rect class="l" width="4.292" height="2.843" transform="translate(203.188 24.758)"/><line class="a" x1="4.292" transform="translate(203.188 30.176)"/><rect class="m" width="4.292" height="2.843" transform="translate(203.188 28.752)"/><line class="a" x1="4.292" transform="translate(203.188 34.17)"/><rect class="n" width="4.292" height="2.843" transform="translate(203.188 32.745)"/><line class="a" x1="4.292" transform="translate(203.188 38.163)"/><rect class="o" width="4.292" height="2.843" transform="translate(203.188 36.745)"/><line class="a" x1="4.292" transform="translate(203.188 42.163)"/><rect class="p" width="4.292" height="2.843" transform="translate(203.188 40.738)"/><line class="a" x1="4.292" transform="translate(203.188 46.156)"/><rect class="q" width="4.292" height="2.843" transform="translate(203.188 44.732)"/><line class="a" x1="4.292" transform="translate(203.188 50.15)"/><rect class="r" width="4.292" height="2.843" transform="translate(203.188 48.731)"/><line class="a" x1="4.292" transform="translate(203.188 54.143)"/><rect class="s" width="4.292" height="2.843" transform="translate(203.188 52.725)"/><line class="a" x1="4.292" transform="translate(203.188 58.143)"/><rect class="t" width="4.292" height="2.843" transform="translate(203.188 56.718)"/><line class="a" x1="4.292" transform="translate(203.188 62.136)"/><rect class="u" width="4.292" height="2.843" transform="translate(203.188 60.718)"/><line class="a" x1="4.292" transform="translate(203.188 66.13)"/><rect class="v" width="4.292" height="2.843" transform="translate(203.188 64.711)"/><line class="a" x1="4.292" transform="translate(203.188 70.129)"/><rect class="w" width="4.292" height="2.843" transform="translate(203.188 68.705)"/><line class="a" x1="4.292" transform="translate(203.188 74.123)"/><rect class="x" width="4.292" height="2.843" transform="translate(203.188 72.704)"/><line class="a" x1="4.292" transform="translate(203.188 78.116)"/><rect class="y" width="4.292" height="2.843" transform="translate(203.188 76.698)"/><line class="a" x1="4.292" transform="translate(203.188 82.116)"/><rect class="z" width="4.292" height="2.843" transform="translate(203.188 80.691)"/><line class="a" x1="4.292" transform="translate(203.188 86.109)"/><rect class="aa" width="4.292" height="2.843" transform="translate(203.188 84.685)"/><line class="a" x1="4.292" transform="translate(203.188 90.103)"/><rect class="ab" width="4.292" height="2.843" transform="translate(203.188 88.684)"/><line class="a" x1="4.292" transform="translate(203.188 94.102)"/><rect class="ac" width="4.292" height="2.843" transform="translate(203.188 92.678)"/><line class="a" x1="4.292" transform="translate(203.188 98.096)"/><rect class="ad" width="4.292" height="2.843" transform="translate(203.188 96.671)"/><line class="a" x1="4.292" transform="translate(203.188 102.089)"/><rect class="ae" width="4.292" height="2.843" transform="translate(203.188 100.671)"/><line class="a" x1="4.292" transform="translate(203.188 106.083)"/><rect class="af" width="4.292" height="2.843" transform="translate(203.188 104.664)"/><line class="a" x1="4.292" transform="translate(203.188 110.082)"/><rect class="ag" width="4.292" height="2.843" transform="translate(203.188 108.658)"/><line class="a" x1="4.292" transform="translate(203.188 114.076)"/><rect class="ah" width="4.292" height="2.843" transform="translate(203.188 112.657)"/><line class="a" x1="4.292" transform="translate(203.188 118.069)"/><rect class="ai" width="4.292" height="2.843" transform="translate(203.188 116.651)"/><rect class="aj" width="29.397" height="121.113" transform="translate(209.586)"/><line class="a" x1="25.385" transform="translate(212.623 10.197)"/><rect class="ak" width="25.385" height="2.843" transform="translate(212.623 8.778)"/><line class="a" x1="25.385" transform="translate(212.623 14.19)"/><rect class="al" width="25.385" height="2.843" transform="translate(212.623 12.772)"/><line class="a" x1="25.385" transform="translate(212.623 18.19)"/><rect class="am" width="25.385" height="2.843" transform="translate(212.623 16.765)"/><line class="a" x2="25.385" transform="translate(212.623 22.183)"/><rect class="an" width="25.385" height="2.843" transform="translate(212.623 20.765)"/><line class="a" x1="25.385" transform="translate(212.623 26.177)"/><rect class="ao" width="25.385" height="2.843" transform="translate(212.623 24.758)"/><line class="a" x1="25.385" transform="translate(212.623 30.176)"/><rect class="ap" width="25.385" height="2.843" transform="translate(212.623 28.752)"/><line class="a" x1="25.385" transform="translate(212.623 34.17)"/><rect class="aq" width="25.385" height="2.843" transform="translate(212.623 32.745)"/><line class="a" x1="25.385" transform="translate(212.623 38.163)"/><rect class="ar" width="25.385" height="2.843" transform="translate(212.623 36.745)"/><line class="a" x1="25.385" transform="translate(212.623 42.163)"/><rect class="as" width="25.385" height="2.843" transform="translate(212.623 40.738)"/><line class="a" x1="25.385" transform="translate(212.623 46.156)"/><rect class="at" width="25.385" height="2.843" transform="translate(212.623 44.732)"/><line class="a" x1="25.385" transform="translate(212.623 50.15)"/><rect class="au" width="25.385" height="2.843" transform="translate(212.623 48.731)"/><line class="a" x1="25.385" transform="translate(212.623 54.143)"/><rect class="av" width="25.385" height="2.843" transform="translate(212.623 52.725)"/><line class="a" x1="25.385" transform="translate(212.623 58.143)"/><rect class="aw" width="25.385" height="2.843" transform="translate(212.623 56.718)"/><line class="a" x1="25.385" transform="translate(212.623 62.136)"/><rect class="ax" width="25.385" height="2.843" transform="translate(212.623 60.718)"/><line class="a" x1="25.385" transform="translate(212.623 66.13)"/><rect class="ay" width="25.385" height="2.843" transform="translate(212.623 64.711)"/><line class="a" x1="25.385" transform="translate(212.623 70.129)"/><rect class="az" width="25.385" height="2.843" transform="translate(212.623 68.705)"/><line class="a" x1="25.385" transform="translate(212.623 74.123)"/><rect class="ba" width="25.385" height="2.843" transform="translate(212.623 72.704)"/><line class="a" x1="25.385" transform="translate(212.623 78.116)"/><rect class="bb" width="25.385" height="2.843" transform="translate(212.623 76.698)"/><line class="a" x1="25.385" transform="translate(212.623 82.116)"/><rect class="bc" width="25.385" height="2.843" transform="translate(212.623 80.691)"/><line class="a" x1="25.385" transform="translate(212.623 86.109)"/><rect class="bd" width="25.385" height="2.843" transform="translate(212.623 84.685)"/><line class="a" x1="25.385" transform="translate(212.623 90.103)"/><rect class="be" width="25.385" height="2.843" transform="translate(212.623 88.684)"/><line class="a" x1="25.385" transform="translate(212.623 94.102)"/><rect class="bf" width="25.385" height="2.843" transform="translate(212.623 92.678)"/><line class="a" x1="25.385" transform="translate(212.623 98.096)"/><rect class="bg" width="25.385" height="2.843" transform="translate(212.623 96.671)"/><line class="a" x1="25.385" transform="translate(212.623 102.089)"/><rect class="bh" width="25.385" height="2.843" transform="translate(212.623 100.671)"/><line class="a" x1="25.385" transform="translate(212.623 106.083)"/><rect class="bi" width="25.385" height="2.843" transform="translate(212.623 104.664)"/><line class="a" x1="25.385" transform="translate(212.623 110.082)"/><rect class="bj" width="25.385" height="2.843" transform="translate(212.623 108.658)"/><line class="a" x1="25.385" transform="translate(212.623 114.076)"/><rect class="bk" width="25.385" height="2.843" transform="translate(212.623 112.657)"/><line class="a" x1="25.385" transform="translate(212.623 118.069)"/><rect class="bl" width="25.385" height="2.843" transform="translate(212.623 116.651)"/><rect class="bm" width="26.913" height="87.071" transform="translate(40.898 38.011)"/><line class="a" x1="3.086" transform="translate(42.067 45.341)"/><rect class="bn" width="3.086" height="2.045" transform="translate(42.067 44.318)"/><line class="a" x1="3.086" transform="translate(42.067 48.214)"/><rect class="bo" width="3.086" height="2.045" transform="translate(42.067 47.191)"/><line class="a" x1="3.086" transform="translate(42.067 51.087)"/><rect class="bp" width="3.086" height="2.045" transform="translate(42.067 50.065)"/><line class="a" x2="3.086" transform="translate(42.067 53.961)"/><rect class="bq" width="3.086" height="2.045" transform="translate(42.067 52.938)"/><line class="a" x1="3.086" transform="translate(42.067 56.828)"/><rect class="br" width="3.086" height="2.045" transform="translate(42.067 55.811)"/><line class="a" x1="3.086" transform="translate(42.067 59.701)"/><rect class="bs" width="3.086" height="2.045" transform="translate(42.067 58.678)"/><line class="a" x1="3.086" transform="translate(42.067 62.575)"/><rect class="bt" width="3.086" height="2.045" transform="translate(42.067 61.552)"/><line class="a" x1="3.086" transform="translate(42.067 65.448)"/><rect class="bu" width="3.086" height="2.045" transform="translate(42.067 64.425)"/><line class="a" x1="3.086" transform="translate(42.067 68.321)"/><rect class="bv" width="3.086" height="2.045" transform="translate(42.067 67.299)"/><line class="a" x1="3.086" transform="translate(42.067 71.195)"/><rect class="bw" width="3.086" height="2.045" transform="translate(42.067 70.172)"/><line class="a" x1="3.086" transform="translate(42.067 74.062)"/><rect class="bx" width="3.086" height="2.045" transform="translate(42.067 73.045)"/><line class="a" x1="3.086" transform="translate(42.067 76.935)"/><rect class="by" width="3.086" height="2.045" transform="translate(42.067 75.913)"/><line class="a" x1="3.086" transform="translate(42.067 79.809)"/><rect class="bz" width="3.086" height="2.045" transform="translate(42.067 78.786)"/><line class="a" x1="3.086" transform="translate(42.067 82.682)"/><rect class="ca" width="3.086" height="2.045" transform="translate(42.067 81.659)"/><line class="a" x1="3.086" transform="translate(42.067 85.555)"/><rect class="cb" width="3.086" height="2.045" transform="translate(42.067 84.533)"/><line class="a" x1="3.086" transform="translate(42.067 88.429)"/><rect class="cc" width="3.086" height="2.045" transform="translate(42.067 87.406)"/><line class="a" x1="3.086" transform="translate(42.067 91.296)"/><rect class="cd" width="3.086" height="2.045" transform="translate(42.067 90.279)"/><line class="a" x1="3.086" transform="translate(42.067 94.169)"/><rect class="ce" width="3.086" height="2.045" transform="translate(42.067 93.147)"/><line class="a" x1="3.086" transform="translate(42.067 97.043)"/><rect class="cf" width="3.086" height="2.045" transform="translate(42.067 96.02)"/><line class="a" x1="3.086" transform="translate(42.067 99.916)"/><rect class="cg" width="3.086" height="2.045" transform="translate(42.067 98.893)"/><line class="a" x1="3.086" transform="translate(42.067 102.789)"/><rect class="ch" width="3.086" height="2.045" transform="translate(42.067 101.767)"/><line class="a" x1="3.086" transform="translate(42.067 105.663)"/><rect class="ci" width="3.086" height="2.045" transform="translate(42.067 104.64)"/><line class="a" x1="3.086" transform="translate(42.067 108.53)"/><rect class="cj" width="3.086" height="2.045" transform="translate(42.067 107.513)"/><line class="a" x1="3.086" transform="translate(42.067 111.403)"/><rect class="ck" width="3.086" height="2.045" transform="translate(42.067 110.381)"/><line class="a" x1="3.086" transform="translate(42.067 114.277)"/><rect class="cl" width="3.086" height="2.045" transform="translate(42.067 113.254)"/><line class="a" x1="3.086" transform="translate(42.067 117.15)"/><rect class="cm" width="3.086" height="2.045" transform="translate(42.067 116.127)"/><line class="a" x1="3.086" transform="translate(42.067 120.023)"/><rect class="cn" width="3.086" height="2.045" transform="translate(42.067 119.001)"/><line class="a" x1="3.086" transform="translate(42.067 122.897)"/><rect class="co" width="3.086" height="2.045" transform="translate(42.067 121.874)"/><rect class="cp" width="21.136" height="87.071" transform="translate(46.261 38.011)"/><line class="a" x1="18.251" transform="translate(48.855 45.341)"/><rect class="cq" width="18.251" height="2.045" transform="translate(48.855 44.318)"/><line class="a" x1="18.251" transform="translate(48.855 48.214)"/><rect class="cr" width="18.251" height="2.045" transform="translate(48.855 47.191)"/><line class="a" x1="18.251" transform="translate(48.855 51.087)"/><rect class="cs" width="18.251" height="2.045" transform="translate(48.855 50.065)"/><line class="a" x2="18.251" transform="translate(48.855 53.961)"/><rect class="ct" width="18.251" height="2.045" transform="translate(48.855 52.938)"/><line class="a" x1="18.251" transform="translate(48.855 56.828)"/><rect class="cu" width="18.251" height="2.045" transform="translate(48.855 55.811)"/><line class="a" x1="18.251" transform="translate(48.855 59.701)"/><rect class="cv" width="18.251" height="2.045" transform="translate(48.855 58.678)"/><line class="a" x1="18.251" transform="translate(48.855 62.575)"/><rect class="cw" width="18.251" height="2.045" transform="translate(48.855 61.552)"/><line class="a" x1="18.251" transform="translate(48.855 65.448)"/><rect class="cx" width="18.251" height="2.045" transform="translate(48.855 64.425)"/><line class="a" x1="18.251" transform="translate(48.855 68.321)"/><rect class="cy" width="18.251" height="2.045" transform="translate(48.855 67.299)"/><line class="a" x1="18.251" transform="translate(48.855 71.195)"/><rect class="cz" width="18.251" height="2.045" transform="translate(48.855 70.172)"/><line class="a" x1="18.251" transform="translate(48.855 74.062)"/><rect class="da" width="18.251" height="2.045" transform="translate(48.855 73.045)"/><line class="a" x1="18.251" transform="translate(48.855 76.935)"/><rect class="db" width="18.251" height="2.045" transform="translate(48.855 75.913)"/><line class="a" x1="18.251" transform="translate(48.855 79.809)"/><rect class="dc" width="18.251" height="2.045" transform="translate(48.855 78.786)"/><line class="a" x1="18.251" transform="translate(48.855 82.682)"/><rect class="dd" width="18.251" height="2.045" transform="translate(48.855 81.659)"/><line class="a" x1="18.251" transform="translate(48.855 85.555)"/><rect class="de" width="18.251" height="2.045" transform="translate(48.855 84.533)"/><line class="a" x1="18.251" transform="translate(48.855 88.429)"/><rect class="df" width="18.251" height="2.045" transform="translate(48.855 87.406)"/><line class="a" x1="18.251" transform="translate(48.855 91.296)"/><rect class="dg" width="18.251" height="2.045" transform="translate(48.855 90.279)"/><line class="a" x1="18.251" transform="translate(48.855 94.169)"/><rect class="dh" width="18.251" height="2.045" transform="translate(48.855 93.147)"/><line class="a" x1="18.251" transform="translate(48.855 97.043)"/><rect class="di" width="18.251" height="2.045" transform="translate(48.855 96.02)"/><line class="a" x1="18.251" transform="translate(48.855 99.916)"/><rect class="dj" width="18.251" height="2.045" transform="translate(48.855 98.893)"/><line class="a" x1="18.251" transform="translate(48.855 102.789)"/><rect class="dk" width="18.251" height="2.045" transform="translate(48.855 101.767)"/><line class="a" x1="18.251" transform="translate(48.855 105.663)"/><rect class="dl" width="18.251" height="2.045" transform="translate(48.855 104.64)"/><line class="a" x1="18.251" transform="translate(48.855 108.53)"/><rect class="dm" width="18.251" height="2.045" transform="translate(48.855 107.513)"/><line class="a" x1="18.251" transform="translate(48.855 111.403)"/><rect class="dn" width="18.251" height="2.045" transform="translate(48.855 110.381)"/><line class="a" x1="18.251" transform="translate(48.855 114.277)"/><rect class="do" width="18.251" height="2.045" transform="translate(48.855 113.254)"/><line class="a" x1="18.251" transform="translate(48.855 117.15)"/><rect class="dp" width="18.251" height="2.045" transform="translate(48.855 116.127)"/><line class="a" x1="18.251" transform="translate(48.855 120.023)"/><rect class="dq" width="18.251" height="2.045" transform="translate(48.855 119.001)"/><line class="a" x1="18.251" transform="translate(48.855 122.897)"/><rect class="dr" width="18.251" height="2.045" transform="translate(48.855 121.874)"/><rect class="a" width="4.109" height="82.408" transform="translate(81.667 41.974)"/><rect class="ds" width="4.109" height="82.408" transform="translate(81.664 41.974)"/><rect class="dt" width="16.321" height="0.974" transform="translate(67.397 48.135)"/><g transform="translate(82.671 49.078)"><rect class="du" width="3.75" height="6.776" transform="translate(0 7.597)"/><rect class="dv" width="3.75" height="6.776" transform="translate(0 15.383)"/><rect class="dw" width="3.75" height="6.776" transform="translate(0 23.163)"/><rect class="dx" width="3.75" height="6.776" transform="translate(0 30.949)"/><rect class="dy" width="3.75" height="6.776" transform="translate(0 38.729)"/><rect class="dz" width="3.75" height="6.776" transform="translate(0 46.515)"/><rect class="ea" width="3.75" height="6.757" transform="translate(0 54.295)"/><rect class="eb" width="3.829" height="6.587" transform="translate(0.006)"/></g><path class="ec" d="M454.281,240.962H429.2V168.33h5.028l-.1-4.767,20.211-4.974-.055,9.74Z" transform="translate(-372.614 -116.579)"/><path class="ed" d="M466.878,251.45h-4.316c.341,23.924-5.3,47.356-5.3,47.356l.11-47.356V232.11h9.509Z" transform="translate(-400.43 -180.262)"/><rect class="a" width="18.348" height="6.776" transform="translate(68.158 48.896)"/><rect class="a" width="18.269" height="6.776" transform="translate(68.152 56.676)"/><rect class="a" width="18.269" height="6.776" transform="translate(68.152 64.462)"/><rect class="a" width="18.269" height="6.776" transform="translate(68.152 72.242)"/><rect class="a" width="18.269" height="6.776" transform="translate(68.152 80.028)"/><rect class="a" width="18.269" height="6.776" transform="translate(68.152 87.808)"/><rect class="a" width="18.269" height="6.776" transform="translate(68.152 95.594)"/><rect class="a" width="18.269" height="6.776" transform="translate(68.152 103.374)"/><rect class="ee" width="18.348" height="6.776" transform="translate(68.073 48.896)"/><rect class="ef" width="18.269" height="6.776" transform="translate(68.113 56.676)"/><rect class="eg" width="18.269" height="6.776" transform="translate(68.113 64.462)"/><rect class="eh" width="18.269" height="6.776" transform="translate(68.113 72.242)"/><rect class="ei" width="18.269" height="6.776" transform="translate(68.113 80.028)"/><rect class="ej" width="18.269" height="6.776" transform="translate(68.113 87.808)"/><rect class="ek" width="18.269" height="6.776" transform="translate(68.113 95.594)"/><rect class="el" width="18.269" height="6.776" transform="translate(68.113 103.374)"/><rect class="a" width="0.755" height="62.264" transform="translate(73.777 48.707)"/><rect class="em" width="3.403" height="1.132" transform="translate(62.862 72.674)"/><rect class="en" width="3.403" height="1.132" transform="translate(62.862 74.677)"/><rect class="eo" width="3.403" height="1.132" transform="translate(62.862 76.673)"/><rect class="ep" width="3.403" height="1.132" transform="translate(62.862 78.676)"/><rect class="eq" width="3.403" height="1.132" transform="translate(62.862 80.673)"/><rect class="er" width="3.403" height="1.132" transform="translate(62.862 82.676)"/><rect class="es" width="3.403" height="1.132" transform="translate(62.862 84.679)"/><rect class="et" width="3.403" height="1.132" transform="translate(62.862 86.682)"/><rect class="eu" width="1.729" height="1.729" transform="translate(58.808 53.541)"/><rect class="ev" width="1.729" height="1.729" transform="translate(62.241 53.541)"/><rect class="ew" width="1.729" height="1.729" transform="translate(58.808 56.31)"/><rect class="ex" width="1.729" height="1.729" transform="translate(62.241 56.31)"/><rect class="ey" width="1.729" height="1.729" transform="translate(58.808 59.092)"/><rect class="ez" width="1.729" height="1.729" transform="translate(62.241 59.092)"/><rect class="fa" width="1.729" height="1.729" transform="translate(58.808 61.868)"/><rect class="fb" width="1.729" height="1.729" transform="translate(62.241 61.868)"/><rect class="fc" width="1.729" height="1.729" transform="translate(58.808 64.638)"/><rect class="fd" width="1.729" height="1.729" transform="translate(62.241 64.638)"/><rect class="fe" width="1.729" height="1.729" transform="translate(58.808 67.414)"/><rect class="ff" width="1.729" height="1.729" transform="translate(62.241 67.414)"/><rect class="a" width="19.115" height="1.023" transform="translate(68.006 48.086)"/><rect class="fg" width="18.342" height="1.023" transform="translate(68.152 49.115)"/><rect class="fh" width="18.275" height="1.023" transform="translate(68.152 56.682)"/><rect class="fi" width="18.275" height="1.023" transform="translate(68.152 64.462)"/><rect class="fj" width="18.275" height="1.023" transform="translate(68.152 72.248)"/><rect class="fk" width="18.275" height="1.023" transform="translate(68.152 80.028)"/><rect class="fk" width="18.275" height="1.023" transform="translate(68.152 87.814)"/><rect class="fk" width="18.275" height="1.023" transform="translate(68.152 95.594)"/><rect class="fk" width="18.275" height="1.023" transform="translate(68.152 103.38)"/><rect class="e" width="42.662" height="52.621" transform="translate(165.335 68.224)"/><rect class="fl" width="39.387" height="1.443" transform="translate(165.39 74.451)"/><rect class="fl" width="39.387" height="1.443" transform="translate(165.39 79.516)"/><rect class="fm" width="39.387" height="1.443" transform="translate(165.39 84.575)"/><rect class="fm" width="39.387" height="1.443" transform="translate(165.39 89.634)"/><rect class="fm" width="39.387" height="1.443" transform="translate(165.39 94.693)"/><rect class="fm" width="39.387" height="1.443" transform="translate(165.39 99.752)"/><rect class="fm" width="39.387" height="1.443" transform="translate(165.39 104.81)"/><rect class="fn" width="35.612" height="52.621" transform="translate(172.384 68.224)"/><rect class="fo" width="65.783" height="31.808" transform="translate(99.071 89.037)"/><rect class="a" width="26.852" height="60.925" transform="translate(247.079 59.646)"/><rect class="fp" width="26.852" height="60.925" transform="translate(247.177 60.188)"/><rect class="a" width="9.101" height="60.925" transform="translate(237.978 59.64)"/><rect class="fq" width="9.101" height="60.925" transform="translate(237.978 60.188)"/><rect class="a" width="28.143" height="3.793" transform="translate(246.531 55.848)"/><rect class="fr" width="28.143" height="3.793" transform="translate(247.176 55.848)"/><rect class="a" width="9.959" height="3.793" transform="translate(237.12 55.848)"/><rect class="fs" width="9.959" height="3.793" transform="translate(237.12 55.848)"/><rect class="a" width="35.966" height="0.493" transform="translate(237.984 63.122)"/><rect class="a" width="9.101" height="0.493" transform="translate(237.978 63.122)"/><rect class="a" width="35.966" height="0.493" transform="translate(237.984 68.851)"/><rect class="a" width="9.101" height="0.493" transform="translate(237.978 68.851)"/><rect class="a" width="35.966" height="0.493" transform="translate(237.984 74.573)"/><rect class="a" width="9.101" height="0.493" transform="translate(237.978 74.573)"/><rect class="a" width="35.966" height="0.493" transform="translate(237.984 80.302)"/><rect class="a" width="9.101" height="0.493" transform="translate(237.978 80.302)"/><rect class="a" width="35.966" height="0.493" transform="translate(237.984 86.024)"/><rect class="a" width="9.101" height="0.493" transform="translate(237.978 86.024)"/><rect class="ft" width="35.966" height="0.493" transform="translate(237.984 91.746)"/><rect class="ft" width="9.101" height="0.493" transform="translate(237.978 91.746)"/><rect class="a" width="35.966" height="0.493" transform="translate(237.984 97.475)"/><rect class="a" width="9.101" height="0.493" transform="translate(237.978 97.475)"/><rect class="a" width="35.966" height="0.493" transform="translate(237.984 103.197)"/><rect class="a" width="9.101" height="0.493" transform="translate(237.978 103.197)"/><rect class="a" width="35.966" height="0.493" transform="translate(237.984 108.92)"/><rect class="a" width="9.101" height="0.493" transform="translate(237.978 108.92)"/><rect class="a" width="35.966" height="0.493" transform="translate(237.984 114.648)"/><rect class="a" width="9.101" height="0.493" transform="translate(237.978 114.648)"/><rect class="a" width="35.966" height="0.493" transform="translate(237.984 91.746)"/><rect class="a" width="9.101" height="0.493" transform="translate(237.978 91.746)"/><rect class="a" width="26.852" height="52.506" transform="translate(119.465 47.836)"/><rect class="fu" width="26.852" height="51.343" transform="translate(119.465 48.634)"/><rect class="a" width="9.101" height="60.925" transform="translate(110.364 47.836)"/><rect class="fv" width="9.101" height="60.925" transform="translate(110.363 48.634)"/><rect class="a" width="28.143" height="3.793" transform="translate(118.917 44.044)"/><rect class="fw" width="28.143" height="3.793" transform="translate(118.917 44.044)"/><rect class="a" width="9.959" height="3.793" transform="translate(109.505 44.044)"/><rect class="fx" width="9.959" height="3.793" transform="translate(109.505 44.044)"/><rect class="a" width="35.966" height="0.493" transform="translate(110.37 51.319)"/><rect class="a" width="9.101" height="0.493" transform="translate(110.364 51.319)"/><rect class="a" width="35.966" height="0.493" transform="translate(110.37 57.047)"/><rect class="a" width="9.101" height="0.493" transform="translate(110.364 57.047)"/><rect class="a" width="35.966" height="0.493" transform="translate(110.37 62.769)"/><rect class="a" width="9.101" height="0.493" transform="translate(110.364 62.769)"/><rect class="a" width="35.966" height="0.493" transform="translate(110.37 68.492)"/><rect class="a" width="9.101" height="0.493" transform="translate(110.364 68.492)"/><rect class="a" width="35.966" height="0.493" transform="translate(110.37 74.22)"/><rect class="a" width="9.101" height="0.493" transform="translate(110.364 74.22)"/><rect class="ft" width="9.101" height="0.493" transform="translate(110.364 79.943)"/><rect class="a" width="35.966" height="0.493" transform="translate(110.37 85.665)"/><rect class="a" width="9.101" height="0.493" transform="translate(110.364 85.665)"/><rect class="a" width="35.966" height="0.493" transform="translate(110.37 91.393)"/><rect class="a" width="9.101" height="0.493" transform="translate(110.364 91.393)"/><rect class="a" width="35.966" height="0.493" transform="translate(110.37 97.116)"/><rect class="a" width="9.101" height="0.493" transform="translate(110.364 97.116)"/><rect class="ft" width="9.101" height="0.493" transform="translate(110.364 102.844)"/><rect class="a" width="35.966" height="0.493" transform="translate(110.352 79.943)"/><rect class="a" width="9.101" height="0.493" transform="translate(110.364 79.943)"/><rect class="fy" width="27.826" transform="translate(124.073 100.342)"/><rect class="fz" width="46.661" height="4.876" transform="translate(163.716 65.332)"/></g><g transform="translate(86.451 76.047)"><ellipse class="ga" cx="76.378" cy="2.725" rx="76.378" ry="2.725" transform="translate(0 57.787)"/><rect class="gb" width="108.24" height="59.182" rx="5" transform="translate(22.258 0)"/><path class="ga" d="M291.24,287.01v1.5H183v-1.5a2.65,2.65,0,0,1,2.65-2.65H288.59A2.65,2.65,0,0,1,291.24,287.01Z" transform="translate(-160.742 -284.36)"/><circle class="a" cx="0.779" cy="0.779" r="0.779" transform="translate(24.27 1.363)"/><circle class="a" cx="0.779" cy="0.779" r="0.779" transform="translate(26.216 1.363)"/><circle class="a" cx="0.779" cy="0.779" r="0.779" transform="translate(28.163 1.363)"/><path class="gc" d="M347.5,503.86" transform="translate(-303.892 -475.372)"/><path class="gc" d="M333.5,502.86" transform="translate(-291.709 -474.502)"/><rect class="a" width="12.459" height="10.123" rx="5.062" transform="translate(38.741 11.032)"/><rect class="gd" width="12.459" height="10.123" rx="5.062" transform="translate(53.263 10.977)"/><rect class="a" width="12.459" height="10.123" rx="5.062" transform="translate(67.812 11.032)"/><rect class="a" width="12.459" height="10.123" rx="5.062" transform="translate(82.348 11.032)"/><rect class="gd" width="12.459" height="10.123" rx="5.062" transform="translate(96.841 10.977)"/><rect class="a" width="12.459" height="10.123" rx="5.062" transform="translate(38.741 28.033)"/><rect class="a" width="12.459" height="10.123" rx="5.062" transform="translate(53.277 28.033)"/><path class="gd" d="M2.286,0h7.887a2.286,2.286,0,0,1,2.286,2.286V7.837a2.286,2.286,0,0,1-2.286,2.286H2.286A2.286,2.286,0,0,1,0,7.837V2.286A2.286,2.286,0,0,1,2.286,0Z" transform="translate(67.789 28.007)"/><rect class="a" width="12.459" height="10.123" rx="5.062" transform="translate(82.348 28.033)"/><rect class="a" width="12.459" height="10.123" rx="5.062" transform="translate(96.884 28.033)"/><rect class="a" width="12.459" height="10.123" rx="5.062" transform="translate(38.741 45.035)"/><rect class="a" width="12.459" height="10.123" rx="5.062" transform="translate(53.277 45.035)"/><rect class="a" width="12.459" height="10.123" rx="5.062" transform="translate(67.812 45.035)"/><rect class="ge" width="12.459" height="10.123" rx="5.062" transform="translate(82.315 45.038)"/><rect class="a" width="12.459" height="10.123" rx="5.062" transform="translate(96.884 45.035)"/><path class="gf" d="M1000.969,641.2a2.148,2.148,0,0,1,.557-2.23,3.6,3.6,0,0,0,1.1-2.114c-.019-1.168-1.259-1.859-2.249-2.478a10.9,10.9,0,0,1-2.019-1.624,2.961,2.961,0,0,1-.62-.831,3.368,3.368,0,0,1-.187-1.476q.066-2.5.248-5" transform="translate(-869.575 -581.182)"/><path class="gg" d="M984.988,613.1a1.817,1.817,0,0,1,.909-1.492l.408.807-.013-.977a1.845,1.845,0,0,1,.6-.073,1.817,1.817,0,1,1-1.9,1.735Z" transform="translate(-858.643 -568.926)"/><path class="gg" d="M1008.642,701.97a1.817,1.817,0,1,0-.088-1.466l1.138.925-1.253-.289A1.817,1.817,0,0,0,1008.642,701.97Z" transform="translate(-879.053 -645.465)"/><path class="gg" d="M1005.35,668.109a1.817,1.817,0,0,0,.571-3.568l.01.75-.413-.816h0a1.817,1.817,0,0,0-1.9,1.734,1.8,1.8,0,0,0,.078.622A1.817,1.817,0,0,0,1005.35,668.109Z" transform="translate(-874.852 -615.14)"/><path class="gg" d="M971.238,645.462a1.817,1.817,0,1,0-.806-3.409l.322.882-.662-.636a1.817,1.817,0,0,0-.588,1.258,1.784,1.784,0,0,0,.045.5A1.817,1.817,0,0,0,971.238,645.462Z" transform="translate(-845.168 -595.435)"/><path class="gh" d="M985.5,620.275c.42.045.829.176,1.251.2a1.36,1.36,0,0,0,1.153-.4,5.63,5.63,0,0,0,.336-.593,1.3,1.3,0,0,1,.459-.432,1.817,1.817,0,1,1-3.406,1.21Q985.394,620.263,985.5,620.275Z" transform="translate(-858.907 -575.612)"/><path class="gh" d="M971.584,652.416a1.817,1.817,0,0,0,1.733-2.6,1.346,1.346,0,0,0-.366.366,5.947,5.947,0,0,1-.361.6,1.492,1.492,0,0,1-1.208.423c-.44-.02-.864-.145-1.3-.186-.061,0-.122-.009-.184-.01A1.817,1.817,0,0,0,971.584,652.416Z" transform="translate(-845.514 -602.389)"/><path class="gh" d="M1005.9,675.295a1.817,1.817,0,0,0,1.747-2.565,1.49,1.49,0,0,0-.389.37c-.141.2-.23.43-.389.614a1.687,1.687,0,0,1-1.289.453c-.465-.01-.886-.121-1.334-.156A1.817,1.817,0,0,0,1005.9,675.295Z" transform="translate(-875.406 -622.326)"/><path class="gh" d="M1010,709.776a1.819,1.819,0,1,0,3.321-1.486,1.763,1.763,0,0,0-.4.357,7.9,7.9,0,0,1-.488.649,2.268,2.268,0,0,1-1.509.531A7.764,7.764,0,0,1,1010,709.776Z" transform="translate(-880.41 -653.27)"/><path class="gi" d="M1009.2,735.222a5.268,5.268,0,0,1-1.871-.353c-.434-.309-2.206-.676-2.318-.182s-2.161,2.466-.539,2.474a14.038,14.038,0,0,0,4.2-.519C1009.106,736.382,1009.2,735.222,1009.2,735.222Z" transform="translate(-875.054 -676.031)"/><path class="gj" d="M1004.475,742.172a13.642,13.642,0,0,0,4.2-.519c.33-.2.461-.92.5-1.253h.048s-.091,1.16-.519,1.428a13.675,13.675,0,0,1-4.205.519c-.469,0-.63-.17-.62-.417C1003.948,742.075,1004.126,742.165,1004.475,742.172Z" transform="translate(-875.091 -681.213)"/><path class="gf" d="M162.023,586.2c-.57-1.054.077-2.346.819-3.287s1.648-1.918,1.63-3.115c-.029-1.722-1.856-2.738-3.317-3.652a16.179,16.179,0,0,1-2.977-2.393,4.386,4.386,0,0,1-.908-1.225,4.965,4.965,0,0,1-.274-2.178q.093-3.686.363-7.365" transform="translate(-138.105 -526.819)"/><path class="gg" d="M138.39,544.722a2.684,2.684,0,0,1,1.341-2.206l.6,1.19-.018-1.441a2.687,2.687,0,1,1-1.925,2.452Z" transform="translate(-121.919 -508.697)"/><path class="gg" d="M173.3,675.758a2.685,2.685,0,1,0-.13-2.162l1.677,1.364L173,674.533A2.675,2.675,0,0,0,173.3,675.758Z" transform="translate(-152.04 -621.555)"/><path class="gg" d="M168.366,625.816a2.686,2.686,0,0,0,.851-5.269l.014,1.106-.609-1.2h-.006a2.686,2.686,0,1,0-.25,5.367Z" transform="translate(-145.778 -576.828)"/><path class="gg" d="M118.1,592.378a2.688,2.688,0,0,0,2.809-2.558,2.653,2.653,0,0,0-.26-1.273,2.683,2.683,0,0,0-3.742-1.2l.474,1.3-.976-.937a2.687,2.687,0,0,0,1.687,4.663Z" transform="translate(-102.031 -547.728)"/><path class="gh" d="M139.155,555.335c.619.069,1.223.26,1.844.3a2,2,0,0,0,1.7-.594,8.351,8.351,0,0,0,.5-.873,1.916,1.916,0,0,1,.676-.637,2.687,2.687,0,1,1-5.021,1.783C138.951,555.317,139.054,555.325,139.155,555.335Z" transform="translate(-122.322 -518.596)"/><path class="gh" d="M118.574,602.7a2.688,2.688,0,0,0,2.809-2.558,2.653,2.653,0,0,0-.26-1.273,2,2,0,0,0-.54.54,8.593,8.593,0,0,1-.532.888,2.206,2.206,0,0,1-1.781.623c-.648-.026-1.274-.213-1.92-.273-.09-.008-.18-.014-.271-.017A2.685,2.685,0,0,0,118.574,602.7Z" transform="translate(-102.507 -558.051)"/><path class="gh" d="M169.163,636.462a2.685,2.685,0,0,0,2.576-3.782,2.166,2.166,0,0,0-.567.547,9.49,9.49,0,0,1-.584.908,2.487,2.487,0,0,1-1.9.667c-.665-.016-1.306-.178-1.966-.229A2.688,2.688,0,0,0,169.163,636.462Z" transform="translate(-146.575 -587.473)"/><path class="gh" d="M175.32,687.3a2.687,2.687,0,0,0,4.9-2.192,2.716,2.716,0,0,0-.591.519,11.49,11.49,0,0,1-.719.955,3.351,3.351,0,0,1-2.225.779A11.546,11.546,0,0,1,175.32,687.3Z" transform="translate(-154.059 -633.099)"/><path class="gi" d="M174.11,724.838a7.784,7.784,0,0,1-2.759-.519c-.64-.454-3.26-1-3.419-.269s-3.186,3.634-.793,3.648,5.561-.372,6.2-.762S174.11,724.838,174.11,724.838Z" transform="translate(-146.142 -666.675)"/><path class="gj" d="M167.14,735.1c2.393.019,5.561-.372,6.2-.761.485-.3.68-1.358.744-1.847h.071s-.13,1.709-.772,2.1-3.805.779-6.2.762c-.69,0-.929-.252-.916-.615C166.361,734.956,166.621,735.093,167.14,735.1Z" transform="translate(-146.18 -674.33)"/><g transform="translate(107.331 11.58)"><path class="gk" d="M854.792,221.344a2.1,2.1,0,0,0,2.333-.151l-.01,1.445a37.571,37.571,0,0,0,1.3,4.6l.864,2.971a23.253,23.253,0,0,1,.95,6.463,6.188,6.188,0,0,0,.276,2.035,5.01,5.01,0,0,1-.459,3.443,14.457,14.457,0,0,1-1.426.4.978.978,0,0,0-.128.039l-.006-.008a5.891,5.891,0,0,1-1.873.444.505.505,0,0,0-.362.877,2.634,2.634,0,0,1-.863.114c-.576-.071-.865.92.217,1.2s7.209,0,7.209,0a.869.869,0,0,0,.461-.96c.471-.018.765-.032.765-.032s1.082-.494,0-1.841l-.058.044-.231-.681v-.919s1.37-6.584.938-7.363-.649-4.743-.649-4.743l.146-4.318a10.216,10.216,0,0,0,.692-3.059,6.5,6.5,0,0,0,.276-1.451c.017-.232.031-.476.04-.728a4.884,4.884,0,0,0-.268-1.629,16.149,16.149,0,0,1,1.633-2.05,2.1,2.1,0,0,0,.649-1.841l-.36-2.407-.865-4.106a3.142,3.142,0,0,0-.392-2.165c.063-.368.121-.736.165-1.105a14.146,14.146,0,0,0-.253-4.813,3.258,3.258,0,0,0-.682-1.533c-.437-.472-1.146-.76-1.309-1.379a4.014,4.014,0,0,0-.1-.466c-.158-.4-.658-.552-1.1-.6a5.977,5.977,0,0,0-2.658.14,3.225,3.225,0,0,0-1.531,1.435,1.08,1.08,0,0,0-.047,1.185,2.72,2.72,0,0,0-.168.946,2.762,2.762,0,0,0,1.763,2.562c.017.054.033.108.046.161a2.743,2.743,0,0,1,.071.386c-.014.247-.03.5-.041.752-.008.035-.017.069-.026.1a18.564,18.564,0,0,0-1.811.923c.433.637-.072,3.328-.072,3.328a2.741,2.741,0,0,0-1.009,3.965,4.238,4.238,0,0,1,.5,3.539l-.18,2.768h0v0l-.036.554h.014l-.014.21.031.006v.226a3.362,3.362,0,0,0-1.687,1.255,4.427,4.427,0,0,1-.755.926.556.556,0,0,0,.087.9Zm8.7-7.355a2.635,2.635,0,0,1,.256-1.393q.254,0,.51.006c.017.119.038.233.063.337.146.624-.439.923-.829,1.049Z" transform="translate(-854.513 -194.987)"/><path class="gl" d="M901.152,753.1l.277.832-.905.905-2.983.694-2.151-.208.139-.763h0a.92.92,0,0,1,.683-.672c.884-.207,2.57-.682,2.923-1.339Z" transform="translate(-892.026 -706.66)"/><path class="gm" d="M878.242,768.227l.417-.555-.417-.643a5.6,5.6,0,0,1-1.8.435c-.555-.069-.832.905.208,1.179a57.813,57.813,0,0,0,6.937,0s1.04-.486,0-1.8l-.905.694a5.213,5.213,0,0,1-2.289.694Z" transform="translate(-874.18 -719.774)"/><path class="gl" d="M881.1,767.037l2.151.208,2.983-.694.905-.905-.073-.221-.1-.309-.1-.3-2.012-.555a1.247,1.247,0,0,1-.412.412,8.615,8.615,0,0,1-2.516.931.693.693,0,0,0-.082.026.917.917,0,0,0-.6.647Z" transform="translate(-878.912 -717.406)"/><path class="gh" d="M881.1,780.031l2.151.208,2.983-.694.905-.905-.073-.221-.828.637a5.213,5.213,0,0,1-2.289.694h-2.155l.417-.555-.374-.576a.917.917,0,0,0-.6.647Z" transform="translate(-878.912 -730.401)"/><path class="gm" d="M863.912,780.027l.416-.555-.416-.643a5.6,5.6,0,0,1-1.8.435c-.555-.069-.832.905.208,1.179a57.825,57.825,0,0,0,6.937,0s1.04-.486,0-1.8l-.905.694a5.212,5.212,0,0,1-2.289.694Z" transform="translate(-861.03 -730.603)"/><path class="gn" d="M910.6,265.676s3.33.346,2.844-1.04a2.5,2.5,0,0,1-.1-1.225A3.4,3.4,0,0,1,913.93,262l-3.122.486a3.9,3.9,0,0,1,.423,1A2.041,2.041,0,0,1,910.6,265.676Z" transform="translate(-905.984 -256.485)"/><path class="go" d="M934.807,498.82a14.537,14.537,0,0,1-.763,4.44l-.139,4.231s.208,3.885.625,4.648-.905,7.214-.905,7.214v1.11s-2.222.832-2.844-.139l.625-8.255-.277-11.445Z" transform="translate(-924.503 -473.813)"/><path class="gh" d="M934.807,498.82a14.537,14.537,0,0,1-.763,4.44l-.139,4.231s.208,3.885.625,4.648-.905,7.214-.905,7.214v1.11s-2.222.832-2.844-.139l.625-8.255-.277-11.445Z" transform="translate(-924.503 -473.813)"/><path class="gp" d="M961.771,382.51l.416,1.11.346,2.359a2.087,2.087,0,0,1-.625,1.8,19.869,19.869,0,0,0-1.942,2.566L958.65,386.4s1.317-.208,1.11-1.11a13.1,13.1,0,0,1-.14-2.573Z" transform="translate(-950.079 -367.076)"/><path class="gq" d="M961.771,382.51l.416,1.11.346,2.359a2.087,2.087,0,0,1-.625,1.8,19.869,19.869,0,0,0-1.942,2.566L958.65,386.4s1.317-.208,1.11-1.11a13.1,13.1,0,0,1-.14-2.573Z" transform="translate(-950.079 -367.076)"/><path class="gh" d="M921.66,764.672a1.729,1.729,0,0,0,2.52.448l-.1-.306-2.012-.555a1.246,1.246,0,0,1-.408.412Z" transform="translate(-916.133 -717.406)"/><path class="go" d="M887.85,445.8a37.03,37.03,0,0,0,1.249,4.509l.832,2.911a23.161,23.161,0,0,1,.914,6.333,6.15,6.15,0,0,0,.266,1.993c.555,1.526-.555,3.607-.555,3.607a1.75,1.75,0,0,0,2.634.555V464.6s1.317-6.035.971-7.214a28.967,28.967,0,0,1-.485-4.37v-5.761a6.533,6.533,0,0,0,1.9-4.142c.017-.227.03-.466.039-.714a8.236,8.236,0,0,0-1.432-4.054c-.1-.158-.165-.247-.165-.247l-6.125,2.43-.014.006v.761Z" transform="translate(-885.106 -418.091)"/><path class="gh" d="M913.13,262.485a3.907,3.907,0,0,1,.423,1,2.716,2.716,0,0,0,2.11-.077,3.4,3.4,0,0,1,.589-1.41Z" transform="translate(-908.306 -256.485)"/><circle class="gl" cx="2.705" cy="2.705" r="2.705" transform="translate(3.507 1.629)"/><path class="gh" d="M887.85,441.331l.03.006c2.909.6,6.56-2.434,6.56-2.434a3.6,3.6,0,0,1-.253-.516c-.1-.158-.165-.247-.165-.247l-6.125,2.43-.016.243Z" transform="translate(-885.106 -418.128)"/><path class="gr" d="M880.206,287.722s3.885-2.359,5.133-1.388l1.734,2.222s1.11.346.905,2.566l.829,4.022-2.5.625a2.731,2.731,0,0,0-.277,3.4s-3.677,3.052-6.59,2.428l.208-3.26a4.222,4.222,0,0,0-.486-3.468,2.711,2.711,0,0,1,.971-3.885S880.622,288.347,880.206,287.722Z" transform="translate(-876.7 -278.601)"/><path class="gl" d="M860.5,477.75a3.581,3.581,0,0,0-2.151,1.388,4.324,4.324,0,0,1-.726.905.551.551,0,0,0,.082.877,2.108,2.108,0,0,0,2.583-.4C862.236,478.929,860.5,477.75,860.5,477.75Z" transform="translate(-857.203 -454.477)"/><path class="gh" d="M894.465,321.249s1.388-.139,1.734,3.468.905,4.439.905,4.439a4.438,4.438,0,0,1-.486,2.983c-.832,1.109-2.428,3.468-2.428,3.468a1.606,1.606,0,0,1-2.081-1.249l2.151-4.023a2.89,2.89,0,0,0-.486-2.359C892.943,327.007,892.314,320.556,894.465,321.249Z" transform="translate(-889.016 -310.81)"/><path class="gr" d="M892.745,318.719s1.388-.139,1.734,3.468.905,4.439.905,4.439a4.439,4.439,0,0,1-.486,2.983c-.832,1.109-2.428,3.468-2.428,3.468a1.606,1.606,0,0,1-2.081-1.249l2.151-4.023a2.89,2.89,0,0,0-.486-2.359C891.223,324.477,890.6,318.026,892.745,318.719Z" transform="translate(-887.437 -308.488)"/><path class="gh" d="M904.974,350.9a7.9,7.9,0,0,0,.484,3.33,3.566,3.566,0,0,1,0,3.539" transform="translate(-900.809 -338.068)"/><path class="gh" d="M900.91,305.729a3.35,3.35,0,0,1,2.151-.625,4.6,4.6,0,0,0,2.289-.555" transform="translate(-897.091 -295.532)"/><path class="gh" d="M901.613,204.29c.421.052.905.2,1.055.593a4.085,4.085,0,0,1,.1.457c.157.606.84.888,1.26,1.351a3.273,3.273,0,0,1,.658,1.5,14.109,14.109,0,0,1,.247,4.713c-.135,1.152-.412,2.283-.489,3.439a5.449,5.449,0,0,0,.7,3.342,8.343,8.343,0,0,1,.823,1.244,2.4,2.4,0,0,1-1.459.386q-.895.03-1.79,0a1.91,1.91,0,0,1-.91-.189,1.4,1.4,0,0,1-.477-.513,3.645,3.645,0,0,1-.412-1.947c.016-.672.121-1.34.133-2.012a1.761,1.761,0,0,0-.233-1.055,3.442,3.442,0,0,0-.581-.537,3.686,3.686,0,0,1-1.022-2.705c-.025-.992.139-1.985.055-2.974-.033-.387-.178-.852-.558-.927a1.96,1.96,0,0,1-.362-.046c-.305-.118-.276-.548-.363-.863-.1-.354-.4-.627-.485-.988-.2-.84.868-1.841,1.569-2.133A5.616,5.616,0,0,1,901.613,204.29Z" transform="translate(-893.936 -203.451)"/><path class="go" d="M902.453,202.6c.421.052.905.2,1.055.593a4.084,4.084,0,0,1,.1.457c.157.606.839.888,1.26,1.351a3.274,3.274,0,0,1,.658,1.5,14.109,14.109,0,0,1,.247,4.713c-.135,1.152-.411,2.283-.489,3.439a5.449,5.449,0,0,0,.7,3.342,8.334,8.334,0,0,1,.823,1.244,2.4,2.4,0,0,1-1.459.386q-.895.03-1.79,0a1.909,1.909,0,0,1-.909-.189,1.4,1.4,0,0,1-.477-.513,3.646,3.646,0,0,1-.411-1.947c.016-.672.121-1.34.133-2.012a1.761,1.761,0,0,0-.233-1.055,3.435,3.435,0,0,0-.581-.537,3.687,3.687,0,0,1-1.022-2.705c-.025-.992.139-1.985.055-2.974-.033-.387-.178-.852-.558-.927a1.965,1.965,0,0,1-.362-.046c-.305-.118-.276-.548-.363-.863-.1-.354-.4-.627-.485-.988-.2-.84.868-1.841,1.569-2.133A5.593,5.593,0,0,1,902.453,202.6Z" transform="translate(-894.633 -201.694)"/></g><path class="gs" d="M219.562,509.151l1.463,1.44a.364.364,0,0,1-.256.624h-.062a.368.368,0,0,1-.258-.106l-1.424-1.425a.365.365,0,0,0-.515,0l-1.424,1.425a.363.363,0,0,1-.257.106h-.063a.364.364,0,0,1-.256-.624l1.464-1.44a.362.362,0,0,0,0-.512h0l-1.478-1.478a.364.364,0,0,1,.257-.621h0a.362.362,0,0,1,.255.1l1.5,1.478a.364.364,0,0,0,.511,0l1.5-1.478a.362.362,0,0,1,.255-.1h0a.364.364,0,0,1,.258.621l-1.478,1.478a.362.362,0,0,0,.007.512h0Z" transform="translate(-130.234 -458.83)"/><path class="gg" d="M364.9,431.677l1.351,2.1a.421.421,0,0,0,.58.126.459.459,0,0,0,.09-.079l3.722-4.29a.418.418,0,0,0-.315-.693H370.3a.419.419,0,0,0-.322.15l-2.912,3.486a.418.418,0,0,1-.587.055.426.426,0,0,1-.083-.094l-.792-1.207a.42.42,0,0,0-.413-.184h0a.417.417,0,0,0-.288.625Z" transform="translate(-293.713 -398.328)"/><path class="gg" d="M364.9,431.677l1.351,2.1a.421.421,0,0,0,.58.126.459.459,0,0,0,.09-.079l3.722-4.29a.418.418,0,0,0-.315-.693H370.3a.419.419,0,0,0-.322.15l-2.912,3.486a.418.418,0,0,1-.587.055.426.426,0,0,1-.083-.094l-.792-1.207a.42.42,0,0,0-.413-.184h0a.417.417,0,0,0-.288.625Z" transform="translate(-264.66 -415.359)"/><path class="gg" d="M364.9,431.677l1.351,2.1a.421.421,0,0,0,.58.126.459.459,0,0,0,.09-.079l3.722-4.29a.418.418,0,0,0-.315-.693H370.3a.419.419,0,0,0-.322.15l-2.912,3.486a.418.418,0,0,1-.587.055.426.426,0,0,1-.083-.094l-.792-1.207a.42.42,0,0,0-.413-.184h0a.417.417,0,0,0-.288.625Z" transform="translate(-308.239 -415.359)"/></g></g></g></svg>