<svg xmlns="http://www.w3.org/2000/svg" xmlns:xlink="http://www.w3.org/1999/xlink" width="244" height="400" viewBox="0 0 244 400"><defs><style>.a{fill:#fff;}.b{clip-path:url(#a);}.c{fill:white;}</style><clipPath id="a"><rect class="a" width="244" height="400" transform="translate(776 150)"/></clipPath></defs><g class="b" transform="translate(-776 -150)"><g transform="translate(779.059 150)"><g transform="translate(112.811 111.361) rotate(60)"><circle class="c" cx="2.294" cy="2.294" r="2.294" transform="translate(0 9.178)"/><circle class="c" cx="2.294" cy="2.294" r="2.294" transform="translate(18.356 9.178)"/><circle class="c" cx="2.294" cy="2.294" r="2.294" transform="translate(0 19.12)"/><circle class="c" cx="2.294" cy="2.294" r="2.294" transform="translate(0 28.298)"/><circle class="c" cx="2.294" cy="2.294" r="2.294" transform="translate(18.356 19.12)"/><circle class="c" cx="2.294" cy="2.294" r="2.294" transform="translate(18.356 28.298)"/><circle class="c" cx="2.294" cy="2.294" r="2.294" transform="translate(0 0)"/><circle class="c" cx="2.294" cy="2.294" r="2.294" transform="translate(18.356)"/><circle class="c" cx="2.294" cy="2.294" r="2.294" transform="translate(9.178 9.178)"/><circle class="c" cx="2.294" cy="2.294" r="2.294" transform="translate(27.533 9.178)"/><circle class="c" cx="2.294" cy="2.294" r="2.294" transform="translate(9.178 19.12)"/><circle class="c" cx="2.294" cy="2.294" r="2.294" transform="translate(9.178 28.298)"/><circle class="c" cx="2.294" cy="2.294" r="2.294" transform="translate(27.533 19.12)"/><circle class="c" cx="2.294" cy="2.294" r="2.294" transform="translate(27.533 28.298)"/><circle class="c" cx="2.294" cy="2.294" r="2.294" transform="translate(9.178)"/><circle class="c" cx="2.294" cy="2.294" r="2.294" transform="translate(27.533)"/></g><g transform="translate(203.192 9.64) rotate(60)"><circle class="c" cx="2.294" cy="2.294" r="2.294" transform="translate(0 9.178)"/><circle class="c" cx="2.294" cy="2.294" r="2.294" transform="translate(18.356 9.178)"/><circle class="c" cx="2.294" cy="2.294" r="2.294" transform="translate(0 19.12)"/><circle class="c" cx="2.294" cy="2.294" r="2.294" transform="translate(0 28.298)"/><circle class="c" cx="2.294" cy="2.294" r="2.294" transform="translate(18.356 19.12)"/><circle class="c" cx="2.294" cy="2.294" r="2.294" transform="translate(18.356 28.298)"/><circle class="c" cx="2.294" cy="2.294" r="2.294" transform="translate(0 0)"/><circle class="c" cx="2.294" cy="2.294" r="2.294" transform="translate(18.356)"/><circle class="c" cx="2.294" cy="2.294" r="2.294" transform="translate(9.178 9.178)"/><circle class="c" cx="2.294" cy="2.294" r="2.294" transform="translate(27.533 9.178)"/><circle class="c" cx="2.294" cy="2.294" r="2.294" transform="translate(9.178 19.12)"/><circle class="c" cx="2.294" cy="2.294" r="2.294" transform="translate(9.178 28.298)"/><circle class="c" cx="2.294" cy="2.294" r="2.294" transform="translate(27.533 19.12)"/><circle class="c" cx="2.294" cy="2.294" r="2.294" transform="translate(27.533 28.298)"/><circle class="c" cx="2.294" cy="2.294" r="2.294" transform="translate(9.178)"/><circle class="c" cx="2.294" cy="2.294" r="2.294" transform="translate(27.533)"/></g><g transform="translate(215.598 195.06) rotate(60)"><circle class="c" cx="3.294" cy="3.294" r="3.294" transform="translate(0 13.176)"/><circle class="c" cx="3.294" cy="3.294" r="3.294" transform="translate(26.351 13.176)"/><circle class="c" cx="3.294" cy="3.294" r="3.294" transform="translate(0 27.449)"/><circle class="c" cx="3.294" cy="3.294" r="3.294" transform="translate(0 40.625)"/><circle class="c" cx="3.294" cy="3.294" r="3.294" transform="translate(26.351 27.449)"/><circle class="c" cx="3.294" cy="3.294" r="3.294" transform="translate(26.351 40.625)"/><circle class="c" cx="3.294" cy="3.294" r="3.294" transform="translate(0 0)"/><circle class="c" cx="3.294" cy="3.294" r="3.294" transform="translate(26.351)"/><circle class="c" cx="3.294" cy="3.294" r="3.294" transform="translate(13.176 13.176)"/><circle class="c" cx="3.294" cy="3.294" r="3.294" transform="translate(39.527 13.176)"/><circle class="c" cx="3.294" cy="3.294" r="3.294" transform="translate(13.176 27.449)"/><circle class="c" cx="3.294" cy="3.294" r="3.294" transform="translate(13.176 40.625)"/><circle class="c" cx="3.294" cy="3.294" r="3.294" transform="translate(39.527 27.449)"/><circle class="c" cx="3.294" cy="3.294" r="3.294" transform="translate(39.527 40.625)"/><circle class="c" cx="3.294" cy="3.294" r="3.294" transform="translate(13.176)"/><circle class="c" cx="3.294" cy="3.294" r="3.294" transform="translate(39.527)"/></g><g transform="translate(83.544 0) rotate(60)"><circle class="c" cx="3.294" cy="3.294" r="3.294" transform="translate(0 13.176)"/><circle class="c" cx="3.294" cy="3.294" r="3.294" transform="translate(26.351 13.176)"/><circle class="c" cx="3.294" cy="3.294" r="3.294" transform="translate(0 27.449)"/><circle class="c" cx="3.294" cy="3.294" r="3.294" transform="translate(0 40.625)"/><circle class="c" cx="3.294" cy="3.294" r="3.294" transform="translate(26.351 27.449)"/><circle class="c" cx="3.294" cy="3.294" r="3.294" transform="translate(26.351 40.625)"/><circle class="c" cx="3.294" cy="3.294" r="3.294" transform="translate(0 0)"/><circle class="c" cx="3.294" cy="3.294" r="3.294" transform="translate(26.351)"/><circle class="c" cx="3.294" cy="3.294" r="3.294" transform="translate(13.176 13.176)"/><circle class="c" cx="3.294" cy="3.294" r="3.294" transform="translate(39.527 13.176)"/><circle class="c" cx="3.294" cy="3.294" r="3.294" transform="translate(13.176 27.449)"/><circle class="c" cx="3.294" cy="3.294" r="3.294" transform="translate(13.176 40.625)"/><circle class="c" cx="3.294" cy="3.294" r="3.294" transform="translate(39.527 27.449)"/><circle class="c" cx="3.294" cy="3.294" r="3.294" transform="translate(39.527 40.625)"/><circle class="c" cx="3.294" cy="3.294" r="3.294" transform="translate(13.176)"/><circle class="c" cx="3.294" cy="3.294" r="3.294" transform="translate(39.527)"/></g><g transform="translate(31.412 111.361) rotate(60)"><circle class="c" cx="1.606" cy="1.606" r="1.606" transform="translate(0 6.425)"/><circle class="c" cx="1.606" cy="1.606" r="1.606" transform="translate(12.851 6.425)"/><circle class="c" cx="1.606" cy="1.606" r="1.606" transform="translate(0 13.386)"/><circle class="c" cx="1.606" cy="1.606" r="1.606" transform="translate(0 19.812)"/><circle class="c" cx="1.606" cy="1.606" r="1.606" transform="translate(12.851 13.386)"/><circle class="c" cx="1.606" cy="1.606" r="1.606" transform="translate(12.851 19.812)"/><circle class="c" cx="1.606" cy="1.606" r="1.606" transform="translate(0 0)"/><circle class="c" cx="1.606" cy="1.606" r="1.606" transform="translate(12.851)"/><circle class="c" cx="1.606" cy="1.606" r="1.606" transform="translate(6.426 6.425)"/><circle class="c" cx="1.606" cy="1.606" r="1.606" transform="translate(19.276 6.425)"/><circle class="c" cx="1.606" cy="1.606" r="1.606" transform="translate(6.426 13.386)"/><circle class="c" cx="1.606" cy="1.606" r="1.606" transform="translate(6.426 19.812)"/><circle class="c" cx="1.606" cy="1.606" r="1.606" transform="translate(19.276 13.386)"/><circle class="c" cx="1.606" cy="1.606" r="1.606" transform="translate(19.276 19.812)"/><circle class="c" cx="1.606" cy="1.606" r="1.606" transform="translate(6.426 0)"/><circle class="c" cx="1.606" cy="1.606" r="1.606" transform="translate(19.276)"/></g><g transform="translate(19.94 299.506) rotate(60)"><circle class="c" cx="1.606" cy="1.606" r="1.606" transform="translate(0 6.425)"/><circle class="c" cx="1.606" cy="1.606" r="1.606" transform="translate(12.851 6.425)"/><circle class="c" cx="1.606" cy="1.606" r="1.606" transform="translate(0 13.386)"/><circle class="c" cx="1.606" cy="1.606" r="1.606" transform="translate(0 19.812)"/><circle class="c" cx="1.606" cy="1.606" r="1.606" transform="translate(12.851 13.386)"/><circle class="c" cx="1.606" cy="1.606" r="1.606" transform="translate(12.851 19.812)"/><circle class="c" cx="1.606" cy="1.606" r="1.606" transform="translate(0 0)"/><circle class="c" cx="1.606" cy="1.606" r="1.606" transform="translate(12.851 0)"/><circle class="c" cx="1.606" cy="1.606" r="1.606" transform="translate(6.426 6.425)"/><circle class="c" cx="1.606" cy="1.606" r="1.606" transform="translate(19.276 6.425)"/><circle class="c" cx="1.606" cy="1.606" r="1.606" transform="translate(6.426 13.386)"/><circle class="c" cx="1.606" cy="1.606" r="1.606" transform="translate(6.426 19.812)"/><circle class="c" cx="1.606" cy="1.606" r="1.606" transform="translate(19.276 13.386)"/><circle class="c" cx="1.606" cy="1.606" r="1.606" transform="translate(19.276 19.812)"/><circle class="c" cx="1.606" cy="1.606" r="1.606" transform="translate(6.426 0)"/><circle class="c" cx="1.606" cy="1.606" r="1.606" transform="translate(19.276 0)"/></g><g transform="translate(104.269 241.332) rotate(60)"><circle class="c" cx="1.606" cy="1.606" r="1.606" transform="translate(0 6.425)"/><circle class="c" cx="1.606" cy="1.606" r="1.606" transform="translate(12.851 6.425)"/><circle class="c" cx="1.606" cy="1.606" r="1.606" transform="translate(0 13.386)"/><circle class="c" cx="1.606" cy="1.606" r="1.606" transform="translate(0 19.812)"/><circle class="c" cx="1.606" cy="1.606" r="1.606" transform="translate(12.851 13.386)"/><circle class="c" cx="1.606" cy="1.606" r="1.606" transform="translate(12.851 19.812)"/><circle class="c" cx="1.606" cy="1.606" r="1.606" transform="translate(0 0)"/><circle class="c" cx="1.606" cy="1.606" r="1.606" transform="translate(12.851)"/><circle class="c" cx="1.606" cy="1.606" r="1.606" transform="translate(6.426 6.425)"/><circle class="c" cx="1.606" cy="1.606" r="1.606" transform="translate(19.276 6.425)"/><circle class="c" cx="1.606" cy="1.606" r="1.606" transform="translate(6.426 13.386)"/><circle class="c" cx="1.606" cy="1.606" r="1.606" transform="translate(6.426 19.812)"/><circle class="c" cx="1.606" cy="1.606" r="1.606" transform="translate(19.276 13.386)"/><circle class="c" cx="1.606" cy="1.606" r="1.606" transform="translate(19.276 19.812)"/><circle class="c" cx="1.606" cy="1.606" r="1.606" transform="translate(6.426 0)"/><circle class="c" cx="1.606" cy="1.606" r="1.606" transform="translate(19.276)"/></g><g transform="translate(137.239 326.034) rotate(60)"><circle class="c" cx="3.826" cy="3.826" r="3.826" transform="translate(0 15.304)"/><circle class="c" cx="3.826" cy="3.826" r="3.826" transform="translate(30.608 15.304)"/><circle class="c" cx="3.826" cy="3.826" r="3.826" transform="translate(0 31.883)"/><circle class="c" cx="3.826" cy="3.826" r="3.826" transform="translate(0 47.187)"/><circle class="c" cx="3.826" cy="3.826" r="3.826" transform="translate(30.608 31.883)"/><circle class="c" cx="3.826" cy="3.826" r="3.826" transform="translate(30.608 47.187)"/><circle class="c" cx="3.826" cy="3.826" r="3.826" transform="translate(0 0)"/><circle class="c" cx="3.826" cy="3.826" r="3.826" transform="translate(30.608)"/><circle class="c" cx="3.826" cy="3.826" r="3.826" transform="translate(15.304 15.304)"/><circle class="c" cx="3.826" cy="3.826" r="3.826" transform="translate(45.912 15.304)"/><circle class="c" cx="3.826" cy="3.826" r="3.826" transform="translate(15.304 31.883)"/><circle class="c" cx="3.826" cy="3.826" r="3.826" transform="translate(15.304 47.187)"/><circle class="c" cx="3.826" cy="3.826" r="3.826" transform="translate(45.912 31.883)"/><circle class="c" cx="3.826" cy="3.826" r="3.826" transform="translate(45.912 47.187)"/><circle class="c" cx="3.826" cy="3.826" r="3.826" transform="translate(15.304)"/><circle class="c" cx="3.826" cy="3.826" r="3.826" transform="translate(45.912)"/></g></g></g></svg>