<svg xmlns="http://www.w3.org/2000/svg" xmlns:xlink="http://www.w3.org/1999/xlink" width="320" height="523" viewBox="0 0 320 523"><defs><style>.a{fill:rgba(56,125,255,0.2);}.b{clip-path:url(#a);}</style><clipPath id="a"><rect class="a" width="320" height="523" transform="translate(776 150)"/></clipPath></defs><g class="b" transform="translate(-776 -150)"><g transform="translate(-833.543 -45.459)"><g transform="translate(1526.318 -1285.491) rotate(60)"><circle class="a" cx="3" cy="3" r="3" transform="translate(1526 622)"/><circle class="a" cx="3" cy="3" r="3" transform="translate(1550 622)"/><circle class="a" cx="3" cy="3" r="3" transform="translate(1526 635)"/><circle class="a" cx="3" cy="3" r="3" transform="translate(1526 647)"/><circle class="a" cx="3" cy="3" r="3" transform="translate(1550 635)"/><circle class="a" cx="3" cy="3" r="3" transform="translate(1550 647)"/><circle class="a" cx="3" cy="3" r="3" transform="translate(1526 610)"/><circle class="a" cx="3" cy="3" r="3" transform="translate(1550 610)"/><circle class="a" cx="3" cy="3" r="3" transform="translate(1538 622)"/><circle class="a" cx="3" cy="3" r="3" transform="translate(1562 622)"/><circle class="a" cx="3" cy="3" r="3" transform="translate(1538 635)"/><circle class="a" cx="3" cy="3" r="3" transform="translate(1538 647)"/><circle class="a" cx="3" cy="3" r="3" transform="translate(1562 635)"/><circle class="a" cx="3" cy="3" r="3" transform="translate(1562 647)"/><circle class="a" cx="3" cy="3" r="3" transform="translate(1538 610)"/><circle class="a" cx="3" cy="3" r="3" transform="translate(1562 610)"/></g><g transform="translate(1644.491 -1418.491) rotate(60)"><circle class="a" cx="3" cy="3" r="3" transform="translate(1526 622)"/><circle class="a" cx="3" cy="3" r="3" transform="translate(1550 622)"/><circle class="a" cx="3" cy="3" r="3" transform="translate(1526 635)"/><circle class="a" cx="3" cy="3" r="3" transform="translate(1526 647)"/><circle class="a" cx="3" cy="3" r="3" transform="translate(1550 635)"/><circle class="a" cx="3" cy="3" r="3" transform="translate(1550 647)"/><circle class="a" cx="3" cy="3" r="3" transform="translate(1526 610)"/><circle class="a" cx="3" cy="3" r="3" transform="translate(1550 610)"/><circle class="a" cx="3" cy="3" r="3" transform="translate(1538 622)"/><circle class="a" cx="3" cy="3" r="3" transform="translate(1562 622)"/><circle class="a" cx="3" cy="3" r="3" transform="translate(1538 635)"/><circle class="a" cx="3" cy="3" r="3" transform="translate(1538 647)"/><circle class="a" cx="3" cy="3" r="3" transform="translate(1562 635)"/><circle class="a" cx="3" cy="3" r="3" transform="translate(1562 647)"/><circle class="a" cx="3" cy="3" r="3" transform="translate(1538 610)"/><circle class="a" cx="3" cy="3" r="3" transform="translate(1562 610)"/></g><g transform="translate(1660.712 -1176.055) rotate(60)"><circle class="a" cx="4.307" cy="4.307" r="4.307" transform="translate(1526 627.227)"/><circle class="a" cx="4.307" cy="4.307" r="4.307" transform="translate(1560.454 627.227)"/><circle class="a" cx="4.307" cy="4.307" r="4.307" transform="translate(1526 645.89)"/><circle class="a" cx="4.307" cy="4.307" r="4.307" transform="translate(1526 663.117)"/><circle class="a" cx="4.307" cy="4.307" r="4.307" transform="translate(1560.454 645.89)"/><circle class="a" cx="4.307" cy="4.307" r="4.307" transform="translate(1560.454 663.117)"/><circle class="a" cx="4.307" cy="4.307" r="4.307" transform="translate(1526 610)"/><circle class="a" cx="4.307" cy="4.307" r="4.307" transform="translate(1560.454 610)"/><circle class="a" cx="4.307" cy="4.307" r="4.307" transform="translate(1543.227 627.227)"/><circle class="a" cx="4.307" cy="4.307" r="4.307" transform="translate(1577.681 627.227)"/><circle class="a" cx="4.307" cy="4.307" r="4.307" transform="translate(1543.227 645.89)"/><circle class="a" cx="4.307" cy="4.307" r="4.307" transform="translate(1543.227 663.117)"/><circle class="a" cx="4.307" cy="4.307" r="4.307" transform="translate(1577.681 645.89)"/><circle class="a" cx="4.307" cy="4.307" r="4.307" transform="translate(1577.681 663.117)"/><circle class="a" cx="4.307" cy="4.307" r="4.307" transform="translate(1543.227 610)"/><circle class="a" cx="4.307" cy="4.307" r="4.307" transform="translate(1577.681 610)"/></g><g transform="translate(1488.052 -1431.096) rotate(60)"><circle class="a" cx="4.307" cy="4.307" r="4.307" transform="translate(1526 627.227)"/><circle class="a" cx="4.307" cy="4.307" r="4.307" transform="translate(1560.454 627.227)"/><circle class="a" cx="4.307" cy="4.307" r="4.307" transform="translate(1526 645.89)"/><circle class="a" cx="4.307" cy="4.307" r="4.307" transform="translate(1526 663.117)"/><circle class="a" cx="4.307" cy="4.307" r="4.307" transform="translate(1560.454 645.89)"/><circle class="a" cx="4.307" cy="4.307" r="4.307" transform="translate(1560.454 663.117)"/><circle class="a" cx="4.307" cy="4.307" r="4.307" transform="translate(1526 610)"/><circle class="a" cx="4.307" cy="4.307" r="4.307" transform="translate(1560.454 610)"/><circle class="a" cx="4.307" cy="4.307" r="4.307" transform="translate(1543.227 627.227)"/><circle class="a" cx="4.307" cy="4.307" r="4.307" transform="translate(1577.681 627.227)"/><circle class="a" cx="4.307" cy="4.307" r="4.307" transform="translate(1543.227 645.89)"/><circle class="a" cx="4.307" cy="4.307" r="4.307" transform="translate(1543.227 663.117)"/><circle class="a" cx="4.307" cy="4.307" r="4.307" transform="translate(1577.681 645.89)"/><circle class="a" cx="4.307" cy="4.307" r="4.307" transform="translate(1577.681 663.117)"/><circle class="a" cx="4.307" cy="4.307" r="4.307" transform="translate(1543.227 610)"/><circle class="a" cx="4.307" cy="4.307" r="4.307" transform="translate(1577.681 610)"/></g><g transform="translate(1419.89 -1285.491) rotate(60)"><circle class="a" cx="2.1" cy="2.1" r="2.1" transform="translate(1526 618.401)"/><circle class="a" cx="2.1" cy="2.1" r="2.1" transform="translate(1542.803 618.401)"/><circle class="a" cx="2.1" cy="2.1" r="2.1" transform="translate(1526 627.503)"/><circle class="a" cx="2.1" cy="2.1" r="2.1" transform="translate(1526 635.904)"/><circle class="a" cx="2.1" cy="2.1" r="2.1" transform="translate(1542.803 627.503)"/><circle class="a" cx="2.1" cy="2.1" r="2.1" transform="translate(1542.803 635.904)"/><circle class="a" cx="2.1" cy="2.1" r="2.1" transform="translate(1526 610)"/><circle class="a" cx="2.1" cy="2.1" r="2.1" transform="translate(1542.803 610)"/><circle class="a" cx="2.1" cy="2.1" r="2.1" transform="translate(1534.401 618.401)"/><circle class="a" cx="2.1" cy="2.1" r="2.1" transform="translate(1551.204 618.401)"/><circle class="a" cx="2.1" cy="2.1" r="2.1" transform="translate(1534.401 627.503)"/><circle class="a" cx="2.1" cy="2.1" r="2.1" transform="translate(1534.401 635.904)"/><circle class="a" cx="2.1" cy="2.1" r="2.1" transform="translate(1551.204 627.503)"/><circle class="a" cx="2.1" cy="2.1" r="2.1" transform="translate(1551.204 635.904)"/><circle class="a" cx="2.1" cy="2.1" r="2.1" transform="translate(1534.401 610)"/><circle class="a" cx="2.1" cy="2.1" r="2.1" transform="translate(1551.204 610)"/></g><g transform="translate(1404.89 -1039.491) rotate(60)"><circle class="a" cx="2.1" cy="2.1" r="2.1" transform="translate(1526 618.401)"/><circle class="a" cx="2.1" cy="2.1" r="2.1" transform="translate(1542.803 618.401)"/><circle class="a" cx="2.1" cy="2.1" r="2.1" transform="translate(1526 627.503)"/><circle class="a" cx="2.1" cy="2.1" r="2.1" transform="translate(1526 635.904)"/><circle class="a" cx="2.1" cy="2.1" r="2.1" transform="translate(1542.803 627.503)"/><circle class="a" cx="2.1" cy="2.1" r="2.1" transform="translate(1542.803 635.904)"/><circle class="a" cx="2.1" cy="2.1" r="2.1" transform="translate(1526 610)"/><circle class="a" cx="2.1" cy="2.1" r="2.1" transform="translate(1542.803 610)"/><circle class="a" cx="2.1" cy="2.1" r="2.1" transform="translate(1534.401 618.401)"/><circle class="a" cx="2.1" cy="2.1" r="2.1" transform="translate(1551.204 618.401)"/><circle class="a" cx="2.1" cy="2.1" r="2.1" transform="translate(1534.401 627.503)"/><circle class="a" cx="2.1" cy="2.1" r="2.1" transform="translate(1534.401 635.904)"/><circle class="a" cx="2.1" cy="2.1" r="2.1" transform="translate(1551.204 627.503)"/><circle class="a" cx="2.1" cy="2.1" r="2.1" transform="translate(1551.204 635.904)"/><circle class="a" cx="2.1" cy="2.1" r="2.1" transform="translate(1534.401 610)"/><circle class="a" cx="2.1" cy="2.1" r="2.1" transform="translate(1551.204 610)"/></g><g transform="translate(1515.15 -1115.555) rotate(60)"><circle class="a" cx="2.1" cy="2.1" r="2.1" transform="translate(1526 618.401)"/><circle class="a" cx="2.1" cy="2.1" r="2.1" transform="translate(1542.803 618.401)"/><circle class="a" cx="2.1" cy="2.1" r="2.1" transform="translate(1526 627.503)"/><circle class="a" cx="2.1" cy="2.1" r="2.1" transform="translate(1526 635.904)"/><circle class="a" cx="2.1" cy="2.1" r="2.1" transform="translate(1542.803 627.503)"/><circle class="a" cx="2.1" cy="2.1" r="2.1" transform="translate(1542.803 635.904)"/><circle class="a" cx="2.1" cy="2.1" r="2.1" transform="translate(1526 610)"/><circle class="a" cx="2.1" cy="2.1" r="2.1" transform="translate(1542.803 610)"/><circle class="a" cx="2.1" cy="2.1" r="2.1" transform="translate(1534.401 618.401)"/><circle class="a" cx="2.1" cy="2.1" r="2.1" transform="translate(1551.204 618.401)"/><circle class="a" cx="2.1" cy="2.1" r="2.1" transform="translate(1534.401 627.503)"/><circle class="a" cx="2.1" cy="2.1" r="2.1" transform="translate(1534.401 635.904)"/><circle class="a" cx="2.1" cy="2.1" r="2.1" transform="translate(1551.204 627.503)"/><circle class="a" cx="2.1" cy="2.1" r="2.1" transform="translate(1551.204 635.904)"/><circle class="a" cx="2.1" cy="2.1" r="2.1" transform="translate(1534.401 610)"/><circle class="a" cx="2.1" cy="2.1" r="2.1" transform="translate(1551.204 610)"/></g><g transform="translate(1558.258 -1004.806) rotate(60)"><circle class="a" cx="5.002" cy="5.002" r="5.002" transform="translate(1526 630.01)"/><circle class="a" cx="5.002" cy="5.002" r="5.002" transform="translate(1566.02 630.01)"/><circle class="a" cx="5.002" cy="5.002" r="5.002" transform="translate(1526 651.687)"/><circle class="a" cx="5.002" cy="5.002" r="5.002" transform="translate(1526 671.697)"/><circle class="a" cx="5.002" cy="5.002" r="5.002" transform="translate(1566.02 651.687)"/><circle class="a" cx="5.002" cy="5.002" r="5.002" transform="translate(1566.02 671.697)"/><circle class="a" cx="5.002" cy="5.002" r="5.002" transform="translate(1526 610)"/><circle class="a" cx="5.002" cy="5.002" r="5.002" transform="translate(1566.02 610)"/><circle class="a" cx="5.002" cy="5.002" r="5.002" transform="translate(1546.01 630.01)"/><circle class="a" cx="5.002" cy="5.002" r="5.002" transform="translate(1586.03 630.01)"/><circle class="a" cx="5.002" cy="5.002" r="5.002" transform="translate(1546.01 651.687)"/><circle class="a" cx="5.002" cy="5.002" r="5.002" transform="translate(1546.01 671.697)"/><circle class="a" cx="5.002" cy="5.002" r="5.002" transform="translate(1586.03 651.687)"/><circle class="a" cx="5.002" cy="5.002" r="5.002" transform="translate(1586.03 671.697)"/><circle class="a" cx="5.002" cy="5.002" r="5.002" transform="translate(1546.01 610)"/><circle class="a" cx="5.002" cy="5.002" r="5.002" transform="translate(1586.03 610)"/></g></g></g></svg>