<svg xmlns="http://www.w3.org/2000/svg" width="170" height="170" viewBox="0 0 170 170">
  <g id="Hompage_Features_1920_Discover" transform="translate(-790 -1304)">
    <rect id="Base" width="170" height="170" transform="translate(790 1304)" fill="#fff" opacity="0"/>
    <g id="undraw_File_searching_re_3evy" transform="translate(790 1309.001)">
      <path id="Path_2312" data-name="Path 2312" d="M436.8,260.106l-85.725,22.075a11.335,11.335,0,0,1-13.788-8.141L311.361,173.363a11.335,11.335,0,0,1,8.141-13.788l79.753-20.537,20.413,9.138,25.273,98.142a11.335,11.335,0,0,1-8.141,13.788Z" transform="translate(-311.004 -139.037)" fill="#f2f2f2"/>
      <path id="Path_2313" data-name="Path 2313" d="M326.556,169.319a8.072,8.072,0,0,0-5.8,9.819l25.926,100.677a8.072,8.072,0,0,0,9.819,5.8l85.725-22.075a8.072,8.072,0,0,0,5.8-9.819L423.144,157.1,405.2,149.066Z" transform="translate(-317.244 -145.625)" fill="#fff"/>
      <path id="Path_2314" data-name="Path 2314" d="M588.039,149.21l-13.267,3.416a3.771,3.771,0,0,1-4.592-2.711l-2.523-9.8a.236.236,0,0,1,.324-.274l20.1,8.924a.236.236,0,0,1-.037.444Z" transform="translate(-479.592 -139.553)" fill="#f2f2f2"/>
      <path id="Path_2315" data-name="Path 2315" d="M527.5,410.659l-39.029,10.051a1.886,1.886,0,0,1-.94-3.652l39.029-10.05a1.886,1.886,0,1,1,.94,3.652Z" transform="translate(-426.033 -315.025)" fill="#ccc"/>
      <path id="Path_2316" data-name="Path 2316" d="M539.658,422.966,493.1,434.957a1.886,1.886,0,0,1-.94-3.652l46.561-11.99a1.886,1.886,0,0,1,.94,3.652Z" transform="translate(-429.071 -323.11)" fill="#ccc"/>
      <circle id="Ellipse_44" data-name="Ellipse 44" cx="6.664" cy="6.664" r="6.664" transform="translate(39.844 104.461)" fill="#e6e6e6"/>
      <path id="Path_2317" data-name="Path 2317" d="M460.651,264.16,408.816,277.5a5.84,5.84,0,0,1-7.1-4.195l-10.863-42.2a5.839,5.839,0,0,1,4.195-7.1l51.835-13.343a5.839,5.839,0,0,1,7.1,4.195l10.863,42.2A5.839,5.839,0,0,1,460.651,264.16Z" transform="translate(-363.334 -185.967)" fill="#fff"/>
      <path id="Path_2318" data-name="Path 2318" d="M460.651,264.16,408.816,277.5a5.84,5.84,0,0,1-7.1-4.195l-10.863-42.2a5.839,5.839,0,0,1,4.195-7.1l51.835-13.343a5.839,5.839,0,0,1,7.1,4.195l10.863,42.2A5.839,5.839,0,0,1,460.651,264.16Zm-65.435-39.489a5.153,5.153,0,0,0-3.7,6.267l10.863,42.2a5.152,5.152,0,0,0,6.267,3.7L460.48,263.5a5.153,5.153,0,0,0,3.7-6.267l-10.863-42.2a5.152,5.152,0,0,0-6.267-3.7Z" transform="translate(-363.334 -185.967)" fill="#e6e6e6"/>
      <path id="Path_411" data-name="Path 411" d="M494.5,248.817l-26.16,6.734a.937.937,0,0,1-1.135-.59.9.9,0,0,1,.636-1.146l26.63-6.855c1.076.545.793,1.66.03,1.856Z" transform="translate(-413.583 -209.932)" fill="#f2f2f2"/>
      <path id="Path_412" data-name="Path 412" d="M497.944,262.191l-26.161,6.734a.937.937,0,0,1-1.135-.59.9.9,0,0,1,.636-1.146l26.63-6.855c1.076.545.793,1.66.03,1.856Z" transform="translate(-415.845 -218.717)" fill="#f2f2f2"/>
      <path id="Path_413" data-name="Path 413" d="M437.157,275.365l-7.984,2.055a1.016,1.016,0,0,1-1.236-.73l-2.425-9.422a1.016,1.016,0,0,1,.73-1.236l7.984-2.055a1.017,1.017,0,0,1,1.236.73l2.425,9.422A1.016,1.016,0,0,1,437.157,275.365Z" transform="translate(-386.202 -221.088)" fill="#e6e6e6"/>
      <path id="Path_414" data-name="Path 414" d="M478.416,289.631l-39.926,10.277a.937.937,0,0,1-1.135-.59.9.9,0,0,1,.636-1.146l40.4-10.4C479.462,288.32,479.179,289.435,478.416,289.631Z" transform="translate(-393.976 -236.742)" fill="#f2f2f2"/>
      <path id="Path_415" data-name="Path 415" d="M481.86,303.009l-39.926,10.277a.937.937,0,0,1-1.135-.59.9.9,0,0,1,.636-1.146l40.4-10.4c1.076.545.793,1.66.03,1.856Z" transform="translate(-396.238 -245.53)" fill="#f2f2f2"/>
      <path id="Path_416" data-name="Path 416" d="M485.3,316.378l-39.925,10.277a.937.937,0,0,1-1.135-.59.9.9,0,0,1,.636-1.146l40.4-10.4c1.076.545.793,1.66.03,1.856Z" transform="translate(-398.499 -254.312)" fill="#f2f2f2"/>
      <path id="Path_417" data-name="Path 417" d="M488.745,329.755l-39.926,10.278a.937.937,0,0,1-1.135-.59.9.9,0,0,1,.636-1.146l40.4-10.4c1.076.545.793,1.66.03,1.856Z" transform="translate(-400.76 -263.099)" fill="#f2f2f2"/>
      <path id="Path_418" data-name="Path 418" d="M492.187,343.125,452.262,353.4a.937.937,0,0,1-1.135-.59.9.9,0,0,1,.636-1.146l40.4-10.4c1.076.545.793,1.66.03,1.856Z" transform="translate(-403.022 -271.882)" fill="#f2f2f2"/>
      <path id="Path_395" data-name="Path 395" d="M442.847,458.937a.69.69,0,0,1-.437-.03l-.009,0-1.815-.77a.7.7,0,0,1,.545-1.281l1.176.5,1.542-3.626a.7.7,0,0,1,.912-.368h0l-.009.024.01-.024a.7.7,0,0,1,.368.913l-1.814,4.264a.7.7,0,0,1-.468.4Z" transform="translate(-395.847 -345.476)" fill="#fff"/>
      <path id="Path_2319" data-name="Path 2319" d="M582.32,361.322H493.8A11.335,11.335,0,0,1,482.475,350V246.038A11.335,11.335,0,0,1,493.8,234.715h82.355l17.489,13.94V350a11.335,11.335,0,0,1-11.322,11.323Z" transform="translate(-423.642 -201.887)" fill="#e6e6e6"/>
      <path id="Path_2320" data-name="Path 2320" d="M500.037,244.215a8.072,8.072,0,0,0-8.063,8.063V356.24a8.072,8.072,0,0,0,8.063,8.063h88.522a8.072,8.072,0,0,0,8.063-8.063V256.465l-15.37-12.251Z" transform="translate(-429.882 -208.127)" fill="#fff"/>
      <path id="Path_2321" data-name="Path 2321" d="M642.523,325.1h-40.3a1.886,1.886,0,0,1,0-3.771h40.3a1.886,1.886,0,0,1,0,3.771Z" transform="translate(-501.063 -258.783)" fill="#d4c0b6"/>
      <path id="Path_2322" data-name="Path 2322" d="M650.3,343.646H602.22a1.885,1.885,0,0,1,0-3.771H650.3a1.885,1.885,0,1,1,0,3.771Z" transform="translate(-501.063 -270.966)" fill="#d4c0b6"/>
      <path id="Path_2323" data-name="Path 2323" d="M642.526,404.443h-40.3a1.885,1.885,0,1,0,0,3.771h40.3a1.885,1.885,0,1,0,0-3.771Z" transform="translate(-501.066 -313.38)" fill="#ccc"/>
      <path id="Path_2324" data-name="Path 2324" d="M650.3,422.993h-48.08a1.885,1.885,0,1,0,0,3.771H650.3a1.885,1.885,0,0,0,0-3.771Z" transform="translate(-501.066 -325.565)" fill="#ccc"/>
      <path id="Path_2325" data-name="Path 2325" d="M642.523,491.334h-40.3a1.886,1.886,0,0,1,0-3.771h40.3a1.886,1.886,0,0,1,0,3.771Z" transform="translate(-501.063 -367.981)" fill="#ccc"/>
      <path id="Path_2326" data-name="Path 2326" d="M650.3,509.881H602.22a1.885,1.885,0,0,1,0-3.771H650.3a1.885,1.885,0,1,1,0,3.771Z" transform="translate(-501.063 -380.164)" fill="#ccc"/>
      <circle id="Ellipse_44-2" data-name="Ellipse 44" cx="6.664" cy="6.664" r="6.664" transform="translate(77.71 60.949)" fill="#c1a699"/>
      <path id="Path_395-2" data-name="Path 395" d="M550.659,333.8a.691.691,0,0,1-.416-.138l-.008-.006-1.566-1.2a.7.7,0,1,1,.847-1.1l1.014.778,2.4-3.127a.7.7,0,0,1,.975-.129h0l-.015.021.015-.021a.7.7,0,0,1,.129.976l-2.82,3.677a.7.7,0,0,1-.554.271Z" transform="translate(-466.946 -263.647)" fill="#fff"/>
      <path id="Path_2327" data-name="Path 2327" d="M552.818,406.451a6.664,6.664,0,0,1-6.663,6.667,1.438,1.438,0,0,1-.172-.007,6.664,6.664,0,1,1,6.835-6.66Z" transform="translate(-461.094 -310.321)" fill="#ccc"/>
      <circle id="Ellipse_44-3" data-name="Ellipse 44" cx="6.664" cy="6.664" r="6.664" transform="translate(77.71 117.985)" fill="#ccc"/>
      <path id="Path_2328" data-name="Path 2328" d="M772.033,249.608h-13.7a3.771,3.771,0,0,1-3.771-3.771V235.718a.236.236,0,0,1,.382-.185l17.235,13.654a.236.236,0,0,1-.146.42Z" transform="translate(-602.374 -202.391)" fill="#ddd"/>
      <path id="Path_2329" data-name="Path 2329" d="M563.265,406.634A6.664,6.664,0,0,1,556.6,413.3a1.432,1.432,0,0,1-.172-.007,14.428,14.428,0,0,1,1.294-13.23A6.668,6.668,0,0,1,563.265,406.634Z" transform="translate(-471.542 -310.503)" fill="#c1a699"/>
      <path id="Path_2330" data-name="Path 2330" d="M600.334,406.33a1.89,1.89,0,0,1,1.887-1.887h10.043a14.262,14.262,0,0,1,1.238,3.771H602.221a1.887,1.887,0,0,1-1.887-1.883Z" transform="translate(-501.062 -313.38)" fill="#d4c0b6"/>
      <path id="Path_2331" data-name="Path 2331" d="M613.739,422.993a14.386,14.386,0,0,1-.5,3.771H602.224a1.885,1.885,0,1,1,0-3.771Z" transform="translate(-501.066 -325.565)" fill="#d4c0b6"/>
      <path id="Path_2332" data-name="Path 2332" d="M658.524,456.726a2.059,2.059,0,0,1-2.829.686l-24.019-14.651a2.059,2.059,0,1,1,2.144-3.515L657.838,453.9A2.059,2.059,0,0,1,658.524,456.726Z" transform="translate(-521.002 -336.044)" fill="#3f3d56"/>
      <path id="Path_2333" data-name="Path 2333" d="M583.357,400.115a16.469,16.469,0,1,1-5.484-22.636,16.469,16.469,0,0,1,5.484,22.636Zm-24.6-15.008a12.352,12.352,0,1,0,16.977-4.113,12.352,12.352,0,0,0-16.977,4.113Z" transform="translate(-469.855 -294.084)" fill="#3f3d56"/>
    </g>
  </g>
</svg>
