<svg xmlns="http://www.w3.org/2000/svg" width="170" height="170" viewBox="0 0 170 170">
  <g id="Hompage_Features_1920_Create" transform="translate(-1360 -1206)">
    <rect id="Base" width="170" height="170" transform="translate(1360 1206)" fill="#fff" opacity="0"/>
    <g id="undraw_date_picker_gorr" transform="translate(1370.023 1210.023)">
      <rect id="Rectangle_880" data-name="Rectangle 880" width="140" height="152.258" rx="21" transform="translate(8.71 7.742)" fill="#fff"/>
      <circle id="Ellipse_226" data-name="Ellipse 226" cx="3.175" cy="3.175" r="3.175" transform="translate(35.982 57.561)" fill="#e6e6e6"/>
      <circle id="Ellipse_227" data-name="Ellipse 227" cx="3.175" cy="3.175" r="3.175" transform="translate(49.212 57.561)" fill="#e6e6e6"/>
      <circle id="Ellipse_228" data-name="Ellipse 228" cx="3.175" cy="3.175" r="3.175" transform="translate(62.442 57.561)" fill="#d4c0b6"/>
      <circle id="Ellipse_229" data-name="Ellipse 229" cx="3.175" cy="3.175" r="3.175" transform="translate(75.672 57.561)" fill="#d4c0b6"/>
      <circle id="Ellipse_230" data-name="Ellipse 230" cx="3.175" cy="3.175" r="3.175" transform="translate(88.902 57.561)" fill="#d4c0b6"/>
      <circle id="Ellipse_231" data-name="Ellipse 231" cx="3.175" cy="3.175" r="3.175" transform="translate(102.132 57.561)" fill="#e6e6e6"/>
      <circle id="Ellipse_232" data-name="Ellipse 232" cx="3.175" cy="3.175" r="3.175" transform="translate(115.362 57.561)" fill="#e6e6e6"/>
      <circle id="Ellipse_233" data-name="Ellipse 233" cx="3.175" cy="3.175" r="3.175" transform="translate(35.982 67.616)" fill="#e6e6e6"/>
      <circle id="Ellipse_234" data-name="Ellipse 234" cx="3.175" cy="3.175" r="3.175" transform="translate(49.212 67.616)" fill="#e6e6e6"/>
      <circle id="Ellipse_235" data-name="Ellipse 235" cx="3.175" cy="3.175" r="3.175" transform="translate(62.442 67.616)" fill="#e6e6e6"/>
      <circle id="Ellipse_236" data-name="Ellipse 236" cx="3.175" cy="3.175" r="3.175" transform="translate(75.672 67.616)" fill="#e6e6e6"/>
      <circle id="Ellipse_237" data-name="Ellipse 237" cx="3.175" cy="3.175" r="3.175" transform="translate(88.902 67.616)" fill="#e6e6e6"/>
      <circle id="Ellipse_238" data-name="Ellipse 238" cx="3.175" cy="3.175" r="3.175" transform="translate(102.132 67.616)" fill="#e6e6e6"/>
      <circle id="Ellipse_239" data-name="Ellipse 239" cx="3.175" cy="3.175" r="3.175" transform="translate(115.362 67.616)" fill="#e6e6e6"/>
      <circle id="Ellipse_240" data-name="Ellipse 240" cx="3.175" cy="3.175" r="3.175" transform="translate(35.982 77.671)" fill="#d4c0b6"/>
      <circle id="Ellipse_241" data-name="Ellipse 241" cx="3.175" cy="3.175" r="3.175" transform="translate(49.212 77.671)" fill="#d4c0b6"/>
      <circle id="Ellipse_242" data-name="Ellipse 242" cx="3.175" cy="3.175" r="3.175" transform="translate(62.442 77.671)" fill="#d4c0b6"/>
      <circle id="Ellipse_243" data-name="Ellipse 243" cx="3.175" cy="3.175" r="3.175" transform="translate(75.672 77.671)" fill="#e6e6e6"/>
      <circle id="Ellipse_244" data-name="Ellipse 244" cx="3.175" cy="3.175" r="3.175" transform="translate(88.902 77.671)" fill="#e6e6e6"/>
      <circle id="Ellipse_245" data-name="Ellipse 245" cx="3.175" cy="3.175" r="3.175" transform="translate(102.132 77.671)" fill="#e6e6e6"/>
      <circle id="Ellipse_246" data-name="Ellipse 246" cx="3.175" cy="3.175" r="3.175" transform="translate(115.362 77.671)" fill="#e6e6e6"/>
      <circle id="Ellipse_247" data-name="Ellipse 247" cx="3.175" cy="3.175" r="3.175" transform="translate(35.982 87.726)" fill="#e6e6e6"/>
      <circle id="Ellipse_248" data-name="Ellipse 248" cx="3.175" cy="3.175" r="3.175" transform="translate(49.212 87.726)" fill="#e6e6e6"/>
      <circle id="Ellipse_249" data-name="Ellipse 249" cx="3.175" cy="3.175" r="3.175" transform="translate(35.982 97.78)" fill="#e6e6e6"/>
      <circle id="Ellipse_250" data-name="Ellipse 250" cx="3.175" cy="3.175" r="3.175" transform="translate(49.212 97.78)" fill="#e6e6e6"/>
      <circle id="Ellipse_251" data-name="Ellipse 251" cx="3.175" cy="3.175" r="3.175" transform="translate(62.442 97.78)" fill="#e6e6e6"/>
      <circle id="Ellipse_252" data-name="Ellipse 252" cx="3.175" cy="3.175" r="3.175" transform="translate(62.442 87.726)" fill="#e6e6e6"/>
      <circle id="Ellipse_253" data-name="Ellipse 253" cx="3.175" cy="3.175" r="3.175" transform="translate(75.672 87.726)" fill="#d4c0b6"/>
      <circle id="Ellipse_254" data-name="Ellipse 254" cx="3.175" cy="3.175" r="3.175" transform="translate(88.902 87.726)" fill="#d4c0b6"/>
      <circle id="Ellipse_255" data-name="Ellipse 255" cx="3.175" cy="3.175" r="3.175" transform="translate(102.132 87.726)" fill="#d4c0b6"/>
      <circle id="Ellipse_256" data-name="Ellipse 256" cx="3.175" cy="3.175" r="3.175" transform="translate(115.362 87.726)" fill="#e6e6e6"/>
      <path id="Path_40" data-name="Path 40" d="M378.113,213.882a1.918,1.918,0,1,0,0,3.836h48.092a1.918,1.918,0,1,0,.063-3.836H378.113Z" transform="translate(-323.302 -181.212)" fill="#e6e6e6"/>
      <path id="Path_2472" data-name="Path 2472" d="M559.257,211.995a.377.377,0,0,0,0,.534l1.62,1.62h-4a.377.377,0,1,0,0,.755h4l-1.62,1.62a.377.377,0,0,0,.534.534l2.265-2.265a.377.377,0,0,0,0-.534l-2.265-2.265A.377.377,0,0,0,559.257,211.995Z" transform="translate(-445.447 -179.858)" fill="#e6e6e6"/>
      <path id="Path_2473" data-name="Path 2473" d="M342.161,211.995a.377.377,0,0,1,0,.534l-1.62,1.62h4a.377.377,0,0,1,0,.755h-4l1.62,1.62a.377.377,0,1,1-.534.534l-2.265-2.265a.377.377,0,0,1,0-.534l2.265-2.265A.378.378,0,0,1,342.161,211.995Z" transform="translate(-298.276 -179.858)" fill="#e6e6e6"/>
      <path id="Path_2474" data-name="Path 2474" d="M359.361,498.231a6.88,6.88,0,1,0,0,13.759H412.81a6.88,6.88,0,0,0,0-13.759Z" transform="translate(-307.238 -373.835)" fill="#e6e6e6"/>
      <path id="Path_2475" data-name="Path 2475" d="M223.795,135.739a11.567,11.567,0,1,1,11.567-11.567A11.567,11.567,0,0,1,223.795,135.739Z" transform="translate(-210.25 -111.627)" fill="#c1a699"/>
      <path id="Path_2476" data-name="Path 2476" d="M239.866,134.537h-3.423v-3.423a1.141,1.141,0,1,0-2.282,0v3.423h-3.423a1.141,1.141,0,0,0,0,2.282h3.423v3.423a1.141,1.141,0,0,0,2.282,0v-3.423h3.423a1.141,1.141,0,1,0,0-2.282Z" transform="translate(-221.756 -123.133)" fill="#fff"/>
    </g>
  </g>
</svg>
