<svg xmlns="http://www.w3.org/2000/svg" width="170" height="170" viewBox="0 0 170 170">
  <g id="Hompage_Features_1920_Subscribe" transform="translate(-1150 -1199)">
    <rect id="Base" width="170" height="170" transform="translate(1150 1199)" fill="#fff" opacity="0"/>
    <g id="undraw_Subscriber_re_om92" transform="translate(727.884 1201.535)">
      <path id="Path_2541" data-name="Path 2541" d="M433.041,69.586l81.23-56.941,82.633,57.4-78.583,49.543-40.8-9.3Z" transform="translate(-9.172 -5.18)" fill="#fff"/>
      <path id="Path_2301" data-name="Path 2301" d="M435.67,69.571l76.81-56.926,78.573,56.894-74.615,47.615-39.869-9.087Z" transform="translate(-7.173 -2.742)" fill="#e6e6e6"/>
      <path id="Path_2299" data-name="Path 2299" d="M745.12,274.341l-33.654,14.37L665.42,308.373a1.485,1.485,0,0,1-1.138.006L616.777,288.67,582.3,274.364l-.053-.023h-.059a2.054,2.054,0,0,0-2.052,2.052v89.119a2.054,2.054,0,0,0,2.052,2.052H745.179a2.054,2.054,0,0,0,2.052-2.052V276.393Z" transform="translate(-158.016 -210.1)" fill="#fff"/>
      <path id="Path_2300" data-name="Path 2300" d="M746.809,211.095a.292.292,0,0,1-.167-.053L665.567,154.58a1.47,1.47,0,0,0-1.679,0L583.4,211.042a.293.293,0,0,1-.337-.48L663.551,154.1a2.059,2.059,0,0,1,2.351,0l81.074,56.462a.293.293,0,0,1-.168.534Z" transform="translate(-159.499 -146.268)" fill="#e6e6e6"/>
      <path id="Path_2302" data-name="Path 2302" d="M643.057,434.051H605.111a1.773,1.773,0,1,1-.005-3.546h37.951a1.773,1.773,0,0,1,.005,3.546Z" transform="translate(-170.296 -292.75)" fill="#d4c0b6"/>
      <path id="Path_2303" data-name="Path 2303" d="M618.725,417.86H605.111a1.773,1.773,0,0,1-.005-3.546h13.619a1.773,1.773,0,1,1,.005,3.546Z" transform="translate(-170.296 -284.181)" fill="#d4c0b6"/>
      <path id="Path_2304" data-name="Path 2304" d="M704.942,253.43a2.217,2.217,0,0,1-.841-.165L656.73,233.609V172.084a2.055,2.055,0,0,1,2.052-2.052H749.66a2.054,2.054,0,0,1,2.052,2.052v61.569l-.089.038-45.814,19.565A2.234,2.234,0,0,1,704.942,253.43Z" transform="translate(-198.555 -154.895)" fill="#fff"/>
      <path id="Path_2305" data-name="Path 2305" d="M704.777,253.411a2.365,2.365,0,0,1-.9-.175l-47.462-19.694V171.919a2.2,2.2,0,0,1,2.2-2.2h90.878a2.2,2.2,0,0,1,2.2,2.2v61.665L705.7,253.225A2.377,2.377,0,0,1,704.777,253.411ZM657,233.151l47.1,19.543a1.793,1.793,0,0,0,1.368-.008L751.107,233.2V171.919a1.614,1.614,0,0,0-1.612-1.612H658.617A1.614,1.614,0,0,0,657,171.919Z" transform="translate(-198.39 -154.73)" fill="#bcb8b8"/>
      <path id="Path_2307" data-name="Path 2307" d="M704.588,213.614H672.342a2.345,2.345,0,1,1,0-4.69h32.247a2.345,2.345,0,0,1,0,4.69Z" transform="translate(-205.576 -175.478)" fill="#d4c0b6"/>
      <path id="Path_2308" data-name="Path 2308" d="M687.879,192.441H672.341a2.345,2.345,0,0,1,0-4.69h15.537a2.345,2.345,0,0,1,0,4.69Z" transform="translate(-205.576 -164.272)" fill="#d4c0b6"/>
      <path id="Path_2309" data-name="Path 2309" d="M750.84,263.433H701.59a2.345,2.345,0,1,1,0-4.69h49.25a2.345,2.345,0,0,1,0,4.691Z" transform="translate(-221.056 -201.845)" fill="#ccc"/>
      <path id="Path_2310" data-name="Path 2310" d="M750.84,286.474H701.59a2.345,2.345,0,1,1,0-4.69h49.25a2.345,2.345,0,0,1,0,4.69Z" transform="translate(-221.056 -214.039)" fill="#ccc"/>
      <circle id="Ellipse_199" data-name="Ellipse 199" cx="12.144" cy="12.144" r="12.144" transform="translate(567.176 56.835)" fill="#c1a699"/>
      <path id="Path_2311" data-name="Path 2311" d="M754.8,120.165l-3.635-4.674,2.114-1.644L755,116.06l5.814-6.138,1.944,1.842Z" transform="translate(-176.632 -46.058)" fill="#fff"/>
    </g>
  </g>
</svg>
