<svg xmlns="http://www.w3.org/2000/svg" xmlns:xlink="http://www.w3.org/1999/xlink" width="374.999" height="869" viewBox="0 0 374.999 869"><defs><style>.a{opacity:0.2;fill:url(#a);}</style><linearGradient id="a" x1="0.5" x2="0.5" y2="1" gradientUnits="objectBoundingBox"><stop offset="0" stop-color="#fff"/><stop offset="1" stop-color="#766de8"/></linearGradient></defs><path class="a" d="M-12503,22302v-868.184l374.511-.816,0,.016c.048.848.468,8.654.485,21.6.018,12.535-.352,32.574-2.212,56.854a751.209,751.209,0,0,1-10.423,80.09,612.173,612.173,0,0,1-24.145,91.33,19.78,19.78,0,0,0-3.066-3.508,17.707,17.707,0,0,0-4.254-2.691c-.753-.383-1.605-.816-2.474-1.322,4.689-4.041,8.738-7.527,6.437-14.211-1.414-4.109-4.52-5.648-7.578-6.873,0,1.639.024,3.213.047,4.734v.094c.05,3.324.1,6.463-.116,9.551a6.678,6.678,0,0,1-1.484,4.318,5.34,5.34,0,0,1-4.118,1.451c-.208,0-.436-.008-.678-.021-.407-.023-.791-.033-1.139-.033-2.482,0-4.116.539-5.142,1.7-1.258,1.422-1.606,3.781-1.13,7.648l8.4-2.619-.213-.879-6.269.361c.022-.311.042-.617.057-.85.019-.285.041-.641.066-.977.031,0,.063,0,.094,0a11.111,11.111,0,0,0,2.375-.361l.05-.01a11.027,11.027,0,0,1,2.434-.379,4.285,4.285,0,0,1,3.8,2.465c.888,1.451,1.845,2.906,2.771,4.313l0,.008c1.54,2.338,3.134,4.754,4.5,7.3.6,1.125,1.271,2.4,1.87,3.7-1.784,4.648-3.646,9.293-5.532,13.8a6.256,6.256,0,0,1-2.21-.639,2.4,2.4,0,0,0-1.05-.193c-.286,0-.6.025-.93.053l-.055.006c-.393.033-.882.078-1.413.078-2.556-2.045-1.976-5.041-1.361-8.213.154-.8.314-1.627.421-2.443-2.392.8-3.89,1.479-4.47,2.607s-.251,2.7.5,5.049l.115.355.013.039c.284.877.578,1.781.874,2.629-.293-.508-.593-1.014-.9-1.531-.705-1.187-1.5-2.533-2.172-3.877a10.886,10.886,0,0,0-2.806-3.736,5.184,5.184,0,0,0-3.27-1.18,6.368,6.368,0,0,0-1.968.334,86.329,86.329,0,0,0,5.429,7.75l.167.193c1.833,2.125,3.728,4.32,6.464,4.32a5.808,5.808,0,0,0,1.854-.32l.073.051a30.509,30.509,0,0,0,5.48,1.537,436.247,436.247,0,0,1-22.663,45.729,368.447,368.447,0,0,1-28.746,43,319.942,319.942,0,0,1-35.542,38.725c-6.6,6.076-13.513,11.889-20.543,17.273-7.233,5.541-14.807,10.8-22.51,15.623-.687.318-1.189.555-1.63.764a19.046,19.046,0,0,0-1.052-8.342,90.617,90.617,0,0,0-7.7-16.221c-1.258-2.174-3.856-3.605-5.943-4.756a2.731,2.731,0,0,0-1.3-.271,3.184,3.184,0,0,0-2.387.852c-1.085,1.508-1.893,2.123-2.788,2.123a3.652,3.652,0,0,1-2.3-1.154,3.2,3.2,0,0,0-1.806-.566,3.072,3.072,0,0,0-1.335.3,115.621,115.621,0,0,0-10.13,8.586c-.336.32-.193,1.283-.028,2.4l0,.018c.084.568.178,1.211.216,1.824-1.875.824-3.25,3.09-3.773,6.215a24.05,24.05,0,0,0,1.339,11.572l1.209-3.393c-1.193,7.906,1.691,15.555,7.352,19.49-45.224,35.492-53.837,84.309-46.818,118.158,6.836,32.963,28.056,57.137,56.762,64.664,3.281.859,6.6,1.791,9.867,2.768l.5.9,1.1-.412c1.224.373,2.341.723,3.417,1.068h-1.625a10.482,10.482,0,0,1,2.295,2.494c.71,1.459,1.512,2.2,2.384,2.2a3.012,3.012,0,0,0,2.178-1.434c.306-.432.586-.84.857-1.246a273.83,273.83,0,0,1,28.3,11.518,258.618,258.618,0,0,1,25.191,13.707,252.677,252.677,0,0,1,22.26,15.5,253.763,253.763,0,0,1,19.506,16.879,274.738,274.738,0,0,1,54.02,73.242,312.209,312.209,0,0,1,15.086,34.385c3.486,9.443,6.521,19.057,9.023,28.572a216.873,216.873,0,0,1,5.52,26.746Zm195.98-43.094a4.523,4.523,0,0,1,3.5,1.547,5.375,5.375,0,0,1,1.07,4.393c-.271,1.787-.119,2.992.467,3.686.68.8,1.861.824,3,.844h.007a4.52,4.52,0,0,1,2.667.559,3.656,3.656,0,0,0,1.673.4,3.828,3.828,0,0,0,2.25-.744,38.366,38.366,0,0,0,4.027-5.018c.576-.8,1.144-1.594,1.755-2.4l-22.1-8.211a37.689,37.689,0,0,0,.241-4.293c-.085-2.432-.125-4.912-.164-7.312v-.029a148.038,148.038,0,0,0-1.123-19.021c-.888-6.176-4.929-11.252-10.294-12.928a15.188,15.188,0,0,1-3.291-1.852l-.015-.01-.025-.018a17.483,17.483,0,0,0-2.9-1.7,5.993,5.993,0,0,0-2.22-.436,3.133,3.133,0,0,0-1.866.5,70.568,70.568,0,0,0-5.866,5.408l-.007.006c-.751.748-1.526,1.52-2.3,2.26a19.39,19.39,0,0,0-3.985,5.234,12.066,12.066,0,0,0-1.338,5.4,11.59,11.59,0,0,0,1.217,5.1,17.45,17.45,0,0,0,3.676,4.889l2.216-10.361-1.108-.234-1.634,4.389-1.556-.779c.372-.883.7-1.82,1.008-2.725l0-.008a18.057,18.057,0,0,1,2.684-5.635,69.806,69.806,0,0,1,7.227-7.111l.007-.006c1.234-1.1,2.511-2.244,3.827-3.488l-.862,4.84,1.231-.838a16.092,16.092,0,0,0,1.122,1.293l.01.012c.814.881,1.656,1.793,1.5,2.316-1.386,4.523-.445,8.611,2.96,12.867a36.374,36.374,0,0,1,5.686,10,39.2,39.2,0,0,1,2.453,11.533,11.434,11.434,0,0,1-.824,4.2c-.2.617-.43,1.318-.592,1.988l-1.176.23c1.224,1.947,1.729,2.754,2.619,2.754a7.716,7.716,0,0,0,2.584-.9l.036-.016A6.088,6.088,0,0,1-12307.02,22258.908Zm124.568.348c2.634,0,3.16,1.7,3.5,7.176a19.317,19.317,0,0,1,4.315,1.412c1.79,1.07,2.911,1.652,3.705,1.652,1.213,0,1.678-1.383,2.384-4.318l-5.176-2.9.52-1.057a12.216,12.216,0,0,0,6.39,2.1,8.89,8.89,0,0,0,6.153-2.6c-1.327-.49-2.674-1.033-3.861-1.512l-.023-.008a74.067,74.067,0,0,0-7.763-2.795,85.733,85.733,0,0,0-8.678-1.766l-.025-.006-.049-.008c-1.407-.236-2.862-.482-4.379-.766.7-.662,1.418-1.3,2.048-1.869l.03-.027a46.669,46.669,0,0,0,3.961-3.842c.916-1.039,1.9-2.066,2.846-3.061,2.783-2.916,5.661-5.932,7.269-9.539,1.808-4.1,1.728-9.551,1.657-14.363l-.012-.867c-.092-6.758-2.007-9.348-8.194-11.076a11.015,11.015,0,0,1-2.832-1.8c-.291-.2-.621-.463-.992-.77-.615-.506-1.251-1.029-1.6-1.029a.247.247,0,0,0-.142.037,9.281,9.281,0,0,0-2.082,2.441l0,.006c-.217.322-.487.723-.756,1.078l.4,1.182a10.037,10.037,0,0,1,2.653-.41c3.03,0,4.7,1.992,5.115,6.09l1.617-3.873,1.729.645c-.2.762-.356,1.58-.506,2.371a13.423,13.423,0,0,1-1.565,4.91c-2.247,3.279-2.708,6.846-3.044,10.83a35.441,35.441,0,0,1-1.936,7.863l-.01.031c-.367,1.117-.746,2.273-1.066,3.418h0l-.056.072c-.582.766-1.189,1.535-1.776,2.277l-.157.2a72.919,72.919,0,0,0-4.425,6.014,28.436,28.436,0,0,0-2.213,4.766l-.013.031c-.312.793-.664,1.689-1.065,2.615l-14.391-9.689c-.155.547-.381,1.363-.618,2.225l-.086.313c-.184.66-.384,1.383-.583,2.1l-.94-.678c-.285.5-.664,1.033-1.031,1.551l-.018.023c-.864,1.215-1.758,2.471-1.542,3.385a23.146,23.146,0,0,0,2.687,5.916l0,.008c.438.771.892,1.568,1.316,2.389a9.637,9.637,0,0,1,2.043-1.617,95.569,95.569,0,0,1,11.032-4.652,2.037,2.037,0,0,1,.615-.086,6.545,6.545,0,0,1,1.959.445,6.649,6.649,0,0,0,1.98.445,2.173,2.173,0,0,0,.556-.066A22.859,22.859,0,0,1-12182.451,22259.256Zm-279.987-47.311a14.237,14.237,0,0,0-5.284,1.482l-.022.008-.206.088a5.4,5.4,0,0,1-.812.2c-11.812,2.717-17.048,10.3-16.478,23.85.113,2.91.329,5.854.538,8.7l0,.037c.316,4.322.644,8.791.606,13.141-.03,3.535-.007,5.594.817,6.789.812,1.176,2.434,1.561,5.54,1.932a12.119,12.119,0,0,0,1.35.078c2.113,0,3.631-.631,4.512-1.879,1.116-1.58,1.116-4.08,0-7.229-.949-2.674-1.68-5.518-2.324-8.025l-.01-.037-.057-.221c-.257-1-.5-1.943-.749-2.844-.263,5.619-.263,5.619-3.09,7.686-2.351-3.459-2-8.385.974-13.512.4-.687.819-1.389,1.228-2.066l.079-.131c2.943-4.875,5.986-9.914,4.006-16.211-.647-2.064-.59-3.49.182-4.488a6.32,6.32,0,0,1,3.143-1.756,6.121,6.121,0,0,1,2-.307,14.169,14.169,0,0,1,6.9,2.213,12.4,12.4,0,0,1,4.83,4.707l-5.49,8.781,6.442-4.416-.555.627c.368.469.843.973,1.3,1.459l.031.033c.932.984,1.813,1.914,1.645,2.381a16.39,16.39,0,0,1-4.086,6.941,2.771,2.771,0,0,1-1.91.545,16.309,16.309,0,0,1-1.943-.168c-.549-.066-1.116-.137-1.637-.154-.083-.01-.158-.512-.23-1-.027-.184-.059-.395-.089-.561l2.435-.281c-.43-1.445-.916-3.066-1.578-5.254l.008-.01.008-.01a.119.119,0,0,0,.023-.031h.073l.062-.1-.106.072-.112-.066c.007.02.012.035.017.053l.009.029c.006.021.012.043.02.064q-.387.437-.792.9l-.037.043c-.555.635-1.128,1.291-1.7,1.889-1.543,1.557-2.264,3.059-2.142,4.467.122,1.393,1.07,2.725,2.819,3.961a8.751,8.751,0,0,0,5,1.646,7.136,7.136,0,0,0,5.956-3.117,36.905,36.905,0,0,0,3.737-7.643l0-.01,0-.01c.537-1.342,1.093-2.729,1.734-4.16l7.473,6.354c.121-.424.267-.863.407-1.285l.006-.018c.839-2.518,1.706-5.119-1.756-6.953,2.557-.42,4.356-1.252,5.5-2.539a6.57,6.57,0,0,0,1.432-5.068c-1.056.213-2.135.439-3.178.66l-.319.068-.025,0c-3.156.668-6.421,1.359-9.67,1.781a1.637,1.637,0,0,1-.171.012c-1.121,0-2.5-1.256-3.411-2.088a83.275,83.275,0,0,1-8.144-7.623,6.141,6.141,0,0,0-4.729-2.412Zm277.57-.471c-3.447,1.477-5.686,5.3-6.473,11.053-.792,5.8-.079,13.354,2.062,21.848a35.1,35.1,0,0,0,2.44-3.98,25.911,25.911,0,0,0,1.131-3.615l6.358-1.084v-3.7l-.014,0c-.439,0-.9.043-1.34.086l-.012,0c-.405.039-.766.074-1.063.074-.441,0-.688-.08-.778-.248-.3-.561-.635-1.146-.93-1.664-1.311-2.3-2.665-4.682-2.877-7.146a29.947,29.947,0,0,1,.859-8.119l.013-.064C-12185.268,22213.791-12185.036,22212.619-12184.868,22211.475Zm3.358,26.793a9.085,9.085,0,0,0-2.676,1.176,2.588,2.588,0,0,0-.481,1.492c-.037.273-.075.551-.135.8l3.856.611.09-.107C-12181.079,22240.916-12181.3,22239.582-12181.51,22238.268Zm-294.843-72.092v0c1.153,2.211,2.587,4.959,4.1,5.037.527.027,1.063.051,1.582.074a45.042,45.042,0,0,1,10.332,1.271,18.05,18.05,0,0,1,4.768,2.111,17.848,17.848,0,0,1,4.318,3.881c.831-3.131.757-5.342-.228-6.758a4.978,4.978,0,0,0-3.886-1.877,47.325,47.325,0,0,0-4.765-.207c-1.26,0-2.492.031-3.684.061l-.1,0-.178,0c-1.07.027-2.081.055-3.045.055,1.34-.182,2.706-.32,4.152-.469l.128-.012a68.761,68.761,0,0,0,10.726-1.676,4.609,4.609,0,0,0,3.355-2.965c.7-2.059.05-4.682-1.75-7.016a23.858,23.858,0,0,1-7.876,7.52,19,19,0,0,1-9.381,2.359,29.733,29.733,0,0,1-8.573-1.4Zm161.979,1.34h0l-3.565,3.789c.26.279.56.658.823.994l.008.01c.558.705,1.133,1.434,1.441,1.434a.229.229,0,0,0,.061-.012l.006,0a5.848,5.848,0,0,0,2.647-2.91c.158-.375-.208-1.031-.671-1.861-.229-.41-.514-.918-.75-1.441Zm-12.676-2.27c1.645,0,2.5,1.484,3.278,3.713a33.059,33.059,0,0,1,.906,4.311l1.326.32,2.592-8.09a17.333,17.333,0,0,0,5.14,1.053,7.561,7.561,0,0,0,5.075-2.121c-1.607-.529-3.313-1.053-4.684-1.473l-.052-.018a111.923,111.923,0,0,1-10.612-3.664,21.8,21.8,0,0,0-8.783-1.826,31.213,31.213,0,0,0-11.512,2.5,3.691,3.691,0,0,0-1.724,2.75,3.383,3.383,0,0,0,1.724,2.664c.713.176,1.432.369,2.229.586l.011,0a29,29,0,0,0,7.414,1.342,10.908,10.908,0,0,0,5.391-1.34A4.879,4.879,0,0,1-12327.049,22165.246Zm-119.091.371h0a31.184,31.184,0,0,0-2.994,4.176c-.031.063.04.242.2.508.411.672,1.279,1.688,1.65,1.688a.1.1,0,0,0,.044-.006,10.513,10.513,0,0,0,2.932-1.633l.087-.061c.463-.318.988-.678,1.572-1.049l-3.493-3.623Zm-17.32-49.234c-1.418,0-2.5,1.039-3.612,3.479-.063.129-.306.139-.587.15l-.006,0a2.087,2.087,0,0,0-.605.078,21.268,21.268,0,0,0-6.551,3.553,20.372,20.372,0,0,0-5.023,6.2c-2.477,4.543-3.689,10.73-3.327,16.975.379,6.521,2.39,12.445,5.661,16.68a28.356,28.356,0,0,1,1.226-11.439,49.99,49.99,0,0,1,4.584-9.879,13.919,13.919,0,0,0,1.4-12.045c-.779-2.2-.877-3.809-.306-5.074.552-1.225,1.769-2.2,3.832-3.064a14.724,14.724,0,0,0,2.592-1.818,38.375,38.375,0,0,0,3.715,2.521l.026.018c4.354,2.717,8.856,5.525,8.55,13.109l-2.865.723,2.876,5.373c.535-.863,1.115-1.631,1.677-2.371,1.105-1.457,2.06-2.715,2.163-4.066a15.884,15.884,0,0,0-.55-6.033,13.233,13.233,0,0,0-2.405-4.494c-2.091-2.6-4.952-4.482-7.98-6.475-.38-.248-.8-.525-1.282-.846A6.108,6.108,0,0,0-12463.46,22116.383Zm134.646-.059v0l8.192,5.209c-.154,1.152-.336,2.211-.512,3.234a28.112,28.112,0,0,0-.613,5.873,64.194,64.194,0,0,0,1.584,10.012c.124.594.255,1.205.379,1.777v.006a42.057,42.057,0,0,1,1.257,8.707,15.429,15.429,0,0,1-2.5,8.686,4.408,4.408,0,0,0,2.737-1.029c6.355-6.678,9.67-14.2,9.851-22.359a27.56,27.56,0,0,0-2.3-12.059,15.513,15.513,0,0,0-3.291-4.717,11.148,11.148,0,0,0-4.9-2.758,41.076,41.076,0,0,1-5.425-2,47.982,47.982,0,0,0-4.565-1.748,1.523,1.523,0,0,0-.467-.066,5.686,5.686,0,0,0-2.813,1.178,10.947,10.947,0,0,0-1.738,1.629,10.51,10.51,0,0,1-1.709,1.6,18.024,18.024,0,0,0-7.77,14.188c-.3,3.424.476,6.328,2.172,8.178a6.711,6.711,0,0,0,5.1,2.148,10.52,10.52,0,0,0,3.467-.637,11.658,11.658,0,0,1,2.427-.256c.074,0,.147,0,.22,0h.013l-3.784-4.518-1.595,2.4a13.658,13.658,0,0,1-3-9.256,11.893,11.893,0,0,1,3.86-8.33l5.726-5.1Zm-146.42-71.193h0c-.459,1.965-.986,4.008-1.451,5.809l-.008.031a115.135,115.135,0,0,0-2.856,13.211,13.342,13.342,0,0,0,.148,4.752,8.356,8.356,0,0,0,1.725,3.539c1.644,1.951,4.251,3.051,7.542,3.186a36.185,36.185,0,0,1,8.233,1.033,8.28,8.28,0,0,1,2.97,2.018c.384.348.78.707,1.172,1.006l-5.289,3.508.543,1.1a13.008,13.008,0,0,0,3.57-.777c.1-.053.2-.107.312-.162l.171-.086.006,0c1.48-.764,3.322-1.715,3.464-2.8a7.2,7.2,0,0,0-2.043-5.43,21.219,21.219,0,0,0-5.425-2.893c-.708-.293-1.4-.582-2.093-.9-2.875-1.312-4.77-2.84-5.334-6.4-.723-4.561-1.7-9.148-2.649-13.586l-.007-.033c-.384-1.795-.817-3.828-1.223-5.82Zm7.563,2.426a5.361,5.361,0,0,0-3.5,1.307c.968.4,1.926.719,2.852,1.023,1.983.654,3.857,1.273,5.142,2.541s2.013,3.23,2.775,5.3c.335.9.681,1.842,1.081,2.723a5.389,5.389,0,0,0,2.544-3.5,5.95,5.95,0,0,0-1.581-4.467,11.134,11.134,0,0,0,4.678,1.406c1.972,0,3.4-1.162,4.77-3.885l-13.287-1.115-.034-.027c-.583-.145-1.177-.336-1.751-.52a12.21,12.21,0,0,0-3.681-.787Zm-8.19-14.338v0c.225,1.424.405,2.57.562,3.563l0,.029c.193,1.232.346,2.207.5,3.191l1.075.459c.3-.98.714-2.006,1.116-3l.011-.027c.939-2.314,1.91-4.707,1.464-6.668a4.954,4.954,0,0,0-1.568-2.781,4.328,4.328,0,0,0-2.848-1,6.953,6.953,0,0,0-3.347.957c-3.386,1.859-2.814,4.5-2.311,6.822a5.9,5.9,0,0,1,.149,3.264l5.187-4.807Zm28.165-40.887c-.961,1.607-1.763,2.961-2.524,4.26.326.117.727.295,1.141.48l.045.02a6.412,6.412,0,0,0,1.68.6.2.2,0,0,0,.186-.07,9.358,9.358,0,0,0,1.1-2.93c.1-.391.214-.83.341-1.238l-1.97-1.121Zm-14.08-5.934a4.7,4.7,0,0,1,4.183,2.516c.961,1.514,1.79,3.791,2.772,7.611,1.429-3.02,2.539-5.354,3.6-7.568a7.346,7.346,0,0,0,3.509.938c2.272,0,4.523-1.168,6.689-3.473l-24.106-4.119-.353-1.072-.007-.021c-.372-1.129-.836-2.535-1.477-4.549.928-.541,1.853-1.1,2.831-1.7l.194-.117c2.421-1.473,4.923-2.992,7.542-4.26a21.085,21.085,0,0,0,5.12-3.4,15.87,15.87,0,0,0,3.419-4.457,17.245,17.245,0,0,0,1.7-5.555,25.842,25.842,0,0,0-.049-6.687c-.816-6.369-5.193-12.416-9.756-13.477q.609.987,1.2,1.945c1.011,1.637,1.834,2.973,2.591,4.205a29.849,29.849,0,0,0-5.7,10.9c-1.342,4.393-1.587,8.045-.655,9.768-2.694.748-5.593,3.5-7.752,7.357-2.189,3.91-3.135,8.158-2.53,11.365a11.29,11.29,0,0,1-4.181.869,10.88,10.88,0,0,1-6.629-2.484,42.782,42.782,0,0,1-5.581-5.457l-.4-.436-.276-.3-1.119,1.213c.949,1.535,1.883,3.088,2.835,4.676.839,1.4,1.632,2.719,2.448,4.045a8.924,8.924,0,0,0-3.49,2.846,8.929,8.929,0,0,0-1.547,5.146c1.256-.664,2.489-1.385,3.577-2.02l.022-.014a37.808,37.808,0,0,1,7.136-3.535,9.15,9.15,0,0,1,2.938-.428,28.4,28.4,0,0,1,2.858.2l.05,0,.086.01.007,0a29.877,29.877,0,0,0,3.1.211,11.463,11.463,0,0,0,3.043-.375A8.322,8.322,0,0,1-12461.775,21986.4Zm-17.426-29.086a15.08,15.08,0,0,0,3.4,6.859,8.615,8.615,0,0,0,6.04,3.287h.056c1.832,0,3.877-2.174,5.52-3.92l.356-.379.052-.055c.6-.631.315-2.586.126-3.881l-.009-.061a7.033,7.033,0,0,0-1.808-4.256,4.71,4.71,0,0,0-3.406-1.174,15.263,15.263,0,0,0-3.774.586c1.457,1,2.165,1.973,2.164,2.984a5.083,5.083,0,0,1-1.087,2.582c-.656,1.012-1.335,2.059-1.027,3.229l-1.153.768-5.445-6.57Zm4.444-117.629c-2.773.5-4.584,1.783-5.536,3.936-.928,2.1-.945,4.816-.84,7.2a33.962,33.962,0,0,1-.238,4.781l0,.018,0,.033c-.1.992-.2,2.02-.237,3.031-.045,1.092-.1,2.205-.154,3.281l-.016.316c-.189,3.758-.385,7.645-.228,11.459a11.344,11.344,0,0,0,1.57,4.434c.27.523.547,1.064.78,1.59.382.861.75,1.756,1.106,2.619l.041.1.009.021a39.664,39.664,0,0,0,3.4,6.951,44.137,44.137,0,0,0,7.3,7.875,2.467,2.467,0,0,0,1.646.406c.272,0,.563-.006.918-.02.312-.012.683-.027,1.063-.027.323,0,.605.01.861.027-.9-1.08-1.682-2.082-2.313-2.887a40.1,40.1,0,0,0-3.373-3.959c-4.791-4.732-6.349-10.908-4.5-17.859a34.249,34.249,0,0,0,1.358-11.879,21.339,21.339,0,0,0-4.18-10.969l-.028-.039c-.9-1.238-2.268-3.105-1.839-4.811a4.061,4.061,0,0,1,2.438-2.477c.431-.205.6-1.115.754-1.994A11.352,11.352,0,0,1-12474.757,21839.684Zm15.614,38.707a6.651,6.651,0,0,0-2.053.361c.263.736.624,1.508.974,2.256l.012.025c.814,1.74,1.656,3.539,1.388,5.078-.319,1.793-1.572,3.406-2.9,5.113l-.008.01c-.614.791-1.249,1.605-1.828,2.484a15.581,15.581,0,0,0,1.853.117,10.855,10.855,0,0,0,4.423-.877,11.4,11.4,0,0,0,3.385-2.32,34.1,34.1,0,0,0,5.072-7.094l.011-.018a44.571,44.571,0,0,1,4.068-6.053,10.485,10.485,0,0,0-1.06-.057c-4.778,0-6.251,3.779-7.677,7.436-.312.8-.634,1.631-.985,2.4.123-3.711-.5-6.307-1.864-7.715A3.768,3.768,0,0,0-12459.143,21878.391Zm-6.693-22.273h0l-.078.738,3.957.66-5.177.824c2.686.555,4.385,1.5,5.2,2.887.751,1.289.77,3,.055,5.223l1.119.426.212-.3.216-.307c1.282-1.824,2.608-3.711,3.955-5.605a9.248,9.248,0,0,0,4.138,1.154,5.472,5.472,0,0,0,2.943-.838,8.119,8.119,0,0,0,2.411-2.494l-18.946-2.367Zm151.777-11.875a33.677,33.677,0,0,0-4.435.375,51.632,51.632,0,0,1,5.272,3,39.32,39.32,0,0,1,3.444,2.926l.02.018c.563.516,1.167,1.068,1.82,1.641-.213-3.277-.64-5.082-1.478-6.23C-12310.3,21844.76-12311.69,21844.242-12314.059,21844.242Zm-23.448-1.445c-3.8,0-6.356.48-8.031,1.516a5.572,5.572,0,0,0-2.58,4.82l15.392-6.135C-12334.534,21842.863-12336.1,21842.8-12337.507,21842.8Zm-117.09-47.229h0c-2.089,3.705-3.273,5.889-3.322,7.658-.048,1.729,1,3.109,3.205,5.371a3.914,3.914,0,0,0,2.6.678c1.768,0,3.914-.521,4.3-1.365.951-2.117,1.107-4.68,1.288-7.646.072-1.2.155-2.564.308-3.979l-4.909,2.625-.046-.043c-1.049-1.018-2.133-2.068-3.424-3.3Zm111.034-2.766h0c-1.988,3.207-3.106,5.1-2.958,6.637.146,1.518,1.487,2.785,4.044,5.078l5.905-2.3-1.226-8.877-3.521,2.738-2.245-3.275Zm22.965-6.352-1.773.967c.057.43.114,1,.165,1.5l0,.016a8.152,8.152,0,0,0,.348,2.246c.479,0,.993.025,1.49.051.478.027,1.072.061,1.627.061a5.046,5.046,0,0,0,3.348-.891,56.725,56.725,0,0,0,6.46-7.3l.1-.123c.788-1,1.6-2.029,2.426-3.014l-.587-1.023-5.021,2.91-4.635-2.91c.039.131.076.262.114.391l.034.117c1.273,4.344,2.279,7.773-2.5,11.334Zm-137.913-32.773a4.7,4.7,0,0,0-.535.033c-.446.064-.85.449-1.517,1.086l-.01.008c-.395.379-.887.848-1.53,1.383,2.75.244,4.515.988,5.4,2.273,1.115,1.623.771,3.963-.09,6.973a12.006,12.006,0,0,0,.543,7.266c1.778,4.09,3.814,8.014,5.971,12.168.882,1.7,1.793,3.459,2.71,5.271.19-1.455.406-2.781.614-4.064a43.084,43.084,0,0,0,.79-7.437,133.216,133.216,0,0,0-1.23-15.852c-.244-1.809-1.849-4.061-4.292-6.023C-12454.06,21754.859-12456.673,21753.678-12458.511,21753.678Zm15.338,27.525v0l.087.227c1.105,2.877,2.106,5.488,3.165,8.293a3.449,3.449,0,0,0,2.445-2.162,8.346,8.346,0,0,0,.309-3.727c2.337,2.346,3.919,3.3,5.461,3.3,1.4,0,2.8-.8,4.675-2.687l-16.209-6.113-.285,1.014,3.448,1.852h-3.1Zm110.776-9.783v0c1.475,2.258,1.836,5.1,2.186,7.842l0,.02a28.83,28.83,0,0,0,1,5.246,8.62,8.62,0,0,0,2.853,4.266l4.007-10.914-4.981,2.7-.051-.3c-.025-.15-.05-.3-.074-.449a20.112,20.112,0,0,0-1.275-5.061,6,6,0,0,0-3.664-3.348Zm-5.373-20.943v0a7.874,7.874,0,0,0-5.729,2.934,10.241,10.241,0,0,0-1.9,4.816,23.3,23.3,0,0,0,.155,6.959,15.77,15.77,0,0,1,2.323.531,23.558,23.558,0,0,1,2.479,1.35l-.028,1.561-5.177.613c-1.745,5.125-.566,10.436.681,16.055.241,1.082.476,2.139.69,3.2.524-.924,1.038-1.861,1.534-2.766l.034-.062c1.122-2.047,2.182-3.98,3.4-5.893a17.715,17.715,0,0,0,3.139-8.641,13.833,13.833,0,0,0-2.881-8.852,11.492,11.492,0,0,1-1.808-6.957c.105-1.26,1.083-2.406,2.027-3.514l.013-.016a16.62,16.62,0,0,0,1.049-1.316Zm-124.669.17c-.415.1-.854.178-1.28.25l-.011,0h-.011a6.772,6.772,0,0,0-2.784.889,20.331,20.331,0,0,0-2.7,2.393,19.982,19.982,0,0,1-2.7,2.393c-3.788,2.578-5.956,5.357-6.627,8.5-.681,3.188.18,6.748,2.63,10.887.078-.5.208-1,.334-1.484l.007-.027,0-.012c.252-.975.469-1.816.183-2.266a5.206,5.206,0,0,1-.739-4.4,9.453,9.453,0,0,1,2.133-3.414c2.645-3.014,5.519-5.826,8.3-8.547l.019-.018c1.08-1.057,2.3-2.254,3.5-3.453Zm254.267-4.424c-1.187,0-2.354.748-4.553,2.336,1.071.34,2.188.682,3.372,1.045l.143.045.329.1c1.153.355,2.345.723,3.583,1.111,2.4.754,4.895,1.551,8.1,2.586-.94-3.746-1.631-6.475-2.585-10.148-1.189,1.926-2.255,3.639-3.454,5.553C-12205.712,21747.023-12206.926,21746.223-12208.172,21746.223Zm-127.649-46.152h0l-.112,1.182,6.538.5v.594l-6.124.352c.407.092.815.18,1.161.254l.019.006c2.692.586,5.477,1.191,7.586,2.719a8.324,8.324,0,0,1,2.631,3.113,13.534,13.534,0,0,1,1.259,5.221l1.08-.295,1.83-7.25,9.795-2.064-.279-1.562-25.383-2.771Zm-120.673-4.93h0c-.312,1.465-.745,2.889-1.128,4.146-.784,2.584-1.461,4.814-.8,6.156a6.22,6.22,0,0,0,2.864,2.791,8.833,8.833,0,0,0,3.886.855,10.022,10.022,0,0,0,2.8-.4c.769-.244.96-2.764,1.183-5.682V21703c.107-1.414.218-2.879.406-4.187l-5.429,2.436-3.778-6.105Zm122.184-42.773c-3.725.8-5.607,1.266-6.773,2.025-1.229.8-1.563,1.914-1.778,3.818-.946,7.744-1.557,15.633-1.813,23.451-.13,5.465.267,11.033.65,16.416v.02c.085,1.189.191,2.67.283,4.078a4.532,4.532,0,0,0,1.724,2.715.314.314,0,0,0,.174.045c.48,0,1.673-.646,1.78-1.131.214-.99.134-2.744-.415-3.141-2.5-1.775-1.705-3.992-.935-6.135a36.663,36.663,0,0,1,2.407-5.949c2.851-4.945,4.347-9.018,4.708-12.812a19.2,19.2,0,0,0-3.847-13.3c-1.258-1.779-1.7-3.646-1.192-4.994.438-1.15,1.529-1.936,3.247-2.336.359-.088.62-.607.981-1.326l.013-.025a15.5,15.5,0,0,1,.785-1.416Zm145.833,39.389a2,2,0,0,0-1.109.34,19.134,19.134,0,0,0-1.528,3.967l5.352-.76a14.936,14.936,0,0,0-1.7-3.264A1.954,1.954,0,0,0-12188.478,21691.756Zm-276.379-37.363v0c.581.441,1.192.893,1.784,1.328l.009.006a62.29,62.29,0,0,1,4.945,3.908,3.883,3.883,0,0,1,.761,3.18c-1.389,4.738.06,8.832,1.831,12.549,2.294,4.848,4.644,9.746,6.917,14.482q1.236,2.575,2.52,5.254c-.112-1.488-.321-2.943-.523-4.352-.423-2.937-.822-5.713-.238-8.148,3.494-13.822-1.586-24.592-13.259-28.1a6.849,6.849,0,0,1-1.929-1.094l-.006-.006-.006,0a6.9,6.9,0,0,0-1.922-1.092,10.584,10.584,0,0,0-2.806-.514,2.363,2.363,0,0,0-1.51.416,42.342,42.342,0,0,0-5.263,5.32c-.509.578-1.048,1.189-1.577,1.771a16.968,16.968,0,0,0-3.958,7.09,18.474,18.474,0,0,0-.357,8.357,12.041,12.041,0,0,0,3.268,6.449,7.97,7.97,0,0,0,5.427,2.693,4.509,4.509,0,0,0,1.375-.209c1.437-.469,2.846-1.08,4.09-1.621l.031-.012c.435-.191,1-.437,1.526-.652a25.305,25.305,0,0,0-2.473-.59l-.045-.008,0,0c-2.053-.42-4.175-.854-5.677-2.182-1.619-1.4-2.585-3.848-2.719-6.881a16.591,16.591,0,0,1,.705-5.541,11.086,11.086,0,0,1,2.461-4.453c1.653-1.725,3.256-3.539,4.806-5.295l.05-.057c.654-.742,1.2-1.359,1.765-1.99Zm22.557,27.045h0l3.621,9.207a3.068,3.068,0,0,0,2.425-1.961,12.964,12.964,0,0,0,.7-3.5c.006-.057.013-.111.019-.168l.021-.182a6.169,6.169,0,0,0,3.819,1.48c2.038,0,3.9-1.227,5.611-2.549-1-.246-1.968-.49-2.824-.707l-.053-.014c-2.438-.615-4.742-1.2-7.041-1.656-.472-.047-.956-.072-1.441-.072a16.347,16.347,0,0,0-2.106.143l-.022-.018Zm256.528-23.984h0c-1.173,3.219-1.4,4.807-.793,5.668.418.6,1.277.863,2.785.863.077,0,.156,0,.237,0h.261c-.155-.785-.315-1.578-.47-2.348l-.169-.842-.071-.354c-.247-1.229-.5-2.5-.75-3.752.117-.912.074-1.49-.129-1.723a.334.334,0,0,0-.261-.115c-.376,0-.907.5-1.258.824l-.061.057c-.066.061-.123.115-.173.156-2,1.652-3.875,3.387-5.858,5.221-.669.619-1.323,1.225-1.983,1.826a6.986,6.986,0,0,0,2.418.488,4.847,4.847,0,0,0,3.746-1.848A19.578,19.578,0,0,0-12185.771,21657.453Zm-294.516-45.609h0c-2.611,4.221-3.75,6.473-3.16,7.855.472,1.1,2.076,1.641,4.688,2.2a12.116,12.116,0,0,0,2.49.3,3.988,3.988,0,0,0,3.4-1.373c.958-1.279,1.01-3.414.153-6.348-.343-1.187-.6-2.424-.841-3.619-.124-.609-.246-1.205-.38-1.8-.992,3.2-1.763,4.936-2.984,4.936-.871,0-1.974-.861-3.362-2.154Zm138.8-.822c-.121.838-.323,1.721-.519,2.572-.45,1.961-.915,3.984-.428,5.627.43,1.441,3.046,2.2,5.407,2.2,2.188,0,3.977-.613,4.668-1.6.605-.855.23-2.615-.132-4.318l-.01-.045c-.148-.7-.3-1.428-.379-2.068a15.229,15.229,0,0,0-.51-1.941,22.577,22.577,0,0,1-4.7.795,6.4,6.4,0,0,1-2.363-.762l-.008-.006-.015-.006C-12340.812,21611.313-12341.153,21611.152-12341.491,21611.021Zm152.9-46.205c-3.426,0-5.765,1.205-7.149,3.686-1.331,2.385-1.559,5.607-1.608,8.148-.043,1.559-.127,3.125-.208,4.641v.014a87.772,87.772,0,0,0-.163,9.451,34.6,34.6,0,0,0,1.876,9.793,49.831,49.831,0,0,0,4.13,9.289,20.75,20.75,0,0,0,6.494,6.8,9.853,9.853,0,0,1,1.585,1.484c.735.791,1.431,1.539,2.02,1.539a.813.813,0,0,0,.146-.016c.783-.182,1.568-.307,2.328-.428l.013,0h.007c2.665-.422,5.183-.82,7.845-3.451,6.088-5.961,9.224-13.467,9.867-23.619a78.512,78.512,0,0,0,.014-12.062,38.782,38.782,0,0,0-2.773-11.787,3.523,3.523,0,0,1-.024-1.75v-.01c.049-.377.1-.8.125-1.262.569.25,1.137.438,1.685.619l.053.018a6.418,6.418,0,0,1,3.009,1.6,8.918,8.918,0,0,1,1.469,3.471c.158.57.337,1.219.552,1.818a3.755,3.755,0,0,0,2.549-2.133c.42-1.217-.044-2.873-1.418-5.064a15.037,15.037,0,0,0,6.759,2.1,7.194,7.194,0,0,0,5.146-2.18c-.874-.236-1.743-.514-2.509-.756a23.729,23.729,0,0,0-5.489-1.291c-.445-.033-.934-.07-1.584-.123-1.384-.113-2.813-.227-4.2-.227a12.808,12.808,0,0,0-5.429.969,8.444,8.444,0,0,1-3.812.91,8.38,8.38,0,0,1-3.358-.7l-2.025-.756c.3,1.408.991,3.83,2.312,4.23a3.908,3.908,0,0,1,2.945,2.754,4.33,4.33,0,0,1-1.093,3.9c-4.895,4.918-3.791,10.947-2.817,16.266l.01.055c.163.893.318,1.736.445,2.576a33.152,33.152,0,0,1,.319,10.131,17,17,0,0,1-4.08,8.73,10.084,10.084,0,0,0-1.507,2.885c-.168.428-.341.869-.531,1.268l-.008,0a13.057,13.057,0,0,0-1.479.113l-.035,0a11.668,11.668,0,0,1-1.354.109,2.567,2.567,0,0,1-1.383-.318c-6.844-4.234-10.123-14.152-7.467-22.578a22.6,22.6,0,0,0,1.171-8.611,17.908,17.908,0,0,0-2.782-8.191,17.98,17.98,0,0,1-1.929-5.887l0-.014c-.2-.941-.4-1.916-.653-2.818l1.2-.639,2.059,1.512,1.036-4.209C-12188.4,21564.816-12188.5,21564.816-12188.592,21564.816Zm-144.694-.693c-6.7.6-8.147,1.963-8.586,8.1-.071,1.127-.184,2.271-.292,3.377l0,.031,0,.018c-.184,1.885-.374,3.834-.374,5.754-.041,6-.027,12.055-.014,17.908.008,3.234.014,6.154.014,9.125.9-1.77,1.792-3.527,2.621-5.164,2.068-4.08,4.206-8.3,6.4-12.551,2.62-5.088,2.438-10.115-.555-15.369-1.014-1.779-1.849-3.652-2.586-5.3l-.008-.02-.1-.221c-.219-.49-.426-.953-.621-1.373l4.108-4.311Zm-147.684,17.016c-2.056,5.3-1.343,10.6-.653,15.732l0,.014a41.189,41.189,0,0,1,.478,11.125c.879-1.607,1.642-3.2,2.379-4.734l.017-.035c.592-1.234,1.151-2.4,1.763-3.564.534-1.008,1.167-2,1.779-2.967l.025-.039a23.364,23.364,0,0,0,2.947-5.715,51.911,51.911,0,0,0,1.53-6.156,13.12,13.12,0,0,0-.1-5.871c-.613-2.02-.646-3.5-.1-4.648a7.6,7.6,0,0,1,2.736-2.717c.65-.449,1.282-.937,1.895-1.408l.1-.072.179-.139c.159-.123.318-.246.479-.367-.276-.178-.564-.395-.885-.639a4.115,4.115,0,0,0-1.876-1.031.646.646,0,0,0-.243.045,18.536,18.536,0,0,0-6.7,4.3,21.267,21.267,0,0,0-4.632,6.928l4.315,1.6-1.349,1.936-4.08-1.578Zm27.593,20.979h0l-.574.793-.03.041c-.841,1.162-1.567,2.166-2.787,3.834a14.947,14.947,0,0,1,1.508.346l.045.012a6.929,6.929,0,0,0,1.576.3,1.147,1.147,0,0,0,.728-.209c.735-.559,1.115-2.459.94-3.66-.112-.83-1.392-1.449-1.4-1.455Zm-18.368-7.209h0c9.24,3.43,9.24,3.43,8.193,11,2.2-.359,3.426-.928,4.216-1.957s1.15-2.529,1.252-5.18a14.347,14.347,0,0,0,6.056,1.51,10.118,10.118,0,0,0,3.921-.781,12.58,12.58,0,0,0,3.709-2.465l-22.646-4.74-.234,1.365,3.834,1.244Zm157.68,4.1v0l-5.58.291,3.263,3.955,3.051-3.285-.733-.963Zm-7.522-17.838,0,0a8.755,8.755,0,0,1,4.535,4.262,23.307,23.307,0,0,1,1.927,6.221,7.65,7.65,0,0,0,2.059,4.25,6.036,6.036,0,0,0,4.154,1.42c-.574-1.33-1.111-2.6-1.7-3.994l0,0c-1.076-2.541-2.093-4.941-3.182-7.291a13.991,13.991,0,0,0-4.27-5.523,9.286,9.286,0,0,0-5.614-1.887,10.115,10.115,0,0,0-2.335.279l3.454,1.59.7.484-.709-.484-4.4,0c.486.65,1.047,1.271,1.641,1.93l.006.006c1.392,1.545,2.83,3.141,3.34,5.176.5,2.01.059,4.34-.371,6.592-.187.98-.38,1.994-.49,2.973,2.464-.064,4.374-.988,5.377-2.605,1.153-1.859,1.044-4.486-.307-7.4a49.6,49.6,0,0,0-3.8-6Zm-142.052-11.826c3.053,0,5.4,1.82,7.68,3.58l.012.008a32.526,32.526,0,0,0,2.689,1.941c-1.952,3.689-.727,6.668.459,9.549a25.32,25.32,0,0,1,1.136,3.135c4.985-6.082,5.3-8.949,1.528-13.953a23.118,23.118,0,0,0-5.04-4.441c-.613-.441-1.259-.908-1.861-1.375a11.82,11.82,0,0,0-3.224-1.791l-.052-.018c-.116-.041-.236-.084-.358-.129a10.112,10.112,0,0,0-2.931-.75,1.367,1.367,0,0,0-.734.17c-.568.355-.693,1.615-.815,2.834v.008c-.048.48-.1.977-.174,1.412A8.186,8.186,0,0,1-12463.64,21569.34Zm6.968-43.256a1.517,1.517,0,0,1,.637.113c.772.361,1.446,1.959,1.533,3.146a4.07,4.07,0,0,1-.751,2.055l-.007.012c-.194.346-.4.7-.562,1.074,4.838-.049,5.883-.992,5.883-5.307,3.994,3.572,6.63,5.031,9.1,5.031,1.763,0,3.54-.766,5.76-2.479l-18.722-8.066a50.5,50.5,0,0,0,5.765-9.914,45.284,45.284,0,0,0,3.064-10.256,49.476,49.476,0,0,0,.643-10.613,63.952,63.952,0,0,0-1.5-10.982c-1.5-6.812-2.166-7.457-8.972-8.613.272,2.742.56,5.377.837,7.926l.006.059.02.176,1.175-.088c.226-1.3.469-2.633.718-3.992l.145-.789,1.158.264c-.15.824-.225,1.707-.3,2.559a12.345,12.345,0,0,1-1.007,4.729c-5.068,9.311-6.513,17.559-4.545,25.959l1-1.059c1.614,3.822,1.982,6.729,1.163,9.148-.812,2.4-2.793,4.318-6.234,6.049a13.1,13.1,0,0,0-4.013,3.8,4.223,4.223,0,0,0-.522,2.094c-.027.314-.061.7-.121,1.041-1.447-2.408-2.4-4.262-3.233-5.9-.679-1.326-1.265-2.471-1.944-3.557-2.963-4.713-3.775-9.957-2.484-16.035.123-.578.286-1.172.443-1.744a11.954,11.954,0,0,0,.643-4.184,35.56,35.56,0,0,0-2.043-8.943,29.744,29.744,0,0,0-2-4.021l0-.006-.007-.012a26.8,26.8,0,0,1-2.154-4.48,8.742,8.742,0,0,1,.1-3.975c.123-.766.263-1.633.341-2.557l2.8,2.82v-4.848c-5,.092-7.928,3.291-8.256,9.012-.443,7.764-.945,16.564-.05,25.07a24.6,24.6,0,0,0,3.327,9.875,68.9,68.9,0,0,0,5.923,8.273l.016.02c1.427,1.8,2.9,3.654,4.217,5.574.348.508,1.278.576,2.233.576.148,0,.295,0,.437,0s.26,0,.381,0a2.966,2.966,0,0,0,1.122-.355l0,0a2.522,2.522,0,0,1,.9-.3.456.456,0,0,1,.245.063,4.966,4.966,0,0,0,2.492.914c1.283,0,2.179-1.061,2.819-3.342C-12458.908,21526.576-12457.587,21526.084-12456.672,21526.084Zm287.145-3.742-5.518,2.547a13.308,13.308,0,0,0,3.664,3.342,7.728,7.728,0,0,0,3.919,1.09,10.349,10.349,0,0,0,5.095-1.533,8.884,8.884,0,0,0,3.988-4.637,12.931,12.931,0,0,0,.427-6.848c-1.737-9.977-7.525-16.93-13.3-23.2,0,1.541.038,3.1.072,4.48a80.084,80.084,0,0,1-.173,9.955c-.536,5.34,1.515,9.092,3.812,12.354.816,1.15,1.619,4.123,1.209,4.477a8.655,8.655,0,0,1-3.362,1.453l-.008,0-.017,0c-.451.123-.916.25-1.359.4l-.447-1.4,2.25-1.937Zm-16.548,5.775h.328c.213.143.412.281.593.414.17-.209.279-.334.342-.4a.134.134,0,0,1-.051.014c-.292-.02-.6-.027-.884-.031-.7-.459-1.465-.9-2.144-1.291-2.2-1.268-4.477-2.578-5.346-4.6-1.453-3.441,1.911-6.113,5-8.055a14,14,0,0,0,5.778-6.461,20.379,20.379,0,0,0,1.375-9.043,18.5,18.5,0,0,1,.839-5.314c.19-.738.405-1.574.565-2.381l1.551.3-.034.551c-.066,1.055-.144,2.293-.29,4.816a38.85,38.85,0,0,1,5.813-9.141c2.294-2.477,4.675-3.68,7.279-3.68,2.515,0,5.2,1.1,8.2,3.371l.654-.939c-.224-.514-.417-1.119-.588-1.652l0-.006c-.395-1.227-.8-2.494-1.587-3.037a17.245,17.245,0,0,0-4.727-2.025l-.007,0-.087-.027c-.544-.17-1.057-.33-1.521-.5,3.318-2.686,4.8-4.027,5.392-5.383s.214-2.656-.858-5.057c-1.487,1.605-3.128,3.1-4.716,4.553l-.022.02-.01.01a55.416,55.416,0,0,0-6.5,6.631,22.673,22.673,0,0,0-4.343,8.926l-1.628-.529-5.989-18.824a7.291,7.291,0,0,1-.751.5l0,0c-.808.5-1.812,1.123-2.021,2a17.965,17.965,0,0,0-.22,4.918c.031.7.063,1.412.063,2.117-2.366.158-3.662.607-4.474,1.549-.839.975-1.228,2.525-1.342,5.357a16.433,16.433,0,0,1,6.106-1.369,9.654,9.654,0,0,1,6.481,2.428c-.638.639-1.277,1.256-1.9,1.852l-.095.092c-1.314,1.268-2.557,2.467-3.714,3.766-2.717,3.088-5.375,6.318-7.946,9.443l-.061.072-.142.172c-4.444,5.379-6.395,15.533-4.014,20.895,2.06,4.623,5.533,5.012,8.916,5.012.3,0,.625-.008.883-.014l.233,0,.205,0,.215,0,.215,0C-12186.764,21528.121-12186.41,21528.117-12186.075,21528.117Zm-127.246-56.748v0a12.069,12.069,0,0,1,.529,5.74,16.368,16.368,0,0,1-1.694,4.725c-.36.715-.757,1.436-1.141,2.133l-.061.111c-2.1,3.813-4.266,7.754-2.409,12.852.554,1.523,1.056,3.078,1.541,4.582l.024.074c.511,1.578,1.038,3.209,1.619,4.785,2.214,5.9,1.114,9.826-3.794,13.563a56.267,56.267,0,0,0-4.911,4.412c-.83.8-1.687,1.635-2.611,2.488a6.109,6.109,0,0,0,3.218,1.068c1.962,0,3.342-1.395,4.559-2.627a10.939,10.939,0,0,1,1.767-1.564,18.9,18.9,0,0,0,5.4-5.051,21.3,21.3,0,0,0,2.994-6.2c1.372-4.43,1.678-9.441,1.974-14.289l0-.068c.142-2.3.287-4.68.547-6.959l1.27-.705,7.26,10.248c1.849-2.547,2.533-4.754,2.033-6.559-.461-1.666-1.947-3.045-4.418-4.1,3.157-1.732,4.9-2.863,5.646-4.238.739-1.357.526-2.91-.193-5.674l-12.263,7.752a28.446,28.446,0,0,1-1.126-7.285v-.008c-.2-2.885-.383-5.609-1.514-7.637a5.8,5.8,0,0,0-2.524-2.432,10.3,10.3,0,0,0-4.657-.908c-.042,0-.082,0-.124,0l.237,1.232c.29,1.521.568,2.975.859,4.5l1.958-3.973Zm-31.347,29.289a6.5,6.5,0,0,0-3.562,1.059c.623.8,1.265,1.6,1.885,2.361l.079.1a63.708,63.708,0,0,1,4.232,5.623,42.833,42.833,0,0,1,2.244,4.123,34.238,34.238,0,0,0,2.821,4.961,25.218,25.218,0,0,0,6.28,5.814,1.9,1.9,0,0,0,1.068.271,6.7,6.7,0,0,0,1.516-.236h.008a3.258,3.258,0,0,1,.593-.111c-.48-1.426-1.044-2.754-1.59-4.041-1.141-2.689-2.219-5.23-2.093-7.736s1.373-4.92,2.822-7.715l.033-.064c.672-1.3,1.367-2.641,2.008-4.109l-8.043,1.77a20.88,20.88,0,0,1,4.641-7.242,11.447,11.447,0,0,1,7.482-3.17c.469-.025.918-.766,1.353-1.482l.022-.035a9.677,9.677,0,0,1,.6-.916,8,8,0,0,1-.723-.73l-.015-.016a3.245,3.245,0,0,0-1.586-1.191,7,7,0,0,0-1.136-.092,14.264,14.264,0,0,0-7.9,3.006,15.217,15.217,0,0,0-5.5,6.775c-.623,1.75-.665,3.066-.124,3.912a2.971,2.971,0,0,0,2.386,1.166c-.287.029-.585.074-.866.119l-.034,0a9.82,9.82,0,0,1-1.423.148,2.44,2.44,0,0,1-1.136-.234C-12340.341,21501.689-12342.5,21500.658-12344.668,21500.658Zm154.762-28.281-4.314,1.32,1.191,3.582,3.952-2.574-.829-2.328Zm-140.7,691.883h-9.426c.734-2.125,1.88-3.111,3.6-3.111a10.776,10.776,0,0,1,4.8,1.588l-6.2,0v.473l7.227.447v.6Zm-5.076-274.029v0a8.541,8.541,0,0,1-3.42-6.047,33.963,33.963,0,0,1,.957-14.01c.154-.527.31-1.041.442-1.473a29.379,29.379,0,0,0,1.388-6.025,11.5,11.5,0,0,0-1.2-6.271c-.616-1.25.234-4.275,1.344-5.709.131-.168.259-.346.4-.535l.078-.107c.8-1.121,1.715-2.393,3.144-2.393a3.7,3.7,0,0,1,2.024.729,5.956,5.956,0,0,0,3.028.646c1.26,0,2.22-.236,2.334-.578.549-1.625,1.224-2.449,2.006-2.449,1.062,0,2.059,1.5,2.538,2.219,1.72,2.555,3.858,5.734,4.053,8.861a42.156,42.156,0,0,1-.8,9.068c-.269,1.67-.546,3.4-.7,5.1-.077.793-.182,1.617-.282,2.414l0,.02a38.238,38.238,0,0,0-.434,5.541,158.184,158.184,0,0,0-16.894,11Z" transform="translate(12503 -21433.002)"/></svg>