<svg xmlns="http://www.w3.org/2000/svg" width="1300.002" height="644.004" viewBox="0 0 1300.002 644.004">
  <path id="Subtraction_7" data-name="Subtraction 7" d="M12185.115,21310H11044v-643.393l1300-.611c-.161.074-18.5,8.336-47.673,22.668-17.028,8.367-34.2,17.059-51.046,25.836-21.124,11.008-41.846,22.207-61.59,33.289-50.28,28.219-94.7,55.9-132.02,82.273-46.641,32.963-82.245,63.953-105.824,92.113-2.14-7.621-6.809-12.633-13.149-14.117a61.942,61.942,0,0,1-7.337-2.4l-.053-.02c-2.025-.762-4.119-1.549-6.237-2.133a2.436,2.436,0,0,0-.637-.078,8.248,8.248,0,0,0-3.823,1.441,13.954,13.954,0,0,0-2.353,1.951l-.026.025a13.894,13.894,0,0,1-2.328,1.943,21.436,21.436,0,0,0-10.589,17.217,15.125,15.125,0,0,0,.4,5.492,9.91,9.91,0,0,0,2.177,4.059,9.569,9.569,0,0,0,7.318,2.992,16,16,0,0,0,4.745-.773,17.248,17.248,0,0,1,3.321-.324c.094,0,.188,0,.281,0h.023l-5.155-5.471-2.177,2.9a16.106,16.106,0,0,1-3.312-5.574,14.6,14.6,0,0,1-.759-5.977,13.881,13.881,0,0,1,5.248-9.8l7.8-6.2,11.178,6.3c-.211,1.4-.464,2.715-.687,3.875a30.813,30.813,0,0,0-.833,7.17,68.629,68.629,0,0,0,2.145,12.156c.174.748.358,1.516.519,2.178l.095.395c.088.365.178.738.265,1.105a162.216,162.216,0,0,0-10.527,17.654,33.419,33.419,0,0,0-7.63-.873,47.247,47.247,0,0,0-15.7,3.02,4.5,4.5,0,0,0-2.354,3.352,4.111,4.111,0,0,0,2.353,3.227c1.026.227,2.089.482,3.025.709a43.945,43.945,0,0,0,10.156,1.639,16.881,16.881,0,0,0,5.523-.869,91.5,91.5,0,0,0-5.133,17.742,68.49,68.49,0,0,0-.9,17.219,60.415,60.415,0,0,0,3.7,16.584,67.042,67.042,0,0,0,8.678,15.844c-.372.8-.076,2.586.1,3.652a21.16,21.16,0,0,0,.786,2.93c.593,1.859,1.153,3.617.685,5.146a74.663,74.663,0,0,1-4.656,10.7l-.009.018-.006.014c-.735,1.479-1.5,3.006-2.223,4.563l5.188.422c.528,1.006,1.079,2.061,1.788,3.42l.054.1c.794,1.52,1.614,3.09,2.421,4.625l1.54-.617v-28.074a101.09,101.09,0,0,0,9.879,9.379c-.046.09-.093.176-.142.268l0,.006a19.859,19.859,0,0,0-2.468,6.914,15.727,15.727,0,0,0,.354,6.266c1.107,4.332,3.9,8.313,6.489,11.635,1.9,2.422,2.981,5.537,4.032,8.551l.006.018c.448,1.287.912,2.619,1.438,3.893a.391.391,0,0,1-.029.045l-.006.008-.008.012-.032-.027.006.02.01.029a.058.058,0,0,1-.013.018l.023.016a.123.123,0,0,1,0,.016.237.237,0,0,0,.017.053c-.512.186-1.072.455-1.615.717l-.019.008a7.788,7.788,0,0,1-2.832.99,1.334,1.334,0,0,1-.562-.111,6.5,6.5,0,0,0-2.562-.639c-2.15,0-3,1.85-3.816,3.641l-.016.033c-.248.541-.5,1.1-.793,1.6-.706,1.223-.84,2.166-.421,2.973a5.285,5.285,0,0,0,1.888,1.723,6.545,6.545,0,0,1,1.817,1.545,3.774,3.774,0,0,0,3.192,1.926,8.62,8.62,0,0,0,2.474-.51l.01,0,.02-.006.009,0a8.4,8.4,0,0,1,2.452-.521,3.122,3.122,0,0,1,1,.154c.185-.687.425-1.373.656-2.037l0-.006,0-.006a13.174,13.174,0,0,0,1.009-4.625,15.738,15.738,0,0,0-1.2-4.8c-.241-.668-.49-1.355-.7-2.039a.186.186,0,0,1,.027-.01l.022-.006a.364.364,0,0,1,.047-.018c-.02-.039-.036-.076-.052-.113l-.018-.041c.214-.3.479-.613.714-.887a3.863,3.863,0,0,0,1.211-2.15c.063-1.172.138-2.369.21-3.527l.009-.139v-.008a98.279,98.279,0,0,0,.135-15.949c-.19-2.186-.458-4.4-.794-6.576a195.1,195.1,0,0,0,27.31,14.932,325.039,325.039,0,0,0,35.44,13.459c-.119.154-.239.3-.361.457l-.105.133c-1.183,1.48-2.405,3.012-2.109,4.117a26.877,26.877,0,0,0,3.657,7.18c.564.885,1.2,1.887,1.8,2.918a14.144,14.144,0,0,1,2.786-1.969,144.577,144.577,0,0,1,15.056-5.648,3.128,3.128,0,0,1,.833-.105,9.849,9.849,0,0,1,2.636.533l.045.01.008,0a9.963,9.963,0,0,0,2.691.549,3.443,3.443,0,0,0,.538-.041c3.919,1.16,7.809,2.332,11.562,3.48.157,1,.282,2.23.405,4.01a30.53,30.53,0,0,1,5.883,1.719c2.45,1.3,3.981,2.008,5.06,2.008,1.216,0,1.922-.873,2.7-3.336,17.23,5.514,33.483,11.178,48.31,16.83,14.331,5.469,27.712,11.068,39.771,16.646,11.612,5.367,22.349,10.875,31.91,16.369a258.17,258.17,0,0,1,24.738,16.012,159.636,159.636,0,0,1,18.246,15.568,99.441,99.441,0,0,1,12.438,15.039,66.438,66.438,0,0,1,7.314,14.426,51.43,51.43,0,0,1,2.874,13.729,49.773,49.773,0,0,1-1.937,17.209,63.675,63.675,0,0,1-7.068,15.584c-5.358,8.676-13.061,17.246-22.892,25.473a181.3,181.3,0,0,1-23.483,16.5c-6.373,3.775-10.739,5.846-10.781,5.865Zm-817.956-76.965c-.7.037-1.882,1.209-2.339,1.98-.154.262-.211.451-.164.549.561,1.209,1.877,2.965,3.049,3.082l.02,0a.612.612,0,0,0,.087.008c.708,0,1.456-.7,2.49-1.67l.027-.025c.565-.529,1.207-1.129,1.965-1.727-.836-.387-1.551-.773-2.125-1.086a6.754,6.754,0,0,0-2.91-1.117l-.024,0-.025,0Zm-18.474-8.318c.327,0,.675.008,1.033.021,2.831.719,4.623,2.1,5.479,4.23.705,1.752.795,4.043.281,7.207a9.006,9.006,0,0,0,1.315.1,5.135,5.135,0,0,0,4.181-1.832,12.284,12.284,0,0,0,2.023-4.283,22,22,0,0,0,6.563,1.172,9.411,9.411,0,0,0,8.968-5.375l-30.3-5.375c.184-1.533.255-3.109.324-4.633.154-3.41.3-6.631,1.568-9.406a29.458,29.458,0,0,0,2.541-11.578,82.277,82.277,0,0,0-.746-11.555v-.006c-.283-2.521-.576-5.131-.7-7.705-.25-4.971-1.373-8.936-3.338-11.781-2.438-3.527-6.214-5.385-11.22-5.516l1.883,5.885,3.952-1.178a9.6,9.6,0,0,1,.34,7.006,23.447,23.447,0,0,1-3.19,5.717l-.007.01c-.171.248-.341.5-.507.74a15.264,15.264,0,0,0-2.868,8.066,20.7,20.7,0,0,0,1.691,8.514,103.835,103.835,0,0,1,5.567,21.723c.229,1.518.376,4.338-1.205,6.174a5.13,5.13,0,0,1-4.1,1.629,11.243,11.243,0,0,1-2.088-.213,8.183,8.183,0,0,0,1.63,3.395,2.789,2.789,0,0,0,2.139.971,7.911,7.911,0,0,0,4.023-1.611A22.358,22.358,0,0,1,11348.686,21224.717Zm110.573,7.793v0l2.3,3.738c1.208-.812,2.312-1.621,3.2-2.271l.023-.018a29.569,29.569,0,0,1,4.851-3.117,21.533,21.533,0,0,0,5.785-3.889,10.982,10.982,0,0,0,2.939-4.732,10.8,10.8,0,0,0,.087-5.41,20.477,20.477,0,0,0-2.688-6.207c-1.358-2.184-2.856-4.34-4.306-6.426l0-.006a89.207,89.207,0,0,1-6.965-11.158c-.749-1.523-1.371-3.135-1.973-4.7a30.021,30.021,0,0,0-4.021-7.988,12.182,12.182,0,0,0-3.375-2.969,14.507,14.507,0,0,0-5.022-1.766v-1.9l13.012-9.59c1.306,1.064,2.529,1.986,3.608,2.8l.008.006a30.889,30.889,0,0,1,5.5,4.814,21.617,21.617,0,0,1,4.086,8.525c.284,1.232-.338,2.7-.939,4.109l0,.008-.009.021c-.267.627-.542,1.277-.733,1.895a21.036,21.036,0,0,0,4.357-4.352,10.084,10.084,0,0,0,1.95-4.76,9.331,9.331,0,0,0-2.554-7.094,41.223,41.223,0,0,0-8.325-6.912l-.006-.006-.032-.021c-.986-.686-2.007-1.393-2.979-2.109a3.527,3.527,0,0,0-1.354-.27,3.481,3.481,0,0,0-1.353.271c-.882.316-1.828.623-2.664.895l-.011,0a27.628,27.628,0,0,0-7.365,3.2c-3.76,2.674-7.969,5.855-10.331,9.814-1.871,3.109-2.028,7.15-.441,11.381a21.648,21.648,0,0,0,13,12.709,18.53,18.53,0,0,1,7.439,4.545,45.827,45.827,0,0,1,5.13,6.395l.056.078c.407.574.828,1.168,1.248,1.746,2.07,2.84,2.864,5.627,2.36,8.281a9.416,9.416,0,0,1-1.936,4.082,16.109,16.109,0,0,1-4.062,3.537c-1.657,1.043-3.295,2.1-5.11,3.281q-1.213.788-2.376,1.535l-.038-.057.021-.027h-.037l-.166.008a.8.8,0,0,1,.052.063l.026.033.028.035.046-.064-.008.064a.365.365,0,0,0,.073-.053Zm235.425-1.836c1.677,2.783,2.606,4.023,3.684,4.023.794,0,1.673-.674,3.118-2a56.2,56.2,0,0,0,12.787-16.756c3.383-6.822,5.5-16.457-3.609-23.617a12.568,12.568,0,0,1-2.783-3.344,5.959,5.959,0,0,1-1.02-3.715,34.565,34.565,0,0,0,.593-8.777,14.281,14.281,0,0,0-1.972-6.469c-2.2-3.555-6.313-5.918-12.943-7.443a7.447,7.447,0,0,0-1.629-.209,2.041,2.041,0,0,0-1.984.887c-.354.7-.088,1.74.73,2.854l.149.031.007,0c2.643.58,5.637,1.236,6.786,3.027a15.4,15.4,0,0,1,2.6,9.652,26.454,26.454,0,0,1-2.806,9.75l-.085-.049a10.028,10.028,0,0,0,.973.6l.062.037c.769.434,1.563.881,1.629,1.41a37.169,37.169,0,0,1,.145,5v.018a29.38,29.38,0,0,0,.368,6.4,12.9,12.9,0,0,0,3.193,6.242c2.976,3.271,4.263,6.418,3.936,9.623-.309,3.025-2.062,6.08-5.358,9.342a39.641,39.641,0,0,0-3.663,4.92l-1.3-.646Zm-495.69-47.52h0a25.077,25.077,0,0,0-2.692,10.334,23.723,23.723,0,0,0,1.126,9.707c.634,1.6,1.49,2.605,2.476,2.918a13.362,13.362,0,0,0-.581,5.592,12.483,12.483,0,0,0,1.568,4.662c1.622,2.9,4.243,5.393,6.778,7.807a39.969,39.969,0,0,1,5.268,6.188c1.236,1.789,7.65,3.322,12.034,3.322,1.977,0,3.33-.3,3.914-.883a9.078,9.078,0,0,0,1.091-1.92c.391-.631.746-1.309,1.09-1.963a14.318,14.318,0,0,1,2.633-3.92,28.732,28.732,0,0,0,6.565-8.273,15.426,15.426,0,0,0,1.307-10.092c.29.025.622.076.943.123l.014,0a8.67,8.67,0,0,0,1.024.119c.132,0,.2-.02.217-.057,3.17-7.988,3.667-15.029,1.52-21.527l-5.6,0v-1.307l5-1.459c.612-7.2-.287-11.844-2.832-14.613-2.185-2.379-5.625-3.486-10.828-3.486h-.3l3.909,7.771.941-4.957,2.235.473c-.24.965-.4,2-.549,3.01-.335,2.225-.681,4.523-1.922,6.074a20.412,20.412,0,0,0-4.774,10.594,23.438,23.438,0,0,0,2.02,11.574c2.1,5.117,2.853,9.467,2.3,13.3a15.118,15.118,0,0,1-2.276,6.109,19.618,19.618,0,0,1-5.451,5.424c-1.065.736-1.623,2.164-2.162,3.545l-.007.018a16.93,16.93,0,0,1-.713,1.652l-5.627-.281c-.247-.422-.47-.9-.705-1.414a7.662,7.662,0,0,0-2.075-3.107,22.665,22.665,0,0,1-5.8-5.895,15.96,15.96,0,0,1-2.447-6.512c-.587-4.182.377-8.949,2.946-14.574a17.189,17.189,0,0,0,1.438-10.982,22.9,22.9,0,0,0-5.273-9.934,17.879,17.879,0,0,1-2.814-6.072c-.306-.947-.65-2.016-1.047-2.988l1.723-.682c.371.693.729,1.379,1.183,2.246l.159.307.386.736.62,1.184c.437-2.221.751-3.869,1.055-5.465l.159-.834c.092-.477.185-.965.283-1.477-9.309,2.262-10.605,3.807-10.675,12.707,0,.35-.019.711-.033,1.059v.033c-.067,1.6-.137,3.252.823,4.289a4.45,4.45,0,0,0,3.238,1.123c.373.012.717,1.184,1.049,2.316l0,.008.017.057c.153.521.312,1.063.473,1.48l-1.989.557-2.354-3.744Zm836.6,33.207h0l-.595,1.348-.006.014c-1.353,3.063-2.751,6.229-4.058,9.51a3.54,3.54,0,0,0,.2,2.723c.375.7,1.72,1.441,3.688,2.031a22.018,22.018,0,0,0,5.941.91h.023c1.863,0,3.2-.338,3.872-.979,1.352-1.32,1.055-4.6.816-7.234l-.021-.229-.031-.352a22.033,22.033,0,0,0-1.78-5.518Zm-115.472.951h0c-.24,1.238-.532,2.5-.814,3.711l-.006.025,0,.012a41.808,41.808,0,0,0-1.434,9.27c0,.574,1.122,1.17,3.078,1.631a27.952,27.952,0,0,0,6.078.688c2.214,0,3.754-.318,4.337-.9a4.743,4.743,0,0,0,1.633-4.064,10.445,10.445,0,0,0-1.523-3.65l0-.006c-.829-1.447-1.612-2.814-1.352-4.189l-8.332-1.436-1.657-1.094Zm-484.52-3.291a6.94,6.94,0,0,0-3.874,1.279l8.781,9.664.1.115,0,0a35.587,35.587,0,0,0,5.418,5.2,11.91,11.91,0,0,0,7.092,2.359c.143,0,.289,0,.433-.006l5.482-.2a20.086,20.086,0,0,0-3.129-3.129c-2.173-1.4-3.406-2.967-3.666-4.662-.245-1.6.379-3.309,1.854-5.076a29.119,29.119,0,0,1,2.625-2.5l-.566-1.727c-.753.119-1.654.17-2.526.217l-.052,0c-1.988.107-4.045.215-4.54,1.145-.93,1.785-.985,4.092-1.039,6.322v.027c-.022.941-.047,1.914-.136,2.836C11443.712,21218.014,11439.587,21214.021,11435.6,21214.021Zm121.121-.2h0c-.563,1.1-1.217,2.207-1.848,3.277l-.036.061a26.625,26.625,0,0,0-3.5,7.594,3.431,3.431,0,0,0,.238,2.732c.618.873,1.866,1.035,3.187,1.205,2.063.268,4.194.543,4.233,3.533,1.1-.816,2.25-1.52,3.364-2.2l.01-.006c2.31-1.412,4.3-2.629,4.724-4.221.479-1.875-.546-4.113-1.63-6.482l0-.006,0-.012c-.454-.992-.924-2.018-1.277-3.02l-3.909,2.9-1.813-4.705Zm240.313,2.385c-1.1.432-2.262.771-3.292,1.072-2.295.67-4.462,1.3-5.57,2.721a14.514,14.514,0,0,0-2.765,9.8c.177,1.475,1.842,2.32,4.567,2.32a25.076,25.076,0,0,0,11.14-3.182c-1.243-3.861-2.54-7.908-4.08-12.734Zm-126.327-1.869a11.094,11.094,0,0,0-5.316,1.6c.829.877,1.68,1.752,2.626,2.725l.02.02c1.924,1.979,3.913,4.021,5.734,6.178a17.9,17.9,0,0,0,14.007,6.76,18.248,18.248,0,0,0,2.631-.193c.394-.049.724-.729,1.043-1.385l.008-.016a8.557,8.557,0,0,1,.458-.861c-1.941-1.994-3.905-4.141-4.717-6.553-.89-2.646-.279-5.338,1.866-8.225a40.052,40.052,0,0,0-5.377.855,4.88,4.88,0,0,0-2.736,1.5c-1,1.262-.955,3.287-.476,7.35-.281-.465-.583-.93-.874-1.377l-.027-.043-.019-.027a26.71,26.71,0,0,1-1.69-2.863C11676.132,21216.17,11673.724,21214.336,11670.708,21214.336Zm-567.139,2.719c-.014.021-.21.48-.371.883-1.9,4.73-2.822,8.035-1.581,9.895s4.6,2.266,9.983,2.33h.208c2,0,3.275-.375,4-1.184s.928-2.018.706-4.072c-.26-2.252-.664-4.494-1.056-6.664l-.038-.211c-.131-.729-.266-1.48-.393-2.223.041.01.079.021.116.031l.04.01.025.008-.229-.357a8.083,8.083,0,0,1,.564-.641c.456-.484.928-.986.928-1.5a62.3,62.3,0,0,0,.149-10.646c-.217-1.908-.413-3.883-.586-5.623-.663-6.654-1.349-13.533-3.189-19.975-.97-3.4-2.4-5.836-4.379-7.447a11.022,11.022,0,0,0-7.259-2.307,25.24,25.24,0,0,0-6.017.822,9.871,9.871,0,0,1-1.565.125,9.98,9.98,0,0,1-3.419-.6,18.343,18.343,0,0,0-5.271-.814,14.443,14.443,0,0,0-4.888.826,13.89,13.89,0,0,0-4.176,2.383,18.766,18.766,0,0,0-5.673,8.9c-3.128,9.861-2.24,19.5-1.3,29.715l.011.117c.149,1.621.3,3.3.438,4.963,1.127-1.584,2.233-3.125,3.261-4.553,2.546-3.545,4.951-6.893,7.275-10.32,1.924-2.814,3.979-6.166,4.643-9.693.688-3.66-.18-7.141-2.653-10.641-.96-1.3.088-4.182.931-6.5.085-.232.168-.461.246-.68.225-.643,1.179-1.031,2.1-1.406l.016-.008a11.777,11.777,0,0,0,1.211-.539l.742,1.178-.328.4c-.29.354-.671.816-1.041,1.275a6.38,6.38,0,0,1,4.575-2.166c2.089,0,4.093,1.143,6.214,2.35l0,0,.17.1c2.011,1.146,4.29,2.449,6.744,2.449a6.781,6.781,0,0,0,1.288-.123,71.367,71.367,0,0,0-3.529,8.021,19.14,19.14,0,0,1-1.23,2.914l0,.006a11.414,11.414,0,0,0-1.494,4.574c-.046,1.791.8,3.531,2.6,5.32,3.983,3.969,7.074,8.949,10.064,13.768,1.226,1.975,2.494,4.018,3.819,5.982a.17.17,0,0,1-.011.018.063.063,0,0,0-.011.016l.038.053c.015.064.024.135.035.2l0,.016a17.26,17.26,0,0,0-3.993-.473c-.105,0-.212,0-.317,0a61.91,61.91,0,0,0-7.311,2.1c.028-.066.161-.379.162-.387Zm-33.026-3.3-2.53,14.285,14.248,1.6c-.168-3.561-.341-7.111-.533-11.053l-.066-1.371c-.057-1.166-.115-2.367-.176-3.615l-4.707,5.375-6.235-5.221Zm979.613-9.275c-2.676,0-3.686,1.053-5.359,2.789,1.071.494,2.262.959,3.311,1.369,5.662,2.207,11.516,4.488,10.15,13.717.472-.469,1.025-.926,1.514-1.33a9.132,9.132,0,0,0,2.818-3.141c1.339-3.189,3.182-4.375,6.8-4.375a13.417,13.417,0,0,0,5.2-1.549l.073-.031c.753-.336,1.532-.684,2.3-.955l-.088-.023-.056-.016C12060.549,21206.365,12053.817,21204.475,12050.156,21204.475Zm17.942,9.158h0c-.483.752-.981,1.428-1.421,2.025l-.048.064-.007.01c-.924,1.252-1.654,2.242-1.6,3.039.078,1.131,2.043,3.105,3.091,3.105a.167.167,0,0,0,.042-.006.346.346,0,0,1,.044,0,4.731,4.731,0,0,0,3.321-3.246c.066-.826-.675-1.684-1.7-2.869-.5-.578-1.126-1.3-1.722-2.121Zm-272.486-48.754h0a7.876,7.876,0,0,0-5.7,2.652,9.5,9.5,0,0,0-1.882,5.184c-.785,7.875-1.161,15.906-1.525,23.672l-.056,1.18-.056,1.178c-.146,2.914-.118,5.865-.091,8.719.012,1.232.021,2.344.021,3.463v5.482c1.2-2.023,2.293-3.943,3.353-5.8,2.189-3.836,4.257-7.457,6.579-10.875,2.847-4.158,4.288-7.639,4.537-10.953.29-3.859-1.071-7.52-4.163-11.193-.076-.092-.154-.184-.234-.277l-.108-.129,0,0c-1.366-1.611-3.067-3.617-2.713-5.693.216-1.262,1.2-2.414,2.931-3.426.155-.088-.158-1-.49-1.965l-.007-.02C11795.866,21165.662,11795.719,21165.236,11795.612,21164.879Zm-117.37,42.41h0c-.242.352-.527.7-.8,1.043l-.016.02a5.692,5.692,0,0,0-1.534,2.762c-.052.648.574,1.346,1.442,2.313l.053.059c.45.5.96,1.076,1.468,1.748.441-.809.919-1.543,1.3-2.133.768-1.18,1.373-2.111,1.265-2.848-.118-.8-1.107-1.482-2.063-2.145l-.024-.018c-.374-.26-.762-.527-1.09-.8Zm334.731-6.717a1.447,1.447,0,0,0-.62.113,4.681,4.681,0,0,0-2.095,3.988,90.23,90.23,0,0,0,3.021,10.254,30.224,30.224,0,0,0,5.894-2.229l.009,0,.01-.006c2.657-1.219,5.405-2.48,8.164-2.48,2.673,0,5.094,1.191,7.4,3.643.978-1.645,1.962-3.277,3-5.008,2.274-3.773,4.625-7.676,6.879-11.65,4.078-7.174,7.508-14.961.92-24.312l10.852-2.977c-.483-.311-.982-.7-1.466-1.078l-.01-.008c-1.087-.844-2.212-1.719-3.189-1.719a1.859,1.859,0,0,0-.218.014,22.883,22.883,0,0,0-8.962,3.039,13.824,13.824,0,0,0-5.848,7.049,94.387,94.387,0,0,0-3.762,15.568l-.019.1c-.236,1.291-.48,2.627-.733,3.932a66.717,66.717,0,0,0-.588,8.439l-2,.539-8.909-9.979c-.225.734-.54,1.5-.819,2.166-.644,1.551-1.251,3.016-.865,4.129.478,1.25,1.778,2.18,3.285,3.258.694.5,1.413,1.012,2.116,1.6-.787-.176-1.581-.271-2.35-.365l-.029,0c-2.83-.338-5.272-.631-5.67-4.623C12016.327,21201.447,12014.2,21200.572,12012.974,21200.572Zm-94.264,3.15v0c.1,1.7.2,3.373.294,4.992l.013.209c.114,1.889.2,3.354.281,4.75l1.609.723c1.208-2.16,2.657-4.32,4.059-6.412l.013-.018c3.2-4.768,6.5-9.693,7.155-14.916.67-5.352-1.381-11-3.19-15.986l0-.008,0-.006c-.731-2.014-1.421-3.916-1.875-5.643l5.1-7.061c-5.516,1.352-8.152,2.563-9.726,4.467-1.693,2.047-2.144,4.971-2.383,9.652a29.45,29.45,0,0,1-2.353,9.637c-1.595,3.885-3.415,7.594-5.521,11.887l-.011.021-.143.291c-.824,1.682-1.678,3.422-2.567,5.279l9.252-1.861Zm22.767-11.1h0l-.032.061c-.181.336-.385.717-.588,1.117,1.125,1.986,2.212,3.959,3.144,5.654l.386.7c-.356,3.3-.685,6.4-1.047,9.818l-.028.268,1.851.391a44.932,44.932,0,0,1,3.354-5.312l.012-.018a32.518,32.518,0,0,0,4.321-7.523,13.356,13.356,0,0,0-.088-9.234c-.8,4.041-2.546,6.006-5.323,6.006a13.434,13.434,0,0,1-5.961-1.926Zm-362.974-27.854a13.809,13.809,0,0,0-5.281,1.273c-6.313,2.637-10.918,5.838-14.076,9.785a23.535,23.535,0,0,0-3.918,7.18,30.148,30.148,0,0,0-1.483,9.145c-.066,3.92.219,7.885.493,11.719v.01l.009.121c.119,1.664.242,3.385.331,5.051.545-.857,1.088-1.723,1.664-2.641l.137-.217c1.477-2.354,3-4.787,4.639-7.219.872-1.3,1.815-2.586,2.728-3.83l.021-.029a64.674,64.674,0,0,0,4.615-6.895,20.055,20.055,0,0,0,2.347-5.443,8.537,8.537,0,0,0-.982-6.168,4.007,4.007,0,0,1,.2-2.971,9.16,9.16,0,0,1,1.769-3.057,11.948,11.948,0,0,1,4.351-2.434l.027-.012c.748-.3,1.522-.605,2.269-.967,1.137.971,2.319,1.91,3.464,2.82a50.6,50.6,0,0,1,7.576,6.9c1.729,2.08,2.859,7.5,2.666,8.318q-.019.082-.056.1a3.983,3.983,0,0,0-2.3,1.953c-.339.924.112,1.879.589,2.889a6.5,6.5,0,0,1,.771,2.348,23.639,23.639,0,0,0,4.533-7.449,12.6,12.6,0,0,0,.548-6.846,12.889,12.889,0,0,0-3.46-6.229,24.687,24.687,0,0,0-7.358-5.035l-.183-.086-.01,0C11582.586,21165.643,11580.741,21164.771,11578.5,21164.771Zm-274.829,21.086a13.011,13.011,0,0,0-4.35.768,56.459,56.459,0,0,1,5.7,5.273,18.375,18.375,0,0,1,1.89,2.959l.01.018a13.9,13.9,0,0,0,2.476,3.553,77.861,77.861,0,0,0,11.038,8.4,1.843,1.843,0,0,0,1.006.248,9.666,9.666,0,0,0,2.177-.387,15.177,15.177,0,0,1,1.62-.342h3.669c-4.641-3.578-6.918-5.75-7.313-8.414s1.1-5.752,4.4-11.252l-7.594-.551-.612,3.109-.378,1.918c-.448,2.279-.872,4.432-1.3,6.609a29.685,29.685,0,0,1-2.166-4.471,10.145,10.145,0,0,0-3.84-5.443A10.941,10.941,0,0,0,11303.674,21185.857Zm634.171,13.443-1.732,6.391,3.941.658.519-6.578-2.728-.471Zm-816.843-6.178h0c.377,1.691.735,3.295,1.086,4.861l.127.566c.451,2.02.877,3.926,1.316,5.9l.1,0c.132.006.268.01.4.01a4.693,4.693,0,0,0,3.825-1.416c.967-1.186,1.162-3.1.6-5.857,3.021,4.266,5.007,6,6.858,6,1.428,0,2.827-1.01,4.678-3.379-.759-.422-1.531-.867-2.278-1.3l-.307-.178c-1.954-1.129-3.975-2.3-6.079-3.293a21.97,21.97,0,0,0-4.855-1.045Zm567.593-7.928a16.328,16.328,0,0,0-9.01,3.008c-3.194,2.145-4.831,4.07-5.307,6.244-.484,2.211.188,4.836,2.178,8.512.331-.539.744-1.115,1.143-1.674.812-1.135,1.513-2.115,1.291-2.4a3.753,3.753,0,0,1-1-2.842c.215-1.3,1.492-2.162,2.618-2.916l.083-.057c.229-.156.446-.3.647-.449a122.821,122.821,0,0,1,10.733-6.375c.164,2.5.662,3.66,1.568,3.66a4.258,4.258,0,0,0,2.026-1.023c.182-.133.405-.295.614-.434a9.281,9.281,0,0,0-3.394-2.445A10.713,10.713,0,0,0,11688.595,21185.2Zm125.175,1.363c-1.571,0-3.23.021-4.563.039l-.621.006c-1.292.016-2.627.031-3.935.031a10.253,10.253,0,0,0-.38,1.664c3.968.2,7.067,1.279,9.214,3.2,2.27,2.029,3.524,5.047,3.729,8.967,5.371-3.258,5.441-3.521,2.509-9.408a10.587,10.587,0,0,0,4.98,1.449c2.7,0,5.12-1.484,7.4-4.535-1.587-.156-3.116-.334-4.595-.506l-.025,0c-3.137-.361-6.1-.705-9.162-.824C11816.968,21186.584,11815.479,21186.559,11813.77,21186.559Zm248.478,5.43h0l-5.813,5.311c2.881,1.066,5.859,2.17,8.724,2.17a9.56,9.56,0,0,0,7.386-3.475,17.27,17.27,0,0,0,2.922-4.447,15.7,15.7,0,0,0,1.263-4.717,22.943,22.943,0,0,0-1.42-9.986,15.39,15.39,0,0,0-4.559-6.721,23.5,23.5,0,0,0-7.068-4.057c-1.146-.441-2.3-.857-3.423-1.258l-.32-.117c-.513-.184-1.043-.375-1.562-.566-.39,1.238-.772,2.516-1.143,3.75l-.052.174c-.07.232-.14.465-.21.7q-.171.574-.344,1.145c5.667,1.264,9.823,4.229,11.7,8.348a12.05,12.05,0,0,1,1.037,5.914,16.222,16.222,0,0,1-2.021,6.568c-.461.867-1.639,1.326-2.778,1.768l-.03.014a14.074,14.074,0,0,0-1.522.664l-.766-1.178Zm-153.143-15.729h0a25.426,25.426,0,0,0-8.867,10.535,16.142,16.142,0,0,0-.829,11.916,11.3,11.3,0,0,1,2.994-5.035,6.988,6.988,0,0,1,4.785-1.73,12.509,12.509,0,0,1,3.329.5,8.094,8.094,0,0,0-.739-3.926,2.451,2.451,0,0,0-2.3-1.3c-1.3,0-3.057.672-5.359,2.053a37.647,37.647,0,0,1,3.408-3.357l.014-.012c3.181-2.865,5.693-5.129,3.563-9.643Zm-229.038-5.449c-.4.088-1.011.158-1.661.232-1.538.174-3.453.389-3.585.977a55.486,55.486,0,0,0-1.086,13.123c.018.559,1.326,1.086,2.592,1.6l.013,0,.014.006c.6.242,1.222.494,1.7.746.218-.453.5-.918.745-1.328a6.845,6.845,0,0,0,1.187-2.826c.181-2.857.146-5.7.11-8.713v-.119c-.015-1.2-.029-2.441-.029-3.7Zm234.594,10.682a.521.521,0,0,0-.165.025,5.983,5.983,0,0,0-2.989,3.236c-.05.127.05.385.28.725.486.713,1.546,1.752,2.1,1.752a.181.181,0,0,0,.059-.006,6.611,6.611,0,0,0,2.79-1.588l.019-.016c.519-.4,1.106-.85,1.791-1.312-.687-.5-1.31-1.033-1.811-1.463C11915.851,21182.09,11915.153,21181.492,11914.66,21181.492Zm18.7-2.684v0l-1.07,2.166a22.066,22.066,0,0,1,1.422,1.781l.028.039c1.016,1.369,2.066,2.783,3,2.783.021,0,.043,0,.064,0a41.172,41.172,0,0,0,8.674-1.873c1.017-.3,2.282-.668,3.482-.973,0-.234-.009-.467-.014-.7-.01-.594-.021-1.107-.034-1.572l-15.558-1.65Zm-617.23-1.75c-1.014,0-2.931,1.969-2.931,3.01a6.078,6.078,0,0,0,1.567,3.023l.008.01c.288.373.646.838.928,1.287l5.449-4c-.75-.537-1.4-1.072-1.979-1.545l-.025-.021c-1.216-1-2.095-1.725-2.985-1.764Zm-230.379-4.746a15.006,15.006,0,0,0-1.708,2.076l.4-.482.165-.2.01-.014C11084.984,21173.24,11085.369,21172.771,11085.749,21172.313Zm359.26-110.2c.053.068.1.135.144.2.906,1.4.54,3.371.063,5.113a81.073,81.073,0,0,1-3.095,8.445l-.006.014c-.475,1.16-.966,2.359-1.429,3.559a23.585,23.585,0,0,0-.276,11.1,15.887,15.887,0,0,0,6.522,9.088,25.749,25.749,0,0,1,3.686,3.576,28.71,28.71,0,0,0,3.374,3.344,6.143,6.143,0,0,0,3.239.813c.513.039,1.095.084,1.611.174-1.081-1.307-2.177-2.553-3.235-3.758l-.013-.014,0-.006c-2.947-3.348-5.73-6.51-7.286-10.084-1.728-3.967-1.777-8.041-.157-12.822,1.645-4.865,3.345-9.895,3.4-14.75a17.764,17.764,0,0,0-1.315-7.119,20.374,20.374,0,0,0-4.885-6.9c-1.405-1.332-2.67-3.643-2.124-5.57.435-1.539,1.9-2.58,4.359-3.1.346-.057.571-.65.833-1.338a10.727,10.727,0,0,1,.429-1.02h-.019c-4.41,0-6.462.174-7.75,1.248-1.382,1.152-1.779,3.441-2.27,7.072-.144,1.07-.333,2.156-.5,3.113-.109.623-.222,1.27-.324,1.914-.577,3.561.73,5.588,4,6.2-.53.27-1.23.535-1.849.771-1.4.531-2.845,1.082-2.893,1.717-.322,4.461-.289,8.914-.251,14.072v.008l0,.2c.012,1.7.024,3.453.024,5.307l3.626-3.213c.44-1.139.911-2.295,1.367-3.41l.056-.137a83.561,83.561,0,0,0,3.107-8.465c.473-1.639.9-3.7-.011-5.131-.051-.078-.1-.146-.149-.211h0l-.041-.053A.536.536,0,0,1,11445.009,21062.115Zm351.59,31.777a45.4,45.4,0,0,1,8.1.705,38.46,38.46,0,0,1,7.7,2.238,37.785,37.785,0,0,1,7.256,3.971,43.332,43.332,0,0,1,6.759,5.885l1.316-.588c-.523-2.437-1.118-5.187-1.818-8.406l6.492-6.061-1.069-.988-17.842,2.869-.728-1.432c6.98-4.521,9.989-11.67,12.9-18.582.828-1.969,1.684-4,2.622-5.943,2.2-4.541,1.531-11.273.177-16.061-2.577-9.129-7.745-13.959-15.36-14.357-.067,0-.137,0-.205,0a11.666,11.666,0,0,0-3.359.689c-.618.193-1.175.363-1.74.492l-.315,1.738c3.534.377,5.493,1.209,6.166,2.617.62,1.3.143,3.139-1.46,5.623-.915,1.406-.96,3.865-.139,7.52a67.814,67.814,0,0,0,2.057,6.975l.007.02.007.02c.6,1.781,1.213,3.625,1.694,5.469,2.063,7.863.147,15.109-5.7,21.537a6.277,6.277,0,0,1-3.1,1.295,16.583,16.583,0,0,0-1.613.432c-.36-1.344-.782-2-1.29-2-.44,0-.9.479-1.352.943a3.11,3.11,0,0,1-1.193.926l-9.932-14.205c-1.5,2.088-2.068,3.945-1.752,5.674.473,2.578,2.954,4.535,5.319,6.109-1.311-.117-2.434-.174-3.434-.174-2.784,0-4.6.453-5.9,1.471-1.263.99-2.079,2.564-2.648,5.1A64.527,64.527,0,0,1,11796.6,21093.893Zm-688.705,3.889-7.557,3.1a17.387,17.387,0,0,0,4.985,4.057,11.583,11.583,0,0,0,5.353,1.318,15.5,15.5,0,0,0,6.984-1.859,11.212,11.212,0,0,0,5.428-5.633,14.31,14.31,0,0,0,.605-8.311,40.028,40.028,0,0,0-6.859-15.551,90.249,90.249,0,0,0-11.292-12.617c0,1.8.049,3.631.1,5.4v.006a87.13,87.13,0,0,1-.24,12.127,16.788,16.788,0,0,0,1.033,8.113,26.806,26.806,0,0,0,4.181,6.877c1.13,1.434,2.2,5,1.637,5.451a12.725,12.725,0,0,1-4.541,1.744l-.015,0c-.6.146-1.278.314-1.915.508l-.615-1.689,3.08-2.354Zm-22.151,7.076c.29.172.568.35.791.492a6.291,6.291,0,0,1,.466-.471l-.018.006a.2.2,0,0,1-.047.008C11086.593,21104.875,11086.225,21104.865,11085.742,21104.857Zm243.478-2.043v0l.1.063c3.542,1.109,6.733,2.027,9.9,2.027a13.614,13.614,0,0,0,9.29-3.572c3.41-3,6.11-7.846,7.409-13.281a28.077,28.077,0,0,0,.773-7.949,19.528,19.528,0,0,0-1.712-7.3,23.171,23.171,0,0,0-12.512-11.51l-.007,0c-1.021-.461-2.18-.986-3.354-1.594l.013-.012c3.036-2.328,6.176-4.734,7.982-7.477,1.963-2.979,2.216-6.086.8-9.775a11.637,11.637,0,0,0-4.187-5.379,25,25,0,0,0-6.145-2.965c0,1.922.028,3.77.057,5.557l0,.15c.065,4.084.127,7.939-.166,11.754a7.6,7.6,0,0,1-2.026,5.244c-1.249,1.186-3.085,1.76-5.614,1.76-.313,0-.625-.008-.927-.023-.537-.027-1.059-.041-1.55-.041-3.57,0-5.873.734-7.246,2.311a6.662,6.662,0,0,0-1.472,3.6,20.372,20.372,0,0,0,.16,5.436l11.472-3.176-.306-1.07-8.54.432c.028-.354.054-.717.079-1.09l0-.033c.025-.357.051-.727.079-1.084.027,0,.056,0,.084,0a17.168,17.168,0,0,0,3.344-.455l.006,0a17.035,17.035,0,0,1,3.313-.451,5.674,5.674,0,0,1,2.688.615,6.966,6.966,0,0,1,2.514,2.371c1.185,1.723,2.456,3.445,3.686,5.111l.053.072c2.121,2.871,4.312,5.836,6.167,8.936,2.093,3.5,4.7,7.857,5.155,12.125a7.522,7.522,0,0,1-1.966,5.967,9.979,9.979,0,0,1-7.349,3.2,9.33,9.33,0,0,1-3.842-.811,3.383,3.383,0,0,0-1.406-.238c-.4,0-.83.031-1.351.072l-.114.01c-.548.041-1.169.088-1.835.088a5.716,5.716,0,0,1-2.546-4.494,19.552,19.552,0,0,1,.687-5.479l.01-.045c.208-.963.424-1.959.565-2.932-3.352,1-5.436,1.857-6.168,3.311-.682,1.35-.235,3.219.767,5.99.405,1.133.884,2.453,1.354,3.668-.551-.885-1.128-1.762-1.687-2.611l-.055-.082c-.832-1.262-1.692-2.566-2.447-3.873a13.525,13.525,0,0,0-3.823-4.535,7.6,7.6,0,0,0-4.452-1.432,9.686,9.686,0,0,0-2.677.4,100.587,100.587,0,0,0,7.4,9.414l.22.227c2.5,2.584,5.086,5.256,8.822,5.256a8.8,8.8,0,0,0,2.531-.391Zm-244.288-51.027a14.159,14.159,0,0,1,8.838,2.947c-.9.8-1.792,1.568-2.631,2.289l-.011.01c-1.819,1.566-3.537,3.047-5.124,4.633-3.309,3.332-6.544,6.822-9.673,10.2l-.012.012q-.722.776-1.444,1.557c-6.045,6.533-8.7,18.863-5.461,25.371,2.8,5.613,7.553,6.082,12.184,6.082.6,0,1.226-.006,1.732-.01l.048,0c.722-.012,1.233-.016,1.712-.016.229,0,.444,0,.652,0-.907-.535-1.911-1.051-2.882-1.549l-.08-.041-.012,0c-2.986-1.529-6.074-3.111-7.247-5.566-2.043-4.25,2.916-7.615,6.824-9.777a18.009,18.009,0,0,0,7.877-7.9,22.359,22.359,0,0,0,1.867-10.982,20.307,20.307,0,0,1,1.129-6.377l0-.016c.265-.916.564-1.955.781-2.949l2.118.363c-.114,1.609-.227,3.254-.444,6.52,2.851-5.117,5.371-8.646,7.93-11.105,3.128-3.008,6.375-4.471,9.928-4.471a15.475,15.475,0,0,1,5.229.98,27.538,27.538,0,0,1,5.965,3.119l.894-1.166a20.711,20.711,0,0,1-.783-1.961l-.006-.018c-.545-1.506-1.107-3.061-2.184-3.729a24.582,24.582,0,0,0-6.353-2.439l-.061-.016c-.8-.223-1.549-.432-2.226-.664,4.52-3.252,6.54-4.877,7.347-6.52s.293-3.227-1.169-6.139c-2.025,1.945-4.258,3.76-6.417,5.514l-.014.01-.006.006a71.294,71.294,0,0,0-8.888,8.086,26.462,26.462,0,0,0-5.93,10.906l-2.235-.631q-.929-2.6-1.861-5.215l-.035-.1-.27-.756c-1.928-5.4-3.922-10.986-5.99-16.8a10.133,10.133,0,0,1-1.024.607l0,0c-1.108.609-2.488,1.369-2.772,2.428a19.366,19.366,0,0,0-.289,5.953c.043.811.091,1.729.091,2.6-3.231.186-5,.729-6.108,1.873-1.145,1.184-1.673,3.07-1.822,6.512A24.722,24.722,0,0,1,11084.932,21051.787Zm468.4,22.121h0c-2.563,6.818-3.737,11.184-2.6,14.723a11.53,11.53,0,0,0,3.375,4.879,53.405,53.405,0,0,0,7.091,5.262,8.37,8.37,0,0,1,1.481,1.369l.007.008a9.5,9.5,0,0,0,1.325,1.26c1.009.758,2.1,1.453,3.156,2.125l.007.006.1.061c.628.4,1.277.814,1.907,1.242l2.643-5.664c-.15.135-.3.279-.461.43l0,0c-.569.541-1.159,1.1-1.609,1.1a.431.431,0,0,1-.112-.014,10.563,10.563,0,0,1-4.631-2.8,23.981,23.981,0,0,1-4.053-5.248c-2.578-4.432-3.637-9.012-2.762-11.951a49.156,49.156,0,0,1,4.258-9.861,22.646,22.646,0,0,0,2.781-7.3,16.253,16.253,0,0,0-.615-7.9c-.307-.92.333-2.643,1.057-3.854.65-1.088,1.359-1.793,1.9-1.885a36.043,36.043,0,0,1,6.028-.424c1.3,0,2.674.037,3.776.068l.245.008c1.158.031,2.356.063,3.528.063.013.309.029.625.047.93l0,.043c.034.609.069,1.24.069,1.863l-12.6.574v1.9h15.793c-.666-3.691-1.429-6.5-2.99-8.187a6.011,6.011,0,0,0-2.776-1.682,14.593,14.593,0,0,0-4.224-.492c-.862,0-1.829.035-2.957.111a35.1,35.1,0,0,0-7.229,1.576c-.987.289-2.107.617-3.2.887l.048-.049.161-.166c-.031-.018-.062-.031-.1-.047l-.021-.012-.035-.016-.034-.014c0,.035.007.074.011.111l0,.018c0,.035.006.07.009.1l-7.364,6.787a43.218,43.218,0,0,1,3.861,5.824c.136.273-.472.906-1.06,1.518l0,0c-.258.27-.551.572-.761.832l-3.732-4.316c-4.608,6.992-5.73,14.131-3.53,22.463Zm-362.068-36.871c-4.7,0-7.911,1.461-9.806,4.465-1.8,2.861-2.138,6.789-2.227,9.891-.057,1.91-.17,3.832-.28,5.691v.029a94.8,94.8,0,0,0-.212,11.445,37.949,37.949,0,0,0,2.564,11.869,56.918,56.918,0,0,0,5.619,11.268,26.809,26.809,0,0,0,8.854,8.264,12.624,12.624,0,0,1,2.2,1.828c.992.953,1.929,1.854,2.723,1.854a.941.941,0,0,0,.2-.021c1.047-.221,2.1-.371,3.118-.516l.119-.018a29.655,29.655,0,0,0,5.309-1.082,15.122,15.122,0,0,0,5.354-3.094c8.311-7.248,12.588-16.367,13.462-28.7a87.307,87.307,0,0,0,.024-14.646,42.587,42.587,0,0,0-3.79-14.314,3.892,3.892,0,0,1-.024-2.123c.063-.432.143-.969.175-1.539.81.314,1.622.551,2.339.76l.007,0a9.19,9.19,0,0,1,4.131,1.957,10.5,10.5,0,0,1,2.031,4.295l0,.012.012.039c.211.682.428,1.387.69,2.068,1.973-.633,3.127-1.521,3.527-2.717.49-1.465-.159-3.437-1.986-6.027,3.765,1.744,6.7,2.557,9.233,2.557a10.4,10.4,0,0,0,7.009-2.654c-1.128-.27-2.254-.588-3.343-.895l-.08-.021a35.836,35.836,0,0,0-7.477-1.564c-.7-.043-1.425-.1-2.125-.146l-.02,0-.054,0c-1.872-.137-3.809-.277-5.69-.277a19.394,19.394,0,0,0-7.407,1.182,12.728,12.728,0,0,1-9.776.246l-2.765-.92a12.975,12.975,0,0,0,1.2,3.314,3.471,3.471,0,0,0,1.945,1.83c2.857.785,3.784,2.338,4.058,3.5a4.934,4.934,0,0,1-1.527,4.57,14.128,14.128,0,0,0-4.932,9.674,35.342,35.342,0,0,0,1.084,10.082l0,.016c.228,1.1.441,2.145.619,3.188.892,5.193,1.029,8.986.448,12.3a19.724,19.724,0,0,1-5.577,10.6,11.714,11.714,0,0,0-2.054,3.512l-.009.021c-.239.541-.465,1.053-.713,1.516l-.008,0a19.885,19.885,0,0,0-2.021.139l-.059.006c-.641.063-1.246.125-1.824.125a3.874,3.874,0,0,1-1.9-.389c-9.335-5.143-13.8-17.18-10.177-27.4a24.629,24.629,0,0,0,1.6-10.465,20.228,20.228,0,0,0-3.8-9.953c-1.378-1.92-1.975-4.459-2.55-6.914l-.007-.029c-.287-1.219-.583-2.479-.973-3.646l1.626-.775,2.813,1.834,1.412-5.1C11191.465,21037.037,11191.362,21037.037,11191.259,21037.037Zm277.43,46.334a7.852,7.852,0,0,0-3.942,1.254c.468.576,1.019,1.148,1.552,1.7l.029.031a11.953,11.953,0,0,1,2.986,4.09c1.935,5.725-1.689,7.969-5.525,10.346l-.034.021a34.656,34.656,0,0,0-3.217,2.164,22.944,22.944,0,0,0,9.621-.117,14.711,14.711,0,0,0,7.65-4.818,40.9,40.9,0,0,0,4.8-7.518,43.29,43.29,0,0,1,5.135-8,16.6,16.6,0,0,0-3.292-.373c-4.294,0-6.687,2.371-8.538,8.459a16.774,16.774,0,0,0-3.319-5.475A5.388,5.388,0,0,0,11468.688,21083.371Zm200.837,5.02h0a28.161,28.161,0,0,0-4.649,4.709,7.639,7.639,0,0,0-1.7,3.891,3.371,3.371,0,0,0,.96,2.605,10.094,10.094,0,0,0,7.129,2.768,7.278,7.278,0,0,0,6.166-2.768c2.267-3.254.619-6.236-1.289-9.689-.564-1.021-1.146-2.074-1.652-3.184-1.452,2.721-2.295,4.34-3.529,6.738l-.388-1.369C11670.151,21090.613,11669.846,21089.533,11669.525,21088.391Zm33.875-.727h0c-4.99,8.834-4.99,8.834,2.353,14.471,3.95-1.535,6.254-2.74,7.11-4.709a7.484,7.484,0,0,0,.038-4.766,60.362,60.362,0,0,0-2.795-8.082c.106,2.318-.186,3.8-.891,4.543a1.754,1.754,0,0,1-1.322.535c-1.3,0-3-1.029-4.493-1.992Zm-131.382,11.07h0l-.2.443a4.754,4.754,0,0,1,.369-.314l-.018-.012c.052-.045.1-.086.158-.127l.03-.023c-.039.008-.079.014-.119.023h-.009c-.061.012-.118.023-.177.029l-.032-.02Zm5.459-17.758v0c3.43,3.916,4.8,7.137,4.185,9.842-.561,2.467-2.764,4.494-6.735,6.2a17.529,17.529,0,0,0-2.572,1.684c3.631-.682,7.161-1.361,10.466-2a21.877,21.877,0,0,1,2.148-.623l.015,0c1.582-.4,3.218-.82,4.17-1.861a110.061,110.061,0,0,0,7.675-9.686l.02-.027c.712-.971,1.6-2.18,2.482-3.357-.742-.07-1.43-.107-2.045-.107h-.047a9.161,9.161,0,0,0-5.191,1.283,7.788,7.788,0,0,0-3,4.492,32.355,32.355,0,0,1-2.8,5.455,13.439,13.439,0,0,0,.759-5,5.227,5.227,0,0,0-2.655-4.1,15.384,15.384,0,0,0-4.645-1.617l-.015,0h-.008c-.729-.172-1.481-.35-2.206-.566Zm206.522.371a1.444,1.444,0,0,0-.367.051c-1.106.34-2.642,2.184-2.45,2.943a5.374,5.374,0,0,0,1.909,2.367l.012.01c.354.309.72.629,1.031.955l3.605-4.529a16.142,16.142,0,0,1-1.661-.914A4.633,4.633,0,0,0,11784,21081.348Zm-463.867-1.811a2.944,2.944,0,0,0-1.5.414,22.971,22.971,0,0,0-2.081,4.818l7.295-.92a17.335,17.335,0,0,0-2.315-3.963A2.981,2.981,0,0,0,11320.133,21079.537Zm358.615-41.875a11.792,11.792,0,0,0-6.731,2.039,12.042,12.042,0,0,0-4.48,6.023c-2.4,6.83-3.242,14.467-3.755,21.039a35.66,35.66,0,0,0,.993,9.441c.291,1.51.591,3.068.82,4.678.764-1.322,1.487-2.613,2.188-3.861l.066-.117c1.5-2.684,2.923-5.217,4.521-7.682.477-.748.979-1.5,1.464-2.227l.039-.059c1.9-2.84,3.855-5.775,4.69-8.9a11.855,11.855,0,0,0,.306-4.9,14.473,14.473,0,0,0-2.118-5.48c-.816-1.314.807-4.641,2.021-6.428.124-.18.4-.262.856-.262a12.4,12.4,0,0,1,1.469.135l.092.014a13.642,13.642,0,0,0,1.715.146,3.965,3.965,0,0,0,.574-.035,31.469,31.469,0,0,0,4.52-1.244,8.66,8.66,0,0,1-2.354-.463A14.224,14.224,0,0,0,11678.748,21037.662Zm13.63,1.756h0a24.426,24.426,0,0,1,4.186,2.172,5.322,5.322,0,0,1,2.025,2.262c.716,1.688.221,3.879-.944,7.332-1.046,3.262-1.452,7.658,0,10.129a124.366,124.366,0,0,0,9.565,13.416l0,.006c1.344,1.719,2.733,3.494,4.074,5.287a10.617,10.617,0,0,0,.3-4.105,6.481,6.481,0,0,1,.217-2.955,22.63,22.63,0,0,0,1.918-8,24.46,24.46,0,0,0-.835-7.5c-1.3-4.971-3.92-9.764-6.233-13.992-2.539-4.656-6.393-7.117-11.145-7.117a17.335,17.335,0,0,0-6.873,1.555c-.269.115-.248.98-.231,1.674v.033q0,.19.006.357a.2.2,0,0,0-.054-.029c-.02-.018-.04-.033-.061-.049l-.006-.006-.046-.035-.021-.016.05.053-.009,0a.016.016,0,0,0-.01,0l-.184.064-.072.029h.095c.091,0,.183.006.273.006l.043.051v-.049l.011,0,.245.189.244.188c.906.693,1.763,1.348,2.7,2.016.241-.91.489-1.881.765-2.961Zm-104.037,31.924h0l-3.743,5.246,1.775,1.775,5.166-3.766-3.2-3.256Zm216.06-39.35c-1.4,0-2.511,1.2-3.413,2.377a14.7,14.7,0,0,1-4.343,4.092c-6.59,3.475-10.234,9.158-11.141,17.371a22.647,22.647,0,0,0,.03,6.176,7.845,7.845,0,0,0,1.723,3.973,6.449,6.449,0,0,0,5.04,1.926,20.531,20.531,0,0,0,6.149-1.154,33.1,33.1,0,0,1,3.589-.707l-5.589-4.988c-.5.992-.9,1.854-1.375,2.875-.163.352-.33.711-.507,1.088a15.457,15.457,0,0,1-2.875-10.83,17.171,17.171,0,0,1,5.228-10.406c2.336-2.234,4.792-4.309,7.393-6.5l0,0,.175-.148c1.145-.967,2.327-1.965,3.516-2.994C11806.657,21032.693,11805.479,21031.992,11804.4,21031.992Zm116.376,4.633c-9.592,0-17.825,9.887-21.485,25.795,1-.732,1.94-1.342,2.771-1.881a14.845,14.845,0,0,0,4.042-3.295,16.469,16.469,0,0,0,2.13-4.857l0-.012.018-.055c.27-.838.547-1.7.886-2.586,1.057,4.973,1.44,6.4,3.24,6.4a13.789,13.789,0,0,0,3.269-.684c-2.729-3.561-3.472-6.873-2.269-10.125,1.006-2.723,3.4-5.488,7.525-8.7h-.065l-.033,0Zm-372.818-.834a13.545,13.545,0,0,0-7.039,2.387c.881.342,1.761.672,2.692,1.02l.328.123c2.058.77,4.389,1.641,6.617,2.6,2.727,1.154,5.41,2.441,8.006,3.688l.013.008.569.271c.642.309,1.3.627,1.952.934-.031-.406-.031-.809-.031-1.236a4.951,4.951,0,0,0,2.738-2.73,11.781,11.781,0,0,0,.6-3.564v-.008c.132-1.965.269-4,1.9-5.408-3.9.795-5.882,1.734-6.823,3.24a5.251,5.251,0,0,0-.678,2.988,20.319,20.319,0,0,0,.757,4.445l1.5,1.037-1.53-1.037c-.334-.385-.682-.771-1.018-1.146l-.045-.051-.006-.006c-.759-.846-1.544-1.721-2.252-2.637C11553.7,21037.4,11551,21035.791,11547.958,21035.791Zm-224.11,2.074h0c-1.56,3.8-1.887,5.7-1.167,6.779.546.814,1.708,1.162,3.885,1.162.192,0,.389-.006.6-.012l.052,0h.031c-.361-1.59-.724-3.193-1.077-4.762l-.2-.875q-.362-1.605-.726-3.215c.156-1.076.106-1.771-.147-2.066a.478.478,0,0,0-.379-.166c-.508,0-1.229.6-1.707.992l-.089.072c-.094.078-.175.145-.245.2-2.632,1.93-5.1,3.963-7.716,6.115l-.047.039-.184.152c-.895.736-1.82,1.5-2.749,2.25a10.6,10.6,0,0,0,3.3.594,6.946,6.946,0,0,0,5.112-2.244A23.681,23.681,0,0,0,11323.848,21037.865Zm98.224-3.162c-1.621,0-3.213.912-6.218,2.844q.989.267,2,.545c2.673.723,5.306,1.438,8.128,2.23,2.256.629,4.6,1.3,6.617,1.875,1.563.447,3.192.91,4.438,1.264l-3.535-12.316c-1.531,2.191-3.157,4.52-4.707,6.75C11425.425,21035.676,11423.771,21034.7,11422.071,21034.7Zm-342.009,2.4-5.883,1.588,1.609,4.381,5.4-3.145Zm621.867-62.342h0l7.969,3.293a41.661,41.661,0,0,1-5.082-7.928,18.459,18.459,0,0,1-1.852-7.533,20.968,20.968,0,0,1,1.659-8.176,53.218,53.218,0,0,1,5.45-9.863,21.4,21.4,0,0,0,1.578-3.668l-2.354-1.7-9.358,5.861a7.791,7.791,0,0,0-6.879-3.561c-.435,0-.9.025-1.368.07,4.744,6,7.377,11.684,8.052,17.363a24.961,24.961,0,0,1-.647,9.227,33.9,33.9,0,0,1-4.4,9.742l7.236-3.133Zm-374.919-14.072h0l-.139,1.445,8.915.605v.727l-8.364.408c.414.084.838.168,1.248.248l.349.068c3.677.715,7.478,1.453,10.365,3.316a10.533,10.533,0,0,1,3.587,3.781,14.961,14.961,0,0,1,1.715,6.334l1.481-.354c.717-2.547,1.558-5.5,2.5-8.766l13.364-2.508-.4-1.932-34.619-3.377Zm-211.389-53.684v0a13.214,13.214,0,0,1,.718,6.98,18.419,18.419,0,0,1-2.318,5.74c-.5.881-1.051,1.771-1.582,2.631l-.05.08,0,.006a32.076,32.076,0,0,0-3.678,7.232,12.017,12.017,0,0,0,.393,8.369c.763,1.852,1.459,3.764,2.132,5.615l.023.064.03.084c.685,1.879,1.392,3.82,2.168,5.7,1.555,3.691,1.885,6.639,1.039,9.273-.832,2.6-2.808,4.885-6.216,7.2a74.894,74.894,0,0,0-6.827,5.453c-1.03.891-2.2,1.9-3.437,2.922a9.111,9.111,0,0,0,4.391,1.3c2.672,0,4.551-1.689,6.208-3.182l.01-.008a14.537,14.537,0,0,1,2.409-1.895,24.061,24.061,0,0,0,11.453-13.664c1.872-5.379,2.29-11.467,2.694-17.354l0-.041c.193-2.807.394-5.711.749-8.492l1.728-.859,9.91,12.439c2.452-3.014,3.4-5.635,2.817-7.8-.568-2.109-2.613-3.842-6.079-5.148,4.307-2.1,6.68-3.479,7.7-5.146,1.006-1.648.718-3.537-.26-6.895l-16.724,9.418a31,31,0,0,1-1.538-8.84c-.267-3.488-.518-6.781-2.047-9.23a7.519,7.519,0,0,0-3.406-2.936,15.307,15.307,0,0,0-6.282-1.094h-.294l.089.41c.131.613.26,1.213.386,1.809.326,1.525.663,3.1,1.022,4.734l2.668-4.881Zm700.855,62.381a13.125,13.125,0,0,1,3.126,3.031c.973,1.771,2.069,2.67,3.257,2.67a4.19,4.19,0,0,0,2.969-1.738,66.227,66.227,0,0,0,4.989-7.156c-.548-1.965-1.164-4.152-1.816-6.469l-.169-.6-.229-.812c-.731-2.6-1.488-5.287-2.246-8-.074-.27-.144-.549-.21-.822l0-.02c-.414-1.686-.842-3.428-2.706-3.428a5.606,5.606,0,0,0-2.01.467,28.871,28.871,0,0,1-2,11.561,18.946,18.946,0,0,1-7.875,8.9l1.011,1.605,12.568-4.207-.044.244,0,.012c-.246,1.354-.584,3.207-.906,4.764Zm-616.045-7.018h0c-.164,1.037-.443,2.119-.713,3.164v.006c-.61,2.367-1.24,4.814-.57,6.789.581,1.752,4.15,2.668,7.375,2.668a14.183,14.183,0,0,0,3.793-.473,4.956,4.956,0,0,0,2.561-1.469c.833-1.043.32-3.191-.177-5.27l-.007-.029c-.2-.854-.415-1.734-.522-2.514a15.5,15.5,0,0,0-.7-2.354,35.374,35.374,0,0,1-6.337.965,9.292,9.292,0,0,1-3.3-.934l-.058-.023C11201.337,20962.717,11200.882,20962.525,11200.433,20962.373Zm231.3-3.588h0c-2.713,3.9-4.237,6.191-4.033,8.057.2,1.842,2.03,3.383,5.521,6.17l8.038-2.8c-.207-1.324-.418-2.7-.621-4.025l-.147-.961-.019-.121c-.287-1.873-.583-3.811-.876-5.67l-4.814,3.332-3.048-3.979Zm-358.878-16.137a9.646,9.646,0,0,0-4.847,1.285c.863.979,1.737,1.932,2.583,2.855l0,0a77.676,77.676,0,0,1,5.826,6.863,49.752,49.752,0,0,1,3.08,5.023l0,.01a40.208,40.208,0,0,0,3.835,5.994,32.77,32.77,0,0,0,8.569,7.061,2.855,2.855,0,0,0,1.47.334,10.284,10.284,0,0,0,2.047-.279l.011,0,.064-.014a4.7,4.7,0,0,1,.75-.125c-.651-1.721-1.423-3.334-2.169-4.895-1.562-3.264-3.037-6.348-2.837-9.4.2-3.07,1.91-6.006,3.889-9.4.912-1.564,1.854-3.184,2.748-4.986l-10.964,2.137a25.2,25.2,0,0,1,6.314-8.814,16.508,16.508,0,0,1,10.217-3.832c.645-.039,1.26-.943,1.856-1.816a13.143,13.143,0,0,1,.839-1.146,11.334,11.334,0,0,1-.978-.883l-.017-.018a4.442,4.442,0,0,0-2.172-1.457,10.7,10.7,0,0,0-1.546-.109,20.961,20.961,0,0,0-10.779,3.654c-3.622,2.342-6.352,5.34-7.489,8.227-.829,2.066-.909,3.637-.238,4.668.617.947,1.885,1.463,3.768,1.527-.522.023-1.078.1-1.615.176l-.037,0a14.7,14.7,0,0,1-1.966.188,3.65,3.65,0,0,1-1.548-.289c-2.768-1.283-5.718-2.537-8.666-2.537Zm474.773,2.508h0a24.116,24.116,0,0,0,2.865,16.314,21.274,21.274,0,0,0,12.55,9.705,10.97,10.97,0,0,0,2.931.52,3.662,3.662,0,0,0,2.616-.982,10.506,10.506,0,0,0,2.128-3.242,15.208,15.208,0,0,1-3.545.436,10.864,10.864,0,0,1-6.9-2.258,10.513,10.513,0,0,1-3.674-6.66,36.658,36.658,0,0,1,1.3-17.008c.206-.627.419-1.252.6-1.779a32.277,32.277,0,0,0,1.891-7.318,12.7,12.7,0,0,0-1.629-7.625,4.836,4.836,0,0,1,.042-3.422,9.9,9.9,0,0,1,1.792-3.5c.189-.219.376-.451.574-.7l.064-.08c1.1-1.367,2.341-2.916,4.3-2.916a5.471,5.471,0,0,1,2.762.879,8.863,8.863,0,0,0,4.127.793c1.719,0,3.025-.289,3.179-.7.749-1.975,1.671-2.977,2.739-2.977,1.449,0,2.809,1.818,3.462,2.691,2.348,3.115,5.268,6.99,5.532,10.773a45.891,45.891,0,0,1-1.085,10.977l0,.012c-.367,2.033-.746,4.137-.961,6.205-.105.963-.248,1.963-.386,2.93l-.006.041c-.494,3.471-1,7.061-.09,10.17l.09.307c.982,3.348,1.523,5.191,1.237,6.57-.291,1.4-1.446,2.293-3.766,3.643l-8.648-.469-.091,2.752h.016c1.246,0,2.57.121,3.851.236l.071.008c1.265.113,2.572.23,3.8.23a9.89,9.89,0,0,0,4.343-.8c3.251-1.559,5.718-4.881,8.1-8.092l.177-.238c.285-.383.58-.779.866-1.156a4.848,4.848,0,0,0,.5-2.795,4.749,4.749,0,0,1,.516-2.816c3.832-4.93,4.455-10.924,1.851-17.818a106.023,106.023,0,0,0-10.5-19.687c-1.71-2.631-5.257-4.381-8.108-5.787a4.117,4.117,0,0,0-1.754-.322,4.744,4.744,0,0,0-3.273,1.039c-1.479,1.83-2.581,2.574-3.8,2.574a5.247,5.247,0,0,1-3.139-1.4,4.615,4.615,0,0,0-4.284-.322,156.978,156.978,0,0,0-13.813,10.43c-.46.391-.264,1.561-.036,2.918v.008c.12.721.244,1.463.3,2.2-2.557,1.01-4.433,3.768-5.146,7.563a26.24,26.24,0,0,0,1.825,14.055Zm-218.542-42.348c-4.646.883-7.58,1.473-9.253,2.439s-2.131,2.33-2.416,4.654a283.3,283.3,0,0,0-2.486,28.48,194.49,194.49,0,0,0,.927,20.387l.03.375c.109,1.363.223,2.771.326,4.148a5.359,5.359,0,0,0,2.354,3.283.4.4,0,0,0,.245.059c.669,0,2.268-.764,2.418-1.363.3-1.2.2-3.324-.568-3.812a4.25,4.25,0,0,1-2.312-3.535,10.479,10.479,0,0,1,1.04-3.926,42.249,42.249,0,0,1,3.283-7.215c3.888-6.01,5.929-10.955,6.423-15.561.607-5.654-1.108-10.937-5.246-16.152-1.646-2.074-2.278-4.281-1.692-5.9.543-1.494,2.055-2.506,4.5-3.012.493-.1.855-.74,1.357-1.623l.021-.039A18.376,18.376,0,0,1,11329.091,20902.809Zm345.034-.318h0a33.808,33.808,0,0,1-3.033,2.287c-2.327,1.627-4.729,3.307-4.957,5.223a219.3,219.3,0,0,0-1.257,25.475c-.02,1.85-.041,3.947-.075,5.988-.027,1.971,1.409,3.367,2.678,4.6l.015.014a6.9,6.9,0,0,1,1.677,2.059c3.843,10.148,9.467,14.477,18.8,14.477a36.322,36.322,0,0,0,4.941-.359c-8.853-3.533-13.416-5.842-15.409-9.4a12.008,12.008,0,0,1-1.209-6.748,64.867,64.867,0,0,1,1.836-10.586c1.2-5.219.313-9.344-3.07-14.238a52.278,52.278,0,0,1-4.493-8.691c-.541-1.23-1.154-2.625-1.8-3.961l1.834-1.445,3.952,2.627c.36-1.613.845-3.879,1.271-5.879l0-.01-1.706-1.434Zm-462.494,2.918v0c-4.985.4-7.546,1.088-9.133,2.449-1.774,1.525-2.3,3.961-2.585,7.4-.1,1.324-.249,2.67-.393,3.971a65.573,65.573,0,0,0-.527,7.164c-.054,7.209-.035,14.572-.018,21.693v.07c.01,3.922.018,7.465.018,11.08,1.175-2.057,2.384-4.18,3.451-6.053,2.873-5.043,5.843-10.258,8.86-15.457,3.563-6.2,3.312-12.3-.77-18.666a68.16,68.16,0,0,1-3.456-6.314l-.02-.039c-.4-.795-.725-1.451-1.039-2.047l5.61-5.248Zm251.42,45.621h0l-2.423,1.178c.078.523.159,1.23.225,1.8l0,.016a9.7,9.7,0,0,0,.479,2.752c.609,0,1.239.031,1.907.061l.109.006.06,0c.729.031,1.482.064,2.213.064,1.486,0,3.345-.121,4.535-1.074a72.441,72.441,0,0,0,8.8-8.859l.071-.082c1.1-1.234,2.229-2.514,3.371-3.732l-.792-1.178-6.845,3.531-6.334-3.531c.079.246.161.5.253.785l0,.008c.808,2.512,1.571,4.883,1.307,7.1-.292,2.451-1.81,4.494-4.775,6.432l-2.166-5.273Zm-16.129-18.191c2.006,2.74,2.5,6.188,2.977,9.52v.008a31.651,31.651,0,0,0,1.366,6.391,10.513,10.513,0,0,0,3.893,5.184l5.519-13.252-6.835,3.283-.026-.135c-.045-.246-.09-.49-.135-.734a22.351,22.351,0,0,0-1.742-6.176A7.945,7.945,0,0,0,11446.922,20932.838Zm-7.3-25.428c-3.607.309-6.356,1.658-8.17,4.008a12.242,12.242,0,0,0-2.286,5.752,25.831,25.831,0,0,0,.263,8.1,22.141,22.141,0,0,1,3.166.646,30.694,30.694,0,0,1,3.38,1.637l-.037,1.895-7.06.74a20.338,20.338,0,0,0-1.058,9.545,69.876,69.876,0,0,0,1.984,9.93c.3,1.209.644,2.578.945,3.9.707-1.111,1.4-2.238,2.072-3.326l.052-.084.049-.08c1.528-2.479,2.972-4.82,4.613-7.1,2.7-3.762,4.092-7.193,4.271-10.49.2-3.66-1.086-7.176-3.928-10.746a12.821,12.821,0,0,1-2.471-8.451c.158-1.529,1.484-2.92,2.768-4.266l.006-.006.036-.039a20.061,20.061,0,0,0,1.4-1.572Zm-201.848,40.363h0l-7.6.354c1.6,1.676,2.652,2.8,3.581,3.787l.163.174c.261.279.512.547.764.814l4.161-3.963-1.069-1.166Zm-10.188-21.666h0a11.517,11.517,0,0,1,6.177,5.182,26.032,26.032,0,0,1,2.634,7.553,7.807,7.807,0,0,0,8.472,6.895c-.755-1.57-1.479-3.1-2.1-4.4l-.026-.055c-1.533-3.23-2.98-6.283-4.522-9.26a17.454,17.454,0,0,0-5.841-6.709,13.757,13.757,0,0,0-7.669-2.291,15.365,15.365,0,0,0-3.166.336l4.594,1.883h-5.957c.679.816,1.494,1.619,2.284,2.4,1.889,1.859,3.84,3.781,4.529,6.24s.081,5.3-.509,8.055v.006l-.01.047c-.25,1.166-.508,2.371-.657,3.52,3.587-.082,6.276-1.324,7.571-3.5a6.517,6.517,0,0,0,.836-3.807,12.425,12.425,0,0,0-1.477-4.848,64.069,64.069,0,0,0-5.164-7.234Zm585.692-20.771c-.361.221-.841.494-1.385.8-1.035.584-2.208,1.244-2.145,1.393.717,1.738.692,3.061-.075,4.047a7.392,7.392,0,0,1-2.948,1.867l-.01,0a8.939,8.939,0,0,0-2.262,1.248c-2.707,2.361-5.635,4.568-8.466,6.705l-.038.027c-2.938,2.215-5.977,4.5-8.8,7a37.005,37.005,0,0,0-7.557,9.723c-1.028,1.852-1.205,3.617-.485,4.842.678,1.15,2.1,1.758,4.111,1.758,9.383-.086,18.988-.326,28.277-.557l.347-.008c3.255-.084,6.716-.17,10.112-.248q-.048-.39-.1-.814c-.039-.33-.081-.68-.127-1.053l-28.441-12.947c1.234-1,2.45-2.049,3.625-3.066a64.559,64.559,0,0,1,9.59-7.3c2.487-1.443,4.979-3.076,6.358-5.246a7.411,7.411,0,0,0,1.165-3.541A11.612,11.612,0,0,0,11813.282,20905.336Zm-222.473,5.158a51.661,51.661,0,0,0-6.036.457,77.518,77.518,0,0,1,7.193,3.637,52.489,52.489,0,0,1,4.688,3.559l.012.01c.79.645,1.607,1.313,2.5,2.01-.311-3.979-.9-6.168-2.035-7.561C11595.922,20911.125,11594.031,20910.494,11590.81,20910.494Zm-31.992-1.752c-5.18,0-8.652.584-10.929,1.842a6.563,6.563,0,0,0-3.477,5.85l20.948-7.445C11562.878,20908.822,11560.737,20908.742,11558.817,20908.742Zm346.521-74.928v0c1.574,2.686,3.533,6.025,5.605,6.117.653.029,1.421.063,2.16.09,4.71.193,9.58.395,14.079,1.547a26.243,26.243,0,0,1,6.5,2.563,23.641,23.641,0,0,1,5.892,4.711c1.087-3.637,1.045-6.244-.13-7.969-.993-1.461-2.782-2.283-5.47-2.514-1.952-.174-4.033-.254-6.55-.254-1.719,0-3.4.039-5.024.074l-.11,0c-1.537.035-2.989.068-4.37.068,1.829-.215,3.693-.385,5.667-.566l.168-.016a104.722,104.722,0,0,0,14.633-2.029,6.018,6.018,0,0,0,4.666-3.887c.791-2.449-.14-5.527-2.49-8.232a31.313,31.313,0,0,1-10.738,9.129,28.46,28.46,0,0,1-12.791,2.863,45.1,45.1,0,0,1-11.693-1.7Zm-800.458,6.641a2.319,2.319,0,0,1,.857.137c1.056.449,1.969,2.389,2.081,3.824a4.64,4.64,0,0,1-1.034,2.531c-.264.418-.535.848-.763,1.293,6.61-.053,8.038-1.2,8.038-6.455,5.44,4.342,9.032,6.111,12.4,6.111,2.405,0,4.829-.928,7.861-3.01l-25.532-9.8a60.125,60.125,0,0,0,7.856-12.035,50.686,50.686,0,0,0,4.177-12.453,53.826,53.826,0,0,0,.878-12.887,69.916,69.916,0,0,0-2.038-13.344c-2.061-8.3-2.981-9.08-12.312-10.461.477,3.885.857,6.941,1.235,9.91l1.588-.092c.188-.937.383-1.887.57-2.8l.038-.186c.185-.9.382-1.865.574-2.822l1.583.3a30.158,30.158,0,0,0-.4,3.1c-.2,2.051-.4,4.17-1.374,5.734-6.911,11.344-8.889,21.367-6.225,31.547l1.38-1.283a22.059,22.059,0,0,1,2.013,6.115,9.785,9.785,0,0,1-.411,4.938c-1.09,2.939-3.8,5.291-8.522,7.4a17.129,17.129,0,0,0-5.481,4.627,4.6,4.6,0,0,0-.711,2.516l0,.053a12.211,12.211,0,0,1-.167,1.234c-1.974-2.906-3.274-5.168-4.422-7.162l-.019-.033c-.92-1.6-1.713-2.982-2.624-4.277-4.036-5.73-5.144-12.1-3.386-19.479.166-.707.388-1.432.6-2.133l.009-.029a13.078,13.078,0,0,0,.87-5.041,39.231,39.231,0,0,0-2.8-10.846,34.4,34.4,0,0,0-2.733-4.922l-.009-.014a30.869,30.869,0,0,1-2.927-5.424c-.507-1.346-.19-3.023.177-4.969.177-.934.358-1.9.48-2.957l3.755,3.455v-5.883c-3.614.047-6.422,1.131-8.345,3.227a12.434,12.434,0,0,0-2.919,7.693v.008c-.6,9.418-1.284,20.092-.069,30.424a27.725,27.725,0,0,0,4.571,12.035,84.864,84.864,0,0,0,8.143,10.09l.015.018.02.021c1.928,2.154,3.921,4.383,5.692,6.666.477.627,1.758.713,3.071.713.2,0,.394,0,.583,0h.059c.156,0,.308,0,.453,0a4.368,4.368,0,0,0,1.5-.434l.007,0a3.741,3.741,0,0,1,1.249-.373.682.682,0,0,1,.339.078,7.3,7.3,0,0,0,3.4,1.109c1.753,0,2.974-1.287,3.842-4.051C11101.807,20841.059,11103.619,20840.455,11104.881,20840.455Zm606.028.918h0l-3.45,5.166c.453.145,1.008.367,1.545.58l0,0a9.541,9.541,0,0,0,2.371.758.288.288,0,0,0,.246-.084,10.668,10.668,0,0,0,1.511-3.576c.135-.467.288-1,.457-1.482l-2.685-1.363ZM11451.344,20830h0c-2.853,4.5-4.47,7.156-4.54,9.3a4.759,4.759,0,0,0,1.023,3.023,24.539,24.539,0,0,0,3.34,3.5,5.792,5.792,0,0,0,3.557.818,14.965,14.965,0,0,0,3.685-.459,3.459,3.459,0,0,0,2.172-1.205c1.3-2.574,1.513-5.682,1.758-9.279.105-1.549.214-3.15.419-4.84l-6.7,3.188-4.717-4.049Zm240.356,4.2a6.565,6.565,0,0,1,5.707,3.053c1.313,1.842,2.444,4.607,3.784,9.246,1.877-3.531,3.39-6.367,4.9-9.193a11.019,11.019,0,0,0,4.786,1.143c3.1,0,6.171-1.426,9.124-4.234l-32.949-4.979-.257-.693-.1-.271-.037-.1c-.526-1.418-1.182-3.182-2.108-5.781,1.348-.7,2.689-1.428,4.11-2.2,3.306-1.791,6.724-3.645,10.3-5.186a29.368,29.368,0,0,0,6.983-4.127,19.724,19.724,0,0,0,4.662-5.412,19.254,19.254,0,0,0,2.313-6.742,27.917,27.917,0,0,0-.064-8.121c-1.066-7.732-7.015-15.076-13.259-16.369l5.161,7.461c-3.025,2.938-5.929,7.889-7.768,13.248a30.28,30.28,0,0,0-1.59,6.953,8.446,8.446,0,0,0,.688,4.912,14.29,14.29,0,0,0-5.7,3.176,26.722,26.722,0,0,0-7.967,12.732,14.784,14.784,0,0,0-.355,6.822,16.756,16.756,0,0,1-5.709,1.074,15.928,15.928,0,0,1-9.049-3.045,56.445,56.445,0,0,1-7.612-6.654l-.013-.014-.363-.357-.508-.5-1.523,1.471q.715,1.052,1.426,2.1l.476.7.174.258c1.7,2.5,3.451,5.094,5.134,7.525a11.984,11.984,0,0,0-4.764,3.449,10.073,10.073,0,0,0-2.119,6.258c1.652-.785,3.276-1.629,4.71-2.373l.016-.01a55.677,55.677,0,0,1,9.928-4.383,13.887,13.887,0,0,1,3.991-.514c1.319,0,2.626.121,4.01.25l.037,0,.049,0c1.356.123,2.759.25,4.211.25a17.751,17.751,0,0,0,4.175-.453A12.648,12.648,0,0,1,11691.7,20834.2Zm-136.025-58.377c-3.785.607-6.257,2.17-7.556,4.773-1.266,2.539-1.3,5.852-1.162,8.758a36.851,36.851,0,0,1-.333,5.867v.01c-.132,1.2-.27,2.43-.329,3.658-.068,1.484-.152,2.994-.234,4.455v.02a135.623,135.623,0,0,0-.3,13.82c.086,1.8,1.129,3.611,2.138,5.357l.013.021c.366.635.746,1.293,1.063,1.928.532,1.07,1.046,2.184,1.542,3.26l.016.033.006.012a46.158,46.158,0,0,0,4.646,8.467,56.468,56.468,0,0,0,9.979,9.609,3.671,3.671,0,0,0,2.268.508c.245,0,.5-.006.77-.014h.063c.133-.006.27-.008.408-.012.479-.016.95-.031,1.447-.031.4,0,.775.01,1.152.031-1.172-1.27-2.221-2.461-3.063-3.418a52.765,52.765,0,0,0-4.681-4.91,20.434,20.434,0,0,1-6.516-10.039,21.07,21.07,0,0,1,.376-11.637c1.677-5.643,2.265-10.227,1.85-14.424a24.324,24.324,0,0,0-5.7-13.322l-.1-.127c-1.253-1.568-2.967-3.711-2.457-5.744.31-1.232,1.431-2.27,3.333-3.088.586-.246.812-1.357,1.03-2.43v-.006l0-.021a12.755,12.755,0,0,1,.329-1.365Zm236.841,22.479h0c-.637,2.434-1.363,4.938-2,7.145l0,.018a124.661,124.661,0,0,0-3.874,15.957,14.746,14.746,0,0,0,.123,5.457,9.9,9.9,0,0,0,2.027,4.164c2.209,2.65,5.9,4.143,10.685,4.311a54.979,54.979,0,0,1,11.227,1.271,11.386,11.386,0,0,1,4.069,2.453l0,0c.546.438,1.061.852,1.578,1.2l-7.216,4.262.729,1.338a19.718,19.718,0,0,0,4.883-.941l.405-.187c.092-.043.187-.088.281-.131,2.007-.924,4.5-2.07,4.694-3.4a8.193,8.193,0,0,0-2.792-6.59,29.865,29.865,0,0,0-7.359-3.5l-.023-.008-.027-.012c-.928-.342-1.887-.7-2.837-1.084-3.919-1.59-6.5-3.445-7.273-7.779-1-5.59-2.347-11.219-3.652-16.66l-.014-.057c-.483-2.01-1.084-4.514-1.629-6.885Zm-461.247,30.617h0c-.421,1.758-.994,3.424-1.549,5.035l0,.01c-1.078,3.135-2.008,5.838-1.08,7.465a8.106,8.106,0,0,0,3.908,3.393,13.314,13.314,0,0,0,5.3,1.033,15.19,15.19,0,0,0,3.813-.486c1.052-.293,1.313-3.355,1.613-6.9v-.01l0-.049c.146-1.7.3-3.463.548-5.029l-7.391,2.951-5.166-7.412Zm-134.842,4.258h0a47.93,47.93,0,0,0-3.755,5.984c-.746,1.539-.939,2.637-.607,3.453.573,1.412,2.776,2.1,6.389,2.8a17.947,17.947,0,0,0,3.434.377c2.271,0,3.88-.629,4.786-1.873,1.145-1.568,1.17-4.094.075-7.508-.476-1.455-.823-2.982-1.159-4.459l-.041-.18c-.146-.637-.3-1.295-.457-1.939a22.033,22.033,0,0,1-1.975,4.506,2.543,2.543,0,0,1-2.094,1.436c-1.188,0-2.7-1.039-4.6-2.6Zm840.105-56.238a21.337,21.337,0,0,0-7.211,1.8l-.307.113a7.337,7.337,0,0,1-1.177.246c-16.1,3.313-23.235,12.514-22.462,28.959.15,3.574.445,7.2.73,10.7.426,5.213.865,10.6.82,15.869-.034,4.3,0,6.8,1.121,8.248,1.109,1.434,3.32,1.9,7.554,2.342.667.064,1.287.1,1.845.1a10.422,10.422,0,0,0,3.922-.66,5.292,5.292,0,0,0,2.452-1.912c1.3-1.926,1.229-4.861-.219-8.488-1.287-3.221-2.275-6.646-3.147-9.67l-.008-.025c-.418-1.451-.766-2.652-1.128-3.814-.364,6.824-.364,6.824-4.209,9.328-3.216-4.2-2.732-10.174,1.326-16.387.547-.848,1.13-1.709,1.693-2.543l.115-.172,0-.006c4-5.906,8.129-12.016,5.436-19.641-.727-2.055-.8-3.613-.213-4.766.771-1.521,2.524-2.152,4.737-2.822a9.412,9.412,0,0,1,2.711-.367,21.094,21.094,0,0,1,9.412,2.684c3.135,1.672,5.543,3.756,6.605,5.717q-1.2,1.708-2.331,3.3l-.011.016c-1.809,2.561-3.517,4.979-5.166,7.381l8.855-5.406-.818.859c.5.541,1.156,1.152,1.738,1.693,1.316,1.219,2.56,2.369,2.337,2.943a20.28,20.28,0,0,1-5.588,8.439,4.1,4.1,0,0,1-2.6.66,24.683,24.683,0,0,1-2.671-.207h-.014c-.7-.08-1.5-.17-2.207-.2-.11-.006-.2-.568-.291-1.111v-.008c-.046-.273-.093-.557-.142-.775l3.326-.342-2.149-6.369a.735.735,0,0,0,.091-.092l-.148-.09.058.182c-.355.357-.724.734-1.049,1.066-.779.8-1.585,1.619-2.391,2.373-2.087,1.873-3.071,3.686-2.927,5.387s1.439,3.35,3.846,4.865a12.986,12.986,0,0,0,6.807,1.992,10.169,10.169,0,0,0,8.138-3.783,42.794,42.794,0,0,0,5.061-9.23l0-.01c.741-1.648,1.507-3.352,2.4-5.115l10.193,7.717c.173-.535.38-1.09.563-1.578a10.536,10.536,0,0,0,1.008-4.57c-.18-1.631-1.312-2.91-3.462-3.91h.021c3.523-.5,6-1.512,7.583-3.08a7.4,7.4,0,0,0,1.984-6.168c-1.443.258-2.917.533-4.342.8l-.425.08c-4.309.811-8.765,1.65-13.229,2.154-.1.008-.177.014-.249.014-1.513,0-3.387-1.521-4.626-2.527l-.008-.008a106.924,106.924,0,0,1-11.108-9.246A8.767,8.767,0,0,0,12036.532,20776.941Zm-459.586,45.912a10.184,10.184,0,0,0-2.81.441,30.64,30.64,0,0,0,1.338,2.771l.017.031c1.105,2.1,2.248,4.277,1.881,6.129-.437,2.2-2.158,4.164-3.979,6.25l-.006.006-.021.025c-.824.945-1.676,1.922-2.455,2.967a22.167,22.167,0,0,0,2.53.145,16.412,16.412,0,0,0,6.034-1.064,15.762,15.762,0,0,0,4.618-2.818c2.718-2.34,4.854-5.531,6.92-8.617a54.438,54.438,0,0,1,5.563-7.375c-.494-.047-.986-.07-1.462-.07a8.827,8.827,0,0,0-6.9,2.824,22.214,22.214,0,0,0-3.513,6.178c-.4.924-.86,1.971-1.352,2.926.146-4.3-.638-7.369-2.334-9.125A5.431,5.431,0,0,0,11576.946,20822.854Zm369.605,10.277h0a39.374,39.374,0,0,0-4.086,5.076c-.031.049,0,.158.091.324.4.73,1.855,2.326,2.434,2.326.021,0,.043,0,.064,0a14.665,14.665,0,0,0,4-1.977l.008,0c.719-.443,1.433-.881,2.247-1.342l-4.754-4.4Zm-23.623-59.783c-1.938,0-3.416,1.262-4.941,4.223-.08.156-.43.168-.8.18h-.007a3.143,3.143,0,0,0-.812.094,30.27,30.27,0,0,0-8.94,4.314,25.653,25.653,0,0,0-6.863,7.541,30.9,30.9,0,0,0-3.748,9.635,39.537,39.537,0,0,0-.781,10.973c.521,7.916,3.267,15.113,7.732,20.264a30.923,30.923,0,0,1,1.668-13.895,57.6,57.6,0,0,1,6.248-12c3.188-4.908,3.834-9.828,1.92-14.627-1.021-2.559-1.185-4.451-.518-5.957.712-1.607,2.355-2.818,5.33-3.928a20.4,20.4,0,0,0,3.53-2.225,53.245,53.245,0,0,0,5.122,3.105c5.93,3.3,12.06,6.713,11.645,15.912l-3.9.883,3.915,6.51c.714-1.021,1.5-1.941,2.255-2.832l.021-.025c1.515-1.777,2.821-3.309,2.964-4.945a17.285,17.285,0,0,0-.755-7.324,15.631,15.631,0,0,0-3.284-5.459c-2.852-3.16-6.93-5.551-10.875-7.863-.511-.3-1.147-.67-1.751-1.029A8.963,8.963,0,0,0,11922.929,20773.348Zm-603.062,6.094v0c.751.506,1.546,1.025,2.315,1.531,2.276,1.488,4.63,3.027,6.877,4.832a4.414,4.414,0,0,1,1.048,3.861c-1.908,5.764.064,10.729,2.481,15.236,2.081,3.887,4.163,7.766,6.291,11.729l1.022,1.9q2.684,5,5.549,10.348c-.148-1.812-.441-3.59-.724-5.307l0-.029c-.585-3.549-1.138-6.9-.3-9.842,2.422-8.545,1.868-16.275-1.6-22.355a22.53,22.53,0,0,0-6.541-7.178,30.309,30.309,0,0,0-10-4.545,9.844,9.844,0,0,1-2.634-1.338,9.958,9.958,0,0,0-2.64-1.336,15.932,15.932,0,0,0-3.821-.625,3.536,3.536,0,0,0-2.062.508,53.367,53.367,0,0,0-7.29,6.514c-.651.66-1.345,1.359-2.043,2.043a20.088,20.088,0,0,0-5.824,18.756,14.1,14.1,0,0,0,4.453,7.836,11.431,11.431,0,0,0,7.4,3.271,6.783,6.783,0,0,0,1.875-.256c2.021-.588,3.968-1.342,5.687-2.008.68-.262,1.384-.535,2.037-.775-1.073-.295-2.258-.508-3.4-.715l-.012,0c-2.8-.51-5.7-1.037-7.789-2.656a8.756,8.756,0,0,1-2.685-3.629,13.972,13.972,0,0,1-1.014-4.816,18.122,18.122,0,0,1,.983-6.68,13.134,13.134,0,0,1,3.341-5.363c2.234-2.082,4.411-4.275,6.516-6.4l.08-.08c.864-.871,1.644-1.656,2.426-2.436Zm-124.392,16.439h0a23.388,23.388,0,0,0-1.855,9.6,65.379,65.379,0,0,0,.962,9.494l0,.021c.67,4.438,1.362,9.023.655,13.518,1.192-1.939,2.229-3.857,3.229-5.713l.015-.027c.813-1.506,1.581-2.928,2.43-4.367.732-1.236,1.606-2.459,2.452-3.643l.019-.025a27.471,27.471,0,0,0,4.012-6.922,56.756,56.756,0,0,0,2.088-7.482,14.282,14.282,0,0,0-.146-7.133c-.832-2.453-.874-4.248-.132-5.645a9.91,9.91,0,0,1,3.73-3.3c1.248-.77,2.48-1.611,3.626-2.406.029.014.057.029.083.043l.063.035c.029.018.061.033.091.049l-.145-.178.144.141c.01-.033.018-.07.025-.107l0-.021c0-.02.008-.039.013-.059l-.051.01a.443.443,0,0,0-.048.008l-.047.006-.052.01-.045.037-.035.027c-.383-.217-.782-.482-1.227-.783a5.938,5.938,0,0,0-2.565-1.252.956.956,0,0,0-.326.055,26.051,26.051,0,0,0-15.451,13.648l5.883,1.93-1.834,2.355Zm37.656,25.477-4.627,5.682c.744.1,1.466.268,2.1.416l.008,0a10.394,10.394,0,0,0,2.159.363,1.736,1.736,0,0,0,1-.252c1.009-.687,1.524-2.949,1.294-4.437-.163-1.006-1.914-1.77-1.931-1.773Zm-25.05-8.746v0c12.6,4.152,12.6,4.152,11.177,13.357,3.008-.437,4.675-1.127,5.751-2.377s1.572-3.072,1.709-6.287a21.483,21.483,0,0,0,8.237,1.828,15.311,15.311,0,0,0,5.357-.951,17.52,17.52,0,0,0,5.07-3l-30.891-5.74-.32,1.66,5.225,1.5Zm142.5-.328v0l4.941,11.176a4.117,4.117,0,0,0,3.313-2.387,14.192,14.192,0,0,0,.957-4.264c.009-.068.017-.137.025-.205s.018-.135.025-.2a9.131,9.131,0,0,0,5.269,1.834c2.821,0,5.4-1.582,7.546-3.129-1.159-.256-2.362-.525-3.788-.848-3.362-.756-6.538-1.473-9.731-2.051-.669-.053-1.332-.08-1.971-.08a23.8,23.8,0,0,0-2.864.172l-.027-.016h-3.7Zm95.406-33.17a6.311,6.311,0,0,0-.723.043c-.6.08-1.137.541-2.03,1.3l-.007.006c-.548.467-1.225,1.045-2.118,1.707,3.919.311,6.379,1.291,7.52,2.992,1.321,1.969.843,4.715-.283,8.232a12.938,12.938,0,0,0,.728,8.824c2.4,4.947,5.151,9.654,8.063,14.639l.019.031c1.271,2.17,2.515,4.3,3.771,6.514.26-1.785.558-3.428.845-5.014l0-.02,0-.01a46.386,46.386,0,0,0,1.059-8.877,142.732,142.732,0,0,0-1.685-19.3c-.332-2.2-2.521-4.937-5.857-7.326C11452.06,20780.549,11448.494,20779.113,11445.985,20779.113Zm20.985,33.4v0c.519,1.2,1.021,2.367,1.517,3.514l.023.055q1.362,3.149,2.91,6.764a4.574,4.574,0,0,0,3.322-2.617,8.916,8.916,0,0,0,.427-4.49c3.127,2.8,5.345,3.988,7.417,3.988,1.907,0,3.818-.979,6.392-3.271l-22.173-7.391-.375,1.246,4.707,2.246Zm335.86-11.279a7.883,7.883,0,0,0-4.774,1.586c1.328.494,2.7.895,3.912,1.248l.025.008c2.7.793,5.243,1.541,6.973,3.07,1.752,1.549,2.733,3.92,3.773,6.43.456,1.1.928,2.242,1.473,3.314,2.079-1.285,3.254-2.744,3.49-4.336.241-1.623-.488-3.414-2.169-5.322a16.528,16.528,0,0,0,6.354,1.7c2.7,0,4.654-1.41,6.529-4.713l-18.125-1.357-.043-.037c-.789-.172-1.594-.4-2.372-.625l-.016,0-.016-.006A18.546,18.546,0,0,0,11802.831,20801.238Zm-134.895-2.361a17.657,17.657,0,0,0,4.628,8.334,12.242,12.242,0,0,0,8.245,4,.244.244,0,0,0,.075.008c2.523-.008,5.323-2.68,7.573-4.826l.152-.145c.118-.113.234-.223.35-.332.827-.752.437-3.137.178-4.715l-.012-.07a8.118,8.118,0,0,0-2.467-5.168,6.94,6.94,0,0,0-4.65-1.424,23.373,23.373,0,0,0-5.141.7c1.743,1.066,2.693,2.1,2.905,3.16.257,1.283-.6,2.467-1.437,3.611-.894,1.229-1.817,2.5-1.4,3.916l-1.577.93-7.424-7.979Zm-100.095-3.08h0l-.107.893,5.4.791-7.06,1.012c3.822.7,6.187,1.926,7.228,3.736.882,1.531.857,3.531-.072,6.109l1.529.506,5.979-7.539a13.838,13.838,0,0,0,5.652,1.4,8.136,8.136,0,0,0,4.008-1.016,10.452,10.452,0,0,0,3.282-3.025l-25.842-2.873Zm-127.136-20.361c-.58.135-1.2.23-1.792.322l-.03.006a10.03,10.03,0,0,0-3.767,1.074,26.6,26.6,0,0,0-3.638,2.875,25.5,25.5,0,0,1-3.727,2.926c-5.243,3.178-8.212,6.611-9.077,10.5-.853,3.832.334,8.1,3.628,13.039a17.968,17.968,0,0,1,.461-1.809c.349-1.2.649-2.229.256-2.779a5.75,5.75,0,0,1-1-5.352,11.508,11.508,0,0,1,2.91-4.158c3.64-3.686,7.578-7.115,11.386-10.43l.147-.129c1.506-1.312,3.063-2.668,4.575-4.02l-.332-2.064Zm-221.641,6.1c4.146,0,7.376,2.219,10.5,4.361l.037.025c1.183.809,2.406,1.646,3.646,2.332a9.035,9.035,0,0,0-1.308,6.166,20.6,20.6,0,0,0,1.932,5.455,28.926,28.926,0,0,1,1.541,3.781c6.8-7.383,7.232-10.865,2.08-16.937a29.9,29.9,0,0,0-6.874-5.428c-.822-.527-1.672-1.074-2.479-1.633a16.657,16.657,0,0,0-4.4-2.16c-.179-.057-.362-.115-.552-.174l-.037-.012a15.015,15.015,0,0,0-3.976-.916,2.045,2.045,0,0,0-.987.2c-.775.434-.947,1.963-1.113,3.441-.062.549-.13,1.172-.234,1.7A12.447,12.447,0,0,1,11219.065,20781.537Zm572.648,2.289v0c.663,3.676,1.07,5.959,1.46,8.24l1.471.551c.412-1.223.989-2.492,1.547-3.719l0-.008c1.268-2.793,2.578-5.682,1.979-8.039a5.9,5.9,0,0,0-2.137-3.383,6.353,6.353,0,0,0-3.884-1.219,10.4,10.4,0,0,0-4.568,1.162c-4.605,2.256-3.829,5.461-3.145,8.289.359,1.482.7,2.883.2,3.975l7.068-5.85Zm125.087,181.711h-12.862c1.006-2.574,2.565-3.773,4.909-3.773a16.049,16.049,0,0,1,6.541,1.932h-8.445v.576l9.857.541v.725Z" transform="translate(-11044 -20665.996)" fill="#fbfbfb"/>
</svg>
