<svg xmlns="http://www.w3.org/2000/svg" xmlns:xlink="http://www.w3.org/1999/xlink" width="890" height="594.004" viewBox="0 0 890 594.004"><defs><style>.a{opacity:0.2;fill:url(#a);}</style><linearGradient id="a" x1="0.5" x2="0.5" y2="1" gradientUnits="objectBoundingBox"><stop offset="0" stop-color="#fff"/><stop offset="1" stop-color="#766de8"/></linearGradient></defs><path class="a" d="M-10940.771,22475H-11722v-593.443l890-.561c-.121.076-14.317,8.705-35.9,23.076-12.735,8.479-25.533,17.279-38.039,26.152-15.658,11.111-30.918,22.383-45.354,33.5l-.536-.1-.058.221c-.037.141-.073.279-.111.418-50.469,38.926-90.976,75.936-120.4,110l.169-.791c.043-.207.088-.414.132-.621l.088-.412-1.754-1.479a34.656,34.656,0,0,1-3.123,2.355c-2.4,1.676-4.874,3.408-5.106,5.379-.323,2.527-.573,5.148-.765,8.016-36.063,45.07-51.042,84.053-44.521,115.869a70.189,70.189,0,0,0,5.749,16.814,77.929,77.929,0,0,0,10.422,15.824,102.092,102.092,0,0,0,15.47,14.686,148.33,148.33,0,0,0,20.894,13.4c-.765,1.449-1.392,2.662-2.28,4.393-.4-1.4-.707-2.492-.981-3.457l-.031-.109c-.1-.355-.2-.7-.295-1.037l-.176-.619a29.156,29.156,0,0,0-4.785,4.852,7.888,7.888,0,0,0-1.75,4.01,3.463,3.463,0,0,0,.985,2.68,10.425,10.425,0,0,0,7.344,2.854,7.491,7.491,0,0,0,6.352-2.854c2.105-3.027.885-5.879-.669-8.775a229.331,229.331,0,0,0,21.408,9.436c14.032,5.389,27.3,10.936,39.422,16.488,11.7,5.355,22.646,10.857,32.55,16.352,9.524,5.283,18.35,10.707,26.231,16.121a218.845,218.845,0,0,1,20.464,15.8,148.07,148.07,0,0,1,15.249,15.383,102.942,102.942,0,0,1,10.588,14.875,76.705,76.705,0,0,1,6.479,14.275,63.618,63.618,0,0,1,2.922,13.58,63.347,63.347,0,0,1-5.1,31.434,93.7,93.7,0,0,1-15.7,24.475,131.087,131.087,0,0,1-16.567,15.883c-4.167,3.346-7.124,5.293-7.674,5.65l-.014.008Zm-449.034-63.521a.768.768,0,0,0-.095,0c-.715.037-1.935,1.238-2.408,2.031-.164.273-.225.473-.176.578.578,1.24,1.934,3.045,3.137,3.176h.027a.143.143,0,0,0,.028,0,.272.272,0,0,0,.057,0c.727,0,1.494-.719,2.557-1.715l0,0,.031-.029c.582-.545,1.241-1.162,2.021-1.777-.855-.4-1.6-.8-2.193-1.121A6.921,6.921,0,0,0-11389.806,22411.482Zm-19.146-8.562c.375,0,.741.008,1.087.023,2.916.738,4.761,2.162,5.642,4.355.724,1.8.814,4.162.286,7.428a9.666,9.666,0,0,0,1.354.1,5.293,5.293,0,0,0,4.31-1.887,12.571,12.571,0,0,0,2.081-4.41,22.676,22.676,0,0,0,6.763,1.209,10.452,10.452,0,0,0,5.521-1.408,10.369,10.369,0,0,0,3.713-4.127l-31.208-5.539c.188-1.566.263-3.191.335-4.762v-.021c.159-3.51.31-6.824,1.615-9.678a30.344,30.344,0,0,0,2.619-11.932,84.7,84.7,0,0,0-.77-11.891l0-.016-.006-.053c-.29-2.588-.59-5.266-.714-7.883-.579-11.584-5.623-17.58-14.992-17.822l1.94,6.063,4.072-1.211c2.3,5.467-.36,9.348-2.931,13.1-.206.3-.376.549-.532.779a15.686,15.686,0,0,0-2.959,8.309,21.315,21.315,0,0,0,1.746,8.771,106.909,106.909,0,0,1,5.73,22.375c.234,1.566.385,4.475-1.243,6.365a5.288,5.288,0,0,1-4.221,1.678,11.932,11.932,0,0,1-2.145-.217,8.421,8.421,0,0,0,1.675,3.494,2.867,2.867,0,0,0,2.2,1,8.162,8.162,0,0,0,4.146-1.66A22.625,22.625,0,0,1-11408.952,22402.92Zm113.9,8.027h0l2.361,3.848c1.218-.816,2.307-1.613,3.267-2.316l.047-.033.006,0a30.068,30.068,0,0,1,5-3.209,22.192,22.192,0,0,0,5.956-4.008,11.333,11.333,0,0,0,3.026-4.877,11.123,11.123,0,0,0,.088-5.574,21.151,21.151,0,0,0-2.771-6.393c-1.395-2.24-2.932-4.455-4.419-6.594l-.017-.025,0-.006a92.05,92.05,0,0,1-7.174-11.5c-.763-1.553-1.4-3.213-2.022-4.818l0-.01,0-.01a30.957,30.957,0,0,0-4.139-8.223,12.548,12.548,0,0,0-3.476-3.061,14.871,14.871,0,0,0-5.173-1.82v-1.965l13.4-9.875c1.282,1.047,2.5,1.971,3.584,2.787l.127.1.014.01a31.657,31.657,0,0,1,5.667,4.963,22.311,22.311,0,0,1,4.208,8.771c.291,1.271-.35,2.779-.97,4.238a21.068,21.068,0,0,0-.768,1.984,21.729,21.729,0,0,0,4.489-4.482,10.4,10.4,0,0,0,2.01-4.9,9.621,9.621,0,0,0-2.63-7.307c-2.349-2.8-5.513-5-8.571-7.123l-.014-.01c-.966-.668-2.06-1.428-3.1-2.191a3.632,3.632,0,0,0-1.394-.277,3.663,3.663,0,0,0-1.4.277c-.894.322-1.825.623-2.726.916l-.011,0-.015,0a28.365,28.365,0,0,0-7.582,3.291c-4.057,2.891-8.219,6.051-10.644,10.113-1.93,3.2-2.09,7.369-.452,11.73a22.263,22.263,0,0,0,13.386,13.08,19.125,19.125,0,0,1,7.651,4.682,46.975,46.975,0,0,1,5.267,6.559l.014.02c.415.586.886,1.25,1.355,1.895,2.131,2.926,2.948,5.795,2.43,8.529a9.716,9.716,0,0,1-1.992,4.207,16.626,16.626,0,0,1-4.183,3.645c-1.658,1.045-3.332,2.129-4.95,3.178l-.243.156-.011.008C-11293.364,22409.857-11294.213,22410.408-11295.049,22410.947Zm242.455-1.893c1.729,2.867,2.687,4.145,3.8,4.145.826,0,1.729-.7,3.209-2.064a57.905,57.905,0,0,0,13.176-17.26c3.48-7.031,5.66-16.961-3.723-24.334a12.938,12.938,0,0,1-2.867-3.445,6.128,6.128,0,0,1-1.047-3.826,35.57,35.57,0,0,0,.61-9.043,14.7,14.7,0,0,0-2.031-6.662c-2.267-3.664-6.5-6.1-13.329-7.666a7.426,7.426,0,0,0-1.677-.219,2.1,2.1,0,0,0-2.047.916c-.364.723-.089,1.793.757,2.939l.179.039c2.712.6,5.785,1.271,6.968,3.113a15.876,15.876,0,0,1,2.674,9.945,27.336,27.336,0,0,1-2.888,10.045l-.086-.051a11.272,11.272,0,0,0,1.065.656c.789.445,1.605.908,1.671,1.453a38.525,38.525,0,0,1,.15,5.152v.014a30.215,30.215,0,0,0,.38,6.588,13.3,13.3,0,0,0,3.288,6.432c5.912,6.494,5.446,12.7-1.466,19.543a40.138,40.138,0,0,0-3.769,5.066l-1.349-.666Zm-510.5-48.955h0a25.893,25.893,0,0,0-2.771,10.652,24.445,24.445,0,0,0,1.159,10c.652,1.641,1.532,2.678,2.543,2.994-2.6,8.514,2.788,13.645,8,18.607a41.084,41.084,0,0,1,5.428,6.381c1.271,1.842,7.873,3.42,12.386,3.42,2.041,0,3.436-.316,4.033-.91a9.611,9.611,0,0,0,1.128-1.979c.407-.66.787-1.385,1.122-2.025a14.62,14.62,0,0,1,2.708-4.033,29.642,29.642,0,0,0,6.763-8.525,15.906,15.906,0,0,0,1.349-10.4c.295.027.631.078.956.125l.019,0,.046.008a8.432,8.432,0,0,0,1.015.115c.137,0,.211-.02.227-.059,3.262-8.229,3.774-15.48,1.568-22.172l-5.771,0v-1.346l5.149-1.5c.631-7.418-.3-12.2-2.918-15.055-2.249-2.449-5.789-3.588-11.138-3.588-.105,0-.21,0-.316,0l4.021,8,.971-5.1,2.3.48c-.243.982-.4,2.053-.56,3.088l0,.014c-.347,2.293-.705,4.666-1.981,6.262a21.044,21.044,0,0,0-4.917,10.912,24.173,24.173,0,0,0,2.079,11.926c2.162,5.271,2.939,9.752,2.376,13.7a15.586,15.586,0,0,1-2.345,6.295,20.19,20.19,0,0,1-5.615,5.584c-1.09.756-1.666,2.225-2.224,3.645a17.2,17.2,0,0,1-.749,1.73l-5.792-.291c-.252-.432-.479-.924-.72-1.447l0-.008a7.842,7.842,0,0,0-2.137-3.2,23.34,23.34,0,0,1-5.978-6.072,16.427,16.427,0,0,1-2.521-6.709c-.605-4.3.387-9.219,3.032-15.02a20.112,20.112,0,0,0,1.708-5.826,16.533,16.533,0,0,0-.228-5.482,23.571,23.571,0,0,0-5.429-10.232,18.35,18.35,0,0,1-2.892-6.236l0-.006-.007-.021c-.331-1.023-.673-2.082-1.076-3.066l1.771-.705c.455.854.915,1.732,1.447,2.752l.429.818.544,1.037c.555-2.834.925-4.781,1.317-6.842l.223-1.172c-9.585,2.332-10.92,3.924-10.988,13.092,0,.357-.021.725-.035,1.078l0,.037c-.071,1.648-.145,3.355.844,4.426a4.563,4.563,0,0,0,3.334,1.162c.386.012.74,1.219,1.083,2.387l0,.008c.154.527.329,1.125.5,1.584l-2.047.572-2.426-3.859Zm243.682,31.8a7.149,7.149,0,0,0-3.989,1.318l9.042,9.949.124.137a36.6,36.6,0,0,0,5.576,5.35,12.258,12.258,0,0,0,7.295,2.428c.135,0,.268,0,.408-.01h.038l5.646-.213a21.076,21.076,0,0,0-3.226-3.219c-2.237-1.441-3.508-3.057-3.775-4.8-.253-1.646.389-3.406,1.908-5.232a30.2,30.2,0,0,1,2.7-2.572l-.581-1.781a26.557,26.557,0,0,1-2.668.229c-2.043.113-4.154.227-4.664,1.182-.959,1.842-1.015,4.221-1.068,6.521-.021.924-.045,1.969-.139,2.943C-11311.06,22396.016-11315.308,22391.9-11319.416,22391.9Zm124.738-.211h0c-.6,1.172-1.284,2.336-1.949,3.461a27.592,27.592,0,0,0-3.59,7.8,3.518,3.518,0,0,0,.245,2.811c.636.9,1.921,1.066,3.282,1.242,2.125.273,4.322.557,4.363,3.641,1.128-.838,2.313-1.562,3.46-2.262l0,0c2.381-1.455,4.437-2.713,4.872-4.35.493-1.93-.563-4.234-1.681-6.676l0-.006c-.447-.973-.953-2.076-1.323-3.127l-4.021,2.994-1.867-4.852Zm247.5,2.459c-1.1.436-2.249.77-3.357,1.094l-.041.014-.008,0c-2.357.686-4.584,1.334-5.72,2.793a14.934,14.934,0,0,0-2.849,10.1c.183,1.523,1.9,2.4,4.7,2.4a25.822,25.822,0,0,0,11.473-3.277c-1.3-4.049-2.639-8.217-4.2-13.119Zm-130.1-1.928a11.446,11.446,0,0,0-5.478,1.652c.893.945,1.823,1.9,2.724,2.826l.042.043c1.967,2.023,4,4.115,5.865,6.318a18.579,18.579,0,0,0,6.439,5.143,18.538,18.538,0,0,0,7.971,1.818h.019a18.29,18.29,0,0,0,2.707-.2c.411-.051.753-.756,1.083-1.437a9.623,9.623,0,0,1,.469-.891c-2-2.049-4.021-4.258-4.857-6.746-.917-2.729-.288-5.5,1.924-8.479a41.032,41.032,0,0,0-5.536.883,5.03,5.03,0,0,0-2.817,1.547c-1.031,1.3-.984,3.389-.49,7.572-.291-.479-.6-.959-.905-1.424l-.023-.037a27.636,27.636,0,0,1-1.762-2.973C-11071.7,22394.113-11074.178,22392.223-11077.283,22392.223Zm-584.09,2.807c-.02.035-.218.486-.388.9-1.951,4.871-2.9,8.275-1.625,10.189s4.737,2.334,10.277,2.4c.073.006.147.006.22.006,2.059,0,3.367-.387,4.116-1.219s.96-2.08.735-4.2c-.27-2.32-.689-4.648-1.1-6.9l-.034-.189c-.135-.748-.273-1.521-.4-2.281.052.01.1.021.141.033l.045.01-.236-.365a8.436,8.436,0,0,1,.574-.65c.473-.5.96-1.021.96-1.555a64.378,64.378,0,0,0,.157-10.971c-.217-1.9-.411-3.842-.6-5.723l-.016-.154c-.682-6.82-1.386-13.873-3.276-20.486-1-3.5-2.472-6.014-4.51-7.676a11.36,11.36,0,0,0-7.479-2.377,25.887,25.887,0,0,0-6.19.85,10.332,10.332,0,0,1-1.608.127,10.247,10.247,0,0,1-3.529-.627,19.029,19.029,0,0,0-5.428-.836,14.916,14.916,0,0,0-5.033.85,14.34,14.34,0,0,0-4.3,2.457,19.314,19.314,0,0,0-5.839,9.168c-3.223,10.16-2.307,20.1-1.337,30.623l.009.1c.154,1.676.314,3.408.454,5.129.99-1.395,1.966-2.756,2.909-4.072l.521-.727c2.595-3.619,5.046-7.037,7.417-10.525,1.981-2.9,4.1-6.352,4.782-9.986.71-3.773-.185-7.359-2.734-10.963-.984-1.338.089-4.295.95-6.67.11-.3.19-.523.262-.725.235-.662,1.227-1.064,2.185-1.451a13.189,13.189,0,0,0,1.246-.557l.761,1.207-.2.244-.223.271-.177.217q-.4.5-.809.99a6.577,6.577,0,0,1,4.71-2.227c2.15,0,4.212,1.176,6.395,2.418l.185.105c2.071,1.184,4.418,2.525,6.943,2.525a7.01,7.01,0,0,0,1.33-.129,73.531,73.531,0,0,0-3.638,8.264,19.545,19.545,0,0,1-1.268,3l0,.006a11.761,11.761,0,0,0-1.536,4.711c-.046,1.848.83,3.641,2.677,5.484,4.109,4.092,7.3,9.23,10.378,14.2l.055.088c1.246,2.006,2.534,4.082,3.866,6.057a.108.108,0,0,0-.022.035l.039.051c0,.023.008.045.012.07l0,.025q.013.067.023.135a17.553,17.553,0,0,0-4.155-.494c-.1,0-.193,0-.29.006a63.105,63.105,0,0,0-7.524,2.17C-11661.478,22395.279-11661.383,22395.057-11661.373,22395.029Zm-34.017-3.412-2.605,14.717,14.677,1.65c-.186-3.928-.375-7.791-.594-12.268l-.007-.141-.2-4.117-4.845,5.539-6.425-5.381Zm746.744-50.346a8.109,8.109,0,0,0-5.866,2.732,9.8,9.8,0,0,0-1.94,5.344c-.813,8.18-1.2,16.525-1.582,24.6l-.056,1.182c-.017.346-.032.691-.049,1.037-.146,2.98-.119,6.023-.095,8.967v.059l0,.205c.009,1.088.019,2.213.019,3.314v5.652c1.2-2.023,2.311-3.973,3.387-5.857l.057-.1c2.259-3.955,4.392-7.691,6.788-11.221,4.343-6.35,7.785-14.027.39-22.82-.111-.133-.227-.27-.346-.408-1.413-1.662-3.172-3.73-2.809-5.873.222-1.3,1.237-2.49,3.019-3.533.158-.094-.159-1.018-.494-1.994l-.006-.016-.023-.068C-10948.392,22342.059-10948.539,22341.631-10948.646,22341.271Zm-120.876,43.691h0c-.242.348-.523.7-.8,1.031l-.034.043,0,.006a5.874,5.874,0,0,0-1.59,2.861c-.056.662.59,1.383,1.482,2.379l.021.023c.474.531,1.01,1.131,1.547,1.84.445-.816.915-1.541,1.33-2.18l.017-.025c.787-1.211,1.409-2.168,1.3-2.922-.121-.822-1.14-1.529-2.124-2.213-.394-.271-.8-.555-1.147-.844Zm-102.725-43.8a14.2,14.2,0,0,0-5.442,1.311c-6.5,2.717-11.241,6.014-14.493,10.082-3.624,4.533-5.442,10.035-5.56,16.822-.07,4.049.225,8.148.51,12.113v.006c.124,1.732.253,3.525.348,5.287.613-.963,1.227-1.941,1.875-2.977l.037-.059c1.5-2.4,3.052-4.873,4.716-7.342.9-1.338,1.868-2.662,2.806-3.943l.021-.029a66.607,66.607,0,0,0,4.759-7.111,20.644,20.644,0,0,0,2.419-5.605,8.8,8.8,0,0,0-1.009-6.354,4.108,4.108,0,0,1,.2-3.061,9.411,9.411,0,0,1,1.819-3.148,12.261,12.261,0,0,1,4.467-2.5l.015-.006c.737-.295,1.573-.627,2.366-1.012,1.156.99,2.366,1.951,3.535,2.881l.028.023a51.969,51.969,0,0,1,7.808,7.113c1.779,2.137,2.947,7.717,2.749,8.561-.014.057-.033.092-.059.1a4.118,4.118,0,0,0-2.374,2.016c-.35.955.116,1.938.609,2.979a6.73,6.73,0,0,1,.795,2.416,24.362,24.362,0,0,0,4.667-7.676,12.967,12.967,0,0,0,.563-7.053c-.989-4.623-4.844-8.635-11.147-11.6l-.17-.082-.008,0C-11168.03,22342.063-11169.934,22341.162-11172.246,22341.162Zm-283.04,21.721a13.358,13.358,0,0,0-4.483.793,58.63,58.63,0,0,1,5.866,5.432,18.72,18.72,0,0,1,1.936,3.027l.014.023a14.307,14.307,0,0,0,2.558,3.678,80.2,80.2,0,0,0,11.365,8.652,1.862,1.862,0,0,0,1.038.26,9.876,9.876,0,0,0,2.242-.4l.015,0a16.323,16.323,0,0,1,1.652-.355l3.778,0c-4.778-3.686-7.124-5.922-7.53-8.666s1.137-5.924,4.53-11.592l-7.818-.566q-.781,3.981-1.472,7.467l-.347,1.758q-.274,1.386-.545,2.764a30.073,30.073,0,0,1-2.228-4.607A10.707,10.707,0,0,0-11455.286,22362.883Zm-188.138,7.484.271,1.207c.8,3.574,1.557,6.951,2.336,10.467.175.01.347.01.513.01a4.829,4.829,0,0,0,3.937-1.457c.994-1.219,1.2-3.191.615-6.033,3.108,4.395,5.154,6.188,7.063,6.188,1.472,0,2.912-1.041,4.816-3.484-.841-.469-1.674-.949-2.6-1.484l-.04-.023c-2.029-1.172-4.128-2.383-6.283-3.4a22.18,22.18,0,0,0-5-1.076Zm584.557-8.162a16.836,16.836,0,0,0-9.272,3.094c-3.292,2.209-4.979,4.191-5.469,6.434-.5,2.277.192,4.982,2.242,8.768.331-.533.745-1.113,1.146-1.676l.019-.025c.809-1.129,1.572-2.2,1.346-2.488a3.872,3.872,0,0,1-1.025-2.932c.223-1.342,1.537-2.225,2.7-3l.008,0c.285-.191.521-.35.746-.514a125.929,125.929,0,0,1,11.05-6.566c.17,2.572.684,3.77,1.616,3.77a4.364,4.364,0,0,0,2.077-1.045c.211-.152.431-.311.644-.451a9.587,9.587,0,0,0-3.5-2.523A11.076,11.076,0,0,0-11058.867,22362.205Zm128.92,1.4c-1.626,0-3.33.021-4.7.039l-.253,0c-1.457.02-2.963.037-4.439.037a11.517,11.517,0,0,0-.39,1.715c4.088.211,7.28,1.32,9.488,3.293,2.338,2.09,3.63,5.2,3.841,9.24,5.53-3.363,5.6-3.635,2.583-9.7a10.9,10.9,0,0,0,5.13,1.494c2.776,0,5.268-1.529,7.617-4.67-1.486-.146-2.943-.314-4.353-.477l-.336-.037c-3.248-.375-6.316-.729-9.5-.857C-10926.674,22363.633-10928.206,22363.607-10929.947,22363.607Zm-137.7-16.223c-.411.092-1.044.164-1.715.24-1.584.176-3.556.4-3.7,1.006a57.2,57.2,0,0,0-1.11,13.516c.016.576,1.365,1.123,2.67,1.65l.016.008.026.01c.61.246,1.242.5,1.732.76.217-.447.487-.9.748-1.334l.01-.016a7.128,7.128,0,0,0,1.233-2.928c.188-2.951.152-5.889.115-9v-.123C-11067.628,22349.945-11067.643,22348.676-11067.643,22347.385Zm-374.816,6.436c-1.046,0-3.023,2.031-3.023,3.1a6.312,6.312,0,0,0,1.63,3.131l.006.008c.312.406.666.865.948,1.311l5.612-4.123c-.78-.559-1.459-1.115-2.057-1.605l-.017-.014c-1.252-1.027-2.157-1.77-3.065-1.811Zm-237.271-4.889a16.214,16.214,0,0,0-1.755,2.137c.34-.412.687-.834,1.021-1.242l.2-.248Zm369.957-113.574a2.825,2.825,0,0,1,.19.264c.936,1.445.558,3.473.064,5.266a83.4,83.4,0,0,1-3.188,8.7c-.439,1.074-.985,2.408-1.476,3.68a24.293,24.293,0,0,0-.283,11.436,16.378,16.378,0,0,0,6.719,9.361,26.391,26.391,0,0,1,3.793,3.682l.017.018a29.358,29.358,0,0,0,3.461,3.43,6.3,6.3,0,0,0,3.321.838h.008a16.338,16.338,0,0,1,1.663.186c-1.113-1.352-2.242-2.635-3.333-3.877l-.009-.01c-3.035-3.449-5.9-6.707-7.51-10.4-1.779-4.088-1.832-8.287-.165-13.215,1.7-5.01,3.449-10.186,3.5-15.189a18.294,18.294,0,0,0-1.354-7.334,20.975,20.975,0,0,0-5.032-7.111c-1.447-1.375-2.75-3.76-2.187-5.742.447-1.582,1.957-2.656,4.488-3.193.358-.057.592-.672.862-1.385a11.134,11.134,0,0,1,.436-1.039c-4.556,0-6.674.18-8,1.283-1.425,1.188-1.834,3.545-2.338,7.285-.146,1.1-.337,2.191-.521,3.25l-.035.205c-.1.564-.2,1.148-.291,1.723-.595,3.666.751,5.758,4.115,6.389-.545.273-1.264.547-1.9.787-1.442.547-2.935,1.113-2.984,1.77-.33,4.578-.295,9.146-.254,14.438v.184c.014,1.781.027,3.621.027,5.566l3.729-3.311c.471-1.217.968-2.432,1.448-3.607a85.581,85.581,0,0,0,3.216-8.773c.489-1.684.93-3.8-.01-5.279a2.945,2.945,0,0,0-.2-.273Zm-347.147,36.795-7.784,3.188a17.915,17.915,0,0,0,5.125,4.176,11.89,11.89,0,0,0,5.506,1.363h.019a16.046,16.046,0,0,0,7.191-1.912,11.555,11.555,0,0,0,5.589-5.809,14.758,14.758,0,0,0,.627-8.559c-2.448-12.477-10.579-21.176-18.7-29.02,0,1.891.054,3.854.1,5.584a88.825,88.825,0,0,1-.247,12.477,17.313,17.313,0,0,0,1.063,8.359,27.492,27.492,0,0,0,4.307,7.084,10.34,10.34,0,0,1,1.833,5.258.521.521,0,0,1-.146.355,13.039,13.039,0,0,1-4.681,1.8c-.624.152-1.331.326-1.986.531l-.632-1.75,3.176-2.42-.36-.705Zm-22.813,7.289c.306.184.562.34.815.506.216-.236.361-.379.474-.484l-.01,0a.2.2,0,0,1-.053.01C-11678.905,22279.459-11679.317,22279.447-11679.734,22279.441Zm250.756-2.1v0l.1.055c3.637,1.148,6.914,2.1,10.2,2.1a14.032,14.032,0,0,0,9.566-3.684c3.512-3.094,6.294-8.08,7.632-13.684a28.9,28.9,0,0,0,.8-8.189,20.139,20.139,0,0,0-1.764-7.525,25.771,25.771,0,0,0-6.9-8.482,25.356,25.356,0,0,0-5.99-3.375l-.022-.012c-1.042-.471-2.223-1-3.439-1.635,3.129-2.4,6.365-4.877,8.233-7.711,2.021-3.07,2.281-6.271.818-10.072-1.991-5.133-6.347-7.061-10.638-8.6,0,1.971.029,3.867.058,5.7l0,.166c.067,4.219.131,8.2-.174,12.125-.164,2.459-.846,4.225-2.083,5.4-1.283,1.221-3.172,1.814-5.776,1.814h-.007c-.3,0-.619-.008-.955-.027-.578-.027-1.115-.041-1.595-.041-3.676,0-6.047.756-7.461,2.379a6.875,6.875,0,0,0-1.517,3.713,21,21,0,0,0,.165,5.6l11.812-3.279-.311-1.1-8.8.445c.027-.334.052-.676.075-1.006l.011-.146c.02-.283.049-.711.083-1.127h.121a17.37,17.37,0,0,0,3.327-.443l.083-.02.025,0a17.45,17.45,0,0,1,3.394-.463,5.842,5.842,0,0,1,2.767.633,7.188,7.188,0,0,1,2.586,2.441c1.235,1.8,2.563,3.6,3.847,5.336l.009.012.011.014c2.178,2.949,4.43,6,6.337,9.186l.008.012c2.266,3.8,4.833,8.115,5.3,12.477a7.756,7.756,0,0,1-2.025,6.152,10.274,10.274,0,0,1-7.564,3.293,9.571,9.571,0,0,1-3.958-.838,3.51,3.51,0,0,0-1.452-.246c-.4,0-.84.031-1.306.066l-.083.008c-.6.045-1.271.1-2.011.1a5.882,5.882,0,0,1-2.619-4.627,20.212,20.212,0,0,1,.706-5.639l0-.01c.218-1,.443-2.039.592-3.061-3.451,1.025-5.6,1.912-6.351,3.4-.7,1.391-.242,3.316.789,6.174.4,1.125.9,2.525,1.393,3.779-.567-.908-1.159-1.807-1.732-2.678l-.021-.033c-.862-1.3-1.754-2.654-2.561-4.053a13.927,13.927,0,0,0-3.936-4.672,7.826,7.826,0,0,0-4.585-1.475,9.917,9.917,0,0,0-2.761.418,104.015,104.015,0,0,0,7.62,9.693l.23.238c2.579,2.662,5.246,5.416,9.094,5.416a9.039,9.039,0,0,0,2.6-.4Zm-251.586-52.57a14.552,14.552,0,0,1,9.1,3.035c-.895.8-1.771,1.553-2.741,2.387-1.864,1.605-3.625,3.121-5.257,4.754-3.449,3.475-6.8,7.1-10.047,10.6q-.708.762-1.415,1.525c-6.227,6.729-8.96,19.432-5.624,26.139,2.884,5.785,7.784,6.27,12.557,6.27.416,0,.855-.008,1.209-.014l.3,0c.1,0,.21,0,.314,0h.029l.268,0c.558-.008,1.135-.014,1.694-.014h.442c-.975-.576-2.07-1.137-3.037-1.631l-.008,0c-3.079-1.58-6.264-3.213-7.477-5.738-2.1-4.381,3-7.848,7.027-10.074a18.575,18.575,0,0,0,8.112-8.143,23,23,0,0,0,1.923-11.312,21.01,21.01,0,0,1,1.168-6.586c.288-1,.584-2.025.806-3.041l2.183.375-.1,1.473-.021.287c-.082,1.17-.184,2.625-.339,4.955,2.935-5.268,5.53-8.9,8.167-11.437,3.223-3.1,6.567-4.605,10.226-4.605a15.935,15.935,0,0,1,5.386,1.01,28.362,28.362,0,0,1,6.145,3.217l.925-1.2a21.561,21.561,0,0,1-.808-2.023l0-.01c-.562-1.555-1.143-3.158-2.257-3.846a25.067,25.067,0,0,0-6.559-2.521c-.791-.221-1.609-.449-2.337-.691,4.658-3.357,6.739-5.031,7.568-6.723s.3-3.322-1.206-6.32c-2.079,2-4.37,3.859-6.586,5.66l-.029.023-.014.012a73.452,73.452,0,0,0-9.148,8.326,27.285,27.285,0,0,0-6.107,11.242l-2.307-.654c-1.051-2.949-2.1-5.879-3.078-8.629l-.113-.316q-2.521-7.061-5.207-14.609a10.489,10.489,0,0,1-1.043.617c-1.151.633-2.579,1.418-2.872,2.508a19.9,19.9,0,0,0-.3,6.133c.045.834.095,1.781.095,2.684-3.329.2-5.153.754-6.294,1.932-1.179,1.219-1.722,3.164-1.873,6.709A25.424,25.424,0,0,1-11680.564,22224.771Zm482.391,22.789h0c-2.642,7.02-3.852,11.516-2.681,15.164a11.887,11.887,0,0,0,3.478,5.023,55.15,55.15,0,0,0,7.306,5.42,8.535,8.535,0,0,1,1.516,1.4l.009.01,0,0a9.829,9.829,0,0,0,1.364,1.3c1.027.773,2.133,1.477,3.2,2.158.656.416,1.4.889,2.115,1.379l2.725-5.838c-.153.139-.312.289-.467.436l-.008.008c-.59.563-1.2,1.143-1.661,1.143a.449.449,0,0,1-.115-.014,10.854,10.854,0,0,1-4.77-2.887,24.7,24.7,0,0,1-4.173-5.4c-2.658-4.568-3.748-9.287-2.846-12.318a50.466,50.466,0,0,1,4.383-10.158,23.335,23.335,0,0,0,2.868-7.525,16.741,16.741,0,0,0-.635-8.139c-.315-.945.342-2.717,1.085-3.963.669-1.123,1.4-1.852,1.955-1.949a37.085,37.085,0,0,1,6.205-.436c1.3,0,2.632.035,3.89.07l.084,0c1.249.033,2.54.068,3.8.068.013.316.031.641.049.955l0,.051c.036.627.073,1.275.073,1.916l-12.979.6v1.945l16.262,0c-.683-3.8-1.467-6.693-3.074-8.436a6.223,6.223,0,0,0-2.856-1.734,15.083,15.083,0,0,0-4.347-.5c-.889,0-1.886.039-3.051.119a35.769,35.769,0,0,0-7.437,1.615l-.049.014c-1.065.311-2.167.635-3.254.9l.05-.059v.006l.17-.17c-.065-.033-.123-.057-.2-.09,0,.039.007.08.012.125s.008.078.011.117l-7.581,6.988a44.24,44.24,0,0,1,3.971,6c.144.283-.487.939-1.1,1.574l-.01.01c-.275.287-.56.582-.771.842l-3.842-4.451c-4.745,7.2-5.9,14.553-3.632,23.139Zm-372.889-37.986c-4.843,0-8.146,1.506-10.1,4.6-1.859,2.949-2.205,7-2.3,10.193-.059,2.008-.181,4.076-.289,5.9a97.474,97.474,0,0,0-.217,11.789,39.026,39.026,0,0,0,2.644,12.215,58.559,58.559,0,0,0,5.787,11.611,27.6,27.6,0,0,0,9.116,8.51,13.2,13.2,0,0,1,2.245,1.869l.009.01c1.022.982,1.989,1.908,2.812,1.912a1.431,1.431,0,0,0,.208-.018c1.134-.236,2.3-.4,3.335-.547a30.848,30.848,0,0,0,5.464-1.115,15.652,15.652,0,0,0,5.511-3.189c8.563-7.463,12.968-16.859,13.864-29.568a89.874,89.874,0,0,0,.025-15.082,43.98,43.98,0,0,0-3.9-14.75,4.013,4.013,0,0,1-.022-2.187c.065-.445.147-1,.181-1.58.81.313,1.619.551,2.4.781a9.519,9.519,0,0,1,4.266,2.016,10.92,10.92,0,0,1,2.1,4.441l0,.012c.219.711.446,1.445.72,2.158,2.031-.65,3.221-1.566,3.634-2.8.5-1.508-.163-3.539-2.043-6.209,3.875,1.8,6.9,2.637,9.508,2.637a10.716,10.716,0,0,0,7.216-2.732c-1.207-.291-2.426-.637-3.5-.941l-.008,0a36.748,36.748,0,0,0-7.716-1.613c-.646-.043-1.365-.092-2.2-.152-1.944-.143-3.955-.291-5.927-.291a19.937,19.937,0,0,0-7.627,1.219,13.031,13.031,0,0,1-5.339,1.137,13.093,13.093,0,0,1-4.735-.885l-2.848-.943c.417,1.76,1.392,4.789,3.248,5.295,2.947.811,3.9,2.406,4.18,3.6a5.087,5.087,0,0,1-1.573,4.711c-6.88,6.158-5.326,13.709-3.955,20.371.234,1.137.455,2.211.639,3.285.914,5.352,1.055,9.258.456,12.67a20.326,20.326,0,0,1-5.741,10.918,12.13,12.13,0,0,0-2.122,3.627l-.013.029c-.244.553-.474,1.074-.726,1.545l-.009,0a20.592,20.592,0,0,0-2.078.143,19.314,19.314,0,0,1-1.944.135,3.985,3.985,0,0,1-1.958-.4c-9.612-5.3-14.215-17.705-10.48-28.236a25.371,25.371,0,0,0,1.646-10.779,20.837,20.837,0,0,0-3.913-10.254c-1.421-1.977-2.035-4.592-2.63-7.121v-.006l0-.006c-.3-1.262-.6-2.566-1-3.775l1.675-.8,2.9,1.889,1.449-5.246h-.08l-.08,0Zm285.727,47.732h0a8.123,8.123,0,0,0-4.059,1.291c.482.6,1.052,1.188,1.6,1.76l.027.029a12.313,12.313,0,0,1,3.069,4.213c1.992,5.9-1.738,8.209-5.687,10.658a35.963,35.963,0,0,0-3.349,2.254,23.815,23.815,0,0,0,4.671.469,23.487,23.487,0,0,0,5.239-.592,15.166,15.166,0,0,0,7.875-4.965,42.04,42.04,0,0,0,4.939-7.74,44.559,44.559,0,0,1,5.292-8.24,17.141,17.141,0,0,0-3.4-.387c-4.414,0-6.875,2.441-8.779,8.713a17.27,17.27,0,0,0-3.417-5.639A5.542,5.542,0,0,0-11285.336,22257.307Zm106.412,15.828h0l-.209.451.068-.061a3.967,3.967,0,0,1,.31-.256l-.017-.018c.025-.021.053-.043.08-.062l.024-.02.009-.008.078-.062-.088.016-.046.01-.092.016-.09.018-.028-.023Zm5.625-18.291c3.531,4.035,4.939,7.352,4.307,10.135-.577,2.541-2.846,4.629-6.937,6.385a18.815,18.815,0,0,0-2.651,1.736c3.023-.568,6.091-1.158,9.057-1.73l.481-.092,1.246-.244c.7-.252,1.463-.447,2.206-.635l.009,0c1.636-.416,3.323-.844,4.306-1.916a113.252,113.252,0,0,0,7.876-9.947l.022-.029.034-.047c.823-1.121,1.674-2.281,2.548-3.445-.779-.074-1.469-.109-2.109-.109h-.047a9.416,9.416,0,0,0-5.344,1.322,8.022,8.022,0,0,0-3.093,4.631,32.977,32.977,0,0,1-2.879,5.617c1-3.33,1.764-7.074-1.956-9.375a15.778,15.778,0,0,0-4.787-1.668h0l-.009,0C-11171.774,22255.25-11172.552,22255.066-11173.3,22254.844Zm-265.029-1.486a3,3,0,0,0-1.552.43,23.34,23.34,0,0,0-2.15,4.957l7.519-.949a17.86,17.86,0,0,0-2.392-4.082A3.038,3.038,0,0,0-11438.328,22253.357Zm276.213-8.443h0l-3.853,5.4,1.827,1.832,5.325-3.879-3.3-3.357Zm-41.583-36.623a13.96,13.96,0,0,0-7.253,2.459c1.01.389,2.047.777,2.94,1.113l.094.033c2.263.85,4.6,1.725,6.888,2.713,2.844,1.2,5.645,2.547,8.352,3.848l.036.018.1.047c.777.373,1.581.76,2.369,1.137-.034-.424-.034-.84-.034-1.281a5.1,5.1,0,0,0,2.823-2.812,12.134,12.134,0,0,0,.621-3.672v-.008c.135-2.023.274-4.115,1.958-5.568-4.019.816-6.054,1.783-7.023,3.336a5.412,5.412,0,0,0-.7,3.078,20.958,20.958,0,0,0,.779,4.58l1.411.977-1.445-.977c-.342-.393-.7-.789-1.041-1.174l-.037-.041c-.786-.875-1.6-1.781-2.34-2.74C-11197.786,22209.947-11200.567,22208.291-11203.7,22208.291Zm-230.81,2.135h0c-1.609,3.922-1.947,5.881-1.206,6.986.563.838,1.759,1.2,4,1.2.2,0,.412,0,.631-.01l.037,0h.031l-.289-1.283c-.527-2.35-1.15-5.119-1.77-7.832.161-1.111.109-1.83-.153-2.133a.488.488,0,0,0-.389-.172c-.515,0-1.225.584-1.743,1.01-.131.109-.255.211-.354.285-2.705,1.988-5.244,4.078-7.933,6.291l-.022.018c-1.077.889-2.051,1.689-3.061,2.508a10.763,10.763,0,0,0,3.4.615,7.156,7.156,0,0,0,5.267-2.312A24.323,24.323,0,0,0-11434.508,22210.426Zm101.152-3.254c-1.666,0-3.307.936-6.4,2.924l1.977.539.831.225c2.511.684,4.982,1.355,7.627,2.1,2.076.58,4.185,1.182,6.342,1.8,1.618.463,3.34.955,5.041,1.436l-3.638-12.691-.138.2c-1.623,2.322-3.205,4.588-4.708,6.764C-11329.9,22208.174-11331.6,22207.172-11333.355,22207.172Zm-352.23,2.479-6.059,1.637,1.659,4.506,5.565-3.232Zm254.335-78.725-.146,1.49,9.183.617v.752l-8.613.424c.43.088.869.174,1.294.258l.364.07c3.783.738,7.7,1.5,10.664,3.42a10.875,10.875,0,0,1,3.69,3.891,15.434,15.434,0,0,1,1.766,6.52l1.523-.363c1.076-3.793,2.059-7.234,2.572-9.029l13.769-2.582-.412-1.986-35.653-3.48Zm-217.712-55.3v0a13.607,13.607,0,0,1,.741,7.193,18.936,18.936,0,0,1-2.389,5.908c-.542.955-1.151,1.941-1.689,2.813a33.166,33.166,0,0,0-3.783,7.449,12.391,12.391,0,0,0,.407,8.617c.79,1.92,1.511,3.9,2.207,5.818l.016.043c.712,1.957,1.449,3.982,2.262,5.943a18.815,18.815,0,0,1,1.455,5.156,10.319,10.319,0,0,1-.385,4.4c-.858,2.676-2.893,5.033-6.4,7.418a76.63,76.63,0,0,0-7.044,5.627l-.019.016c-1.053.91-2.246,1.941-3.508,2.986a9.4,9.4,0,0,0,4.523,1.338c2.749,0,4.684-1.742,6.391-3.279l0,0a15.142,15.142,0,0,1,2.484-1.957,25.633,25.633,0,0,0,7.59-6.32,25.646,25.646,0,0,0,4.207-7.758c1.929-5.547,2.357-11.816,2.772-17.881.2-2.9.405-5.9.772-8.783l1.782-.885,10.2,12.814a15.549,15.549,0,0,0,2.626-4.33,6.1,6.1,0,0,0,.281-3.7c-.584-2.17-2.691-3.953-6.263-5.3,4.434-2.164,6.878-3.578,7.929-5.3,1.035-1.7.738-3.641-.27-7.1l-17.22,9.7a31.925,31.925,0,0,1-1.584-9.105c-.275-3.592-.536-6.986-2.109-9.508a7.716,7.716,0,0,0-3.51-3.023,15.742,15.742,0,0,0-6.471-1.131c-.1,0-.2,0-.3,0q.164.771.323,1.518l0,.012c.407,1.912.791,3.719,1.215,5.633l2.745-5.029Zm87.343,57.039c-.167,1.053-.451,2.16-.727,3.23l-.006.023c-.627,2.443-1.275,4.965-.587,7,.6,1.807,4.277,2.754,7.6,2.754a14.714,14.714,0,0,0,3.9-.486,5.106,5.106,0,0,0,2.639-1.512c.853-1.074.328-3.277-.178-5.408l-.016-.064c-.207-.873-.421-1.775-.528-2.576a17.936,17.936,0,0,0-.717-2.426,36.711,36.711,0,0,1-6.531.992,9.6,9.6,0,0,1-3.407-.959l-.048-.021C-11560.681,22133.016-11561.153,22132.818-11561.62,22132.66Zm238.227-3.7h0c-2.8,4.01-4.367,6.373-4.158,8.3.206,1.9,2.092,3.484,5.687,6.354l8.274-2.881c-.169-1.086-.338-2.193-.506-3.289l-.214-1.4c-.338-2.205-.667-4.355-.989-6.418l-4.952,3.43-3.142-4.1Zm-369.6-16.625a9.918,9.918,0,0,0-5,1.328c.883,1,1.781,1.98,2.65,2.93a80.458,80.458,0,0,1,6.014,7.082,51.356,51.356,0,0,1,3.17,5.172l0,.006a41.517,41.517,0,0,0,3.955,6.182,33.7,33.7,0,0,0,8.821,7.271,2.943,2.943,0,0,0,1.518.35,10.339,10.339,0,0,0,2.1-.289l.015,0a4.886,4.886,0,0,1,.839-.139c-.673-1.783-1.465-3.441-2.231-5.045-1.607-3.367-3.125-6.545-2.918-9.686.205-3.164,1.964-6.187,4-9.689l.01-.018c.939-1.615,1.91-3.287,2.819-5.121l-11.292,2.207a25.928,25.928,0,0,1,6.5-9.082,17.022,17.022,0,0,1,10.524-3.951c.666-.039,1.3-.975,1.911-1.877a13.493,13.493,0,0,1,.858-1.178,11.541,11.541,0,0,1-1-.9l-.019-.018a4.543,4.543,0,0,0-2.237-1.5,10.6,10.6,0,0,0-1.593-.113,21.611,21.611,0,0,0-11.1,3.762c-3.73,2.41-6.543,5.5-7.716,8.471-.853,2.125-.935,3.74-.244,4.8.636.979,1.942,1.51,3.882,1.58-.559.025-1.171.111-1.711.188a15.312,15.312,0,0,1-2.012.188,3.73,3.73,0,0,1-1.6-.3C-11686.92,22113.627-11689.958,22112.338-11692.994,22112.338Zm488.955,2.584h0a24.845,24.845,0,0,0,2.951,16.809,21.912,21.912,0,0,0,12.929,10,11.177,11.177,0,0,0,3.018.531,3.757,3.757,0,0,0,2.693-1.012,10.894,10.894,0,0,0,2.191-3.338,15.7,15.7,0,0,1-3.651.447,11.2,11.2,0,0,1-7.109-2.324,10.818,10.818,0,0,1-3.781-6.865,37.961,37.961,0,0,1,1.343-17.514c.2-.619.409-1.223.619-1.838l0-.01a33.308,33.308,0,0,0,1.943-7.529,13.071,13.071,0,0,0-1.681-7.85,5,5,0,0,1,.046-3.529,10.2,10.2,0,0,1,1.844-3.611c.2-.23.4-.477.607-.736l.055-.066c1.13-1.406,2.409-3,4.422-3a5.64,5.64,0,0,1,2.842.9,9.121,9.121,0,0,0,4.254.816c1.77,0,3.116-.3,3.275-.721.771-2.035,1.72-3.066,2.819-3.066,1.493,0,2.893,1.877,3.565,2.779,2.416,3.2,5.422,7.184,5.7,11.088a47.242,47.242,0,0,1-1.121,11.34c-.377,2.086-.766,4.244-.989,6.371-.106.977-.251,1.992-.39,2.975l-.014.094c-.509,3.574-1.035,7.271-.093,10.475l.09.307c1.016,3.451,1.575,5.352,1.28,6.775-.3,1.447-1.489,2.363-3.879,3.754l-8.907-.484-.1,2.836c1.314,0,2.732.131,3.983.246l.058,0c1.306.117,2.655.238,3.926.238a10.21,10.21,0,0,0,4.476-.824c3.346-1.607,5.89-5.031,8.351-8.34l0-.006.049-.066c.334-.449.68-.914,1.017-1.359a5.009,5.009,0,0,0,.509-2.873v-.006a4.887,4.887,0,0,1,.529-2.9c3.946-5.074,4.588-11.25,1.906-18.354a108.946,108.946,0,0,0-10.813-20.283c-1.756-2.711-5.411-4.514-8.348-5.963a4.267,4.267,0,0,0-1.811-.334c-1.248,0-2.8.367-3.367,1.072-1.523,1.887-2.657,2.656-3.914,2.656a5.413,5.413,0,0,1-3.232-1.443,4.712,4.712,0,0,0-2.512-.725,4.7,4.7,0,0,0-1.9.4,160.023,160.023,0,0,0-14.23,10.738c-.471.4-.271,1.6-.041,2.986.125.748.254,1.521.306,2.3-2.632,1.041-4.562,3.881-5.295,7.789-.795,4.232-.126,9.375,1.883,14.48Zm-225.069-43.625c-4.792.91-7.815,1.52-9.533,2.512s-2.2,2.4-2.491,4.8a292.931,292.931,0,0,0-2.556,29.336,199.859,199.859,0,0,0,.956,21.066l0,.041c.114,1.416.244,3.02.361,4.557a5.5,5.5,0,0,0,2.425,3.379.406.406,0,0,0,.254.066c.687,0,2.33-.789,2.487-1.41.308-1.2.2-3.426-.586-3.926a4.384,4.384,0,0,1-2.379-3.641,10.83,10.83,0,0,1,1.069-4.045,43.55,43.55,0,0,1,3.385-7.436c4-6.187,6.106-11.281,6.616-16.027.625-5.826-1.143-11.27-5.4-16.643-1.7-2.139-2.351-4.41-1.746-6.074.558-1.537,2.114-2.578,4.628-3.1.509-.105.884-.764,1.4-1.674l.013-.021A19.028,19.028,0,0,1-11429.108,22071.3Zm-120.973,2.678c-5.136.416-7.772,1.123-9.407,2.527-1.829,1.572-2.374,4.08-2.661,7.619-.1,1.328-.251,2.68-.395,3.986l-.009.082a67.774,67.774,0,0,0-.545,7.4c-.056,7.516-.037,15.094-.019,22.422l0,.754c.008,3.484.017,7.088.017,10.656,1.309-2.291,2.6-4.566,3.82-6.7,2.869-5.039,5.837-10.25,8.854-15.457,3.675-6.383,3.418-12.672-.784-19.229a70.252,70.252,0,0,1-3.592-6.562c-.352-.705-.724-1.447-1.062-2.09Zm258.934,47-2.493,1.213c.075.506.149,1.141.232,1.855v.01a9.749,9.749,0,0,0,.494,2.838c.656,0,1.331.033,2.081.07l.053,0c.75.033,1.526.068,2.277.072,1.526,0,3.438-.127,4.676-1.113a74.709,74.709,0,0,0,9.056-9.117l.009-.01.039-.045c1.138-1.285,2.314-2.613,3.5-3.881l-.812-1.213-7.057,3.633-6.52-3.633c.092.291.183.574.26.814l0,.008c.832,2.586,1.617,5.027,1.345,7.307-.3,2.523-1.861,4.627-4.912,6.621l-2.234-5.432Zm-16.61-18.736c2.063,2.822,2.571,6.371,3.063,9.8a32.61,32.61,0,0,0,1.409,6.59,10.831,10.831,0,0,0,4.01,5.338l5.681-13.648-7.04,3.383c-.033-.172-.064-.346-.1-.52l-.067-.369,0-.016a23.05,23.05,0,0,0-1.791-6.35A8.17,8.17,0,0,0-11307.758,22102.234Zm-7.521-26.2c-3.711.318-6.539,1.705-8.406,4.125a12.608,12.608,0,0,0-2.354,5.926,26.612,26.612,0,0,0,.271,8.354,23.168,23.168,0,0,1,3.261.664,32.194,32.194,0,0,1,3.474,1.688l-.033,1.953-7.271.762a20.932,20.932,0,0,0-1.092,9.822,71.672,71.672,0,0,0,2.038,10.223l.047.188c.313,1.262.637,2.566.93,3.857.734-1.154,1.444-2.3,2.229-3.576l.025-.043c1.571-2.545,3.054-4.951,4.739-7.295,2.776-3.875,4.216-7.41,4.4-10.807.205-3.773-1.117-7.395-4.044-11.074a13.233,13.233,0,0,1-2.549-8.7c.161-1.57,1.521-3,2.835-4.377A20.8,20.8,0,0,0-11315.278,22076.033Zm-207.873,41.582-7.829.365c2.18,2.285,3.392,3.58,4.642,4.92l4.287-4.084-1.1-1.2Zm-10.5-22.314,0,0a11.829,11.829,0,0,1,6.362,5.33,26.915,26.915,0,0,1,2.71,7.781,9.254,9.254,0,0,0,2.9,5.316,9.137,9.137,0,0,0,5.829,1.783q-.983-2.039-1.892-3.965l-.261-.551-.033-.07c-1.579-3.33-3.07-6.477-4.662-9.547a17.97,17.97,0,0,0-6.014-6.906,14.175,14.175,0,0,0-7.895-2.357,15.844,15.844,0,0,0-3.262.346l4.727,1.936h-6.131c.683.82,1.479,1.607,2.322,2.439l.026.025c1.944,1.916,3.956,3.9,4.668,6.436s.082,5.467-.525,8.3v.006c-.261,1.217-.53,2.473-.687,3.67,3.692-.084,6.461-1.363,7.795-3.6a6.715,6.715,0,0,0,.862-3.922,12.83,12.83,0,0,0-1.521-5,63.819,63.819,0,0,0-5.317-7.449Zm374.069-16.088a53.02,53.02,0,0,0-6.208.469,79.507,79.507,0,0,1,7.405,3.746,52.535,52.535,0,0,1,4.8,3.637l.011.01.073.059c.8.656,1.632,1.334,2.538,2.043-.32-4.1-.927-6.355-2.1-7.789C-11154.308,22079.863-11156.257,22079.213-11159.579,22079.213Zm-32.937-1.8c-5.338,0-8.914.6-11.257,1.893a6.765,6.765,0,0,0-3.58,6.029l21.569-7.672C-11188.327,22077.494-11190.529,22077.412-11192.516,22077.412Zm-467.523-70.348a2.369,2.369,0,0,1,.9.143c1.087.457,2.031,2.455,2.149,3.938a4.773,4.773,0,0,1-1.065,2.6l0,.006c-.257.4-.547.861-.788,1.334,6.8-.055,8.274-1.238,8.274-6.656,5.6,4.477,9.306,6.3,12.775,6.3,2.474,0,4.971-.957,8.095-3.1l-26.3-10.1a62.052,62.052,0,0,0,8.09-12.4,52.133,52.133,0,0,0,4.3-12.828,55.427,55.427,0,0,0,.9-13.275,71.929,71.929,0,0,0-2.1-13.742c-1.1-4.432-1.872-6.648-3.539-8.066s-4.162-1.979-9.135-2.711c.475,3.873.889,7.211,1.269,10.2l1.636-.1c.155-.773.314-1.557.471-2.324l.12-.594,0-.018c.2-1,.414-2.033.618-3.055l1.636.314a31.009,31.009,0,0,0-.407,3.152l0,.039c-.2,2.115-.405,4.3-1.416,5.918-7.121,11.682-9.159,22.008-6.413,32.5l1.421-1.32a22.717,22.717,0,0,1,2.073,6.3,10.073,10.073,0,0,1-.423,5.086c-1.124,3.031-3.913,5.453-8.778,7.623a17.636,17.636,0,0,0-5.647,4.766,4.776,4.776,0,0,0-.73,2.59l0,.02a12.807,12.807,0,0,1-.176,1.307c-2.053-3.029-3.395-5.365-4.578-7.428l-.015-.025c-.938-1.633-1.75-3.043-2.678-4.369-4.157-5.895-5.3-12.457-3.491-20.059.174-.738.406-1.494.631-2.225l0-.012a13.447,13.447,0,0,0,.894-5.186,40.471,40.471,0,0,0-2.888-11.174,35.683,35.683,0,0,0-2.812-5.062l-.006-.01a32.08,32.08,0,0,1-3.021-5.6c-.522-1.387-.2-3.113.182-5.113l.01-.055c.179-.949.363-1.932.485-3l3.863,3.564v-6.062c-3.721.047-6.611,1.164-8.59,3.324a12.813,12.813,0,0,0-3.007,7.928c-.62,9.713-1.322,20.721-.073,31.344a28.6,28.6,0,0,0,4.71,12.4,87.41,87.41,0,0,0,8.4,10.414l.022.025c1.983,2.217,4.034,4.51,5.855,6.859.494.646,1.825.734,3.19.734.2,0,.4,0,.588,0h.515a4.551,4.551,0,0,0,1.543-.449,3.854,3.854,0,0,1,1.295-.389.718.718,0,0,1,.349.08,7.505,7.505,0,0,0,3.5,1.143c1.806,0,3.062-1.324,3.952-4.172C-11663.188,22007.684-11661.329,22007.064-11660.039,22007.064Zm624.157.939h0l-3.548,5.324c.444.145.978.354,1.577.594a10.023,10.023,0,0,0,2.456.787.316.316,0,0,0,.254-.084,10.929,10.929,0,0,0,1.547-3.664c.161-.561.309-1.062.479-1.553l-2.764-1.4Zm-267.325-11.711h0c-2.937,4.641-4.6,7.375-4.673,9.582a4.9,4.9,0,0,0,1.055,3.113,25.211,25.211,0,0,0,3.438,3.611,6.094,6.094,0,0,0,3.66.836c2.493,0,5.51-.652,6.035-1.709,1.339-2.65,1.557-5.844,1.81-9.541.109-1.6.222-3.256.436-5.006l-6.9,3.287-4.862-4.174Zm247.538,4.326a6.769,6.769,0,0,1,5.88,3.146c1.351,1.895,2.516,4.742,3.9,9.523,2-3.77,3.563-6.689,5.054-9.465a11.373,11.373,0,0,0,4.926,1.17c3.2,0,6.36-1.467,9.4-4.363l-33.934-5.125-.215-.58c-.539-1.449-1.278-3.436-2.368-6.479,1.439-.746,2.9-1.537,4.32-2.3l.021-.012c3.376-1.826,6.866-3.715,10.5-5.283a30.26,30.26,0,0,0,7.194-4.252,20.333,20.333,0,0,0,4.8-5.576,19.834,19.834,0,0,0,2.384-6.947,28.831,28.831,0,0,0-.065-8.369c-1.1-7.961-7.229-15.523-13.661-16.857l5.325,7.686c-3.117,3.023-6.109,8.125-8,13.646a31.168,31.168,0,0,0-1.639,7.162,8.685,8.685,0,0,0,.708,5.059,14.707,14.707,0,0,0-5.865,3.271,26.517,26.517,0,0,0-5.018,5.934,26.486,26.486,0,0,0-3.185,7.186,15.231,15.231,0,0,0-.367,7.029,17.292,17.292,0,0,1-5.874,1.105,16.42,16.42,0,0,1-9.325-3.139,58.105,58.105,0,0,1-7.857-6.871l-.893-.877-1.574,1.512q1.1,1.623,2.192,3.234c1.8,2.662,3.506,5.176,5.236,7.68a12.356,12.356,0,0,0-4.909,3.555,10.361,10.361,0,0,0-2.181,6.445c1.64-.777,3.226-1.6,4.76-2.4l.1-.053.007,0a56.969,56.969,0,0,1,10.221-4.516,14.334,14.334,0,0,1,4.12-.531c1.355,0,2.7.125,4.115.256l.054,0,.048,0c1.251.117,2.809.26,4.333.26a18.156,18.156,0,0,0,4.3-.469A13.243,13.243,0,0,1-11055.669,22000.619Zm-140.086-60.139c-3.9.625-6.443,2.234-7.781,4.918-1.3,2.615-1.338,6.029-1.2,9.025a37.61,37.61,0,0,1-.342,6.037v.01c-.137,1.232-.279,2.508-.34,3.773-.068,1.508-.155,3.043-.238,4.525l0,.041a140.115,140.115,0,0,0-.312,14.283c.087,1.863,1.163,3.727,2.2,5.527l.052.09c.362.629.736,1.279,1.051,1.908.566,1.135,1.124,2.344,1.616,3.41a47.413,47.413,0,0,0,4.786,8.711,57.636,57.636,0,0,0,10.276,9.9,3.755,3.755,0,0,0,2.33.525c.266,0,.539-.008.83-.018h.058c.128-.006.259-.01.393-.014.451-.014.935-.029,1.436-.029.449,0,.856.014,1.243.037-1.151-1.248-2.162-2.4-3.055-3.41l-.093-.105a53.934,53.934,0,0,0-4.828-5.068c-6.73-5.916-8.919-13.637-6.328-22.33,3.628-12.209,2.443-20.758-3.96-28.586l-.093-.115-.006-.006c-1.291-1.615-3.059-3.826-2.533-5.924.318-1.27,1.473-2.338,3.433-3.178.606-.26.839-1.4,1.063-2.512a13.043,13.043,0,0,1,.343-1.432Zm-231.113,54.7h0c-.435,1.813-1.026,3.531-1.6,5.193l0,.01c-1.109,3.225-2.068,6.012-1.112,7.686a8.343,8.343,0,0,0,4.026,3.492,13.712,13.712,0,0,0,5.456,1.066,15.7,15.7,0,0,0,3.931-.494c1.084-.307,1.353-3.465,1.664-7.121.15-1.768.3-3.594.57-5.234l-7.615,3.041-5.318-7.639Zm-138.869,4.389h0a49.537,49.537,0,0,0-3.871,6.168c-.77,1.584-.969,2.715-.627,3.557.591,1.455,2.859,2.158,6.579,2.881a18.479,18.479,0,0,0,3.537.391c2.335,0,3.994-.648,4.929-1.928,1.179-1.613,1.205-4.215.08-7.734-.488-1.492-.844-3.053-1.187-4.561-.147-.646-.331-1.449-.521-2.213a22.574,22.574,0,0,1-2.033,4.637,2.618,2.618,0,0,1-2.154,1.48c-1.223,0-2.775-1.07-4.73-2.678Zm391.886-10.633a10.481,10.481,0,0,0-2.89.451,31.5,31.5,0,0,0,1.394,2.879l0,.006c1.139,2.166,2.316,4.406,1.937,6.316-.45,2.262-2.219,4.287-4.09,6.43-.858.984-1.747,2-2.565,3.1a23.22,23.22,0,0,0,2.605.148,16.9,16.9,0,0,0,6.218-1.1,16.222,16.222,0,0,0,4.757-2.9c2.794-2.406,4.993-5.693,7.121-8.873l0-.008a56.223,56.223,0,0,1,5.726-7.6c-.521-.049-1.026-.072-1.5-.072-6.664,0-8.729,4.717-10.726,9.277-.441,1.01-.9,2.051-1.394,3.018.151-4.432-.656-7.594-2.4-9.4a5.593,5.593,0,0,0-4.186-1.67Zm-264.761-44.729v0c.69.465,1.4.932,2.152,1.426l.208.137c2.356,1.543,4.793,3.141,7.1,5a4.534,4.534,0,0,1,1.083,3.977c-1.962,5.928.068,11.047,2.556,15.7,1.956,3.658,3.879,7.24,5.915,11.035l.388.723c2.046,3.811,4.438,8.268,6.94,12.947-.152-1.877-.454-3.715-.746-5.492l0-.025c-.6-3.652-1.166-7.1-.3-10.123,2.494-8.8,1.923-16.77-1.652-23.031a23.24,23.24,0,0,0-6.736-7.393,31.279,31.279,0,0,0-10.3-4.676,10.228,10.228,0,0,1-2.7-1.373l-.012-.008a10.178,10.178,0,0,0-2.713-1.379,16.419,16.419,0,0,0-3.933-.641,3.674,3.674,0,0,0-2.131.521,54.558,54.558,0,0,0-7.462,6.674c-.7.705-1.42,1.434-2.144,2.143a20.7,20.7,0,0,0-5.521,8.875,20.772,20.772,0,0,0-.479,10.443,13.479,13.479,0,0,0,1.649,4.432,15.479,15.479,0,0,0,2.938,3.641,11.779,11.779,0,0,0,7.625,3.371,7.023,7.023,0,0,0,1.933-.264c2.055-.6,4.062-1.373,5.832-2.057l.016-.006c.7-.27,1.43-.551,2.1-.8-1.1-.3-2.276-.52-3.524-.746-2.885-.527-5.863-1.07-8.017-2.734a9.047,9.047,0,0,1-2.764-3.736,14.428,14.428,0,0,1-1.044-4.957,18.665,18.665,0,0,1,1.013-6.883,13.536,13.536,0,0,1,3.438-5.529c2.341-2.184,4.6-4.467,6.793-6.674.8-.811,1.656-1.672,2.5-2.514Zm-128.106,16.934a24.1,24.1,0,0,0-1.911,9.893,67.305,67.305,0,0,0,.993,9.8c.689,4.57,1.4,9.295.676,13.92,1.225-2,2.289-3.971,3.319-5.879l.016-.029.011-.021c.838-1.551,1.628-3.018,2.492-4.482.763-1.285,1.667-2.549,2.541-3.77a28.367,28.367,0,0,0,4.137-7.141,59.145,59.145,0,0,0,2.152-7.707,14.688,14.688,0,0,0-.149-7.352c-.858-2.527-.9-4.375-.138-5.812.731-1.377,2.174-2.354,3.844-3.4,1.323-.816,2.618-1.711,3.728-2.482l.248.131-.146-.18.146.145c0-.016,0-.031.008-.047s.009-.039.013-.057.013-.061.019-.094c-.031.006-.066.012-.1.02l-.1.02a.666.666,0,0,0-.092.063c-.409-.23-.842-.523-1.261-.807a6.046,6.046,0,0,0-2.637-1.285,1.021,1.021,0,0,0-.338.055,26.672,26.672,0,0,0-9.407,5.385,26.636,26.636,0,0,0-6.5,8.678l6.058,1.984-1.89,2.426-5.73-1.977Zm38.778,26.244-4.761,5.855c.763.1,1.5.275,2.148.43l.044.01a10.721,10.721,0,0,0,2.2.369,1.785,1.785,0,0,0,1.021-.262c1.039-.707,1.568-3.037,1.33-4.568-.168-1.049-1.968-1.826-1.985-1.834Zm-25.793-9c12.972,4.271,12.973,4.275,11.506,13.756,3.1-.455,4.815-1.164,5.922-2.449s1.619-3.162,1.761-6.475a22.137,22.137,0,0,0,8.485,1.885,15.783,15.783,0,0,0,5.516-.979,18.086,18.086,0,0,0,5.222-3.09l-31.812-5.914-.327,1.707,5.381,1.557Zm146.753-.346,5.088,11.518a4.242,4.242,0,0,0,3.414-2.459,14.681,14.681,0,0,0,.983-4.395v-.006c.009-.072.019-.146.027-.219s.016-.131.024-.2a9.4,9.4,0,0,0,5.43,1.893c2.908,0,5.56-1.631,7.77-3.225-1.23-.27-2.5-.553-4.128-.922-3.386-.762-6.584-1.48-9.8-2.055-.653-.059-1.337-.086-2.032-.086a24.174,24.174,0,0,0-2.942.178l-.028-.025-3.808,0Zm98.256-34.168h0a6.148,6.148,0,0,0-.742.045c-.612.082-1.166.555-2.082,1.336l-.02.018c-.561.477-1.259,1.07-2.18,1.752,4.036.318,6.57,1.326,7.746,3.078,1.36,2.029.866,4.859-.295,8.486a13.359,13.359,0,0,0,.756,9.092c2.484,5.127,5.334,10,8.351,15.166l.013.021c1.245,2.129,2.532,4.332,3.837,6.629.263-1.818.566-3.492.859-5.107l.018-.1a47.856,47.856,0,0,0,1.092-9.133,146.127,146.127,0,0,0-1.737-19.883c-.341-2.264-2.595-5.084-6.03-7.543C-11302.469,21945.346-11306.142,21943.867-11308.725,21943.867Zm21.617,34.412c.543,1.264,1.125,2.615,1.83,4.248l.112.26c.894,2.072,1.737,4.027,2.637,6.135a4.7,4.7,0,0,0,3.423-2.691,9.194,9.194,0,0,0,.44-4.625c3.219,2.879,5.5,4.107,7.636,4.107,1.965,0,3.935-1.01,6.584-3.375l-22.833-7.607-.389,1.285,4.845,2.314Zm206.965-14.047a18.187,18.187,0,0,0,4.77,8.584,12.63,12.63,0,0,0,8.491,4.119h.079c2.58,0,5.453-2.73,7.761-4.926l.007-.006.2-.2.348-.328c.839-.771.446-3.213.187-4.826l-.017-.109a8.357,8.357,0,0,0-2.539-5.322,7.136,7.136,0,0,0-4.787-1.467,23.99,23.99,0,0,0-5.3.727c1.795,1.094,2.774,2.156,2.993,3.248.265,1.324-.621,2.543-1.479,3.723-.921,1.268-1.873,2.578-1.441,4.039l-1.624.959-7.649-8.219Zm-103.08-3.176-.112.92,5.567.811-7.276,1.047c3.938.721,6.372,1.979,7.444,3.846.907,1.58.882,3.639-.078,6.295l1.579.521,6.16-7.77a14.226,14.226,0,0,0,5.82,1.449,8.367,8.367,0,0,0,4.129-1.049,10.749,10.749,0,0,0,3.379-3.113l-26.612-2.955Zm-130.937-20.977c-.592.139-1.221.234-1.829.328l-.043.008a10.29,10.29,0,0,0-3.881,1.107,27.842,27.842,0,0,0-3.741,2.951l-.015.014a26.582,26.582,0,0,1-3.831,3.01c-5.4,3.271-8.458,6.809-9.35,10.813-.879,3.949.344,8.344,3.737,13.436a18.188,18.188,0,0,1,.478-1.883c.356-1.225.664-2.281.262-2.844a5.921,5.921,0,0,1-1.033-5.512,11.86,11.86,0,0,1,3-4.285c3.73-3.775,7.771-7.3,11.678-10.7,1.517-1.322,3.235-2.822,4.91-4.318Zm-228.271,6.285c4.268,0,7.6,2.281,10.818,4.488l0,0c1.225.84,2.491,1.707,3.792,2.428-2.762,4.635-1.03,8.369.644,11.98l0,.01a30.058,30.058,0,0,1,1.58,3.875c7.009-7.6,7.449-11.189,2.143-17.445a30.857,30.857,0,0,0-7.083-5.592l-.009-.006c-.8-.51-1.7-1.09-2.542-1.672a17.279,17.279,0,0,0-4.529-2.234c-.144-.045-.289-.09-.443-.141-.066-.02-.134-.043-.2-.064a15.442,15.442,0,0,0-4.057-.926,2.116,2.116,0,0,0-1.022.211c-.8.449-.978,2.027-1.148,3.555v.012c-.066.59-.135,1.2-.238,1.73a12.845,12.845,0,0,1,2.289-.213Zm589.77,2.361v0c.728,4.033,1.121,6.254,1.506,8.482l1.512.568c.422-1.248,1.017-2.559,1.592-3.826,1.309-2.881,2.662-5.857,2.047-8.295a6.069,6.069,0,0,0-2.2-3.482,6.543,6.543,0,0,0-4-1.256,10.708,10.708,0,0,0-4.709,1.2c-4.74,2.324-3.941,5.625-3.236,8.537.37,1.529.721,2.975.209,4.1l7.279-6.023Zm-125.1,131.873v0c-.469-1.061-.977-2.2-1.513-3.3l1.89-1.49,2.345,1.557c-.916,1.08-1.831,2.168-2.72,3.234Z" transform="translate(11722.001 -21881)"/></svg>