<svg xmlns="http://www.w3.org/2000/svg" xmlns:xlink="http://www.w3.org/1999/xlink" width="769.001" height="950" viewBox="0 0 769.001 950"><defs><style>.a{opacity:0.2;fill:url(#a);}</style><linearGradient id="a" x1="0.5" x2="0.5" y2="1" gradientUnits="objectBoundingBox"><stop offset="0" stop-color="#fff"/><stop offset="1" stop-color="#766de8"/></linearGradient></defs><path class="a" d="M-11685,22383h0v-949.111l768-.889a251.725,251.725,0,0,1,1,25.355c-.02,9.334-.4,19.072-1.118,28.947-.9,12.33-2.348,24.9-4.3,37.354a465.37,465.37,0,0,1-24.465,92.588,452.293,452.293,0,0,1-23.32,51.574,447.479,447.479,0,0,1-32.817,52.648l-3.739-.623c.174-1.387.241-2.82.308-4.209l0-.047c.148-3.162.288-6.148,1.544-8.727a25.95,25.95,0,0,0,2.5-10.721,71.885,71.885,0,0,0-.731-10.7c-.276-2.33-.562-4.74-.683-7.105-.572-10.391-5.392-15.768-14.323-15.984.646,1.863,1.3,3.795,1.854,5.441l3.886-1.092a8.388,8.388,0,0,1,.343,6.471,21.2,21.2,0,0,1-3.125,5.275c-.174.238-.348.479-.519.715a13.612,13.612,0,0,0-2.818,7.461,18.175,18.175,0,0,0,1.664,7.871,91.978,91.978,0,0,1,5.464,20.094c.222,1.406.362,4.018-1.189,5.711a5.188,5.188,0,0,1-4.012,1.5,12.037,12.037,0,0,1-2.065-.2c.794,2.719,2.006,4.041,3.706,4.041a7.99,7.99,0,0,0,3.95-1.5,23.574,23.574,0,0,1,4.663-.469c.352,0,.665.008.96.023a457.893,457.893,0,0,1-36.828,43.795,484.822,484.822,0,0,1-45.719,42.084c-8.5,6.877-17.409,13.625-26.489,20.055-9.336,6.613-19.115,13.078-29.065,19.217-10.214,6.3-20.9,12.438-31.761,18.238-11.147,5.953-22.779,11.713-34.573,17.123a13.425,13.425,0,0,0-4.812-.674c-.838,0-1.788.033-2.907.105a34.87,34.87,0,0,0-6.91,1.4l-.036.01c-1.075.295-2.188.6-3.3.852l.175-.154-7.362,6.377c.616.738,1.211,1.5,1.769,2.277-.974.4-2.072.854-3.361,1.381l-.085-.092c-.04.057-.08.115-.115.166l-.007.01c-14.731,6.01-30.151,11.711-45.834,16.947-67.79,16.729-117.887,42.393-144.875,74.215-.076-.107-.173-.242-.29-.4a47.282,47.282,0,0,1-4.385-7.977c-.541-1.156-1.154-2.469-1.8-3.723l1.808-1.244,3.886,2.43c.146-.65.322-1.408.508-2.211l.114-.492.119-.518c.168-.727.34-1.471.51-2.219l-1.679-1.436a33.881,33.881,0,0,1-2.993,2.119c-2.283,1.5-4.644,3.049-4.875,4.811a192.707,192.707,0,0,0-1.221,23.512c0,.309-.007.615-.011.924,0,.262-.006.525-.009.789-20.122,33.912-12.535,70.268,20.3,97.25-2.715,1.928-5.362,3.832-7.9,5.945a34.46,34.46,0,0,0-7.412,8.975c-1.014,1.721-1.188,3.357-.479,4.494.667,1.063,2.063,1.625,4.038,1.625,9.094-.088,18.629-.314,27.042-.512l.955-.023c3.31-.076,6.73-.156,10.09-.229-.023-.178-.047-.361-.071-.541l-.013-.1-.01-.072c-.044-.33-.089-.67-.132-1.018l-27.96-11.969c1.2-.912,2.4-1.891,3.565-2.838l.123-.1,1.36-1.1c21.617,16.547,51.487,27.873,86.383,32.752,16.924,2.365,33.626,5.111,49.644,8.166,15.5,2.953,30.816,6.277,45.522,9.885,14.186,3.479,28.174,7.311,41.574,11.389,12.906,3.928,25.625,8.2,37.8,12.684a584.2,584.2,0,0,1,64.991,28.381,472.335,472.335,0,0,1,52.006,30.977,28.274,28.274,0,0,0-.82,6.107c0,.531,1.112,1.084,3.038,1.514a29.167,29.167,0,0,0,5.979.641,13.819,13.819,0,0,0,2.99-.273,360.485,360.485,0,0,1,55.4,50.229,282.987,282.987,0,0,1,32.544,44.457,208.843,208.843,0,0,1,15.362,31.756,101.333,101.333,0,0,1,3.858,12.125Zm300.342-38.033a6.56,6.56,0,0,1,4.929,1.99,5.394,5.394,0,0,1,1.191,4.68c-.35,1.918-.18,3.236.52,4.031.893,1.01,2.54,1.031,4.133,1.057h.018a6.976,6.976,0,0,1,3.564.629,5.879,5.879,0,0,0,2.247.443,5.791,5.791,0,0,0,3.02-.836,45.321,45.321,0,0,0,5.405-5.645c.745-.871,1.513-1.768,2.345-2.693l-29.627-9.213a36.559,36.559,0,0,0,.321-4.822c-.118-2.811-.174-5.729-.223-8.3-.135-7.035-.274-14.311-1.5-21.3a17.635,17.635,0,0,0-4.645-9.156,19.392,19.392,0,0,0-9.155-5.359,21.757,21.757,0,0,1-4.443-2.092,25.41,25.41,0,0,0-3.921-1.924,9.546,9.546,0,0,0-2.98-.486,4.847,4.847,0,0,0-2.5.566,89.506,89.506,0,0,0-7.854,6.064l-.076.064c-.987.824-2.008,1.674-3.024,2.49a22.616,22.616,0,0,0-5.344,5.873,11.812,11.812,0,0,0-1.794,6.063,11.339,11.339,0,0,0,1.632,5.727,20.332,20.332,0,0,0,4.931,5.488l2.975-11.629-1.481-.264-2.2,4.932-2.079-.885c.494-.982.929-2.035,1.349-3.053l0-.006c.943-2.283,1.919-4.645,3.6-6.328a87.768,87.768,0,0,1,9.723-8.016c1.648-1.234,3.353-2.512,5.107-3.9l-1.154,5.441,1.651-.949a19.453,19.453,0,0,0,1.5,1.453l.007.006c1.1.994,2.23,2.021,2.023,2.611-1.863,5.084-.6,9.676,3.965,14.453a39.731,39.731,0,0,1,7.623,11.223,37.969,37.969,0,0,1,3.287,12.955,11.007,11.007,0,0,1-1.1,4.715c-.271.693-.578,1.479-.793,2.225l-1.571.262c1.639,2.188,2.316,3.1,3.513,3.1a11.9,11.9,0,0,0,3.491-1.018l.02-.006A9.569,9.569,0,0,1-11384.658,22344.969Zm167.024.393c1.823,0,2.882.533,3.54,1.785.671,1.277.939,3.344,1.155,6.268a29.906,29.906,0,0,1,5.784,1.588c2.461,1.232,3.905,1.855,4.968,1.855,1.621,0,2.247-1.551,3.2-4.848l-6.94-3.264.694-1.187a18.624,18.624,0,0,0,8.568,2.365,13.175,13.175,0,0,0,8.25-2.92c-1.773-.545-3.591-1.16-5.194-1.7l-.05-.018c-3.333-1.123-6.779-2.285-10.369-3.121-3.738-.873-7.6-1.418-11.685-1.994l-.041-.006c-1.888-.266-3.839-.541-5.882-.861.9-.707,1.79-1.379,2.654-2.029l.062-.047a60.434,60.434,0,0,0,5.379-4.369c1.228-1.164,2.534-2.309,3.8-3.416l.011-.01c3.735-3.279,7.6-6.666,9.749-10.719,2.428-4.607,2.322-10.74,2.229-16.15,0-.166,0-.33-.008-.492s-.006-.307-.008-.459c-.125-7.594-2.692-10.5-10.989-12.439a15.4,15.4,0,0,1-3.8-2.023c-.417-.236-.918-.584-1.321-.863l-.01,0a5.8,5.8,0,0,0-2.145-1.156.392.392,0,0,0-.192.043,11.127,11.127,0,0,0-2.807,2.754l-.071.09c-.3.375-.619.762-.939,1.117l.546,1.326a15.792,15.792,0,0,1,3.556-.461,6.511,6.511,0,0,1,4.6,1.57,8.322,8.322,0,0,1,2.249,5.268l2.174-4.355,2.314.73c-.272.859-.476,1.77-.673,2.652v.006a13.31,13.31,0,0,1-2.1,5.512c-3.009,3.689-3.629,7.7-4.083,12.17a34.4,34.4,0,0,1-2.595,8.83l0,.006,0,.012c-.5,1.26-1.007,2.564-1.438,3.852h0l-.067.086c-.852.932-1.724,1.855-2.543,2.721l-.006.008a84.1,84.1,0,0,0-5.979,6.8,30.034,30.034,0,0,0-2.966,5.346l-.01.02c-.424.9-.9,1.918-1.446,2.963l-19.29-10.881c-.207.607-.512,1.531-.835,2.512l0,.014c-.271.822-.579,1.754-.885,2.672l-1.261-.764c-.393.574-.909,1.184-1.408,1.773-1.157,1.365-2.354,2.775-2.062,3.8a24.164,24.164,0,0,0,3.584,6.621l.015.021.021.031c.582.859,1.185,1.748,1.749,2.66a12.824,12.824,0,0,1,2.744-1.816,141.5,141.5,0,0,1,14.789-5.219,3.177,3.177,0,0,1,.829-.1,10.256,10.256,0,0,1,2.572.488l.009,0,.043.012.024.006.012,0a10.353,10.353,0,0,0,2.618.49,3.5,3.5,0,0,0,.742-.074A35.947,35.947,0,0,1-11217.634,22345.361Zm-375.431-53.129a22.132,22.132,0,0,0-7.088,1.662l-.3.109a9.376,9.376,0,0,1-1.087.229c-15.834,3.049-22.855,11.559-22.1,26.775.15,3.227.437,6.5.713,9.666l.008.09c.427,4.877.868,9.914.817,14.814-.039,3.971-.007,6.283,1.1,7.625,1.088,1.32,3.263,1.752,7.43,2.17.661.061,1.255.09,1.813.09a10.857,10.857,0,0,0,3.848-.607,5.174,5.174,0,0,0,2.408-1.77c1.283-1.781,1.208-4.5-.218-7.857a94.6,94.6,0,0,1-3.133-9.068c-.352-1.145-.715-2.326-1.074-3.42-.35,6.311-.35,6.311-4.139,8.631-3.159-3.885-2.683-9.416,1.306-15.172.581-.844,1.205-1.709,1.756-2.473,3.944-5.475,8.022-11.135,5.369-18.2-.717-1.906-.785-3.35-.21-4.416.76-1.406,2.486-1.988,4.665-2.6a9.775,9.775,0,0,1,2.671-.344,21.7,21.7,0,0,1,9.25,2.486c3.078,1.545,5.44,3.475,6.48,5.289l-7.362,9.859,8.634-4.959-.736.705c.5.537,1.154,1.117,1.784,1.674l.011.012c1.244,1.1,2.419,2.146,2.2,2.664-1.5,3.6-3.351,6.223-5.486,7.793a4.216,4.216,0,0,1-2.562.613c-.819,0-1.723-.1-2.6-.186l-.021,0c-.694-.072-1.482-.156-2.177-.174-.115-.012-.213-.572-.308-1.115l-.02-.109c-.034-.193-.067-.377-.1-.531l3.262-.312c-.78-2.2-1.473-4.125-2.118-5.9a.291.291,0,0,0,.057-.059l.1.008.084-.123-.146.084-.146-.072c.007.02.014.039.021.059l.009.023c.009.025.019.053.026.08-.384.363-.775.738-1.108,1.057-.706.678-1.506,1.447-2.271,2.123-2.053,1.732-3.021,3.406-2.88,4.973s1.414,3.09,3.78,4.49a13.344,13.344,0,0,0,6.7,1.854,10.223,10.223,0,0,0,7.993-3.508,38.945,38.945,0,0,0,5-8.562l.007-.016c.725-1.512,1.474-3.076,2.34-4.693l10.021,7.137c.167-.492.372-1.008.554-1.463,1.122-2.828,2.282-5.752-2.356-7.814,3.426-.469,5.839-1.4,7.376-2.848a6.577,6.577,0,0,0,1.923-5.687c-1.654.277-3.354.578-4.816.838-4.193.742-8.529,1.51-12.875,1.977a2.062,2.062,0,0,1-.23.014c-1.5,0-3.342-1.406-4.563-2.334l0,0a106.7,106.7,0,0,1-10.921-8.562A8.876,8.876,0,0,0-11593.064,22292.232Zm542.177,42.5c-.395.854-.8,1.719-1.179,2.525l-.011.021c-1.134,2.42-2.307,4.924-3.39,7.5a3.163,3.163,0,0,0,.191,2.512c.37.652,1.7,1.34,3.646,1.889a23.067,23.067,0,0,0,5.868.846c1.824,0,3.135-.312,3.79-.906,1.329-1.238,1.032-4.281.794-6.725-.018-.174-.034-.346-.05-.512a19.627,19.627,0,0,0-1.735-5.1l-7.925-2.043Zm14.324-11c-2.63,0-3.627.969-5.278,2.574,1.028.447,2.138.854,3.21,1.248l.039.014c5.57,2.041,11.327,4.15,9.987,12.689.456-.424.977-.832,1.48-1.227l0,0,.007-.006a9.137,9.137,0,0,0,2.777-2.887c1.3-2.957,3.112-4.057,6.674-4.057h.014a13.84,13.84,0,0,0,5.137-1.443l.013,0,.012,0c.741-.312,1.508-.637,2.261-.891l-.04-.01C-11026.312,22325.488-11032.953,22323.734-11036.563,22323.734Zm17.64,8.461h0c-.5.744-1.021,1.4-1.478,1.982l-.006.008c-.9,1.137-1.6,2.035-1.547,2.768a4.385,4.385,0,0,0,3.048,2.867.15.15,0,0,0,.042-.006h.042a4.543,4.543,0,0,0,3.25-2.994c.078-.768-.656-1.568-1.673-2.676l-.013-.014c-.515-.562-1.1-1.2-1.666-1.936Zm-54.139-12.057a1.449,1.449,0,0,0-.6.1,4.274,4.274,0,0,0-2.061,3.686,79.638,79.638,0,0,0,2.963,9.488,30.866,30.866,0,0,0,5.781-2.053l.025-.01c2.613-1.129,5.315-2.3,8.035-2.3a10.093,10.093,0,0,1,7.269,3.361c.835-1.316,1.669-2.617,2.553-3.994l.277-.432.018-.027c2.278-3.551,4.634-7.223,6.885-10.943,4-6.641,7.357-13.844.89-22.494l10.657-2.748c-.449-.277-.921-.621-1.405-.98-1.077-.795-2.19-1.615-3.171-1.615a1.838,1.838,0,0,0-.217.012,23.513,23.513,0,0,0-8.807,2.82,12.984,12.984,0,0,0-5.742,6.518,82.656,82.656,0,0,0-3.7,14.424c-.208,1.078-.468,2.422-.729,3.693a56.653,56.653,0,0,0-.592,7.8l-1.966.5-8.758-9.229a20.541,20.541,0,0,1-.808,2.023l0,.008,0,.008c-.627,1.422-1.218,2.764-.842,3.793.425,1.148,1.7,2,3.178,2.984.7.465,1.425.947,2.134,1.514-.813-.174-1.634-.266-2.358-.348-2.769-.312-5.16-.584-5.544-4.268C-11069.768,22320.951-11071.866,22320.139-11073.062,22320.139Zm-147.812-28.43c-4.624,1.656-7.625,5.947-8.679,12.41-1.061,6.508-.1,14.99,2.771,24.527a39.922,39.922,0,0,0,3.272-4.473,25.69,25.69,0,0,0,1.515-4.059l8.527-1.219v-4.141l-.016,0c-.591,0-1.206.047-1.8.1l-.009,0h-.018c-.516.041-1,.082-1.406.082-.6,0-.934-.09-1.054-.283-.389-.6-.812-1.229-1.249-1.869-1.759-2.584-3.578-5.256-3.854-8.021-.3-2.963.436-6.082,1.146-9.1l0-.01C-11221.437,22294.434-11221.109,22293.047-11220.875,22291.709Zm4.5,30.082a13.621,13.621,0,0,0-3.589,1.32,2.617,2.617,0,0,0-.636,1.67,7.776,7.776,0,0,1-.18.9l5.171.684.112-.117C-11215.771,22324.881-11216.05,22323.467-11216.375,22321.791Zm191.689-9.584h0l-5.711,4.916.013,0c2.677.938,5.71,2,8.549,2a9.631,9.631,0,0,0,7.271-3.221,15.866,15.866,0,0,0,2.875-4.109,13.774,13.774,0,0,0,1.241-4.359,20.054,20.054,0,0,0-1.4-9.232,14.2,14.2,0,0,0-4.475-6.213,23.426,23.426,0,0,0-6.953-3.754c-1.247-.453-2.526-.887-3.655-1.268-.562-.191-1.09-.369-1.566-.533-.071.225-.145.449-.218.676s-.146.449-.219.674c-.413,1.275-.852,2.631-1.275,3.959,5.571,1.164,9.657,3.9,11.5,7.711a10.587,10.587,0,0,1,1.021,5.48,14.427,14.427,0,0,1-2,6.094c-.454.811-1.627,1.238-2.762,1.654l-.018.008a14.692,14.692,0,0,0-1.479.6l-.749-1.086Zm-587.036-71.373h0c1.545,2.482,3.469,5.574,5.5,5.66l2.146.084h.01a71.725,71.725,0,0,1,13.831,1.432,26.887,26.887,0,0,1,6.384,2.369,23.123,23.123,0,0,1,5.786,4.357c1.063-3.365,1.02-5.777-.135-7.373-.979-1.35-2.739-2.113-5.38-2.326-1.909-.158-3.945-.23-6.407-.23-1.705,0-3.373.035-4.985.068l-.077,0c-1.566.033-2.972.063-4.312.063,1.783-.2,3.6-.354,5.527-.52l.188-.016a109.679,109.679,0,0,0,14.4-1.879,5.82,5.82,0,0,0,4.59-3.58c.784-2.268-.127-5.121-2.438-7.631a30.354,30.354,0,0,1-10.56,8.441,29.444,29.444,0,0,1-12.575,2.648,47,47,0,0,1-11.5-1.57Zm217.192,1.5h0l-4.776,4.256c.329.295.7.693,1.067,1.078l.029.031c.754.8,1.531,1.625,1.945,1.625a.264.264,0,0,0,.1-.018,7.119,7.119,0,0,0,3.548-3.262c.217-.426-.282-1.172-.913-2.117l0-.006c-.3-.449-.676-1.01-.992-1.588Zm-16.987-2.545a3.484,3.484,0,0,1,2.694,1.207,10.372,10.372,0,0,1,1.7,2.959,32.21,32.21,0,0,1,1.211,4.842l1.785.359,3.47-9.082a27.3,27.3,0,0,0,6.895,1.18,11.236,11.236,0,0,0,6.8-2.379c-2.094-.578-4.232-1.129-6.3-1.662l-.044-.012c-4.711-1.217-9.582-2.475-14.231-4.115a34.118,34.118,0,0,0-11.777-2.051,48.871,48.871,0,0,0-15.433,2.8,4.143,4.143,0,0,0-2.315,3.088,3.838,3.838,0,0,0,2.315,2.994c.923.188,1.866.4,2.779.609l.216.049a45.682,45.682,0,0,0,9.955,1.508,16.978,16.978,0,0,0,7.226-1.5A7.478,7.478,0,0,1-11411.517,22239.793Zm-159.7.412h0a36.037,36.037,0,0,0-4.01,4.693c-.031.049.009.164.113.338.414.682,1.8,2.127,2.37,2.127a.168.168,0,0,0,.057-.006,14.856,14.856,0,0,0,3.928-1.834l.011,0,.107-.062c.621-.359,1.325-.766,2.111-1.184l-4.687-4.068Zm369.462-6.578c-2.108,0-2.939,1.715-3.742,3.371-.233.484-.5,1.031-.793,1.51-1.525,2.482-.084,3.387,1.443,4.342l.01.008a6.334,6.334,0,0,1,1.774,1.416,3.757,3.757,0,0,0,3.138,1.785,8.949,8.949,0,0,0,2.432-.473l.028-.01.027-.008a8.786,8.786,0,0,1,2.4-.479,3.177,3.177,0,0,1,.975.143c.186-.643.423-1.277.652-1.891a11.3,11.3,0,0,0,.992-4.277,14.061,14.061,0,0,0-1.2-4.473c-.256-.66-.483-1.252-.679-1.848a.534.534,0,0,1,.076-.025l.031-.01-.021-.014c-.012-.029-.025-.057-.039-.086l-.007-.014-.018-.037c.207-.275.469-.559.7-.809.591-.646,1.2-1.314,1.2-1.988.061-1.029.132-2.078.2-3.092l.013-.186v-.008a85.4,85.4,0,0,0,.146-14.865,88.281,88.281,0,0,0-4.489-20.672,8.589,8.589,0,0,0-3.374-3.773,40.161,40.161,0,0,0-5.014-2.875,29.746,29.746,0,0,0-8.47-2.279c-.433-.072-.794-.133-1.155-.2a6.308,6.308,0,0,0-1.21-.113,6.385,6.385,0,0,0-3.149.824c-.656.469-.337,2.352-.126,3.6l.008.049a18.593,18.593,0,0,0,.769,2.7l0,.014c.582,1.715,1.132,3.336.675,4.748a66.936,66.936,0,0,1-4.555,9.857c-.693,1.313-1.48,2.8-2.215,4.289l5.1.389,4.174,7.531,1.532-.566v-29.2l1.277-.687,5.357,5.627c.176-.643.358-1.357.591-2.266l.026-.105.113-.439c.1-.4.212-.832.334-1.3,4.729,4.57,3.191,9.064,1.854,11.336-5.106,8.592-2.135,15.152,4.314,22.951,1.853,2.234,2.918,5.111,3.947,7.895l0,.008c.419,1.137.895,2.424,1.416,3.609l-.007.01a.19.19,0,0,1-.032.043l-.028-.02,0,.01a.13.13,0,0,1,.007.031.02.02,0,0,1-.009.018l.02.014a.5.5,0,0,1,.021.07l0,.01c-.5.172-1.046.42-1.573.66l-.027.012-.008.006a7.808,7.808,0,0,1-2.76.906,1.468,1.468,0,0,1-.571-.105A6.675,6.675,0,0,0-11201.752,22233.627Zm-392.681-48.705a4,4,0,0,0-2.687,1.014,10.025,10.025,0,0,0-2.16,2.891c-.083.146-.425.158-.786.17l-.01,0a3.407,3.407,0,0,0-.809.088,30.594,30.594,0,0,0-8.788,3.988,24.237,24.237,0,0,0-6.735,6.967,27.607,27.607,0,0,0-3.687,8.91,34.5,34.5,0,0,0-.772,10.15,30.7,30.7,0,0,0,7.592,18.734,27,27,0,0,1,1.643-12.848,52.53,52.53,0,0,1,6.146-11.094c3.131-4.533,3.765-9.084,1.882-13.525-1-2.365-1.161-4.115-.5-5.508.7-1.486,2.315-2.607,5.235-3.631a20,20,0,0,0,3.475-2.045,53.3,53.3,0,0,0,5.02,2.855c5.838,3.049,11.873,6.2,11.461,14.717l-3.835.818,3.847,6.027c.708-.957,1.483-1.814,2.234-2.645l.007-.008c1.485-1.639,2.768-3.053,2.906-4.574a15.073,15.073,0,0,0-.735-6.777,14.276,14.276,0,0,0-3.229-5.051c-2.808-2.924-6.647-5.035-10.713-7.273l-.486-.268c-.4-.223-.812-.449-1.214-.674A9.2,9.2,0,0,0-11594.433,22184.922Zm180.539-.07v0l10.989,5.852c-.2,1.264-.441,2.432-.672,3.563l-.012.059v.008a26.885,26.885,0,0,0-.82,6.6,61.465,61.465,0,0,0,2.117,11.242c.161.65.325,1.289.509,2a40.02,40.02,0,0,1,1.688,9.781,15.682,15.682,0,0,1-.73,4.881,15.712,15.712,0,0,1-2.621,4.871,6.643,6.643,0,0,0,3.667-1.154c8.521-7.494,12.964-15.943,13.208-25.113.265-9.316-3.981-19.713-14.064-21.932a61.448,61.448,0,0,1-7.267-2.238l-.048-.016c-1.977-.7-4.021-1.42-6.085-1.949a2.564,2.564,0,0,0-.626-.074,8.651,8.651,0,0,0-3.768,1.326,13.892,13.892,0,0,0-2.327,1.82l-.014.01a13.443,13.443,0,0,1-2.289,1.793,19.7,19.7,0,0,0-10.408,15.93,13.091,13.091,0,0,0,.389,5.063,9.03,9.03,0,0,0,2.142,3.754,9.726,9.726,0,0,0,7.212,2.783,16.549,16.549,0,0,0,4.648-.715,19.345,19.345,0,0,1,3.369-.287h.2l-5.069-5.07-2.141,2.7a14.758,14.758,0,0,1-3.259-5.162,12.783,12.783,0,0,1-.743-5.535,12.618,12.618,0,0,1,5.157-9.047l7.67-5.736Zm192.534-1.252c-9.442,0-17.537,9.141-21.127,23.854.983-.68,1.913-1.248,2.733-1.75l.022-.012.006,0a14.2,14.2,0,0,0,3.94-3.02,14.73,14.73,0,0,0,2.075-4.457l0-.006c.274-.8.559-1.637.907-2.482,1.037,4.6,1.414,5.922,3.178,5.922a14.544,14.544,0,0,0,3.215-.635c-2.682-3.293-3.41-6.355-2.228-9.359.991-2.521,3.345-5.078,7.4-8.049Zm-388.858-78.693h0c-.618,2.213-1.318,4.48-1.936,6.48a110.61,110.61,0,0,0-3.85,14.914,12.843,12.843,0,0,0,.12,5.045,8.958,8.958,0,0,0,1.994,3.854c2.171,2.451,5.8,3.828,10.5,3.984a57.6,57.6,0,0,1,11.039,1.166,11.4,11.4,0,0,1,4,2.277c.507.383,1.031.781,1.557,1.119l-7.092,3.936.728,1.24a20.76,20.76,0,0,0,4.787-.867c.188-.084.395-.174.634-.275,2-.859,4.479-1.93,4.667-3.166a7.221,7.221,0,0,0-.631-3.34,7.71,7.71,0,0,0-2.112-2.752,30.327,30.327,0,0,0-7.243-3.236l-.011,0c-.919-.318-1.87-.648-2.823-1.014-3.852-1.477-6.391-3.2-7.147-7.193-.971-5.137-2.289-10.3-3.564-15.3l-.013-.051-.043-.166c-.527-2.066-1.072-4.205-1.584-6.307Zm214.688,38.492a13.006,13.006,0,0,1,3.073,2.8c.954,1.639,2.03,2.469,3.2,2.469a4.18,4.18,0,0,0,2.917-1.611,59.873,59.873,0,0,0,4.872-6.59c-1.622-5.41-3.056-10.215-4.382-14.691-.071-.242-.138-.494-.2-.742l-.01-.035c-.408-1.561-.83-3.174-2.664-3.174a5.739,5.739,0,0,0-1.974.434,25.278,25.278,0,0,1-1.963,10.693,17.891,17.891,0,0,1-7.74,8.23l.99,1.48,12.357-3.873c-.078.4-.17.846-.268,1.316l-.022.111c-.2.959-.447,2.152-.611,3.176Zm-204.554-35.768a8.051,8.051,0,0,0-4.688,1.467c1.332.465,2.663.832,3.837,1.158h.012c2.649.738,5.151,1.432,6.864,2.846,1.731,1.434,2.7,3.625,3.723,5.945l0,.012c.446,1.014.908,2.063,1.443,3.051,2.04-1.186,3.193-2.535,3.428-4.008.238-1.506-.479-3.166-2.133-4.936a17.1,17.1,0,0,0,6.271,1.576c2.645,0,4.558-1.3,6.4-4.363l-17.815-1.242-.046-.039c-.812-.168-1.67-.4-2.358-.584A19.221,19.221,0,0,0-11600.083,22107.631Zm-10.98-16.1v0c.378,1.98.653,3.463.9,4.771l.028.154.051.271c.164.881.307,1.643.454,2.418l1.448.51a36.971,36.971,0,0,1,1.514-3.41c1.255-2.594,2.553-5.277,1.956-7.471a5.413,5.413,0,0,0-2.1-3.125,6.533,6.533,0,0,0-3.817-1.129,10.751,10.751,0,0,0-4.493,1.08c-4.535,2.086-3.771,5.043-3.1,7.654v.006h0c.354,1.369.688,2.662.2,3.666l6.954-5.4Zm37.771-45.916c-1.258,1.754-2.366,3.32-3.391,4.789.449.131,1,.338,1.536.535l.027.012.021.008a9.7,9.7,0,0,0,2.262.672.319.319,0,0,0,.248-.076,9.525,9.525,0,0,0,1.479-3.3l.012-.039c.137-.445.279-.906.44-1.344Zm-18.885-6.658a6.567,6.567,0,0,1,5.607,2.824c1.288,1.7,2.4,4.256,3.719,8.543,1.753-3.1,3.5-6.17,4.827-8.5a11.383,11.383,0,0,0,4.7,1.055c3.048,0,6.064-1.314,8.967-3.9l-32.318-4.627-.207-.523c-.549-1.387-1.23-3.115-2.261-5.8,1.323-.646,2.646-1.318,4.045-2.031l.053-.025c3.23-1.648,6.569-3.35,10.074-4.768a29.29,29.29,0,0,0,6.868-3.816,18.622,18.622,0,0,0,4.585-5.008,17.07,17.07,0,0,0,2.274-6.234,24.308,24.308,0,0,0-.063-7.51,19.91,19.91,0,0,0-4.629-9.781,15.493,15.493,0,0,0-8.455-5.355c.575.783,1.132,1.541,1.792,2.436l.6.818c.928,1.26,1.8,2.451,2.686,3.654-2.977,2.713-5.831,7.289-7.637,12.242a26.551,26.551,0,0,0-1.561,6.426,7.383,7.383,0,0,0,.682,4.541,14.34,14.34,0,0,0-5.6,2.938,24.377,24.377,0,0,0-4.793,5.326,23.138,23.138,0,0,0-3.044,6.451,12.879,12.879,0,0,0-.351,6.309,17.678,17.678,0,0,1-5.611.975,16.37,16.37,0,0,1-8.887-2.787,54.206,54.206,0,0,1-7.482-6.127l-.244-.223-.66-.607-1.5,1.361c1.324,1.791,2.626,3.607,3.775,5.211l.021.027c1.132,1.58,2.2,3.07,3.295,4.555a11.674,11.674,0,0,0-4.684,3.191,8.929,8.929,0,0,0-2.069,5.787c1.65-.73,3.231-1.506,4.761-2.256l.012-.006.007,0a54.788,54.788,0,0,1,9.611-3.988,14.305,14.305,0,0,1,3.93-.48c1.293,0,2.575.111,3.934.232l.036,0,.054,0,.064.006c1.254.109,2.676.23,4.079.23a18.493,18.493,0,0,0,4.1-.422A13.393,13.393,0,0,1-11592.177,22038.961Zm-23.364-32.668a16.045,16.045,0,0,0,4.555,7.7,12.351,12.351,0,0,0,8.1,3.689.286.286,0,0,0,.073.006c2.457,0,5.2-2.443,7.395-4.406l0,0c.1-.092.2-.18.3-.268.082-.072.163-.143.243-.215.8-.7.429-2.887.181-4.332v-.006l-.016-.092a7.342,7.342,0,0,0-2.424-4.775,7.112,7.112,0,0,0-4.565-1.314,24.327,24.327,0,0,0-5.064.652c1.713.982,2.646,1.936,2.855,2.916.253,1.184-.594,2.279-1.412,3.338-.88,1.139-1.788,2.313-1.376,3.623l-1.548.865-7.3-7.381Zm5.959-132.086c-3.72.557-6.148,2-7.426,4.418-1.246,2.359-1.268,5.41-1.124,8.084a31.671,31.671,0,0,1-.324,5.414l0,.016c-.13,1.113-.265,2.262-.321,3.393-.064,1.289-.144,2.6-.22,3.869l-.006.1v.023a118.89,118.89,0,0,0-.309,12.922c.086,1.682,1.117,3.361,2.115,4.99l.032.053c.349.568.709,1.158,1.012,1.727.526.994,1.033,2.025,1.522,3.021l.022.047a41.932,41.932,0,0,0,4.562,7.814,54.324,54.324,0,0,0,9.789,8.842,3.8,3.8,0,0,0,2.208.459c.362,0,.753-.006,1.228-.023.514-.02.946-.029,1.362-.029s.827.012,1.218.033c-1.12-1.137-2.1-2.182-2.967-3.105l-.088-.094a49.683,49.683,0,0,0-4.572-4.5c-6.424-5.307-8.512-12.24-6.038-20.053,1.649-5.215,2.228-9.453,1.819-13.338a21.832,21.832,0,0,0-5.6-12.32l-.021-.023,0-.006c-1.192-1.363-3-3.422-2.507-5.318.3-1.146,1.4-2.115,3.294-2.879.58-.23.8-1.26,1.019-2.256l0-.016A10.963,10.963,0,0,1-11609.582,21874.207Zm173.07,37.166h0a21.163,21.163,0,0,0,2.814,15.092,20.826,20.826,0,0,0,12.351,8.977,11.3,11.3,0,0,0,2.866.477c2,0,3.175-.984,4.675-3.9a15.949,15.949,0,0,1-3.473.4h-.011a11.148,11.148,0,0,1-6.78-2.086,9.579,9.579,0,0,1-3.614-6.156,32.086,32.086,0,0,1-.342-7.939,32.251,32.251,0,0,1,1.626-7.8c.2-.576.405-1.143.6-1.668l0-.006a28.426,28.426,0,0,0,1.85-6.746,11.162,11.162,0,0,0-1.6-7.039,4.22,4.22,0,0,1,.044-3.162,9.03,9.03,0,0,1,1.759-3.248c.216-.234.432-.486.641-.729,1.078-1.256,2.3-2.678,4.21-2.678a5.621,5.621,0,0,1,2.715.814,9.259,9.259,0,0,0,4.07.73c1.682,0,2.963-.268,3.115-.65.737-1.826,1.643-2.754,2.691-2.754,1.415,0,2.757,1.682,3.4,2.486,2.308,2.877,5.179,6.457,5.441,9.963a40.083,40.083,0,0,1-1.07,10.164c-.359,1.871-.731,3.809-.946,5.74-.1.887-.242,1.813-.377,2.705l-.006.035c-.485,3.215-.987,6.537-.09,9.4l.088.281c.967,3.1,1.5,4.8,1.219,6.08-.286,1.3-1.421,2.127-3.7,3.381l-8.506-.445-.1,2.545c1.252,0,2.607.117,3.8.217s2.552.219,3.806.219a10.272,10.272,0,0,0,4.27-.738c3.211-1.453,5.647-4.543,8-7.529.335-.424.662-.84.986-1.244a4.247,4.247,0,0,0,.49-2.584,4.143,4.143,0,0,1,.507-2.6c3.768-4.564,4.378-10.107,1.813-16.473a95.732,95.732,0,0,0-10.318-18.215c-1.7-2.457-5.177-4.057-7.971-5.34a4.285,4.285,0,0,0-1.745-.3,4.757,4.757,0,0,0-3.194.957c-1.454,1.689-2.538,2.381-3.739,2.381a5.332,5.332,0,0,1-3.087-1.295,4.827,4.827,0,0,0-2.41-.637,4.921,4.921,0,0,0-1.8.34,152.977,152.977,0,0,0-13.58,9.641c-.448.359-.259,1.439-.039,2.689l0,.012a20.731,20.731,0,0,1,.29,2.059c-2.512.926-4.354,3.469-5.057,6.98a22.952,22.952,0,0,0,1.8,13Zm-152.134,6.3a10.519,10.519,0,0,0-2.755.408,28.531,28.531,0,0,0,1.321,2.559l0,.006c1.091,1.951,2.22,3.969,1.858,5.7-.431,2.025-2.117,3.84-3.9,5.76-.778.838-1.66,1.789-2.445,2.779a23.679,23.679,0,0,0,2.479.139,17.066,17.066,0,0,0,5.934-.984,15.7,15.7,0,0,0,4.541-2.605,39.351,39.351,0,0,0,6.8-7.963,50.563,50.563,0,0,1,5.472-6.82c-.488-.043-.969-.064-1.428-.064-6.405,0-8.378,4.24-10.286,8.342l0,0c-.419.9-.852,1.832-1.323,2.7.157-3.979-.605-6.818-2.27-8.447A5.522,5.522,0,0,0-11588.646,21917.67Zm-8.979-25.008-.1.824,5.312.74-6.944.928c3.755.646,6.079,1.777,7.1,3.455.868,1.42.846,3.27-.069,5.65l1.5.48c2.165-2.584,4.032-4.8,5.875-6.979a14.309,14.309,0,0,0,5.552,1.3,8.411,8.411,0,0,0,3.945-.941,10.087,10.087,0,0,0,3.232-2.8l-25.408-2.656Zm203.525-13.338a54.982,54.982,0,0,0-5.944.418,76.185,76.185,0,0,1,7.063,3.375,51.691,51.691,0,0,1,4.672,3.33l.045.031c.747.576,1.521,1.168,2.362,1.789-.285-3.682-.857-5.709-1.978-7C-11389.063,21879.9-11390.925,21879.324-11394.1,21879.324Zm154.426-2.895a13.962,13.962,0,0,0-6.942,2.217c.846.307,1.688.6,2.582.916l.236.084.044.016c2.176.764,4.426,1.557,6.623,2.443,2.684,1.066,5.32,2.258,7.869,3.406l.041.02.189.084c.748.338,1.521.688,2.28,1.023v-1.148a4.728,4.728,0,0,0,2.688-2.523,10.311,10.311,0,0,0,.6-3.3c.131-1.818.267-3.7,1.876-5.006-3.842.734-5.787,1.6-6.713,3-.91,1.371-.886,3.361.083,6.869l1.421.928-1.51-.928c-.328-.357-.671-.717-1-1.064l-.12-.127c-.727-.76-1.478-1.547-2.145-2.367C-11234.037,21877.916-11236.686,21876.43-11239.673,21876.43Zm-185.862,1.27c-5.1,0-8.524.541-10.773,1.7a6.1,6.1,0,0,0-3.466,5.41l20.643-6.885C-11421.561,21877.773-11423.655,21877.7-11425.535,21877.7Zm-157.017-53.039h0c-2.8,4.168-4.39,6.619-4.455,8.605a4.252,4.252,0,0,0,1.012,2.8,23.312,23.312,0,0,0,3.286,3.236,6.028,6.028,0,0,0,3.492.756c2.375,0,5.254-.584,5.762-1.529,1.274-2.375,1.483-5.248,1.726-8.574.1-1.43.212-2.912.415-4.48l-6.585,2.945-.471-.383c-1.137-.924-2.553-2.076-4.182-3.373Zm353.529-29.018a7.378,7.378,0,0,1-.341,3.854,72.657,72.657,0,0,1-3.046,7.8l0,.012c-.463,1.061-.953,2.191-1.4,3.285a20.529,20.529,0,0,0-.277,10.271,14.755,14.755,0,0,0,6.423,8.41,24.551,24.551,0,0,1,3.584,3.273l.007.008a27,27,0,0,0,3.348,3.117,6.209,6.209,0,0,0,3.157.74l.043,0c.522.039,1.063.078,1.554.16-1.066-1.217-2.147-2.371-3.192-3.488l-.012-.014c-2.895-3.094-5.628-6.014-7.155-9.318-1.694-3.666-1.74-7.434-.146-11.857,1.7-4.723,3.308-9.184,3.366-13.635a15.407,15.407,0,0,0-1.295-6.578,18.794,18.794,0,0,0-4.836-6.377c-1.377-1.244-2.614-3.393-2.075-5.172.43-1.418,1.867-2.381,4.271-2.861.347-.055.574-.613.839-1.26l.007-.018c.125-.3.254-.615.4-.9-4.352.008-6.375.17-7.64,1.156s-1.688,2.732-2.229,6.535c-.146,1.033-.339,2.078-.525,3.088l0,.029c-.1.551-.194,1.047-.28,1.541-.564,3.281.724,5.158,3.938,5.736-.513.238-1.168.473-1.8.7l-.018,0c-1.379.49-2.806.994-2.845,1.592-.319,4.127-.285,8.232-.246,12.986v.143c.013,1.6.025,3.244.025,4.988l3.565-2.98c.424-1.033.877-2.076,1.314-3.088l.076-.174a74.513,74.513,0,0,0,3.059-7.84,7.471,7.471,0,0,0,.39-3.873Zm-204.641,25.92h0c-2.668,3.6-4.168,5.723-3.968,7.451.2,1.7,2,3.127,5.427,5.7l7.913-2.582-1.645-9.973-4.72,3.078-3.008-3.676Zm227.333-7.332a7.872,7.872,0,0,0-3.843,1.164c.479.553,1.048,1.105,1.549,1.594a11.061,11.061,0,0,1,2.939,3.789c1.9,5.289-1.664,7.367-5.433,9.566a34.344,34.344,0,0,0-3.2,2.025,24.111,24.111,0,0,0,4.433.416,23.961,23.961,0,0,0,5.03-.539,14.571,14.571,0,0,0,7.5-4.455,37.678,37.678,0,0,0,4.708-6.941l.014-.025a39.27,39.27,0,0,1,5.049-7.379,16.954,16.954,0,0,0-3.239-.354c-4.207,0-6.556,2.2-8.375,7.828a15.578,15.578,0,0,0-3.3-5.055A5.459,5.459,0,0,0-11206.33,21814.23Zm-196.541.193-2.382,1.088c.074.477.149,1.1.216,1.641a8.084,8.084,0,0,0,.482,2.582c.608,0,1.236.029,1.936.061l.15.008c.688.029,1.4.059,2.093.059,1.469,0,3.306-.113,4.483-1a68.959,68.959,0,0,0,8.675-8.207l.007-.008c1.034-1.1,2.206-2.346,3.361-3.5l-.789-1.145-6.731,3.262-6.212-3.262c.061.172.121.35.181.516l.02.057c.826,2.365,1.606,4.594,1.357,6.672-.275,2.291-1.774,4.217-4.716,6.053Zm-184.926-36.795a6.85,6.85,0,0,0-.72.039,4.509,4.509,0,0,0-2.029,1.211c-.5.4-1.184.947-2.065,1.561,3.859.289,6.281,1.2,7.4,2.771,1.3,1.826.824,4.363-.288,7.613a11.42,11.42,0,0,0,.727,8.158c2.36,4.545,5.074,8.93,7.947,13.572l.216.35c1.132,1.83,2.3,3.725,3.474,5.668.257-1.639.547-3.139.828-4.59l0-.021a40.913,40.913,0,0,0,1.055-8.309,124.6,124.6,0,0,0-1.656-17.8c-.325-2.027-2.475-4.553-5.751-6.76C-11581.829,21778.955-11585.332,21777.629-11587.8,21777.629Zm20.565,30.908v0l.344.75c1.295,2.824,2.634,5.746,4.016,8.813,2.98-.709,4.121-2.748,3.7-6.611a22.147,22.147,0,0,0,3.956,2.787,7.289,7.289,0,0,0,3.361.924c1.872,0,3.748-.9,6.273-3.018l-21.741-6.865-.377,1.139,4.624,2.082Zm148.538-10.994v0c1.978,2.535,2.462,5.727,2.931,8.813v.006a27.824,27.824,0,0,0,1.34,5.906,9.8,9.8,0,0,0,3.822,4.789l5.379-12.254-6.686,3.035c-.055-.27-.107-.543-.16-.814l0-.016a19.7,19.7,0,0,0-1.706-5.693,7.712,7.712,0,0,0-4.918-3.773Zm-7.208-23.51h0c-3.55.283-6.255,1.533-8.04,3.709a10.9,10.9,0,0,0-2.241,5.318,22.447,22.447,0,0,0,.267,7.492,24.171,24.171,0,0,1,3.108.6,32.752,32.752,0,0,1,3.318,1.514l-.034,1.752-6.939.684a17.792,17.792,0,0,0-1.042,8.844,61.4,61.4,0,0,0,1.956,9.2c.276,1.041.621,2.336.922,3.574.705-1.039,1.4-2.092,2.063-3.111l.049-.074c1.506-2.3,2.929-4.473,4.558-6.6,2.654-3.48,4.03-6.654,4.206-9.7.2-3.387-1.067-6.639-3.862-9.937a11.359,11.359,0,0,1-2.428-7.812c.146-1.414,1.45-2.7,2.712-3.939l0,0a19.654,19.654,0,0,0,1.424-1.5Zm-167.16.186c-.553.117-1.138.2-1.7.279l-.039.008h-.008a10.342,10.342,0,0,0-3.734,1,26.055,26.055,0,0,0-3.594,2.668l-.022.018a25.943,25.943,0,0,1-3.628,2.691c-5.151,2.938-8.068,6.109-8.919,9.7-.84,3.539.326,7.484,3.563,12.061a16.05,16.05,0,0,1,.454-1.687l0-.006c.342-1.1.637-2.053.254-2.562a5.063,5.063,0,0,1-.992-4.943,10.537,10.537,0,0,1,2.861-3.834c3.529-3.363,7.358-6.506,11.063-9.543l.055-.045.116-.1c1.515-1.242,3.081-2.525,4.605-3.811l-.332-1.893Zm340.942-4.963c-1.591,0-3.157.84-6.11,2.621,1.229.324,2.5.65,3.844,1l.626.162c1.829.469,3.625.93,5.488,1.422,3.491.92,6.986,1.859,10.865,2.9-1.189-3.953-2.134-7.086-3.47-11.393-1.891,2.564-3.4,4.592-4.63,6.236C-11248.822,21770.154-11250.45,21769.256-11252.119,21769.256Zm-171.169-51.824h0l-.146,1.324,8.764.57v.658l-8.212.395,1.568.289c3.616.658,7.354,1.34,10.189,3.061a10.021,10.021,0,0,1,3.526,3.5,13.247,13.247,0,0,1,1.687,5.863l1.447-.336,2.45-8.141,13.146-2.316-.384-1.754-34.036-3.109Zm206.485,12.143v0l.088.051a35.3,35.3,0,0,0,9.751,1.883,14.1,14.1,0,0,0,4.6-.736,14.3,14.3,0,0,0,4.524-2.572,23.66,23.66,0,0,0,7.293-12.283,24.426,24.426,0,0,0,.762-7.35,17.192,17.192,0,0,0-1.685-6.754,23.485,23.485,0,0,0-6.585-7.619,24.775,24.775,0,0,0-5.721-3.027l-.01-.006-.035-.014c-1.049-.449-2.133-.914-3.25-1.455,2.989-2.158,6.081-4.391,7.855-6.924,1.929-2.754,2.174-5.625.772-9.039a10.834,10.834,0,0,0-4.109-4.973,25.328,25.328,0,0,0-6.052-2.742c0,1.861.032,3.646.063,5.375v.029c.066,3.738.13,7.27-.155,10.744a6.8,6.8,0,0,1-1.992,4.846c-1.229,1.1-3.034,1.631-5.52,1.631-.3,0-.609-.01-.908-.023-.572-.029-1.067-.041-1.515-.041-3.514,0-5.781.682-7.135,2.141a5.98,5.98,0,0,0-1.448,3.33,17.745,17.745,0,0,0,.156,5.027l11.271-2.941-.287-.99-8.4.4c.031-.348.059-.7.084-1.045l.01-.121.015-.191c.018-.229.035-.461.055-.687.04,0,.08,0,.12,0a17.5,17.5,0,0,0,3.247-.42l.007,0h.007a17.607,17.607,0,0,1,3.254-.416,5.873,5.873,0,0,1,2.64.566,6.72,6.72,0,0,1,2.469,2.2c1.2,1.643,2.479,3.273,3.719,4.85l.012.016c2.065,2.629,4.2,5.35,6.009,8.189l0,.008c2.052,3.23,4.6,7.254,5.063,11.2a6.692,6.692,0,0,1-1.934,5.518,10.113,10.113,0,0,1-7.223,2.957,9.654,9.654,0,0,1-3.781-.752,3.751,3.751,0,0,0-1.4-.219c-.405,0-.85.033-1.32.068-.564.039-1.2.09-1.9.09a5.222,5.222,0,0,1-2.5-4.156,17.126,17.126,0,0,1,.675-5.068l0-.02c.206-.9.42-1.826.56-2.732-3.293.924-5.342,1.721-6.063,3.063-.671,1.248-.236,2.975.741,5.537.4,1.043.876,2.254,1.346,3.395-.4-.586-.824-1.182-1.258-1.791l-.011-.014c-.977-1.379-1.986-2.8-2.854-4.266a12.726,12.726,0,0,0-3.761-4.2,7.825,7.825,0,0,0-4.387-1.324,10.123,10.123,0,0,0-2.633.369,97.407,97.407,0,0,0,7.277,8.709l.224.217c2.462,2.387,5.007,4.855,8.678,4.855a9.239,9.239,0,0,0,2.481-.359Zm-368.289-17.684h0c-.414,1.621-.973,3.162-1.513,4.65-1.054,2.9-1.964,5.41-1.078,6.914a7.81,7.81,0,0,0,3.841,3.139,13.794,13.794,0,0,0,5.21.957,15.855,15.855,0,0,0,3.752-.445c1.034-.273,1.29-3.113,1.587-6.4.144-1.586.292-3.227.542-4.689l-7.277,2.732-5.063-6.855Zm163.83-48.029c-5,.9-7.523,1.422-9.082,2.273-1.65.9-2.1,2.15-2.385,4.289a251.327,251.327,0,0,0-2.428,26.33,164.378,164.378,0,0,0,.875,18.512l0,.023c.137,1.6.259,3.041.374,4.5a5.039,5.039,0,0,0,2.315,3.045.392.392,0,0,0,.23.055c.644,0,2.239-.727,2.382-1.273.292-1.109.187-3.076-.558-3.523a3.9,3.9,0,0,1-2.272-3.256,9.215,9.215,0,0,1,1.022-3.631,38.155,38.155,0,0,1,3.228-6.686c3.822-5.555,5.828-10.125,6.314-14.387.6-5.229-1.089-10.115-5.154-14.937-1.618-1.916-2.241-3.951-1.668-5.441.53-1.381,2.018-2.32,4.422-2.789.482-.1.833-.682,1.317-1.49A16.582,16.582,0,0,1-11421.262,21663.861Zm195.544,44.229a3.04,3.04,0,0,0-1.481.383,19.775,19.775,0,0,0-2.051,4.451l7.176-.85a15.991,15.991,0,0,0-2.281-3.664A3.05,3.05,0,0,0-11225.718,21708.09Zm-370.588-41.953v0c.729.465,1.475.924,2.375,1.48l.049.029c2.2,1.354,4.468,2.752,6.615,4.375a3.848,3.848,0,0,1,1.014,3.566c-1.859,5.332.081,9.924,2.456,14.092,3.161,5.6,6.368,11.2,9.764,17.119l.281.494.154.268q1.21,2.109,2.456,4.285c-.148-1.67-.43-3.307-.7-4.891l0-.014c-.565-3.295-1.1-6.406-.315-9.135,2.379-7.885,1.842-15.025-1.553-20.652a21.445,21.445,0,0,0-6.415-6.662,30.8,30.8,0,0,0-9.813-4.236,9.968,9.968,0,0,1-2.583-1.232l-.013-.006-.009-.006a9.771,9.771,0,0,0-2.577-1.227,16.569,16.569,0,0,0-3.768-.58,3.619,3.619,0,0,0-2.018.467,53.1,53.1,0,0,0-7.038,5.959l-.009.008-.061.059c-.675.641-1.372,1.3-2.067,1.943a18.479,18.479,0,0,0-5.3,7.959,17.563,17.563,0,0,0-.479,9.387,12.879,12.879,0,0,0,4.381,7.24,11.606,11.606,0,0,0,7.275,3.027,6.974,6.974,0,0,0,1.845-.242c1.975-.535,3.89-1.232,5.579-1.846.637-.232,1.357-.492,2-.717-1.021-.266-2.139-.459-3.321-.66l-.051-.008c-2.757-.475-5.608-.961-7.634-2.457a8.155,8.155,0,0,1-2.646-3.354,12.268,12.268,0,0,1-1-4.451,15.843,15.843,0,0,1,.965-6.18,12.055,12.055,0,0,1,3.283-4.959c2.229-1.947,4.38-3.986,6.461-5.959l.075-.072c.812-.768,1.577-1.494,2.346-2.213Zm546.771,22.527a13.4,13.4,0,0,0-4.316.734,55.838,55.838,0,0,1,5.61,4.867,17,17,0,0,1,1.854,2.734,12.947,12.947,0,0,0,2.448,3.314,74.908,74.908,0,0,0,10.844,7.768,1.884,1.884,0,0,0,.99.23,10.136,10.136,0,0,0,2.149-.357,15.07,15.07,0,0,1,1.579-.318h3.622c-4.568-3.309-6.811-5.318-7.2-7.783s1.08-5.318,4.317-10.4l-7.457-.51-.161.771q-.176.835-.347,1.652c-.627,2.986-1.191,5.676-1.74,8.338a25.941,25.941,0,0,1-2.14-4.137,9.482,9.482,0,0,0-3.764-5.043A11.138,11.138,0,0,0-11049.534,21688.664Zm-516.532,7.84h0l4.86,10.338a4.036,4.036,0,0,0,3.256-2.205,12.471,12.471,0,0,0,.939-3.93l0-.014.024-.189.025-.189a9.255,9.255,0,0,0,5.121,1.662c2.725,0,5.227-1.375,7.524-2.859-1.034-.213-2.045-.426-3.022-.633l-.817-.174c-3.274-.693-6.368-1.348-9.453-1.867-.645-.051-1.3-.078-1.958-.078a25.191,25.191,0,0,0-2.807.158l-.027-.02h-3.669Zm528.736-15.9c-.991,0-2.867,1.822-2.867,2.785a5.484,5.484,0,0,0,1.544,2.809l.013.014c.311.385.631.781.894,1.172l5.356-3.7c-.759-.514-1.429-1.037-1.968-1.459-1.183-.926-2.037-1.594-2.938-1.623Zm-184.752-11.041h0c-1.528,3.521-1.848,5.279-1.14,6.271.536.75,1.676,1.072,3.81,1.072.192,0,.389-.006.6-.012l.037,0h.031c-.348-1.473-.71-2.982-1.03-4.316-.256-1.064-.592-2.467-.924-3.867.154-.994.1-1.639-.146-1.912a.486.486,0,0,0-.373-.152,3.713,3.713,0,0,0-1.689.926c-.11.084-.223.172-.314.238-2.67,1.848-5.175,3.785-7.826,5.836l-.324.25c-.771.6-1.568,1.215-2.365,1.822a10.765,10.765,0,0,0,3.244.553,7.04,7.04,0,0,0,5.023-2.072A21.774,21.774,0,0,0-11222.082,21669.566Zm-394.918-51.211h0a44.1,44.1,0,0,0-3.689,5.531c-.734,1.422-.924,2.434-.6,3.188.568,1.3,2.754,1.932,6.337,2.568a18.761,18.761,0,0,0,3.34.34c2.243,0,3.831-.586,4.722-1.742,1.12-1.457,1.131-3.785.032-6.922-.467-1.357-.81-2.771-1.141-4.137l-.019-.074c-.149-.615-.3-1.252-.469-1.877a19.778,19.778,0,0,1-1.945,4.209,2.514,2.514,0,0,1-2.061,1.338c-1.164,0-2.645-.969-4.511-2.422Zm568.579-35.85h0a22.117,22.117,0,0,0-2.649,9.553,20.725,20.725,0,0,0,1.105,8.973,4.315,4.315,0,0,0,2.435,2.7c-2.493,7.641,2.654,12.248,7.632,16.7a37.553,37.553,0,0,1,5.182,5.727c1.217,1.654,7.523,3.07,11.834,3.07,1.944,0,3.272-.283,3.841-.818a8.079,8.079,0,0,0,1.076-1.773c.384-.584.732-1.211,1.07-1.818a13.223,13.223,0,0,1,2.585-3.623,26.823,26.823,0,0,0,6.463-7.654,13.533,13.533,0,0,0,1.287-9.332c.249.021.535.063.812.1l.118.018.048.006a8.651,8.651,0,0,0,.973.105c.131,0,.2-.018.213-.053a34.26,34.26,0,0,0,2.65-9.984,23.034,23.034,0,0,0-1.169-9.92l-5.5,0v-1.209l4.917-1.355c.6-6.658-.282-10.953-2.786-13.518-2.146-2.2-5.52-3.221-10.618-3.221-.105,0-.21,0-.316,0l3.853,7.166.924-4.582,2.208.441c-.237.885-.395,1.852-.546,2.785l0,.012c-.333,2.053-.678,4.176-1.891,5.6a18.305,18.305,0,0,0-4.687,9.8,20.577,20.577,0,0,0,2,10.705c2.055,4.734,2.792,8.756,2.255,12.293a13.465,13.465,0,0,1-2.235,5.648,18.731,18.731,0,0,1-5.354,5.014,6.821,6.821,0,0,0-2.139,3.275l-.006.014a14.671,14.671,0,0,1-.706,1.531l-5.525-.256a14.6,14.6,0,0,1-.7-1.328,7.015,7.015,0,0,0-2.018-2.855,21.685,21.685,0,0,1-5.71-5.451,14.217,14.217,0,0,1-2.41-6.02c-.581-3.865.365-8.277,2.893-13.48a15.007,15.007,0,0,0,1.415-10.152,20.794,20.794,0,0,0-5.188-9.18,16.313,16.313,0,0,1-2.76-5.607c-.3-.873-.641-1.863-1.036-2.77l1.689-.637,2.314,4.139c.353-1.689.632-3.064.9-4.395l.044-.217c.169-.836.339-1.672.525-2.584-9.142,2.045-10.425,3.467-10.562,11.7,0,.32-.019.648-.032.967l0,.043c-.067,1.479-.137,3.008.806,3.969a4.533,4.533,0,0,0,3.172,1.039c.378.01.726,1.129,1.062,2.211.139.449.3.961.453,1.355l-1.824.59-2.372-3.457Zm-382.466,34.928h0c-.162.943-.434,1.934-.7,2.889-.6,2.2-1.228,4.473-.576,6.316.575,1.617,4.085,2.463,7.254,2.463a14.884,14.884,0,0,0,3.733-.436,5,5,0,0,0,2.524-1.355c.809-.961.311-2.928-.171-4.832a23.727,23.727,0,0,1-.521-2.391,15.464,15.464,0,0,0-.687-2.176,36.019,36.019,0,0,1-6.3.889,9.784,9.784,0,0,1-3.177-.859l-.052-.02C-11429.994,21617.752-11430.444,21617.576-11430.887,21617.434Zm205.014-51.883c-4.591,0-7.725,1.352-9.582,4.137-1.784,2.676-2.091,6.295-2.159,9.146-.057,1.75-.168,3.51-.275,5.211l0,.025v.01a82.727,82.727,0,0,0-.214,10.6,33.346,33.346,0,0,0,2.52,10.988,51.745,51.745,0,0,0,5.535,10.434,25.792,25.792,0,0,0,8.7,7.643,12.6,12.6,0,0,1,2.12,1.658l.01.008.006,0c.984.887,1.915,1.723,2.7,1.723a1.112,1.112,0,0,0,.162-.018l.029-.006c1.071-.205,2.165-.35,3.13-.475,3.578-.473,6.958-.92,10.534-3.873,8.168-6.7,12.374-15.137,13.236-26.533a75.962,75.962,0,0,0,.019-13.541,37.689,37.689,0,0,0-3.725-13.232,3.358,3.358,0,0,1-.028-1.953,13.927,13.927,0,0,0,.169-1.445c.792.293,1.577.51,2.335.717a9.255,9.255,0,0,1,4.03,1.795,9.273,9.273,0,0,1,1.974,3.918c.22.668.447,1.361.729,2.027,1.938-.586,3.073-1.408,3.467-2.516.481-1.352-.157-3.172-1.951-5.57,3.684,1.609,6.563,2.359,9.064,2.359a10.653,10.653,0,0,0,6.9-2.449c-1.121-.252-2.241-.547-3.385-.852l-.027-.008a36.941,36.941,0,0,0-7.312-1.434c-.53-.029-1.08-.068-1.612-.1l-.469-.031c-1.865-.129-3.793-.262-5.683-.262a20.1,20.1,0,0,0-7.274,1.09,13.168,13.168,0,0,1-5.1,1.023,13.152,13.152,0,0,1-4.514-.795l-2.72-.846c.4,1.58,1.332,4.3,3.1,4.754,2.808.727,3.718,2.16,3.986,3.234a4.415,4.415,0,0,1-1.5,4.232c-6.568,5.527-5.084,12.3-3.773,18.281.224,1.018.434,1.977.608,2.936.867,4.8,1,8.316.427,11.381a17.954,17.954,0,0,1-5.474,9.807,10.735,10.735,0,0,0-2.024,3.24c-.225.48-.455.973-.707,1.414l-.008,0c-.678,0-1.407.072-1.993.133-.654.063-1.272.125-1.862.125a3.925,3.925,0,0,1-1.849-.359c-9.173-4.752-13.569-15.887-10.009-25.35a21.6,21.6,0,0,0,1.569-9.672,18.015,18.015,0,0,0-3.732-9.2c-1.389-1.834-2-4.262-2.584-6.607l-.013-.053c-.263-1.047-.534-2.131-.872-3.135l1.6-.721,2.765,1.7,1.393-4.721C-11225.61,21565.551-11225.744,21565.551-11225.873,21565.551Zm-194.016-.781c-4.893.363-7.409,1-8.973,2.26-1.746,1.412-2.264,3.662-2.532,6.836-.1,1.227-.242,2.473-.384,3.678l-.01.082a56.173,56.173,0,0,0-.514,6.539c-.052,6.646-.034,13.434-.018,19.994v.123c.008,2.98.018,6.693.018,10.244,1.2-1.967,2.4-3.955,3.562-5.877l.042-.066c2.9-4.789,5.639-9.309,8.49-13.945,3.514-5.717,3.27-11.361-.744-17.258a63.733,63.733,0,0,1-3.47-5.973l-.062-.117c-.319-.6-.622-1.168-.906-1.678Zm-198.022,19.1h0a20.5,20.5,0,0,0-1.823,8.871,57.058,57.058,0,0,0,.948,8.791l0,.014c.657,4.1,1.337,8.34.643,12.5,1.188-1.828,2.24-3.666,3.169-5.285.807-1.408,1.569-2.734,2.406-4.072.729-1.154,1.592-2.289,2.427-3.383a24.921,24.921,0,0,0,3.944-6.406c1.412-4.021,3.346-9.527,1.909-13.5-.823-2.27-.866-3.928-.134-5.221a9.555,9.555,0,0,1,3.676-3.051c.9-.525,1.783-1.1,2.559-1.6.3-.2.649-.422.991-.639-.385-.2-.794-.463-1.189-.713l-.017-.01a5.906,5.906,0,0,0-2.506-1.148,1.01,1.01,0,0,0-.327.049,25.844,25.844,0,0,0-8.976,4.828,24.126,24.126,0,0,0-6.21,7.783l5.785,1.793-1.809,2.18Zm36.993,23.561c-1.482,1.717-2.441,2.824-4.546,5.244.7.09,1.373.238,2.021.383l.022,0a10.826,10.826,0,0,0,2.152.346,1.767,1.767,0,0,0,.975-.234c1-.637,1.5-2.732,1.262-4.111-.15-.924-1.87-1.627-1.887-1.629Zm-24.63-8.1h0c12.391,3.852,12.391,3.852,10.993,12.359,2.917-.4,4.606-1.061,5.649-2.2,1.058-1.158,1.546-2.842,1.685-5.82a22.252,22.252,0,0,0,8.113,1.7,15.937,15.937,0,0,0,5.257-.875,17.544,17.544,0,0,0,4.975-2.764l-30.364-5.324-.315,1.535,5.137,1.393Zm211.436,4.6v0l-7.485.322,4.376,4.439,4.095-3.687-.985-1.076Zm-10.088-20.037h0a11.2,11.2,0,0,1,6.082,4.791,23.043,23.043,0,0,1,2.584,6.982,8.161,8.161,0,0,0,2.76,4.773,9.08,9.08,0,0,0,5.564,1.594c-.809-1.57-1.577-3.092-2.255-4.436l-.012-.023c-1.447-2.863-2.813-5.57-4.278-8.219a16.454,16.454,0,0,0-5.729-6.2,14.1,14.1,0,0,0-7.529-2.119,15.863,15.863,0,0,0-3.12.314l4.624,1.787,1.308.758-1.317-.758h-5.915c.641.719,1.387,1.41,2.176,2.145l.026.025c1.872,1.738,3.8,3.531,4.489,5.814.674,2.264.076,4.881-.5,7.412-.239,1.045-.51,2.227-.659,3.328,3.525-.074,6.17-1.23,7.444-3.258a5.724,5.724,0,0,0,.817-3.516,10.85,10.85,0,0,0-1.457-4.453,55.434,55.434,0,0,0-5.1-6.738Zm-190.481-13.281c4.089,0,7.244,2.043,10.3,4.016l.037.025c1.165.754,2.37,1.533,3.594,2.168a7.94,7.94,0,0,0-1.28,5.693,18.277,18.277,0,0,0,1.9,5.033l0,.01,0,.006a25.92,25.92,0,0,1,1.518,3.5c6.68-6.83,7.1-10.051,2.044-15.672a29.906,29.906,0,0,0-6.772-4.992l-.12-.072c-.783-.475-1.593-.963-2.361-1.463a16.557,16.557,0,0,0-4.325-2.012l-.529-.158a15.772,15.772,0,0,0-3.944-.85,2.13,2.13,0,0,0-.983.191c-.765.4-.935,1.8-1.1,3.168v.014c-.064.541-.132,1.1-.236,1.592A13.184,13.184,0,0,1-11594.682,21570.623Zm9.34-48.572a2.4,2.4,0,0,1,.858.127c1.038.41,1.944,2.205,2.062,3.535a4.077,4.077,0,0,1-1,2.3l-.016.021c-.26.389-.529.787-.752,1.2,6.489-.053,7.891-1.111,7.891-5.961,5.351,4.012,8.884,5.648,12.2,5.648,2.363,0,4.744-.855,7.72-2.777l-25.1-9.064a55.3,55.3,0,0,0,7.732-11.131,44.766,44.766,0,0,0,4.109-11.516,46.751,46.751,0,0,0,.861-11.918,60.888,60.888,0,0,0-2.013-12.33c-2-7.648-2.9-8.373-12.03-9.676.367,3.145.764,6.156,1.147,9.068l.007.057.006.041,1.571-.1c.349-1.676.727-3.432,1.154-5.367l1.549.3a26.87,26.87,0,0,0-.392,2.85v.012a12.017,12.017,0,0,1-1.354,5.318,45.183,45.183,0,0,0-6.373,13.984,29.438,29.438,0,0,0,.279,15.168l1.34-1.187a19.546,19.546,0,0,1,1.984,5.645,8.524,8.524,0,0,1-.4,4.559c-1.069,2.723-3.735,4.9-8.391,6.863a16.59,16.59,0,0,0-5.373,4.273,4.113,4.113,0,0,0-.707,2.355v.006h0a11.491,11.491,0,0,1-.16,1.152c-1.926-2.68-3.2-4.766-4.33-6.605l0-.006c-.916-1.5-1.708-2.787-2.611-3.994-3.967-5.3-5.056-11.189-3.329-18.014.165-.648.381-1.311.591-1.951a11.559,11.559,0,0,0,.863-4.707,34.786,34.786,0,0,0-2.738-10.041,31.62,31.62,0,0,0-2.679-4.525l0-.006a28.268,28.268,0,0,1-2.893-5.035c-.5-1.217-.206-2.725.129-4.471l0-.021c.172-.9.35-1.826.452-2.84l3.752,3.162v-5.436c-6.7.094-10.633,3.688-11.074,10.119-.325,4.785-.625,9.465-.705,14.111a99.561,99.561,0,0,0,.638,14.037,24.722,24.722,0,0,0,4.466,11.092,79.379,79.379,0,0,0,7.966,9.314l.021.02c1.908,2.014,3.881,4.1,5.628,6.232.466.568,1.716.646,3,.646.2,0,.4,0,.586,0s.35,0,.513,0a4.461,4.461,0,0,0,1.5-.4,3.806,3.806,0,0,1,1.217-.338.718.718,0,0,1,.335.07,7.49,7.49,0,0,0,3.342,1.027c1.721,0,2.923-1.191,3.782-3.754C-11588.332,21522.6-11586.567,21522.051-11585.342,21522.051Zm385.036-4.205-7.395,2.861a17.171,17.171,0,0,0,4.914,3.758,11.966,11.966,0,0,0,5.252,1.225,15.863,15.863,0,0,0,6.832-1.73,10.688,10.688,0,0,0,5.351-5.205,12.267,12.267,0,0,0,.569-7.684c-2.323-11.2-10.086-19.014-17.838-26.051,0,1.707.052,3.477.1,5.037a75.165,75.165,0,0,1-.231,11.176c-.721,6,2.029,10.213,5.108,13.869a8.885,8.885,0,0,1,1.76,4.717.457.457,0,0,1-.138.316,12.939,12.939,0,0,1-4.52,1.629l-.054.01c-.595.139-1.209.279-1.792.449l-.6-1.568,3.024-2.178Zm-22.189,6.488c.146,0,.292,0,.438,0,.282.158.549.307.8.465.238-.25.383-.383.461-.451a.142.142,0,0,1-.067.018c-.388-.023-.786-.027-1.172-.033h-.021c-.889-.49-1.871-.967-2.822-1.426l-.055-.027c-2.947-1.422-5.991-2.893-7.161-5.164a3.845,3.845,0,0,1-.323-2.838,5.967,5.967,0,0,1,1.542-2.469,22.305,22.305,0,0,1,5.489-3.736,17.035,17.035,0,0,0,7.751-7.256,19.5,19.5,0,0,0,1.841-10.154,17.659,17.659,0,0,1,1.125-5.959l0-.01c.271-.877.55-1.781.76-2.672l2.078.338-.106,1.439-.022.3c-.075,1.023-.17,2.3-.311,4.287a43.636,43.636,0,0,1,7.8-10.264,14.224,14.224,0,0,1,9.76-4.131,16.055,16.055,0,0,1,5.141.906,27.632,27.632,0,0,1,5.865,2.883l.877-1.061a18.039,18.039,0,0,1-.79-1.855c-.529-1.379-1.076-2.8-2.133-3.42a25.647,25.647,0,0,0-6.326-2.271c-.806-.207-1.524-.4-2.179-.6,4.449-3.012,6.438-4.518,7.232-6.039s.291-2.984-1.144-5.678c-2,1.8-4.2,3.484-6.324,5.107l-.021.016-.02.016a69.224,69.224,0,0,0-8.715,7.443,24.005,24.005,0,0,0-5.829,10.029l-2.186-.6-8.025-21.133a10.054,10.054,0,0,1-1,.557c-1.093.566-2.449,1.268-2.729,2.25a17.016,17.016,0,0,0-.293,5.523c.042.777.085,1.58.085,2.377-3.215.186-4.9.672-6,1.74-1.126,1.094-1.646,2.838-1.8,6.021a25.672,25.672,0,0,1,8.182-1.539h.013a14.488,14.488,0,0,1,8.686,2.725c-.891.742-1.783,1.465-2.616,2.135l-.025.021c-1.777,1.436-3.456,2.793-5.007,4.248-3.649,3.48-7.206,7.1-10.646,10.6l-.287.291c-5.954,6.043-8.568,17.443-5.379,23.461,2.762,5.191,7.424,5.627,11.963,5.627.545,0,1.083-.01,1.6-.02l.166,0,.579-.006C-11223.363,21524.34-11222.925,21524.334-11222.5,21524.334Zm-170.62-63.721v0a11.454,11.454,0,0,1,.71,6.443,16.6,16.6,0,0,1-2.271,5.3c-.5.836-1.057,1.678-1.592,2.49l-.016.023a29.142,29.142,0,0,0-3.618,6.7,10.5,10.5,0,0,0,.388,7.742c.721,1.66,1.386,3.381,2.028,5.045l.03.078c.66,1.711,1.408,3.648,2.211,5.473,2.967,6.625,1.492,11.039-5.091,15.238a72.115,72.115,0,0,0-6.491,4.875l-.041.033c-1.067.867-2.277,1.848-3.557,2.836a9.441,9.441,0,0,0,4.32,1.2c2.631,0,4.479-1.568,6.11-2.951a14.273,14.273,0,0,1,2.367-1.754,24.168,24.168,0,0,0,7.244-5.674,22.549,22.549,0,0,0,4.016-6.965c1.841-4.98,2.251-10.611,2.647-16.057.189-2.6.385-5.291.736-7.881l1.7-.789,9.739,11.512a13.83,13.83,0,0,0,2.5-3.881,5.172,5.172,0,0,0,.271-3.32c-.557-1.949-2.568-3.555-5.979-4.771,4.234-1.943,6.569-3.213,7.573-4.758.992-1.523.706-3.27-.262-6.373l-16.435,8.709a27.134,27.134,0,0,1-1.515-8.187c-.264-3.24-.513-6.3-2.03-8.578a7.317,7.317,0,0,0-3.383-2.729,16.121,16.121,0,0,0-6.24-1.02h-.171l.1.451c.439,1.932.894,3.934,1.367,5.992l2.624-4.459Zm378.266,51.182c-.021.033-.21.443-.362.816-1.848,4.383-2.745,7.447-1.511,9.174a4.991,4.991,0,0,0,3.277,1.682,37.065,37.065,0,0,0,6.542.473c.033,0,.069,0,.1,0h.009c.032,0,.063,0,.095,0,1.966,0,3.214-.348,3.928-1.1s.913-1.867.7-3.773c-.261-2.084-.657-4.139-1.041-6.129-.157-.82-.3-1.559-.435-2.3l.075.021.013,0a.818.818,0,0,1,.1.027c-.029-.043-.062-.092-.1-.143s-.086-.119-.127-.178a7.609,7.609,0,0,1,.555-.59l.008-.008c.443-.441.9-.9.9-1.383a54.387,54.387,0,0,0,.152-9.85c-.22-1.8-.422-3.713-.584-5.246-.652-6.131-1.326-12.471-3.134-18.418a13.023,13.023,0,0,0-4.3-6.881,11.276,11.276,0,0,0-7.125-2.131,26.358,26.358,0,0,0-5.927.766,10.669,10.669,0,0,1-1.507.107,10.539,10.539,0,0,1-3.4-.559,19.356,19.356,0,0,0-5.216-.756,14.949,14.949,0,0,0-4.807.766,13.76,13.76,0,0,0-4.095,2.2,17.271,17.271,0,0,0-5.551,8.225c-3.081,9.127-2.2,18.047-1.273,27.488.135,1.369.3,3.072.445,4.7,1.193-1.584,2.362-3.121,3.555-4.684,2.377-3.119,4.621-6.066,6.786-9.074,1.9-2.605,3.92-5.709,4.574-8.973.678-3.383-.176-6.6-2.608-9.828-.937-1.209.092-3.883.917-6.031.083-.213.162-.42.237-.619.234-.592,1.174-.955,2.083-1.3l.006,0c.405-.156.825-.318,1.184-.5l.744,1.09-1.354,1.549a6.453,6.453,0,0,1,4.5-2.01c2.055,0,4.024,1.059,6.109,2.178l.169.09c1.973,1.063,4.21,2.266,6.614,2.266a6.917,6.917,0,0,0,1.271-.115,65.754,65.754,0,0,0-3.469,7.422,16.824,16.824,0,0,1-1.211,2.711,10.1,10.1,0,0,0-1.459,4.219c-.043,1.654.79,3.262,2.546,4.914,3.906,3.666,6.946,8.27,9.887,12.721l.013.021c1.209,1.828,2.46,3.723,3.753,5.523l-.007.006-.01-.018a.035.035,0,0,0,0,.01l0,.006a.044.044,0,0,1,0,.008.046.046,0,0,0-.014.014l0,.006-.01.012.039.041.013.068.009.047c0,.025.009.047.013.07a18.093,18.093,0,0,0-3.992-.445h-.139l-.139,0a62.221,62.221,0,0,0-7.2,1.949C-11014.925,21511.965-11014.858,21511.816-11014.85,21511.795Zm-32.416-3.035-.2,1.041c-.231,1.229-.457,2.418-.676,3.576l-.1.543c-.526,2.783-1.023,5.412-1.525,8.041l14.014,1.49c-.168-3.139-.331-6.334-.5-9.717l-.009-.17c-.081-1.574-.165-3.213-.254-4.947l-4.63,4.975-6.116-4.832Zm-387.876-15.258a9.964,9.964,0,0,0-4.78,1.191c.843.908,1.693,1.787,2.638,2.764l.009.01a72.832,72.832,0,0,1,5.656,6.3,45.962,45.962,0,0,1,3.023,4.645,37.683,37.683,0,0,0,3.77,5.549,32.085,32.085,0,0,0,8.42,6.525,2.877,2.877,0,0,0,1.437.309,10.736,10.736,0,0,0,2.021-.26l.028-.006a4.884,4.884,0,0,1,.784-.127c-.644-1.6-1.4-3.1-2.135-4.543-1.527-3.018-2.971-5.867-2.806-8.682s1.841-5.512,3.782-8.646l.01-.016c.916-1.48,1.863-3.01,2.736-4.687l-10.786,1.994a23.484,23.484,0,0,1,6.221-8.139,16.949,16.949,0,0,1,10.034-3.559c.63-.029,1.231-.861,1.813-1.664l.011-.018a11.855,11.855,0,0,1,.824-1.049,10.377,10.377,0,0,1-.98-.834,4.393,4.393,0,0,0-2.128-1.342,11.021,11.021,0,0,0-1.527-.1,21.465,21.465,0,0,0-10.591,3.375c-3.558,2.164-6.242,4.936-7.365,7.607-.8,1.879-.89,3.314-.262,4.266.546.826,1.652,1.307,3.286,1.43-.369.031-.754.084-1.126.133l-.012,0-.022,0a15.394,15.394,0,0,1-1.948.174,3.815,3.815,0,0,1-1.521-.264C-11429.342,21494.658-11432.232,21493.5-11435.142,21493.5Zm437.48-3.812,2.49,10.467.015,0h.016c.166,0,.322.008.477.008a4.734,4.734,0,0,0,3.735-1.3c.948-1.09,1.142-2.861.59-5.416,2.969,3.945,4.921,5.555,6.738,5.555,1.405,0,2.78-.936,4.6-3.127-.757-.4-1.527-.818-2.271-1.223l-.082-.045c-1.886-1.025-4.023-2.187-6.162-3.141a22.8,22.8,0,0,0-4.788-.973Zm-34.654-19.24a14.057,14.057,0,0,0-1.669,1.914Zm-195.312-8.707-5.785,1.484,1.595,4.025,5.3-2.9-1.11-2.611Zm-188.659,776.941h-12.645c.993-2.385,2.529-3.494,4.832-3.494a16.522,16.522,0,0,1,6.438,1.783l-8.319,0v.533l9.693.5v.678Zm194.084-347.51,0,0c.631-.982,1.318-1.619,1.839-1.7.867-.139,1.766-.238,2.746-.3-1.749.771-3.249,1.424-4.584,2Z" transform="translate(11685 -21433.002)"/></svg>