<svg xmlns="http://www.w3.org/2000/svg" xmlns:xlink="http://www.w3.org/1999/xlink" width="1300.001" height="643.996" viewBox="0 0 1300.001 643.996"><defs><style>.a{opacity:0.2;fill:url(#a);}</style><linearGradient id="a" x1="0.5" x2="0.5" y2="1" gradientUnits="objectBoundingBox"><stop offset="0" stop-color="#fff"/><stop offset="1" stop-color="#766de8"/></linearGradient></defs><path class="a" d="M-6768.882,18335H-7910V17691.6l1300-.6c-.063.027-10.912,4.912-29.2,13.689-16.708,8.021-43.073,20.959-73.785,37.041-1.069-.957-2.124-1.932-3.138-2.9a12.028,12.028,0,0,0-3.863-2.742,9.7,9.7,0,0,0-3.894-.781c-2.829,0-5.639,1.043-8.614,2.145l-.006,0-.4.15a9.378,9.378,0,0,1-1.408.3,46.7,46.7,0,0,0-11.538,3.836,28.261,28.261,0,0,0-8.3,6.176,25.687,25.687,0,0,0-5.125,8.633,37.536,37.536,0,0,0-2.021,11.211c-23.338,12.947-45.739,25.955-66.58,38.66l-3.974-3.684a46.428,46.428,0,0,0-4.9,6.088c-.135.213.691,1.314,1.492,2.123-1.377.85-2.844,1.758-4.359,2.7-.834-2.773-3.229-4.291-7.324-4.643-2.343-.205-4.833-.3-7.835-.3-2.182,0-4.4.051-6.174.094h-.067c-1.825.041-3.549.08-5.187.08,2.292-.271,4.7-.49,7.037-.7a125.059,125.059,0,0,0,17.518-2.432,7.214,7.214,0,0,0,5.6-4.66,8.083,8.083,0,0,0-.049-4.744,14.04,14.04,0,0,0-2.937-5.139,42.3,42.3,0,0,1-6.125,6.479,33.737,33.737,0,0,1-6.76,4.477,32.113,32.113,0,0,1-7.376,2.6,36.942,36.942,0,0,1-7.97.84,54.285,54.285,0,0,1-14.029-2.035c1.892,3.219,4.245,7.227,6.723,7.344l1.737.072.844.033a102.221,102.221,0,0,1,13.929,1.2,32.531,32.531,0,0,1,12.785,4.973c-63.8,40.043-113.021,77.635-146.293,111.729l-24.169-11c1.444-1.166,2.909-2.436,4.326-3.662a77.135,77.135,0,0,1,11.531-8.781c2.982-1.727,5.971-3.684,7.63-6.293a8.892,8.892,0,0,0,1.4-4.248,13.9,13.9,0,0,0-.9-5.555c-.45.273-1.034.605-1.643.947-1.313.742-2.669,1.506-2.591,1.68.861,2.086.83,3.676-.092,4.859a8.9,8.9,0,0,1-3.551,2.246l-.021.01a10.63,10.63,0,0,0-2.69,1.486c-3.251,2.838-6.768,5.488-10.169,8.051l-.044.033c-3.527,2.656-7.174,5.4-10.558,8.389a44.577,44.577,0,0,0-9.065,11.664c-1.234,2.225-1.446,4.344-.581,5.813.813,1.379,2.518,2.109,4.929,2.109,9.9-.09,19.966-.324,29.427-.557a243.123,243.123,0,0,0-27.53,35.268,144.2,144.2,0,0,0-9.33,17.3,101.137,101.137,0,0,0-5.949,16.953,74.417,74.417,0,0,0-2.25,16.51,61.847,61.847,0,0,0,1.767,15.977,62.18,62.18,0,0,0,6.1,15.35,76.666,76.666,0,0,0,10.757,14.629c-.1.6-.181,1.227-.251,1.861a27.192,27.192,0,0,0,.038,7.412,9.41,9.41,0,0,0,2.068,4.766,7.731,7.731,0,0,0,6.044,2.311,24.642,24.642,0,0,0,7.38-1.389c.517-.129,1.038-.25,1.548-.359a168.6,168.6,0,0,0,20.1,12.209c-.631,5.639-3.2,10.973-7.642,15.857a7.505,7.505,0,0,1-3.709,1.553,18.633,18.633,0,0,0-1.937.521c-.433-1.615-.94-2.4-1.551-2.4-.529,0-1.086.576-1.625,1.133a3.724,3.724,0,0,1-1.43,1.111l-11.917-17.045c-1.8,2.51-2.484,4.736-2.1,6.811a7.9,7.9,0,0,0,2.208,3.982,23.946,23.946,0,0,0,4.179,3.342c-1.6-.141-2.943-.209-4.114-.209-3.343,0-5.528.545-7.085,1.766-1.516,1.189-2.5,3.078-3.176,6.123a77.409,77.409,0,0,1,16.032-1.828,54.6,54.6,0,0,1,9.722.842,46.44,46.44,0,0,1,9.245,2.689,45.185,45.185,0,0,1,8.707,4.764,52.078,52.078,0,0,1,8.112,7.063l1.583-.709c-.77-3.576-1.568-7.252-2.19-10.082l7.795-7.27-1.289-1.187-21.4,3.443-.879-1.723a29.117,29.117,0,0,0,7.213-6.658,44.866,44.866,0,0,0,4.918-8.086c7.313,3.461,15.385,6.813,23.993,9.965,8.737,3.2,18.283,6.275,28.37,9.152,28.233,8.043,54.224,16.389,77.25,24.8a633.051,633.051,0,0,1,58.474,24.441,331.46,331.46,0,0,1,41.867,23.8,164.955,164.955,0,0,1,27.426,22.9,16.706,16.706,0,0,0-.789,1.807c-2.191,5.971-3.373,12.43-4.515,18.674-.274,1.5-.586,3.205-.905,4.85a79.527,79.527,0,0,0-.7,10.123l-2.4.648-10.689-11.973c-.268.881-.647,1.793-.982,2.6-.773,1.861-1.5,3.619-1.038,4.959.571,1.5,2.132,2.613,3.94,3.906l.015.01c.832.594,1.691,1.209,2.529,1.914a28.424,28.424,0,0,0-2.813-.437l-.047,0c-3.393-.4-6.323-.754-6.8-5.547-.059-.641-2.576-1.67-4.081-1.67a1.746,1.746,0,0,0-.75.135,5.625,5.625,0,0,0-2.513,4.785,108.355,108.355,0,0,0,3.631,12.295,36.141,36.141,0,0,0,7.064-2.67l.016-.006c3.19-1.465,6.489-2.979,9.805-2.979,3.209,0,6.114,1.43,8.883,4.371,1.15-1.937,2.309-3.863,3.536-5.9l.163-.27c2.693-4.475,5.479-9.1,8.159-13.822a53.606,53.606,0,0,0,4.118-8.605,57.915,57.915,0,0,1,6.59,17.785,24.12,24.12,0,0,0-4.088-.437c-3.212,0-4.425,1.26-6.435,3.346,1.241.574,2.581,1.1,3.877,1.6l.091.037a36.3,36.3,0,0,1,7.355,3.5,50.633,50.633,0,0,1-2.639,16.725,66.121,66.121,0,0,1-7.407,15.131c-5.465,8.418-13.138,16.729-22.806,24.7a182.831,182.831,0,0,1-22.942,15.975c-6.188,3.648-10.417,5.656-10.452,5.672Zm-758.034-52.424h-.124c-.825.041-2.244,1.438-2.8,2.357-.2.324-.269.561-.212.682.675,1.447,2.255,3.551,3.658,3.7l.028,0a.85.85,0,0,0,.1.006c.85,0,1.748-.84,2.989-2,.687-.643,1.465-1.371,2.391-2.1-1.014-.469-1.872-.934-2.561-1.309A8.059,8.059,0,0,0-7526.917,18282.574Zm-22.308-9.98c.4,0,.826.01,1.256.027,3.4.863,5.548,2.521,6.573,5.074.844,2.1.95,4.848.333,8.65a11.374,11.374,0,0,0,1.579.121,6.19,6.19,0,0,0,5.021-2.2,14.623,14.623,0,0,0,2.423-5.137,26.372,26.372,0,0,0,7.875,1.408,12.2,12.2,0,0,0,6.433-1.641,12.072,12.072,0,0,0,4.328-4.8l-36.356-6.455c.219-1.828.3-3.721.386-5.549.186-4.1.361-7.967,1.887-11.3a35.319,35.319,0,0,0,3.049-13.895,98.793,98.793,0,0,0-.9-13.865v-.008l0-.016c-.34-3.029-.691-6.162-.836-9.223-.677-13.492-6.554-20.473-17.467-20.75l2.26,7.057,4.744-1.414a11.519,11.519,0,0,1,.41,8.4,28.214,28.214,0,0,1-3.822,6.857l0,0q-.312.454-.619.906a18.282,18.282,0,0,0-3.445,9.678,24.856,24.856,0,0,0,2.032,10.221,124.481,124.481,0,0,1,6.677,26.063c.273,1.82.449,5.2-1.448,7.406a6.161,6.161,0,0,1-4.917,1.955,13.481,13.481,0,0,1-2.5-.256,9.8,9.8,0,0,0,1.954,4.072,3.347,3.347,0,0,0,2.566,1.168c1.262,0,2.751-.6,4.83-1.936A26.579,26.579,0,0,1-7549.224,18272.594Zm140.391-76.736a4.217,4.217,0,0,0-1.624.32c-1.045.379-2.134.732-3.187,1.074-3.087,1-6.275,2.029-8.854,3.842-4.513,3.209-9.566,7.027-12.4,11.775-2.248,3.729-2.437,8.578-.533,13.656a25.936,25.936,0,0,0,15.6,15.242,22.25,22.25,0,0,1,8.915,5.451,54.759,54.759,0,0,1,6.151,7.664l.062.088c.494.7,1,1.416,1.515,2.117,2.485,3.408,3.438,6.752,2.833,9.938a11.3,11.3,0,0,1-2.322,4.9,19.331,19.331,0,0,1-4.874,4.24c-2.059,1.295-4.131,2.641-6.136,3.943l-.294.189-.544.355c-.664.43-1.34.869-2.008,1.3l2.756,4.477c1.416-.951,2.682-1.877,3.8-2.7l.044-.031.009-.008a35.286,35.286,0,0,1,5.834-3.744,25.86,25.86,0,0,0,6.942-4.67,13.189,13.189,0,0,0,3.526-5.68,12.944,12.944,0,0,0,.1-6.49,24.581,24.581,0,0,0-3.227-7.447c-1.622-2.6-3.408-5.176-5.136-7.666l-.023-.033a107.233,107.233,0,0,1-8.369-13.408c-.889-1.809-1.635-3.74-2.356-5.607l-.006-.018c-1.3-3.361-2.639-6.834-4.827-9.588a14.688,14.688,0,0,0-4.051-3.562,17.509,17.509,0,0,0-6.029-2.121v-2.285l15.618-11.508c1.556,1.27,3.029,2.381,4.329,3.361a36.981,36.981,0,0,1,6.613,5.785,26.029,26.029,0,0,1,4.9,10.221c.339,1.482-.407,3.242-1.128,4.943l-.009.021c-.321.756-.652,1.537-.882,2.283a25.325,25.325,0,0,0,5.228-5.221,12.112,12.112,0,0,0,2.34-5.709c.309-2.883-.722-5.748-3.063-8.518-2.738-3.266-6.43-5.824-10-8.3l-.006,0c-1.125-.777-2.4-1.66-3.6-2.549A4.171,4.171,0,0,0-7408.833,18195.857Zm274.778,83.881c2.013,3.34,3.13,4.828,4.421,4.828.964,0,2.016-.809,3.741-2.4a67.985,67.985,0,0,0,8.62-9.33,67.888,67.888,0,0,0,6.726-10.777c4.058-8.187,6.6-19.748-4.335-28.336a15.161,15.161,0,0,1-3.338-4.016,7.144,7.144,0,0,1-1.222-4.455,41.481,41.481,0,0,0,.711-10.533,17.138,17.138,0,0,0-2.366-7.762c-2.641-4.266-7.575-7.1-15.527-8.926a8.662,8.662,0,0,0-1.957-.256,2.453,2.453,0,0,0-2.385,1.066c-.424.84-.1,2.086.882,3.42l.2.045h.008c3.16.7,6.742,1.486,8.119,3.627a19.174,19.174,0,0,1,2.575,5.75,19.033,19.033,0,0,1,.541,5.836,31.768,31.768,0,0,1-3.369,11.7l-.1-.055a12.793,12.793,0,0,0,1.183.73l.052.029c.924.521,1.879,1.061,1.954,1.693a44.731,44.731,0,0,1,.175,5.992v.006a35.274,35.274,0,0,0,.443,7.693,15.486,15.486,0,0,0,3.832,7.488,20.094,20.094,0,0,1,3.864,5.865,11.864,11.864,0,0,1,.855,5.686c-.371,3.631-2.473,7.3-6.427,11.213a46.7,46.7,0,0,0-4.394,5.9l-1.564-.779Zm-594.765-57.014a30.078,30.078,0,0,0-3.232,12.4,28.453,28.453,0,0,0,1.348,11.643c.762,1.92,1.789,3.133,2.97,3.5a16.031,16.031,0,0,0-.7,6.711,14.945,14.945,0,0,0,1.882,5.594c1.947,3.479,5.092,6.473,8.132,9.369a47.962,47.962,0,0,1,6.327,7.428c1.477,2.145,9.169,3.98,14.43,3.98,2.377,0,4-.365,4.7-1.059a11.056,11.056,0,0,0,1.315-2.3c.459-.742.883-1.553,1.293-2.334l.007-.014.006-.012a17.114,17.114,0,0,1,3.158-4.7,34.55,34.55,0,0,0,7.875-9.93,18.5,18.5,0,0,0,1.567-12.111c.307.031.656.08.994.129l.121.018a10.1,10.1,0,0,0,1.26.146c.161,0,.248-.021.266-.068,3.8-9.584,4.4-18.029,1.822-25.822l-6.723,0v-1.572l6-1.748a39.984,39.984,0,0,0-.255-10.676,13.541,13.541,0,0,0-3.141-6.859c-2.622-2.855-6.747-4.184-12.98-4.184h-.368l4.689,9.322,1.127-5.945,2.688.564c-.29,1.162-.479,2.412-.662,3.619-.4,2.666-.823,5.424-2.307,7.279a24.489,24.489,0,0,0-5.729,12.715c-.475,4.205.319,8.748,2.425,13.891,2.517,6.143,3.421,11.359,2.766,15.953a18.116,18.116,0,0,1-2.73,7.33,23.568,23.568,0,0,1-6.542,6.508c-1.27.879-1.939,2.586-2.588,4.236l0,0,0,.012a19.754,19.754,0,0,1-.866,2l-6.75-.336c-.295-.5-.56-1.074-.841-1.684l-.011-.023a9.162,9.162,0,0,0-2.479-3.717,27.208,27.208,0,0,1-6.966-7.072,19.16,19.16,0,0,1-2.937-7.812c-.7-5.016.452-10.736,3.535-17.492a23.405,23.405,0,0,0,1.99-6.789,19.255,19.255,0,0,0-.267-6.385c-.835-3.953-2.9-7.852-6.325-11.914-1.666-1.982-2.536-4.68-3.376-7.287l-.008-.025c-.384-1.189-.781-2.418-1.249-3.561l2.062-.816c.4.74.792,1.49,1.248,2.359l.253.482c.39.746.814,1.555,1.324,2.521.594-3.047,1-5.158,1.465-7.605l.029-.15.3-1.576c-11.166,2.715-12.722,4.568-12.81,15.25,0,.418-.023.852-.041,1.268v.033c-.081,1.92-.165,3.906.987,5.154a5.347,5.347,0,0,0,3.886,1.354c.45.008.864,1.422,1.264,2.787l0,.008,0,.012c.188.643.382,1.307.58,1.822l-2.388.664-2.821-4.488Zm1003.822,39.84-.006.014c-.249.563-.5,1.135-.756,1.711l-.006.014c-1.609,3.643-3.274,7.408-4.822,11.311a4.186,4.186,0,0,0,.239,3.264c.45.844,2.066,1.734,4.435,2.439a26.4,26.4,0,0,0,7.147,1.1c2.238,0,3.843-.408,4.643-1.18,1.628-1.59,1.267-5.531.977-8.7-.021-.229-.042-.455-.061-.674a26.552,26.552,0,0,0-2.131-6.621l-9.658-2.672Zm-138.555,1.146c-.292,1.494-.644,3.008-.983,4.471a50.216,50.216,0,0,0-1.727,11.146c0,.689,1.347,1.4,3.694,1.959a33.856,33.856,0,0,0,7.294.826c2.652,0,4.5-.383,5.205-1.074a5.7,5.7,0,0,0,1.958-4.883,12.462,12.462,0,0,0-1.826-4.373l-.007-.014c-.994-1.734-1.933-3.373-1.621-5.021l-10-1.729-1.988-1.309Zm-581.364-3.949a8.32,8.32,0,0,0-4.648,1.537l10.528,11.592.139.154a42.645,42.645,0,0,0,6.5,6.23,14.294,14.294,0,0,0,8.5,2.824c.179,0,.354,0,.52-.006l6.576-.244a24.327,24.327,0,0,0-3.755-3.75c-2.6-1.678-4.083-3.561-4.4-5.594-.294-1.92.454-3.973,2.224-6.1a34.668,34.668,0,0,1,3.147-2.99l-.677-2.076c-.906.146-1.992.205-3.041.264l-.068,0c-2.382.127-4.842.262-5.436,1.371-1.116,2.143-1.182,4.908-1.245,7.584-.027,1.143-.054,2.322-.163,3.441C-7435.184,18264.555-7440.132,18259.762-7444.917,18259.762Zm145.328-.244c-.685,1.342-1.479,2.688-2.249,3.99l-.022.037c-1.719,2.908-3.5,5.912-4.185,9.088a4.116,4.116,0,0,0,.286,3.279c.738,1.045,2.232,1.24,3.814,1.447h.011c2.477.322,5.034.652,5.083,4.242,1.323-.98,2.694-1.818,4.021-2.629,2.781-1.7,5.183-3.166,5.692-5.084.573-2.248-.658-4.936-1.961-7.779-.549-1.2-1.115-2.434-1.54-3.641l-4.688,3.486-2.172-5.645-2.089-.791v0Zm288.347,2.867c-1.289.51-2.627.9-3.921,1.277l-.037.01,0,0c-2.747.8-5.342,1.557-6.67,3.258a17.427,17.427,0,0,0-3.318,11.762c.214,1.768,2.211,2.781,5.48,2.781a30.174,30.174,0,0,0,13.372-3.812c-1.388-4.3-2.808-8.727-4.9-15.277Zm-151.579-2.248a13.318,13.318,0,0,0-6.375,1.922c1,1.059,2.043,2.135,3.054,3.174l.145.15.019.018c2.292,2.357,4.664,4.795,6.837,7.361a21.612,21.612,0,0,0,7.51,5.994,21.573,21.573,0,0,0,9.294,2.115,22,22,0,0,0,3.157-.23c.478-.059.879-.885,1.268-1.686l.007-.016c.173-.354.352-.721.533-1.01-2.33-2.393-4.686-4.971-5.657-7.861a8.678,8.678,0,0,1-.306-4.572,13.28,13.28,0,0,1,2.548-5.3,48.759,48.759,0,0,0-6.454,1.025,5.863,5.863,0,0,0-3.284,1.8c-1.2,1.516-1.146,3.945-.569,8.82-.341-.561-.705-1.123-1.058-1.664l-.012-.02-.005-.008a31.9,31.9,0,0,1-2.059-3.48C-7156.313,18262.336-7159.2,18260.137-7162.822,18260.137Zm-680.5,3.266c-.015.021-.249.561-.451,1.059-2.274,5.672-3.384,9.637-1.9,11.867s5.521,2.717,11.978,2.8h.253c2.4,0,3.924-.451,4.8-1.42s1.116-2.42.854-4.893c-.309-2.674-.793-5.363-1.263-7.965v-.006c-.164-.908-.35-1.939-.521-2.939l.135.035.082.02-.276-.428c.188-.246.423-.5.65-.738l.018-.018c.549-.584,1.118-1.187,1.118-1.811a74.228,74.228,0,0,0,.184-12.779c-.254-2.234-.482-4.52-.7-6.73v-.012l0-.018c-.8-7.977-1.618-16.223-3.827-23.951-1.163-4.078-2.88-7-5.25-8.934a13.211,13.211,0,0,0-8.7-2.77,30.181,30.181,0,0,0-7.221.994,12.558,12.558,0,0,1-1.866.141,12.04,12.04,0,0,1-4.121-.723,22.063,22.063,0,0,0-6.327-.979,17.31,17.31,0,0,0-5.862.992,16.626,16.626,0,0,0-5.01,2.861,19.558,19.558,0,0,0-3.993,4.566,25.913,25.913,0,0,0-2.813,6.109c-3.752,11.828-2.686,23.4-1.557,35.65l.01.105c.18,1.957.367,3.98.53,5.994,1.235-1.736,2.45-3.43,3.625-5.066l.4-.562.021-.029c3.009-4.193,5.851-8.152,8.59-12.187,2.308-3.377,4.774-7.4,5.571-11.631.827-4.395-.215-8.57-3.187-12.766-1.146-1.553.1-4.992,1.1-7.754l0-.006c.1-.262.206-.566.308-.854.274-.77,1.427-1.238,2.542-1.691l.075-.031a14.867,14.867,0,0,0,1.377-.619l.893,1.412c-.3.357-.594.723-.889,1.082l-.323.393-.431.527h0a7.669,7.669,0,0,1,5.488-2.594c2.511,0,4.915,1.371,7.46,2.822l.2.115c2.416,1.377,5.153,2.938,8.085,2.938a8.185,8.185,0,0,0,1.555-.148,85.568,85.568,0,0,0-4.233,9.631,23.064,23.064,0,0,1-1.479,3.5,13.671,13.671,0,0,0-1.8,5.49,6.691,6.691,0,0,0,.642,3.02,11.8,11.8,0,0,0,2.477,3.371c4.795,4.773,8.511,10.764,12.1,16.559,1.464,2.361,2.978,4.8,4.553,7.139a.063.063,0,0,1-.009.016.064.064,0,0,0-.014.021l.046.055c.007.047.015.09.023.135l0,.018c.007.039.014.08.02.119a20.564,20.564,0,0,0-4.844-.574c-.111,0-.222,0-.333.006a74.994,74.994,0,0,0-8.771,2.527c.036-.08.2-.453.2-.463Zm-39.632-3.967-3.033,17.141,17.095,1.92c-.233-4.969-.474-9.914-.754-15.639l-.009-.193-.167-3.412-5.65,6.451-7.482-6.268Zm870-58.641v0a9.432,9.432,0,0,0-6.834,3.18,11.413,11.413,0,0,0-2.263,6.223c-.942,9.463-1.395,19.15-1.833,28.518v.021q-.062,1.348-.126,2.691c-.171,3.488-.139,7.041-.108,10.477v.031c.012,1.346.024,2.738.024,4.107v6.58c1.417-2.4,2.734-4.705,4.007-6.936l.01-.018.013-.021c2.625-4.6,5.1-8.943,7.883-13.033,3.417-4.988,5.148-9.164,5.448-13.143.348-4.631-1.285-9.025-4.992-13.432l-.238-.281-.161-.191c-1.648-1.937-3.7-4.348-3.274-6.848.258-1.518,1.442-2.9,3.517-4.113.186-.107-.192-1.2-.591-2.361l-.018-.053C-7012.653,18201.713-7012.824,18201.213-7012.95,18200.795Zm-140.828,50.887h0c-.293.422-.637.848-.97,1.26l-.005.006a6.875,6.875,0,0,0-1.85,3.322c-.066.775.69,1.619,1.736,2.787l.019.02c.552.615,1.177,1.313,1.8,2.135.521-.953,1.07-1.8,1.554-2.545l.006-.008c.921-1.416,1.649-2.535,1.519-3.42-.142-.957-1.324-1.777-2.468-2.57l-.035-.023c-.449-.312-.912-.635-1.307-.963Zm288.531-4.279v0c.1,1.777.208,3.535.309,5.236l.035.588.014.232c.12,2.021.234,3.932.347,5.887l1.938.865c1.451-2.6,3.192-5.2,4.876-7.707l.012-.018,0-.006a99.466,99.466,0,0,0,5.455-8.771,26.87,26.87,0,0,0,3.123-9.115c.8-6.424-1.66-13.2-3.833-19.186l0-.006c-.877-2.412-1.705-4.691-2.253-6.773l6.115-8.471c-6.619,1.621-9.783,3.074-11.671,5.357-2.032,2.457-2.573,5.967-2.86,11.584a35.161,35.161,0,0,1-2.821,11.564c-1.9,4.633-4.066,9.051-6.575,14.164-1.007,2.053-2.148,4.377-3.309,6.8l11.1-2.23Zm27.319-13.316c-.2.373-.426.795-.75,1.412,1.538,2.709,3.015,5.4,4.093,7.361l.145.264-.252,2.361c-.37,3.457-.7,6.576-1.032,9.74l2.218.467a53.684,53.684,0,0,1,4.028-6.379l.009-.014a38.99,38.99,0,0,0,5.185-9.027,15.787,15.787,0,0,0,.943-5.158,16.975,16.975,0,0,0-1.045-5.924c-.97,4.85-3.062,7.205-6.394,7.205-1.886,0-4.225-.754-7.148-2.309Zm-435.525-33.422a16.578,16.578,0,0,0-6.341,1.529c-7.576,3.164-13.1,7.006-16.89,11.74a28.265,28.265,0,0,0-4.7,8.617,36.221,36.221,0,0,0-1.78,10.975c-.076,4.693.264,9.434.593,14.016.147,2.057.3,4.184.41,6.258.7-1.1,1.4-2.209,2.136-3.389l.11-.174.063-.1c1.729-2.756,3.516-5.6,5.417-8.422,1.042-1.555,2.168-3.092,3.257-4.58l.052-.07a79.226,79.226,0,0,0,5.53-8.256,24.038,24.038,0,0,0,2.814-6.533,10.273,10.273,0,0,0-1.176-7.4c-.4-.717-.314-2.016.234-3.561a11.05,11.05,0,0,1,2.122-3.67,14.322,14.322,0,0,1,5.215-2.912l.005,0c.858-.34,1.83-.727,2.759-1.174,1.312,1.119,2.683,2.211,4.009,3.266l.106.084.007.006a60.843,60.843,0,0,1,9.121,8.3,16.854,16.854,0,0,1,2.455,5.543,14.962,14.962,0,0,1,.747,4.434c-.016.066-.039.107-.068.119-1.538.7-2.443,1.465-2.766,2.348-.405,1.109.137,2.254.71,3.465a7.817,7.817,0,0,1,.929,2.814,28.355,28.355,0,0,0,5.437-8.937,15.112,15.112,0,0,0,.656-8.215,15.462,15.462,0,0,0-4.153-7.473,29.694,29.694,0,0,0-8.833-6.043l-.2-.1C-7268.54,18201.717-7270.758,18200.664-7273.453,18200.664Zm-329.767,25.3a15.607,15.607,0,0,0-5.221.924,68.786,68.786,0,0,1,6.833,6.324,22.1,22.1,0,0,1,2.269,3.547l.006.01a16.7,16.7,0,0,0,2.98,4.281,92.906,92.906,0,0,0,13.243,10.08,2.159,2.159,0,0,0,1.21.3,11.442,11.442,0,0,0,2.6-.463h.007a16.387,16.387,0,0,1,1.946-.412h4.4c-5.568-4.293-8.3-6.9-8.775-10.1s1.322-6.9,5.274-13.5l-9.106-.662c-.367,1.865-.723,3.666-1.07,5.43l-.385,1.951c-.439,2.227-.868,4.4-1.3,6.584a34.821,34.821,0,0,1-2.6-5.371,12.171,12.171,0,0,0-4.61-6.529A13.142,13.142,0,0,0-7603.22,18225.963Zm760.93,16.129-2.075,7.672,4.73.793.621-7.9-3.276-.564Zm-980.115-7.414v0c.4,1.8.784,3.512,1.158,5.184.694,3.105,1.272,5.7,1.875,8.418.042,0,.083,0,.125,0l.116,0c.126.006.242.008.358.008,2.123,0,3.666-.57,4.586-1.7,1.158-1.418,1.393-3.719.719-7.031,3.622,5.119,6,7.207,8.227,7.207,1.714,0,3.392-1.213,5.61-4.055-.993-.557-2.02-1.148-2.987-1.709-2.391-1.381-4.863-2.811-7.4-4.012a26.307,26.307,0,0,0-5.835-1.258l-6.548-1.062Zm681.044-9.506a19.62,19.62,0,0,0-10.811,3.609c-3.831,2.572-5.794,4.883-6.366,7.49-.581,2.652.225,5.8,2.611,10.211.395-.637.884-1.318,1.356-1.979l.011-.016c.936-1.311,1.82-2.547,1.559-2.889a4.5,4.5,0,0,1-1.195-3.41c.258-1.564,1.79-2.594,3.141-3.5l.008,0c.3-.2.6-.4.867-.6a148.227,148.227,0,0,1,12.88-7.652c.2,3,.8,4.395,1.882,4.395a5.088,5.088,0,0,0,2.423-1.223c.267-.193.506-.363.743-.521a11.116,11.116,0,0,0-4.069-2.934,12.824,12.824,0,0,0-5.032-.979Zm150.2,1.639c-1.755,0-3.518.02-5.475.047l-.247,0c-1.713.021-3.485.041-5.224.041a13.025,13.025,0,0,0-.451,1.99c4.761.246,8.48,1.539,11.054,3.84,2.725,2.434,4.231,6.053,4.477,10.762,6.442-3.914,6.526-4.23,3.009-11.293a12.73,12.73,0,0,0,5.978,1.734,8.7,8.7,0,0,0,4.777-1.432,15.887,15.887,0,0,0,4.1-4c-1.8-.18-3.569-.383-5.276-.58l-.161-.02c-3.8-.437-7.38-.852-11.1-1C-6987.307,18226.84-6989.094,18226.811-6991.163,18226.811Zm114.394-12.359a30.506,30.506,0,0,0-10.642,12.641c-2.179,4.977-2.533,10.055-1,14.3a13.556,13.556,0,0,1,3.592-6.041,8.363,8.363,0,0,1,5.735-2.074,14.915,14.915,0,0,1,4,.605,9.73,9.73,0,0,0-.888-4.715,2.941,2.941,0,0,0-2.76-1.562c-1.569,0-3.674.8-6.433,2.463a45.046,45.046,0,0,1,4.108-4.039c3.82-3.441,6.837-6.16,4.28-11.574Zm-274.824-6.539c-.458.1-1.167.182-1.917.268l-.05.006c-1.859.211-4.168.473-4.328,1.182a66.777,66.777,0,0,0-1.3,15.742c.022.67,1.6,1.3,3.12,1.92l.011,0,.007,0c.723.291,1.471.594,2.049.9.259-.537.592-1.09.885-1.576l.005-.01a8.217,8.217,0,0,0,1.424-3.4c.218-3.432.177-6.848.133-10.465v-.006C-7151.574,18211-7151.592,18209.467-7151.592,18207.912Zm281.489,12.814a.626.626,0,0,0-.2.035,7.15,7.15,0,0,0-3.584,3.883c-.061.148.055.451.325.852.582.863,1.856,2.117,2.528,2.117a.255.255,0,0,0,.069-.006,7.935,7.935,0,0,0,3.343-1.9l.008-.008c.628-.482,1.339-1.029,2.17-1.59-.845-.609-1.594-1.254-2.2-1.771l-.019-.016C-6868.7,18221.43-6869.519,18220.727-6870.1,18220.727Zm22.435-3.215h0l-1.283,2.6a25.78,25.78,0,0,1,1.747,2.191l.007.01c1.216,1.633,2.473,3.322,3.593,3.322h.074a49.935,49.935,0,0,0,10.431-2.256l.161-.047c1.309-.383,2.662-.777,4-1.115-.014-.875-.032-1.793-.056-2.727l-18.668-1.979Zm-740.608-2.1c-1.216,0-3.516,2.365-3.516,3.617.058,1.24.988,2.455,1.887,3.629.389.508.789,1.029,1.118,1.553l6.539-4.8c-.941-.674-1.753-1.342-2.406-1.881-1.461-1.2-2.517-2.066-3.581-2.113Zm-276.426-5.7a18.7,18.7,0,0,0-2.052,2.492c.655-.787,1.314-1.592,1.952-2.369l.037-.045Zm430.982-132.322a3.191,3.191,0,0,1,.257.348c1.087,1.682.649,4.045.077,6.137a97.305,97.305,0,0,1-3.733,10.182l-.025.063c-.559,1.365-1.137,2.777-1.676,4.172-1.183,5.236-1.291,9.594-.33,13.32a19.074,19.074,0,0,0,7.826,10.906,30.814,30.814,0,0,1,4.423,4.293l.013.014a34.076,34.076,0,0,0,4.035,4,7.4,7.4,0,0,0,3.878.975c.58.043,1.3.1,1.938.209-1.3-1.57-2.61-3.062-3.88-4.506l-.015-.018-.008-.01c-3.535-4.018-6.874-7.811-8.741-12.1-2.073-4.76-2.133-9.65-.189-15.391l0-.006c1.974-5.832,4.015-11.861,4.08-17.687a21.276,21.276,0,0,0-1.579-8.541,24.424,24.424,0,0,0-5.863-8.285c-1.686-1.6-3.2-4.375-2.549-6.687a4.194,4.194,0,0,1,1.563-2.205,9.123,9.123,0,0,1,3.669-1.51c.414-.07.684-.783,1-1.607l.01-.025a12.47,12.47,0,0,1,.5-1.2c-5.307,0-7.775.209-9.32,1.494-1.658,1.383-2.134,4.129-2.722,8.486-.168,1.252-.388,2.516-.6,3.736l-.006.037c-.115.656-.257,1.473-.382,2.256-.692,4.275.877,6.709,4.8,7.438-.625.318-1.432.625-2.211.922l-.011.006c-1.675.637-3.406,1.3-3.462,2.057-.391,5.357-.351,10.7-.3,16.887v.107c.015,2.084.031,4.238.031,6.514l4.349-3.855c.553-1.43,1.137-2.859,1.7-4.24l0-.008a100.587,100.587,0,0,0,3.733-10.168c.6-2.086,1.068-4.449-.017-6.152a3.676,3.676,0,0,0-.264-.359Zm-404.412,42.9-9.069,3.711a20.91,20.91,0,0,0,5.983,4.869,13.875,13.875,0,0,0,6.422,1.588,18.686,18.686,0,0,0,8.379-2.236,13.419,13.419,0,0,0,6.513-6.758,17.206,17.206,0,0,0,.729-9.973c-2.852-14.531-12.325-24.666-21.784-33.8,0,2.2.062,4.486.117,6.508a103.983,103.983,0,0,1-.287,14.531,20.151,20.151,0,0,0,1.237,9.738,32.07,32.07,0,0,0,5.016,8.248,12.072,12.072,0,0,1,2.135,6.127.609.609,0,0,1-.17.412,15.206,15.206,0,0,1-5.456,2.1l-.019,0c-.759.188-1.544.381-2.292.613l-.736-2.037,3.705-2.82Zm-27.241,8.486c.231,0,.45,0,.663.006.365.211.666.4.948.586.233-.254.426-.449.557-.566a.189.189,0,0,1-.074.012c-.581-.02-1.022-.031-1.431-.035-1.1-.648-2.318-1.273-3.5-1.877l-.063-.033c-3.584-1.834-7.291-3.732-8.708-6.68a5.236,5.236,0,0,1-.4-3.67,7.809,7.809,0,0,1,1.88-3.205,27.311,27.311,0,0,1,6.711-4.859,21.591,21.591,0,0,0,9.451-9.48c1.753-3.607,2.486-7.918,2.242-13.182a24.492,24.492,0,0,1,1.365-7.68c.334-1.16.678-2.357.936-3.529l2.54.436-.011.17c-.034.479-.068.961-.1,1.492-.091,1.307-.216,3.094-.423,6.162,3.42-6.137,6.445-10.369,9.517-13.322,3.754-3.609,7.651-5.363,11.914-5.363a18.652,18.652,0,0,1,6.274,1.174,33.157,33.157,0,0,1,7.156,3.744l1.077-1.395a24.969,24.969,0,0,1-.949-2.377c-.652-1.8-1.326-3.672-2.626-4.475a29.368,29.368,0,0,0-7.669-2.939c-.913-.254-1.856-.518-2.693-.8,2.521-1.812,4.5-3.277,5.954-4.531a11.1,11.1,0,0,0,2.863-3.3c.97-1.977.351-3.869-1.4-7.363-2.45,2.354-5.121,4.52-7.7,6.615l-.023.02a85.607,85.607,0,0,0-10.653,9.693,34.762,34.762,0,0,0-4.228,5.914,29.977,29.977,0,0,0-2.894,7.184l-2.683-.762-2.238-6.273-.945-2.648c-2.076-5.814-4.3-12.031-6.6-18.514a12.464,12.464,0,0,1-1.214.721l-.009,0c-1.335.732-3,1.645-3.337,2.914a23.3,23.3,0,0,0-.348,7.152c.051.969.109,2.068.109,3.113-3.878.227-6,.881-7.333,2.254-1.374,1.42-2.006,3.684-2.183,7.814a29.643,29.643,0,0,1,9.985-2,16.958,16.958,0,0,1,10.6,3.535c-1.019.9-2.053,1.8-3.11,2.705l-.006.006c-2.2,1.9-4.281,3.688-6.2,5.609-3.908,3.932-7.735,8.057-11.436,12.047l-.082.086q-.53.574-1.06,1.145l-.781.84c-7.251,7.844-10.433,22.637-6.548,30.443,3.361,6.734,9.064,7.3,14.619,7.3.706,0,1.41-.01,2.031-.018l.109,0C-7866.9,18128.785-7866.129,18128.773-7865.374,18128.773Zm292.806-2.445v0l.119.072c4.248,1.332,8.073,2.434,11.881,2.434a16.2,16.2,0,0,0,5.619-.949,17.264,17.264,0,0,0,5.526-3.34c4.093-3.605,7.335-9.414,8.893-15.936a33.667,33.667,0,0,0,.929-9.537,23.425,23.425,0,0,0-2.055-8.762,29.987,29.987,0,0,0-8.034-9.885,29.677,29.677,0,0,0-6.977-3.928l-.02-.008c-1.295-.59-2.634-1.2-4.015-1.912,3.648-2.8,7.421-5.687,9.594-8.982,2.355-3.574,2.658-7.3.953-11.729a13.948,13.948,0,0,0-5.023-6.451,29.968,29.968,0,0,0-7.373-3.561c0,2.359.037,4.633.071,6.83v.02c.079,4.9.153,9.537-.2,14.1-.192,2.865-.986,4.922-2.429,6.291-1.5,1.42-3.7,2.111-6.732,2.111-.36,0-.736-.01-1.119-.029-.655-.035-1.276-.053-1.848-.053-4.29,0-7.056.883-8.7,2.775a8.007,8.007,0,0,0-1.767,4.322,24.458,24.458,0,0,0,.193,6.523l13.763-3.812-.368-1.287-10.248.525c.029-.383.058-.773.083-1.139l.006-.086c.034-.473.068-.959.108-1.432.052,0,.1,0,.157,0a19.949,19.949,0,0,0,3.839-.518l.117-.023.042-.008a20.409,20.409,0,0,1,3.94-.535,6.825,6.825,0,0,1,3.223.736,8.348,8.348,0,0,1,3.01,2.846c1.451,2.111,3,4.211,4.5,6.242l.021.029c2.531,3.426,5.148,6.971,7.366,10.67,2.643,4.43,5.639,9.449,6.185,14.545a8.979,8.979,0,0,1-.43,3.924,9.461,9.461,0,0,1-1.93,3.24,11.976,11.976,0,0,1-8.818,3.834,11.2,11.2,0,0,1-4.61-.971,4.033,4.033,0,0,0-1.691-.289c-.484,0-1.021.041-1.588.084l-.03,0-.076.006c-.674.053-1.437.111-2.261.111a6.849,6.849,0,0,1-3.055-5.391,23.5,23.5,0,0,1,.827-6.578c.254-1.17.518-2.381.69-3.562a29.72,29.72,0,0,0-4.987,1.83,5.142,5.142,0,0,0-2.417,2.139c-.817,1.619-.281,3.861.921,7.186.548,1.533,1.085,3.023,1.625,4.4-.676-1.086-1.38-2.152-2.061-3.184l-.06-.09c-1.033-1.568-2.009-3.051-2.9-4.6a16.24,16.24,0,0,0-4.592-5.441,9.148,9.148,0,0,0-5.345-1.721,11.574,11.574,0,0,0-3.209.486,121.268,121.268,0,0,0,8.881,11.291l.264.273c3,3.1,6.108,6.309,10.59,6.309a10.631,10.631,0,0,0,3.033-.465Zm268.906-34.684h0c-3.077,8.18-4.486,13.416-3.124,17.664a13.842,13.842,0,0,0,4.049,5.85,64.08,64.08,0,0,0,8.51,6.311,10.09,10.09,0,0,1,1.776,1.645,11.406,11.406,0,0,0,1.6,1.521c1.22.92,2.578,1.785,3.777,2.547.8.508,1.622,1.033,2.421,1.576l3.17-6.8c-.153.139-.313.289-.467.436l-.083.078,0,0c-.686.654-1.394,1.328-1.933,1.328a.613.613,0,0,1-.131-.014,12.7,12.7,0,0,1-5.565-3.373,28.792,28.792,0,0,1-4.87-6.311c-3.087-5.312-4.353-10.8-3.3-14.318a58.988,58.988,0,0,1,5.112-11.836,27.189,27.189,0,0,0,3.338-8.766,19.51,19.51,0,0,0-.738-9.479c-.368-1.107.4-3.182,1.277-4.639.778-1.3,1.625-2.141,2.266-2.252a43.807,43.807,0,0,1,7.231-.506c1.483,0,3,.043,4.466.084h.064l.062,0c1.468.041,2.985.084,4.47.084.016.416.039.85.06,1.232v.018c.038.707.078,1.439.078,2.152l-15.121.691v2.273l18.949,0c-.8-4.43-1.714-7.8-3.584-9.826a7.24,7.24,0,0,0-3.329-2.02,17.451,17.451,0,0,0-5.064-.59c-1.043,0-2.2.045-3.552.139a41.546,41.546,0,0,0-8.669,1.883l-.092.027c-1.228.359-2.5.729-3.75,1.041l.055-.062.2-.193-.106-.053-.12-.059c0,.1.013.188.028.287l-8.84,8.139a51.329,51.329,0,0,1,4.634,6.99c.165.33-.569,1.092-1.28,1.828l-.028.031c-.315.328-.641.668-.882.965l-4.473-5.18c-5.53,8.387-6.877,16.949-4.238,26.951Zm-434.449-44.244c-5.639,0-9.484,1.754-11.757,5.359-2.165,3.434-2.566,8.146-2.673,11.867-.068,2.322-.206,4.625-.338,6.852a113.709,113.709,0,0,0-.256,13.744,45.5,45.5,0,0,0,3.079,14.238,68.36,68.36,0,0,0,6.744,13.523,32.183,32.183,0,0,0,10.623,9.916,15.448,15.448,0,0,1,2.627,2.186c1.193,1.145,2.32,2.229,3.277,2.229a1.561,1.561,0,0,0,.239-.021c1.271-.268,2.549-.449,3.785-.625l.093-.012.006,0a36.2,36.2,0,0,0,6.363-1.3,18.26,18.26,0,0,0,6.429-3.711c9.966-8.7,15.1-19.641,16.151-34.443a104.755,104.755,0,0,0,.027-17.566,51.2,51.2,0,0,0-4.546-17.178,4.723,4.723,0,0,1-.025-2.562c.08-.545.17-1.162.209-1.828.927.357,1.854.631,2.75.895l.046.014.009,0c1.93.566,3.753,1.1,4.958,2.348,1.243,1.281,1.826,3.168,2.443,5.164l0,.006,0,.01c.256.828.521,1.686.842,2.52,2.366-.76,3.751-1.826,4.231-3.262.588-1.758-.191-4.123-2.382-7.23,4.516,2.1,8.035,3.07,11.077,3.07a12.49,12.49,0,0,0,8.411-3.186c-1.348-.322-2.661-.691-4.114-1.105l-.041-.01a42.532,42.532,0,0,0-8.922-1.859c-.715-.047-1.458-.1-2.175-.152l-.375-.027c-2.159-.156-4.605-.334-6.919-.334a23.235,23.235,0,0,0-8.886,1.416,15.176,15.176,0,0,1-6.22,1.324,15.322,15.322,0,0,1-5.514-1.025l-3.317-1.109c.484,2.051,1.619,5.582,3.787,6.178,3.429.943,4.539,2.8,4.867,4.2a5.922,5.922,0,0,1-1.834,5.486,16.958,16.958,0,0,0-5.918,11.611c-.352,4.055.493,8.154,1.31,12.121l.014.068c.267,1.3.52,2.527.729,3.748,1.066,6.232,1.231,10.783.533,14.758a22.674,22.674,0,0,1-2.181,6.555,25.48,25.48,0,0,1-4.509,6.162,14.047,14.047,0,0,0-2.479,4.236l-.012.027c-.282.641-.549,1.246-.84,1.793l-.008,0a23.892,23.892,0,0,0-2.421.166c-.754.076-1.534.156-2.262.156a4.633,4.633,0,0,1-2.285-.467c-11.2-6.17-16.563-20.613-12.212-32.883a29.524,29.524,0,0,0,1.92-12.555,24.256,24.256,0,0,0-4.562-11.943c-1.658-2.3-2.373-5.352-3.064-8.3-.345-1.469-.7-2.99-1.174-4.406l1.951-.934,3.373,2.2,1.693-6.109h-.006C-7737.864,18047.4-7737.987,18047.4-7738.11,18047.4Zm332.9,55.6a9.426,9.426,0,0,0-4.733,1.5c.574.705,1.243,1.4,1.89,2.072l0,0c1.456,1.512,2.96,3.076,3.582,4.912,2.321,6.869-2.031,9.564-6.638,12.418a42.37,42.37,0,0,0-3.895,2.619,27.4,27.4,0,0,0,5.443.547,27.423,27.423,0,0,0,6.106-.687,17.616,17.616,0,0,0,5.237-2.3,18.851,18.851,0,0,0,3.936-3.479,48.964,48.964,0,0,0,5.755-9.018l0-.006a51.9,51.9,0,0,1,6.163-9.594,19.954,19.954,0,0,0-3.95-.447c-5.152,0-8.022,2.846-10.236,10.148a20.11,20.11,0,0,0-3.98-6.568A6.459,6.459,0,0,0-7405.213,18103Zm240.972,6.021a33.85,33.85,0,0,0-5.577,5.652,9.169,9.169,0,0,0-2.039,4.668,4.036,4.036,0,0,0,1.151,3.121,12.1,12.1,0,0,0,8.554,3.328c3.235,0,5.933-1.213,7.4-3.328,2.717-3.9.744-7.475-1.542-11.611l0-.008c-.677-1.225-1.377-2.494-1.984-3.828-1.811,3.395-2.809,5.322-4.238,8.094-.367-1.3-.673-2.383-.931-3.289C-7163.746,18110.779-7163.992,18109.916-7164.242,18109.018Zm40.649-.875c-5.986,10.6-5.986,10.6,2.825,17.367,4.738-1.842,7.5-3.289,8.527-5.648.622-1.428.636-3.191.047-5.717a72.616,72.616,0,0,0-3.351-9.7c.127,2.781-.224,4.564-1.071,5.449a2.1,2.1,0,0,1-1.586.645c-1.57,0-3.606-1.236-5.391-2.395Zm-157.642,13.285-.249.529.068-.061c.125-.107.253-.217.378-.312l-.022-.014c.06-.051.123-.1.184-.15l.042-.033c-.081.018-.161.033-.236.045-.045.008-.088.016-.132.025l-.032-.029Zm6.552-21.307v0c4.113,4.7,5.753,8.564,5.016,11.809-.673,2.961-3.316,5.395-8.081,7.441a21.2,21.2,0,0,0-3.087,2.014c4.375-.816,8.776-1.668,12.558-2.4.814-.295,1.707-.521,2.57-.738,1.907-.482,3.879-.982,5.026-2.236a132.505,132.505,0,0,0,9.223-11.641l.235-.32c.893-1.215,1.816-2.471,2.759-3.727-.926-.086-1.747-.129-2.507-.129a11.03,11.03,0,0,0-6.232,1.541,9.332,9.332,0,0,0-3.6,5.395,39.5,39.5,0,0,1-3.355,6.547,16.21,16.21,0,0,0,.905-6,6.264,6.264,0,0,0-3.187-4.922,18.488,18.488,0,0,0-5.592-1.947l-.061-.014c-.855-.2-1.739-.412-2.589-.666Zm247.8.445a1.56,1.56,0,0,0-.441.063,5.048,5.048,0,0,0-2.045,1.561,2.766,2.766,0,0,0-.89,1.969,6.486,6.486,0,0,0,2.307,2.857c.4.35.856.744,1.236,1.141l4.32-5.434a19.61,19.61,0,0,1-1.995-1.1l-.01-.006A5.54,5.54,0,0,0-7026.883,18100.566Zm-556.576-2.174a3.53,3.53,0,0,0-1.809.5,27.056,27.056,0,0,0-2.5,5.775l8.756-1.1a20.624,20.624,0,0,0-2.784-4.76A3.516,3.516,0,0,0-7583.459,18098.393Zm430.283-50.242a14.171,14.171,0,0,0-8.077,2.445,14.461,14.461,0,0,0-5.377,7.227c-2.866,8.186-3.883,17.354-4.5,25.242-.289,3.646.427,7.367,1.186,11.307l.006.033c.348,1.811.708,3.682.979,5.6.95-1.643,1.845-3.24,2.711-4.783,1.809-3.227,3.516-6.271,5.42-9.205.6-.936,1.237-1.895,1.8-2.74l.01-.014c2.271-3.406,4.619-6.926,5.619-10.668a14.209,14.209,0,0,0,.367-5.885,17.363,17.363,0,0,0-2.544-6.576c-.547-.879-.146-2.449.288-3.613a20.547,20.547,0,0,1,2.141-4.1c.147-.215.473-.314,1.025-.314a14.725,14.725,0,0,1,1.724.16l.154.02.02,0a17.614,17.614,0,0,0,2.043.174,4.537,4.537,0,0,0,.679-.043,38.025,38.025,0,0,0,5.425-1.5,10.144,10.144,0,0,1-2.825-.547A17.048,17.048,0,0,0-7153.176,18048.15Zm16.355,2.1h0a29.446,29.446,0,0,1,5.023,2.609,6.42,6.42,0,0,1,2.432,2.715c.859,2.025.266,4.654-1.13,8.8a24.23,24.23,0,0,0-1.118,6.316,10.989,10.989,0,0,0,1.118,5.84,149.32,149.32,0,0,0,11.45,16.068c1.535,1.965,3.275,4.191,4.913,6.383a12.82,12.82,0,0,0,.359-4.932,7.83,7.83,0,0,1,.262-3.545,27.159,27.159,0,0,0,2.3-9.6,29.378,29.378,0,0,0-1-9c-1.559-5.967-4.705-11.713-7.481-16.783-3.044-5.592-7.668-8.547-13.372-8.547a20.851,20.851,0,0,0-8.247,1.861c-.323.141-.3,1.193-.276,2.039,0,.156.007.307.009.443l-.018-.012-.047-.027c-.041-.031-.1-.078-.161-.121l.057.061-.006,0-.007,0-.208.07c-.035.012-.07.023-.1.037.142.01.277.014.437.014l.055.061v-.055h.014l.608.465c1.027.783,2.089,1.594,3.22,2.4.268-1.012.568-2.174.916-3.555Zm-124.83,38.307h0l-4.491,6.3,2.131,2.131,6.2-4.52-3.837-3.912Zm-48.453-42.652c-2.566,0-5.33.936-8.449,2.863,1.1.424,2.2.838,3.37,1.275l.118.043c2.643.988,5.375,2.012,8.076,3.172,3.231,1.371,6.414,2.895,9.492,4.369l.1.051c.981.471,2.024.971,3.053,1.457-.042-.486-.042-.994-.042-1.486a5.948,5.948,0,0,0,3.289-3.275,14.168,14.168,0,0,0,.725-4.285c.158-2.357.322-4.795,2.286-6.486-4.684.953-7.056,2.08-8.187,3.887a6.319,6.319,0,0,0-.814,3.586,24.408,24.408,0,0,0,.907,5.332l1.794,1.242-1.836-1.242c-.409-.471-.834-.943-1.245-1.4l-.009-.012c-.872-.969-1.859-2.066-2.726-3.189C-7303.212,18047.836-7306.453,18045.906-7310.1,18045.906Zm-268.906,2.482h0c-1.872,4.568-2.265,6.85-1.4,8.137.655.977,2.049,1.395,4.662,1.395.291,0,.563-.008.814-.014l-.89-3.939-.031-.135c-.484-2.143-.984-4.359-1.481-6.543.188-1.293.127-2.129-.179-2.482a.573.573,0,0,0-.453-.2c-.6,0-1.43.682-2.035,1.178-.167.139-.3.248-.412.33-3.166,2.324-6.105,4.744-9.218,7.307l-.387.318c-1.052.865-2.139,1.76-3.229,2.641a12.425,12.425,0,0,0,3.958.713,8.341,8.341,0,0,0,6.135-2.689A28.263,28.263,0,0,0-7579.009,18048.389Zm117.851-3.787c-1.944,0-3.854,1.09-7.458,3.4,1.031.283,2.073.566,3.23.881,2.518.686,5.652,1.539,8.927,2.457,2.576.717,5.2,1.469,7.743,2.2l.129.035c2.1.6,3.812,1.092,5.385,1.539l-4.233-14.787-1.024,1.467c-1.722,2.465-3.168,4.537-4.626,6.637C-7457.131,18045.768-7459.116,18044.6-7461.158,18044.6Zm-410.373,2.883-7.059,1.908,1.938,5.254,6.479-3.773-1.358-3.387h0Zm746.171-74.8v0l9.562,3.953a50,50,0,0,1-6.1-9.514,22.139,22.139,0,0,1-2.222-9.039,25.15,25.15,0,0,1,1.99-9.812,63.7,63.7,0,0,1,6.54-11.834,25.172,25.172,0,0,0,1.891-4.4l-2.825-2.033-11.228,7.039a9.889,9.889,0,0,0-3.562-3.248,10.014,10.014,0,0,0-4.677-1.027,16.335,16.335,0,0,0-1.654.09c5.693,7.2,8.853,14.01,9.663,20.826a29.951,29.951,0,0,1-.779,11.07,40.682,40.682,0,0,1-5.285,11.688l8.682-3.754Zm-449.859-16.885-.166,1.738,10.7.719v.873l-10.036.5,1.8.354.144.027.018,0c4.4.861,8.954,1.75,12.4,3.979a12.634,12.634,0,0,1,4.3,4.533,17.975,17.975,0,0,1,2.055,7.594l1.781-.424c1.1-3.906,2.234-7.875,2.991-10.52l16.041-3.008-.479-2.314-41.542-4.053Zm-253.643-64.414v0a15.831,15.831,0,0,1,.864,8.375,22.055,22.055,0,0,1-2.783,6.887c-.636,1.121-1.343,2.264-1.967,3.271l-.01.016a38.493,38.493,0,0,0-4.4,8.664,14.773,14.773,0,0,0-.68,4.768,14.767,14.767,0,0,0,1.157,5.268c.92,2.236,1.759,4.543,2.57,6.773l.02.053c.83,2.283,1.688,4.643,2.633,6.922a21.857,21.857,0,0,1,1.694,6.006,12,12,0,0,1-.448,5.123c-1,3.115-3.37,5.859-7.458,8.641a91,91,0,0,0-8.242,6.588l-.062.055c-1.276,1.1-2.6,2.238-4.01,3.41a10.957,10.957,0,0,0,5.269,1.559c3.2,0,5.457-2.027,7.446-3.818l.007-.006h0a17.526,17.526,0,0,1,2.9-2.279,29.881,29.881,0,0,0,8.842-7.363,29.866,29.866,0,0,0,4.9-9.037c2.245-6.455,2.746-13.764,3.23-20.83v-.01c.231-3.377.471-6.869.9-10.215l2.075-1.031,11.89,14.922a18.121,18.121,0,0,0,3.058-5.041,7.1,7.1,0,0,0,.327-4.312,6.9,6.9,0,0,0-2.323-3.437,17,17,0,0,0-4.973-2.74c5.167-2.521,8.015-4.168,9.239-6.172,1.208-1.977.86-4.242-.317-8.27l-20.062,11.291c-1.286-3.3-1.57-7.016-1.846-10.605-.321-4.186-.624-8.137-2.458-11.074a8.992,8.992,0,0,0-4.089-3.52,18.339,18.339,0,0,0-7.538-1.316h-.35c.189.885.373,1.742.553,2.588.416,1.947.808,3.787,1.242,5.756l3.2-5.855Zm101.762,66.43v0c-.2,1.246-.531,2.547-.855,3.8-.731,2.842-1.486,5.777-.686,8.143.7,2.1,4.983,3.2,8.849,3.2a16.924,16.924,0,0,0,4.553-.568,5.928,5.928,0,0,0,3.076-1.76c.994-1.248.381-3.82-.212-6.309-.248-1.037-.5-2.109-.634-3.064a20.244,20.244,0,0,0-.833-2.826,42.859,42.859,0,0,1-7.611,1.162,11.138,11.138,0,0,1-3.949-1.117l-.009,0c-.6-.254-1.143-.479-1.687-.666Zm277.547-4.3h0a64.377,64.377,0,0,0-3.792,5.844,6.693,6.693,0,0,0-1.055,3.824c.239,2.213,2.436,4.061,6.624,7.4l9.645-3.359c-.224-1.445-.473-3.068-.784-5.107-.4-2.584-.8-5.256-1.208-7.828l-5.775,3.994-3.653-4.771Zm-430.612-19.363a11.57,11.57,0,0,0-5.82,1.547c1.057,1.2,2.139,2.379,3.094,3.42a94.321,94.321,0,0,1,7,8.24,60.084,60.084,0,0,1,3.682,6l.014.025.005.01a48.576,48.576,0,0,0,4.6,7.191,39.253,39.253,0,0,0,10.275,8.477,3.478,3.478,0,0,0,1.771.406,12.081,12.081,0,0,0,2.427-.334l.045-.008a5.93,5.93,0,0,1,.97-.166c-.777-2.059-1.7-4-2.6-5.877-1.872-3.918-3.641-7.619-3.4-11.277.239-3.686,2.29-7.207,4.664-11.285l.021-.035c1.091-1.877,2.22-3.818,3.276-5.949l-13.156,2.572a30.264,30.264,0,0,1,7.577-10.582,19.844,19.844,0,0,1,12.26-4.6c.772-.045,1.51-1.131,2.224-2.18a15.2,15.2,0,0,1,1.006-1.375,13.632,13.632,0,0,1-1.187-1.076,5.32,5.32,0,0,0-2.609-1.75,12.837,12.837,0,0,0-1.855-.131c-3.905,0-8.62,1.6-12.934,4.385-4.346,2.807-7.622,6.4-8.987,9.863-.994,2.479-1.09,4.363-.285,5.6.74,1.139,2.26,1.758,4.518,1.84-.657.029-1.369.127-2,.215a17.609,17.609,0,0,1-2.341.219,4.346,4.346,0,0,1-1.86-.348C-7873.087,17935.646-7876.628,17934.143-7880.164,17934.143Zm569.67,3.01h0a29.978,29.978,0,0,0,.028,10.379,27.651,27.651,0,0,0,3.408,9.2,25.873,25.873,0,0,0,6.314,7.213,25.245,25.245,0,0,0,8.749,4.428,13.006,13.006,0,0,0,3.511.625,4.394,4.394,0,0,0,3.14-1.182,12.664,12.664,0,0,0,2.552-3.891,18.228,18.228,0,0,1-4.258.523,13.032,13.032,0,0,1-8.277-2.707,12.611,12.611,0,0,1-4.408-7.994,44.054,44.054,0,0,1-.416-10.293,44.135,44.135,0,0,1,1.985-10.111c.21-.641.428-1.283.638-1.9l.088-.26,0-.008a38.65,38.65,0,0,0,2.259-8.758,15.222,15.222,0,0,0-1.958-9.135,5.826,5.826,0,0,1,.052-4.109,11.919,11.919,0,0,1,2.147-4.205c.24-.277.478-.57.729-.883l.041-.051c1.317-1.639,2.811-3.494,5.158-3.494a6.538,6.538,0,0,1,3.307,1.051,10.63,10.63,0,0,0,4.959.955c2.059,0,3.625-.346,3.811-.84.9-2.373,2-3.576,3.287-3.576,1.738,0,3.369,2.184,4.153,3.232,2.816,3.736,6.32,8.383,6.636,12.924.289,4.348-.52,8.834-1.3,13.172v.012c-.44,2.441-.9,4.965-1.152,7.445-.127,1.16-.3,2.369-.466,3.537l0,.021c-.595,4.166-1.209,8.477-.11,12.215l.106.361c1.182,4.02,1.832,6.23,1.489,7.885-.348,1.684-1.734,2.75-4.518,4.371l-10.376-.562-.115,3.3c1.532,0,3.184.152,4.642.283l.031,0c1.532.137,3.116.281,4.606.281a11.853,11.853,0,0,0,5.221-.965c3.906-1.869,6.873-5.863,9.741-9.729l0,0c.461-.621.846-1.141,1.229-1.646a5.816,5.816,0,0,0,.6-3.352c0-1.27-.008-2.58.619-3.385,4.6-5.914,5.341-13.107,2.213-21.379a126.643,126.643,0,0,0-12.594-23.619c-2.046-3.152-6.127-5.168-9.728-6.947a4.953,4.953,0,0,0-2.1-.389c-1.452,0-3.267.43-3.926,1.248-1.776,2.2-3.1,3.092-4.566,3.092a6.3,6.3,0,0,1-3.768-1.678,5.506,5.506,0,0,0-2.931-.842,5.555,5.555,0,0,0-2.209.457,188.618,188.618,0,0,0-16.575,12.514c-.548.467-.315,1.869-.044,3.494.145.867.294,1.764.357,2.662-3.068,1.211-5.318,4.518-6.175,9.072a25.608,25.608,0,0,0-.172,7.752,37.022,37.022,0,0,0,2.363,9.115Zm-262.221-50.814c-5.585,1.063-9.109,1.773-11.109,2.93-2.015,1.166-2.557,2.8-2.9,5.588a338.444,338.444,0,0,0-2.981,34.166,233.558,233.558,0,0,0,1.122,24.594c.14,1.732.285,3.523.42,5.3a6.378,6.378,0,0,0,2.821,3.939.487.487,0,0,0,.294.074c.8,0,2.719-.918,2.9-1.639.366-1.432.242-3.984-.681-4.574-1.826-1.162-2.732-2.549-2.772-4.238a12.6,12.6,0,0,1,1.249-4.715,50.323,50.323,0,0,1,3.939-8.656,63.838,63.838,0,0,0,5.108-9.309,32.178,32.178,0,0,0,2.6-9.361c.728-6.785-1.331-13.123-6.292-19.379a11.543,11.543,0,0,1-1.939-3.471,5.444,5.444,0,0,1-.094-3.605c.649-1.791,2.463-3.006,5.392-3.615.6-.123,1.033-.891,1.638-1.953a22.6,22.6,0,0,1,1.289-2.072Zm414-.377a41.1,41.1,0,0,1-3.617,2.729l-.022.014c-2.792,1.949-5.679,3.965-5.951,6.264-1.29,10.1-1.4,20.5-1.5,30.557-.023,2.227-.049,4.746-.09,7.2-.038,2.365,1.687,4.045,3.208,5.525l.008.008a8.311,8.311,0,0,1,2.02,2.475c4.611,12.176,11.36,17.371,22.566,17.371a44.579,44.579,0,0,0,5.926-.43,99.463,99.463,0,0,1-12.228-5.562c-3.094-1.8-5.083-3.615-6.259-5.715a14.412,14.412,0,0,1-1.449-8.1,77.968,77.968,0,0,1,2.2-12.7c1.446-6.262.378-11.213-3.686-17.086a62.643,62.643,0,0,1-5.379-10.408l-.021-.047c-.687-1.561-1.4-3.172-2.15-4.725l2.2-1.734,4.744,3.146c.391-1.744.88-4.033,1.4-6.459l.037-.17.092-.43-2.047-1.721Zm-554.938,3.5c-5.981.48-9.055,1.307-10.96,2.941-2.13,1.828-2.766,4.752-3.1,8.875-.122,1.594-.3,3.191-.468,4.738a79.614,79.614,0,0,0-.631,8.619c-.067,8.605-.045,17.395-.023,25.895v.531c.011,4.244.022,8.631.022,12.982,1.327-2.326,2.662-4.672,3.84-6.74,3.731-6.553,7.255-12.744,10.926-19.074,4.28-7.43,3.981-14.752-.916-22.391a82.646,82.646,0,0,1-4.187-7.646l-.054-.107c-.419-.836-.814-1.625-1.185-2.328l6.737-6.295Zm301.677,54.738-2.908,1.414c.089.6.179,1.381.265,2.133v.012c.189,1.639.385,3.332.58,3.332.755,0,1.538.039,2.367.078h.025l.041,0c.893.041,1.817.082,2.711.082,1.784,0,4.015-.146,5.444-1.291a86.864,86.864,0,0,0,10.563-10.639l0,0c1.336-1.512,2.718-3.074,4.115-4.564l-.943-1.414-8.218,4.238-7.6-4.238c.082.258.164.512.245.766l.06.189c.969,3.014,1.885,5.861,1.566,8.52-.352,2.938-2.172,5.389-5.728,7.713Zm-19.359-21.83v0c2.406,3.287,3,7.422,3.573,11.422a37.962,37.962,0,0,0,1.641,7.676,12.624,12.624,0,0,0,4.67,6.219l6.622-15.9-8.2,3.939-.1-.541-.091-.5a26.838,26.838,0,0,0-2.09-7.41,9.506,9.506,0,0,0-2.273-2.924,10.178,10.178,0,0,0-3.747-1.984Zm-8.751-30.512c-4.328.371-7.626,1.988-9.8,4.809a14.683,14.683,0,0,0-2.743,6.9,30.978,30.978,0,0,0,.315,9.723,26.88,26.88,0,0,1,3.8.779,36.513,36.513,0,0,1,4.049,1.959l-.042,2.273-8.471.895a24.363,24.363,0,0,0-1.271,11.443,83.515,83.515,0,0,0,2.379,11.908c.363,1.457.775,3.107,1.138,4.7.836-1.314,1.657-2.646,2.45-3.934l.079-.127.007-.012c1.857-3.016,3.612-5.861,5.608-8.637,3.235-4.514,4.912-8.631,5.126-12.588.238-4.395-1.305-8.611-4.717-12.895a15.4,15.4,0,0,1-2.963-10.137c.188-1.84,1.783-3.51,3.326-5.125a24.988,24.988,0,0,0,1.731-1.939Zm-242.194,48.43-9.12.424c2.258,2.367,3.645,3.85,4.868,5.158l.032.035.507.541,5-4.758-1.285-1.4v0Zm-12.226-25.992h0a13.824,13.824,0,0,1,7.411,6.215,31.318,31.318,0,0,1,3.159,9.063,10.758,10.758,0,0,0,3.372,6.191,10.669,10.669,0,0,0,6.792,2.084q-1.282-2.669-2.458-5.158l-.083-.176c-1.84-3.881-3.578-7.549-5.434-11.133a20.923,20.923,0,0,0-7.008-8.045,16.52,16.52,0,0,0-9.2-2.75,18.714,18.714,0,0,0-3.8.4l5.508,2.262-7.146,0c.792.951,1.718,1.863,2.7,2.828l.036.035c2.268,2.232,4.614,4.541,5.44,7.5s.1,6.389-.612,9.7l0,.014c-.3,1.4-.612,2.855-.793,4.24,4.3-.1,7.529-1.588,9.082-4.2a7.816,7.816,0,0,0,1-4.568,14.921,14.921,0,0,0-1.771-5.816,75.446,75.446,0,0,0-6.2-8.682Zm435.826-18.732a62.422,62.422,0,0,0-7.245.545,92.362,92.362,0,0,1,8.628,4.365,62.482,62.482,0,0,1,5.627,4.268c.9.732,1.916,1.563,3.014,2.422-.373-4.773-1.08-7.4-2.44-9.068C-7252.551,17896.32-7254.819,17895.564-7258.685,17895.564Zm-38.381-2.1c-6.221,0-10.39.7-13.121,2.207-2.632,1.453-3.958,3.686-4.173,7.021l25.133-8.937C-7292.168,17893.559-7294.732,17893.463-7297.066,17893.463Zm-544.692-81.939a2.767,2.767,0,0,1,1.039.168c1.268.537,2.365,2.865,2.5,4.59a5.571,5.571,0,0,1-1.245,3.041l-.007.012c-.312.494-.634,1-.906,1.535,7.928-.074,9.64-1.449,9.64-7.754,6.53,5.215,10.842,7.342,14.882,7.342,2.885,0,5.793-1.115,9.432-3.615l-30.637-11.76a72.247,72.247,0,0,0,9.426-14.441,60.7,60.7,0,0,0,5.012-14.941,64.494,64.494,0,0,0,1.054-15.463,83.8,83.8,0,0,0-2.447-16.006c-2.472-9.959-3.576-10.9-14.771-12.553l.184,1.484.036.289c.433,3.49.842,6.789,1.267,10.113l1.905-.109c.223-1.121.454-2.26.677-3.357l.044-.217c.222-1.092.458-2.256.688-3.4l1.91.367a36.292,36.292,0,0,0-.485,3.727c-.235,2.459-.477,5-1.65,6.877-8.293,13.607-10.666,25.635-7.468,37.852l1.652-1.537a26.432,26.432,0,0,1,2.417,7.336,11.738,11.738,0,0,1-.492,5.924,11.794,11.794,0,0,1-3.543,4.865,26.958,26.958,0,0,1-6.683,4.018,20.583,20.583,0,0,0-6.58,5.545,5.521,5.521,0,0,0-.848,3.008v.012a15,15,0,0,1-.209,1.545c-2.382-3.514-3.94-6.229-5.315-8.623l-.02-.035c-1.1-1.91-2.048-3.562-3.136-5.109-4.841-6.863-6.171-14.508-4.068-23.371.2-.857.471-1.729.731-2.57a15.761,15.761,0,0,0,1.05-6.066,47.3,47.3,0,0,0-3.359-13.018,41.455,41.455,0,0,0-3.267-5.881l-.014-.023a37.1,37.1,0,0,1-3.524-6.523c-.607-1.613-.228-3.625.21-5.953v-.006c.212-1.127.432-2.291.575-3.559l4.5,4.152v-7.061c-4.337.053-7.706,1.354-10.012,3.871-2.034,2.219-3.21,5.324-3.5,9.23-.415,6.477-.766,12.324-.865,18.3a136.448,136.448,0,0,0,.778,18.213,29.847,29.847,0,0,0,1.932,7.648,38.307,38.307,0,0,0,3.551,6.787,101.925,101.925,0,0,0,9.786,12.123l.019.02c2.317,2.59,4.713,5.266,6.841,8.012.569.75,2.1.855,3.674.855.24,0,.477,0,.706-.006.079,0,.157,0,.233,0,.131,0,.26,0,.384,0a5.283,5.283,0,0,0,1.8-.516,4.48,4.48,0,0,1,1.508-.449.825.825,0,0,1,.408.092,8.759,8.759,0,0,0,4.075,1.332c2.1,0,3.567-1.545,4.608-4.861C-7845.439,17812.248-7843.269,17811.523-7841.758,17811.523Zm727.176,1.1-4.137,6.2c.547.18,1.227.451,1.827.689a11.721,11.721,0,0,0,2.871.924.347.347,0,0,0,.3-.1,12.815,12.815,0,0,0,1.809-4.289c.161-.559.344-1.193.547-1.781l-3.216-1.637Zm-311.447-13.639c-3.423,5.4-5.364,8.588-5.448,11.158a5.714,5.714,0,0,0,1.229,3.627,29.5,29.5,0,0,0,4.007,4.205c.711.619,2.264.973,4.261.973a17.858,17.858,0,0,0,4.423-.549c1.408-.375,2.334-.887,2.608-1.441,1.559-3.084,1.813-6.811,2.107-11.123.127-1.865.259-3.793.506-5.82l-8.034,3.83-5.66-4.859Zm288.4,5.039a7.874,7.874,0,0,1,6.842,3.666c1.574,2.209,2.931,5.525,4.538,11.09l.222-.416.3-.557c1.713-3.215,3.485-6.541,5.371-10.053a13.235,13.235,0,0,0,5.735,1.367c3.723,0,7.409-1.711,10.954-5.084l-39.535-5.969c-.148-.4-.3-.816-.466-1.258l-.113-.307-.07-.189c-.6-1.617-1.344-3.629-2.36-6.465,1.656-.859,3.358-1.779,5-2.67l.029-.016c3.94-2.135,8.016-4.342,12.263-6.168a35.251,35.251,0,0,0,8.382-4.953,23.717,23.717,0,0,0,5.6-6.5,23.11,23.11,0,0,0,2.776-8.09,33.529,33.529,0,0,0-.077-9.744c-1.277-9.273-8.416-18.086-15.912-19.645l6.2,8.955c-3.632,3.523-7.117,9.465-9.322,15.895a36.291,36.291,0,0,0-1.907,8.342c-.227,2.588.059,4.627.826,5.895a17.14,17.14,0,0,0-6.835,3.811,30.972,30.972,0,0,0-5.846,6.91,30.834,30.834,0,0,0-3.71,8.369,17.74,17.74,0,0,0-.426,8.188,20.086,20.086,0,0,1-6.846,1.287,16.906,16.906,0,0,1-5.75-1.006,22.772,22.772,0,0,1-5.119-2.652,67.731,67.731,0,0,1-9.132-7.986l-.023-.023q-.514-.507-1.029-1.012l-1.836,1.762,2.3,3.389.138.205c2.038,3.008,4.146,6.121,6.218,9.115a14.368,14.368,0,0,0-5.719,4.141,12.071,12.071,0,0,0-2.541,7.51c2.007-.955,4.01-2,5.619-2.836l.026-.016a67.032,67.032,0,0,1,11.933-5.271,16.975,16.975,0,0,1,4.812-.615c1.583,0,3.151.145,4.811.295l.022,0,.064.006c1.559.146,3.326.309,5.078.309a21.341,21.341,0,0,0,4.981-.539A15.023,15.023,0,0,1-7137.627,17804.023Zm-163.219-70.047c-4.542.729-7.507,2.6-9.066,5.725-1.519,3.045-1.559,7.021-1.4,10.512a44.037,44.037,0,0,1-.4,7.053c-.159,1.441-.323,2.928-.394,4.387-.08,1.713-.178,3.455-.273,5.141l0,.088a163.519,163.519,0,0,0-.371,16.725c.1,2.176,1.358,4.344,2.57,6.441l.038.066c.43.746.875,1.518,1.248,2.264.638,1.279,1.252,2.609,1.846,3.9l.029.063a55.288,55.288,0,0,0,5.579,10.158,67.61,67.61,0,0,0,11.973,11.535,4.417,4.417,0,0,0,2.719.605c.4,0,.862-.008,1.486-.029.483-.018,1.058-.037,1.661-.037.5,0,.98.014,1.459.039-1.366-1.48-2.562-2.838-3.617-4.037l-.021-.025-.009-.01a63.379,63.379,0,0,0-5.643-5.92,24.543,24.543,0,0,1-7.82-12.049,25.28,25.28,0,0,1,.449-13.965c2.013-6.766,2.719-12.266,2.22-17.3a29.18,29.18,0,0,0-6.835-15.986l-.1-.129c-1.509-1.881-3.575-4.457-2.962-6.908.371-1.482,1.717-2.729,4-3.707.7-.3.974-1.627,1.234-2.912l0-.02a14.85,14.85,0,0,1,.4-1.656v0Zm284.183,26.967h0c-.743,2.84-1.577,5.717-2.384,8.5l-.017.057,0,.018a149.574,149.574,0,0,0-4.657,19.174,17.7,17.7,0,0,0,.148,6.545,11.9,11.9,0,0,0,2.432,5c2.651,3.184,7.086,4.975,12.825,5.176a66.484,66.484,0,0,1,13.468,1.525,13.649,13.649,0,0,1,4.879,2.941c.618.5,1.258,1.014,1.9,1.451l-8.655,5.113.875,1.605a23.992,23.992,0,0,0,5.862-1.125c.262-.125.543-.256.835-.389,2.4-1.109,5.391-2.49,5.616-4.076a9.962,9.962,0,0,0-.769-4.336,9.911,9.911,0,0,0-2.577-3.57,35.835,35.835,0,0,0-8.839-4.2l-.008,0c-1.06-.393-2.262-.836-3.452-1.32-4.7-1.912-7.8-4.141-8.725-9.332-1.2-6.723-2.821-13.486-4.393-20.029v-.008c-.617-2.568-1.317-5.48-1.96-8.285Zm-553.443,36.738c-.509,2.121-1.2,4.121-1.863,6.055l0,.006c-1.292,3.756-2.408,7-1.3,8.949a9.7,9.7,0,0,0,4.689,4.072,15.941,15.941,0,0,0,6.359,1.24,18.075,18.075,0,0,0,4.583-.584c1.26-.346,1.572-4.027,1.934-8.287l0-.023c.174-2.057.355-4.182.66-6.076l-8.867,3.549-6.2-8.9Zm-161.792,5.117h0a57.648,57.648,0,0,0-4.509,7.178c-.9,1.846-1.129,3.162-.731,4.143.689,1.7,3.333,2.516,7.666,3.355a21.141,21.141,0,0,0,4.118.451c2.727,0,4.661-.754,5.748-2.244,1.372-1.881,1.4-4.91.091-9-.567-1.738-.986-3.57-1.391-5.342-.18-.787-.384-1.68-.6-2.551a26.344,26.344,0,0,1-2.367,5.4,3.051,3.051,0,0,1-2.51,1.725c-1.424,0-3.233-1.246-5.512-3.115Zm456.572-12.391a12.162,12.162,0,0,0-3.369.527,36.886,36.886,0,0,0,1.621,3.346c1.329,2.529,2.7,5.145,2.263,7.371-.526,2.633-2.589,5-4.773,7.5-1,1.141-2.026,2.318-2.98,3.6a28.514,28.514,0,0,0,3.032.168,19.653,19.653,0,0,0,7.242-1.277,18.9,18.9,0,0,0,5.544-3.381c3.259-2.807,5.824-6.637,8.3-10.34a65.4,65.4,0,0,1,6.676-8.85c-.587-.057-1.177-.084-1.754-.084a12,12,0,0,0-4.9.932,9.974,9.974,0,0,0-3.383,2.459c-1.86,2.033-3.058,4.773-4.216,7.424l-.014.033c-.507,1.156-1.031,2.354-1.6,3.469a23.692,23.692,0,0,0-.6-6.686,9.459,9.459,0,0,0-2.208-4.266A6.52,6.52,0,0,0-7275.326,17790.408Zm415.14-59.41a4.736,4.736,0,0,0-3.288,1.318,12.858,12.858,0,0,0-2.634,3.752c-.1.186-.516.2-.961.215h-.007l-.008,0a3.91,3.91,0,0,0-.975.109,36.347,36.347,0,0,0-10.726,5.18,30.772,30.772,0,0,0-8.237,9.049,37.063,37.063,0,0,0-4.5,11.559,47.521,47.521,0,0,0-.937,13.166c.625,9.5,3.919,18.135,9.275,24.313a37.035,37.035,0,0,1,2-16.666,69.357,69.357,0,0,1,7.5-14.395c3.822-5.887,4.6-11.793,2.3-17.555-1.223-3.068-1.42-5.338-.619-7.146.855-1.928,2.827-3.381,6.394-4.709a24.815,24.815,0,0,0,4.238-2.67,63.245,63.245,0,0,0,6.15,3.73c7.112,3.959,14.466,8.053,13.967,19.088l-4.688,1.057,4.7,7.811c.857-1.227,1.8-2.328,2.7-3.395l.02-.023c1.819-2.135,3.39-3.979,3.562-5.947a20.734,20.734,0,0,0-.907-8.785,18.74,18.74,0,0,0-3.937-6.549c-3.417-3.787-8.09-6.529-13.038-9.432l-.006,0-.121-.07c-.651-.381-1.325-.775-1.984-1.168A10.776,10.776,0,0,0-6860.186,17731Zm-723.6,7.314v0c.881.6,1.8,1.2,2.828,1.871l.041.025c2.707,1.775,5.506,3.609,8.156,5.74a5.271,5.271,0,0,1,1.256,4.629c-2.282,6.918.084,12.877,2.982,18.287,2.574,4.814,5.1,9.514,7.893,14.719,2.36,4.395,4.906,9.139,7.541,14.059-.18-2.186-.533-4.328-.874-6.4v-.008c-.7-4.26-1.364-8.283-.354-11.811,2.9-10.254,2.235-19.529-1.927-26.822a27.1,27.1,0,0,0-7.848-8.613,36.487,36.487,0,0,0-12-5.453,11.837,11.837,0,0,1-3.164-1.605l-.012-.006a11.824,11.824,0,0,0-3.151-1.6,19.24,19.24,0,0,0-4.58-.75,4.252,4.252,0,0,0-2.479.611,63.243,63.243,0,0,0-8.68,7.748l-.022.021-.075.076c-.791.8-1.607,1.623-2.419,2.416a24.179,24.179,0,0,0-6.432,10.344,24.157,24.157,0,0,0-.558,12.162,15.7,15.7,0,0,0,1.922,5.162,18.007,18.007,0,0,0,3.422,4.238,13.713,13.713,0,0,0,8.88,3.926,8.223,8.223,0,0,0,2.253-.307c2.386-.693,4.716-1.594,6.772-2.387l.026-.012c.824-.318,1.676-.648,2.464-.934-1.269-.352-2.635-.6-4.081-.861l-.01,0c-3.361-.613-6.837-1.248-9.349-3.187a10.54,10.54,0,0,1-3.223-4.354,16.8,16.8,0,0,1-1.218-5.777,21.749,21.749,0,0,1,1.179-8.016,15.76,15.76,0,0,1,4.006-6.436c2.706-2.521,5.31-5.148,7.829-7.687l.328-.332c.923-.93,1.8-1.809,2.674-2.682Zm-149.258,19.723h0a28.09,28.09,0,0,0-2.226,11.523,78.633,78.633,0,0,0,1.157,11.418c.8,5.322,1.635,10.826.789,16.213,1.441-2.352,2.687-4.658,3.891-6.889l.053-.1c.962-1.779,1.87-3.459,2.862-5.143.88-1.484,1.928-2.949,2.942-4.367l.017-.023.009-.014a32.916,32.916,0,0,0,4.808-8.3,69.147,69.147,0,0,0,2.506-8.977,17.117,17.117,0,0,0-.173-8.561c-1-2.945-1.051-5.1-.16-6.773.853-1.605,2.534-2.742,4.481-3.957,1.591-.988,3.157-2.066,4.343-2.895-.494-.279-1.023-.635-1.489-.949a7.035,7.035,0,0,0-3.056-1.488,1.212,1.212,0,0,0-.391.063,31.13,31.13,0,0,0-10.961,6.277,31.08,31.08,0,0,0-7.579,10.105l7.059,2.316-2.2,2.818-6.682-2.3Zm45.182,30.572-5.549,6.82a24.988,24.988,0,0,1,2.524.5,12.479,12.479,0,0,0,2.6.436,2.09,2.09,0,0,0,1.192-.3c1.213-.824,1.83-3.539,1.551-5.324-.2-1.221-2.293-2.123-2.314-2.129Zm-30.061-10.492h0c15.125,4.984,15.125,4.984,13.413,16.023,3.609-.523,5.609-1.35,6.9-2.848s1.886-3.686,2.053-7.543a25.8,25.8,0,0,0,9.886,2.193,18.341,18.341,0,0,0,6.423-1.141,20.957,20.957,0,0,0,6.081-3.592l-37.06-6.893-.382,1.992,6.267,1.8Zm170.985-.4v0l5.931,13.412a4.936,4.936,0,0,0,3.974-2.863,17.1,17.1,0,0,0,1.146-5.119l.016-.125c.015-.121.03-.244.045-.363a10.954,10.954,0,0,0,6.325,2.2c3.386,0,6.477-1.9,9.054-3.756-1.64-.359-3.2-.711-4.713-1.051-3.979-.9-7.736-1.744-11.512-2.426-.773-.061-1.562-.092-2.345-.092a28.871,28.871,0,0,0-3.453.207l-.032-.025h-4.436Zm114.472-39.8a7.535,7.535,0,0,0-.866.049c-.712.1-1.357.648-2.426,1.559l-.009.006c-.654.559-1.468,1.254-2.548,2.055,4.7.373,7.652,1.547,9.021,3.586,1.585,2.361,1.012,5.658-.337,9.883a15.567,15.567,0,0,0,.874,10.592c2.884,5.943,6.189,11.6,9.688,17.584,1.476,2.527,3,5.137,4.53,7.83.312-2.15.67-4.123,1.016-6.031v-.008a55.515,55.515,0,0,0,1.269-10.664,170.46,170.46,0,0,0-2.015-23.16c-.4-2.639-3.028-5.924-7.031-8.785C-7425.177,17739.645-7429.456,17737.922-7432.466,17737.922Zm25.188,40.08c.633,1.471,1.283,2.979,1.987,4.609l.038.088c1.122,2.6,2.181,5.053,3.308,7.7a5.471,5.471,0,0,0,3.989-3.133,10.685,10.685,0,0,0,.511-5.389,26.921,26.921,0,0,0,4.808,3.594,8.462,8.462,0,0,0,4.091,1.193c2.29,0,4.583-1.176,7.671-3.932l-26.6-8.865-.456,1.494,5.651,2.7-5-.057Zm402.989-13.531a9.435,9.435,0,0,0-5.724,1.9c1.608.6,3.25,1.078,4.7,1.5l.013.006c3.238.951,6.3,1.85,8.375,3.688,2.106,1.861,3.287,4.709,4.536,7.727.545,1.316,1.11,2.68,1.763,3.965,2.492-1.543,3.9-3.293,4.185-5.2.29-1.947-.587-4.1-2.606-6.395a19.854,19.854,0,0,0,7.634,2.037c3.239,0,5.58-1.689,7.827-5.648l-21.742-1.635-.055-.045c-.973-.213-1.981-.5-2.87-.754A22.228,22.228,0,0,0-7004.29,17764.471Zm-161.857-2.83a21.171,21.171,0,0,0,5.551,10c2.972,3.016,6.486,4.721,9.9,4.8h.087c3.011,0,6.363-3.189,9.057-5.752.137-.131.271-.256.4-.383l.236-.223c.979-.9.523-3.729.222-5.6l-.023-.146c-.461-2.879-1.429-4.906-2.959-6.2a8.311,8.311,0,0,0-5.575-1.709,27.89,27.89,0,0,0-6.176.848c2.091,1.273,3.232,2.512,3.487,3.783.308,1.541-.725,2.961-1.724,4.334l0,.006c-1.071,1.473-2.178,3-1.677,4.7l-1.891,1.113Zm-120.1-3.7-.124,1.068,6.479.951-8.472,1.211c4.584.844,7.421,2.309,8.67,4.48,1.058,1.842,1.031,4.242-.084,7.338l1.836.609,7.174-9.053a16.619,16.619,0,0,0,6.782,1.686,9.764,9.764,0,0,0,4.81-1.219,12.513,12.513,0,0,0,3.938-3.629l-31.009-3.443Zm-152.543-24.428c-.674.154-1.377.266-2.161.381a12.108,12.108,0,0,0-4.548,1.3,32.023,32.023,0,0,0-4.344,3.428l-.018.016a30.873,30.873,0,0,1-4.477,3.514c-6.288,3.811-9.849,7.93-10.887,12.594-1.023,4.6.4,9.715,4.353,15.646a21.277,21.277,0,0,1,.553-2.178c.417-1.432.777-2.67.307-3.326a6.893,6.893,0,0,1-1.2-6.422,13.81,13.81,0,0,1,3.489-4.99c4.357-4.4,9.079-8.52,13.646-12.5,1.76-1.535,3.755-3.273,5.686-5l-.4-2.467Zm-265.947,7.316c4.971,0,8.849,2.656,12.6,5.225,1.361.934,2.9,1.99,4.422,2.832a10.848,10.848,0,0,0-1.57,7.4,24.7,24.7,0,0,0,2.317,6.547l0,.008a34.667,34.667,0,0,1,1.844,4.527c8.166-8.855,8.681-13.033,2.5-20.32-2.216-2.627-5.286-4.6-8.256-6.514l-.032-.021c-.975-.627-1.982-1.275-2.94-1.936a20.256,20.256,0,0,0-5.282-2.6l-.406-.129-.333-.105a17.9,17.9,0,0,0-4.734-1.086,2.462,2.462,0,0,0-1.19.246c-.933.52-1.139,2.355-1.338,4.131v.014c-.078.689-.158,1.4-.28,2.025A14.869,14.869,0,0,1-7704.741,17740.83Zm687.116,2.748v0c.853,4.748,1.311,7.334,1.748,9.881l1.767.66c.493-1.459,1.185-2.98,1.854-4.453,1.524-3.355,3.1-6.824,2.38-9.662a7.077,7.077,0,0,0-2.56-4.057,7.633,7.633,0,0,0-4.66-1.461,12.473,12.473,0,0,0-5.485,1.395c-5.525,2.705-4.594,6.551-3.772,9.943.431,1.781.838,3.461.243,4.768l8.484-7.014Zm-690.12-2.385c.1.057.192.105.285.152l-.172-.211.173.17c.016-.068.029-.139.042-.207v-.008l0-.012-.065.014-.118.02-.046.01c-.02.012-.04.027-.059.041l-.029.02Zm693.539,339.783v0a18.474,18.474,0,0,1-2.678-5.244c1.189,1.027,2.432,2.057,3.7,3.059-.157.334-.313.672-.463,1l-.075.162c-.154.334-.312.676-.478,1.027Zm275.661-325.656v0a18.458,18.458,0,0,0-.745-2.744c-.872-2.465-.957-4.334-.259-5.715.924-1.826,3.029-2.588,5.684-3.391a11.181,11.181,0,0,1,3.252-.439,24.361,24.361,0,0,1,10.151,2.637c-6.2,3.277-12.118,6.436-18.083,9.652Z" transform="translate(7909.999 -17691.002)"/></svg>