<svg xmlns="http://www.w3.org/2000/svg" width="890" height="594.004" viewBox="0 0 890 594.004">
  <g id="Footer_Base" data-name="Footer Base" transform="translate(0 -432.002)">
    <path id="Opacity_Base" data-name="Opacity Base" d="M0-.1,890-.658S408.222,291.6,672.378,393.021,781.226,593.342,781.226,593.342H0Z" transform="translate(0 432.662)" fill="#ededed"/>
    <path id="Subtraction_9" data-name="Subtraction 9" d="M14209.227,18155H13428v-593.441l890-.562c-.093.059-11.434,6.955-29.045,18.537-16.356,10.76-41.765,27.965-69.925,48.836-31.65,23.461-60.245,46.668-84.987,68.979-30.933,27.893-55.908,54.459-74.232,78.965-1-1.814-1.851-3.754-2.677-5.631l-.007-.016c-.537-1.219-1.093-2.477-1.68-3.687l1.709-1.344,3.686,2.443c.289-1.3.649-2.992,1-4.631l.182-.852-1.586-1.334a31.082,31.082,0,0,1-2.786,2.1l-.034.023-.013.01c-2.162,1.512-4.4,3.074-4.607,4.855a171.376,171.376,0,0,0-1.115,19.137c-20.182,29.531-30.492,56.314-30.645,79.6a74.57,74.57,0,0,0,2.121,18.373,70.626,70.626,0,0,0,6.9,17.424,82.046,82.046,0,0,0,12.1,16.3,112.618,112.618,0,0,0,17.738,15.012c-1.026,1.934-1.758,3.348-2.608,5-.266-.943-.489-1.734-.687-2.432l-.021-.072c-.217-.764-.422-1.484-.627-2.221a26.25,26.25,0,0,0-4.327,4.389,7.128,7.128,0,0,0-1.582,3.625,3.126,3.126,0,0,0,.893,2.42,9.39,9.39,0,0,0,6.639,2.582,6.774,6.774,0,0,0,5.74-2.582c2.112-3.027.579-5.8-1.2-9.016l-.161-.293a166.633,166.633,0,0,0,17.368,10.025c6.4,3.217,13.415,6.3,20.854,9.152,14.045,5.393,27.31,10.941,39.424,16.49,11.671,5.342,22.623,10.844,32.551,16.35,9.527,5.285,18.353,10.709,26.23,16.121a219.134,219.134,0,0,1,20.465,15.8,148.378,148.378,0,0,1,15.249,15.383,103.093,103.093,0,0,1,10.588,14.875,76.705,76.705,0,0,1,6.479,14.275,61.89,61.89,0,0,1-2.175,45.014,93.721,93.721,0,0,1-15.7,24.475,130.649,130.649,0,0,1-16.568,15.883c-4.167,3.346-7.124,5.293-7.675,5.65l-.013.008Zm-434.552-85.93a.737.737,0,0,0-.093,0c-.64.029-1.74,1.111-2.171,1.828-.15.25-.206.432-.162.525.524,1.123,1.753,2.758,2.839,2.869h.024l.025,0c.021,0,.036,0,.051,0,.661,0,1.355-.654,2.317-1.557l.025-.025c.527-.49,1.124-1.049,1.83-1.605-.73-.34-1.349-.67-1.969-1.008A6.3,6.3,0,0,0,13774.675,18069.072Zm-17.274-7.746c.334,0,.643.006.943.02,2.636.67,4.3,1.957,5.1,3.938.656,1.631.738,3.762.259,6.711a8.406,8.406,0,0,0,1.229.1,4.78,4.78,0,0,0,3.895-1.705,11.407,11.407,0,0,0,1.879-3.986,20.549,20.549,0,0,0,6.113,1.09,8.769,8.769,0,0,0,8.353-5l-28.217-5.006c.17-1.418.236-2.885.3-4.3v-.016c.144-3.174.279-6.17,1.462-8.752a27.411,27.411,0,0,0,2.366-10.783,76.4,76.4,0,0,0-.692-10.734l0-.025c-.265-2.354-.538-4.787-.65-7.176-.527-10.471-5.088-15.893-13.555-16.109l1.75,5.475,3.686-1.1c2.076,4.947-.326,8.451-2.649,11.84l-.062.092c-.143.207-.283.414-.423.619a14.17,14.17,0,0,0-2.674,7.508,19.273,19.273,0,0,0,1.576,7.928,96.7,96.7,0,0,1,5.185,20.23c.211,1.414.346,4.041-1.126,5.75a4.778,4.778,0,0,1-3.814,1.516,10.557,10.557,0,0,1-1.943-.2c.754,2.734,1.9,4.064,3.51,4.064a7.777,7.777,0,0,0,3.748-1.5A20.907,20.907,0,0,1,13757.4,18061.326Zm102.95,7.26,2.141,3.477c1.129-.76,2.149-1.508,2.969-2.109l.019-.014a27.29,27.29,0,0,1,4.526-2.906c4.466-2.156,7.2-4.857,8.124-8.029.907-3.115.092-6.754-2.424-10.816-1.255-2.018-2.639-4.01-3.977-5.937l-.034-.049a82.743,82.743,0,0,1-6.487-10.4c-.691-1.406-1.271-2.906-1.831-4.359l0-.008,0-.012a28,28,0,0,0-3.741-7.43,11.413,11.413,0,0,0-3.144-2.766,13.525,13.525,0,0,0-4.677-1.641v-1.777l12.12-8.932c1.211.99,2.357,1.855,3.37,2.621l0,0a28.663,28.663,0,0,1,5.113,4.475,20.192,20.192,0,0,1,3.8,7.938c.265,1.15-.316,2.518-.879,3.84-.25.588-.508,1.2-.688,1.777,3.591-2.76,5.567-5.613,5.874-8.482a8.7,8.7,0,0,0-2.38-6.6,38.428,38.428,0,0,0-7.718-6.414l-.011-.008c-.884-.611-1.886-1.307-2.833-2.008a3.269,3.269,0,0,0-1.26-.246,3.319,3.319,0,0,0-1.26.244c-.785.287-1.6.553-2.4.811l-.117.039a25.407,25.407,0,0,0-6.836,2.967c-3.668,2.611-7.431,5.467-9.618,9.141-1.744,2.891-1.893,6.652-.417,10.59a20.138,20.138,0,0,0,12.108,11.838,17.3,17.3,0,0,1,6.924,4.236,42.533,42.533,0,0,1,4.776,5.955c.372.525.793,1.121,1.217,1.7,1.928,2.643,2.668,5.234,2.2,7.705a8.761,8.761,0,0,1-1.8,3.8,15,15,0,0,1-3.783,3.3c-1.794,1.127-3.613,2.309-5.218,3.352l-1.021.662Zm219.228-1.717c1.563,2.6,2.43,3.754,3.43,3.754.741,0,1.56-.629,2.9-1.869a52.3,52.3,0,0,0,11.91-15.605c3.149-6.354,5.123-15.326-3.362-21.992a11.764,11.764,0,0,1-2.593-3.115,5.545,5.545,0,0,1-.948-3.461,32.184,32.184,0,0,0,.552-8.172,13.292,13.292,0,0,0-1.836-6.023c-2.049-3.311-5.879-5.514-12.052-6.93a6.646,6.646,0,0,0-1.516-.2,1.9,1.9,0,0,0-1.85.826c-.33.652-.082,1.621.682,2.658l.112.023c2.473.543,5.276,1.154,6.353,2.824a14.357,14.357,0,0,1,2.418,8.992,24.7,24.7,0,0,1-2.613,9.078l-.077-.045a10.071,10.071,0,0,0,.956.59l.006,0c.715.4,1.454.822,1.517,1.316a34.746,34.746,0,0,1,.134,4.648v.016a27.358,27.358,0,0,0,.342,5.959,12,12,0,0,0,2.974,5.811c5.344,5.875,4.923,11.488-1.326,17.664a36.5,36.5,0,0,0-3.408,4.584l-1.216-.605Zm-461.592-44.248h0a23.35,23.35,0,0,0-2.509,9.621,22.086,22.086,0,0,0,1.046,9.039,4.238,4.238,0,0,0,2.306,2.717,12.434,12.434,0,0,0-.541,5.209,11.6,11.6,0,0,0,1.46,4.342c1.51,2.7,3.951,5.023,6.312,7.271a36.558,36.558,0,0,1,4.912,5.766c1.146,1.664,7.115,3.088,11.2,3.088,1.842,0,3.1-.285,3.646-.824a8.762,8.762,0,0,0,1.021-1.781c.354-.574.683-1.2,1-1.8l.011-.02a13.278,13.278,0,0,1,2.453-3.656,26.793,26.793,0,0,0,6.114-7.705,14.378,14.378,0,0,0,1.217-9.4c.277.027.595.074.87.117l.05.006a7.752,7.752,0,0,0,.921.105c.125,0,.191-.02.205-.055,2.951-7.441,3.415-14,1.417-20.039l-5.217,0v-1.223l4.656-1.357c.571-6.7-.266-11.027-2.636-13.607-2.032-2.213-5.228-3.242-10.056-3.242h-.3l3.636,7.23.879-4.615,2.082.438c-.224.9-.371,1.873-.514,2.814-.312,2.07-.636,4.209-1.787,5.646a19,19,0,0,0-4.448,9.865,21.824,21.824,0,0,0,1.884,10.779c1.953,4.766,2.654,8.814,2.145,12.381a14.079,14.079,0,0,1-2.12,5.691,18.3,18.3,0,0,1-5.078,5.051,6.946,6.946,0,0,0-2.011,3.293l0,.012a15.662,15.662,0,0,1-.669,1.549l-5.239-.266c-.239-.4-.463-.893-.661-1.324l0-.008a7.123,7.123,0,0,0-1.919-2.873,21.146,21.146,0,0,1-5.406-5.488,14.886,14.886,0,0,1-2.28-6.064c-.547-3.893.351-8.334,2.743-13.574a16,16,0,0,0,1.337-10.225,21.307,21.307,0,0,0-4.909-9.25,16.611,16.611,0,0,1-2.616-5.645l0-.01c-.3-.928-.608-1.889-.975-2.779l1.6-.639c.325.605.648,1.223,1.023,1.939l.185.352c.284.543.6,1.154.983,1.875.355-1.82.63-3.254.895-4.641l.041-.213c.147-.771.3-1.547.459-2.393-8.666,2.107-9.874,3.547-9.942,11.838,0,.316-.017.643-.03.957l0,.055c-.063,1.49-.129,3.031.766,4a4.136,4.136,0,0,0,3.017,1.049c.35.006.67,1.1.979,2.16.132.451.295,1.012.456,1.432l-1.851.521-2.191-3.488Zm220.331,28.746a6.46,6.46,0,0,0-3.605,1.189l8.174,9,.1.111.009.008a32.862,32.862,0,0,0,5.036,4.832,11.079,11.079,0,0,0,6.6,2.2c.138,0,.269,0,.405-.008l5.107-.191a19.179,19.179,0,0,0-2.916-2.908c-2.021-1.3-3.17-2.764-3.412-4.344a6.045,6.045,0,0,1,1.727-4.729,27.565,27.565,0,0,1,2.442-2.324l-.528-1.607a24.255,24.255,0,0,1-2.424.209c-1.841.1-3.745.2-4.206,1.057-.867,1.668-.917,3.82-.965,5.9v.037c-.021.869-.041,1.77-.123,2.623C13845.873,18055.086,13842.031,18051.367,13838.317,18051.367Zm112.79-.191c-.537,1.053-1.158,2.1-1.759,3.119a24.808,24.808,0,0,0-3.249,7.064,3.2,3.2,0,0,0,.22,2.545c.574.813,1.737.963,2.968,1.121,1.921.246,3.907.5,3.943,3.291,1-.746,2.062-1.393,3.084-2.018l.044-.027c2.158-1.318,4.021-2.457,4.413-3.941.443-1.748-.514-3.834-1.527-6.043l-.006-.012c-.422-.924-.858-1.877-1.187-2.807l-3.636,2.705-1.686-4.383-1.622-.615Zm223.782,2.229c-1,.4-2.049.7-3.059.994l-.009,0c-2.138.621-4.153,1.207-5.184,2.529a13.514,13.514,0,0,0-2.574,9.125c.164,1.375,1.714,2.164,4.251,2.164a23.414,23.414,0,0,0,10.376-2.961C14177.2,18060.613,14176.059,18057.068,14174.89,18053.4Zm-117.639-1.748a10.373,10.373,0,0,0-4.949,1.492c.752.8,1.539,1.605,2.3,2.389l.151.156.02.02c1.788,1.84,3.638,3.74,5.33,5.742a16.675,16.675,0,0,0,13.045,6.3,16.589,16.589,0,0,0,2.451-.182c.368-.043.677-.68.976-1.295l.014-.027a8.053,8.053,0,0,1,.414-.783c-1.808-1.855-3.637-3.855-4.391-6.1-.829-2.467-.26-4.973,1.739-7.66-4.507.512-6.553.932-7.556,2.2-.932,1.176-.891,3.063-.445,6.844-.273-.453-.565-.9-.848-1.336l-.006-.008a24.621,24.621,0,0,1-1.579-2.67C14062.3,18053.363,14060.057,18051.656,14057.251,18051.656Zm-528.127,2.539c-.018.031-.192.432-.35.816-1.765,4.4-2.627,7.48-1.471,9.213s4.284,2.111,9.294,2.172l.2,0c1.86,0,3.042-.352,3.719-1.1s.867-1.879.664-3.8c-.241-2.09-.618-4.18-.982-6.2-.134-.74-.271-1.508-.4-2.268l.168.039-.214-.332a7.635,7.635,0,0,1,.521-.592c.425-.451.864-.918.864-1.4a57.851,57.851,0,0,0,.141-9.914c-.2-1.736-.373-3.506-.544-5.217v-.01c-.618-6.2-1.257-12.6-2.973-18.607a13.257,13.257,0,0,0-4.076-6.937,10.264,10.264,0,0,0-6.76-2.148,23.5,23.5,0,0,0-5.6.766,9.369,9.369,0,0,1-1.465.115,9.222,9.222,0,0,1-3.183-.562,17.106,17.106,0,0,0-4.905-.756,13.463,13.463,0,0,0-4.552.768,12.978,12.978,0,0,0-3.889,2.221,17.457,17.457,0,0,0-5.28,8.289c-2.915,9.182-2.088,18.16-1.212,27.666v.006c.142,1.545.289,3.143.418,4.732,1.089-1.531,2.149-3.01,3.143-4.393l.078-.109c2.308-3.215,4.487-6.252,6.589-9.35,1.792-2.625,3.706-5.748,4.324-9.027a12.52,12.52,0,0,0-2.47-9.908c-.893-1.209.075-3.877.853-6.02.084-.23.165-.455.241-.67.212-.6,1.105-.961,1.97-1.311l.039-.018c.375-.154.763-.314,1.09-.49l.692,1.1c-.166.2-.332.4-.5.605l-.217.264c-.121.146-.242.295-.363.443l-.193.236a5.948,5.948,0,0,1,4.254-2.01c1.94,0,3.8,1.061,5.772,2.182l.009.006.17.1c1.873,1.068,3.994,2.281,6.274,2.281a6.225,6.225,0,0,0,1.208-.119,66.03,66.03,0,0,0-3.289,7.479,17.833,17.833,0,0,1-1.147,2.717,10.586,10.586,0,0,0-1.392,4.258c-.043,1.67.748,3.291,2.42,4.959,3.712,3.693,6.593,8.334,9.378,12.822l.006.01.038.061c1.13,1.82,2.3,3.7,3.509,5.5l-.006.006,0,0a.1.1,0,0,0-.013.018l.036.051c.007.035.013.068.019.1l0,.021c0,.027.01.055.015.08a15.725,15.725,0,0,0-3.7-.439c-.105,0-.215,0-.322,0a56.511,56.511,0,0,0-6.8,1.957C13529.087,18054.289,13529.12,18054.211,13529.124,18054.2Zm-30.759-3.082-2.355,13.3,13.272,1.488c-.141-2.977-.292-6.076-.438-9.074-.091-1.852-.186-3.789-.286-5.859l-4.383,5.012-5.81-4.865Zm675.2-45.51a7.339,7.339,0,0,0-5.3,2.471,8.855,8.855,0,0,0-1.754,4.828c-.731,7.324-1.081,14.809-1.42,22.047l-.047,1-.056,1.189c-.135,2.709-.11,5.477-.087,8.15v.172c.009.99.018,2.014.018,3.018v5.1c1.134-1.914,2.2-3.787,3.146-5.439l.01-.018c2.029-3.553,3.947-6.908,6.094-10.07,2.651-3.873,4-7.113,4.228-10.2.271-3.6-1-7-3.877-10.422l-.314-.373c-1.275-1.5-2.862-3.375-2.532-5.311.2-1.176,1.118-2.25,2.728-3.193.142-.08-.148-.924-.456-1.818l0-.012,0-.014C14173.8,18006.332,14173.664,18005.936,14173.564,18005.6Zm-109.3,39.49h0c-.233.336-.512.682-.758.986a5.312,5.312,0,0,0-1.434,2.576c-.051.6.533,1.25,1.34,2.152l0,0c.406.451.913,1.016,1.417,1.68.418-.764.858-1.439,1.212-1.982l0-.006c.713-1.1,1.276-1.963,1.178-2.645-.111-.748-1.033-1.387-1.925-2l-.006,0c-.354-.246-.72-.5-1.031-.758Zm-92.876-39.59a12.83,12.83,0,0,0-4.921,1.184c-5.882,2.457-10.17,5.439-13.109,9.113-3.278,4.1-4.924,9.07-5.029,15.205-.06,3.635.2,7.316.46,10.875l0,.031v.014c.114,1.586.231,3.225.316,4.813q.841-1.321,1.713-2.717c1.293-2.062,2.759-4.4,4.283-6.66.807-1.205,1.68-2.4,2.523-3.549l.051-.07.011-.016a60.785,60.785,0,0,0,4.272-6.385,18.6,18.6,0,0,0,2.184-5.068,7.984,7.984,0,0,0-.912-5.748,3.711,3.711,0,0,1,.185-2.762,8.564,8.564,0,0,1,1.646-2.848,11.172,11.172,0,0,1,4.058-2.268c.7-.279,1.427-.566,2.135-.908,1.024.875,2.1,1.729,3.133,2.553l.073.059a46.891,46.891,0,0,1,7.068,6.438c1.609,1.932,2.668,6.982,2.489,7.746a.128.128,0,0,1-.052.092,3.716,3.716,0,0,0-2.148,1.822,3.569,3.569,0,0,0,.55,2.691,6.056,6.056,0,0,1,.72,2.184,22.022,22.022,0,0,0,4.221-6.936,11.721,11.721,0,0,0,.51-6.375c-.893-4.18-4.378-7.809-10.08-10.492l-.138-.066C13975.217,18006.322,13973.491,18005.5,13971.392,18005.5Zm-255.927,19.635a12.213,12.213,0,0,0-4.056.713,53.963,53.963,0,0,1,5.308,4.912,16.937,16.937,0,0,1,1.755,2.742l.012.021a12.911,12.911,0,0,0,2.307,3.314,72.222,72.222,0,0,0,10.279,7.828,1.718,1.718,0,0,0,.938.23,9.139,9.139,0,0,0,2.035-.361,13.72,13.72,0,0,1,1.5-.32h3.422c-4.323-3.33-6.445-5.352-6.813-7.832s1.026-5.355,4.094-10.48l-7.067-.512c-.848,4.314-1.507,7.658-2.137,10.838a27.412,27.412,0,0,1-2.014-4.166A9.675,9.675,0,0,0,13715.465,18025.139Zm-170.11,6.766c.329,1.479.645,2.885.951,4.256l.067.3c.434,1.936.882,3.938,1.337,5.992l.127,0c.117,0,.228.008.338.008a4.367,4.367,0,0,0,3.558-1.316c.9-1.1,1.081-2.885.557-5.455,2.812,3.971,4.661,5.59,6.386,5.59,1.331,0,2.634-.941,4.354-3.146-.767-.428-1.548-.877-2.3-1.312l-.106-.062c-1.729-1-3.687-2.133-5.655-3.064a20.118,20.118,0,0,0-4.524-.973Zm528.56-7.383-.008,0a15.193,15.193,0,0,0-8.386,2.8c-2.976,1.994-4.5,3.787-4.943,5.813-.451,2.059.174,4.5,2.027,7.924.311-.5.707-1.057,1.057-1.545.76-1.062,1.415-1.98,1.208-2.246a3.489,3.489,0,0,1-.925-2.646c.2-1.217,1.4-2.014,2.447-2.715.259-.174.472-.318.674-.465a112.689,112.689,0,0,1,9.991-5.937c.153,2.324.617,3.4,1.46,3.4a3.95,3.95,0,0,0,1.883-.947l.05-.037c.174-.125.353-.254.526-.369a8.655,8.655,0,0,0-3.158-2.277A10.033,10.033,0,0,0,14073.914,18024.521Zm116.559,1.271c-1.331,0-2.661.014-4.247.037l-.285,0c-1.3.018-2.644.035-3.961.035a9.985,9.985,0,0,0-.351,1.543c3.692.189,6.579,1.189,8.579,2.977,2.114,1.889,3.282,4.7,3.473,8.355,5-3.041,5.067-3.287,2.337-8.771a9.834,9.834,0,0,0,4.642,1.35c2.51,0,4.763-1.379,6.886-4.219-1.432-.141-2.832-.3-4.186-.459l-.066-.006c-2.935-.34-5.706-.66-8.583-.77C14193.444,18025.816,14192.058,18025.793,14190.473,18025.793Zm-124.506-14.666c-.364.08-.929.145-1.526.213l-.011,0c-1.437.162-3.227.363-3.352.914a51.959,51.959,0,0,0-1.007,12.215c.016.521,1.235,1.016,2.415,1.492l.017.008a16.883,16.883,0,0,1,1.591.7c.188-.393.424-.787.652-1.168l.037-.062,0-.006a6.341,6.341,0,0,0,1.1-2.635c.17-2.652.139-5.3.105-8.1v-.154C14065.98,18013.438,14065.967,18012.291,14065.967,18011.127Zm-338.909,5.816c-.942,0-2.727,1.838-2.727,2.809a5.667,5.667,0,0,0,1.472,2.826l.029.037c.289.379.587.768.831,1.154l5.076-3.727c-.726-.518-1.363-1.041-1.876-1.463-1.133-.928-1.951-1.6-2.771-1.633A.1.1,0,0,0,13727.058,18016.943Zm-214.53-4.424a14.124,14.124,0,0,0-1.591,1.938c.428-.518.895-1.084,1.425-1.732Zm334.568-102.586q.06.079.114.164c.844,1.3.5,3.139.059,4.764a75.166,75.166,0,0,1-2.885,7.867l-.027.066c-.436,1.066-.887,2.168-1.307,3.256a21.94,21.94,0,0,0-.255,10.336,14.8,14.8,0,0,0,6.073,8.463,23.934,23.934,0,0,1,3.418,3.316l.007.008a26.468,26.468,0,0,0,3.15,3.119,5.708,5.708,0,0,0,3.022.76c.475.037,1.013.08,1.492.162-1-1.207-2.012-2.359-2.991-3.473l-.029-.033c-2.746-3.119-5.341-6.066-6.794-9.4-1.609-3.7-1.656-7.49-.146-11.945l0-.006c1.53-4.525,3.113-9.205,3.162-13.727a16.53,16.53,0,0,0-1.226-6.631,18.907,18.907,0,0,0-4.549-6.428c-1.308-1.24-2.484-3.395-1.977-5.189.4-1.434,1.77-2.4,4.059-2.891.321-.049.531-.6.775-1.236l0-.01a9.816,9.816,0,0,1,.4-.943c-4.121,0-6.037.162-7.236,1.16-1.288,1.074-1.657,3.207-2.113,6.59-.128.949-.294,1.914-.455,2.846l-.013.072c-.109.627-.207,1.193-.3,1.762-.536,3.313.683,5.2,3.724,5.77-.472.24-1.076.469-1.661.691l-.058.021-.006,0c-1.3.494-2.645,1.006-2.691,1.6-.3,4.135-.269,8.258-.231,13.033v.008l0,.223c.012,1.6.024,3.244.024,4.984l3.371-2.994c.42-1.088.87-2.187,1.306-3.25l.015-.037.01-.023a77.31,77.31,0,0,0,2.89-7.875c.44-1.525.837-3.447-.011-4.775-.04-.064-.083-.125-.119-.174Zm-313.947,33.189-7.035,2.881a16.288,16.288,0,0,0,4.643,3.779,10.78,10.78,0,0,0,4.984,1.232,14.591,14.591,0,0,0,6.5-1.736,10.427,10.427,0,0,0,5.054-5.25,13.359,13.359,0,0,0,.568-7.736c-2.215-11.279-9.567-19.143-16.909-26.23,0,1.705.048,3.48.091,5.047a80.551,80.551,0,0,1-.223,11.279,15.631,15.631,0,0,0,.96,7.555,24.943,24.943,0,0,0,3.893,6.4,9.337,9.337,0,0,1,1.658,4.756.465.465,0,0,1-.132.316,11.8,11.8,0,0,1-4.238,1.631l-.007,0c-.556.135-1.186.289-1.783.475l-.569-1.578,2.871-2.193Zm-20.624,6.586c.248.148.488.3.735.459.186-.2.335-.354.429-.437l-.018,0a.267.267,0,0,1-.042,0c-.218-.012-.456-.018-.772-.021-.105,0-.211-.006-.315-.008Zm226.729-1.9v0l.091.053a31.32,31.32,0,0,0,9.221,1.891,12.722,12.722,0,0,0,8.652-3.326,24.177,24.177,0,0,0,6.9-12.371,26.159,26.159,0,0,0,.72-7.4,18.211,18.211,0,0,0-1.6-6.8,21.545,21.545,0,0,0-11.663-10.727l-.1-.045c-.974-.441-1.981-.9-3.018-1.436l.007-.006c2.83-2.17,5.756-4.414,7.438-6.969,1.828-2.775,2.062-5.666.737-9.1a10.828,10.828,0,0,0-3.9-5.008,23.269,23.269,0,0,0-5.722-2.762c0,1.838.028,3.6.056,5.311v.023c.061,3.8.118,7.395-.155,10.928a7.075,7.075,0,0,1-1.886,4.885c-1.163,1.1-2.873,1.641-5.229,1.641-.264,0-.555-.008-.864-.023-.5-.025-.984-.039-1.44-.039-3.326,0-5.472.684-6.75,2.15a6.219,6.219,0,0,0-1.371,3.354,19.011,19.011,0,0,0,.148,5.064l10.685-2.963-.283-.992-7.955.4c.023-.295.045-.6.064-.887l.01-.133c.027-.4.052-.736.076-1.041h.1a15.683,15.683,0,0,0,3.086-.418l.013,0a15.932,15.932,0,0,1,3.09-.418,5.267,5.267,0,0,1,2.5.57,6.492,6.492,0,0,1,2.337,2.211c1.108,1.609,2.3,3.221,3.449,4.779l.03.041c1.976,2.672,4.019,5.436,5.752,8.328l0,0c2.051,3.438,4.374,7.334,4.795,11.283a7.006,7.006,0,0,1-1.833,5.559,9.29,9.29,0,0,1-6.838,2.977,8.713,8.713,0,0,1-3.581-.758,3.149,3.149,0,0,0-1.308-.219c-.377,0-.793.029-1.259.064l-.063.006c-.522.039-1.115.086-1.754.086a5.324,5.324,0,0,1-2.369-4.186,18.254,18.254,0,0,1,.641-5.1c.2-.912.4-1.85.535-2.766-3.123.928-5.064,1.73-5.746,3.08-.634,1.256-.218,2.994.716,5.572.348.98.8,2.256,1.262,3.422-.5-.8-1.022-1.6-1.529-2.365l-.085-.129c-.776-1.176-1.58-2.393-2.29-3.621a12.58,12.58,0,0,0-3.56-4.223,7.073,7.073,0,0,0-4.147-1.332,8.909,8.909,0,0,0-2.494.377,94.852,94.852,0,0,0,6.894,8.764l.221.227c2.327,2.4,4.733,4.879,8.208,4.879a8.229,8.229,0,0,0,2.352-.361Zm-227.481-47.52a13.184,13.184,0,0,1,8.228,2.744c-.8.707-1.59,1.391-2.4,2.086-1.712,1.473-3.328,2.865-4.833,4.371-3.035,3.047-5.968,6.211-8.8,9.27l-1.566,1.688c-5.627,6.08-8.1,17.561-5.085,23.625,2.61,5.227,7.036,5.662,11.346,5.662.6,0,1.2-.01,1.663-.02l.3,0c.488-.006.993-.012,1.5-.012h.391c-.881-.52-1.876-1.027-2.753-1.477-2.785-1.424-5.664-2.9-6.761-5.182-1.9-3.961,2.716-7.1,6.356-9.109a16.772,16.772,0,0,0,7.332-7.357,20.832,20.832,0,0,0,1.739-10.23,18.929,18.929,0,0,1,1.057-5.947l.016-.055c.255-.883.518-1.8.713-2.7l1.974.336c-.1,1.359-.192,2.729-.415,6.07a43.74,43.74,0,0,1,7.382-10.336c2.913-2.8,5.937-4.164,9.243-4.164,3.193,0,6.6,1.25,10.426,3.82l.834-1.09a19.372,19.372,0,0,1-.731-1.828l-.007-.02,0,0c-.5-1.4-1.025-2.842-2.031-3.461a22.667,22.667,0,0,0-5.949-2.283c-.812-.225-1.48-.414-2.1-.617,4.127-2.975,6.095-4.557,6.843-6.08s.272-3-1.089-5.713c-1.882,1.807-3.956,3.492-5.962,5.121l-.02.016-.021.018a66.627,66.627,0,0,0-8.264,7.52,24.654,24.654,0,0,0-5.522,10.162l-2.082-.592-.733-2.055c-2.268-6.348-4.5-12.6-6.861-19.238a9.051,9.051,0,0,1-.956.566l-.006,0c-1.032.57-2.317,1.277-2.579,2.26a18.153,18.153,0,0,0-.271,5.547l0,.043c.04.779.082,1.586.082,2.375-3.011.178-4.658.684-5.688,1.748-1.065,1.1-1.558,2.859-1.7,6.066A23.018,23.018,0,0,1,13511.771,17900.293Zm436.174,20.6h0c-2.388,6.346-3.48,10.408-2.423,13.705a10.757,10.757,0,0,0,3.143,4.541,49.887,49.887,0,0,0,6.6,4.9,7.816,7.816,0,0,1,1.382,1.277,8.9,8.9,0,0,0,1.233,1.178c.949.719,1.962,1.361,2.942,1.984.608.385,1.254.8,1.869,1.215l2.461-5.271c-.139.125-.282.26-.43.4-.531.506-1.08,1.029-1.5,1.029a.682.682,0,0,1-.1-.01,9.833,9.833,0,0,1-4.315-2.615,22.336,22.336,0,0,1-3.774-4.891c-2.4-4.127-3.386-8.391-2.572-11.127a45.892,45.892,0,0,1,3.964-9.182,21.128,21.128,0,0,0,2.593-6.8,15.09,15.09,0,0,0-.574-7.354c-.285-.865.316-2.477,1-3.609.6-1,1.259-1.654,1.756-1.74a33.565,33.565,0,0,1,5.587-.391c1.207,0,2.44.035,3.529.064l.255.008c1.075.029,2.187.059,3.272.059.011.3.028.619.046.92l0,.045v.008c.03.547.062,1.113.062,1.666l-11.736.539v1.762h14.707c-.619-3.437-1.328-6.051-2.784-7.627-1.331-1.437-3.222-2.025-6.525-2.025-.8,0-1.7.035-2.746.107a32.89,32.89,0,0,0-6.74,1.467l-.131.039c-.928.271-1.888.551-2.834.785l.041-.045.155-.15-.031-.014c-.051-.025-.1-.047-.146-.074a1.715,1.715,0,0,0,.017.178v.006l0,.035-6.857,6.32a39.9,39.9,0,0,1,3.591,5.426c.127.252-.436.84-.98,1.408l0,0c-.228.238-.511.533-.711.781l-3.477-4.023c-4.289,6.516-5.334,13.162-3.285,20.918Zm-337.161-34.338c-4.381,0-7.368,1.357-9.134,4.154-1.683,2.668-1.993,6.326-2.076,9.215-.052,1.77-.157,3.549-.259,5.27l0,.041v.016a88.118,88.118,0,0,0-.2,10.652,35.371,35.371,0,0,0,2.388,11.053,53.21,53.21,0,0,0,5.237,10.5,24.953,24.953,0,0,0,8.241,7.691,12.041,12.041,0,0,1,2.043,1.7l.012.012c.92.883,1.789,1.715,2.527,1.715a.779.779,0,0,0,.188-.02c1-.2,2-.346,2.968-.482l.031,0c3.378-.475,6.567-.924,9.94-3.895,7.74-6.748,11.723-15.24,12.534-26.723.633-8.832.646-18.211-3.5-26.969a3.615,3.615,0,0,1-.022-1.982v-.01c.063-.424.133-.9.162-1.416.741.285,1.5.508,2.172.7l.007,0a8.572,8.572,0,0,1,3.85,1.82,9.8,9.8,0,0,1,1.894,4.006c.2.646.406,1.316.658,1.969,1.835-.588,2.908-1.414,3.281-2.527.458-1.363-.146-3.2-1.847-5.615,3.5,1.627,6.233,2.385,8.6,2.385a9.7,9.7,0,0,0,6.526-2.471c-1.036-.248-2.07-.541-3.071-.824l-.106-.029-.01,0a33.218,33.218,0,0,0-6.96-1.453c-.617-.039-1.256-.086-1.875-.131l-.077,0c-1.677-.125-3.576-.264-5.4-.264a18.092,18.092,0,0,0-6.9,1.1,11.852,11.852,0,0,1-9.1.232l-2.574-.855a12.1,12.1,0,0,0,1.122,3.086,3.22,3.22,0,0,0,1.812,1.7c2.661.734,3.523,2.178,3.778,3.26a4.6,4.6,0,0,1-1.418,4.26c-6.227,5.566-4.822,12.393-3.583,18.414l.024.117c.2.988.394,1.92.552,2.848.828,4.836.956,8.371.414,11.457a18.373,18.373,0,0,1-5.189,9.871,10.865,10.865,0,0,0-1.917,3.27c-.226.512-.437.99-.671,1.428h-.008c-.6,0-1.22.064-1.822.125l-.056,0a17.052,17.052,0,0,1-1.755.125,3.614,3.614,0,0,1-1.771-.363c-8.69-4.791-12.854-16-9.478-25.52a22.9,22.9,0,0,0,1.489-9.744,18.829,18.829,0,0,0-3.54-9.27,18.134,18.134,0,0,1-2.376-6.443l-.006-.027c-.267-1.133-.542-2.3-.9-3.389l1.514-.725,2.614,1.709,1.317-4.744Zm258.344,43.146a7.311,7.311,0,0,0-3.669,1.164c.444.547.964,1.086,1.467,1.609l.006.006a11.209,11.209,0,0,1,2.777,3.811c1.8,5.33-1.575,7.422-5.147,9.637a33.05,33.05,0,0,0-3.027,2.037,21.73,21.73,0,0,0,4.229.42,21.462,21.462,0,0,0,4.734-.531,13.706,13.706,0,0,0,7.12-4.486,38.093,38.093,0,0,0,4.468-7l.011-.02a40.128,40.128,0,0,1,4.776-7.432,15.443,15.443,0,0,0-3.075-.35c-3.994,0-6.22,2.207-7.937,7.877a15.609,15.609,0,0,0-3.092-5.1A5.022,5.022,0,0,0,13869.128,17929.7Zm96.222,14.3h0l-.19.414a4.467,4.467,0,0,1,.346-.291l-.019-.014.037-.029.037-.029a1.123,1.123,0,0,0,.1-.084l-.169.033-.114.023-.027-.023Zm5.087-16.533c3.193,3.648,4.467,6.646,3.895,9.164-.522,2.3-2.574,4.186-6.274,5.77a17,17,0,0,0-2.4,1.566c3.293-.611,6.641-1.262,9.594-1.834l.156-.031c.624-.227,1.318-.4,1.989-.572l.008,0c1.479-.373,3.009-.762,3.9-1.732a102.14,102.14,0,0,0,7.172-9.059l.2-.27c.682-.928,1.387-1.887,2.106-2.848-.693-.064-1.348-.1-1.945-.1a8.537,8.537,0,0,0-4.835,1.193,7.244,7.244,0,0,0-2.8,4.186,29.968,29.968,0,0,1-2.606,5.084c.908-3.01,1.6-6.395-1.763-8.479a14.185,14.185,0,0,0-4.319-1.506l-.009,0C13971.827,17927.846,13971.123,17927.682,13970.437,17927.475Zm-239.637-1.344a2.737,2.737,0,0,0-1.406.389,21.087,21.087,0,0,0-1.937,4.484l6.794-.859a16.461,16.461,0,0,0-2.16-3.693A2.773,2.773,0,0,0,13730.8,17926.131Zm249.75-7.635h0l-3.485,4.889,1.654,1.654,4.811-3.5-2.979-3.039Zm-37.6-33.1a12.608,12.608,0,0,0-6.558,2.225c.851.328,1.7.646,2.707,1.023l.134.049c2.016.756,4.1,1.535,6.13,2.412,2.612,1.107,5.226,2.361,7.53,3.469l.334.158c.642.309,1.306.627,1.955.936-.032-.379-.032-.756-.032-1.154,2.808-1.26,2.965-3.6,3.117-5.865.122-1.834.248-3.727,1.771-5.037-3.635.738-5.476,1.611-6.353,3.014a4.907,4.907,0,0,0-.632,2.783,19.007,19.007,0,0,0,.706,4.141l1.279.889-1.315-.889c-.3-.352-.622-.707-.929-1.051l-.112-.125-.014-.016c-.686-.764-1.395-1.555-2.035-2.381C13948.294,17886.893,13945.78,17885.395,13942.948,17885.395Zm-208.7,1.932h0c-1.453,3.541-1.758,5.311-1.088,6.311.508.758,1.59,1.082,3.618,1.082.2,0,.394,0,.6-.008l.021,0,.01,0-.455-2.012c-.571-2.531-1-4.451-1.408-6.225.146-1.006.1-1.654-.139-1.928a.446.446,0,0,0-.353-.156c-.474,0-1.145.557-1.588.924-.137.113-.232.191-.309.248-2.421,1.777-4.69,3.643-7.093,5.617l-.027.021-.2.16c-.862.709-1.755,1.441-2.649,2.166a9.782,9.782,0,0,0,3.071.557,6.475,6.475,0,0,0,4.762-2.09A22.041,22.041,0,0,0,13734.251,17887.326Zm91.466-2.943c-1.511,0-2.993.848-5.79,2.643l1.884.516c.373.1.749.2,1.128.309,1.816.494,4.075,1.107,6.424,1.764,2.215.619,4.523,1.279,6.514,1.848,1.194.344,2.465.705,3.774,1.078l-3.285-11.473-.026.041-1.217,1.738-.3.43c-1.033,1.48-1.926,2.76-2.84,4.078C13828.845,17885.289,13827.3,17884.383,13825.717,17884.383Zm-318.485,2.238-5.477,1.482,1.5,4.076,5.03-2.926Zm229.962-71.16-.128,1.348,8.307.561v.68l-7.792.385,1.494.295c3.42.664,6.957,1.352,9.645,3.088a9.806,9.806,0,0,1,3.339,3.518,13.946,13.946,0,0,1,1.6,5.9l1.38-.33c.981-3.473,1.865-6.568,2.324-8.164l12.447-2.332-.373-1.8-32.24-3.143Zm-196.847-49.992v0a12.328,12.328,0,0,1,.668,6.5,17.409,17.409,0,0,1-2.158,5.342c-.5.881-1.068,1.8-1.524,2.535l-.007.012a29.939,29.939,0,0,0-3.417,6.727,11.193,11.193,0,0,0,.369,7.791c.709,1.727,1.356,3.508,1.983,5.229.65,1.787,1.322,3.635,2.071,5.441,1.447,3.438,1.754,6.182.966,8.637-.777,2.418-2.617,4.551-5.791,6.709a69.877,69.877,0,0,0-6.352,5.076l-.108.094c-.985.85-2,1.729-3.095,2.631a8.525,8.525,0,0,0,4.092,1.209c2.484,0,4.234-1.578,5.778-2.967l.01-.01a13.453,13.453,0,0,1,2.241-1.764,22.412,22.412,0,0,0,10.663-12.721c1.743-5.01,2.133-10.678,2.51-16.16v-.016c.181-2.621.367-5.332.7-7.932l1.608-.8,9.227,11.588c2.284-2.809,3.169-5.252,2.627-7.264-.529-1.963-2.435-3.576-5.662-4.793,4.01-1.957,6.22-3.234,7.171-4.791.937-1.533.667-3.291-.245-6.418l-15.572,8.766a28.806,28.806,0,0,1-1.433-8.234v-.006c-.248-3.246-.483-6.311-1.906-8.588a6.985,6.985,0,0,0-3.173-2.732,14.27,14.27,0,0,0-5.852-1.02c-.089,0-.177,0-.267,0q.139.653.274,1.289l.031.146.007.033c.361,1.7.7,3.3,1.077,5l2.486-4.545Zm78.975,51.559h0c-.151.961-.411,1.969-.662,2.945-.567,2.207-1.153,4.488-.531,6.326.541,1.635,3.863,2.49,6.866,2.49a13.206,13.206,0,0,0,3.533-.443,4.62,4.62,0,0,0,2.386-1.367c.772-.973.3-2.967-.163-4.9l0-.008-.011-.043c-.187-.791-.382-1.607-.48-2.328a15.072,15.072,0,0,0-.647-2.193,33.352,33.352,0,0,1-5.9.9,8.7,8.7,0,0,1-3.078-.871C13620.183,17817.354,13619.748,17817.174,13619.321,17817.027Zm215.4-3.344h0c-2.527,3.629-3.947,5.766-3.759,7.5.186,1.719,1.89,3.152,5.14,5.746l7.485-2.607c-.225-1.447-.45-2.922-.668-4.35l-.009-.057c-.284-1.859-.578-3.783-.867-5.631l-4.483,3.1-2.839-3.7Zm-334.192-15.023a8.982,8.982,0,0,0-4.519,1.2c.781.885,1.581,1.758,2.355,2.6l.038.043a72.382,72.382,0,0,1,5.443,6.4,46.416,46.416,0,0,1,2.868,4.68l.009.016a37.644,37.644,0,0,0,3.565,5.57,30.4,30.4,0,0,0,7.979,6.574,2.638,2.638,0,0,0,1.371.318,9.42,9.42,0,0,0,1.87-.254l.045-.01a4.42,4.42,0,0,1,.755-.125c-.6-1.6-1.322-3.109-2.019-4.568l0-.006c-1.45-3.037-2.82-5.906-2.635-8.746.188-2.859,1.779-5.594,3.623-8.758l.021-.035c.846-1.453,1.721-2.957,2.539-4.607l-10.215,2a23.433,23.433,0,0,1,5.881-8.211,15.387,15.387,0,0,1,9.515-3.57c.6-.041,1.175-.881,1.729-1.7l.007-.01a11.71,11.71,0,0,1,.775-1.059,10.865,10.865,0,0,1-.923-.834,4.155,4.155,0,0,0-2.025-1.357,9.585,9.585,0,0,0-1.435-.1,19.523,19.523,0,0,0-10.041,3.4c-3.375,2.178-5.918,4.969-6.978,7.658-.771,1.922-.847,3.385-.222,4.348.574.883,1.754,1.363,3.507,1.432a14.925,14.925,0,0,0-1.549.164,14.082,14.082,0,0,1-1.814.17,3.336,3.336,0,0,1-1.443-.273C13506.02,17799.824,13503.268,17798.66,13500.528,17798.66Zm442.114,2.334h0a22.441,22.441,0,0,0,2.668,15.193,19.839,19.839,0,0,0,11.69,9.037,10.1,10.1,0,0,0,2.725.48c1.884,0,3-.992,4.42-3.93a14.259,14.259,0,0,1-3.3.4,10.136,10.136,0,0,1-6.432-2.1,9.779,9.779,0,0,1-3.421-6.207,34.317,34.317,0,0,1,1.216-15.832c.181-.555.369-1.105.551-1.641l.015-.041,0-.006a29.952,29.952,0,0,0,1.751-6.8,11.8,11.8,0,0,0-1.521-7.084,4.522,4.522,0,0,1,.041-3.191,9.245,9.245,0,0,1,1.668-3.266c.189-.219.377-.451.576-.7l.022-.027c1.022-1.271,2.181-2.711,4-2.711a5.079,5.079,0,0,1,2.567.816,8.243,8.243,0,0,0,3.845.74c1.6,0,2.818-.27,2.962-.654.7-1.84,1.556-2.773,2.549-2.773,1.35,0,2.613,1.7,3.221,2.51l0,0h0c2.187,2.891,4.908,6.488,5.153,10.023a42.608,42.608,0,0,1-1.014,10.244c-.341,1.885-.693,3.834-.9,5.768-.1.934-.242,1.914-.365,2.777-.459,3.23-.934,6.57-.081,9.465l.077.262c.919,3.125,1.425,4.846,1.16,6.135-.271,1.311-1.346,2.141-3.5,3.4l-8.057-.441-.087,2.564c1.184,0,2.469.119,3.6.221l.069.008c1.174.105,2.389.213,3.532.213a9.225,9.225,0,0,0,4.051-.746c3.029-1.455,5.33-4.555,7.554-7.553l.095-.127c.283-.383.577-.779.863-1.156a4.507,4.507,0,0,0,.465-2.6v-.006a4.442,4.442,0,0,1,.479-2.621c3.569-4.588,4.148-10.17,1.722-16.588a98.269,98.269,0,0,0-9.777-18.336c-1.584-2.439-4.753-4.006-7.549-5.391a3.838,3.838,0,0,0-1.632-.3,4.406,4.406,0,0,0-3.049.971c-1.374,1.7-2.4,2.4-3.539,2.4a4.872,4.872,0,0,1-2.922-1.3,4.328,4.328,0,0,0-2.276-.652,4.244,4.244,0,0,0-1.715.361,143.214,143.214,0,0,0-12.862,9.705c-.428.361-.246,1.455-.035,2.723l0,.01c.11.668.225,1.359.274,2.047-2.382.939-4.128,3.506-4.793,7.039a24.434,24.434,0,0,0,1.7,13.09Zm-203.51-39.434c-4.329.822-7.062,1.373-8.618,2.27s-1.984,2.17-2.252,4.336a264.54,264.54,0,0,0-2.31,26.518,181.019,181.019,0,0,0,.863,19.014v.018c.11,1.363.224,2.771.329,4.17a5,5,0,0,0,2.191,3.057.38.38,0,0,0,.228.055c.608,0,2.117-.725,2.251-1.271.281-1.115.184-3.1-.528-3.549a3.968,3.968,0,0,1-2.152-3.291,9.723,9.723,0,0,1,.965-3.65l0-.008a39.3,39.3,0,0,1,3.062-6.721c3.619-5.6,5.519-10.2,5.979-14.488.565-5.264-1.032-10.184-4.885-15.041-1.534-1.934-2.124-3.988-1.579-5.492.5-1.389,1.912-2.332,4.186-2.807.463-.094.8-.689,1.27-1.514l0,0,.007-.012A17.281,17.281,0,0,1,13739.133,17761.561Zm-109.382,2.416v0c-4.643.375-7.027,1.016-8.5,2.285-1.651,1.42-2.146,3.688-2.407,6.887-.095,1.244-.237,2.535-.363,3.676l0,.025a61.823,61.823,0,0,0-.486,6.664c-.052,6.686-.034,13.512-.018,20.113v.156c.008,3,.018,6.742.018,10.316.866-1.518,1.742-3.057,2.59-4.543l.636-1.117c2.682-4.713,5.455-9.584,8.233-14.373,3.32-5.766,3.088-11.451-.711-17.377a62.949,62.949,0,0,1-3.234-5.908l-.053-.1c-.325-.65-.634-1.266-.923-1.812l5.227-4.889Zm234.13,42.49h0l-2.261,1.094c.072.475.145,1.092.215,1.689l0,.021a8.676,8.676,0,0,0,.444,2.541c.607,0,1.232.029,1.894.059.617.031,1.385.066,2.1.066a6.946,6.946,0,0,0,4.224-1,67.321,67.321,0,0,0,8.177-8.23l0,0,.02-.023c1.039-1.174,2.113-2.387,3.2-3.543l-.733-1.1-6.379,3.285-5.895-3.285.2.641.031.1c.753,2.338,1.463,4.547,1.216,6.611-.273,2.279-1.687,4.182-4.445,5.986l-2.015-4.906Zm-15.025-16.943c1.868,2.553,2.328,5.762,2.773,8.865l0,.02a29.567,29.567,0,0,0,1.271,5.939,9.793,9.793,0,0,0,3.625,4.824l5.14-12.338-6.365,3.053c-.026-.135-.051-.27-.076-.406l-.073-.4a20.857,20.857,0,0,0-1.623-5.75A7.4,7.4,0,0,0,13848.855,17789.523Zm-6.791-23.682a10.224,10.224,0,0,0-7.605,3.73,11.4,11.4,0,0,0-2.129,5.357,24.017,24.017,0,0,0,.245,7.547,22.5,22.5,0,0,1,2.947.6,30.03,30.03,0,0,1,3.144,1.529l-.031,1.764-6.575.693c-2.213,5.773-.723,11.758.854,18.1.284,1.137.6,2.426.888,3.672.672-1.055,1.33-2.121,1.966-3.154l.019-.029c1.435-2.328,2.789-4.525,4.34-6.676,2.51-3.5,3.811-6.7,3.977-9.771.184-3.41-1.013-6.686-3.658-10.012a11.87,11.87,0,0,1-2.3-7.863c.145-1.43,1.382-2.725,2.577-3.975l.025-.027A19.079,19.079,0,0,0,13842.064,17765.842Zm-187.965,37.59-7.076.33c1.633,1.707,2.669,2.814,3.583,3.789l.154.166.459.49,3.878-3.7-1-1.08Zm-9.486-20.176,0,0a10.716,10.716,0,0,1,5.751,4.82,24.362,24.362,0,0,1,2.452,7.033,8.36,8.36,0,0,0,2.618,4.8,8.27,8.27,0,0,0,5.273,1.615c-.532-1.1-1.046-2.184-1.542-3.229l-.4-.842c-1.37-2.887-2.786-5.873-4.251-8.705a16.267,16.267,0,0,0-5.441-6.246,12.834,12.834,0,0,0-7.141-2.129,14.256,14.256,0,0,0-2.945.313l4.278,1.752-5.55,0c.624.748,1.352,1.463,2.122,2.223,1.759,1.73,3.578,3.52,4.221,5.816s.075,4.953-.475,7.514c-.234,1.094-.478,2.223-.619,3.313,3.34-.074,5.843-1.232,7.048-3.26a6.052,6.052,0,0,0,.779-3.543,11.6,11.6,0,0,0-1.375-4.516,58.565,58.565,0,0,0-4.806-6.736Zm338.238-14.539a47.844,47.844,0,0,0-5.623.424,73.05,73.05,0,0,1,6.7,3.385,48.362,48.362,0,0,1,4.313,3.268l.041.035c.741.605,1.508,1.232,2.354,1.893-.29-3.705-.839-5.744-1.9-7.041C13987.611,17769.3,13985.852,17768.717,13982.852,17768.717Zm-29.779-1.635c-4.831,0-8.068.545-10.188,1.715a6.118,6.118,0,0,0-3.24,5.451l19.506-6.939C13956.853,17767.156,13954.864,17767.082,13953.072,17767.082Zm-422.728-63.588a2.089,2.089,0,0,1,.8.127c.984.42,1.836,2.227,1.94,3.563a4.338,4.338,0,0,1-.969,2.365c-.245.389-.5.785-.708,1.2,6.152-.055,7.481-1.123,7.481-6.02,5.067,4.047,8.412,5.7,11.549,5.7,2.238,0,4.5-.867,7.319-2.807l-23.775-9.125a55.983,55.983,0,0,0,7.314-11.209,47.063,47.063,0,0,0,3.891-11.6,50.071,50.071,0,0,0,.819-12,65.062,65.062,0,0,0-1.9-12.422c-1.919-7.729-2.776-8.459-11.464-9.744l.015.105c.367,2.979.748,6.057,1.138,9.119l1.477-.086c.16-.8.328-1.617.471-2.314.236-1.156.434-2.127.627-3.1l1.481.285a28.562,28.562,0,0,0-.376,2.891v.008a12.474,12.474,0,0,1-1.277,5.332c-6.437,10.561-8.28,19.895-5.8,29.375l1.284-1.189a20.5,20.5,0,0,1,1.875,5.689,9.108,9.108,0,0,1-.382,4.6c-1.016,2.74-3.538,4.93-7.939,6.893a16.074,16.074,0,0,0-5.1,4.311,4.242,4.242,0,0,0-.66,2.324,11.7,11.7,0,0,1-.165,1.211c-1.853-2.729-3.063-4.836-4.132-6.7-.854-1.488-1.593-2.773-2.442-3.982-3.756-5.33-4.787-11.264-3.153-18.139.155-.66.362-1.336.563-1.99l0-.012a12.234,12.234,0,0,0,.813-4.705,36.561,36.561,0,0,0-2.611-10.1,32.542,32.542,0,0,0-2.548-4.586,29.121,29.121,0,0,1-2.732-5.055c-.471-1.254-.176-2.812.165-4.619.166-.877.338-1.785.45-2.771l3.494,3.227v-5.482c-3.364.045-5.979,1.057-7.77,3.008a11.578,11.578,0,0,0-2.719,7.162c-.561,8.777-1.2,18.727-.063,28.336a25.814,25.814,0,0,0,4.257,11.211,78.78,78.78,0,0,0,7.6,9.412l.021.023c1.795,2,3.649,4.078,5.3,6.2.44.582,1.636.664,2.862.664.18,0,.356,0,.529,0h.012c.164,0,.323,0,.474,0a4.125,4.125,0,0,0,1.391-.4,3.517,3.517,0,0,1,1.171-.35.647.647,0,0,1,.318.074,6.781,6.781,0,0,0,3.163,1.033c1.633,0,2.771-1.2,3.58-3.771C13527.479,17704.059,13529.168,17703.494,13530.345,17703.494Zm564.345.852-3.212,4.811c.4.133.9.328,1.373.52l.038.016.021.008a8.957,8.957,0,0,0,2.214.711.278.278,0,0,0,.232-.082,9.866,9.866,0,0,0,1.4-3.309l0-.008c.118-.412.265-.922.429-1.395l-2.5-1.271Zm-241.712-10.584h0c-2.657,4.193-4.163,6.662-4.229,8.66-.064,1.963,1.2,3.463,4.064,6.078a5.476,5.476,0,0,0,3.309.758c2.253,0,4.98-.59,5.458-1.545,1.209-2.395,1.405-5.281,1.633-8.625v-.018c.1-1.445.2-2.939.394-4.512l-6.237,2.971-4.393-3.768Zm223.825,3.912a6.108,6.108,0,0,1,5.312,2.844c1.22,1.713,2.273,4.287,3.522,8.607l.3-.562c1.286-2.416,2.743-5.152,4.271-7.994a10.246,10.246,0,0,0,4.452,1.059c2.892,0,5.752-1.326,8.5-3.943l-30.683-4.631c-.081-.219-.164-.443-.25-.678l-.091-.244,0-.01c-.494-1.332-1.109-2.99-1.992-5.449,1.283-.664,2.585-1.367,3.918-2.088l.03-.018c3.046-1.646,6.2-3.35,9.479-4.764a27.486,27.486,0,0,0,6.5-3.848,18.4,18.4,0,0,0,4.342-5.039,17.925,17.925,0,0,0,2.154-6.279,26.033,26.033,0,0,0-.06-7.562c-.994-7.2-6.535-14.035-12.353-15.238l4.812,6.945c-2.818,2.734-5.523,7.346-7.235,12.334a28.224,28.224,0,0,0-1.479,6.475,7.85,7.85,0,0,0,.642,4.574,13.28,13.28,0,0,0-5.306,2.959,24.875,24.875,0,0,0-7.417,11.857,13.747,13.747,0,0,0-.331,6.354,15.626,15.626,0,0,1-5.312,1,14.859,14.859,0,0,1-8.432-2.836,52.507,52.507,0,0,1-7.1-6.211l-.806-.791-1.427,1.367c.631.926,1.317,1.938,2.1,3.09l.2.289c1.528,2.254,2.973,4.383,4.427,6.48a11.176,11.176,0,0,0-4.438,3.217,9.36,9.36,0,0,0-1.973,5.828c1.478-.7,2.909-1.447,4.293-2.168l.063-.031a51.5,51.5,0,0,1,9.285-4.1,13.013,13.013,0,0,1,3.735-.482c1.277,0,2.618.129,3.8.242l.031,0c1.187.109,2.53.23,3.886.23a16.552,16.552,0,0,0,3.889-.424A11.83,11.83,0,0,1,14076.8,17697.674Zm-126.671-54.365c-3.524.568-5.826,2.021-7.036,4.445-1.179,2.365-1.209,5.451-1.083,8.158a34.355,34.355,0,0,1-.308,5.449l0,.014c-.117,1.057-.25,2.254-.306,3.412-.062,1.318-.134,2.627-.216,4.076a127.45,127.45,0,0,0-.29,12.965c.08,1.686,1.055,3.371,2,5,.325.563.694,1.2,1,1.8.494.992.972,2.023,1.434,3.021l.025.057a43.074,43.074,0,0,0,4.327,7.885,52.408,52.408,0,0,0,9.29,8.947,3.393,3.393,0,0,0,2.105.475c.279,0,.577-.008.892-.018l.2-.006.072,0,.078,0c.388-.01.789-.023,1.22-.023.408,0,.774.012,1.121.031-1.086-1.178-2.022-2.242-2.849-3.182l-.007-.008a49.065,49.065,0,0,0-4.353-4.568,19.046,19.046,0,0,1-6.07-9.35,19.61,19.61,0,0,1,.348-10.836c1.563-5.25,2.111-9.518,1.724-13.432a22.65,22.65,0,0,0-5.3-12.406l-.083-.1c-1.17-1.459-2.772-3.457-2.3-5.357.287-1.15,1.331-2.117,3.1-2.877.547-.232.756-1.266.958-2.264l0-.01A11.832,11.832,0,0,1,13950.132,17643.309Zm-208.97,49.445h0c-.4,1.656-.931,3.205-1.447,4.7-1,2.914-1.869,5.432-1.009,6.945a7.544,7.544,0,0,0,3.642,3.16,12.383,12.383,0,0,0,4.938.965,13.947,13.947,0,0,0,3.554-.455c.977-.268,1.218-3.113,1.5-6.408v-.012c.136-1.605.275-3.264.516-4.746l-6.881,2.752-4.811-6.9Zm-125.567,3.969h0a44.806,44.806,0,0,0-3.5,5.57c-.7,1.434-.876,2.455-.567,3.215.534,1.318,2.586,1.957,5.95,2.611a16.869,16.869,0,0,0,3.194.346c2.113,0,3.613-.586,4.459-1.742,1.064-1.459,1.088-3.811.07-6.988-.439-1.346-.762-2.76-1.074-4.129-.155-.682-.308-1.348-.471-2-1.293,3.67-2.234,5.533-3.785,5.533-1.106,0-2.511-.967-4.279-2.416Zm354.342-9.617a9.318,9.318,0,0,0-2.613.41,28.366,28.366,0,0,0,1.262,2.605c1.029,1.959,2.095,3.986,1.75,5.709-.406,2.051-2.008,3.883-3.7,5.822l-.012.014c-.771.885-1.569,1.8-2.3,2.779a21.406,21.406,0,0,0,2.355.135,15.276,15.276,0,0,0,5.619-.994,14.688,14.688,0,0,0,4.3-2.623,39.085,39.085,0,0,0,6.442-8.021,50.625,50.625,0,0,1,5.185-6.871c-.473-.045-.931-.066-1.36-.066-6.029,0-7.9,4.264-9.7,8.387-.4.91-.81,1.85-1.259,2.725.137-4.006-.594-6.865-2.174-8.5A5.06,5.06,0,0,0,13969.937,17687.105Zm-239.391-40.43v0c.684.461,1.395.928,2.186,1.447,2.105,1.379,4.283,2.807,6.37,4.479a4.092,4.092,0,0,1,.975,3.6c-1.774,5.377.063,10,2.314,14.188,2.046,3.824,4.083,7.623,6.344,11.836,1.777,3.311,3.676,6.848,5.631,10.5-.14-1.7-.413-3.359-.677-4.967-.545-3.309-1.059-6.432-.276-9.172,2.253-7.957,1.736-15.154-1.493-20.814a21.017,21.017,0,0,0-6.092-6.686,28.256,28.256,0,0,0-9.313-4.232,9.165,9.165,0,0,1-2.454-1.246,9.18,9.18,0,0,0-2.453-1.242,14.831,14.831,0,0,0-3.557-.582,3.315,3.315,0,0,0-1.925.471,49.207,49.207,0,0,0-6.7,5.986l-.01.01-.146.148c-.6.6-1.216,1.225-1.83,1.824a18.723,18.723,0,0,0-5.422,17.465,13.121,13.121,0,0,0,4.147,7.3,10.647,10.647,0,0,0,6.9,3.047,6.407,6.407,0,0,0,1.747-.236c1.838-.539,3.636-1.23,5.222-1.844l.05-.018c.59-.23,1.278-.5,1.914-.727-.971-.271-2.028-.463-3.147-.668l-.02,0,0,0c-2.609-.477-5.308-.969-7.258-2.473a8.165,8.165,0,0,1-2.5-3.381,13.04,13.04,0,0,1-.945-4.484,16.869,16.869,0,0,1,.915-6.219,12.238,12.238,0,0,1,3.109-4.994c2.075-1.936,4.1-3.971,6.051-5.941l.052-.051c.686-.691,1.494-1.508,2.3-2.312Zm-115.84,15.3c-2.61,5.99-1.7,11.992-.828,17.795.624,4.137,1.27,8.41.609,12.592,1.134-1.848,2.143-3.717,3.033-5.367l.027-.051c.746-1.381,1.451-2.684,2.22-3.99.686-1.158,1.5-2.3,2.292-3.4l.015-.02a25.654,25.654,0,0,0,3.735-6.441,53.26,53.26,0,0,0,1.94-6.965,13.287,13.287,0,0,0-.136-6.645c-.775-2.285-.814-3.955-.122-5.256a9.2,9.2,0,0,1,3.479-3.072c1.218-.756,2.439-1.6,3.368-2.242l.063.035.015.006.146.078-.129-.166.13.133c.016-.066.028-.127.036-.178l-.048.008-.024.006c-.036.008-.07.014-.1.018l-.021.014c-.02.014-.039.027-.062.047-.375-.213-.781-.486-1.14-.729a5.491,5.491,0,0,0-2.389-1.166.9.9,0,0,0-.3.049,24.265,24.265,0,0,0-14.384,12.713l5.477,1.8-1.709,2.191-5.185-1.791Zm35.065,23.725-4.306,5.295a19.437,19.437,0,0,1,1.946.387l.029.006a9.692,9.692,0,0,0,2,.332,1.618,1.618,0,0,0,.925-.232c.943-.633,1.424-2.738,1.208-4.129-.152-.934-1.784-1.652-1.8-1.658Zm-23.321-8.137c11.729,3.863,11.729,3.863,10.4,12.434,2.8-.406,4.353-1.047,5.354-2.209s1.465-2.861,1.594-5.855a20.006,20.006,0,0,0,7.671,1.7,14.28,14.28,0,0,0,4.986-.885,16.329,16.329,0,0,0,4.721-2.791l-28.765-5.342-.3,1.537,4.866,1.406Zm132.7-.312v0l4.6,10.412a3.836,3.836,0,0,0,3.084-2.225,13.275,13.275,0,0,0,.893-3.973l.023-.189.023-.187a8.5,8.5,0,0,0,4.906,1.707c2.629,0,5.027-1.475,7.026-2.916-1.219-.268-2.464-.545-3.7-.824-3.074-.693-5.979-1.348-8.9-1.865-.608-.051-1.229-.078-1.843-.078a22.434,22.434,0,0,0-2.658.158l-.023-.02h-3.439Zm88.84-30.883a4.885,4.885,0,0,0-.671.041c-.556.072-1.056.5-1.882,1.205l0,0-.024.021c-.5.43-1.131.963-1.957,1.574,3.645.287,5.934,1.2,7,2.781,1.231,1.834.787,4.393-.259,7.672a12.05,12.05,0,0,0,.68,8.219c2.233,4.605,4.794,8.988,7.5,13.627l0,.006c1.084,1.855,2.313,3.957,3.523,6.092.238-1.641.512-3.15.776-4.609l.013-.066,0-.012a43.236,43.236,0,0,0,.986-8.275,131.679,131.679,0,0,0-1.567-17.975c-.31-2.047-2.35-4.6-5.456-6.816C13853.64,17647.711,13850.32,17646.373,13847.985,17646.373Zm19.546,31.105q.448,1.037.879,2.037l.486,1.127.138.318c.894,2.072,1.737,4.027,2.639,6.139a4.253,4.253,0,0,0,3.095-2.434,8.274,8.274,0,0,0,.395-4.182c2.91,2.6,4.976,3.711,6.906,3.711,1.778,0,3.559-.91,5.952-3.045l-20.645-6.879-.351,1.16,4.383,2.092Zm187.141-12.7a16.419,16.419,0,0,0,4.308,7.758,11.383,11.383,0,0,0,7.676,3.721l.072,0c2.343,0,4.95-2.482,7.045-4.479l.006,0,.2-.187.275-.262c.765-.7.406-2.91.17-4.373l-.015-.088a7.551,7.551,0,0,0-2.3-4.809,6.441,6.441,0,0,0-4.325-1.33,21.572,21.572,0,0,0-4.8.664c1.623.986,2.508,1.947,2.705,2.936.239,1.2-.562,2.3-1.336,3.361-.835,1.146-1.7,2.33-1.306,3.648l-1.466.865-6.913-7.426Zm-93.213-2.869-.1.828,5.03.73-6.575.947c3.556.65,5.757,1.789,6.728,3.479.822,1.43.8,3.291-.065,5.691l1.426.477,5.563-7.029a12.925,12.925,0,0,0,5.268,1.311,7.582,7.582,0,0,0,3.732-.947,9.735,9.735,0,0,0,3.056-2.818l-24.066-2.668Zm-118.387-18.961c-.562.129-1.16.221-1.688.3a9.3,9.3,0,0,0-3.514,1,24.875,24.875,0,0,0-3.385,2.674l-.01.008-.011.01a24.025,24.025,0,0,1-3.457,2.713c-4.881,2.957-7.646,6.154-8.451,9.771-.795,3.568.309,7.541,3.375,12.145a16.649,16.649,0,0,1,.431-1.686c.324-1.113.6-2.074.239-2.588a5.352,5.352,0,0,1-.934-4.982,10.743,10.743,0,0,1,2.706-3.871c3.385-3.422,7.062-6.627,10.617-9.725,1.369-1.193,2.918-2.541,4.387-3.854l-.306-1.918Zm-206.4,5.682c3.863,0,6.873,2.063,9.783,4.059,1.107.76,2.252,1.545,3.421,2.193-2.492,4.186-.928,7.563.585,10.828l0,.006a27,27,0,0,1,1.432,3.51c6.335-6.875,6.734-10.117,1.94-15.766a27.954,27.954,0,0,0-6.4-5.053c-.683-.439-1.532-.986-2.314-1.527a15.691,15.691,0,0,0-4.1-2.012c-.181-.057-.369-.117-.562-.18a14.017,14.017,0,0,0-3.687-.846,1.9,1.9,0,0,0-.921.189c-.722.4-.882,1.822-1.037,3.2-.058.514-.122,1.1-.221,1.594A11.458,11.458,0,0,1,13636.676,17648.631Zm533.262,2.133v0l.029.162c.633,3.543.982,5.494,1.328,7.5l1.372.52c.382-1.135.92-2.32,1.44-3.469,1.181-2.6,2.4-5.295,1.844-7.494a5.483,5.483,0,0,0-1.99-3.146,5.913,5.913,0,0,0-3.615-1.135,9.685,9.685,0,0,0-4.254,1.084c-4.284,2.1-3.564,5.08-2.929,7.711.334,1.385.649,2.689.186,3.707l6.587-5.443Z" transform="translate(-13428 -17128.996)" fill="#f5f5f5"/>
  </g>
</svg>
