<svg xmlns="http://www.w3.org/2000/svg" width="375" height="869.001" viewBox="0 0 375 869.001">
  <path id="Subtraction_8" data-name="Subtraction 8" d="M-7308,11416v-868.185l374.512-.816,0,.035c.078,1.41.467,9.075.485,21.568.018,12.532-.35,32.563-2.207,56.818a751.054,751.054,0,0,1-10.409,80.049,612.3,612.3,0,0,1-24.12,91.294,19.724,19.724,0,0,0-2.978-3.38,17.685,17.685,0,0,0-4.266-2.7c-.752-.383-1.6-.815-2.464-1.316,2.229-1.919,4.535-3.9,5.863-6.166a9.072,9.072,0,0,0,.575-8.048,9.462,9.462,0,0,0-3.063-4.427,17.516,17.516,0,0,0-4.512-2.443c0,1.674.025,3.321.046,4.775.05,3.339.1,6.492-.115,9.6a6.694,6.694,0,0,1-1.487,4.319,5.347,5.347,0,0,1-4.117,1.447c-.229,0-.457-.007-.677-.02-.383-.022-.764-.034-1.133-.034-2.487,0-4.123.54-5.149,1.7-1.258,1.421-1.606,3.779-1.129,7.645l8.4-2.616-.215-.883-6.266.358q.03-.429.058-.857c.021-.325.042-.645.065-.962h.072a11.075,11.075,0,0,0,2.438-.375h.006a11.1,11.1,0,0,1,2.433-.375,4.293,4.293,0,0,1,3.807,2.464c.9,1.469,1.857,2.93,2.787,4.342,1.538,2.337,3.129,4.754,4.479,7.288.629,1.183,1.24,2.343,1.8,3.539-1.8,4.686-3.675,9.377-5.588,13.944a6.148,6.148,0,0,1-2.077-.624,2.375,2.375,0,0,0-1.055-.2c-.292,0-.6.025-.984.06-.419.037-.894.079-1.414.079-2.551-2.043-1.974-5.034-1.362-8.2.156-.809.317-1.641.422-2.456-2.391.8-3.889,1.482-4.469,2.61s-.251,2.694.5,5.045l.091.28c.281.866.6,1.848.912,2.742-.3-.528-.62-1.061-.925-1.575l-.017-.027c-.728-1.227-1.481-2.5-2.132-3.8a10.877,10.877,0,0,0-2.8-3.736,5.177,5.177,0,0,0-3.27-1.18,6.375,6.375,0,0,0-1.966.332,85.648,85.648,0,0,0,5.427,7.753l.166.191c1.834,2.126,3.73,4.324,6.467,4.324a5.838,5.838,0,0,0,1.853-.321l.072.049a30.78,30.78,0,0,0,5.356,1.517,436.627,436.627,0,0,1-22.665,45.733,368.636,368.636,0,0,1-28.749,43.009,320.016,320.016,0,0,1-35.546,38.73c-6.593,6.071-13.506,11.884-20.544,17.276-7.23,5.54-14.8,10.8-22.51,15.623-.553.256-1.085.507-1.487.7a19.089,19.089,0,0,0-1.057-8.272,90.607,90.607,0,0,0-7.7-16.222c-1.257-2.174-3.854-3.606-5.942-4.758a2.753,2.753,0,0,0-1.3-.271,3.177,3.177,0,0,0-2.386.852c-1.087,1.507-1.9,2.122-2.791,2.122a3.657,3.657,0,0,1-2.3-1.151,3.181,3.181,0,0,0-1.8-.569,3.1,3.1,0,0,0-1.34.306,115.564,115.564,0,0,0-10.128,8.587c-.335.316-.193,1.278-.029,2.393v.006h0c.084.57.18,1.218.218,1.836-1.874.825-3.249,3.09-3.773,6.216a24.065,24.065,0,0,0,1.337,11.573l1.209-3.393c-1.188,7.861,1.668,15.491,7.28,19.438-45.267,35.488-53.9,84.32-46.887,118.188,6.83,32.975,28.05,57.156,56.765,64.686,3.372.884,6.747,1.832,10.031,2.816l.479.851,1.042-.39c1.146.351,2.266.7,3.332,1.04h-1.482a10.489,10.489,0,0,1,2.295,2.5c.713,1.46,1.516,2.2,2.387,2.2a3.018,3.018,0,0,0,2.177-1.435c.283-.4.563-.806.831-1.206a274.128,274.128,0,0,1,28.279,11.521,259.021,259.021,0,0,1,25.174,13.713,253,253,0,0,1,22.245,15.5,254.047,254.047,0,0,1,19.493,16.879,274.827,274.827,0,0,1,53.989,73.228,312.506,312.506,0,0,1,15.078,34.372c3.484,9.439,6.519,19.049,9.02,28.562a218.915,218.915,0,0,1,5.519,26.735Zm204.157-32.624a4.489,4.489,0,0,1,2.67.561,3.719,3.719,0,0,0,1.673.4,3.816,3.816,0,0,0,2.252-.747,37.963,37.963,0,0,0,4.02-5.013c.526-.735,1.123-1.568,1.759-2.411l-22.1-8.208a39.1,39.1,0,0,0,.244-4.292c-.088-2.478-.128-4.986-.167-7.412v-.013a147.525,147.525,0,0,0-1.12-18.939c-.891-6.175-4.931-11.249-10.294-12.927a15.318,15.318,0,0,1-3.3-1.854l0,0-.013-.009a17.546,17.546,0,0,0-2.92-1.71,6.009,6.009,0,0,0-2.226-.437,3.131,3.131,0,0,0-1.866.5,69.78,69.78,0,0,0-5.85,5.4l-.042.042c-.743.739-1.511,1.5-2.276,2.237a19.34,19.34,0,0,0-3.987,5.234,12.071,12.071,0,0,0-1.339,5.4,11.6,11.6,0,0,0,1.218,5.1,17.447,17.447,0,0,0,3.676,4.885l2.217-10.357-1.106-.234-1.639,4.392-1.553-.785c.367-.871.691-1.809,1.006-2.715l0-.01a18.1,18.1,0,0,1,2.684-5.638,69.944,69.944,0,0,1,7.227-7.116l.006,0,.005,0c1.236-1.106,2.515-2.252,3.821-3.486l-.862,4.845,1.235-.843a16.308,16.308,0,0,0,1.125,1.3c.817.885,1.662,1.8,1.5,2.324-1.389,4.525-.448,8.615,2.96,12.869a36.368,36.368,0,0,1,5.684,10,39.263,39.263,0,0,1,2.453,11.536,11.456,11.456,0,0,1-.827,4.21c-.2.614-.428,1.311-.589,1.973l-1.175.229c1.222,1.95,1.728,2.758,2.618,2.758a7.783,7.783,0,0,0,2.619-.916,6.154,6.154,0,0,1,2.526-.572,4.524,4.524,0,0,1,3.5,1.546,5.384,5.384,0,0,1,1.069,4.4c-.272,1.785-.121,2.989.464,3.683.679.8,1.861.825,3,.845h.005Zm116.526-10.123c2.637,0,3.164,1.7,3.5,7.175a19.482,19.482,0,0,1,4.312,1.415c1.836,1.095,2.913,1.65,3.7,1.65,1.215,0,1.68-1.382,2.386-4.315l-5.174-2.907.516-1.055a12.2,12.2,0,0,0,6.39,2.1,8.9,8.9,0,0,0,6.156-2.6c-1.309-.481-2.668-1.029-3.868-1.513a74.4,74.4,0,0,0-7.782-2.8,85.835,85.835,0,0,0-8.706-1.772l-.019,0-.053-.009c-1.4-.235-2.845-.479-4.352-.763.68-.64,1.357-1.248,2.012-1.836l.015-.013a47.562,47.562,0,0,0,4.013-3.888c.917-1.04,1.9-2.069,2.849-3.064l.006-.007c2.78-2.913,5.654-5.925,7.255-9.525,1.815-4.11,1.732-9.584,1.66-14.413,0-.278-.008-.551-.012-.821-.091-6.756-2.005-9.344-8.195-11.076a11.018,11.018,0,0,1-2.83-1.8c-.307-.205-.667-.5-.984-.765l-.009-.008c-.615-.5-1.251-1.028-1.6-1.028a.253.253,0,0,0-.143.039,9.261,9.261,0,0,0-2.093,2.453c-.231.342-.491.727-.751,1.073l.4,1.181a10.033,10.033,0,0,1,2.654-.41c3.029,0,4.7,1.991,5.11,6.089l1.625-3.874,1.725.647c-.2.759-.354,1.574-.5,2.363a13.329,13.329,0,0,1-1.569,4.914c-2.238,3.273-2.7,6.843-3.045,10.833a35.233,35.233,0,0,1-1.937,7.873c-.37,1.124-.751,2.286-1.074,3.436-.156-.921-.311-1.865-.457-2.754q-.1-.6-.2-1.209a9.159,9.159,0,0,0-2.673,1.172,2.585,2.585,0,0,0-.479,1.492,8.05,8.05,0,0,1-.133.794l3.856.61.086-.105-.051.077c-.622.816-1.269,1.636-1.9,2.427l-.029.038-.01.013a72.195,72.195,0,0,0-4.422,6.012,28.581,28.581,0,0,0-2.225,4.789c-.333.843-.676,1.713-1.07,2.622l-14.391-9.689c-.137.482-.328,1.173-.548,1.971l-.028.1-.069.249c-.2.713-.42,1.521-.642,2.312l-.939-.679c-.29.508-.675,1.051-1.048,1.576-.864,1.215-1.757,2.473-1.539,3.386a23.088,23.088,0,0,0,2.671,5.894l0,.007.018.031c.437.77.888,1.564,1.31,2.384a9.684,9.684,0,0,1,2.043-1.619,95.922,95.922,0,0,1,11.036-4.653,2.016,2.016,0,0,1,.61-.087,6.582,6.582,0,0,1,1.94.438l.02.007a6.633,6.633,0,0,0,1.977.447,2.143,2.143,0,0,0,.562-.069A22.862,22.862,0,0,1-6987.317,11373.252Zm-279.985-47.311a14.26,14.26,0,0,0-5.29,1.486l-.222.093a6.046,6.046,0,0,1-.814.2c-11.811,2.717-17.046,10.294-16.477,23.846.113,2.919.329,5.865.538,8.714v.011c.317,4.326.645,8.8.607,13.156-.03,3.536-.006,5.595.819,6.788.813,1.178,2.435,1.562,5.542,1.933a11.973,11.973,0,0,0,1.349.08c2.113,0,3.632-.633,4.512-1.881,1.116-1.579,1.114-4.079-.005-7.229-.942-2.664-1.671-5.5-2.314-7.994l-.032-.122c-.272-1.059-.53-2.058-.794-3.009-.258,5.621-.258,5.621-3.088,7.684-2.354-3.46-2-8.383.977-13.506.439-.763.922-1.562,1.31-2.2,2.942-4.875,5.984-9.916,4-16.207-.648-2.064-.591-3.492.182-4.493a6.371,6.371,0,0,1,3.142-1.759,6.174,6.174,0,0,1,1.993-.3,14.185,14.185,0,0,1,6.9,2.211,12.473,12.473,0,0,1,4.835,4.711l-5.492,8.781,6.441-4.417-.553.627c.369.471.845.977,1.306,1.465l.024.025c.932.988,1.813,1.921,1.647,2.387a16.381,16.381,0,0,1-4.089,6.938,2.776,2.776,0,0,1-1.913.544,16.556,16.556,0,0,1-1.952-.166h-.005l-.025,0c-.536-.066-1.09-.135-1.591-.153-.083-.006-.157-.5-.228-.976-.029-.194-.061-.414-.093-.583l2.432-.283c-.576-1.937-1.145-3.824-1.576-5.252l.013-.014,0,0a.231.231,0,0,1,.026-.027h.066l.066-.106-.109.075-.112-.066c.013.044.028.092.046.144-.271.306-.547.622-.806.919l-.01.011c-.559.641-1.137,1.3-1.7,1.9-1.545,1.559-2.267,3.063-2.145,4.47.121,1.39,1.069,2.722,2.818,3.959a8.764,8.764,0,0,0,5,1.649,7.135,7.135,0,0,0,5.957-3.122,36.921,36.921,0,0,0,3.745-7.662c.534-1.333,1.086-2.712,1.733-4.159l7.472,6.357c.121-.422.265-.855.4-1.275l.008-.025c.839-2.519,1.707-5.122-1.757-6.959,2.558-.422,4.358-1.252,5.5-2.54a6.561,6.561,0,0,0,1.431-5.063c-1.065.213-2.155.443-3.208.666l-.3.063c-3.16.67-6.427,1.361-9.685,1.78a1.5,1.5,0,0,1-.173.011c-1.129,0-2.554-1.306-3.4-2.085a82.973,82.973,0,0,1-8.146-7.624A6.148,6.148,0,0,0-7267.3,11325.941Zm277.568-.467c-3.447,1.476-5.685,5.3-6.471,11.053-.792,5.8-.079,13.352,2.062,21.847a35.886,35.886,0,0,0,2.441-3.982,26.58,26.58,0,0,0,1.131-3.615l6.358-1.086V11346h-.014c-.448,0-.926.046-1.348.087l-.04,0c-.374.035-.728.069-1.022.069-.446,0-.7-.079-.786-.25-.288-.537-.6-1.091-.908-1.626l-.033-.059c-1.308-2.3-2.657-4.667-2.864-7.122a29.926,29.926,0,0,1,.858-8.118v-.006c.227-1.15.462-2.34.634-3.506Zm-291.483-45.3c1.156,2.21,2.594,4.961,4.105,5.037.471.024.993.049,1.594.076h.009a45.158,45.158,0,0,1,10.316,1.272,18.049,18.049,0,0,1,4.762,2.109,17.93,17.93,0,0,1,4.317,3.879c.83-3.132.755-5.342-.229-6.757a4.99,4.99,0,0,0-3.886-1.878c-1.425-.141-2.944-.206-4.782-.206-1.293,0-2.555.032-3.774.063-1.074.028-2.185.057-3.213.057,1.4-.186,2.857-.334,4.269-.478a68.757,68.757,0,0,0,10.736-1.675,4.6,4.6,0,0,0,3.354-2.965c.7-2.059.05-4.681-1.75-7.016a23.867,23.867,0,0,1-7.875,7.519,19,19,0,0,1-9.38,2.357h-.007a29.723,29.723,0,0,1-8.565-1.4Zm161.978,1.334h0l-3.563,3.791c.251.27.537.63.813.979l.017.021,0,.007c.555.7,1.129,1.428,1.437,1.428a.127.127,0,0,0,.066-.014,5.845,5.845,0,0,0,2.65-2.905c.158-.377-.21-1.038-.677-1.875l0-.007c-.24-.431-.511-.916-.744-1.424Zm-12.674-2.267c1.643,0,2.5,1.484,3.279,3.715a33.262,33.262,0,0,1,.905,4.312l1.326.318,2.591-8.091a17.369,17.369,0,0,0,5.143,1.051,7.55,7.55,0,0,0,5.071-2.117c-1.572-.519-3.169-1.01-4.713-1.485-3.518-1.084-7.156-2.2-10.632-3.669a21.829,21.829,0,0,0-8.787-1.826,31.179,31.179,0,0,0-11.506,2.494,3.689,3.689,0,0,0-1.725,2.753,3.391,3.391,0,0,0,1.725,2.665c.727.179,1.474.381,2.24.589l.012,0a28.924,28.924,0,0,0,7.4,1.337,10.912,10.912,0,0,0,5.391-1.339A4.883,4.883,0,0,1-7131.914,11279.243Zm-119.093.37h0a31.955,31.955,0,0,0-2.994,4.174c-.032.063.039.242.2.5.41.675,1.279,1.693,1.654,1.693a.185.185,0,0,0,.044-.006,10.427,10.427,0,0,0,2.933-1.633c.459-.317,1.027-.709,1.656-1.109l-3.492-3.624Zm-17.315-49.232c-1.417,0-2.5,1.04-3.613,3.479-.065.131-.321.141-.592.151a2.163,2.163,0,0,0-.608.078,21.23,21.23,0,0,0-6.552,3.554,20.432,20.432,0,0,0-5.026,6.2c-2.477,4.544-3.689,10.73-3.325,16.973.38,6.522,2.391,12.446,5.664,16.681a28.368,28.368,0,0,1,1.224-11.44,49.827,49.827,0,0,1,4.583-9.876,13.917,13.917,0,0,0,1.4-12.044c-.778-2.2-.875-3.811-.3-5.076.552-1.225,1.771-2.2,3.834-3.063a14.712,14.712,0,0,0,2.587-1.822,38.621,38.621,0,0,0,3.731,2.535l.016.01c4.353,2.715,8.854,5.522,8.547,13.1l-2.861.728,2.87,5.369c.528-.851,1.106-1.613,1.665-2.352l.007-.01c1.108-1.459,2.064-2.72,2.167-4.073a15.884,15.884,0,0,0-.55-6.035,13.222,13.222,0,0,0-2.408-4.5c-2.093-2.6-4.955-4.486-7.984-6.479l-.17-.112c-.361-.237-.735-.483-1.1-.728A6.12,6.12,0,0,0-7268.322,11230.381Zm134.64-.06h0l8.2,5.214c-.153,1.143-.334,2.2-.51,3.221a28.285,28.285,0,0,0-.613,5.888,64.314,64.314,0,0,0,1.579,10.008c.119.575.246,1.16.369,1.727l.012.055a41.983,41.983,0,0,1,1.26,8.711,15.419,15.419,0,0,1-2.5,8.684,4.424,4.424,0,0,0,2.736-1.026c6.354-6.679,9.668-14.2,9.853-22.364a27.561,27.561,0,0,0-2.3-12.057,15.506,15.506,0,0,0-3.292-4.718,11.171,11.171,0,0,0-4.9-2.762,40.655,40.655,0,0,1-5.428-1.992,48.566,48.566,0,0,0-4.562-1.747,1.587,1.587,0,0,0-.464-.064,5.844,5.844,0,0,0-2.814,1.179,10.86,10.86,0,0,0-1.733,1.618l-.01.012a10.574,10.574,0,0,1-1.709,1.6,18.042,18.042,0,0,0-7.764,14.188c-.3,3.425.473,6.328,2.169,8.178a6.708,6.708,0,0,0,5.095,2.149,10.512,10.512,0,0,0,3.468-.638,12.284,12.284,0,0,1,2.463-.254l.2,0-3.779-4.516-1.6,2.4a13.645,13.645,0,0,1-3-9.256,11.879,11.879,0,0,1,3.865-8.333l5.718-5.105Zm-146.415-71.193c-.46,1.972-.986,4.006-1.45,5.8l0,.015a114.715,114.715,0,0,0-2.861,13.235,13.376,13.376,0,0,0,.147,4.754,8.346,8.346,0,0,0,1.724,3.538c1.641,1.949,4.249,3.05,7.542,3.183a36.174,36.174,0,0,1,8.229,1.037,8.273,8.273,0,0,1,2.975,2.02c.4.365.784.709,1.168,1l-5.289,3.507.544,1.106a13.094,13.094,0,0,0,3.57-.777l.391-.2.084-.044c1.487-.765,3.337-1.716,3.479-2.813a7.174,7.174,0,0,0-2.045-5.427,21.082,21.082,0,0,0-5.425-2.893c-.683-.284-1.389-.578-2.09-.9-2.874-1.312-4.768-2.842-5.332-6.4-.73-4.609-1.721-9.246-2.68-13.73v-.006c-.435-2.033-.826-3.865-1.2-5.7l-1.476-.3Zm7.56,2.424a5.362,5.362,0,0,0-3.5,1.307c.978.408,1.981.74,2.868,1.032l0,0c1.975.653,3.84,1.271,5.118,2.532,1.293,1.279,2.015,3.234,2.779,5.3l.01.027c.331.9.673,1.821,1.067,2.69a5.4,5.4,0,0,0,2.547-3.5,5.95,5.95,0,0,0-1.582-4.463,11.154,11.154,0,0,0,4.679,1.4c1.971,0,3.4-1.161,4.767-3.883l-13.285-1.111-.035-.034c-.58-.142-1.172-.332-1.745-.517l-.013,0A12.245,12.245,0,0,0-7272.538,11161.552Zm-8.19-14.331v0c.3,1.867.512,3.226.7,4.424l.028.177c.124.787.232,1.48.344,2.179l1.077.456c.3-1,.723-2.035,1.129-3.039.936-2.312,1.9-4.7,1.458-6.65a4.936,4.936,0,0,0-1.564-2.782,4.314,4.314,0,0,0-2.847-1,6.968,6.968,0,0,0-3.353.958c-3.379,1.855-2.809,4.492-2.306,6.818a5.9,5.9,0,0,1,.148,3.267l5.185-4.8Zm28.169-40.893c-.859,1.436-1.709,2.87-2.527,4.263.333.119.742.3,1.138.478l.023.011a6.383,6.383,0,0,0,1.709.609.2.2,0,0,0,.18-.068,9.337,9.337,0,0,0,1.107-2.944c.093-.365.208-.814.334-1.225l-1.966-1.123Zm-14.081-5.932a4.7,4.7,0,0,1,4.182,2.516c.961,1.517,1.792,3.792,2.774,7.61,1.194-2.524,2.337-4.929,3.6-7.566a7.375,7.375,0,0,0,3.51.938c2.272,0,4.522-1.17,6.689-3.477l-24.106-4.12c-.1-.3-.2-.608-.31-.941l-.051-.155c-.372-1.128-.835-2.533-1.475-4.542.982-.571,1.963-1.167,3-1.8l.043-.026.016-.01c2.413-1.467,4.907-2.983,7.509-4.239a21.2,21.2,0,0,0,5.121-3.4,15.887,15.887,0,0,0,3.418-4.456,17.2,17.2,0,0,0,1.7-5.554,25.787,25.787,0,0,0-.047-6.687c-.816-6.369-5.194-12.415-9.758-13.478l.564.912c1.112,1.806,2.163,3.512,3.223,5.239a29.835,29.835,0,0,0-5.695,10.9c-1.342,4.394-1.586,8.045-.654,9.768-2.694.746-5.592,3.5-7.753,7.357-2.189,3.912-3.136,8.16-2.532,11.365a11.272,11.272,0,0,1-4.181.868,10.882,10.882,0,0,1-6.627-2.482,43.023,43.023,0,0,1-5.579-5.452l-.677-.744-1.12,1.209c.929,1.5,1.818,2.979,2.8,4.618l.087.146c.824,1.371,1.6,2.666,2.4,3.958a8.873,8.873,0,0,0-3.494,2.845,8.927,8.927,0,0,0-1.546,5.148c1.238-.653,2.423-1.346,3.57-2.017l.016-.009a37.669,37.669,0,0,1,7.147-3.544,9.185,9.185,0,0,1,2.937-.424,28.663,28.663,0,0,1,2.939.2l.055.006h.013a30.133,30.133,0,0,0,3.09.208,11.616,11.616,0,0,0,3.046-.372A8.3,8.3,0,0,1-7266.64,11100.4Zm-17.425-29.088h0a15.085,15.085,0,0,0,3.4,6.86,8.61,8.61,0,0,0,6.042,3.284h.055c1.833,0,3.873-2.169,5.512-3.912l.015-.016.4-.422c.6-.629.319-2.576.132-3.864l-.012-.081a7.015,7.015,0,0,0-1.808-4.252,4.718,4.718,0,0,0-3.409-1.175,15.328,15.328,0,0,0-3.772.582c1.457,1,2.166,1.976,2.166,2.988a5.1,5.1,0,0,1-1.086,2.583c-.656,1.014-1.334,2.06-1.028,3.228l-1.155.765Zm4.44-117.627c-2.773.5-4.583,1.784-5.535,3.937-.929,2.1-.946,4.817-.84,7.2a33.7,33.7,0,0,1-.242,4.845v.012c-.1.984-.2,2-.239,3-.049,1.189-.109,2.395-.171,3.628-.188,3.753-.383,7.633-.227,11.428a11.339,11.339,0,0,0,1.572,4.432l.026.052c.261.509.531,1.036.757,1.544.41.924.8,1.884,1.153,2.731a39.821,39.821,0,0,0,3.4,6.959,44.2,44.2,0,0,0,7.3,7.879,2.467,2.467,0,0,0,1.645.407c.255,0,.524-.009.85-.021l.067,0c.309-.012.669-.024,1.037-.024.319,0,.608.009.886.027-.879-1.064-1.636-2.027-2.3-2.876a40.139,40.139,0,0,0-3.382-3.975c-4.791-4.729-6.348-10.905-4.5-17.86,2.583-9.756,1.74-16.588-2.819-22.846l-.016-.021c-.909-1.24-2.282-3.113-1.854-4.826a4.048,4.048,0,0,1,2.437-2.479c.433-.207.6-1.124.757-2.011l0-.012A11.431,11.431,0,0,1-7279.625,10953.682Zm15.616,38.709a6.646,6.646,0,0,0-2.052.361c.268.751.633,1.53.987,2.285.814,1.736,1.656,3.533,1.388,5.069-.322,1.8-1.582,3.421-2.916,5.136-.611.784-1.243,1.6-1.823,2.472a15.1,15.1,0,0,0,1.854.12,10.858,10.858,0,0,0,4.423-.878,11.389,11.389,0,0,0,3.386-2.32,34.085,34.085,0,0,0,5.071-7.089,44.7,44.7,0,0,1,4.083-6.072,10.494,10.494,0,0,0-1.064-.058c-4.776,0-6.248,3.776-7.672,7.429-.3.763-.633,1.625-.989,2.4.123-3.71-.5-6.3-1.865-7.709A3.763,3.763,0,0,0-7264.009,10992.391Zm-6.694-22.275-.077.739,3.959.659-5.177.822c2.685.552,4.383,1.5,5.194,2.885.751,1.289.769,3,.052,5.227l1.124.424c1.7-2.423,3.095-4.4,4.383-6.209a9.257,9.257,0,0,0,4.136,1.153,5.461,5.461,0,0,0,2.944-.841,8.064,8.064,0,0,0,2.409-2.5l-18.946-2.364Zm151.787-11.875a34.084,34.084,0,0,0-4.438.375,52.81,52.81,0,0,1,5.269,3,39.36,39.36,0,0,1,3.471,2.95l.006.006.083.076c.544.5,1.108,1.013,1.72,1.552-.212-3.276-.638-5.081-1.474-6.228C-7115.163,10958.759-7116.549,10958.24-7118.916,10958.24Zm-23.459-1.445c-3.8,0-6.352.481-8.027,1.517a5.574,5.574,0,0,0-2.579,4.819l15.391-6.135C-7139.386,10956.861-7140.952,10956.795-7142.375,10956.795Zm-117.085-47.23c-2.091,3.706-3.276,5.889-3.325,7.662-.048,1.737.95,3.062,3.205,5.372a3.941,3.941,0,0,0,2.6.674c1.77,0,3.916-.521,4.3-1.361.951-2.115,1.106-4.668,1.286-7.624.077-1.282.157-2.6.31-4l-4.911,2.627c-.872-.849-2.052-2-3.467-3.344h0Zm111.035-2.761h0c-1.99,3.207-3.109,5.1-2.96,6.636.146,1.517,1.488,2.784,4.046,5.077l5.9-2.3-1.223-8.876-3.521,2.742-2.244-3.275Zm22.966-6.357-1.776.969c.053.4.1.912.163,1.485a8.309,8.309,0,0,0,.353,2.276c.434,0,.888.023,1.368.047l.095,0c.485.025,1.089.057,1.657.057a5.052,5.052,0,0,0,3.343-.885,56.852,56.852,0,0,0,6.488-7.334l.041-.051c.8-1.011,1.62-2.056,2.451-3.053l-.584-1.017-5.022,2.907-4.633-2.908c.043.147.086.295.129.441l.021.07c1.273,4.34,2.278,7.768-2.5,11.33l-1.587-4.341Zm-137.914-32.77h0a3.96,3.96,0,0,0-.537.035c-.446.061-.848.444-1.513,1.079l-.015.015c-.394.377-.884.845-1.526,1.379,2.751.245,4.517.989,5.4,2.272,1.114,1.623.769,3.961-.093,6.971a12.017,12.017,0,0,0,.544,7.269c1.763,4.058,3.791,7.968,5.937,12.107.891,1.718,1.812,3.5,2.741,5.335.191-1.463.408-2.8.617-4.086a43.1,43.1,0,0,0,.79-7.417,133.78,133.78,0,0,0-1.232-15.853c-.244-1.807-1.848-4.058-4.291-6.021-2.369-1.9-4.981-3.085-6.819-3.085Zm15.336,27.526c.3.78.59,1.54.877,2.289.763,1.988,1.552,4.044,2.374,6.229,2.225-.631,3.075-2.446,2.756-5.888,2.336,2.347,3.917,3.3,5.458,3.3,1.4,0,2.794-.8,4.675-2.688l-16.21-6.113-.284,1.017,3.449,1.851Zm110.776-9.785v0c1.476,2.258,1.836,5.1,2.186,7.843a28.84,28.84,0,0,0,1,5.265,8.621,8.621,0,0,0,2.85,4.263l4.014-10.91-4.988,2.705c-.041-.245-.081-.491-.122-.737a20.14,20.14,0,0,0-1.272-5.071,6.007,6.007,0,0,0-3.668-3.357Zm-5.374-20.94h0a7.864,7.864,0,0,0-5.725,2.93,10.241,10.241,0,0,0-1.9,4.816,23.317,23.317,0,0,0,.157,6.963,15.032,15.032,0,0,1,2.321.533,23.361,23.361,0,0,1,2.475,1.347l-.025,1.559-5.177.61c-1.749,5.134-.566,10.449.685,16.077.219.984.467,2.1.687,3.176.525-.927,1.04-1.864,1.538-2.771l.042-.076c1.124-2.049,2.185-3.983,3.389-5.871a17.73,17.73,0,0,0,3.139-8.64,13.845,13.845,0,0,0-2.877-8.852,11.492,11.492,0,0,1-1.814-6.956c.108-1.263,1.087-2.41,2.033-3.52a16.373,16.373,0,0,0,1.058-1.325Zm-124.667.164c-.408.1-.831.177-1.3.255a6.787,6.787,0,0,0-2.787.889,20.261,20.261,0,0,0-2.7,2.391,19.917,19.917,0,0,1-2.708,2.4c-3.785,2.578-5.951,5.356-6.622,8.5-.681,3.189.179,6.75,2.628,10.885.082-.509.213-1.016.34-1.5.254-.983.474-1.83.188-2.283-2.024-3.254-.429-5.779,1.4-7.821,2.628-3,5.487-5.794,8.251-8.5l.009-.009c1.164-1.139,2.368-2.317,3.549-3.5l-.249-1.687Zm254.268-4.421c-1.187,0-2.355.749-4.557,2.339,1.055.331,2.178.675,3.264,1.008l.112.034c1.3.4,2.646.813,4.05,1.255,2.15.675,4.248,1.349,6.469,2.062l.085.027.948.3.6.192c-.924-3.677-1.61-6.383-2.587-10.146-1.362,2.2-2.51,4.044-3.452,5.553C-7010.574,10861.021-7011.787,10860.221-7013.035,10860.221Zm-127.653-46.149-.112,1.181,6.541.5v.59l-6.128.35c.4.091.812.18,1.16.255,2.7.588,5.492,1.2,7.606,2.725a8.366,8.366,0,0,1,2.633,3.115,13.54,13.54,0,0,1,1.259,5.223l1.077-.3,1.831-7.249,9.8-2.065-.284-1.559-25.381-2.771Zm-120.673-4.935h0c-.308,1.443-.723,2.813-1.125,4.136l0,.006c-.784,2.585-1.461,4.817-.8,6.158a6.206,6.206,0,0,0,2.866,2.794,8.812,8.812,0,0,0,3.887.854,9.844,9.844,0,0,0,2.8-.4c.772-.241.963-2.77,1.184-5.7.106-1.412.216-2.872.4-4.177l-5.424,2.433-3.782-6.105Zm122.182-42.772h0c-3.726.8-5.608,1.267-6.772,2.025-1.23.8-1.564,1.916-1.777,3.819-.952,7.785-1.561,15.675-1.811,23.45-.134,5.5.266,11.1.653,16.516v.013l.011.154c.089,1.257.182,2.556.266,3.831a4.493,4.493,0,0,0,1.725,2.711.267.267,0,0,0,.172.046c.493,0,1.67-.633,1.779-1.129.216-.988.137-2.743-.416-3.141a3.534,3.534,0,0,1-1.694-2.9,9.463,9.463,0,0,1,.761-3.229l0-.006a36.345,36.345,0,0,1,2.407-5.947c2.849-4.948,4.345-9.021,4.707-12.814a19.2,19.2,0,0,0-3.845-13.3c-1.257-1.782-1.7-3.65-1.19-5,.437-1.149,1.528-1.936,3.245-2.338.359-.086.622-.607.985-1.329l0,0h0a15.548,15.548,0,0,1,.789-1.431Zm145.833,39.388a1.987,1.987,0,0,0-1.107.343,19.441,19.441,0,0,0-1.527,3.963l5.349-.754a14.883,14.883,0,0,0-1.7-3.266A1.966,1.966,0,0,0-6993.346,10805.752Zm-276.372-37.358h0c.571.437,1.161.87,1.786,1.33a62.941,62.941,0,0,1,4.95,3.91,3.886,3.886,0,0,1,.759,3.178c-1.388,4.753.06,8.84,1.831,12.549,2.459,5.193,4.955,10.4,7.6,15.9l.051.107.646,1.347,1.143,2.384c-.112-1.5-.321-2.958-.524-4.368-.421-2.933-.818-5.7-.235-8.132,3.5-13.819-1.585-24.587-13.259-28.1a6.893,6.893,0,0,1-1.924-1.095l-.007,0a6.869,6.869,0,0,0-1.933-1.1,10.5,10.5,0,0,0-2.806-.516,2.363,2.363,0,0,0-1.509.418,42.609,42.609,0,0,0-5.261,5.318c-.489.555-1.042,1.184-1.581,1.775a16.971,16.971,0,0,0-3.957,7.089,18.519,18.519,0,0,0-.357,8.356,12.041,12.041,0,0,0,3.268,6.449,7.97,7.97,0,0,0,5.427,2.7,4.457,4.457,0,0,0,1.376-.212c1.474-.482,2.917-1.109,4.191-1.662l.01,0,.04-.018c.5-.217.969-.421,1.409-.6-.772-.241-1.617-.414-2.511-.6-2.06-.422-4.186-.856-5.694-2.186-1.616-1.4-2.581-3.839-2.715-6.868a16.61,16.61,0,0,1,.7-5.545,11.092,11.092,0,0,1,2.461-4.456c1.65-1.723,3.252-3.534,4.8-5.287l.031-.035c.585-.662,1.189-1.347,1.793-2.021Zm22.551,27.043,3.625,9.206a3.069,3.069,0,0,0,2.425-1.963,12.956,12.956,0,0,0,.7-3.509l.018-.161.02-.181a6.17,6.17,0,0,0,3.819,1.479c2.034,0,3.9-1.225,5.61-2.548-1.093-.27-2.129-.531-2.909-.729l-.034-.009c-2.414-.609-4.694-1.185-6.97-1.644-.48-.045-.97-.067-1.454-.067a15.656,15.656,0,0,0-2.1.142l-.02-.018Zm256.528-23.987h0c-1.171,3.22-1.393,4.81-.791,5.669.419.6,1.278.865,2.784.865.161,0,.323,0,.5-.009-.261-1.323-.53-2.661-.79-3.956l-.047-.233c-.2-1.014-.415-2.062-.621-3.1.118-.914.076-1.494-.127-1.724a.33.33,0,0,0-.261-.117c-.373,0-.905.5-1.257.823-.092.086-.17.159-.234.213-1.968,1.623-3.816,3.33-5.772,5.138l-.025.023-.16.147c-.615.568-1.251,1.156-1.888,1.736a6.962,6.962,0,0,0,2.418.49,4.849,4.849,0,0,0,3.749-1.848A19.52,19.52,0,0,0-6990.639,10771.449Zm-294.513-45.606h0c-2.613,4.221-3.752,6.473-3.162,7.854.472,1.1,2.076,1.642,4.687,2.2a11.827,11.827,0,0,0,2.5.3,3.981,3.981,0,0,0,3.393-1.373c.958-1.278,1.009-3.413.151-6.345-.344-1.194-.6-2.443-.845-3.651l0-.013c-.11-.541-.236-1.154-.368-1.751-.994,3.2-1.765,4.935-2.986,4.935-.87,0-1.974-.861-3.362-2.155Zm138.8-.822h0c-.12.833-.322,1.711-.517,2.56l0,.021c-.45,1.956-.916,3.979-.43,5.616.434,1.44,3.051,2.194,5.412,2.194,2.219,0,3.964-.6,4.667-1.593.6-.854.231-2.608-.129-4.3l0-.014c-.152-.719-.31-1.462-.387-2.116a16.548,16.548,0,0,0-.51-1.937,22.871,22.871,0,0,1-4.7.793,6.358,6.358,0,0,1-2.365-.764c-.34-.16-.689-.324-1.033-.456Zm152.894-46.205c-3.424,0-5.762,1.206-7.147,3.687-1.33,2.381-1.559,5.6-1.609,8.146-.043,1.569-.126,3.135-.208,4.647a87.881,87.881,0,0,0-.161,9.457,34.6,34.6,0,0,0,1.878,9.793,49.615,49.615,0,0,0,4.128,9.29,20.768,20.768,0,0,0,6.492,6.8,9.833,9.833,0,0,1,1.583,1.48l0,0c.736.791,1.431,1.538,2.019,1.538a.581.581,0,0,0,.144-.018c.783-.18,1.569-.3,2.329-.424h.009c2.67-.421,5.189-.818,7.853-3.451,6.092-5.968,9.228-13.475,9.87-23.625a80.758,80.758,0,0,0,.012-12.06,38.713,38.713,0,0,0-2.774-11.786,3.52,3.52,0,0,1-.023-1.74v-.011c.048-.38.1-.81.125-1.271.585.257,1.166.448,1.727.634l.009,0,.006,0a6.439,6.439,0,0,1,3,1.6,8.932,8.932,0,0,1,1.475,3.488c.165.6.335,1.213.545,1.8a3.763,3.763,0,0,0,2.55-2.131c.42-1.216-.044-2.874-1.418-5.069a15.028,15.028,0,0,0,6.76,2.1,7.187,7.187,0,0,0,5.144-2.181c-.844-.226-1.683-.492-2.5-.75l-.039-.013-.01,0a23.545,23.545,0,0,0-5.455-1.28c-.5-.035-1.026-.077-1.564-.121-1.39-.112-2.824-.229-4.219-.229a12.8,12.8,0,0,0-5.43.972,8.423,8.423,0,0,1-3.8.908,8.431,8.431,0,0,1-3.37-.705l-2.026-.757c.295,1.406.985,3.828,2.312,4.235a3.9,3.9,0,0,1,2.943,2.748,4.325,4.325,0,0,1-1.089,3.9c-4.9,4.923-3.793,10.954-2.818,16.275.167.909.324,1.767.454,2.619a33.225,33.225,0,0,1,.321,10.136,16.983,16.983,0,0,1-4.083,8.73,10.006,10.006,0,0,0-1.516,2.906c-.174.443-.338.861-.519,1.243h-.008a13.034,13.034,0,0,0-1.485.116,12.164,12.164,0,0,1-1.388.111,2.559,2.559,0,0,1-1.382-.317c-6.842-4.234-10.12-14.151-7.463-22.577a22.643,22.643,0,0,0,1.171-8.612,17.888,17.888,0,0,0-2.785-8.19,18.035,18.035,0,0,1-1.927-5.882c-.2-.947-.4-1.927-.66-2.84l1.2-.639,2.063,1.513,1.037-4.206C-6993.257,10678.816-6993.353,10678.815-6993.46,10678.815Zm-144.692-.7h0c-6.7.6-8.144,1.962-8.583,8.1-.075,1.157-.192,2.343-.295,3.389-.186,1.9-.378,3.855-.378,5.788-.04,5.893-.026,11.909-.014,17.728v.185c.006,2.656.014,5.961.014,9.122.892-1.755,1.771-3.487,2.667-5.256,2.167-4.274,4.214-8.311,6.349-12.458,2.621-5.088,2.44-10.114-.553-15.368-1.024-1.8-1.858-3.676-2.6-5.33-.24-.539-.487-1.1-.717-1.588l4.105-4.313Zm-147.681,17.017h0c-2.057,5.3-1.344,10.6-.655,15.733a41.146,41.146,0,0,1,.48,11.138c.882-1.614,1.647-3.208,2.387-4.749.6-1.239,1.157-2.409,1.773-3.584.541-1.024,1.185-2.034,1.808-3.011l.007-.011a23.31,23.31,0,0,0,2.938-5.7c1.052-3.578,2.493-8.479,1.424-12.027-.615-2.02-.647-3.5-.1-4.648a7.6,7.6,0,0,1,2.74-2.715c.647-.451,1.28-.939,1.892-1.411l.021-.017c.221-.171.479-.37.734-.563-.3-.189-.615-.431-.9-.644l-.009-.007a4.092,4.092,0,0,0-1.86-1.02.646.646,0,0,0-.244.046,18.574,18.574,0,0,0-6.7,4.3,21.248,21.248,0,0,0-4.631,6.928l4.314,1.6-1.346,1.94-4.08-1.582Zm27.59,20.98-.2.278-.081.111c-1.011,1.4-1.742,2.406-3.109,4.28a14.562,14.562,0,0,1,1.505.342l.013,0a6.885,6.885,0,0,0,1.612.309,1.151,1.151,0,0,0,.725-.206c.736-.562,1.116-2.464.939-3.664-.112-.831-1.391-1.447-1.4-1.453Zm-18.367-7.208h0c9.239,3.429,9.239,3.429,8.193,11,2.177-.355,3.438-.941,4.217-1.96s1.151-2.53,1.252-5.18a14.35,14.35,0,0,0,6.051,1.509,10.13,10.13,0,0,0,3.921-.781,12.615,12.615,0,0,0,3.711-2.464l-22.646-4.736-.232,1.364,3.831,1.243Zm157.679,4.1h0l-5.581.292,3.26,3.951,3.054-3.283-.733-.96Zm-7.521-17.837h0a8.762,8.762,0,0,1,4.533,4.264,23.108,23.108,0,0,1,1.924,6.219,7.664,7.664,0,0,0,2.06,4.249,6.024,6.024,0,0,0,4.151,1.421c-.579-1.342-1.126-2.636-1.655-3.886l-.011-.026-.01-.024c-1.084-2.563-2.108-4.984-3.206-7.354-2.172-4.709-5.776-7.41-9.888-7.41a10.055,10.055,0,0,0-2.329.279l3.449,1.59.607.421-.616-.421h-4.406c.481.647,1.043,1.271,1.638,1.931l.013.015c1.391,1.544,2.827,3.138,3.334,5.166s.059,4.352-.373,6.608v.008c-.187.977-.379,1.986-.489,2.947,2.464-.062,4.375-.986,5.377-2.6,1.154-1.859,1.047-4.486-.3-7.4a49.906,49.906,0,0,0-3.8-6Zm-142.055-11.828c3.049,0,5.4,1.818,7.676,3.577l.023.019a32.875,32.875,0,0,0,2.684,1.933c-1.958,3.694-.728,6.678.462,9.563a25.719,25.719,0,0,1,1.133,3.121c4.982-6.082,5.3-8.951,1.527-13.953a23.132,23.132,0,0,0-5.051-4.446c-.582-.419-1.241-.895-1.851-1.366a11.631,11.631,0,0,0-3.226-1.794l-.237-.084-.165-.059a10.121,10.121,0,0,0-2.936-.754,1.373,1.373,0,0,0-.736.172c-.567.356-.693,1.612-.815,2.827-.048.483-.1.983-.177,1.424a.8.8,0,0,1-.09.02l.065.118.016-.087.009-.05A8.2,8.2,0,0,1-7268.506,10683.338Zm6.968-43.257a1.5,1.5,0,0,1,.636.114c.771.363,1.446,1.962,1.536,3.148a4.044,4.044,0,0,1-.752,2.054l-.011.02c-.193.343-.392.7-.558,1.067,4.84-.05,5.885-.993,5.885-5.312,3.993,3.574,6.628,5.033,9.1,5.033,1.759,0,3.535-.763,5.757-2.475l-18.72-8.071a50.512,50.512,0,0,0,5.766-9.913,45.275,45.275,0,0,0,3.064-10.257,49.516,49.516,0,0,0,.642-10.613,63.915,63.915,0,0,0-1.5-10.98c-1.5-6.812-2.168-7.455-8.97-8.615.25,2.576.521,5.049.783,7.44l.005.048.074.672,1.172-.086c.273-1.566.564-3.154.862-4.779l1.158.264c-.15.827-.225,1.705-.3,2.554a12.366,12.366,0,0,1-1.008,4.732c-5.066,9.309-6.511,17.558-4.547,25.96l1-1.058c1.613,3.821,1.981,6.729,1.161,9.148-.812,2.4-2.793,4.316-6.235,6.045a13.016,13.016,0,0,0-4.011,3.811,4.184,4.184,0,0,0-.527,2.1c-.031.348-.062.706-.121,1.031-1.438-2.395-2.386-4.245-3.223-5.878-.687-1.341-1.278-2.5-1.954-3.571-2.959-4.715-3.772-9.96-2.484-16.035.125-.586.293-1.2.441-1.736a12.034,12.034,0,0,0,.645-4.194,35.671,35.671,0,0,0-2.042-8.944,29.848,29.848,0,0,0-2-4.032l-.006-.01a26.88,26.88,0,0,1-2.154-4.474,8.817,8.817,0,0,1,.1-3.993l0-.022c.128-.8.26-1.619.337-2.517l2.8,2.819v-4.845c-5,.087-7.931,3.286-8.257,9.011-.443,7.761-.945,16.558-.052,25.069a24.621,24.621,0,0,0,3.33,9.877,68.982,68.982,0,0,0,5.925,8.275l.015.018c1.425,1.8,2.9,3.652,4.213,5.569.348.507,1.278.576,2.23.576.149,0,.3,0,.439,0l.384,0a2.9,2.9,0,0,0,1.118-.354,2.511,2.511,0,0,1,.9-.3.448.448,0,0,1,.247.064,4.967,4.967,0,0,0,2.494.913c1.283,0,2.18-1.063,2.821-3.346C-7263.776,10640.572-7262.456,10640.081-7261.538,10640.081Zm287.143-3.742-5.512,2.547a13.29,13.29,0,0,0,3.662,3.343,7.716,7.716,0,0,0,3.916,1.092,10.3,10.3,0,0,0,5.094-1.538c3.769-2.173,5.338-6.25,4.418-11.48-1.735-9.975-7.522-16.93-13.3-23.2,0,1.5.036,3.006.07,4.46a80.062,80.062,0,0,1-.177,9.978c-.531,5.349,1.519,9.1,3.814,12.354.819,1.152,1.622,4.123,1.208,4.479a8.7,8.7,0,0,1-3.368,1.452c-.432.119-.918.252-1.376.407l-.45-1.4,2.252-1.937-.249-.561Zm-16.708,5.774c.188,0,.343,0,.485,0,.219.144.42.282.6.413.147-.184.263-.318.344-.4l-.013,0a.14.14,0,0,1-.039.007c-.3-.015-.593-.023-.891-.026-.684-.452-1.429-.882-2.15-1.3-2.195-1.266-4.464-2.574-5.336-4.6a4.406,4.406,0,0,1,.911-4.724,16.855,16.855,0,0,1,4.092-3.327,14.008,14.008,0,0,0,5.781-6.463,20.332,20.332,0,0,0,1.374-9.042,18.557,18.557,0,0,1,.84-5.315c.191-.74.407-1.577.566-2.378l1.553.3c-.019.3-.038.6-.058.918-.058.915-.137,2.168-.272,4.451a38.857,38.857,0,0,1,5.814-9.144c2.293-2.475,4.674-3.678,7.279-3.678,2.515,0,5.2,1.1,8.208,3.373l.656-.94c-.221-.506-.408-1.086-.588-1.646l0-.009c-.395-1.229-.8-2.5-1.592-3.046a17.144,17.144,0,0,0-4.714-2.02l-.006,0c-.52-.161-1.109-.344-1.62-.534,3.319-2.686,4.8-4.026,5.395-5.382s.216-2.658-.856-5.056c-1.5,1.617-3.142,3.113-4.732,4.562l-.011.01a55.293,55.293,0,0,0-6.5,6.634,22.631,22.631,0,0,0-4.345,8.931l-1.633-.533-5.988-18.817a7.224,7.224,0,0,1-.75.5c-.811.5-1.819,1.122-2.026,2a17.923,17.923,0,0,0-.219,4.91v.006c.032.693.064,1.41.064,2.118-2.4.164-3.652.6-4.473,1.551-.839.973-1.229,2.524-1.343,5.356a16.437,16.437,0,0,1,6.106-1.369,9.662,9.662,0,0,1,6.483,2.427c-.611.609-1.223,1.2-1.816,1.772l-.142.138c-1.328,1.28-2.582,2.49-3.747,3.8-2.648,3.01-5.241,6.156-7.748,9.2l-.036.044-.367.445c-4.443,5.384-6.394,15.536-4.014,20.892,2.058,4.622,5.536,5.009,8.922,5.009.432,0,.853-.006,1.318-.012C-6991.926,10642.121-6991.519,10642.113-6991.1,10642.113Zm-127.085-56.744v0a12.041,12.041,0,0,1,.53,5.737,16.428,16.428,0,0,1-1.694,4.724c-.376.744-.79,1.5-1.189,2.223l-.008.014c-2.1,3.815-4.269,7.76-2.41,12.862.548,1.5,1.051,3.062,1.538,4.566l.011.035c.514,1.59,1.045,3.235,1.634,4.836,2.214,5.9,1.114,9.828-3.8,13.565a56.687,56.687,0,0,0-4.89,4.393l-.051.05c-.819.793-1.667,1.613-2.58,2.457a6.169,6.169,0,0,0,3.22,1.071c1.96,0,3.34-1.4,4.557-2.631l0,0a11.018,11.018,0,0,1,1.759-1.556,18.892,18.892,0,0,0,5.4-5.054,21.333,21.333,0,0,0,3-6.2c1.372-4.431,1.678-9.446,1.974-14.3.142-2.318.288-4.717.549-7.017l1.269-.707,7.262,10.251c1.848-2.549,2.532-4.756,2.031-6.561-.462-1.667-1.949-3.046-4.42-4.1,3.159-1.733,4.9-2.863,5.648-4.237.74-1.358.526-2.912-.2-5.676l-12.26,7.753a28.432,28.432,0,0,1-1.127-7.283v-.006c-.2-2.885-.382-5.61-1.514-7.639a5.78,5.78,0,0,0-2.524-2.431,10.273,10.273,0,0,0-4.656-.909h-.123c.361,1.9.716,3.769,1.094,5.736l1.956-3.969Zm-31.341,29.286a6.49,6.49,0,0,0-3.564,1.063c.666.856,1.356,1.707,1.965,2.457a63.563,63.563,0,0,1,4.229,5.622,43.156,43.156,0,0,1,2.244,4.122,34.542,34.542,0,0,0,2.819,4.958,25.162,25.162,0,0,0,6.283,5.815,1.881,1.881,0,0,0,1.072.272,6.736,6.736,0,0,0,1.52-.236,3.29,3.29,0,0,1,.591-.113c-.48-1.426-1.045-2.755-1.59-4.04-1.141-2.691-2.217-5.23-2.094-7.735s1.372-4.91,2.817-7.7c.685-1.321,1.393-2.687,2.047-4.189l-8.04,1.773a20.854,20.854,0,0,1,4.638-7.247,11.468,11.468,0,0,1,7.484-3.17c.47-.026.919-.768,1.354-1.485a10.523,10.523,0,0,1,.621-.947,8.287,8.287,0,0,1-.734-.74l-.008-.008a3.236,3.236,0,0,0-1.579-1.188,6.986,6.986,0,0,0-1.135-.09,14.256,14.256,0,0,0-7.9,3.007,15.209,15.209,0,0,0-5.5,6.772c-.625,1.75-.667,3.066-.125,3.913a2.961,2.961,0,0,0,2.383,1.163c-.271.028-.553.072-.827.115l-.027,0a9.644,9.644,0,0,1-1.464.156,2.445,2.445,0,0,1-1.137-.235C-7145.2,10615.688-7147.36,10614.655-7149.529,10614.655Zm154.755-28.281h0l-4.312,1.318,1.189,3.587,3.954-2.579-.831-2.326Zm-140.693,691.882h-9.432c.741-2.125,1.888-3.114,3.607-3.114a10.815,10.815,0,0,1,4.8,1.593h-6.206v.476l7.231.444v.6Zm-5.149-274.075h0a8.592,8.592,0,0,1-3.348-6,33.979,33.979,0,0,1,.957-14.013c.142-.484.284-.953.441-1.473a29.23,29.23,0,0,0,1.386-6.021,11.512,11.512,0,0,0-1.2-6.271c-.617-1.246.235-4.273,1.347-5.711.157-.2.314-.421.474-.645.8-1.118,1.712-2.387,3.141-2.387a3.7,3.7,0,0,1,2.026.728,5.954,5.954,0,0,0,3.027.646c1.26,0,2.219-.239,2.331-.581.549-1.625,1.224-2.449,2.006-2.449,1.057,0,2.058,1.5,2.54,2.217,1.721,2.56,3.863,5.744,4.055,8.868a42.154,42.154,0,0,1-.8,9.055l-.005.033c-.267,1.663-.543,3.384-.7,5.077-.077.781-.179,1.593-.278,2.378l-.008.066v.012a38.51,38.51,0,0,0-.434,5.441,157.625,157.625,0,0,0-16.962,11.031Z" transform="translate(7308 -10546.998)" fill="#f5f5f5"/>
</svg>
