<svg xmlns="http://www.w3.org/2000/svg" width="769.006" height="950.006" viewBox="0 0 769.006 950.006">
  <g id="Footer_Base" data-name="Footer Base" transform="translate(1.004 -431.998)">
    <path id="Opacity_Base" data-name="Opacity Base" d="M0,.234,768-.658s38.68,346.17-364.605,480.82c-228.8,56.457-199.35,199.586-45.325,221.116,366.725,51.262,409.9,248.032,409.9,248.032L0,949.344Z" transform="translate(-1 432.66)" fill="#ededed"/>
    <path id="Subtraction_6" data-name="Subtraction 6" d="M19156,20117l0,0v-949.111l768-.891v0l0,.006c.041.393,1.033,9.76,1,25.334-.02,9.348-.393,19.08-1.109,28.928-.9,12.338-2.346,24.9-4.295,37.33a464.908,464.908,0,0,1-24.432,92.539,452.665,452.665,0,0,1-23.293,51.553,447.705,447.705,0,0,1-32.787,52.633l-2.848-.477c.174-1.395.242-2.84.309-4.236l0-.012c.146-3.162.287-6.148,1.545-8.73a26.012,26.012,0,0,0,2.5-10.723,71.763,71.763,0,0,0-.73-10.68l0-.025,0-.016c-.277-2.328-.564-4.736-.682-7.088-.574-10.389-5.391-15.766-14.318-15.982l.063.18c.521,1.523,1.17,3.42,1.785,5.256l3.887-1.086c2.2,4.91-.326,8.379-2.771,11.734l-.07.1c-.15.205-.3.418-.455.627a13.645,13.645,0,0,0-2.82,7.461,18.153,18.153,0,0,0,1.666,7.867,91.631,91.631,0,0,1,5.457,20.1c.219,1.359.365,3.895-1.086,5.6a5.127,5.127,0,0,1-4.109,1.611,12.064,12.064,0,0,1-2.064-.2c.793,2.721,2.006,4.045,3.707,4.045a8.028,8.028,0,0,0,3.951-1.5,23.664,23.664,0,0,1,4.635-.471,456.987,456.987,0,0,1-36.768,43.738,484.15,484.15,0,0,1-45.633,42.033,534.155,534.155,0,0,1-55.437,39.23c-10.184,6.293-20.846,12.424-31.689,18.225-11.115,5.945-22.721,11.7-34.494,17.113a14.914,14.914,0,0,0-4.238-.48c-.838,0-1.789.033-2.908.1a35.067,35.067,0,0,0-6.918,1.406l-.01,0-.057.018c-1.064.291-2.166.594-3.264.842l.141-.131.066-.055a.6.6,0,0,1-.062-.027c-.021-.01-.043-.02-.064-.027l-.045-.02,0,.225-7.221,6.256c.531.639,1.049,1.3,1.535,1.961-16.064,6.678-32.945,12.98-50.176,18.734-67.295,16.6-117.2,42.045-144.33,73.576a48.328,48.328,0,0,1-4.227-7.766l-.078-.162c-.549-1.168-1.117-2.375-1.713-3.535l1.8-1.242,3.887,2.424c.148-.656.326-1.424.516-2.238l.086-.369.193-.846c.15-.65.3-1.318.459-1.984l-1.678-1.439a33.23,33.23,0,0,1-2.994,2.121c-2.283,1.5-4.645,3.051-4.877,4.811a192.946,192.946,0,0,0-1.217,23.551c-21.535,34.629-14.156,71.754,19.736,99.311-2.258,1.605-4.875,3.492-7.367,5.559a34.683,34.683,0,0,0-7.416,8.977c-.982,1.67-1.174,3.275-.529,4.4s2.059,1.717,4.094,1.717c9.2-.088,18.865-.316,27.393-.52l1.232-.027c3.1-.074,6.311-.148,9.457-.215-.033-.287-.068-.568-.107-.865l0-.023-.023-.17c-.027-.221-.057-.445-.084-.674l-27.959-11.969c1.174-.893,2.332-1.836,3.557-2.836l.049-.037c.191-.158.387-.316.58-.475.123-.1.246-.2.371-.3,21.57,16.33,51.264,27.52,85.865,32.359,16.984,2.373,33.762,5.135,49.867,8.209,15.578,2.971,30.957,6.316,45.709,9.943,14.266,3.506,28.3,7.363,41.727,11.463,12.947,3.949,25.705,8.244,37.922,12.762a582.885,582.885,0,0,1,65.141,28.557,471.39,471.39,0,0,1,52.049,31.15,25.848,25.848,0,0,0-.684,5.5c0,.531,1.105,1.084,3.031,1.514a29.231,29.231,0,0,0,5.979.641,16.97,16.97,0,0,0,2.186-.127,359.944,359.944,0,0,1,55.3,50.186,282.82,282.82,0,0,1,32.484,44.408,208.633,208.633,0,0,1,15.338,31.717,101.093,101.093,0,0,1,3.852,12.107L19156,20117Zm312.127-26.279a6.991,6.991,0,0,1,3.574.625,5.835,5.835,0,0,0,5.266-.389,45.007,45.007,0,0,0,5.389-5.623l.025-.027.094-.111c.715-.834,1.453-1.7,2.242-2.574l-29.631-9.213a37.385,37.385,0,0,0,.328-4.822c-.119-2.77-.172-5.594-.227-8.324-.133-7.027-.273-14.293-1.5-21.281a18.563,18.563,0,0,0-13.8-14.52,21.914,21.914,0,0,1-4.42-2.076l-.018-.012a25.06,25.06,0,0,0-3.928-1.926,9.4,9.4,0,0,0-2.982-.488,4.826,4.826,0,0,0-2.5.564,89.483,89.483,0,0,0-7.818,6.035l-.008.006c-.967.809-2.064,1.723-3.129,2.576a22.574,22.574,0,0,0-5.346,5.881,11.821,11.821,0,0,0-1.793,6.068,11.332,11.332,0,0,0,1.629,5.721,20.335,20.335,0,0,0,4.928,5.484l2.977-11.633-1.482-.258-2.2,4.928-2.086-.879c.5-.992.949-2.086,1.348-3.049l0-.008c.947-2.287,1.926-4.65,3.6-6.334a87.729,87.729,0,0,1,9.691-7.988l.063-.049c1.643-1.23,3.342-2.5,5.074-3.877l-1.156,5.438,1.656-.949a19.854,19.854,0,0,0,1.494,1.447l.008.008c1.1,1,2.238,2.025,2.027,2.619-1.863,5.082-.6,9.674,3.969,14.449a39.737,39.737,0,0,1,7.621,11.223,38.039,38.039,0,0,1,3.289,12.955,11.079,11.079,0,0,1-1.111,4.729c-.252.648-.564,1.453-.787,2.215l-1.576.264c1.639,2.186,2.314,3.09,3.508,3.09a11.883,11.883,0,0,0,3.516-1.027,9.579,9.579,0,0,1,3.385-.641,6.486,6.486,0,0,1,5.055,2.127,5.358,5.358,0,0,1,1.072,4.543c-.34,1.871-.187,3.168.469,3.967.881,1.068,2.559,1.092,4.182,1.115l.01,0Zm156.246-11.365c1.822,0,2.881.533,3.537,1.785.67,1.273.938,3.344,1.154,6.268a29.713,29.713,0,0,1,5.785,1.592c2.4,1.2,3.9,1.852,4.969,1.854,1.627,0,2.252-1.555,3.2-4.85l-6.943-3.262.691-1.186a18.65,18.65,0,0,0,8.568,2.363,13.208,13.208,0,0,0,8.256-2.918c-1.678-.518-3.381-1.092-5.029-1.648l-.113-.039-.076-.025c-3.342-1.125-6.8-2.291-10.4-3.127-3.738-.873-7.594-1.418-11.674-1.994-1.787-.252-3.814-.539-5.932-.869.891-.7,1.779-1.373,2.637-2.02l.117-.086a59.767,59.767,0,0,0,5.344-4.338c1.219-1.158,2.535-2.314,3.811-3.434l.018-.014c3.727-3.271,7.582-6.654,9.732-10.7,2.432-4.611,2.32-10.752,2.223-16.17,0-.316-.01-.627-.016-.936-.121-7.59-2.689-10.5-10.986-12.436a15.619,15.619,0,0,1-3.8-2.023c-.408-.227-.873-.551-1.324-.863a5.814,5.814,0,0,0-2.154-1.16.4.4,0,0,0-.191.043,11.143,11.143,0,0,0-2.783,2.725l-.006.008-.021.027c-.324.4-.662.818-1.006,1.2l.545,1.328a15.915,15.915,0,0,1,3.561-.461,6.5,6.5,0,0,1,4.6,1.57,8.322,8.322,0,0,1,2.25,5.268l2.176-4.354,2.313.729c-.271.859-.482,1.809-.67,2.645l0,.01a13.4,13.4,0,0,1-2.1,5.52c-3.006,3.672-3.629,7.684-4.084,12.166a34.288,34.288,0,0,1-2.586,8.8l0,.006c-.471,1.2-1.008,2.568-1.449,3.891-.3-1.451-.59-2.959-.848-4.291l-.029-.158a13.737,13.737,0,0,0-3.592,1.318,2.6,2.6,0,0,0-.641,1.672,8.293,8.293,0,0,1-.176.9l5.168.682.117-.121-.07.09c-.852.938-1.734,1.873-2.59,2.777a84.194,84.194,0,0,0-5.937,6.756,29.794,29.794,0,0,0-2.967,5.348c-.424.9-.906,1.926-1.451,2.977l-19.3-10.885c-.146.438-.338,1.021-.562,1.7l-.043.135-.164.5c-.291.881-.619,1.881-.951,2.875l-1.262-.762a21.745,21.745,0,0,1-1.41,1.771c-1.156,1.363-2.35,2.773-2.059,3.8a24.208,24.208,0,0,0,3.594,6.643l.053.078c.574.846,1.166,1.721,1.721,2.619a12.7,12.7,0,0,1,2.74-1.822,144.545,144.545,0,0,1,14.793-5.221,3.294,3.294,0,0,1,.82-.1,10.375,10.375,0,0,1,2.631.5,10.281,10.281,0,0,0,2.645.506,3.384,3.384,0,0,0,.756-.082A36.061,36.061,0,0,1,19624.369,20079.359Zm-375.436-53.129a22.09,22.09,0,0,0-7.1,1.672l-.008,0-.281.1a10.326,10.326,0,0,1-1.086.227c-15.838,3.051-22.859,11.561-22.1,26.779.154,3.311.455,6.746.721,9.777.426,4.861.867,9.887.818,14.795-.039,3.967-.01,6.275,1.1,7.619,1.092,1.322,3.266,1.752,7.432,2.17.631.061,1.238.092,1.807.092,3.068,0,5.27-.873,6.361-2.523,1.18-1.781,1.07-4.445-.312-7.707a93.928,93.928,0,0,1-3.133-9.061c-.361-1.18-.715-2.328-1.078-3.43-.348,6.307-.348,6.307-4.145,8.629a9.3,9.3,0,0,1-2.018-6.992,17.54,17.54,0,0,1,3.324-8.18c.547-.793,1.129-1.6,1.691-2.385l.07-.1c3.943-5.475,8.02-11.133,5.369-18.193-.7-1.865-.785-3.287-.248-4.346.732-1.455,2.484-2.047,4.7-2.67a9.7,9.7,0,0,1,2.674-.342,21.712,21.712,0,0,1,9.248,2.48c3.078,1.549,5.441,3.477,6.486,5.291l-7.365,9.859,8.633-4.957-.738.7c.52.555,1.2,1.154,1.793,1.684,1.246,1.1,2.424,2.148,2.2,2.668-1.508,3.6-3.354,6.221-5.488,7.791a4.232,4.232,0,0,1-2.57.615c-.82,0-1.723-.1-2.6-.186l-.021,0c-.693-.07-1.479-.152-2.168-.174-.111-.008-.205-.545-.3-1.064l-.014-.074c-.039-.215-.078-.439-.119-.613l3.262-.318c-.781-2.2-1.473-4.123-2.115-5.895-.373.352-.754.715-1.076,1.023l-.041.041c-.742.711-1.508,1.445-2.26,2.109-2.043,1.727-3.012,3.393-2.885,4.953.135,1.588,1.406,3.107,3.783,4.518a13.359,13.359,0,0,0,6.7,1.85,10.232,10.232,0,0,0,8-3.506,38.989,38.989,0,0,0,4.992-8.551l.01-.02c.725-1.516,1.475-3.084,2.344-4.707l10.016,7.139c.17-.5.375-1.01.553-1.451,1.127-2.83,2.291-5.756-2.355-7.822,3.43-.475,5.844-1.406,7.379-2.85a6.588,6.588,0,0,0,1.922-5.689c-1.58.266-3.193.551-4.709.822l-.07.012c-4.215.746-8.57,1.518-12.912,1.984a1.853,1.853,0,0,1-.236.014c-1.393,0-3.086-1.209-4.564-2.342a106.547,106.547,0,0,1-10.92-8.562A8.884,8.884,0,0,0,19248.934,20026.23Zm542.18,42.5c-.4.875-.816,1.752-1.236,2.65l-.021.043c-1.111,2.373-2.26,4.828-3.326,7.346a3.146,3.146,0,0,0,.2,2.514c.369.65,1.7,1.34,3.645,1.889a23.017,23.017,0,0,0,5.867.846c1.273,0,2.965-.158,3.791-.906,1.328-1.24,1.029-4.287.791-6.736-.01-.1-.021-.2-.031-.3l-.018-.193a19.654,19.654,0,0,0-1.736-5.1Zm14.324-11c-2.635,0-3.631.971-5.281,2.578,1.049.455,2.215.881,3.244,1.258,5.576,2.041,11.336,4.152,9.992,12.691.465-.432,1.006-.855,1.484-1.229a9.069,9.069,0,0,0,2.783-2.9c1.307-2.959,3.117-4.057,6.68-4.057h.023a13.829,13.829,0,0,0,5.133-1.441l.063-.027c.727-.3,1.479-.621,2.217-.869C19815.707,20059.49,19809.055,20057.732,19805.438,20057.732Zm17.639,8.467c-.488.719-.992,1.361-1.437,1.928l-.043.053c-.895,1.141-1.6,2.041-1.551,2.773a4.389,4.389,0,0,0,3.047,2.865.4.4,0,0,0,.086-.006,4.516,4.516,0,0,0,3.252-2.99c.076-.77-.66-1.57-1.676-2.68C19824.234,20067.578,19823.648,20066.939,19823.076,20066.2Zm-54.139-12.062a1.5,1.5,0,0,0-.6.1,4.264,4.264,0,0,0-2.061,3.691,79.8,79.8,0,0,0,2.967,9.486,30.76,30.76,0,0,0,5.8-2.064c2.617-1.131,5.32-2.3,8.035-2.3a10.081,10.081,0,0,1,7.27,3.361c.8-1.268,1.609-2.52,2.461-3.846l.346-.539c2.287-3.564,4.65-7.248,6.928-11.014,3.994-6.639,7.355-13.844.889-22.492l10.658-2.75c-.436-.266-.891-.6-1.33-.922l-.078-.059c-1.08-.795-2.193-1.613-3.168-1.613a1.375,1.375,0,0,0-.215.016,23.463,23.463,0,0,0-8.811,2.816,12.992,12.992,0,0,0-5.746,6.516,82.969,82.969,0,0,0-3.7,14.434v.006c-.217,1.123-.469,2.424-.725,3.68a56.211,56.211,0,0,0-.592,7.8l-1.969.5-8.756-9.229a20.577,20.577,0,0,1-.807,2.018l0,.006c-.629,1.428-1.225,2.777-.844,3.813.426,1.145,1.7,2,3.178,2.982.7.469,1.43.953,2.133,1.512-.783-.168-1.572-.258-2.334-.344l-.025,0c-2.771-.314-5.162-.586-5.539-4.268C19772.232,20054.949,19770.131,20054.137,19768.938,20054.137Zm-147.811-28.428c-4.623,1.656-7.625,5.947-8.676,12.408-1.064,6.51-.107,14.992,2.766,24.531a40.615,40.615,0,0,0,3.271-4.473,26.982,26.982,0,0,0,1.518-4.061l8.523-1.217,0-4.145-.02,0c-.611,0-1.273.053-1.807.1l-.014,0c-.516.041-1,.08-1.408.08-.6,0-.936-.09-1.055-.281-.381-.592-.789-1.193-1.244-1.863-1.76-2.584-3.578-5.258-3.859-8.027-.3-2.969.438-6.1,1.152-9.123l.02-.08C19620.6,20028.293,19620.9,20026.984,19621.127,20025.709Zm196.189,20.5-5.715,4.916c2.816.984,5.73,2,8.563,2.006a9.66,9.66,0,0,0,7.275-3.229,15.883,15.883,0,0,0,2.871-4.107,13.827,13.827,0,0,0,1.24-4.357,20.1,20.1,0,0,0-1.4-9.234,14.242,14.242,0,0,0-4.473-6.215,23.4,23.4,0,0,0-6.957-3.756c-1.217-.441-2.443-.855-3.631-1.256l-.088-.031-.047-.014c-.482-.164-.965-.326-1.449-.492l-.287.879-.193.6c-.406,1.252-.826,2.547-1.234,3.826h-.02l-.014,0-.014,0-.121.037.117.072.006.037,0-.008a.135.135,0,0,1,.006-.016.068.068,0,0,1,.025.01l.014.006.012.008-.033-.08a.337.337,0,0,0,.014-.041l0-.012a19.824,19.824,0,0,1,7.377,3.021,12.136,12.136,0,0,1,4.264,4.977,10.618,10.618,0,0,1,.875,5.357,14.549,14.549,0,0,1-1.984,5.928c-.453.807-1.619,1.236-2.748,1.65l-.01,0a14.885,14.885,0,0,0-1.5.609Zm-587.041-71.373c1.635,2.611,3.486,5.57,5.506,5.658.586.025,1.182.049,1.758.07l.359.016a71.788,71.788,0,0,1,13.855,1.424,26.737,26.737,0,0,1,6.391,2.369,23.107,23.107,0,0,1,5.793,4.355c1.037-3.277,1.021-5.646-.049-7.244-.961-1.428-2.75-2.23-5.469-2.447-1.914-.16-3.951-.232-6.41-.232-1.7,0-3.363.035-4.971.07h-.09c-1.514.033-2.945.066-4.307.066,1.912-.215,3.945-.389,5.74-.539l.008,0a109.219,109.219,0,0,0,14.371-1.879c2.4-.523,4.039-1.838,4.629-3.7a5.978,5.978,0,0,0-.1-3.613,10.782,10.782,0,0,0-2.381-3.9,30.4,30.4,0,0,1-10.559,8.445,29.486,29.486,0,0,1-12.578,2.646A47.138,47.138,0,0,1,19230.275,19974.838Zm217.2,1.5-4.775,4.254c.328.3.7.693,1.092,1.109.752.8,1.529,1.629,1.947,1.629a.256.256,0,0,0,.092-.018,7.179,7.179,0,0,0,3.555-3.262c.211-.426-.285-1.172-.912-2.117C19448.168,19977.486,19447.795,19976.928,19447.473,19976.338Zm-16.994-2.547a3.494,3.494,0,0,1,2.7,1.207,10.327,10.327,0,0,1,1.7,2.963,32.21,32.21,0,0,1,1.211,4.842l1.783.359,3.469-9.084a27.37,27.37,0,0,0,6.895,1.178,11.239,11.239,0,0,0,6.8-2.379c-1.973-.547-4.008-1.072-5.975-1.58l-.379-.1c-4.7-1.209-9.561-2.461-14.225-4.105a34.167,34.167,0,0,0-11.785-2.053,48.88,48.88,0,0,0-15.424,2.8,4.175,4.175,0,0,0-2.316,3.1,3.83,3.83,0,0,0,2.316,2.988c.959.2,1.941.42,2.893.635l.1.023a45.6,45.6,0,0,0,9.953,1.508,16.964,16.964,0,0,0,7.234-1.5A7.467,7.467,0,0,1,19430.479,19973.791Zm-159.689.416a36.073,36.073,0,0,0-4.014,4.688c-.027.043,0,.133.072.273.371.67,1.826,2.193,2.412,2.193a.162.162,0,0,0,.061-.008,14.96,14.96,0,0,0,3.943-1.84l.16-.092c.605-.35,1.291-.744,2.051-1.148Zm369.459-6.58c-2.1,0-2.936,1.711-3.738,3.367-.248.512-.5,1.039-.795,1.514-.7,1.131-.828,2-.418,2.75a5.133,5.133,0,0,0,1.863,1.6l.021.012a6.454,6.454,0,0,1,1.76,1.408,3.769,3.769,0,0,0,3.135,1.785,8.98,8.98,0,0,0,2.445-.477l.018,0a8.608,8.608,0,0,1,2.426-.486,3.179,3.179,0,0,1,.979.143c.186-.652.434-1.312.652-1.895l0-.006a11.321,11.321,0,0,0,.986-4.27,14.043,14.043,0,0,0-1.189-4.459l-.025-.066c-.227-.588-.459-1.2-.652-1.8l.01,0,.031-.01c.02-.008.039-.016.059-.021l-.02-.01c-.021-.051-.041-.1-.061-.139,0,0-.006.006-.01.008l0,0a.041.041,0,0,1-.008.012.254.254,0,0,0-.02.029l-.031-.02a.19.19,0,0,1,.012.027.091.091,0,0,0,.006.018l-.008.008,0,0-.006.006.021.01.008.02a.1.1,0,0,0,.008.021l.006.018c0,.006.006.014.008.021-.51.172-1.061.424-1.594.666l-.021.01a7.766,7.766,0,0,1-2.764.908,1.542,1.542,0,0,1-.568-.1A6.664,6.664,0,0,0,19640.248,19967.627Zm-398.32-44.633v0a3.278,3.278,0,0,0-.814.092,30.477,30.477,0,0,0-8.785,3.986,24.3,24.3,0,0,0-6.74,6.969,27.662,27.662,0,0,0-3.686,8.91,34.45,34.45,0,0,0-.77,10.148,30.675,30.675,0,0,0,7.59,18.73,26.966,26.966,0,0,1,1.646-12.844,52.444,52.444,0,0,1,6.145-11.092c3.129-4.537,3.764-9.086,1.885-13.525-.984-2.318-1.158-4.041-.547-5.424.674-1.527,2.3-2.672,5.275-3.713a20.306,20.306,0,0,0,3.469-2.051,53.157,53.157,0,0,0,4.992,2.84l.031.018c5.838,3.047,11.875,6.2,11.465,14.717l-3.842.814,3.854,6.031a33.855,33.855,0,0,1,2.248-2.658l.006-.008c1.479-1.635,2.758-3.047,2.9-4.564a15.081,15.081,0,0,0-.738-6.771,14.267,14.267,0,0,0-3.227-5.049c-2.8-2.914-6.627-5.025-10.68-7.26l-.02-.012c-.684-.375-1.23-.678-1.721-.951a9.22,9.22,0,0,0-4.293-1.41c-1.9,0-3.352,1.168-4.846,3.9-.086.148-.412.16-.789.17Zm186.18-4.139v0l10.99,5.85c-.213,1.326-.463,2.547-.686,3.625l0,.016a26.755,26.755,0,0,0-.816,6.588,61.468,61.468,0,0,0,2.117,11.238c.16.654.332,1.322.5,1.967l.012.039,0,.012a39.875,39.875,0,0,1,1.684,9.768,15.249,15.249,0,0,1-3.354,9.748,6.653,6.653,0,0,0,3.67-1.15c8.521-7.5,12.965-15.951,13.207-25.113.262-9.32-3.984-19.717-14.064-21.934a63.035,63.035,0,0,1-7.227-2.223l-.039-.014c-1.982-.7-4.031-1.428-6.129-1.965a2.4,2.4,0,0,0-.629-.074,8.627,8.627,0,0,0-3.77,1.324,13.772,13.772,0,0,0-2.332,1.824l0,0-.016.016a13.329,13.329,0,0,1-2.277,1.777,19.725,19.725,0,0,0-10.41,15.936c-.365,3.529.439,6.5,2.332,8.6a9.64,9.64,0,0,0,7.408,2.99,16.588,16.588,0,0,0,4.648-.713,19.78,19.78,0,0,1,3.342-.287h.223l-5.064-5.066-2.141,2.7a14.753,14.753,0,0,1-3.246-5.131,12.839,12.839,0,0,1-.764-5.5,12.623,12.623,0,0,1,5.166-9.117l7.67-5.729Zm208.092,1.9c4.727,4.566,3.189,9.061,1.854,11.334-5.107,8.6-2.137,15.154,4.311,22.951,1.852,2.236,2.918,5.111,3.947,7.893l.006.012c.443,1.2.9,2.436,1.42,3.605.2-.266.447-.535.686-.8l.01-.01c.588-.643,1.2-1.307,1.2-1.988.061-1.074.133-2.143.215-3.328a84.983,84.983,0,0,0,.141-14.822,88.1,88.1,0,0,0-4.488-20.676c-1.062-2.92-5.469-5.162-8.383-6.646a29.857,29.857,0,0,0-8.457-2.273l-.029,0c-.168-.029-.334-.057-.5-.084-.213-.037-.426-.072-.637-.107a6.411,6.411,0,0,0-4.361.705c-.65.471-.336,2.342-.129,3.58l0,.012.01.053a18.523,18.523,0,0,0,.764,2.688l.006.021,0,.01c.58,1.717,1.129,3.336.67,4.748a66.472,66.472,0,0,1-4.541,9.834l0,.006-.105.2c-.7,1.33-1.426,2.707-2.115,4.1l5.1.391,4.182,7.535,1.523-.57,0-29.2,1.281-.687,5.357,5.625c.143-.535.289-1.1.475-1.824l.08-.3C19635.838,19922.162,19636.006,19921.51,19636.2,19920.76Zm-15.434-3.156-.133,0c-9.439,0-17.531,9.137-21.117,23.848.988-.684,1.922-1.254,2.746-1.756l.008,0a14.309,14.309,0,0,0,3.945-3.025,14.621,14.621,0,0,0,2.076-4.463l.031-.086c.266-.777.541-1.58.877-2.4,1.041,4.6,1.42,5.924,3.184,5.924a14.486,14.486,0,0,0,3.213-.631c-2.137-2.629-3.025-5.078-2.717-7.486C19613.287,19924.359,19615.719,19921.3,19620.766,19917.6Zm-388.986-78.693h0c-.6,2.135-1.264,4.3-1.908,6.391l-.031.1a110.829,110.829,0,0,0-3.84,14.9,12.943,12.943,0,0,0,.08,4.889,9.016,9.016,0,0,0,1.834,3.779c2.148,2.6,5.848,4.057,10.7,4.217a56.7,56.7,0,0,1,11.037,1.166,11.364,11.364,0,0,1,3.982,2.262l.012.01c.512.389,1.041.791,1.559,1.121l-7.088,3.938.727,1.242a20.4,20.4,0,0,0,4.787-.871c.143-.064.291-.129.443-.193l.2-.084.008,0c1.99-.859,4.469-1.926,4.654-3.158a7.368,7.368,0,0,0-2.742-6.094,30.467,30.467,0,0,0-7.254-3.24l-.025-.01c-.861-.3-1.836-.635-2.8-1-3.852-1.473-6.391-3.191-7.148-7.191-.979-5.168-2.3-10.367-3.588-15.4l-.006-.023-.1-.387c-.5-1.973-1.023-4.014-1.512-6.02Zm214.689,38.488a12.94,12.94,0,0,1,3.074,2.8c.955,1.639,2.031,2.471,3.2,2.471a4.185,4.185,0,0,0,2.918-1.613,60.333,60.333,0,0,0,4.873-6.594c-1.32-4.393-2.879-9.609-4.387-14.686-.076-.25-.145-.514-.211-.768l0-.016c-.406-1.559-.826-3.168-2.662-3.168a5.734,5.734,0,0,0-1.971.434,25.218,25.218,0,0,1-1.963,10.693,17.932,17.932,0,0,1-7.74,8.232l.994,1.475,12.354-3.871c-.08.41-.178.891-.309,1.512l-.025.131c-.2.947-.416,2.018-.57,2.961Zm-204.547-35.768a8.061,8.061,0,0,0-4.691,1.469c1.285.451,2.576.807,3.822,1.152l.01,0c2.656.734,5.164,1.428,6.877,2.848,1.73,1.43,2.7,3.619,3.721,5.936l.006.016c.424.961.9,2.051,1.447,3.057,2.059-1.2,3.215-2.561,3.434-4.051s-.5-3.143-2.141-4.891a17.184,17.184,0,0,0,6.271,1.576c2.643,0,4.557-1.307,6.4-4.363l-17.812-1.246-.051-.037c-.8-.164-1.623-.389-2.35-.586l-.035-.008A19.045,19.045,0,0,0,19241.922,19841.631Zm-10.986-16.1v0c.4,2.125.7,3.678.953,5.047l.121.643c.137.74.25,1.352.359,1.928l1.449.512a36.629,36.629,0,0,1,1.516-3.416c1.254-2.6,2.549-5.275,1.951-7.467a5.4,5.4,0,0,0-2.1-3.125,6.529,6.529,0,0,0-3.82-1.125,10.752,10.752,0,0,0-4.49,1.07c-4.537,2.088-3.771,5.051-3.1,7.666.355,1.369.688,2.66.2,3.664l6.953-5.4Zm37.768-45.916c-1.3,1.814-2.4,3.379-3.387,4.785.418.123.928.313,1.42.494l.129.049.016,0a9.615,9.615,0,0,0,2.283.688.3.3,0,0,0,.246-.078,9.587,9.587,0,0,0,1.484-3.309l.012-.041c.137-.441.277-.9.438-1.332Zm-18.879-6.664a6.576,6.576,0,0,1,5.607,2.828c1.287,1.7,2.4,4.252,3.721,8.545,1.367-2.422,2.982-5.273,4.82-8.5a11.4,11.4,0,0,0,4.7,1.055c3.049,0,6.068-1.316,8.977-3.908l-32.322-4.625c-.053-.131-.1-.264-.158-.4-.045-.117-.094-.238-.141-.363l-.025-.061c-.529-1.34-1.187-3.006-2.145-5.506,1.352-.66,2.689-1.34,4.105-2.061,3.229-1.646,6.568-3.35,10.066-4.766a29.338,29.338,0,0,0,6.869-3.816,18.636,18.636,0,0,0,4.584-5,17.091,17.091,0,0,0,2.273-6.236,24.352,24.352,0,0,0-.064-7.512c-1.092-7.15-6.961-13.937-13.082-15.133.625.852,1.244,1.691,1.842,2.5l.078.107c1.131,1.531,2.146,2.912,3.16,4.3-2.975,2.711-5.828,7.287-7.637,12.242a26.451,26.451,0,0,0-1.559,6.426,7.365,7.365,0,0,0,.678,4.541,14.312,14.312,0,0,0-5.6,2.936,24.319,24.319,0,0,0-4.793,5.326,23.107,23.107,0,0,0-3.043,6.451,12.862,12.862,0,0,0-.35,6.311,17.71,17.71,0,0,1-5.611.979,16.383,16.383,0,0,1-8.895-2.795,53.957,53.957,0,0,1-7.484-6.135q-.445-.41-.891-.818l-1.506,1.363c1.266,1.709,2.5,3.432,3.7,5.1l.094.131c1.051,1.465,2.17,3.025,3.3,4.559a11.783,11.783,0,0,0-4.687,3.2,8.908,8.908,0,0,0-2.072,5.779c1.621-.717,3.176-1.477,4.68-2.211l.135-.064a55.047,55.047,0,0,1,9.58-3.98,14.478,14.478,0,0,1,3.924-.475c1.3,0,2.582.113,3.943.23l.031,0,.053,0c1.348.113,2.74.232,4.152.232a18.5,18.5,0,0,0,4.092-.418,13.08,13.08,0,0,1,2.9-.361v0Zm-23.365-32.658c1.256,5.4,6.639,11.264,12.654,11.389h.076c2.461,0,5.2-2.439,7.393-4.4l.365-.326.184-.162c.8-.707.426-2.9.178-4.344l-.014-.084a7.371,7.371,0,0,0-2.426-4.779,7.106,7.106,0,0,0-4.568-1.318,24.268,24.268,0,0,0-5.064.656c1.73.99,2.668,1.955,2.863,2.943.234,1.174-.6,2.258-1.414,3.307-.881,1.141-1.791,2.316-1.377,3.629l-1.551.859Zm5.953-132.09c-3.717.557-6.145,2-7.422,4.418-1.242,2.357-1.266,5.408-1.123,8.08a31.745,31.745,0,0,1-.326,5.418l-.014.125c-.125,1.078-.254,2.193-.307,3.287-.066,1.32-.146,2.678-.23,4.068a118.526,118.526,0,0,0-.3,12.84c.082,1.67,1.109,3.344,2.1,4.961l0,.008c.344.559.732,1.189,1.059,1.8.537,1.018,1.07,2.1,1.539,3.061l.008.012a41.854,41.854,0,0,0,4.561,7.809,54.184,54.184,0,0,0,9.783,8.846,3.823,3.823,0,0,0,2.207.459c.3,0,.627-.01.971-.021l.184-.006.078,0,.1,0,.148,0c.367-.01.748-.018,1.146-.018.422,0,.809.008,1.182.029-1.187-1.2-2.2-2.287-3.1-3.244a48.318,48.318,0,0,0-4.529-4.451c-6.42-5.3-8.51-12.238-6.039-20.053,1.648-5.215,2.229-9.453,1.82-13.338a21.838,21.838,0,0,0-5.6-12.32l-.018-.021-.006-.006c-1.184-1.35-2.969-3.389-2.52-5.271.279-1.168,1.391-2.152,3.3-2.924.586-.234.807-1.266,1.02-2.262A11.367,11.367,0,0,1,19232.412,19608.207Zm173.074,37.168h0a21.186,21.186,0,0,0,2.818,15.092,20.869,20.869,0,0,0,12.355,8.979,11.371,11.371,0,0,0,2.867.471,3.733,3.733,0,0,0,2.572-.908,9.817,9.817,0,0,0,2.1-2.99,15.855,15.855,0,0,1-3.465.4,11.167,11.167,0,0,1-6.795-2.086,9.563,9.563,0,0,1-3.619-6.156,32.231,32.231,0,0,1,1.285-15.732c.188-.547.385-1.09.576-1.615l.014-.037a28.585,28.585,0,0,0,1.857-6.764,11.176,11.176,0,0,0-1.607-7.049,4.235,4.235,0,0,1,.049-3.164,8.984,8.984,0,0,1,1.76-3.242c.18-.193.355-.4.543-.615l.1-.109c1.074-1.258,2.293-2.682,4.211-2.682a5.589,5.589,0,0,1,2.713.816,9.281,9.281,0,0,0,4.063.729c1.689,0,2.973-.27,3.121-.652.736-1.828,1.645-2.754,2.693-2.754,1.416,0,2.758,1.678,3.4,2.484l0,.006.01.01c2.3,2.875,5.168,6.451,5.428,9.947a39.955,39.955,0,0,1-1.062,10.141l-.006.021c-.359,1.879-.732,3.822-.945,5.746-.1.865-.238,1.766-.369,2.639l-.016.094v.012c-.486,3.211-.988,6.533-.088,9.4l.084.279c.969,3.1,1.5,4.8,1.225,6.08-.287,1.3-1.424,2.125-3.705,3.379l-8.5-.443-.105,2.543c1.23,0,2.539.111,3.8.219s2.574.219,3.8.219a10.217,10.217,0,0,0,4.27-.74c3.205-1.445,5.633-4.523,7.982-7.5l.154-.193c.281-.355.572-.725.855-1.076a4.257,4.257,0,0,0,.488-2.584l0-.01a4.126,4.126,0,0,1,.508-2.586c3.77-4.566,4.381-10.109,1.818-16.475a95.706,95.706,0,0,0-10.324-18.215c-1.686-2.451-5.168-4.055-7.967-5.342a4.3,4.3,0,0,0-1.742-.3,4.779,4.779,0,0,0-3.2.955c-1.453,1.693-2.537,2.383-3.738,2.385a5.32,5.32,0,0,1-3.082-1.295,4.837,4.837,0,0,0-2.416-.641h0a4.837,4.837,0,0,0-1.795.34,153.2,153.2,0,0,0-13.586,9.646c-.447.357-.258,1.432-.041,2.674l0,.023a20.4,20.4,0,0,1,.3,2.059,7.661,7.661,0,0,0-4.254,4.367,15.549,15.549,0,0,0-1.1,6.861,25.894,25.894,0,0,0,2.088,8.748Zm-152.133,6.295a10.5,10.5,0,0,0-2.754.408c.35.814.828,1.674,1.291,2.5l.027.051c1.1,1.955,2.23,3.977,1.867,5.705-.43,2.016-2.111,3.828-3.893,5.746l-.008.008c-.779.84-1.662,1.789-2.451,2.787a23.4,23.4,0,0,0,2.484.137,17.073,17.073,0,0,0,5.932-.986,15.728,15.728,0,0,0,4.541-2.607,39.466,39.466,0,0,0,6.8-7.963l.014-.021a50.719,50.719,0,0,1,5.455-6.795c-.482-.043-.963-.064-1.428-.064-6.4,0-8.377,4.244-10.287,8.348-.416.9-.85,1.83-1.32,2.693.15-3.881-.574-6.682-2.154-8.326A5.472,5.472,0,0,0,19253.354,19651.67Zm-8.975-25.006-.1.82,5.309.742-6.941.922c3.838.666,6.184,1.836,7.172,3.576.8,1.4.752,3.215-.139,5.535l1.5.477c2.375-2.832,4.188-4.982,5.877-6.975a14.3,14.3,0,0,0,5.547,1.3,8.362,8.362,0,0,0,3.947-.947,10.035,10.035,0,0,0,3.229-2.8Zm203.525-13.34a54.161,54.161,0,0,0-5.949.42,75.953,75.953,0,0,1,7.068,3.371,51.022,51.022,0,0,1,4.676,3.332l0,0c.82.629,1.566,1.2,2.4,1.814-.283-3.682-.855-5.709-1.975-7C19452.939,19613.9,19451.078,19613.324,19447.9,19613.324Zm154.426-2.893a13.964,13.964,0,0,0-6.945,2.215c.916.33,1.846.658,2.744.975,2.209.775,4.494,1.578,6.742,2.482,2.744,1.094,5.512,2.346,7.953,3.451.344.152.691.311,1.041.467.461.209.926.418,1.387.623v-1.156a4.726,4.726,0,0,0,2.688-2.523,10.35,10.35,0,0,0,.6-3.3c.129-1.818.266-3.7,1.871-5-3.91.748-5.871,1.643-6.771,3.086-.852,1.371-.811,3.336.145,6.783l1.422.924-1.514-.924c-.375-.41-.773-.828-1.111-1.182l-.055-.057c-.711-.746-1.445-1.518-2.1-2.32C19607.969,19611.918,19605.32,19610.432,19602.33,19610.432Zm-185.893,1.271c-5.092,0-8.508.541-10.752,1.7a6.094,6.094,0,0,0-3.459,5.41l20.641-6.889C19420.436,19611.777,19418.332,19611.7,19416.438,19611.7Zm-156.988-53.035c-2.8,4.158-4.389,6.607-4.457,8.6a4.268,4.268,0,0,0,1.012,2.795,23.3,23.3,0,0,0,3.285,3.236,5.947,5.947,0,0,0,3.492.758c2.373,0,5.252-.584,5.762-1.529,1.273-2.369,1.482-5.232,1.725-8.551l0-.018c.1-1.354.207-2.887.414-4.488l-6.584,2.949C19262.973,19561.5,19261.428,19560.24,19259.449,19558.668Zm353.525-29.023a7.394,7.394,0,0,1-.338,3.85,72.829,72.829,0,0,1-3.021,7.75l-.025.055-.064.152c-.447,1.029-.91,2.094-1.342,3.145a20.49,20.49,0,0,0-.279,10.27,14.761,14.761,0,0,0,6.418,8.41,24.2,24.2,0,0,1,3.59,3.27l.016.02a26.837,26.837,0,0,0,3.338,3.107,6.266,6.266,0,0,0,3.174.746c.5.033,1.072.074,1.582.156-1.039-1.186-2.1-2.314-3.115-3.4l-.094-.1-.016-.014c-2.887-3.088-5.613-6-7.135-9.3-1.7-3.664-1.744-7.432-.146-11.854,1.623-4.516,3.3-9.184,3.363-13.635a15.457,15.457,0,0,0-1.295-6.58,18.775,18.775,0,0,0-4.836-6.377c-1.35-1.219-2.58-3.334-2.1-5.1.4-1.457,1.846-2.445,4.3-2.937.344-.049.57-.605.832-1.25.137-.34.264-.643.412-.926-8.2.01-8.846.512-9.861,7.7-.137.957-.316,1.926-.488,2.865l-.021.105c-.1.537-.207,1.113-.3,1.684-.568,3.289.717,5.166,3.932,5.734-.518.242-1.178.479-1.816.705-1.377.49-2.8,1-2.844,1.594-.318,4.107-.283,8.2-.246,12.939l0,.418c.014,1.525.027,3.1.027,4.762l3.557-2.984c.42-1.02.867-2.053,1.3-3.051l.09-.2a74.339,74.339,0,0,0,3.064-7.848,7.38,7.38,0,0,0,.387-3.869Zm-204.639,25.918c-2.668,3.6-4.168,5.723-3.969,7.451.2,1.709,2,3.131,5.428,5.705l7.912-2.59-1.641-9.967-4.721,3.08Zm227.334-7.334a7.9,7.9,0,0,0-3.844,1.164c.469.543,1.018,1.076,1.547,1.594a11.015,11.015,0,0,1,2.941,3.793c1.9,5.287-1.66,7.363-5.432,9.563a34.739,34.739,0,0,0-3.2,2.023,23.807,23.807,0,0,0,4.432.42,24.174,24.174,0,0,0,5.029-.535,14.611,14.611,0,0,0,7.5-4.459,37.81,37.81,0,0,0,4.711-6.949l0-.01a39.3,39.3,0,0,1,5.053-7.389,17.005,17.005,0,0,0-3.234-.35c-4.209,0-6.559,2.193-8.383,7.826a15.643,15.643,0,0,0-3.3-5.057A5.472,5.472,0,0,0,19635.67,19548.229Zm-196.537.2-2.383,1.09c.074.465.146,1.068.217,1.65l0,.039,0,.023a7.811,7.811,0,0,0,.467,2.51c.58,0,1.189.025,1.834.053l.121.006c.652.029,1.465.066,2.23.066,1.469,0,3.307-.115,4.479-1a68.928,68.928,0,0,0,8.66-8.193l.02-.02c1.09-1.16,2.219-2.359,3.367-3.51l-.789-1.141-6.734,3.264-6.209-3.262c.07.2.139.4.2.564.828,2.363,1.611,4.6,1.359,6.676-.271,2.295-1.771,4.219-4.719,6.055Zm-184.928-36.795a6.534,6.534,0,0,0-.723.039,4.514,4.514,0,0,0-2.025,1.207c-.463.373-1.164.936-2.068,1.564,3.947.3,6.395,1.238,7.479,2.883,1.2,1.816.723,4.313-.365,7.5a11.488,11.488,0,0,0,.729,8.164c2.357,4.539,5.068,8.92,7.938,13.557l0,.008c1.2,1.939,2.443,3.943,3.693,6.02.246-1.578.527-3.033.8-4.441l.029-.158a41.111,41.111,0,0,0,1.063-8.316,126.392,126.392,0,0,0-1.656-17.8c-.328-2.027-2.477-4.555-5.75-6.76C19260.176,19512.955,19256.672,19511.629,19254.205,19511.629Zm20.563,30.908c.342.744.674,1.471,1,2.189l.176.387.3.646c.979,2.141,1.9,4.164,2.885,6.344,2.982-.711,4.123-2.752,3.7-6.615a22.067,22.067,0,0,0,3.955,2.787,7.27,7.27,0,0,0,3.363.926c1.871,0,3.744-.9,6.268-3.016l-21.74-6.871-.377,1.146,4.623,2.074Zm148.539-10.99c1.975,2.533,2.461,5.719,2.93,8.8l0,.014a27.537,27.537,0,0,0,1.34,5.91,9.8,9.8,0,0,0,3.824,4.789l5.381-12.254-6.689,3.037c-.055-.275-.105-.547-.162-.82l0-.012a19.59,19.59,0,0,0-1.7-5.691A7.71,7.71,0,0,0,19423.307,19531.547Zm-7.207-23.512c-3.68.293-6.447,1.617-8.227,3.938a11.173,11.173,0,0,0-2.084,5.262,22.642,22.642,0,0,0,.291,7.318,22.888,22.888,0,0,1,3.109.6,33.026,33.026,0,0,1,3.322,1.514l-.035,1.752-6.937.688a17.772,17.772,0,0,0-1.039,8.85,61.356,61.356,0,0,0,1.957,9.209l.063.23c.289,1.088.586,2.213.857,3.328.729-1.078,1.457-2.191,2.1-3.172l.027-.045c1.5-2.295,2.924-4.461,4.535-6.572,2.654-3.482,4.031-6.656,4.207-9.705.193-3.385-1.07-6.637-3.863-9.939a11.39,11.39,0,0,1-2.428-7.814c.148-1.412,1.455-2.7,2.719-3.937A19.661,19.661,0,0,0,19416.1,19508.035Zm-167.166.184c-.578.123-1.191.207-1.73.281l-.006,0a10.339,10.339,0,0,0-3.746,1,26.432,26.432,0,0,0-3.617,2.688l0,.006a26.219,26.219,0,0,1-3.619,2.684c-5.215,2.973-8.145,6.188-8.951,9.83-.779,3.508.4,7.41,3.594,11.93a15.585,15.585,0,0,1,.457-1.693l0-.012c.338-1.1.631-2.045.248-2.551a5.061,5.061,0,0,1-.99-4.945,10.58,10.58,0,0,1,2.863-3.834c3.549-3.385,7.408-6.547,11.139-9.605l.016-.012c1.51-1.238,3.117-2.557,4.684-3.873l-.338-1.895Zm340.947-4.963c-1.59,0-3.154.84-6.107,2.621,1.381.365,2.814.734,4.334,1.125l.6.156c1.482.379,3.215.824,5.025,1.3,3.135.828,6.3,1.682,9.1,2.436l1.762.475c-1.236-4.123-2.146-7.143-3.469-11.4-1.822,2.465-3.207,4.33-4.629,6.234C19593.182,19504.154,19591.553,19503.256,19589.881,19503.256Zm-171.17-51.824h0l-.146,1.322,8.77.568,0,.664-8.217.391c.41.076.83.152,1.236.227l.326.061h.01c3.615.662,7.354,1.346,10.184,3.063a10.021,10.021,0,0,1,3.527,3.5,13.211,13.211,0,0,1,1.686,5.863l1.445-.338,2.453-8.139,13.143-2.318-.379-1.752-34.039-3.109Zm206.482,12.137v0l.1.059a35.138,35.138,0,0,0,9.744,1.881,13.833,13.833,0,0,0,9.123-3.309,23.657,23.657,0,0,0,7.3-12.281,24.461,24.461,0,0,0,.764-7.35,17.2,17.2,0,0,0-1.682-6.754,23.516,23.516,0,0,0-6.586-7.619,24.685,24.685,0,0,0-5.717-3.027l-.008,0c-1.066-.453-2.164-.922-3.3-1.471l.008-.008c2.986-2.154,6.074-4.383,7.852-6.918,1.926-2.756,2.17-5.629.768-9.039a10.8,10.8,0,0,0-4.1-4.975,25.308,25.308,0,0,0-6.051-2.74c0,1.8.031,3.523.059,5.193l0,.154,0,.059c.066,3.736.129,7.266-.156,10.74a6.816,6.816,0,0,1-1.992,4.848c-1.225,1.094-3.027,1.627-5.514,1.627-.279,0-.588-.008-.918-.023-.5-.025-1.012-.037-1.518-.037-3.605,0-5.906.719-7.24,2.262a6.113,6.113,0,0,0-1.348,3.309,17.936,17.936,0,0,0,.172,4.928l11.268-2.937-.291-.99-8.4.4.059-.758.029-.359c.023-.309.047-.621.074-.928.037,0,.076,0,.113,0a17.526,17.526,0,0,0,3.24-.416l.018,0,.014,0a17.565,17.565,0,0,1,3.252-.416,5.843,5.843,0,0,1,2.639.566,6.692,6.692,0,0,1,2.467,2.2c1.2,1.648,2.494,3.3,3.744,4.889,2.059,2.617,4.184,5.322,6,8.168,2.053,3.23,4.605,7.252,5.068,11.207a6.668,6.668,0,0,1-1.75,5.318,9.241,9.241,0,0,1-3.283,2.311,10.59,10.59,0,0,1-4.125.848,9.68,9.68,0,0,1-3.777-.752,3.742,3.742,0,0,0-1.414-.223c-.406,0-.85.033-1.32.068l-.066,0c-.543.039-1.16.086-1.828.086a5.222,5.222,0,0,1-2.5-4.156,17.191,17.191,0,0,1,.674-5.062l0-.01c.2-.852.42-1.814.564-2.742-3.42.957-5.4,1.736-6.1,3.119-.627,1.246-.189,2.951.775,5.479l.082.213c.449,1.158.855,2.2,1.262,3.18-.426-.619-.865-1.242-1.277-1.826-.973-1.373-1.977-2.789-2.838-4.242a12.732,12.732,0,0,0-3.764-4.2,7.822,7.822,0,0,0-4.387-1.324,10.037,10.037,0,0,0-2.635.373,99.286,99.286,0,0,0,7.275,8.707l.227.221c2.457,2.383,5,4.848,8.664,4.848a9.251,9.251,0,0,0,2.49-.361Zm-368.289-17.678c-.418,1.639-.975,3.174-1.512,4.656l-.008.018c-1.045,2.893-1.949,5.389-1.07,6.891a7.836,7.836,0,0,0,3.842,3.139,13.82,13.82,0,0,0,5.211.957,15.68,15.68,0,0,0,3.752-.449c1.033-.271,1.291-3.105,1.588-6.389l0-.047c.143-1.574.291-3.2.541-4.652l-7.277,2.73Zm163.834-48.029c-4.994.9-7.518,1.42-9.082,2.271-1.65.9-2.1,2.154-2.381,4.291a250.147,250.147,0,0,0-2.432,26.328,164.7,164.7,0,0,0,.875,18.531c.154,1.791.273,3.223.375,4.506a5.079,5.079,0,0,0,2.313,3.051.42.42,0,0,0,.232.049c.645,0,2.242-.725,2.383-1.271.293-1.111.188-3.08-.555-3.523a3.9,3.9,0,0,1-2.273-3.256,9.249,9.249,0,0,1,1.025-3.631,37.588,37.588,0,0,1,3.227-6.686c3.82-5.553,5.826-10.123,6.314-14.387.6-5.229-1.092-10.115-5.158-14.936a8.754,8.754,0,0,1-1.57-2.625,4.025,4.025,0,0,1-.127-2.736c.5-1.428,2-2.4,4.453-2.881.482-.092.834-.676,1.32-1.484A16.4,16.4,0,0,1,19420.738,19397.861Zm195.539,44.23a3.035,3.035,0,0,0-1.48.379,19.924,19.924,0,0,0-2.047,4.453l7.172-.85a15.751,15.751,0,0,0-2.277-3.664A3.046,3.046,0,0,0,19616.277,19442.092Zm-370.58-41.955v0c.674.43,1.369.859,2.105,1.314l.289.18c2.2,1.355,4.477,2.76,6.643,4.391a3.846,3.846,0,0,1,1.016,3.564c-1.867,5.338.076,9.93,2.453,14.1,3.7,6.539,7.484,13.146,11.494,20.141l.148.26,1.014,1.764c-.148-1.664-.428-3.295-.7-4.871l0-.021c-.566-3.295-1.1-6.408-.318-9.143,2.309-7.65,1.871-14.627-1.27-20.176-3.121-5.51-8.83-9.445-16.512-11.383a9.725,9.725,0,0,1-2.59-1.234,9.908,9.908,0,0,0-2.59-1.234,16.022,16.022,0,0,0-3.762-.576,3.636,3.636,0,0,0-2.025.469,53.4,53.4,0,0,0-7.045,5.963l-.018.016-.1.094c-.656.623-1.336,1.268-2.012,1.891a18.484,18.484,0,0,0-5.307,7.961,17.576,17.576,0,0,0-.48,9.387,12.89,12.89,0,0,0,4.379,7.242,11.585,11.585,0,0,0,7.277,3.025,7.109,7.109,0,0,0,1.844-.236c1.965-.539,3.889-1.238,5.588-1.855l.061-.021c.633-.232,1.3-.477,1.93-.7-1.012-.264-2.117-.453-3.287-.652l-.07-.012c-2.764-.475-5.619-.963-7.643-2.459a8.164,8.164,0,0,1-2.652-3.369,12.26,12.26,0,0,1-1-4.475c-.191-4.34,1.477-8.7,4.248-11.1,2.234-1.947,4.4-4,6.492-5.984.889-.844,1.629-1.543,2.395-2.258Zm546.766,22.527a13.363,13.363,0,0,0-4.312.732,57.036,57.036,0,0,1,5.613,4.867,17.057,17.057,0,0,1,1.832,2.7l.012.023a12.92,12.92,0,0,0,2.459,3.324,75.314,75.314,0,0,0,10.838,7.77,1.867,1.867,0,0,0,.99.229,10.3,10.3,0,0,0,2.152-.357,15.885,15.885,0,0,1,1.578-.316l3.621,0c-4.568-3.307-6.812-5.316-7.2-7.785s1.08-5.318,4.318-10.4l-7.463-.51-.416,2-.18.863-.031.146c-.561,2.682-1.088,5.215-1.611,7.752a24.758,24.758,0,0,1-2.141-4.135,9.484,9.484,0,0,0-3.766-5.043A11.129,11.129,0,0,0,19792.463,19422.664Zm-516.529,7.844,4.861,10.332a4.032,4.032,0,0,0,3.258-2.211,12.511,12.511,0,0,0,.938-3.949l.021-.178.025-.189a9.251,9.251,0,0,0,5.123,1.664c2.729,0,5.229-1.377,7.523-2.861-1.416-.291-2.76-.576-3.887-.816l-.1-.021c-3.221-.682-6.264-1.324-9.3-1.84-.652-.049-1.307-.072-1.943-.072a24.584,24.584,0,0,0-2.818.16l-.025-.02Zm528.738-15.9h0c-.99,0-2.865,1.822-2.865,2.785a5.489,5.489,0,0,0,1.551,2.818l.014.016c.309.381.627.773.889,1.16l5.352-3.7c-.764-.514-1.436-1.039-1.975-1.463l-.006,0c-1.176-.92-2.025-1.584-2.922-1.613Zm-184.758-11.039h0c-1.5,3.469-1.83,5.211-1.174,6.213.518.787,1.668,1.123,3.848,1.127.156,0,.309,0,.471-.008l.016,0,.18,0c-.354-1.5-.723-3.035-1.07-4.48-.268-1.121-.58-2.424-.883-3.7.15-.979.105-1.617-.135-1.9a.494.494,0,0,0-.389-.168,3.673,3.673,0,0,0-1.666.9l-.02.014c-.119.1-.229.18-.316.242-2.672,1.85-5.158,3.773-7.791,5.809-.914.711-1.811,1.4-2.725,2.1a10.763,10.763,0,0,0,3.246.557,7.031,7.031,0,0,0,5.023-2.076A21.781,21.781,0,0,0,19619.914,19403.568ZM19225,19352.357c-3.344,4.521-4.93,7.1-4.309,8.666.537,1.346,2.648,1.957,6.354,2.615a18.775,18.775,0,0,0,3.342.346c2.313,0,3.928-.625,4.8-1.855,1.039-1.461,1.021-3.754-.047-6.814-.461-1.336-.795-2.717-1.119-4.051-.154-.631-.328-1.348-.51-2.033a19.781,19.781,0,0,1-1.945,4.209,2.51,2.51,0,0,1-2.059,1.338C19228.348,19354.777,19226.867,19353.809,19225,19352.357Zm568.576-35.855c-3.125,5.271-3.373,13.869-1.643,18.291.635,1.619,1.51,2.635,2.531,2.938a11.666,11.666,0,0,0-.57,5.172,11.071,11.071,0,0,0,1.541,4.311c1.594,2.678,4.17,4.988,6.662,7.223a37.081,37.081,0,0,1,5.186,5.721c1.209,1.654,7.516,3.072,11.828,3.072,1.949,0,3.279-.285,3.848-.82a8.269,8.269,0,0,0,1.076-1.771c.389-.594.748-1.24,1.064-1.809l.006-.012a13.2,13.2,0,0,1,2.584-3.623,26.929,26.929,0,0,0,6.463-7.65,13.541,13.541,0,0,0,1.287-9.334c.283.025.607.07.914.115l.047.006a9.252,9.252,0,0,0,.984.105c.135,0,.207-.02.223-.055a34.283,34.283,0,0,0,2.646-9.98,23.057,23.057,0,0,0-1.17-9.916l-5.508,0,0-1.213,4.916-1.357c.588-6.5-.236-10.73-2.6-13.316-2.133-2.336-5.572-3.424-10.822-3.422h-.3l3.857,7.17.924-4.58,2.211.438a27.74,27.74,0,0,0-.547,2.768l-.008.049c-.332,2.045-.676,4.158-1.889,5.582a18.312,18.312,0,0,0-4.686,9.8,20.558,20.558,0,0,0,1.99,10.7c2.057,4.738,2.793,8.762,2.256,12.3a13.467,13.467,0,0,1-2.236,5.65,18.761,18.761,0,0,1-5.352,5.014,6.825,6.825,0,0,0-2.131,3.262l-.008.016a14.408,14.408,0,0,1-.709,1.545l-5.529-.264a13.8,13.8,0,0,1-.682-1.289l-.014-.029a6.982,6.982,0,0,0-2.02-2.857,21.648,21.648,0,0,1-5.709-5.451,14.226,14.226,0,0,1-2.412-6.02c-.582-3.869.365-8.277,2.891-13.479a15.007,15.007,0,0,0,1.414-10.156,20.809,20.809,0,0,0-5.186-9.182,16.285,16.285,0,0,1-2.76-5.6l0-.016c-.3-.867-.637-1.852-1.033-2.764l1.691-.631,2.313,4.135c.42-2.012.73-3.553,1.033-5.043l.049-.25c.125-.611.252-1.236.389-1.9-9.137,2.047-10.42,3.469-10.564,11.7,0,.293-.018.6-.029.891l-.006.115c-.064,1.453-.135,2.957.754,3.92a4.427,4.427,0,0,0,3.225,1.092c.377.012.723,1.123,1.057,2.2.145.457.3.977.465,1.371l-1.828.592Zm-382.465,34.932c-.164.947-.436,1.936-.7,2.889-.6,2.2-1.227,4.471-.574,6.314.58,1.617,4.088,2.465,7.256,2.465,2.973,0,5.311-.67,6.256-1.789.814-.963.313-2.936-.17-4.844a23.7,23.7,0,0,1-.521-2.381,16.413,16.413,0,0,0-.682-2.176,36.849,36.849,0,0,1-6.307.891,9.761,9.761,0,0,1-3.186-.865l-.1-.035C19411.973,19351.738,19411.539,19351.568,19411.113,19351.434Zm205.059-51.889h-.041c-4.592,0-7.729,1.354-9.586,4.137-1.781,2.676-2.088,6.3-2.158,9.152-.061,1.822-.182,3.719-.279,5.24v.008a83.086,83.086,0,0,0-.213,10.6,33.379,33.379,0,0,0,2.518,10.986,52.013,52.013,0,0,0,5.535,10.432,25.807,25.807,0,0,0,8.707,7.643,12.471,12.471,0,0,1,2.125,1.664c.988.889,1.92,1.727,2.707,1.727a1.859,1.859,0,0,0,.2-.016c1.074-.209,2.174-.354,3.143-.48,3.578-.475,6.953-.92,10.518-3.873,8.166-6.7,12.373-15.127,13.24-26.531a76.169,76.169,0,0,0,.018-13.543,37.785,37.785,0,0,0-3.723-13.234,3.3,3.3,0,0,1-.033-1.945l0-.008,0-.021a13.686,13.686,0,0,0,.168-1.418c.775.283,1.543.5,2.287.7l.031.01h.008a6.564,6.564,0,0,1,6.008,5.7l0,.006c.221.676.451,1.373.736,2.039,1.971-.6,3.111-1.437,3.484-2.572.441-1.348-.2-3.15-1.969-5.516,3.684,1.611,6.564,2.363,9.066,2.363a10.634,10.634,0,0,0,6.893-2.449c-1.141-.256-2.277-.559-3.377-.852a36.769,36.769,0,0,0-7.348-1.443c-.672-.041-1.371-.088-2.045-.133l-.059-.006c-1.857-.125-3.779-.256-5.658-.256a20.083,20.083,0,0,0-7.277,1.09,13.212,13.212,0,0,1-9.607.227l-2.723-.848c.4,1.58,1.328,4.3,3.1,4.756,2.857.74,3.756,2.207,4.006,3.309a3.917,3.917,0,0,1-.211,2.313,4.657,4.657,0,0,1-1.307,1.846c-6.574,5.527-5.088,12.3-3.779,18.281.221.992.432,1.963.611,2.934.867,4.809,1,8.318.426,11.381a17.892,17.892,0,0,1-5.473,9.8,10.839,10.839,0,0,0-2.031,3.256c-.221.475-.449.965-.7,1.4l-.008,0c-.68,0-1.41.072-2,.133-.654.063-1.273.125-1.865.125a3.971,3.971,0,0,1-1.844-.355c-9.176-4.76-13.572-15.9-10.008-25.354a21.6,21.6,0,0,0,1.57-9.672,18.006,18.006,0,0,0-3.73-9.2c-1.389-1.832-2-4.254-2.584-6.6l-.014-.051c-.264-1.051-.535-2.139-.877-3.146l1.611-.715,2.768,1.693,1.383-4.725-.006,0Zm-194.061-.779c-8.98.674-10.918,2.2-11.508,9.1-.1,1.252-.244,2.521-.4,3.822l0,.039a56.133,56.133,0,0,0-.5,6.443c-.053,6.93-.033,14.24-.02,20.115l0,1.438c.008,2.881.016,5.859.016,8.8,1.188-1.955,2.385-3.934,3.545-5.846l.438-.721.045-.074c2.643-4.363,5.375-8.873,8.063-13.246,3.514-5.723,3.27-11.369-.742-17.262a63.858,63.858,0,0,1-3.428-5.889l-.012-.025-.105-.2c-.316-.594-.615-1.154-.9-1.66Zm-198.027,19.109a20.545,20.545,0,0,0-1.824,8.871,57.138,57.138,0,0,0,.945,8.76l.006.031c.658,4.1,1.342,8.344.646,12.508,1.182-1.818,2.2-3.6,3.191-5.322.76-1.324,1.545-2.7,2.381-4.033.732-1.16,1.6-2.293,2.432-3.389a24.969,24.969,0,0,0,3.945-6.406,50.837,50.837,0,0,0,2.049-6.908,12.462,12.462,0,0,0-.139-6.592c-.826-2.268-.871-3.926-.139-5.221a9.48,9.48,0,0,1,3.676-3.049c.879-.514,1.738-1.068,2.568-1.605l.023-.014c.3-.2.621-.4.957-.617-.365-.193-.754-.441-1.131-.68l-.068-.045a5.885,5.885,0,0,0-2.508-1.154.976.976,0,0,0-.326.053,25.881,25.881,0,0,0-8.98,4.83,24.131,24.131,0,0,0-6.211,7.785l5.785,1.793-1.807,2.174Zm37,23.553v0c-1.5,1.742-2.465,2.855-4.545,5.246.725.094,1.424.25,2.041.389a11.027,11.027,0,0,0,2.154.344,1.791,1.791,0,0,0,.975-.232c.986-.631,1.5-2.766,1.262-4.115-.145-.877-1.707-1.557-1.885-1.631Zm-24.623-8.094c12.381,3.855,12.381,3.855,10.984,12.363,2.918-.4,4.609-1.061,5.654-2.2s1.543-2.844,1.684-5.82a22.219,22.219,0,0,0,8.115,1.7,15.943,15.943,0,0,0,5.256-.879,17.464,17.464,0,0,0,4.975-2.766l-30.367-5.322-.314,1.531,5.135,1.393Zm211.428,4.605-7.48.326,4.371,4.438,4.1-3.686Zm-10.086-20.031h0a11.166,11.166,0,0,1,6.08,4.787,22.981,22.981,0,0,1,2.58,6.982,8.179,8.179,0,0,0,2.766,4.771,9.079,9.079,0,0,0,5.564,1.594c-.814-1.578-1.588-3.113-2.25-4.428l-.037-.072c-1.441-2.85-2.8-5.539-4.262-8.176-2.908-5.289-7.738-8.322-13.254-8.322a15.93,15.93,0,0,0-3.125.316l4.625,1.785,1.309.762-1.318-.762-5.912,0c.652.73,1.408,1.432,2.205,2.174,1.867,1.73,3.8,3.52,4.484,5.807.674,2.264.076,4.881-.5,7.41l0,.01-.012.057c-.246,1.082-.5,2.2-.645,3.266,3.637-.078,6.318-1.3,7.549-3.434a5.834,5.834,0,0,0,.7-3.461,11.032,11.032,0,0,0-1.447-4.338,56.014,56.014,0,0,0-5.1-6.729Zm-190.477-13.285c4.09,0,7.24,2.041,10.289,4.016,1.174.76,2.389,1.547,3.629,2.193a7.929,7.929,0,0,0-1.277,5.691,18.3,18.3,0,0,0,1.9,5.043,25.9,25.9,0,0,1,1.52,3.512c6.684-6.832,7.1-10.055,2.049-15.672a30.109,30.109,0,0,0-6.779-5l0,0-.021-.012c-.812-.49-1.652-1-2.449-1.514a16.43,16.43,0,0,0-4.326-2.012c-.186-.055-.381-.113-.58-.176a15.707,15.707,0,0,0-3.9-.834,2.134,2.134,0,0,0-.98.191c-.76.4-.928,1.809-1.092,3.17l0,.01v.008c-.064.539-.131,1.1-.234,1.586A13.119,13.119,0,0,1,19247.324,19304.623Zm9.344-48.57a2.388,2.388,0,0,1,.854.125c1.035.408,1.939,2.2,2.057,3.535a4.092,4.092,0,0,1-1.01,2.311l-.008.012c-.26.387-.527.785-.752,1.2,6.486-.051,7.889-1.109,7.889-5.963,5.352,4.014,8.885,5.652,12.2,5.652,2.361,0,4.742-.857,7.721-2.779l-25.1-9.062a55.454,55.454,0,0,0,7.732-11.131,44.957,44.957,0,0,0,4.107-11.518,46.854,46.854,0,0,0,.861-11.918,60.99,60.99,0,0,0-2.014-12.33c-2-7.65-2.9-8.373-12.031-9.674.314,2.7.654,5.307.982,7.826l0,.031.092.7.078.605,1.576-.094c.365-1.777.756-3.551,1.156-5.363l1.549.295a26.631,26.631,0,0,0-.393,2.824l0,.037a12.1,12.1,0,0,1-1.35,5.32c-6.795,10.445-8.73,19.707-6.094,29.15l1.342-1.191a19.644,19.644,0,0,1,1.967,5.553,8.621,8.621,0,0,1-.326,4.5c-1.025,2.791-3.711,5.018-8.445,7.01a16.575,16.575,0,0,0-5.377,4.277,4.112,4.112,0,0,0-.709,2.355v.008l-.006.041a11,11,0,0,1-.154,1.109c-1.912-2.664-3.184-4.742-4.307-6.574l-.01-.02,0,0c-.92-1.5-1.715-2.8-2.621-4.01-3.965-5.295-5.055-11.186-3.332-18.01.156-.617.361-1.248.561-1.857l.033-.1a11.568,11.568,0,0,0,.865-4.7,35.018,35.018,0,0,0-2.74-10.047,31.975,31.975,0,0,0-2.676-4.514l0-.008a27.972,27.972,0,0,1-2.9-5.041c-.494-1.219-.205-2.729.133-4.477l.008-.041c.168-.891.344-1.812.447-2.818l3.752,3.17,0-5.441c-6.705.094-10.637,3.686-11.074,10.117-.566,8.266-1.27,18.549-.068,28.152a24.721,24.721,0,0,0,4.465,11.092,79.517,79.517,0,0,0,7.967,9.313l.033.033c1.9,2.01,3.873,4.088,5.617,6.219.469.574,1.734.654,3.033.654.188,0,.375,0,.553,0h.01c.172,0,.338,0,.494,0a4.424,4.424,0,0,0,1.479-.393l.025-.008a3.811,3.811,0,0,1,1.211-.34.722.722,0,0,1,.33.07,7.487,7.487,0,0,0,3.344,1.027c1.723,0,2.924-1.2,3.779-3.758C19253.666,19256.6,19255.439,19256.053,19256.668,19256.053Zm385.029-4.205-7.4,2.859a17.18,17.18,0,0,0,4.91,3.754,11.932,11.932,0,0,0,5.254,1.227,15.814,15.814,0,0,0,6.83-1.727,10.721,10.721,0,0,0,5.354-5.207,12.3,12.3,0,0,0,.568-7.687c-2.326-11.209-10.088-19.014-17.838-26.047,0,1.668.049,3.357.1,4.99v.045l0,.045a74.842,74.842,0,0,1-.232,11.131c-.717,6.008,2.035,10.219,5.113,13.875a8.906,8.906,0,0,1,1.756,4.709.437.437,0,0,1-.141.314,12.838,12.838,0,0,1-4.5,1.631h-.008l-.045.012c-.6.137-1.219.279-1.807.449l-.6-1.566,3.02-2.176Zm-21.752,6.488c.25.137.5.283.8.463.178-.186.33-.332.461-.445l-.012,0-.016,0a.172.172,0,0,1-.039.008C19620.779,19258.352,19620.389,19258.342,19619.945,19258.336Zm-.773-49.07a14.479,14.479,0,0,1,8.688,2.721c-.857.717-1.717,1.412-2.6,2.121l-.07.059c-1.766,1.432-3.434,2.781-4.977,4.232-3.547,3.375-7.023,6.906-10.387,10.32l-.549.561c-5.959,6.045-8.572,17.447-5.377,23.461,2.76,5.191,7.422,5.627,11.961,5.627.516,0,1.1-.006,1.771-.016l.24,0c.646-.01,1.168-.014,1.641-.014h.422c-.916-.51-1.961-1.014-2.883-1.457-2.941-1.422-5.982-2.891-7.146-5.162a3.818,3.818,0,0,1-.322-2.834,5.934,5.934,0,0,1,1.539-2.469,22.242,22.242,0,0,1,5.49-3.736,17.076,17.076,0,0,0,7.75-7.26,19.525,19.525,0,0,0,1.838-10.156,17.77,17.77,0,0,1,1.121-5.937l0-.01c.27-.879.551-1.789.766-2.691l2.078.336c-.035.48-.068.955-.111,1.5l-.014.188c-.076,1.033-.17,2.318-.314,4.344a43.543,43.543,0,0,1,7.8-10.264,14.222,14.222,0,0,1,9.76-4.129h0c3.371,0,6.971,1.236,11.006,3.785l.879-1.055a18.186,18.186,0,0,1-.793-1.861c-.529-1.379-1.076-2.807-2.135-3.42a25.58,25.58,0,0,0-6.311-2.266l-.01,0c-.738-.191-1.5-.391-2.182-.6,4.449-3.014,6.438-4.52,7.232-6.043s.287-2.984-1.148-5.676c-2.01,1.816-4.215,3.5-6.348,5.125l-.01.008a69.454,69.454,0,0,0-8.721,7.451,24.02,24.02,0,0,0-5.824,10.029l-2.186-.6-8.033-21.133a9.429,9.429,0,0,1-1,.561c-1.088.564-2.441,1.264-2.715,2.246a16.914,16.914,0,0,0-.3,5.525l0,.006.006.123c.039.736.08,1.5.08,2.242-3.217.184-4.9.674-6,1.742-1.125,1.092-1.645,2.836-1.8,6.018A25.749,25.749,0,0,1,19619.172,19209.266Zm-170.285-14.656v0a11.458,11.458,0,0,1,.707,6.445,16.6,16.6,0,0,1-2.271,5.307c-.492.813-1.029,1.635-1.551,2.43l-.057.084c-2.812,4.281-5.723,8.707-3.229,14.439.719,1.658,1.381,3.371,2.021,5.027l.031.08.037.1c.688,1.777,1.4,3.615,2.18,5.391,2.967,6.621,1.494,11.033-5.088,15.23a73.118,73.118,0,0,0-6.566,4.939c-1.113.9-2.266,1.838-3.521,2.811a9.4,9.4,0,0,0,4.316,1.205c2.625,0,4.473-1.568,6.105-2.951l.006-.006a14.291,14.291,0,0,1,2.365-1.754,24.107,24.107,0,0,0,7.244-5.672,22.588,22.588,0,0,0,4.016-6.963c1.84-4.977,2.252-10.607,2.648-16.053.189-2.6.385-5.281.738-7.883l1.7-.793,9.744,11.512a13.949,13.949,0,0,0,2.482-3.834,4.777,4.777,0,0,0-1.57-5.986,14.023,14.023,0,0,0-4.119-2.148c4.236-1.947,6.57-3.217,7.576-4.758.99-1.527.7-3.271-.266-6.371l-16.437,8.7a27.032,27.032,0,0,1-1.512-8.186l0-.021c-.266-3.23-.516-6.283-2.029-8.557a7.365,7.365,0,0,0-3.389-2.729,16.14,16.14,0,0,0-6.246-1.02h-.162l.146.631c.453,1.988.877,3.842,1.326,5.811l2.627-4.461Zm385.605,49.6c-.1,0-.205,0-.309,0a62.243,62.243,0,0,0-7.2,1.949c-.064.146-.131.3-.2.455-1.82,4.314-2.719,7.338-1.574,9.084,1.189,1.807,4.523,2.191,9.883,2.242l.207,0c2.014,0,3.279-.367,3.982-1.154.66-.74.854-1.85.643-3.709-.264-2.084-.658-4.131-1.037-6.111l-.074-.383c-.121-.635-.246-1.289-.361-1.932l.07.016c.021.006.045.012.066.016a.524.524,0,0,1,.053.014c-.027-.039-.057-.08-.086-.119-.014-.021-.029-.041-.043-.062-.031-.047-.066-.092-.1-.137h0s0,0,0,.006l-.012-.016c0,.01,0,.016.006.02a.165.165,0,0,1-.02.027.052.052,0,0,0-.012.01l.041.039c0,.031.012.063.018.094l.008.035c0,.02.008.039.01.059A17.868,17.868,0,0,0,19834.492,19244.205Zm-39.758-1.443c-.322,1.7-.631,3.32-.926,4.891l-.2,1.021c-.426,2.26-.832,4.408-1.238,6.555l-.139.732,14.008,1.49c-.15-2.867-.309-5.939-.482-9.4-.088-1.725-.18-3.523-.279-5.437l-4.629,4.973Zm-387.877-15.262a9.955,9.955,0,0,0-4.781,1.2c.895.961,1.814,1.91,2.627,2.75a73.618,73.618,0,0,1,5.684,6.32,46.18,46.18,0,0,1,3.006,4.623,37.6,37.6,0,0,0,3.783,5.57,32.24,32.24,0,0,0,8.422,6.533,2.9,2.9,0,0,0,1.434.3,10.457,10.457,0,0,0,2.031-.268l.018,0a4.942,4.942,0,0,1,.783-.125c-.637-1.588-1.393-3.084-2.125-4.529l-.008-.018c-1.527-3.012-2.971-5.857-2.8-8.672s1.832-5.5,3.768-8.631l.008-.012c.916-1.48,1.863-3.012,2.746-4.711l-10.779,1.994a23.424,23.424,0,0,1,6.217-8.137,16.975,16.975,0,0,1,10.035-3.561c.631-.033,1.234-.865,1.818-1.67l.021-.031a10.959,10.959,0,0,1,.811-1.031,10.191,10.191,0,0,1-.947-.8l-.037-.035-.012-.01a4.352,4.352,0,0,0-2.119-1.328,10.819,10.819,0,0,0-1.527-.1,21.472,21.472,0,0,0-10.588,3.373c-3.559,2.164-6.242,4.936-7.361,7.607-.783,1.828-.889,3.238-.312,4.191.535.875,1.656,1.383,3.336,1.508-.34.029-.7.074-1.041.117l-.127.016a15.349,15.349,0,0,1-1.947.176,3.812,3.812,0,0,1-1.52-.264C19412.658,19228.658,19409.768,19227.5,19406.857,19227.5Zm421.506-20.648a63.948,63.948,0,0,0-3.469,7.422,17.076,17.076,0,0,1-1.213,2.711l0,.006a10.068,10.068,0,0,0-1.457,4.211c-.045,1.65.787,3.258,2.543,4.912,3.9,3.66,6.943,8.26,9.881,12.707l.018.027c1.205,1.824,2.451,3.709,3.758,5.529.16-.2.357-.389.547-.578l.006-.006c.449-.447.914-.908.914-1.393a54.335,54.335,0,0,0,.148-9.85c-.205-1.7-.389-3.434-.568-5.111l-.01-.109-.006-.041c-.65-6.127-1.324-12.463-3.127-18.4a13.05,13.05,0,0,0-4.3-6.883,11.289,11.289,0,0,0-7.133-2.131,26.326,26.326,0,0,0-5.924.764,10.647,10.647,0,0,1-4.9-.441,19.211,19.211,0,0,0-5.219-.76,15.06,15.06,0,0,0-4.8.762,13.921,13.921,0,0,0-4.094,2.207,17.23,17.23,0,0,0-5.545,8.225c-3.088,9.123-2.211,18.037-1.285,27.473l.018.162c.145,1.486.295,3.023.43,4.551,1.2-1.594,2.379-3.143,3.484-4.59,2.277-2.988,4.631-6.078,6.857-9.162,1.895-2.6,3.92-5.705,4.576-8.973.678-3.385-.176-6.6-2.611-9.83-.934-1.211.1-3.885.926-6.031.035-.1.072-.2.109-.289.043-.111.084-.221.125-.328.232-.6,1.178-.961,2.094-1.312l.016-.006c.4-.154.814-.314,1.164-.49l.74,1.086-1.357,1.555a6.458,6.458,0,0,1,4.508-2.01c2.055,0,4.018,1.055,6.1,2.172l.18.1c1.979,1.061,4.219,2.266,6.625,2.266A7.046,7.046,0,0,0,19828.363,19206.852Zm15.977,16.836,2.488,10.463c.186.01.355.018.508.018a4.654,4.654,0,0,0,3.811-1.391c.885-1.1,1.055-2.842.516-5.326,2.967,3.941,4.918,5.551,6.736,5.551,1.4,0,2.779-.936,4.6-3.127-.762-.4-1.553-.832-2.291-1.236l-.057-.029c-1.99-1.082-4.047-2.2-6.164-3.143a23.176,23.176,0,0,0-4.791-.973Zm-34.668-19.229a15.45,15.45,0,0,0-1.66,1.9Zm-195.3-8.717-5.781,1.482,1.6,4.023,5.295-2.893Zm-188.654,776.938h-12.648c1-2.387,2.533-3.5,4.838-3.5l.008,0a16.475,16.475,0,0,1,6.424,1.793l-8.32,0,0,.527,9.7.506,0,.668Zm194.531-348.135h0a2.659,2.659,0,0,1,1.387-1.074c.5-.08,1.01-.146,1.52-.2-.754.332-1.49.654-2.311,1.012Z" transform="translate(-19157 -18735)" fill="#f5f5f5"/>
  </g>
</svg>
