<svg xmlns="http://www.w3.org/2000/svg" xmlns:xlink="http://www.w3.org/1999/xlink" width="200" height="200" viewBox="0 0 200 200">
  <defs>
    <clipPath id="clip-path">
      <rect id="Base" width="200" height="200" transform="translate(4212 -5308)" fill="#fff"/>
    </clipPath>
  </defs>
  <g id="Image" transform="translate(-4212 5308)" clip-path="url(#clip-path)">
    <g id="undraw_envelope_n8lc" transform="translate(4222.4 -5284.8)">
      <path id="Path_375" data-name="Path 375" d="M187.122,50.731C175.582,50.4,164.591,47.3,154.1,43.9s-20.9-7.15-32.163-8.949c-7.244-1.157-15.528-1.32-21.365,1.913-5.618,3.112-7.432,8.484-8.408,13.471-.736,3.75-1.167,7.7.845,11.208,1.391,2.435,3.877,4.486,5.592,6.82,5.966,8.124,1.75,18.141-4.717,26.072-3.033,3.72-6.552,7.27-8.893,11.231s-3.419,8.5-1.376,12.537c2.03,4,6.867,7.011,12.107,9.128,10.643,4.3,23.185,5.526,35.414,6.223,27.07,1.541,54.287.87,81.43.205,10.044-.247,20.134-.5,30.017-1.791,5.487-.718,11.152-1.858,15.132-4.609,5.058-3.492,6.31-9.408,2.922-13.787-5.684-7.347-21.393-9.171-25.374-17.055-2.188-4.34.059-9.175,3.237-13.2,6.818-8.634,18.247-16.208,18.849-26.077.412-6.783-5.08-13.566-13.575-16.774-8.9-3.362-21.251-2.939-27.829,2.626C209.2,48.821,197.31,51.032,187.122,50.731Z" transform="translate(-82.538 -34.194)" fill="#7b7b7b" opacity="0.1"/>
      <ellipse id="Ellipse_83" data-name="Ellipse 83" cx="57.798" cy="5.828" rx="57.798" ry="5.828" transform="translate(24.589 142.305)" fill="#b1a6a0" opacity="0.1"/>
      <path id="Path_376" data-name="Path 376" d="M165.653,670.808s-2.564-14.53-12.082-21.73a22.264,22.264,0,0,1-8.192-11.81,35.632,35.632,0,0,1-1.149-6.779" transform="translate(-136.141 -523.307)" fill="none" stroke="#535461" stroke-width="2"/>
      <path id="Path_377" data-name="Path 377" d="M112.861,589.331c.8,1.557,6.109,4.707,6.109,4.707s.668-5.886-.133-7.445a3.41,3.41,0,0,0-4.437-1.453A3.057,3.057,0,0,0,112.861,589.331Z" transform="translate(-110.74 -486.72)" fill="#49b776"/>
      <path id="Path_378" data-name="Path 378" d="M105.228,638.835c1.57.9,7.84.817,7.84.817s-2.829-5.284-4.393-6.18a3.436,3.436,0,0,0-4.56,1.058A3.035,3.035,0,0,0,105.228,638.835Z" transform="translate(-103.613 -525.332)" fill="#49b776"/>
      <path id="Path_379" data-name="Path 379" d="M137.655,710.72c1.833.026,7.2-3.031,7.2-3.031s-5.266-3.212-7.1-3.24a3.142,3.142,0,1,0-.1,6.272Z" transform="translate(-128.246 -582.563)" fill="#49b776"/>
      <path id="Path_380" data-name="Path 380" d="M182.918,760.37c1.8.32,7.641-1.839,7.641-1.839s-4.616-4.012-6.415-4.326a3.315,3.315,0,0,0-3.876,2.5A3.146,3.146,0,0,0,182.918,760.37Z" transform="translate(-164.969 -622.387)" fill="#49b776"/>
      <path id="Path_381" data-name="Path 381" d="M157.574,636.5c-.626,1.628-5.566,5.278-5.566,5.278s-1.308-5.789-.682-7.417a3.381,3.381,0,0,1,4.256-1.879A3.093,3.093,0,0,1,157.574,636.5Z" transform="translate(-141.69 -524.75)" fill="#49b776"/>
      <path id="Path_382" data-name="Path 382" d="M204.771,691.564c-1.113,1.378-6.981,3.465-6.981,3.465s.6-5.894,1.7-7.27a3.455,3.455,0,0,1,4.656-.6,3.022,3.022,0,0,1,.624,4.4Z" transform="translate(-179.054 -568.2)" fill="#49b776"/>
      <path id="Path_383" data-name="Path 383" d="M246.967,756.418c-.851,1.535-6.26,4.528-6.26,4.528s-.475-5.9.376-7.437a3.42,3.42,0,0,1,4.483-1.324A3.052,3.052,0,0,1,246.967,756.418Z" transform="translate(-213.333 -620.524)" fill="#49b776"/>
      <path id="Path_384" data-name="Path 384" d="M112.861,589.331c.8,1.557,6.109,4.707,6.109,4.707s.668-5.886-.133-7.445a3.41,3.41,0,0,0-4.437-1.453A3.057,3.057,0,0,0,112.861,589.331Z" transform="translate(-110.74 -486.72)" opacity="0.25"/>
      <path id="Path_385" data-name="Path 385" d="M105.228,638.835c1.57.9,7.84.817,7.84.817s-2.829-5.284-4.393-6.18a3.436,3.436,0,0,0-4.56,1.058A3.035,3.035,0,0,0,105.228,638.835Z" transform="translate(-103.613 -525.332)" opacity="0.25"/>
      <path id="Path_386" data-name="Path 386" d="M137.655,710.72c1.833.026,7.2-3.031,7.2-3.031s-5.266-3.212-7.1-3.24a3.142,3.142,0,1,0-.1,6.272Z" transform="translate(-128.246 -582.563)" opacity="0.25"/>
      <path id="Path_387" data-name="Path 387" d="M182.918,760.37c1.8.32,7.641-1.839,7.641-1.839s-4.616-4.012-6.415-4.326a3.315,3.315,0,0,0-3.876,2.5A3.146,3.146,0,0,0,182.918,760.37Z" transform="translate(-164.969 -622.387)" opacity="0.25"/>
      <path id="Path_388" data-name="Path 388" d="M157.574,636.5c-.626,1.628-5.566,5.278-5.566,5.278s-1.308-5.789-.682-7.417a3.381,3.381,0,0,1,4.256-1.879A3.093,3.093,0,0,1,157.574,636.5Z" transform="translate(-141.69 -524.75)" opacity="0.25"/>
      <path id="Path_389" data-name="Path 389" d="M204.771,691.564c-1.113,1.378-6.981,3.465-6.981,3.465s.6-5.894,1.7-7.27a3.455,3.455,0,0,1,4.656-.6,3.022,3.022,0,0,1,.624,4.4Z" transform="translate(-179.054 -568.2)" opacity="0.25"/>
      <path id="Path_390" data-name="Path 390" d="M246.967,756.418c-.851,1.535-6.26,4.528-6.26,4.528s-.475-5.9.376-7.437a3.42,3.42,0,0,1,4.483-1.324A3.052,3.052,0,0,1,246.967,756.418Z" transform="translate(-213.333 -620.524)" opacity="0.25"/>
      <path id="Path_391" data-name="Path 391" d="M232.455,649.787s3.89-14.265-1.72-24.491a21.231,21.231,0,0,1-2.419-13.931,35.784,35.784,0,0,1,1.859-6.636" transform="translate(-203.264 -502.668)" fill="none" stroke="#535461" stroke-width="2"/>
      <path id="Path_392" data-name="Path 392" d="M221.321,559.145c.064,1.729,3.564,6.642,3.564,6.642s3.137-5.127,3.073-6.858a3.326,3.326,0,0,0-6.638.217Z" transform="translate(-197.906 -463.545)" fill="#49b776"/>
      <path id="Path_393" data-name="Path 393" d="M193.094,601.465c1.05,1.419,6.814,3.745,6.814,3.745s-.318-5.912-1.368-7.333a3.449,3.449,0,0,0-4.624-.777,3.028,3.028,0,0,0-.823,4.365Z" transform="translate(-174.815 -496.101)" fill="#49b776"/>
      <path id="Path_394" data-name="Path 394" d="M191.916,679.6c1.666.726,7.888-.014,7.888-.014s-3.437-4.954-5.1-5.679a3.406,3.406,0,0,0-4.407,1.533A3.064,3.064,0,0,0,191.916,679.6Z" transform="translate(-172.802 -557.859)" fill="#49b776"/>
      <path id="Path_395" data-name="Path 395" d="M211.933,742.285c1.513.982,7.777,1.242,7.777,1.242s-2.5-5.429-4.012-6.409a3.445,3.445,0,0,0-4.618.8,3.028,3.028,0,0,0,.853,4.371Z" transform="translate(-189.231 -608.291)" fill="#49b776"/>
      <path id="Path_396" data-name="Path 396" d="M235.255,619.335c-1.272,1.248-7.355,2.7-7.355,2.7s1.29-5.795,2.56-7.043a3.463,3.463,0,0,1,4.7-.087,3.014,3.014,0,0,1,.1,4.433Z" transform="translate(-203.178 -510.116)" fill="#49b776"/>
      <path id="Path_397" data-name="Path 397" d="M253.288,689.37c-1.608.833-7.868.5-7.868.5s3.067-5.168,4.676-6a3.43,3.43,0,0,1,4.509,1.242A3.041,3.041,0,0,1,253.288,689.37Z" transform="translate(-217.215 -565.769)" fill="#49b776"/>
      <path id="Path_398" data-name="Path 398" d="M263.487,763.4c-1.437,1.077-7.667,1.745-7.667,1.745s2.1-5.58,3.536-6.657a3.455,3.455,0,0,1,4.666.507,3.02,3.02,0,0,1-.535,4.405Z" transform="translate(-225.548 -625.314)" fill="#49b776"/>
      <circle id="Ellipse_84" data-name="Ellipse 84" cx="0.072" cy="0.072" r="0.072" transform="translate(132.777 55.383)" fill="#e6e8ec"/>
      <path id="Path_462" data-name="Path 462" d="M372.555,244.043,320.57,277.769,354.5,338.957a2.368,2.368,0,0,0,1.511,1.153l30.739,7.5a2.37,2.37,0,0,0,2.692-1.274l15.247-31.677,16.71-22.338L381.739,245.4A7.027,7.027,0,0,0,372.555,244.043Z" transform="translate(-277.426 -212.777)" fill="#f6f6f6"/>
      <path id="Path_463" data-name="Path 463" d="M424.046,293.637l-.147.2-9.788,13.086-.177.237-6.6,8.82-13.041,27.1-.366.757-1.841,3.823a2.37,2.37,0,0,1-2.7,1.274l-30.739-7.5a2.364,2.364,0,0,1-1.511-1.153l-2.956-5.322-.531-.958-21.336-38.5-.183-.328-8.918-16.082,1.077-.7,8.168-5.3.189-.123,17.2-11.16,1.085-.7L375.2,245.361a7.025,7.025,0,0,1,9.188,1.36l18.09,21.41.8.954,13.13,15.533.072.085,6.6,7.808.831.984Z" transform="translate(-279.55 -213.831)" fill="#f6f6f6" opacity="0.1"/>
      <path id="Path_464" data-name="Path 464" d="M448.506,351.38l-1.6,11.132-.483,3.36-.276,7.156-.022.559-1.437,37.392a2.372,2.372,0,0,1-2.884,2.22l-15.494-3.459-.167-.038L386.4,400.835l-.729-.163-21.845-4.878.5-33.619.016-1.123.151-10.176.167-11.232,17.2-11.16,1.085-.7c15.955,1.636,37.173,4.783,51.548,7.027l.8.954,13.12,15.533Z" transform="translate(-312.087 -280.772)" opacity="0.1"/>
      <path id="Path_465" data-name="Path 465" d="M449.52,336.979l-1.886,13.12L445.9,362.114l-.483,3.352-.276,7.156-1.459,37.951a2.372,2.372,0,0,1-2.884,2.22l-15.661-3.5L385.4,400.429l-22.574-5.041.517-34.742.151-10.176.177-11.9.181-12.243a135.639,135.639,0,0,1,17.209.96c16.42,1.648,38.8,4.982,53.438,7.278C443.465,335.965,449.52,336.979,449.52,336.979Z" transform="translate(-311.286 -279.571)" fill="#d4c0b6"/>
      <path id="Path_466" data-name="Path 466" d="M420.455,428.854l-8.4,4.121-42.885,21.032-39.521-32.663-7.989-6.614-1.077.7,8.918,16.082-.517,34.742,22.574,5.041,2.95,5.322a2.363,2.363,0,0,0,1.511,1.153l30.739,7.5a2.37,2.37,0,0,0,2.69-1.274l1.841-3.823,15.661,3.5a2.372,2.372,0,0,0,2.884-2.22l1.459-37.951,9.965-13.319.028-.336Z" transform="translate(-277.434 -350.438)" opacity="0.1"/>
      <path id="Path_467" data-name="Path 467" d="M306.268,418.25l-3.544,60.7a2.369,2.369,0,0,0,1.851,2.451l94.13,20.9a2.369,2.369,0,0,0,2.868-2.121L407.09,432.8l-52.232,25.618Z" transform="translate(-263.124 -353.258)" fill="#f6f6f6"/>
      <path id="Path_468" data-name="Path 468" d="M305.212,606.872l48.9-30.17a3.59,3.59,0,0,1,4.572.716l43.769,51.047c.159.183.237.052,0,0l-97.243-21.592C304.934,606.811,304.969,607.017,305.212,606.872Z" transform="translate(-264.965 -479.794)" opacity="0.1"/>
      <path id="Path_469" data-name="Path 469" d="M306.737,610.282l48.4-29.236a3.8,3.8,0,0,1,4.827.759l43.374,49.882a.523.523,0,0,1-.507.853l-95.933-21.3a.521.521,0,0,1-.157-.956Z" transform="translate(-266.14 -483.254)" fill="#f6f6f6"/>
    </g>
  </g>
</svg>
