<svg xmlns="http://www.w3.org/2000/svg" xmlns:xlink="http://www.w3.org/1999/xlink" width="358" height="292.013" viewBox="0 0 358 292.013"><defs><style>.a,.f{fill:#387dff;}.a{opacity:0.1;}.b{fill:#fff;}.c{fill:#b0b6bf;}.d{fill:url(#a);}.e{fill:#c9ddfe;}.g{opacity:0.7;fill:url(#b);}.h{fill:url(#d);}.i{fill:#f2eac9;}.j{fill:url(#e);}.k{fill:url(#f);}.l{fill:url(#g);}.m{fill:#282328;}.n{fill:url(#h);}.o{fill:#252e48;}.p{fill:#473f47;}.q{fill:url(#i);}.r{fill:url(#j);}.s{fill:url(#o);}</style><linearGradient id="a" x1="-2.748" y1="1.259" x2="3.502" y2="-0.097" gradientUnits="objectBoundingBox"><stop offset="0.01"/><stop offset="0.13" stop-opacity="0.69"/><stop offset="0.25" stop-opacity="0.322"/><stop offset="1" stop-opacity="0"/></linearGradient><linearGradient id="b" x1="0.5" x2="0.5" y2="1" gradientUnits="objectBoundingBox"><stop offset="0" stop-color="#5690ff"/><stop offset="0.579" stop-color="#444864"/><stop offset="1" stop-color="#766de8"/></linearGradient><linearGradient id="d" x1="-2.746" y1="1.258" x2="3.506" y2="-0.097" xlink:href="#a"/><linearGradient id="e" x1="65.003" y1="0.214" x2="66.583" y2="1.247" xlink:href="#a"/><linearGradient id="f" x1="44.659" y1="1.65" x2="45.314" y2="-1.164" xlink:href="#a"/><linearGradient id="g" x1="18.062" y1="-0.458" x2="19.596" y2="1.916" xlink:href="#a"/><linearGradient id="h" x1="1.107" y1="-1.085" x2="-0.786" y2="3.452" xlink:href="#a"/><linearGradient id="i" x1="0.5" x2="0.5" y2="1" gradientUnits="objectBoundingBox"><stop offset="0" stop-color="#ffa330"/><stop offset="0.274" stop-color="#ff9346"/><stop offset="0.539" stop-color="#ff8559"/><stop offset="0.766" stop-color="#fb7a6a"/><stop offset="1" stop-color="#f07379"/></linearGradient><linearGradient id="j" x1="1.43" y1="1.994" x2="-0.71" y2="-2.009" xlink:href="#a"/><linearGradient id="o" x1="0.5" x2="0.5" y2="1" gradientUnits="objectBoundingBox"><stop offset="0" stop-color="#5690ff"/><stop offset="1" stop-color="#766de8"/></linearGradient></defs><g transform="translate(0 0)"><path class="a" d="M101.252,29.171c-12.243,11.752-19.868,26.364-30.42,39.2C63.026,77.965,53.5,86.553,45.565,96.105c-15.821,19.023-25.371,42.213-23.628,65.383s15.613,46.046,38.734,58.731c14.2,7.8,30.992,11.5,47.7,13.9,56.247,8.112,116.787,1.866,164.849-24,8.249-4.441,16.147-9.45,25.1-12.817,22.99-8.66,52.812-6.652,69.479-22.551,10.031-9.572,12.243-23.261,11.9-36.028-.4-15.332-4.255-31.434-16.238-42.933C347.85,80.713,319.421,77.65,298.317,68.372c-20.57-8.994-34.232-24.113-51.9-36.748C203.909,1.215,142.757-10.67,101.252,29.171Z" transform="translate(-21.733 -3.784)"/><path class="b" d="M255.372,159.244a8.423,8.423,0,0,1-2.654,6.155,8.834,8.834,0,0,1-5.271,2.392,6.556,6.556,0,0,1-1.109,0l-61.89-1.246a9.108,9.108,0,0,1-9.009-8.959,8.473,8.473,0,0,1,2.629-6.168,9.059,9.059,0,0,1,6.38-2.492h2.106a17.247,17.247,0,0,1-.66-4.7,16.684,16.684,0,0,1,5.208-12.136,17.256,17.256,0,0,1,4.984-3.327,18,18,0,0,1,7.576-1.5l5.258.112a18.267,18.267,0,0,1,15.812,9.794,10.7,10.7,0,0,1,4.859-1.034h1.358a10.815,10.815,0,0,1,10.7,10.629v.511a9.969,9.969,0,0,1-.424,2.866l5.121.1A9.146,9.146,0,0,1,255.372,159.244Z" transform="translate(57.771 1.3)"/><path class="c" d="M247.447,163.023a6.552,6.552,0,0,1-1.109,0l-61.89-1.246a9.108,9.108,0,0,1-9.009-8.959,8.473,8.473,0,0,1,2.629-6.168c-2.492,15.289,13.519,13.1,13.519,13.1H231.8Z" transform="translate(57.771 6.069)"/><path class="d" d="M189.019,150.448l-4.5-1.707a17.245,17.245,0,0,1-.66-4.7,16.684,16.684,0,0,1,5.208-12.136,17.258,17.258,0,0,1,4.984-3.327C181.6,139.246,189.019,150.448,189.019,150.448Z" transform="translate(18.153 15.297)"/><ellipse class="e" cx="93.03" cy="84.026" rx="93.03" ry="84.026" transform="translate(70.31 118.885)"/><path class="f" d="M263.6,184.333a89.5,89.5,0,0,1-18.082,54.055h0l-.19.264A89.853,89.853,0,1,1,263.6,184.333Z" transform="translate(-0.593 17.813)"/><path class="g" d="M142.014,139.8c-4.934,2.035-10.381,2.518-15.446,4.187s-10.146,5.037-11.449,10.249c-.674,2.621-.322,5.534-1.611,7.906-1.713,3.192-5.725,4.392-8.155,7.028-4.627,5.1-1.581,13.836,4.07,17.774s12.87,4.539,19.634,5.7a9.3,9.3,0,0,1,5.066,2.006c3.938,3.763-.425,10.571,1.245,15.754.937,2.928,3.7,4.934,4.963,7.745,2.416,5.359-1.245,11.274-3.66,16.632a41.317,41.317,0,0,0-1.1,30.922,6.038,6.038,0,0,1-.556.688A90.5,90.5,0,0,1,108.94,249.02c-7.423-10.41-13.294-21.757-12.679-34.231.337-6.764,2.591-13.294,3.016-20.029.7-10.937-3.25-22.811,2.108-32.357,2.928-5.285,8.638-11.083,5.447-16.208-5.637.82-11.713.952-16.881-1.01A89.9,89.9,0,0,1,157.563,95.2C163.126,111.1,158.7,132.769,142.014,139.8Z" transform="translate(2.223 18.148)"/><path class="g" d="M233.709,178.16a89.683,89.683,0,0,1-1.6,16.94,60.939,60.939,0,0,0-6.691,6.34c-7.1,8.316-8.638,19.853-9.795,30.746h0a2.159,2.159,0,0,1-.073.688.593.593,0,0,0-.117-.425,18.083,18.083,0,0,0-3.558-7.657c-2.021-2.182-5.608-3.265-8.067-1.552q-1.757-4.392-3.528-8.711c-7.321,0-14.875,0-21.757-2.591s-12.577-7.555-18.082-12.4a120.954,120.954,0,0,0-.469-25.212,87.5,87.5,0,0,0,55.563-28.419,63.485,63.485,0,0,0-36.6,9.444c-2.343,1.464-4.714,3.1-7.452,3.338a16.105,16.105,0,0,1-5.124-.7l-17.7-4.495c-2.211-11.391,5.681-22.826,15.827-28.462,7.613-4.217,16.852-3.4,24.158-7.086,5.007-2.518,6.471-6.925,10.849-10.161h.088a89.692,89.692,0,0,1,34.129,70.38Z" transform="translate(29.297 23.987)"/><path class="b" d="M120.892,141.7a8.473,8.473,0,0,1-2.642,6.155,8.872,8.872,0,0,1-5.271,2.392,10.84,10.84,0,0,1-1.109,0l-61.89-1.246a9.121,9.121,0,0,1-9.021-8.971,8.473,8.473,0,0,1,2.642-6.155,8.934,8.934,0,0,1,6.38-2.492h2.106a16.871,16.871,0,0,1-.66-4.71,16.672,16.672,0,0,1,5.208-12.136,17.045,17.045,0,0,1,4.984-3.314,17.968,17.968,0,0,1,7.576-1.5l5.258.112a18.3,18.3,0,0,1,15.787,9.644,11.04,11.04,0,0,1,4.86-1.034h1.358a10.828,10.828,0,0,1,10.691,10.641v.511a9.756,9.756,0,0,1-.411,2.853l5.121.112A9.121,9.121,0,0,1,120.892,141.7Z" transform="translate(-17.003 10.658)"/><path class="c" d="M112.98,145.483a10.84,10.84,0,0,1-1.109,0l-61.89-1.246a9.121,9.121,0,0,1-9.021-8.971A8.473,8.473,0,0,1,43.6,129.11c-2.43,15.276,13.519,13.1,13.519,13.1H97.33Z" transform="translate(-17.003 15.427)"/><path class="h" d="M54.506,132.908,50.02,131.2a16.87,16.87,0,0,1-.66-4.71,16.672,16.672,0,0,1,5.208-12.136,17.045,17.045,0,0,1,4.984-3.314C47.13,121.706,54.506,132.908,54.506,132.908Z" transform="translate(-14.936 10.981)"/><path class="i" d="M164.486,148.732c-.568,1.863-1.105,4.043,0,5.606a4.737,4.737,0,0,0,2.069,1.469,5.669,5.669,0,0,0,5.89-.616,7.643,7.643,0,0,0,1.784-3.348,77.867,77.867,0,0,0,3.158-13.912,2.511,2.511,0,0,0,0-1.326,2.258,2.258,0,0,0-1.121-1.011c-2.511-1.342-6.443-2.416-7.9.553C166.586,139.968,165.749,144.689,164.486,148.732Z" transform="translate(24.874 35.032)"/><path class="i" d="M186.828,160.395a2.337,2.337,0,0,1-.111,1.042,2.069,2.069,0,0,1-.79.774,6.758,6.758,0,0,1-3.506,1.184,4.074,4.074,0,0,1-3.3-1.484,6.791,6.791,0,0,1-1.026-3.048,35.46,35.46,0,0,1-.679-7.075.979.979,0,0,1,.932-1.169c1.958-.411,5.859-1.437,6.853.963A27.884,27.884,0,0,1,186.828,160.395Z" transform="translate(32.725 44.182)"/><path class="j" d="M172.607,145.492a3.538,3.538,0,0,1,1.579.142,2.778,2.778,0,0,1,.884.774l5.448,6.111c1.058,1.184,2.163,2.811,1.421,4.216a3.158,3.158,0,0,1-2.337,1.39,13.849,13.849,0,0,1-7.643-1.5c-1.674-.726-3.332-1.579-4.958-2.369a8.18,8.18,0,0,1-3.079-2.432c-1.248-1.895-1.579-6.443.6-7.9,1.121-.711,2.1-.205,3.158.284A10.5,10.5,0,0,0,172.607,145.492Z" transform="translate(24.349 40.434)"/><path class="k" d="M195.274,156.8a18.634,18.634,0,0,1,4.943.947,6.143,6.143,0,0,1,3.6,3.3,3.411,3.411,0,0,1,.111,2.369,5.1,5.1,0,0,1-2.684,2.542,34.235,34.235,0,0,1-18.286,3.932,6.317,6.317,0,0,1-4.437-1.579,6.949,6.949,0,0,1-1.169-4.437l-.221-7.422A9.239,9.239,0,0,1,181.2,157.6c2.337.79,3.253-1.105,5.18-1.579C188.894,155.437,192.716,156.543,195.274,156.8Z" transform="translate(32.569 47.544)"/><path class="l" d="M136.119,105.6a50.059,50.059,0,0,0-10.2.158,2.59,2.59,0,0,0-1.248.395,2.211,2.211,0,0,0-.695,1.579c-.474,4.579,3.158,8.559,7.074,10.975,10.6,6.569,23.955,6.317,35.657,10.612a5.369,5.369,0,0,1,2.827,1.848,6.648,6.648,0,0,1,.695,3.158c.521,6.174,3.948,11.733,5.085,17.813s-.079,12.444.853,18.571c3.837-4.09,10.375-4.737,14.212-8.78,3.6-3.727,4.311-9.285,4.848-14.433l1.453-14.117a4.327,4.327,0,0,0-2.558-5.116C176.845,117.095,156.6,107.367,136.119,105.6Z" transform="translate(1.762 18.331)"/><path class="m" d="M190.5,107.942a8.985,8.985,0,0,1,4.279,2.163,8.654,8.654,0,0,1,1.579,5.938,120.44,120.44,0,0,1-8.354,43.773,3.016,3.016,0,0,1-4.406,2.353,99.5,99.5,0,0,1-9.7-3.158l4.3-28.424a3.947,3.947,0,0,0-.126-2.384,3.853,3.853,0,0,0-1.295-1.326,114.216,114.216,0,0,0-15.475-9.475c-4.311-2.179-9.254-4.737-10.422-9.348a5.132,5.132,0,0,1,.853-4.658,7.6,7.6,0,0,1,2.369-1.579c2.858-1.405,6.459-3.158,9.743-2.874,2.637.268,3.648,1.784,5.843,2.906C175.786,104.879,183.887,106.016,190.5,107.942Z" transform="translate(17.238 14.567)"/><path class="i" d="M162.4,82.718c2.116,5.827,3.158,12,5.022,17.892a11.513,11.513,0,0,0,2.148,4.279,11.844,11.844,0,0,0,4.737,2.779q3.711,1.437,7.548,2.511c1.705.458,3.742,1.247,3.932,2.985a3.158,3.158,0,0,1-.347,1.674,7.9,7.9,0,0,1-6.569,4.027,21.256,21.256,0,0,1-7.9-1.295,11.859,11.859,0,0,1-6.064-3.269,12.838,12.838,0,0,1-1.942-4.579,130.3,130.3,0,0,0-10.722-26.5,30,30,0,0,1-3.158-7.106c-1.042-4.358-1.058-14.686,3.442-10.9C156.164,68.284,160.807,78.391,162.4,82.718Z" transform="translate(16 -5.419)"/><path class="b" d="M159.9,129.491a64.185,64.185,0,0,0,7.754-3.616c9.475-5.243,1.721-7.817-1.437-14.117-2.258-4.469-1.342-9.822-.174-14.67,2.069-8.527,4.832-17.37,2.842-25.882a9.948,9.948,0,0,0-1.579-3.853,10.88,10.88,0,0,0-1.99-1.911,21.477,21.477,0,0,0-6.79-3.964c-4.737-1.579-10.106-.426-14.607,1.832-17.686,8.875-21.46,31.283-20.75,49.206.189,4.974.963,10.233,4.169,14.038s7.738,5.258,12.38,5.827a42.179,42.179,0,0,0,20.181-2.89Z" transform="translate(1.273 -7.535)"/><path class="n" d="M129.9,101.509a10.628,10.628,0,0,0,1.579,4.737c1.579,2.227,4.485,3.048,7.153,3.7l12.017,2.969a15.791,15.791,0,0,0,4.516.679c3.285-.158,6.111-2.258,8.717-4.279a6.68,6.68,0,0,0,1.705-1.69c-6.632-.632-13.249-1.295-19.85-2.258-3.885-.569-7.99-1.358-10.849-4.027a13.612,13.612,0,0,1-3.285-5.2c-.474-1.216-.695-4.311-2.069-4.579a35.562,35.562,0,0,0,.363,9.949Z" transform="translate(4.898 10.31)"/><path class="i" d="M148.353,78.027a1.879,1.879,0,0,1-.553,1.326,1.705,1.705,0,0,1-1.09.221,8.669,8.669,0,0,1-8.117-10.249,43.673,43.673,0,0,1,1.39-4.422c.837-2.969.695-6.317,2.574-8.764a98.174,98.174,0,0,0,5.559,10.833,5.874,5.874,0,0,1,1.042,4.943Z" transform="translate(10.167 -10.203)"/><path class="o" d="M148.2,68.434l-.711,4.737s-8.133-4.027-7.074-11.5S148.2,68.434,148.2,68.434Z" transform="translate(11.252 -8.253)"/><path class="i" d="M158.218,70.214a7.5,7.5,0,0,1-2.527,3.853,5.685,5.685,0,0,1-1.927.837,11.67,11.67,0,0,1-12.428-5.8,17.07,17.07,0,0,1-.663-14.212,9.964,9.964,0,0,1,4.737-5.859,8.132,8.132,0,0,1,7.643.9,18.617,18.617,0,0,1,6.648,8.4C160.855,61.8,159.4,66.914,158.218,70.214Z" transform="translate(10.74 -14.644)"/><path class="p" d="M200.238,124.461A30.778,30.778,0,0,1,204.976,133a170.005,170.005,0,0,1,11.985,46.884,61.757,61.757,0,0,1-15.27,0,143.007,143.007,0,0,0-5.227-33.635,21.728,21.728,0,0,0-2.763-6.664c-2.258-3.269-5.969-5.164-9.475-6.932a139.725,139.725,0,0,0-25.6-9.475c-3.727-1.026-7.485-1.974-11.149-3.158-3.079-1.042-11.717-4.864-14.212-6.932a12.175,12.175,0,0,1-4.737-8.29c0,.821,24.066,2.463,25.787,2.274,5.8-.616,12.633-3.932,18.349-1.579,4.469,1.832,8.559,5.653,12.633,8.29C190.242,116.881,196.275,119.881,200.238,124.461Z" transform="translate(4.424 17.898)"/><path class="c" d="M146.272,123.271,116.9,108.917,151.341,94.31l29.388,12.838Z" transform="translate(32.019 17.872)"/><path class="i" d="M129.13,76.478a11.952,11.952,0,0,1-.205,1.579c-.869,8.085-.079,16.012.221,24.05.189,4.974.837,14.449,6.127,16.991,9.885,4.737,28.961,2.937,28.961,2.937a16.8,16.8,0,0,1,6.648.268c1.184.363,2.274.979,3.427,1.421,4.169,1.579,8.827.79,13.217,0a5.653,5.653,0,0,0,2.148-.711,3.9,3.9,0,0,0,.363-5.464,10.027,10.027,0,0,0-5.306-2.921,31.393,31.393,0,0,0-17.149-.663,19.145,19.145,0,0,1-2.211.6,14.89,14.89,0,0,1-2.653.189h-6.727c-7.738,0-15.033.095-16.2-8.954a49.147,49.147,0,0,1-.253-10.106c.458-6.08,2.053-12.112,1.721-18.192a12.065,12.065,0,0,0-1.405-5.527,5.622,5.622,0,0,0-4.643-2.937,5.8,5.8,0,0,0-4.737,3.158A12.634,12.634,0,0,0,129.13,76.478Z" transform="translate(4.424 -2.732)"/><path class="c" d="M182.053,84.1,141,104.992l-5.5,24.192,34.457-16.123Z" transform="translate(42.791 11.959)"/><path class="q" d="M174.748,64.169a6.6,6.6,0,0,0-1.579-4.09,6.981,6.981,0,0,0-1.737-1.453c-.916-.537-1.137-.584-1.737.284-.774,1.121-1.026,2.432-1.737,3.6A9.206,9.206,0,0,1,164.8,65.67a8.559,8.559,0,0,1-4.864,1.279,6.869,6.869,0,0,0-2.053,0,1.579,1.579,0,0,0-1.09.79,5.274,5.274,0,0,0-.174,1.816c-.142,1.579-1.705,2.7-2.574,4.074s-1.121,3.411-2.163,4.879a2.038,2.038,0,0,1-.774.695c-.742.316-1.579-.095-2.353-.237-2.29-.395-4.137,1.737-6.1,3.032-3.932,2.59-9.08,1.927-13.723,1.153a13.66,13.66,0,0,1-4.106-1.169,13.833,13.833,0,0,1-3.679-3.158c-1.721-1.895-3.427-3.822-5.116-5.748a6.649,6.649,0,0,1-1.469-2.163,3.885,3.885,0,0,1-.142-1.753A10.6,10.6,0,0,1,115.389,66c1.232-2.763,2.669-5.764,5.448-7.011s6.064-.316,9.127-.632a1.816,1.816,0,0,0,1.042-.332,2.274,2.274,0,0,0,.505-.963c1.279-4.248,2.874-8.859,6.7-11.054a15.333,15.333,0,0,1,9.475-1.248,37.41,37.41,0,0,0,9.649.553c1.579-.253,3.158-.774,4.737-1.09A15.46,15.46,0,0,1,172.932,45.8a11.464,11.464,0,0,1,5.59,9.333,13.069,13.069,0,0,0,0,2.227c.111.695.411,1.374.521,2.069a4.279,4.279,0,0,1-4.3,4.737Z" transform="translate(-3.768 -17.316)"/><path class="b" d="M128.15,81.591a69.624,69.624,0,0,0-.158,13.454,1.927,1.927,0,0,0,.284,1.105,1.958,1.958,0,0,0,1.295.632,44.01,44.01,0,0,0,7.753.742,2.606,2.606,0,0,0,3.379-2.163c1.421-5.938,2.827-11.875,3.9-17.892.426-2.416.726-5.132-.726-7.09-2.1-2.842-7.769-3.158-10.5-1.09C130.077,71.832,128.671,77.769,128.15,81.591Z" transform="translate(3.966 -3.361)"/><path class="b" d="M160.317,75.561l4.469,10.706a2.305,2.305,0,0,1,.253,1.358,2.148,2.148,0,0,1-.632.995,25.756,25.756,0,0,1-7.643,5.559,26.687,26.687,0,0,1-6.317-8.433c-1.484-3.806-1.153-8.038-.711-12.1.268-2.574.174-10.849,4.548-7.643C157.333,68.2,158.944,72.26,160.317,75.561Z" transform="translate(16.488 -4.91)"/><path class="r" d="M157.994,58.823a1.579,1.579,0,0,0-1.09.79,5.276,5.276,0,0,0-.174,1.816c-.142,1.579-1.705,2.7-2.574,4.074s-1.121,3.411-2.163,4.879a2.037,2.037,0,0,1-.774.695c-.742.316-1.579-.095-2.353-.237-2.29-.395-4.137,1.737-6.1,3.032-3.932,2.59-9.08,1.927-13.723,1.153a13.66,13.66,0,0,1-4.216-1.2,13.834,13.834,0,0,1-3.679-3.158c-1.721-1.895-3.427-3.822-5.116-5.748a6.649,6.649,0,0,1-1.469-2.163A3.885,3.885,0,0,1,114.425,61a19.6,19.6,0,0,1,2.29-1.184,10.628,10.628,0,0,1,7.9-.868c2.116.821,3.616,2.7,5.432,4.043a13.028,13.028,0,0,0,16.8-1.579,14.481,14.481,0,0,1,2.779-2.779C151.5,57.607,155.325,57.765,157.994,58.823Z" transform="translate(-3.768 -9.159)"/><path class="q" d="M873.52,464.3c13.333.228,13.331,20.061,0,20.287C860.187,484.361,860.189,464.528,873.52,464.3Z" transform="translate(-651.316 -373.918)"/><path class="b" d="M882.655,489.4a.714.714,0,0,1-.713-.713V484.9a.318.318,0,0,0-.318-.318h-3.78a.713.713,0,1,1,0-1.426h3.779a.318.318,0,0,0,.317-.318v-3.78a.713.713,0,1,1,1.426,0v3.78a.318.318,0,0,0,.318.318h3.779a.713.713,0,1,1,0,1.426h-3.779a.318.318,0,0,0-.318.318v3.78A.714.714,0,0,1,882.655,489.4Z" transform="translate(-660.45 -383.345)"/><path class="q" d="M233.386,564.684l-.044.009c-.354.065-.71.122-1.073.16-.122.014-.247.025-.369.035s-.247.021-.373.029c-.2.015-.412.022-.62.025-.09,0-.183,0-.272,0h-.054c-.111,0-.222,0-.333,0l-.287-.01c-.054,0-.108,0-.158-.008a15.058,15.058,0,1,1,8.361-28.066,15.058,15.058,0,0,0,0,26.058A14.98,14.98,0,0,1,233.386,564.684Z" transform="translate(27.869 -452.063)"/><path class="q" d="M302.646,561.673a14.76,14.76,0,0,0,1.821,1.244,14.98,14.98,0,0,1-7.529,2.029h-.194a15.059,15.059,0,1,1,7.723-28.087,15.029,15.029,0,0,0-1.821,24.813Z" transform="translate(-18.741 -452.062)"/><path class="q" d="M378.343,549.889a15.058,15.058,0,1,1-15.058-15.058,15.058,15.058,0,0,1,15.058,15.058Z" transform="translate(-65.398 -452.062)"/><path class="b" d="M390.594,586.326a10.087,10.087,0,0,1-.2,2.029,15.088,15.088,0,0,1-11.781,0,10.1,10.1,0,0,1-.2-2.029c0-3.542,1.8-6.536,4.288-7.536a4.661,4.661,0,1,1,3.614,0C388.791,579.79,390.594,582.784,390.594,586.326Z" transform="translate(-86.612 -476.668)"/><path class="b" d="M323,586.282v.047a15.363,15.363,0,0,1-.359,2.51,14.038,14.038,0,0,1-5.543.717H316.9a14.989,14.989,0,0,1-5.891-1.2,1.52,1.52,0,0,1-.032-.186,9.664,9.664,0,0,1-.172-1.843c0-3.542,1.8-6.536,4.288-7.536a4.66,4.66,0,0,1,1.807-8.956,4.472,4.472,0,0,1,1.083.129A15.041,15.041,0,0,0,323,586.282Z" transform="translate(-39.093 -476.671)"/><path class="b" d="M257.805,586.536a9.679,9.679,0,0,1-.2,1.821,14.991,14.991,0,0,1-4.2,1.1c-.122.015-.247.025-.369.036s-.247.021-.373.029c-.2.014-.412.021-.62.025-.043,0-.09,0-.133,0h-.194c-.111,0-.222,0-.333,0l-.287-.011c-.054,0-.107,0-.158-.007a14.913,14.913,0,0,1-5.113-1.176.061.061,0,0,1,0-.025,1.157,1.157,0,0,1-.029-.161,9.661,9.661,0,0,1-.172-1.843c0-3.542,1.8-6.536,4.288-7.536a4.66,4.66,0,0,1,1.807-8.956,4.576,4.576,0,0,1,.771.064A15.043,15.043,0,0,0,257.805,586.536Z" transform="translate(6.731 -476.671)"/><path class="s" d="M228.522,58.751C224.922,51.029,211.4,52.3,211.4,52.3c8.341-4.921,6.743-17.42,6.642-18.158h0c3.648,10.9,16.244,8.491,17.372,8.253C227.051,44.457,228.522,58.751,228.522,58.751Z" transform="translate(-141.09 35.247)"/><path class="s" d="M183.088,106.274c-2.287-4.908-10.888-4.1-10.888-4.1h0c5.444-3.236,4.21-11.564,4.21-11.564v.048c2.336,6.888,10.326,5.36,11.037,5.211C182.152,97.186,183.088,106.274,183.088,106.274Z" transform="translate(-119.1 3.568)"/></g></svg>