<svg xmlns="http://www.w3.org/2000/svg" xmlns:xlink="http://www.w3.org/1999/xlink" width="250" height="250" viewBox="0 0 250 250"><defs><style>.a{fill:#a1a1a1;}.b{clip-path:url(#a);}.c,.e,.q{fill:#387dff;}.c{opacity:0.1;}.d,.o{fill:#b0b6bf;}.d{opacity:0.56;}.e{opacity:0.7;}.f{fill:#e3e5f1;}.g{fill:url(#b);}.h{opacity:0.47;fill:url(#c);}.i{fill:url(#d);}.j{fill:url(#e);}.k{fill:url(#f);}.l{fill:#fff;}.m{fill:none;stroke:#fff;stroke-miterlimit:10;stroke-width:1.04px;}.n{fill:url(#g);}.p{fill:#f07379;}.q{opacity:0.31;}</style><clipPath id="a"><rect class="a" width="250" height="250" transform="translate(1101 349)"/></clipPath><linearGradient id="b" x1="0.578" y1="-1.34" x2="0.3" y2="4.961" gradientUnits="objectBoundingBox"><stop offset="0.01"/><stop offset="0.08" stop-opacity="0.69"/><stop offset="0.21" stop-opacity="0.322"/><stop offset="1" stop-opacity="0"/></linearGradient><linearGradient id="c" x1="0.4" y1="-2.438" x2="0.722" y2="6.336" xlink:href="#b"/><linearGradient id="d" x1="0.628" y1="-1.691" x2="0.183" y2="5.822" xlink:href="#b"/><linearGradient id="e" x1="0.616" y1="-0.599" x2="0.099" y2="3.874" xlink:href="#b"/><linearGradient id="f" x1="0.433" y1="-0.274" x2="0.923" y2="5.348" gradientUnits="objectBoundingBox"><stop offset="0" stop-color="#5690ff"/><stop offset="0.579" stop-color="#444864"/><stop offset="1" stop-color="#766de8"/></linearGradient><linearGradient id="g" x1="0.5" x2="0.5" y2="1" gradientUnits="objectBoundingBox"><stop offset="0" stop-color="#ffa330"/><stop offset="0.274" stop-color="#ff9346"/><stop offset="0.539" stop-color="#ff8559"/><stop offset="0.766" stop-color="#fb7a6a"/><stop offset="1" stop-color="#f07379"/></linearGradient></defs><g class="b" transform="translate(-1101 -349)"><g transform="translate(1113.5 379.833)"><path class="c" d="M122.131,49.169c-1.758.791-3.485,1.647-5.181,2.588C97.119,62.719,83.241,83.3,61.529,90.13c-5.878,1.851-12.188,2.36-16.938,6.409a49.7,49.7,0,0,0-8.864,10.339A66.813,66.813,0,0,0,25.612,132.96c-2.967,17.97,1.184,38.205,15.908,50.515,11.066,9.261,27.535,9.728,41.394,7.224,7.951-1.432,15.568-4.223,23.439-6.062a100.067,100.067,0,0,1,41.943-.725c9.147,1.8,17.986,4.894,27.14,6.793a61.513,61.513,0,0,0,20.133,1.288c6.44-.809,11.4-3.792,17.271-6.2C224,181.2,235.292,175.34,242.4,165.462a39.568,39.568,0,0,0,7.149-26.441,43.962,43.962,0,0,0-11.244-25.195c-2.831-3.163-6.532-5.954-7.914-9.98S228.8,95.126,228.365,91c-.938-9.051-2.06-18.36-6.6-26.315-5.046-8.841-13.983-15.173-23.735-18.737s-20.293-4.582-30.711-4.7C151.892,41.095,136.059,42.892,122.131,49.169Z" transform="translate(-24.714 -4.203)"/><path class="d" d="M263.186,184.518l-11.8,8.327-52.376,36.8c-4.022,2.9-7.286,5.644-12.813,9.453s-5.284,4.064-9.559,5.035a17.007,17.007,0,0,1-6.4-.111c-3.448-.561-11.3-2.408-11.3-2.408S99.349,226.43,68.922,220.6a1.658,1.658,0,0,1-.312-3.171,41.828,41.828,0,0,1,7.82-1.915c4.857-.9,9.645-1.769,14.489-2.561a243.563,243.563,0,0,1,29.512-3.275c16.432-.694,33.016,1.062,49.267-1.485,15.439-2.415,29.97-8.584,44.333-14.759,3.469-1.485,7-3.025,9.715-5.634,2.13-2.047,3.837-4.746,6.55-6.092,2.817-1.388,6.245-1.145,9.27-1.006C247.546,181.056,255.428,182.679,263.186,184.518Z" transform="translate(-62.865 -101.851)"/><path class="e" d="M71.158,209.812l68.585-29.838a8.23,8.23,0,0,1,4.809-.8l84.829,7.21c1.624.229,1.332,7.21,0,8.327l-50.1,42.647a12.594,12.594,0,0,1-11.22,2.817l-96.3-23.419C70.533,216.46,70.006,210.381,71.158,209.812Z" transform="translate(-63.768 -101.395)"/><path class="f" d="M229.5,189.043,179.4,231.69a12.581,12.581,0,0,1-11.22,2.824l-96.32-23.426a1.564,1.564,0,0,1-.243-2.817l26.4-14.9,6.939-3.9,21.1-11.859a8.223,8.223,0,0,1,4.809-.8l97.785,8.507C230.272,185.518,230.813,187.926,229.5,189.043Z" transform="translate(-63.868 -100.673)"/><path class="g" d="M119.449,138.97l89.382,13.219-27.513,22.344L89.59,155.971Z" transform="translate(-52.459 -60.502)"/><path class="h" d="M203.9,197.869c-.2.608-.861.92-1.459,1.157a129.3,129.3,0,0,1-13.3,4.186c-4.275,1.179-8.736,2.368-13.1,1.585a4.9,4.9,0,0,0-1.681-.137,5.6,5.6,0,0,0-2.341,1.522c-3.61,2.97-8.884,2.294-13.482,1.459a34.824,34.824,0,0,0,.3-4.571,214.311,214.311,0,0,1-36.746-2.505c-2.642-.407-9.782-.729-11.585-2.923a2.828,2.828,0,0,1-.529-.824l5.285-2.97a3.211,3.211,0,0,1,.708.111,130.775,130.775,0,0,0,43.241,4.492c.375-1.9-1.585-4.27-.1-5.528a2.674,2.674,0,0,1,1.686-.491,13.582,13.582,0,0,1,6.458,1.353,19.432,19.432,0,0,0,3.594,1.67,11.684,11.684,0,0,0,3.816.122,219.233,219.233,0,0,1,24.369-.465,7.788,7.788,0,0,1,3.874.83A1.787,1.787,0,0,1,203.9,197.869Z" transform="translate(-57.386 -99.299)"/><path class="i" d="M110.095,171.45l36.832,7.446-19.048,15.536-38.289-8.59Z" transform="translate(-52.459 -70.444)"/><path class="j" d="M117.31,237.3a5.961,5.961,0,0,0,3.8,3.1c2.706.652,18.479,4.691,18.479,4.691a4.922,4.922,0,0,0,3.99-1.388Z" transform="translate(-78.091 -119.21)"/><path class="k" d="M153.29,143.22l100.616,14.315a3.213,3.213,0,0,0,3.6-2.554l14.329-72.4a5.628,5.628,0,0,0-5.031-6.7L167.182,67.14a5.628,5.628,0,0,0-6.086,5Z" transform="translate(-89.104 -67.119)"/><path class="l" d="M229.272,113.746,243.6,40.422,142.007,31.04l-8.077,69.425Z" transform="translate(-66.032 -27.464)"/><ellipse class="m" cx="2.103" cy="1.931" rx="2.103" ry="1.931" transform="matrix(0.931, -0.364, 0.364, 0.931, 153.488, 33.239)"/><path class="m" d="M279.64,101.447c-.043-.1-.58-1.567-.58-1.567" transform="translate(-122.175 -63.839)"/><path class="l" d="M164.031,153.223S97.97,175.1,88.94,155.462s40.42-25.012,40.42-25.012S71.577,136.2,84.542,160.458s83.43.271,83.43.271Z" transform="translate(-46.913 -75.552)"/><path class="n" d="M214.84,163.791a5.551,5.551,0,0,0,.716,2.56l1.628,3.479a8.473,8.473,0,0,0,1.443,2.375,4.318,4.318,0,0,0,3.7,1.234,1.85,1.85,0,0,0,1.517-.987c.278-.722-.191-1.493-.567-2.165a22.578,22.578,0,0,1-1.924-5.878c-.37-1.567-1.123-3.775-3.035-4C216.629,160.214,214.939,162.145,214.84,163.791Z" transform="translate(-97.567 -87.028)"/><path class="l" d="M219.33,146.531s44.071-25.289,68.849-21.243c0,0-5.6,18.208-62.193,35.22Z" transform="translate(-99.288 -73.406)"/><path class="l" d="M255.613,122.292a6.74,6.74,0,0,1-.709-.062c-.068.13.241.617.308.654a.179.179,0,0,0,.234,0,.345.345,0,0,0,.055-.13l.111-.469" transform="translate(-112.916 -72.403)"/><path class="n" d="M224.569,149.23s-13.977-12.787-27.639,0c0,0,10.56-1.363,13.817,4.453Z" transform="translate(-90.704 -80.571)"/><path class="n" d="M238.972,171.71s-.666,18.936-19.362,19.738c0,0,8.37-6.581,6.5-12.984Z" transform="translate(-99.395 -91.363)"/><path class="o" d="M288.21,125.266s-5.6,18.208-62.193,35.22L224,156.249l-4.669-9.727s39.118-22.477,64.365-21.675a34.659,34.659,0,0,1,4.515.419Z" transform="translate(-99.288 -73.397)"/><path class="l" d="M288.213,125.179c-3.917,5.138-17.437,14.606-45.231,24.7q-2.356.864-4.854,1.727-6.569,2.27-14.125,4.552l-4.663-9.727s4.817-2.893,12.182-6.569c3.886-1.943,8.481-4.1,13.453-6.168C258.847,127.93,275.661,122.841,288.213,125.179Z" transform="translate(-99.291 -73.31)"/><circle class="n" cx="5.07" cy="5.07" r="5.07" transform="translate(144.4 62.065)"/><circle class="l" cx="3.454" cy="3.454" r="3.454" transform="translate(146.016 63.508)"/><ellipse class="p" cx="23.709" cy="23.71" rx="23.709" ry="23.71" transform="translate(118.27 109.819)"/><path class="q" d="M240.833,80.433,153.5,71.083l.458-1.433L241.283,79Z" transform="translate(-73.337 -42.851)"/><path class="q" d="M184.862,67.618,155.37,64.127l.6-2.567,29.5,3.217Z" transform="translate(-73.648 -41.503)"/><path class="q" d="M239.533,87.363,152.2,78.013l.45-1.433,87.333,9.35Z" transform="translate(-73.12 -44.006)"/><path class="l" d="M233.762,520.839l8.011,7.885a2,2,0,0,1-1.4,3.416h-.341a2.014,2.014,0,0,1-1.414-.581l-7.8-7.8a2,2,0,0,0-2.822,0l-7.8,7.8a1.989,1.989,0,0,1-1.408.581h-.347a2,2,0,0,1-1.4-3.416l8.017-7.885a1.982,1.982,0,0,0,0-2.8h0l-8.093-8.093a2,2,0,0,1,1.408-3.4h0a1.981,1.981,0,0,1,1.4.568l8.207,8.093a1.994,1.994,0,0,0,2.8,0l8.207-8.093a1.982,1.982,0,0,1,1.4-.568h0a2,2,0,0,1,1.414,3.4l-8.093,8.093a1.982,1.982,0,0,0,.038,2.8h0Z" transform="translate(-87.402 -385.811)"/></g></g></svg>