<svg xmlns="http://www.w3.org/2000/svg" xmlns:xlink="http://www.w3.org/1999/xlink" width="200" height="200" viewBox="0 0 200 200"><defs><style>.a{fill:#a1a1a1;}.b{clip-path:url(#a);}.c,.e,.q{fill:#387dff;}.c{opacity:0.1;}.d,.o{fill:#b0b6bf;}.d{opacity:0.56;}.e{opacity:0.7;}.f{fill:#e3e5f1;}.g{fill:url(#b);}.h{opacity:0.47;fill:url(#c);}.i{fill:url(#d);}.j{fill:url(#e);}.k{fill:url(#f);}.l{fill:#fff;}.m{fill:none;stroke:#fff;stroke-miterlimit:10;stroke-width:1.04px;}.n{fill:url(#g);}.p{fill:#f07379;}.q{opacity:0.31;}</style><clipPath id="a"><rect class="a" width="200" height="200" transform="translate(1101 349)"/></clipPath><linearGradient id="b" x1="0.578" y1="-1.34" x2="0.3" y2="4.961" gradientUnits="objectBoundingBox"><stop offset="0.01"/><stop offset="0.08" stop-opacity="0.69"/><stop offset="0.21" stop-opacity="0.322"/><stop offset="1" stop-opacity="0"/></linearGradient><linearGradient id="c" x1="0.4" y1="-2.438" x2="0.722" y2="6.336" xlink:href="#b"/><linearGradient id="d" x1="0.628" y1="-1.691" x2="0.183" y2="5.822" xlink:href="#b"/><linearGradient id="e" x1="0.616" y1="-0.599" x2="0.099" y2="3.874" xlink:href="#b"/><linearGradient id="f" x1="0.433" y1="-0.274" x2="0.923" y2="5.348" gradientUnits="objectBoundingBox"><stop offset="0" stop-color="#5690ff"/><stop offset="0.579" stop-color="#444864"/><stop offset="1" stop-color="#766de8"/></linearGradient><linearGradient id="g" x1="0.5" x2="0.5" y2="1" gradientUnits="objectBoundingBox"><stop offset="0" stop-color="#ffa330"/><stop offset="0.274" stop-color="#ff9346"/><stop offset="0.539" stop-color="#ff8559"/><stop offset="0.766" stop-color="#fb7a6a"/><stop offset="1" stop-color="#f07379"/></linearGradient></defs><g class="b" transform="translate(-1101 -349)"><g transform="translate(1111 373.667)"><path class="c" d="M102.648,47.583c-1.406.633-2.788,1.318-4.145,2.07-15.864,8.77-26.967,25.231-44.337,30.7-4.7,1.481-9.751,1.888-13.55,5.128a39.759,39.759,0,0,0-7.091,8.271,53.45,53.45,0,0,0-8.093,20.865c-2.374,14.376.947,30.564,12.726,40.412,8.853,7.409,22.028,7.782,33.116,5.779,6.361-1.145,12.455-3.378,18.751-4.85a80.053,80.053,0,0,1,33.555-.58c7.318,1.438,14.389,3.915,21.712,5.434a49.21,49.21,0,0,0,16.106,1.03c5.152-.647,9.124-3.033,13.817-4.96,8.927-3.676,17.962-8.362,23.651-16.264a31.655,31.655,0,0,0,5.719-21.152,35.169,35.169,0,0,0-9-20.156c-2.265-2.53-5.226-4.763-6.331-7.984s-1.278-6.977-1.623-10.279c-.75-7.241-1.648-14.688-5.28-21.052-4.036-7.073-11.187-12.138-18.988-14.99s-16.235-3.666-24.569-3.762C126.457,41.123,113.79,42.56,102.648,47.583Z" transform="translate(-24.714 -11.61)"/><path class="d" d="M224.062,183.733l-9.437,6.661-41.9,29.438c-3.218,2.319-5.829,4.515-10.25,7.563s-4.227,3.251-7.647,4.028a13.605,13.605,0,0,1-5.124-.089c-2.758-.449-9.037-1.926-9.037-1.926S92.992,217.262,68.65,212.6a1.327,1.327,0,0,1-.25-2.537,33.46,33.46,0,0,1,6.256-1.532c3.886-.716,7.716-1.416,11.591-2.048a194.851,194.851,0,0,1,23.609-2.62c13.145-.555,26.413.849,39.414-1.188,12.351-1.932,23.976-6.867,35.467-11.807,2.776-1.188,5.6-2.42,7.772-4.508,1.7-1.638,3.07-3.8,5.24-4.874,2.254-1.11,5-.916,7.416-.8A101.907,101.907,0,0,1,224.062,183.733Z" transform="translate(-63.805 -117.599)"/><path class="e" d="M71.03,203.67,125.9,179.8a6.584,6.584,0,0,1,3.847-.638l67.864,5.768c1.3.183,1.066,5.768,0,6.661l-40.08,34.118a10.075,10.075,0,0,1-8.976,2.254l-77.04-18.735C70.53,208.988,70.108,204.125,71.03,203.67Z" transform="translate(-65.118 -116.936)"/><path class="f" d="M197.77,186.582,157.69,220.7a10.065,10.065,0,0,1-8.976,2.259L71.658,204.218a1.251,1.251,0,0,1-.194-2.254L92.58,190.046l5.551-3.12,16.881-9.487a6.578,6.578,0,0,1,3.847-.638l78.228,6.806C198.386,183.762,198.819,185.688,197.77,186.582Z" transform="translate(-65.263 -115.886)"/><path class="g" d="M113.477,138.97l71.505,10.575L162.971,167.42,89.59,152.57Z" transform="translate(-59.885 -76.195)"/><path class="h" d="M185.119,196.779c-.161.486-.689.736-1.167.926a103.443,103.443,0,0,1-10.637,3.349c-3.42.943-6.989,1.894-10.481,1.268a3.919,3.919,0,0,0-1.344-.11,4.482,4.482,0,0,0-1.873,1.218c-2.888,2.376-7.107,1.835-10.785,1.167a27.861,27.861,0,0,0,.237-3.657,171.449,171.449,0,0,1-29.4-2c-2.114-.326-7.826-.583-9.268-2.338a2.262,2.262,0,0,1-.423-.66l4.228-2.376a2.569,2.569,0,0,1,.567.089,104.62,104.62,0,0,0,34.593,3.594c.3-1.518-1.268-3.416-.076-4.422a2.139,2.139,0,0,1,1.349-.393,10.865,10.865,0,0,1,5.167,1.082,15.546,15.546,0,0,0,2.875,1.336,9.348,9.348,0,0,0,3.053.1,175.387,175.387,0,0,1,19.495-.372,6.231,6.231,0,0,1,3.1.664A1.429,1.429,0,0,1,185.119,196.779Z" transform="translate(-67.905 -117.923)"/><path class="i" d="M105.994,171.45l29.466,5.956-15.238,12.429L89.59,182.963Z" transform="translate(-59.885 -90.645)"/><path class="j" d="M117.31,237.3a4.769,4.769,0,0,0,3.037,2.481c2.165.522,14.783,3.753,14.783,3.753a3.938,3.938,0,0,0,3.192-1.11Z" transform="translate(-85.935 -142.828)"/><path class="k" d="M153.29,128l80.493,11.452a2.57,2.57,0,0,0,2.881-2.043l11.463-57.921a4.5,4.5,0,0,0-4.025-5.362l-79.7-6.989a4.5,4.5,0,0,0-4.868,4Z" transform="translate(-101.941 -67.119)"/><path class="l" d="M210.2,97.2l11.463-58.66L140.392,31.04,133.93,86.58Z" transform="translate(-79.612 -28.179)"/><ellipse class="m" cx="1.683" cy="1.545" rx="1.683" ry="1.545" transform="matrix(0.931, -0.364, 0.364, 0.931, 122.791, 26.591)"/><path class="m" d="M279.524,101.133c-.035-.084-.464-1.253-.464-1.253" transform="translate(-153.552 -71.047)"/><path class="l" d="M147.754,148.668s-52.849,17.5-60.073,1.791,32.336-20.009,32.336-20.009-46.227,4.6-35.854,24.006,66.744.217,66.744.217Z" transform="translate(-54.059 -86.532)"/><path class="n" d="M214.84,163.113a4.441,4.441,0,0,0,.572,2.048l1.3,2.783a6.779,6.779,0,0,0,1.155,1.9,3.454,3.454,0,0,0,2.961.987,1.48,1.48,0,0,0,1.214-.79c.222-.577-.153-1.194-.454-1.732a18.062,18.062,0,0,1-1.54-4.7c-.3-1.253-.9-3.02-2.428-3.2C216.271,160.251,214.919,161.8,214.84,163.113Z" transform="translate(-121.022 -101.702)"/><path class="l" d="M219.33,142.194s35.257-20.231,55.079-16.994c0,0-4.481,14.567-49.755,28.176Z" transform="translate(-123.296 -83.695)"/><path class="l" d="M255.47,122.279a5.393,5.393,0,0,1-.567-.049c-.054.1.192.493.247.523a.143.143,0,0,0,.188,0,.276.276,0,0,0,.044-.1l.089-.375" transform="translate(-141.311 -82.368)"/><path class="n" d="M219.042,148.093s-11.182-10.229-22.112,0c0,0,8.448-1.091,11.053,3.563Z" transform="translate(-111.95 -93.166)"/><path class="n" d="M235.1,171.71s-.533,15.149-15.489,15.79c0,0,6.7-5.265,5.2-10.387Z" transform="translate(-123.438 -107.432)"/><path class="o" d="M274.434,125.178s-4.481,14.567-49.755,28.176l-1.614-3.39-3.735-7.782s31.295-17.981,51.492-17.34a27.729,27.729,0,0,1,3.612.336Z" transform="translate(-123.297 -83.683)"/><path class="l" d="M274.439,125.062c-3.133,4.11-13.95,11.685-36.185,19.763q-1.885.691-3.883,1.382-5.255,1.816-11.3,3.642l-3.73-7.782s3.854-2.314,9.746-5.255c3.109-1.554,6.785-3.281,10.762-4.935C250.946,127.263,264.4,123.192,274.439,125.062Z" transform="translate(-123.301 -83.567)"/><circle class="n" cx="4.056" cy="4.056" r="4.056" transform="translate(115.52 49.652)"/><circle class="l" cx="2.763" cy="2.763" r="2.763" transform="translate(116.813 50.807)"/><ellipse class="p" cx="18.967" cy="18.968" rx="18.967" ry="18.968" transform="translate(94.616 87.855)"/><path class="q" d="M223.367,78.277,153.5,70.8l.367-1.147,69.86,7.48Z" transform="translate(-89.369 -48.211)"/><path class="q" d="M178.963,66.407,155.37,63.613l.48-2.053,23.6,2.573Z" transform="translate(-89.993 -45.514)"/><path class="q" d="M222.067,85.207,152.2,77.727l.36-1.147,69.867,7.48Z" transform="translate(-88.936 -50.521)"/><path class="l" d="M230.288,517.979l6.409,6.308a1.6,1.6,0,0,1-1.121,2.733H235.3a1.612,1.612,0,0,1-1.131-.465l-6.237-6.242a1.6,1.6,0,0,0-2.257,0l-6.237,6.242a1.591,1.591,0,0,1-1.126.465h-.278a1.6,1.6,0,0,1-1.121-2.733l6.414-6.308a1.586,1.586,0,0,0,0-2.242h0l-6.474-6.475a1.6,1.6,0,0,1,1.126-2.722h0a1.585,1.585,0,0,1,1.116.454l6.565,6.475a1.6,1.6,0,0,0,2.237,0l6.565-6.475a1.586,1.586,0,0,1,1.116-.455h0a1.6,1.6,0,0,1,1.131,2.722l-6.474,6.475a1.586,1.586,0,0,0,.03,2.242h0Z" transform="translate(-113.2 -409.957)"/></g></g></svg>