<svg xmlns="http://www.w3.org/2000/svg" xmlns:xlink="http://www.w3.org/1999/xlink" width="472" height="385" viewBox="0 0 472 385">
  <defs>
    <linearGradient id="linear-gradient" x1="-2.748" y1="1.259" x2="3.502" y2="-0.097" gradientUnits="objectBoundingBox">
      <stop offset="0.01"/>
      <stop offset="0.13" stop-opacity="0.69"/>
      <stop offset="0.25" stop-opacity="0.322"/>
      <stop offset="1" stop-opacity="0"/>
    </linearGradient>
    <linearGradient id="linear-gradient-2" x1="0.5" y1="0.03" x2="0.5" y2="1" gradientUnits="objectBoundingBox">
      <stop offset="0" stop-color="#ffe6dc"/>
      <stop offset="0.753" stop-color="#9b8981"/>
      <stop offset="1" stop-color="#5d4f49"/>
      <stop offset="1" stop-color="#584a44"/>
    </linearGradient>
    <linearGradient id="linear-gradient-3" x1="-2.746" y1="1.258" x2="3.506" y2="-0.097" xlink:href="#linear-gradient"/>
    <linearGradient id="linear-gradient-4" x1="65.003" y1="0.214" x2="66.583" y2="1.247" xlink:href="#linear-gradient"/>
    <linearGradient id="linear-gradient-5" x1="44.659" y1="1.65" x2="45.314" y2="-1.164" xlink:href="#linear-gradient"/>
    <linearGradient id="linear-gradient-6" x1="1.107" y1="-1.085" x2="-0.786" y2="3.452" xlink:href="#linear-gradient"/>
    <linearGradient id="linear-gradient-7" x1="1.43" y1="1.994" x2="-0.71" y2="-2.009" xlink:href="#linear-gradient"/>
  </defs>
  <g id="InvitePeople_1920" transform="translate(0.007 -16.004)">
    <path id="Path_1717" data-name="Path 1717" d="M126.574,29.15C110.432,40.893,100.38,55.493,86.468,68.32,76.175,77.9,63.618,86.486,53.154,96.03,32.295,115.037,19.7,138.209,22,161.36s20.585,46.008,51.068,58.683c18.715,7.791,40.861,11.489,62.887,13.891,74.157,8.105,153.976,1.864,217.343-23.982,10.876-4.438,21.288-9.443,33.09-12.807,30.311-8.653,69.629-6.646,91.6-22.533,13.226-9.564,16.142-23.242,15.7-36-.532-15.319-5.609-31.409-21.408-42.9C451.7,80.65,414.215,77.59,386.391,68.32c-27.121-8.987-45.133-24.093-68.428-36.718C261.921,1.217,181.3-10.658,126.574,29.15Z" transform="translate(-21.74 12.22)" fill="rgba(189,163,150,0.4)" opacity="0.19"/>
    <path id="Path_1720" data-name="Path 1720" d="M190.661,157.411l-5.93-2.251a22.737,22.737,0,0,1-.871-6.193,22,22,0,0,1,6.867-16,22.753,22.753,0,0,1,6.571-4.386C180.887,142.642,190.661,157.411,190.661,157.411Z" transform="translate(82.474 77.116)" fill="url(#linear-gradient)"/>
    <path id="Path_1721" data-name="Path 1721" d="M320.828,212.946a118,118,0,0,1-23.84,71.268h0l-.251.348a118.465,118.465,0,1,1,24.091-71.616Z" transform="translate(25.921 69.574)" fill="#dcc7bc"/>
    <path id="Path_1722" data-name="Path 1722" d="M158.593,154c-6.505,2.683-13.686,3.32-20.365,5.521s-13.377,6.64-15.1,13.512c-.888,3.455-.425,7.3-2.123,10.424-2.259,4.208-7.548,5.791-10.752,9.266-6.1,6.718-2.085,18.242,5.366,23.434s16.968,5.984,25.886,7.509a12.258,12.258,0,0,1,6.679,2.645c5.193,4.961-.56,13.937,1.641,20.77,1.235,3.861,4.884,6.505,6.544,10.212,3.185,7.065-1.641,14.864-4.826,21.929a54.474,54.474,0,0,0-1.448,40.769,7.963,7.963,0,0,1-.733.907A119.317,119.317,0,0,1,114.987,298C105.2,284.277,97.459,269.317,98.27,252.87c.444-8.918,3.417-17.527,3.976-26.407.927-14.42-4.285-30.075,2.78-42.661,3.861-6.969,11.389-14.613,7.181-21.369-7.432,1.081-15.443,1.255-22.257-1.332a118.523,118.523,0,0,1,89.143-65.9C186.429,116.164,180.6,144.733,158.593,154Z" transform="translate(31.568 70.246)" opacity="0.7" fill="url(#linear-gradient-2)"/>
    <path id="Path_1723" data-name="Path 1723" d="M260.911,200.572a118.242,118.242,0,0,1-2.1,22.334,80.346,80.346,0,0,0-8.822,8.358c-9.362,10.964-11.389,26.175-12.914,40.537h0a2.847,2.847,0,0,1-.1.907.781.781,0,0,0-.154-.56,23.842,23.842,0,0,0-4.691-10.1c-2.664-2.876-7.393-4.3-10.636-2.046q-2.316-5.791-4.652-11.486c-9.652,0-19.612,0-28.685-3.417s-16.582-9.961-23.84-16.35a159.469,159.469,0,0,0-.618-33.24,115.357,115.357,0,0,0,73.256-37.468A83.7,83.7,0,0,0,188.7,170.5c-3.089,1.93-6.216,4.092-9.825,4.4a21.234,21.234,0,0,1-6.756-.927l-23.338-5.926c-2.915-15.018,7.49-30.094,20.867-37.526,10.038-5.559,22.218-4.478,31.851-9.343,6.6-3.32,8.532-9.131,14.3-13.4h.116a118.253,118.253,0,0,1,45,92.792Z" transform="translate(85.839 81.949)" fill="#cdbaaf" opacity="0.7"/>
    <path id="Path_1745" data-name="Path 1745" d="M146.345,151.886A11.171,11.171,0,0,1,142.862,160a11.7,11.7,0,0,1-6.949,3.154,14.29,14.29,0,0,1-1.462,0l-81.6-1.643A12.025,12.025,0,0,1,40.96,149.685a11.171,11.171,0,0,1,3.483-8.115,11.779,11.779,0,0,1,8.411-3.286H55.63a22.244,22.244,0,0,1-.871-6.21,21.981,21.981,0,0,1,6.867-16A22.473,22.473,0,0,1,68.2,111.7a23.689,23.689,0,0,1,9.988-1.971l6.933.148A24.133,24.133,0,0,1,105.932,122.6a14.555,14.555,0,0,1,6.407-1.364h1.791a14.276,14.276,0,0,1,14.1,14.029v.674a12.863,12.863,0,0,1-.542,3.762l6.752.148A12.025,12.025,0,0,1,146.345,151.886Z" transform="translate(-9.381 64.997)" fill="#fff"/>
    <path id="Path_1746" data-name="Path 1746" d="M135.913,150.7a14.282,14.282,0,0,1-1.462,0l-81.6-1.643A12.025,12.025,0,0,1,40.96,137.225a11.171,11.171,0,0,1,3.483-8.115c-3.2,20.141,17.824,17.266,17.824,17.266H115.28Z" transform="translate(-9.381 77.456)" fill="#b0b6bf"/>
    <path id="Path_1747" data-name="Path 1747" d="M56.145,139.871l-5.914-2.251a22.243,22.243,0,0,1-.871-6.21,21.98,21.98,0,0,1,6.867-16,22.473,22.473,0,0,1,6.571-4.37C46.419,125.1,56.145,139.871,56.145,139.871Z" transform="translate(-3.982 65.841)" fill="url(#linear-gradient-3)"/>
    <path id="Path_1724" data-name="Path 1724" d="M164.691,153.344c-.749,2.457-1.457,5.33,0,7.391a6.246,6.246,0,0,0,2.727,1.936,7.474,7.474,0,0,0,7.766-.812,10.077,10.077,0,0,0,2.353-4.414A102.66,102.66,0,0,0,181.7,139.1a3.311,3.311,0,0,0,0-1.749,2.977,2.977,0,0,0-1.478-1.332c-3.31-1.77-8.494-3.185-10.41.729C167.46,141.789,166.356,148.015,164.691,153.344Z" transform="translate(84.962 104.94)" fill="#f2eac9"/>
    <path id="Path_1726" data-name="Path 1726" d="M189.831,163.69a3.082,3.082,0,0,1-.146,1.374,2.727,2.727,0,0,1-1.041,1.02,8.91,8.91,0,0,1-4.622,1.561,5.372,5.372,0,0,1-4.351-1.957,8.954,8.954,0,0,1-1.353-4.018,46.751,46.751,0,0,1-.9-9.327,1.291,1.291,0,0,1,1.228-1.541c2.582-.541,7.724-1.895,9.036,1.27A36.763,36.763,0,0,1,189.831,163.69Z" transform="translate(99.629 122.035)" fill="#f2eac9"/>
    <path id="Path_1728" data-name="Path 1728" d="M175.687,146.1a4.665,4.665,0,0,1,2.082.187,3.664,3.664,0,0,1,1.166,1.02l7.183,8.057c1.395,1.561,2.852,3.706,1.874,5.559a4.164,4.164,0,0,1-3.081,1.832,18.259,18.259,0,0,1-10.077-1.978c-2.207-.958-4.393-2.082-6.537-3.123a10.785,10.785,0,0,1-4.06-3.206c-1.645-2.5-2.082-8.494.791-10.41,1.478-.937,2.769-.271,4.164.375A13.844,13.844,0,0,0,175.687,146.1Z" transform="translate(83.98 115.034)" fill="url(#linear-gradient-4)"/>
    <path id="Path_1729" data-name="Path 1729" d="M201.052,157.1a24.568,24.568,0,0,1,6.517,1.249,8.1,8.1,0,0,1,4.747,4.351,4.5,4.5,0,0,1,.146,3.123,6.725,6.725,0,0,1-3.539,3.352,45.137,45.137,0,0,1-24.109,5.184,8.328,8.328,0,0,1-5.85-2.082,9.161,9.161,0,0,1-1.541-5.85l-.291-9.785a12.18,12.18,0,0,1,5.371,1.52c3.081,1.041,4.289-1.457,6.829-2.082C192.641,155.3,197.679,156.762,201.052,157.1Z" transform="translate(99.338 128.317)" fill="url(#linear-gradient-5)"/>
    <path id="Path_1731" data-name="Path 1731" d="M203.192,110.818a11.847,11.847,0,0,1,5.642,2.852,11.409,11.409,0,0,1,2.082,7.828A158.793,158.793,0,0,1,199.9,179.211a3.977,3.977,0,0,1-5.809,3.1,131.19,131.19,0,0,1-12.783-4.164l5.663-37.476a5.2,5.2,0,0,0-.166-3.144,5.08,5.08,0,0,0-1.707-1.749,150.585,150.585,0,0,0-20.4-12.492c-5.684-2.873-12.2-6.246-13.741-12.325a6.767,6.767,0,0,1,1.124-6.142,10.015,10.015,0,0,1,3.123-2.082c3.768-1.853,8.515-4.164,12.846-3.789,3.477.354,4.809,2.353,7.7,3.831C183.788,106.779,194.469,108.278,203.192,110.818Z" transform="translate(70.695 66.706)" fill="#282328"/>
    <path id="Path_1732" data-name="Path 1732" d="M166.822,88.55c2.79,7.682,4.164,15.823,6.621,23.589a15.179,15.179,0,0,0,2.832,5.642,15.615,15.615,0,0,0,6.246,3.664q4.893,1.895,9.952,3.31c2.249.6,4.934,1.645,5.184,3.935a4.164,4.164,0,0,1-.458,2.207,10.41,10.41,0,0,1-8.661,5.309,28.024,28.024,0,0,1-10.41-1.707,15.635,15.635,0,0,1-7.995-4.31,16.925,16.925,0,0,1-2.561-6.038,171.789,171.789,0,0,0-14.137-34.936,39.558,39.558,0,0,1-4.164-9.369c-1.374-5.746-1.395-19.362,4.539-14.366C158.6,69.521,164.72,82.846,166.822,88.55Z" transform="translate(68.382 29.366)" fill="#f2eac9"/>
    <path id="Path_1733" data-name="Path 1733" d="M171.622,151.381a84.622,84.622,0,0,0,10.223-4.768c12.492-6.912,2.269-10.306-1.895-18.613-2.977-5.892-1.77-12.95-.229-19.342,2.727-11.243,6.371-22.9,3.748-34.124a13.115,13.115,0,0,0-2.082-5.08,14.344,14.344,0,0,0-2.623-2.519,28.315,28.315,0,0,0-8.953-5.226c-6.246-2.082-13.325-.562-19.258,2.415C127.234,75.826,122.258,105.369,123.2,129c.25,6.558,1.27,13.491,5.5,18.509s10.2,6.933,16.323,7.683a55.61,55.61,0,0,0,26.608-3.81Z" transform="translate(40.867 25.414)" fill="#49b776"/>
    <path id="Path_1734" data-name="Path 1734" d="M130.08,104.676a14.013,14.013,0,0,0,2.082,6.246c2.082,2.936,5.913,4.018,9.431,4.872l15.844,3.914a20.819,20.819,0,0,0,5.954.9c4.331-.208,8.057-2.977,11.493-5.642a8.807,8.807,0,0,0,2.249-2.228c-8.744-.833-17.468-1.707-26.17-2.977-5.122-.75-10.535-1.791-14.3-5.309a17.946,17.946,0,0,1-4.33-6.85c-.625-1.6-.916-5.684-2.727-6.038a46.887,46.887,0,0,0,.479,13.116Z" transform="translate(47.639 58.753)" fill="url(#linear-gradient-6)"/>
    <path id="Path_1735" data-name="Path 1735" d="M151.507,85a2.478,2.478,0,0,1-.729,1.749,2.248,2.248,0,0,1-1.437.291,11.43,11.43,0,0,1-10.7-13.512,57.578,57.578,0,0,1,1.832-5.83c1.1-3.914.916-8.328,3.394-11.555a129.434,129.434,0,0,0,7.329,14.282,7.745,7.745,0,0,1,1.374,6.517Z" transform="translate(57.484 20.429)" fill="#f2eac9"/>
    <path id="Path_1736" data-name="Path 1736" d="M150.709,71.276l-.937,6.246s-10.722-5.309-9.327-15.157S150.709,71.276,150.709,71.276Z" transform="translate(59.51 24.072)" fill="#252e48"/>
    <path id="Path_1737" data-name="Path 1737" d="M164.2,77.138a9.889,9.889,0,0,1-3.331,5.08,7.5,7.5,0,0,1-2.54,1.1,15.386,15.386,0,0,1-16.385-7.641,22.506,22.506,0,0,1-.874-18.738,13.137,13.137,0,0,1,6.246-7.724,10.722,10.722,0,0,1,10.077,1.187,24.545,24.545,0,0,1,8.765,11.076C167.676,66.041,165.761,72.787,164.2,77.138Z" transform="translate(58.555 12.132)" fill="#f2eac9"/>
    <path id="Path_1738" data-name="Path 1738" d="M223.073,130.765a40.578,40.578,0,0,1,6.246,11.264,224.142,224.142,0,0,1,15.8,61.814,81.423,81.423,0,0,1-20.133,0A188.546,188.546,0,0,0,218.1,159.5a28.647,28.647,0,0,0-3.643-8.786c-2.977-4.31-7.87-6.808-12.492-9.14a184.218,184.218,0,0,0-33.749-12.492c-4.913-1.353-9.869-2.6-14.7-4.164-4.06-1.374-15.448-6.412-18.738-9.14a16.052,16.052,0,0,1-6.246-10.93c0,1.083,31.729,3.248,34,3,7.641-.812,16.656-5.184,24.193-2.082,5.892,2.415,11.284,7.453,16.656,10.93C209.894,120.772,217.847,124.727,223.073,130.765Z" transform="translate(46.753 72.065)" fill="#473f47"/>
    <path id="Path_1739" data-name="Path 1739" d="M155.625,132.493,116.9,113.568,162.308,94.31l38.746,16.927Z" transform="translate(79.434 69.598)" fill="#b0b6bf"/>
    <path id="Path_1740" data-name="Path 1740" d="M129.322,78.846a15.757,15.757,0,0,1-.271,2.082c-1.145,10.66-.1,21.111.291,31.709.25,6.558,1.1,19.05,8.078,22.4,13.033,6.246,38.183,3.873,38.183,3.873a22.152,22.152,0,0,1,8.765.354c1.561.479,3,1.291,4.518,1.874,5.5,2.082,11.638,1.041,17.426,0a7.454,7.454,0,0,0,2.832-.937,5.143,5.143,0,0,0,.479-7.2,13.22,13.22,0,0,0-7-3.852,41.39,41.39,0,0,0-22.61-.874,25.243,25.243,0,0,1-2.915.791,19.631,19.631,0,0,1-3.5.25h-8.869c-10.2,0-19.82.125-21.361-11.8a64.8,64.8,0,0,1-.333-13.325c.6-8.016,2.707-15.969,2.269-23.984a15.907,15.907,0,0,0-1.853-7.287,7.412,7.412,0,0,0-6.121-3.872,7.641,7.641,0,0,0-6.246,4.164A16.657,16.657,0,0,0,129.322,78.846Z" transform="translate(46.754 34.386)" fill="#f2eac9"/>
    <path id="Path_1741" data-name="Path 1741" d="M196.877,84.1l-54.131,27.545-7.245,31.9,45.429-21.257Z" transform="translate(99.559 58.552)" fill="#b0b6bf"/>
    <path id="Path_1742" data-name="Path 1742" d="M193.97,70.638a8.7,8.7,0,0,0-2.082-5.392,9.2,9.2,0,0,0-2.29-1.915c-1.208-.708-1.5-.77-2.29.375-1.02,1.478-1.353,3.206-2.29,4.747a12.137,12.137,0,0,1-4.164,4.164,11.284,11.284,0,0,1-6.413,1.686,9.056,9.056,0,0,0-2.707,0,2.082,2.082,0,0,0-1.437,1.041,6.954,6.954,0,0,0-.229,2.394c-.187,2.082-2.249,3.56-3.394,5.372s-1.478,4.5-2.852,6.433a2.687,2.687,0,0,1-1.02.916c-.979.416-2.082-.125-3.1-.312-3.019-.52-5.455,2.29-8.036,4-5.184,3.414-11.971,2.54-18.092,1.52a18.01,18.01,0,0,1-5.413-1.541,18.238,18.238,0,0,1-4.851-4.164c-2.269-2.5-4.518-5.038-6.746-7.578a8.766,8.766,0,0,1-1.936-2.852,5.122,5.122,0,0,1-.187-2.311,13.969,13.969,0,0,1,1.27-4.164c1.624-3.643,3.519-7.6,7.183-9.244s7.995-.416,12.034-.833a2.394,2.394,0,0,0,1.374-.437,3,3,0,0,0,.666-1.27c1.686-5.6,3.789-11.68,8.828-14.574a20.216,20.216,0,0,1,12.492-1.645,49.323,49.323,0,0,0,12.721.729c2.082-.333,4.164-1.02,6.246-1.437a20.383,20.383,0,0,1,14.324,2.082,15.115,15.115,0,0,1,7.37,12.3,17.23,17.23,0,0,0,0,2.936c.146.916.541,1.811.687,2.727a5.642,5.642,0,0,1-5.663,6.246Z" transform="translate(31.448 7.139)" fill="#a58575"/>
    <path id="Path_1743" data-name="Path 1743" d="M128.281,85.933a91.8,91.8,0,0,0-.208,17.739,2.541,2.541,0,0,0,.375,1.457,2.582,2.582,0,0,0,1.707.833,58.024,58.024,0,0,0,10.222.979,3.435,3.435,0,0,0,4.456-2.852c1.874-7.828,3.727-15.656,5.142-23.589.562-3.185.958-6.766-.958-9.348-2.769-3.748-10.243-4.164-13.845-1.437C130.821,73.066,128.968,80.895,128.281,85.933Z" transform="translate(45.9 33.212)" fill="#49b776"/>
    <path id="Path_1744" data-name="Path 1744" d="M163.806,78.834,169.7,92.95a3.04,3.04,0,0,1,.333,1.79,2.832,2.832,0,0,1-.833,1.312,33.958,33.958,0,0,1-10.077,7.329,35.185,35.185,0,0,1-8.328-11.118c-1.957-5.018-1.52-10.6-.937-15.948.354-3.394.229-14.3,6-10.077C159.871,69.132,161.994,74.483,163.806,78.834Z" transform="translate(69.294 30.317)" fill="#49b776"/>
    <path id="Path_1751" data-name="Path 1751" d="M171.881,59.1a2.082,2.082,0,0,0-1.437,1.041,6.955,6.955,0,0,0-.229,2.394c-.187,2.082-2.249,3.56-3.394,5.372s-1.478,4.5-2.852,6.433a2.685,2.685,0,0,1-1.02.916c-.979.416-2.082-.125-3.1-.312-3.019-.52-5.455,2.29-8.036,4-5.184,3.414-11.971,2.54-18.092,1.52a18.01,18.01,0,0,1-5.559-1.582,18.239,18.239,0,0,1-4.851-4.164c-2.269-2.5-4.518-5.038-6.746-7.578a8.766,8.766,0,0,1-1.936-2.852,5.122,5.122,0,0,1-.187-2.311,25.835,25.835,0,0,1,3.019-1.562,14.012,14.012,0,0,1,10.41-1.145c2.79,1.083,4.768,3.56,7.162,5.33a17.176,17.176,0,0,0,22.152-2.082,19.092,19.092,0,0,1,3.664-3.664C163.324,57.5,168.362,57.709,171.881,59.1Z" transform="translate(31.448 22.378)" fill="url(#linear-gradient-7)"/>
    <path id="Path_1851" data-name="Path 1851" d="M876.7,464.3c17.579.3,17.576,26.449,0,26.747C859.125,490.749,859.128,464.6,876.7,464.3Z" transform="translate(-583.749 -329.133)" fill="#49b776"/>
    <path id="Path_1852" data-name="Path 1852" d="M884.414,492.914a.941.941,0,0,1-.94-.94v-4.984a.42.42,0,0,0-.419-.419h-4.983a.94.94,0,1,1,0-1.88h4.983a.419.419,0,0,0,.419-.419V479.29a.94.94,0,1,1,1.879,0v4.983a.42.42,0,0,0,.419.419h4.983a.94.94,0,1,1,0,1.88h-4.983a.419.419,0,0,0-.419.419v4.983A.941.941,0,0,1,884.414,492.914Z" transform="translate(-591.458 -337.089)" fill="#fff"/>
    <path id="Path_1829" data-name="Path 1829" d="M309.266,570.221a19.433,19.433,0,0,0,2.4,1.64,19.749,19.749,0,0,1-9.927,2.676h-.255a19.854,19.854,0,1,1,10.182-37.03,19.815,19.815,0,0,0-2.4,32.715Z" transform="translate(35.038 -409.702)" fill="#49b776"/>
    <path id="Path_1830" data-name="Path 1830" d="M387.933,554.684a19.853,19.853,0,1,1-19.853-19.853,19.853,19.853,0,0,1,19.853,19.853Z" transform="translate(-5.342 -409.702)" fill="#49b776"/>
    <path id="Path_1831" data-name="Path 1831" d="M394.476,591.578a13.3,13.3,0,0,1-.27,2.675,19.893,19.893,0,0,1-15.533,0,13.314,13.314,0,0,1-.269-2.675c0-4.67,2.378-8.617,5.654-9.936a6.145,6.145,0,1,1,4.765,0C392.1,582.961,394.476,586.908,394.476,591.578Z" transform="translate(-23.702 -430.998)" fill="#fff"/>
    <path id="Path_1832" data-name="Path 1832" d="M326.878,591.519v.062a20.256,20.256,0,0,1-.473,3.309c-2.311.983-4.647.912-7.308.945h-.255a19.763,19.763,0,0,1-7.766-1.579,2,2,0,0,1-.042-.245,12.737,12.737,0,0,1-.227-2.43c0-4.67,2.378-8.617,5.654-9.936a6.144,6.144,0,0,1,2.382-11.808,5.9,5.9,0,0,1,1.428.17,19.831,19.831,0,0,0,6.608,21.512Z" transform="translate(17.423 -431.001)" fill="#fff"/>
    <path id="Path_1853" data-name="Path 1853" d="M233.974,66.588C229.227,56.407,211.4,58.08,211.4,58.08c11-6.488,8.891-22.967,8.757-23.94h0c4.81,14.366,21.416,11.194,22.9,10.882C232.035,47.742,233.974,66.588,233.974,66.588Z" transform="translate(-118.708 73.345)" fill="#debaa8"/>
    <path id="Path_1854" data-name="Path 1854" d="M186.555,111.262c-3.016-6.471-14.355-5.406-14.355-5.406h0c7.177-4.266,5.551-15.246,5.551-15.246v.064c3.079,9.082,13.614,7.067,14.551,6.871C185.322,99.281,186.555,111.262,186.555,111.262Z" transform="translate(-102.199 49.561)" fill="#debaa8"/>
  </g>
</svg>
