<svg xmlns="http://www.w3.org/2000/svg" xmlns:xlink="http://www.w3.org/1999/xlink" width="300" height="300" viewBox="0 0 300 300"><defs><style>.a{fill:#a1a1a1;}.b{clip-path:url(#a);}.c,.e,.q{fill:#387dff;}.c{opacity:0.1;}.d,.o{fill:#b0b6bf;}.d{opacity:0.56;}.e{opacity:0.7;}.f{fill:#e3e5f1;}.g{fill:url(#b);}.h{opacity:0.47;fill:url(#c);}.i{fill:url(#d);}.j{fill:url(#e);}.k{fill:url(#f);}.l{fill:#fff;}.m{fill:none;stroke:#fff;stroke-miterlimit:10;stroke-width:1.04px;}.n{fill:url(#g);}.p{fill:#f07379;}.q{opacity:0.31;}</style><clipPath id="a"><rect class="a" width="300" height="300" transform="translate(1101 349)"/></clipPath><linearGradient id="b" x1="0.578" y1="-1.34" x2="0.3" y2="4.961" gradientUnits="objectBoundingBox"><stop offset="0.01"/><stop offset="0.08" stop-opacity="0.69"/><stop offset="0.21" stop-opacity="0.322"/><stop offset="1" stop-opacity="0"/></linearGradient><linearGradient id="c" x1="0.4" y1="-2.438" x2="0.722" y2="6.336" xlink:href="#b"/><linearGradient id="d" x1="0.628" y1="-1.691" x2="0.183" y2="5.822" xlink:href="#b"/><linearGradient id="e" x1="0.616" y1="-0.599" x2="0.099" y2="3.874" xlink:href="#b"/><linearGradient id="f" x1="0.433" y1="-0.274" x2="0.923" y2="5.348" gradientUnits="objectBoundingBox"><stop offset="0" stop-color="#5690ff"/><stop offset="0.579" stop-color="#444864"/><stop offset="1" stop-color="#766de8"/></linearGradient><linearGradient id="g" x1="0.5" x2="0.5" y2="1" gradientUnits="objectBoundingBox"><stop offset="0" stop-color="#ffa330"/><stop offset="0.274" stop-color="#ff9346"/><stop offset="0.539" stop-color="#ff8559"/><stop offset="0.766" stop-color="#fb7a6a"/><stop offset="1" stop-color="#f07379"/></linearGradient></defs><g class="b" transform="translate(-1101 -349)"><g transform="translate(1116 386)"><path class="c" d="M141.615,50.756c-2.11.949-4.182,1.977-6.217,3.105-23.8,13.154-40.451,37.846-66.5,46.048-7.054,2.221-14.626,2.832-20.325,7.691A59.639,59.639,0,0,0,37.93,120.007a80.175,80.175,0,0,0-12.139,31.3c-3.56,21.565,1.421,45.846,19.089,60.618,13.279,11.113,33.041,11.674,49.673,8.669,9.541-1.718,18.682-5.068,28.127-7.274a120.08,120.08,0,0,1,50.332-.87c10.977,2.156,21.584,5.873,32.568,8.151,7.89,1.646,16.106,2.559,24.159,1.545,7.727-.97,13.686-4.55,20.725-7.44,13.39-5.513,26.942-12.543,35.477-24.4a47.482,47.482,0,0,0,8.579-31.729,52.754,52.754,0,0,0-13.493-30.234c-3.4-3.8-7.839-7.145-9.5-11.976s-1.917-10.466-2.435-15.419c-1.125-10.861-2.472-22.032-7.92-31.578-6.055-10.61-16.78-18.208-28.482-22.485s-24.352-5.5-36.853-5.643C177.328,41.066,158.328,43.223,141.615,50.756Z" transform="translate(-24.714 3.203)"/><path class="d" d="M302.311,185.3,288.155,195.3,225.3,239.453c-4.827,3.478-8.743,6.772-15.375,11.344s-6.341,4.877-11.47,6.042a20.408,20.408,0,0,1-7.686-.133c-4.137-.673-13.556-2.889-13.556-2.889S105.706,235.6,69.193,228.6a1.99,1.99,0,0,1-.375-3.805,50.193,50.193,0,0,1,9.384-2.3c5.829-1.074,11.574-2.123,17.386-3.073A292.274,292.274,0,0,1,131,215.5c19.718-.833,39.619,1.274,59.12-1.782,18.527-2.9,35.964-10.3,53.2-17.711,4.163-1.782,8.4-3.63,11.658-6.761,2.556-2.456,4.6-5.7,7.861-7.311,3.381-1.665,7.494-1.374,11.125-1.207C283.542,181.148,293,183.1,302.311,185.3Z" transform="translate(-61.925 -86.103)"/><path class="e" d="M71.286,215.955l82.3-35.805a9.876,9.876,0,0,1,5.77-.958l101.8,8.652c1.948.275,1.6,8.652,0,9.992l-60.12,51.177a15.113,15.113,0,0,1-13.464,3.381L72.01,224.29C70.536,223.932,69.9,216.637,71.286,215.955Z" transform="translate(-62.418 -85.854)"/><path class="f" d="M261.233,191.5l-60.12,51.177a15.1,15.1,0,0,1-13.464,3.389L72.065,217.958a1.876,1.876,0,0,1-.291-3.381L103.448,196.7l8.327-4.68L137.1,177.789a9.868,9.868,0,0,1,5.771-.958L260.209,187.04C262.158,187.273,262.807,190.163,261.233,191.5Z" transform="translate(-62.473 -85.459)"/><path class="g" d="M125.42,138.97l107.258,15.863-33.016,26.812L89.59,159.371Z" transform="translate(-45.033 -44.808)"/><path class="h" d="M222.688,198.959c-.241.729-1.034,1.1-1.75,1.389a155.169,155.169,0,0,1-15.956,5.023c-5.131,1.414-10.483,2.841-15.722,1.9a5.879,5.879,0,0,0-2.017-.165,6.723,6.723,0,0,0-2.809,1.826c-4.331,3.564-10.661,2.752-16.178,1.75a41.787,41.787,0,0,0,.355-5.486,257.172,257.172,0,0,1-44.1-3.006c-3.171-.488-11.739-.875-13.9-3.507a3.393,3.393,0,0,1-.634-.989l6.342-3.564a3.854,3.854,0,0,1,.85.133,156.929,156.929,0,0,0,51.889,5.391c.45-2.277-1.9-5.124-.114-6.634a3.208,3.208,0,0,1,2.023-.59,16.3,16.3,0,0,1,7.75,1.624,23.319,23.319,0,0,0,4.312,2,14.022,14.022,0,0,0,4.579.146,263.083,263.083,0,0,1,29.242-.558,9.346,9.346,0,0,1,4.649,1A2.144,2.144,0,0,1,222.688,198.959Z" transform="translate(-46.868 -80.674)"/><path class="i" d="M114.2,171.45l44.2,8.935-22.857,18.644L89.59,188.72Z" transform="translate(-45.033 -50.242)"/><path class="j" d="M117.31,237.3a7.153,7.153,0,0,0,4.555,3.722c3.247.783,22.174,5.629,22.174,5.629s3.081.366,4.788-1.665Z" transform="translate(-70.247 -95.592)"/><path class="k" d="M153.29,158.44l120.739,17.178a3.855,3.855,0,0,0,4.322-3.064l17.195-86.882a6.753,6.753,0,0,0-6.037-8.044L169.96,67.145a6.753,6.753,0,0,0-7.3,6Z" transform="translate(-76.267 -67.119)"/><path class="l" d="M248.34,130.287,265.535,42.3,143.622,31.04l-9.692,83.31Z" transform="translate(-52.453 -26.749)"/><ellipse class="m" cx="2.524" cy="2.317" rx="2.524" ry="2.317" transform="matrix(0.931, -0.364, 0.364, 0.931, 184.186, 39.887)"/><path class="m" d="M279.756,101.76c-.052-.126-.7-1.88-.7-1.88" transform="translate(-90.799 -56.63)"/><path class="l" d="M180.308,157.777s-79.273,26.247-90.109,2.687,48.5-30.014,48.5-30.014-69.34,6.906-53.781,36.01,100.116.326,100.116.326Z" transform="translate(-39.766 -64.573)"/><path class="n" d="M214.84,164.47a6.661,6.661,0,0,0,.859,3.072l1.954,4.175a10.168,10.168,0,0,0,1.732,2.85,5.181,5.181,0,0,0,4.441,1.48,2.22,2.22,0,0,0,1.821-1.184c.333-.866-.229-1.791-.681-2.6a27.094,27.094,0,0,1-2.309-7.054c-.444-1.88-1.347-4.53-3.642-4.8C216.987,160.177,214.958,162.494,214.84,164.47Z" transform="translate(-74.113 -72.354)"/><path class="l" d="M219.33,150.867s52.886-30.347,82.619-25.492c0,0-6.721,21.85-74.632,42.264Z" transform="translate(-75.279 -63.118)"/><path class="l" d="M255.757,122.3a8.088,8.088,0,0,1-.851-.074c-.081.155.289.74.37.785a.215.215,0,0,0,.281,0,.414.414,0,0,0,.067-.155l.133-.563" transform="translate(-84.52 -62.437)"/><path class="n" d="M230.1,150.366s-16.772-15.344-33.167,0c0,0,12.672-1.636,16.58,5.344Z" transform="translate(-69.459 -67.976)"/><path class="n" d="M242.844,171.71s-.8,22.723-23.234,23.686c0,0,10.044-7.9,7.8-15.581Z" transform="translate(-75.352 -75.293)"/><path class="o" d="M301.986,125.355s-6.721,21.85-74.632,42.264l-2.42-5.085-5.6-11.673s46.942-26.972,77.237-26.01a41.591,41.591,0,0,1,5.418.5Z" transform="translate(-75.28 -63.112)"/><path class="l" d="M301.988,125.3c-4.7,6.166-20.925,17.527-54.277,29.644q-2.827,1.036-5.825,2.072-7.883,2.724-16.95,5.463l-5.6-11.673s5.781-3.471,14.619-7.883c4.663-2.332,10.177-4.922,16.143-7.4C266.748,128.6,286.926,122.49,301.988,125.3Z" transform="translate(-75.281 -63.052)"/><circle class="n" cx="6.084" cy="6.084" r="6.084" transform="translate(173.28 74.478)"/><circle class="l" cx="4.145" cy="4.145" r="4.145" transform="translate(175.22 76.21)"/><ellipse class="p" cx="28.451" cy="28.452" rx="28.451" ry="28.452" transform="translate(141.924 131.782)"/><path class="q" d="M258.3,82.59,153.5,71.37l.55-1.72L258.84,80.87Z" transform="translate(-57.304 -37.492)"/><path class="q" d="M190.76,68.83l-35.39-4.19.72-3.08,35.4,3.86Z" transform="translate(-57.304 -37.492)"/><path class="q" d="M257,89.52,152.2,78.3l.54-1.72L257.54,87.8Z" transform="translate(-57.304 -37.492)"/><path class="l" d="M237.237,523.7l9.613,9.462a2.394,2.394,0,0,1-1.682,4.1h-.409a2.417,2.417,0,0,1-1.7-.7l-9.355-9.364a2.4,2.4,0,0,0-3.386,0l-9.356,9.364a2.387,2.387,0,0,1-1.689.7h-.417a2.394,2.394,0,0,1-1.682-4.1L226.8,523.7a2.379,2.379,0,0,0,0-3.364h0l-9.712-9.712a2.394,2.394,0,0,1,1.689-4.083h0a2.377,2.377,0,0,1,1.674.682l9.848,9.712a2.393,2.393,0,0,0,3.356,0l9.848-9.712a2.378,2.378,0,0,1,1.674-.682h0a2.394,2.394,0,0,1,1.7,4.083l-9.712,9.712a2.379,2.379,0,0,0,.045,3.364h0Z" transform="translate(-61.605 -361.666)"/></g></g></svg>