<svg xmlns="http://www.w3.org/2000/svg" xmlns:xlink="http://www.w3.org/1999/xlink" width="200" height="200" viewBox="0 0 200 200">
  <defs>
    <clipPath id="clip-path">
      <rect id="Base" width="200" height="200" transform="translate(3159 -6355)" fill="#fff"/>
    </clipPath>
  </defs>
  <g id="Image" transform="translate(-3159 6355)" clip-path="url(#clip-path)">
    <g id="undraw_Checklist__re_2w7v" transform="translate(3169.4 -6323)">
      <path id="Path_3810" data-name="Path 3810" d="M51.267,7.086a19.477,19.477,0,0,1,1.6-1.557C58.334.683,66.4-.359,73.795.1c25.29,1.556,48.106,16.675,67.847,33.757,7.147,6.19,14.184,12.86,18.823,21.385,9.444,17.35,6.643,41.387-6.488,55.68a67.148,67.148,0,0,1-15.436,11.9c-9.886,5.875-60.293-23.521-68.256-24.857-22.225-3.734-31.616,23.639-49.9,9.528C12.362,101.294,4.8,93.593,1.5,83.574S.3,60.867,8.488,54.938C21.943,46.193,53.7,80,47.723,27.637,46.562,19.993,45.639,13.295,51.267,7.086Z" transform="translate(0 13.125)" fill="#b1a6a0" opacity="0.1"/>
      <path id="Path_3811" data-name="Path 3811" d="M680.619,229.972c-.225.185-.45.361-.68.535H623.173q-.635-.261-1.263-.535a66.849,66.849,0,0,1-16.556-10.308,67.833,67.833,0,0,1-8.563-8.413c-3.08-3.786-5.916-7.913-7.236-12.614s-.923-10.091,2.018-13.99a12.522,12.522,0,0,1,3.3-3.026c.211-.134.425-.262.645-.383a16.466,16.466,0,0,1,11.948-1.437c5.686,1.469,10.412,5.571,13.784,10.383s5.561,10.332,7.717,15.793a34.215,34.215,0,0,1,17.771-22.919,31.7,31.7,0,0,1,28.833.423,28.985,28.985,0,0,1,7.372,5.807c.211.227.417.46.62.7a29.06,29.06,0,0,1,7.166,17.819A27.931,27.931,0,0,1,680.619,229.972Z" transform="translate(-534.792 -179.278)" fill="#b1a6a0"/>
      <path id="Path_3812" data-name="Path 3812" d="M637.771,228.873h-.693c-.009-.155-.021-.307-.035-.462a51.787,51.787,0,0,0-1.515-8.946,55.153,55.153,0,0,0-8.847-18.581,52.788,52.788,0,0,0-15.126-13.962.328.328,0,0,1-.161-.238.345.345,0,0,1,.51-.36.535.535,0,0,1,.046.03,52.3,52.3,0,0,1,9.265,7.187,55.627,55.627,0,0,1,11.941,17.119,53.945,53.945,0,0,1,4.577,17.752C637.748,228.566,637.759,228.721,637.771,228.873Z" transform="translate(-547.505 -177.644)" fill="#fff"/>
      <path id="Path_3813" data-name="Path 3813" d="M777.447,217.054a.042.042,0,0,1-.016,0c-.505.092-1.014.189-1.517.293a68.557,68.557,0,0,0-12.085,3.669,71.328,71.328,0,0,0-11.2,5.773,72.437,72.437,0,0,0-10.034,7.639,71.022,71.022,0,0,0-8.542,9.265,68.673,68.673,0,0,0-5.221,7.866c-.088.152-.173.307-.259.462h-.792c.083-.155.168-.309.256-.462a69.266,69.266,0,0,1,6.461-9.545,71.774,71.774,0,0,1,8.847-9.18,73.393,73.393,0,0,1,10.249-7.454,72.008,72.008,0,0,1,11.436-5.579,68.606,68.606,0,0,1,11.881-3.353l.337-.062C777.681,216.313,777.865,216.964,777.447,217.054Z" transform="translate(-637.019 -200.797)" fill="#fff"/>
      <path id="Path_3814" data-name="Path 3814" d="M766.251,322.25a45.778,45.778,0,0,0-14.513.327,46.731,46.731,0,0,0-13.665,4.778,45.07,45.07,0,0,0-6.819,4.505c-.349.278.145.766.49.49a44.76,44.76,0,0,1,12.421-6.982,46.107,46.107,0,0,1,13.871-2.814,44.122,44.122,0,0,1,8.031.364.359.359,0,0,0,.426-.242.349.349,0,0,0-.242-.426Z" transform="translate(-639.598 -281.886)" fill="#fff"/>
      <g id="Group_766" data-name="Group 766" transform="translate(73.491 51.43)">
        <path id="Path_3815" data-name="Path 3815" d="M6.667,0H99.843a6.667,6.667,0,0,1,6.667,6.667v4.911a6.667,6.667,0,0,1-6.667,6.667H6.667A6.667,6.667,0,0,1,0,11.577V6.667A6.667,6.667,0,0,1,6.667,0Z" fill="#f4f4f4"/>
        <ellipse id="Ellipse_318" data-name="Ellipse 318" cx="5.45" cy="5.449" rx="5.45" ry="5.449" transform="translate(4.264 2.812)" fill="#b1a6a0"/>
        <rect id="Rectangle_881" data-name="Rectangle 881" width="72.996" height="1.185" transform="translate(22.746 6.871)" fill="#b1a6a0"/>
        <rect id="Rectangle_882" data-name="Rectangle 882" width="72.996" height="1.185" transform="translate(22.746 9.952)" fill="#b1a6a0"/>
        <path id="Path_3816" data-name="Path 3816" d="M690.8,152.1l-1.585-2.114.376-.281,1.291,1.722,5.085-4.16.3.363Z" transform="translate(-682.753 -140.982)" fill="#f2f2f2" stroke="#fff" stroke-width="1"/>
      </g>
      <g id="Group_767" data-name="Group 767" transform="translate(73.491 80.23)">
        <rect id="Rectangle_883" data-name="Rectangle 883" width="106.509" height="18.244" rx="5" fill="#f4f4f4"/>
        <ellipse id="Ellipse_319" data-name="Ellipse 319" cx="5.45" cy="5.449" rx="5.45" ry="5.449" transform="translate(4.264 2.812)" fill="#b1a6a0"/>
        <rect id="Rectangle_884" data-name="Rectangle 884" width="72.996" height="1.185" transform="translate(22.746 6.871)" fill="#b1a6a0"/>
        <rect id="Rectangle_885" data-name="Rectangle 885" width="72.996" height="1.185" transform="translate(22.746 9.952)" fill="#b1a6a0"/>
        <path id="Path_3817" data-name="Path 3817" d="M690.8,152.1l-1.585-2.114.376-.281,1.291,1.722,5.085-4.16.3.363Z" transform="translate(-682.753 -140.982)" fill="#f2f2f2" stroke="#fff" stroke-width="1"/>
      </g>
      <path id="Path_3818" data-name="Path 3818" d="M298.166,728.5s-13.385-.875-11.809,9.345a2.569,2.569,0,0,0,1.188,2.626s.026-.759,1.376-.5a5.669,5.669,0,0,0,1.453.079,2.865,2.865,0,0,0,1.777-.8h0s3.764-1.695,5.225-8.381c0,0,1.085-1.462,1.042-1.863l-2.26,1.052a4.787,4.787,0,0,1,.167,3.26s-.077-3.185-.508-3.11c-.09,0-1.175.614-1.175.614s1.329,3.1.325,5.341c0,0,.38-3.809-.739-5.122l-1.589,1.01s1.551,3.2.5,5.806c0,0,.269-4-.833-5.56l-1.44,1.225s1.457,3.152.568,5.313c0,0-.12-4.656-.884-5.006a9.285,9.285,0,0,0-1.453,1.709s1,2.286.38,3.492c0,0-.38-3.1-.692-3.115a10.707,10.707,0,0,0-1.384,3.464,7.924,7.924,0,0,1,1.081-3.669,3.66,3.66,0,0,0-1.923,1.085s.2-1.453,2.235-1.583a9.267,9.267,0,0,1,1.316-1.653,7.652,7.652,0,0,0-3.256.41s1.081-1.369,3.623-.75l1.423-1.234a10.711,10.711,0,0,0-3.8.042s1.3-1.216,4.183-.331l1.551-1.01a13.037,13.037,0,0,0-3.632-.34s1.431-.838,4.084.07l1.107-.54s-1.666-.359-2.136-.415-.517-.2-.517-.2a5.352,5.352,0,0,1,3.132.382A13.425,13.425,0,0,0,298.166,728.5Z" transform="translate(-258.513 -666.619)" fill="#49b776"/>
      <path id="Path_3819" data-name="Path 3819" d="M298.166,728.5s-13.385-.875-11.809,9.345a2.569,2.569,0,0,0,1.188,2.626s.026-.759,1.376-.5a5.669,5.669,0,0,0,1.453.079,2.865,2.865,0,0,0,1.777-.8h0s3.764-1.695,5.225-8.381c0,0,1.085-1.462,1.042-1.863l-2.26,1.052a4.787,4.787,0,0,1,.167,3.26s-.077-3.185-.508-3.11c-.09,0-1.175.614-1.175.614s1.329,3.1.325,5.341c0,0,.38-3.809-.739-5.122l-1.589,1.01s1.551,3.2.5,5.806c0,0,.269-4-.833-5.56l-1.44,1.225s1.457,3.152.568,5.313c0,0-.12-4.656-.884-5.006a9.285,9.285,0,0,0-1.453,1.709s1,2.286.38,3.492c0,0-.38-3.1-.692-3.115a10.707,10.707,0,0,0-1.384,3.464,7.924,7.924,0,0,1,1.081-3.669,3.66,3.66,0,0,0-1.923,1.085s.2-1.453,2.235-1.583a9.267,9.267,0,0,1,1.316-1.653,7.652,7.652,0,0,0-3.256.41s1.081-1.369,3.623-.75l1.423-1.234a10.711,10.711,0,0,0-3.8.042s1.3-1.216,4.183-.331l1.551-1.01a13.037,13.037,0,0,0-3.632-.34s1.431-.838,4.084.07l1.107-.54s-1.666-.359-2.136-.415-.517-.2-.517-.2a5.352,5.352,0,0,1,3.132.382A13.425,13.425,0,0,0,298.166,728.5Z" transform="translate(-223.313 -621.019)" fill="#49b776"/>
      <path id="Path_3820" data-name="Path 3820" d="M295.19,728.494s-10.048-.657-8.865,7.015a1.928,1.928,0,0,0,.892,1.971s.019-.57,1.033-.377a4.243,4.243,0,0,0,1.09.059,2.151,2.151,0,0,0,1.334-.6h0s2.826-1.272,3.922-6.292c0,0,.815-1.1.783-1.4l-1.7.79a3.593,3.593,0,0,1,.125,2.447s-.058-2.391-.382-2.335c-.067,0-.882.461-.882.461s1,2.324.244,4.009c0,0,.285-2.859-.555-3.845l-1.193.759s1.164,2.4.375,4.359c0,0,.2-3-.625-4.173l-1.081.919s1.094,2.366.427,3.988c0,0-.09-3.5-.664-3.758a6.963,6.963,0,0,0-1.09,1.283s.75,1.716.285,2.621c0,0-.285-2.328-.52-2.338a8.035,8.035,0,0,0-1.039,2.6,5.949,5.949,0,0,1,.811-2.754,2.748,2.748,0,0,0-1.443.815s.147-1.091,1.677-1.188a6.955,6.955,0,0,1,.988-1.241,5.743,5.743,0,0,0-2.444.308,2.6,2.6,0,0,1,2.72-.563l1.068-.926a8.042,8.042,0,0,0-2.851.032s.978-.912,3.14-.248l1.164-.758a9.791,9.791,0,0,0-2.726-.255,3.875,3.875,0,0,1,3.066.052l.831-.405s-1.251-.269-1.6-.311-.388-.154-.388-.154a4.017,4.017,0,0,1,2.351.286A10.081,10.081,0,0,0,295.19,728.494Z" transform="translate(-277.624 -615.702)" fill="#49b776"/>
      <ellipse id="Ellipse_320" data-name="Ellipse 320" cx="9.472" cy="1.746" rx="9.472" ry="1.746" transform="translate(20.956 72.998)" fill="#49b776" opacity="0.1"/>
      <ellipse id="Ellipse_321" data-name="Ellipse 321" cx="9.472" cy="1.746" rx="9.472" ry="1.746" transform="translate(56.156 118.598)" fill="#49b776" opacity="0.1"/>
      <ellipse id="Ellipse_322" data-name="Ellipse 322" cx="7.11" cy="1.311" rx="7.11" ry="1.311" transform="translate(3.53 121.138)" fill="#49b776" opacity="0.1"/>
      <path id="Path_3821" data-name="Path 3821" d="M547.751,256.805h-1.682v-3.268a6.72,6.72,0,1,0-13.44-.091v3.359H530.95a2.809,2.809,0,0,0-2.8,2.8v13.438a2.809,2.809,0,0,0,2.8,2.8h16.8a2.808,2.808,0,0,0,2.8-2.8V259.606A2.808,2.808,0,0,0,547.751,256.805Zm-7.42,8.736v4.813a1,1,0,0,1-.931,1.008.982.982,0,0,1-1.028-.981v-4.843a2.235,2.235,0,1,1,1.959,0Zm3.78-8.736h-9.523v-3.359a4.76,4.76,0,0,1,9.52,0Z" transform="translate(-497.958 -172.097)" fill="#b1a6a0"/>
    </g>
  </g>
</svg>
