<svg xmlns="http://www.w3.org/2000/svg" xmlns:xlink="http://www.w3.org/1999/xlink" width="471.277" height="385.114" viewBox="0 0 471.277 385.114"><defs><style>.a{fill:rgba(56,125,255,0.1);}.b{fill:url(#a);}.c{fill:url(#b);}.d{fill:#387dff;}.e{fill:url(#c);}.f{fill:#598cfc;}.g{fill:#545f7e;}.h{fill:#fff;}.i{fill:#f07379;}.j{fill:url(#e);}.k{fill:#3f3d56;}.l{fill:url(#f);}.m{fill:url(#h);}.n{fill:url(#i);}.o{fill:#766de8;}.p{fill:#607c1c;}.q{fill:#1d2741;opacity:0.18;}</style><linearGradient id="a" x1="0.5" x2="0.5" y2="1" gradientUnits="objectBoundingBox"><stop offset="0" stop-color="#ffa330"/><stop offset="0.274" stop-color="#ff9346"/><stop offset="0.539" stop-color="#ff8559"/><stop offset="0.766" stop-color="#fb7a6a"/><stop offset="1" stop-color="#f07379"/></linearGradient><linearGradient id="b" x1="0.686" y1="1.317" x2="-1.409" y2="3.636" gradientUnits="objectBoundingBox"><stop offset="0" stop-opacity="0"/><stop offset="0.91" stop-opacity="0.8"/><stop offset="1"/></linearGradient><linearGradient id="c" x1="0.5" x2="0.5" y2="1" gradientUnits="objectBoundingBox"><stop offset="0" stop-color="#5690ff"/><stop offset="1" stop-color="#766de8"/></linearGradient><linearGradient id="e" x1="1.255" y1="2.719" x2="-0.438" y2="2.293" gradientUnits="objectBoundingBox"><stop offset="0" stop-color="#ecc4d7"/><stop offset="0.16" stop-color="#edcbd5"/><stop offset="0.42" stop-color="#efd4d1"/><stop offset="0.7" stop-color="#f2eac9"/></linearGradient><linearGradient id="f" y1="6.236" x2="1.003" y2="6.236" gradientUnits="objectBoundingBox"><stop offset="0" stop-color="#ecc4d7"/><stop offset="0.42" stop-color="#efd4d1"/><stop offset="1" stop-color="#f2eac9"/></linearGradient><linearGradient id="h" y1="3.392" x2="1" y2="3.392" xlink:href="#f"/><linearGradient id="i" x1="0.197" y1="8.229" x2="-1.453" y2="10.239" xlink:href="#f"/></defs><g transform="translate(-0.002 0.003)"><path class="a" d="M102.336,82.274C74.489,97.148,45.8,112.726,26.389,137.637,14.733,152.615,6.967,170.444,2.877,188.995c-7.005,31.665-1.819,68.374,22.28,90.15,8.385,7.611,18.642,12.985,29.22,17.113a156.744,156.744,0,0,0,68.961,10.224c19.267-1.5,38.5-6.579,57.673-4.16,23.383,2.941,43.8,16.616,65.581,25.621a171.2,171.2,0,0,0,85.6,11.675c7.328-.89,14.746-2.316,21.189-5.915,7.65-4.277,13.32-11.262,19.351-17.648a168.748,168.748,0,0,1,47.384-35.277c9.308-4.657,19.17-8.521,27.253-15.075,21.286-17.222,24.931-48.042,23.692-75.373s-7.4-57.5-29.272-74.1c-4.883-3.7-10.379-6.573-15.113-10.475-15.79-13.017-20.512-34.806-30.626-52.616C373.374,13.319,322.771-4.116,277.212.812,211.927,7.875,158.46,52.3,102.336,82.274Z" transform="translate(0 0)"/><path class="b" d="M645.331,271.8c-.593,5.483-7.36,14.687-16.719,25.034-15.339,16.926-37.625,36.89-51.029,48.52h0c-6.915,6.005-11.462,9.792-11.462,9.792v-104.2s16.229-20.783,28.02-22.118,35.587,12.456,35.587,12.456S647.317,252.735,645.331,271.8Z" transform="translate(-200.951 -81.195)"/><path class="c" d="M634.066,311.773c-15.339,16.926-37.625,36.89-51.029,48.52a12.021,12.021,0,0,1-1.29-5.721c-.355-9.8-.271-19.609-.181-29.414.084-9.521.168-19.035.768-28.536.568-8.85,1.651-17.9,5.7-25.8a9.91,9.91,0,0,1,2.225,2.89c5.1,8.766,8.327,18.435,11.552,28.033q2.393,7.1,4.786,14.249a34.3,34.3,0,0,0,9.437-7.644c2.451-2.716,4.638-5.651,6.889-8.527,1.574-2.013,4.644-7.74,7.1-5.586C634,297.7,634.318,305.626,634.066,311.773Z" transform="translate(-206.406 -96.132)"/><rect class="d" width="264.201" height="305.986" transform="translate(112.882 32.561)"/><rect class="e" width="264.201" height="305.986" transform="translate(112.882 32.561)"/><path class="f" d="M402.892,65.271,175,85.7c1.026,0,0-28.382,0-35.219H415.276v2.4A12.391,12.391,0,0,1,402.892,65.271Z" transform="translate(-62.118 -17.919)"/><rect class="e" width="264.201" height="305.986" transform="translate(112.882 67.78)"/><rect class="g" width="37.56" height="305.986" transform="translate(112.882 67.78)"/><rect class="h" width="45.636" height="45.636" transform="translate(127.628 124.968)"/><rect class="h" width="45.636" height="45.636" transform="translate(175.799 124.968)"/><rect class="h" width="45.636" height="45.636" transform="translate(223.977 124.968)"/><rect class="h" width="45.636" height="45.636" transform="translate(272.148 124.968)"/><rect class="h" width="45.636" height="45.636" transform="translate(127.628 172.611)"/><rect class="h" width="45.636" height="45.636" transform="translate(175.799 172.611)"/><rect class="h" width="45.636" height="45.636" transform="translate(223.977 172.611)"/><rect class="h" width="45.636" height="45.636" transform="translate(272.148 172.611)"/><rect class="h" width="45.636" height="45.636" transform="translate(127.628 220.253)"/><rect class="h" width="45.636" height="45.636" transform="translate(175.799 220.253)"/><rect class="h" width="45.636" height="45.636" transform="translate(223.977 220.253)"/><rect class="h" width="45.636" height="45.636" transform="translate(272.148 220.253)"/><rect class="h" width="45.636" height="45.636" transform="translate(127.628 267.896)"/><rect class="h" width="45.636" height="45.636" transform="translate(175.799 267.896)"/><rect class="h" width="45.636" height="45.636" transform="translate(223.977 267.896)"/><rect class="h" width="45.636" height="45.636" transform="translate(272.148 267.896)"/><rect class="h" width="45.636" height="45.636" transform="translate(127.628 315.538)"/><rect class="h" width="45.636" height="45.636" transform="translate(175.799 315.538)"/><rect class="h" width="45.636" height="45.636" transform="translate(223.977 315.538)"/><rect class="h" width="45.636" height="45.636" transform="translate(319.513 124.968)"/><rect class="h" width="45.636" height="45.636" transform="translate(319.513 77.326)"/><rect class="h" width="45.636" height="45.636" transform="translate(272.148 77.326)"/><rect class="h" width="45.636" height="45.636" transform="translate(319.513 172.611)"/><rect class="h" width="45.636" height="45.636" transform="translate(319.513 220.253)"/><rect class="h" width="45.636" height="45.636" transform="translate(319.513 267.896)"/><path class="g" d="M206.73,29.969V54.713c0,1.335,1.7,2.419,3.78,2.419h0c2.09,0,3.78-1.084,3.78-2.419V29.969c0-1.335-1.69-2.419-3.78-2.419h0C208.426,27.55,206.73,28.634,206.73,29.969Z" transform="translate(-73.381 -9.78)"/><path class="g" d="M262.75,29.969V54.713c0,1.335,1.69,2.419,3.78,2.419h0c2.09,0,3.78-1.084,3.78-2.419V29.969c0-1.335-1.69-2.419-3.78-2.419h0C264.44,27.55,262.75,28.634,262.75,29.969Z" transform="translate(-93.266 -9.78)"/><path class="g" d="M318.77,29.969V54.713c0,1.335,1.69,2.419,3.78,2.419h0c2.09,0,3.78-1.084,3.78-2.419V29.969c0-1.335-1.69-2.419-3.78-2.419h0C320.46,27.55,318.77,28.634,318.77,29.969Z" transform="translate(-113.151 -9.78)"/><path class="g" d="M374.79,29.969V54.713c0,1.335,1.69,2.419,3.78,2.419h0c2.083,0,3.78-1.084,3.78-2.419V29.969c0-1.335-1.7-2.419-3.78-2.419h0C376.48,27.55,374.79,28.634,374.79,29.969Z" transform="translate(-133.036 -9.78)"/><path class="g" d="M430.8,29.969V54.713c0,1.335,1.7,2.419,3.786,2.419h0c2.083,0,3.78-1.084,3.78-2.419V29.969c0-1.335-1.7-2.419-3.78-2.419h0C432.5,27.55,430.8,28.634,430.8,29.969Z" transform="translate(-152.918 -9.78)"/><path class="g" d="M486.82,29.969V54.713c0,1.335,1.7,2.419,3.78,2.419h0c2.09,0,3.786-1.084,3.786-2.419V29.969c0-1.335-1.7-2.419-3.786-2.419h0C488.516,27.55,486.82,28.634,486.82,29.969Z" transform="translate(-172.803 -9.78)"/><path class="g" d="M541.64,29.969V54.713c0,1.335,1.7,2.419,3.78,2.419h0c2.09,0,3.78-1.084,3.78-2.419V29.969c0-1.335-1.69-2.419-3.78-2.419h0C543.336,27.55,541.64,28.634,541.64,29.969Z" transform="translate(-192.262 -9.78)"/><rect class="d" width="6.012" height="341.205" transform="translate(377.089 32.561)"/><rect class="g" width="6.012" height="341.205" transform="translate(377.089 32.561)"/><path class="g" d="M434.253,128.255a3.632,3.632,0,1,1-3.638-3.625h0a3.638,3.638,0,0,1,3.638,3.625Z" transform="translate(-151.565 -44.24)"/><path class="g" d="M434.253,202.125a3.632,3.632,0,1,1-3.638-3.625h0a3.638,3.638,0,0,1,3.638,3.625Z" transform="translate(-151.565 -70.461)"/><path class="g" d="M448,202.125a3.632,3.632,0,1,1-3.638-3.625h0A3.638,3.638,0,0,1,448,202.125Z" transform="translate(-156.446 -70.461)"/><path class="g" d="M461.833,202.125A3.632,3.632,0,1,1,458.2,198.5h0a3.638,3.638,0,0,1,3.638,3.625Z" transform="translate(-161.355 -70.461)"/><path class="g" d="M434.253,350.9a3.632,3.632,0,1,1-3.632-3.632h0a3.625,3.625,0,0,1,3.625,3.625Z" transform="translate(-151.565 -123.269)"/><circle class="i" cx="3.625" cy="3.625" r="3.625" transform="translate(131.665 224.007)"/><path class="g" d="M448,350.9a3.632,3.632,0,1,1-3.632-3.632h0A3.625,3.625,0,0,1,448,350.9Z" transform="translate(-156.446 -123.269)"/><path class="g" d="M461.833,350.9a3.632,3.632,0,1,1-3.632-3.632h0a3.625,3.625,0,0,1,3.625,3.625Z" transform="translate(-161.355 -123.269)"/><path class="j" d="M669.118,190.986c-1.013,4.141.342,9.882-1.58,13.681-3.225,6.386-12.656,10.624-14.049,17.635-.084.406-10.579,5.463-15.99,3.735-2.832-.9-4.27-3.657-2.09-9.9.684-1.935,4.515-2.658,5.547-4.457l-.213-.161c-5.238-3.954-5.805-12.333-4.722-17.926s3.567-10.966,6.231-16.074c2.051-3.935,6.683-6.07,11.12-6,5.58.1,11.469,2.329,14.371,7.1C669.963,182.246,670.125,186.845,669.118,190.986Z" transform="translate(-225.171 -60.883)"/><path class="k" d="M642.95,153.884c-2.857,1.509-5.9,3.29-9.095,2.806a4.315,4.315,0,0,0,1.819,4l-1.987.445a.555.555,0,0,0-.413.232.523.523,0,0,0,.045.439,6.54,6.54,0,0,0,2.316,2.819c-.355.761-1.638.593-2.077,1.29a1.555,1.555,0,0,0,0,1.29,7.179,7.179,0,0,0,2.193,3.077,2.791,2.791,0,0,0,1.193,4.264,3.432,3.432,0,0,0,4.167-2.187,3.444,3.444,0,0,1-.49,2.135c5.412.851,11.2,1.651,16.178-.645a4.22,4.22,0,0,0-.374,1.638,7.8,7.8,0,0,0,3.716.232,21.523,21.523,0,0,1-.7,7.908c-.445,1.6-1.084,3.148-1.368,4.78a6.451,6.451,0,0,0,.819,4.825,2.436,2.436,0,0,0,1.793-1.677,8.685,8.685,0,0,1,1.064-2.335c1.29-1.509,3.973-.955,5.012.716s.645,3.915-.348,5.6a8.514,8.514,0,0,1-5.573,3.87c.187,1.8.381,3.6.568,5.392,3.4-3.225,7.205-5.992,10.263-9.521s5.373-8.044,4.98-12.7c-.239-2.87-1.49-5.6-1.587-8.482-.045-1.29.148-2.612.1-3.915a10.611,10.611,0,0,0-7-9.372c-1.645-.561-3.457-.722-4.915-1.671-1.813-1.174-2.754-3.361-4.554-4.56-1.935-1.29-4.941-1.819-7.192-2.458C648.568,151.3,645.524,152.536,642.95,153.884Z" transform="translate(-224.778 -53.905)"/><path class="l" d="M584.89,248.37a1.935,1.935,0,0,0-.89,1.29,1.29,1.29,0,0,0,1.039,1.148,3.793,3.793,0,0,0,1.658-.077l3.277-.645a11.244,11.244,0,0,0-4.251,4.193,1.213,1.213,0,0,0,.058,1.322c.439.555,1.18.335,1.774.1l2.845-1.135-1.935,1.877a8.9,8.9,0,0,0-1.561,1.845,3.715,3.715,0,0,0-.413,1.026.9.9,0,0,0,.645,1.071.767.767,0,0,0,.452,0,8.778,8.778,0,0,0,3.225-1.7,21.543,21.543,0,0,1-2.329,2.754,4.619,4.619,0,0,0-1.342,3.225.645.645,0,0,0,.122.361.574.574,0,0,0,.355.168c1.051.174,2.006-.593,2.8-1.29l2.922-2.651a6.552,6.552,0,0,0,1.232-1.335,1.878,1.878,0,0,0,.316-.974,1.29,1.29,0,0,0-1.393-1.174h0a1.329,1.329,0,0,0-.581.2c.084-.561.3-1.084.439-1.632a2.315,2.315,0,0,0-.1-1.638,1.116,1.116,0,0,0-1.419-.535,6.279,6.279,0,0,0,.645-2.148,2.077,2.077,0,0,0-.948-1.935,1.619,1.619,0,0,1-.477-.3c-.258-.316-.052-.768.058-1.161a1.877,1.877,0,0,0-1.122-2.406h0a1.935,1.935,0,0,0-.813-.1A8.233,8.233,0,0,0,584.89,248.37Z" transform="translate(-207.298 -87.357)"/><path class="b" d="M641.337,285.546c7.418-6.554,16.6-1.587,13.378,7.773-6.973,20.248-21.57,66.639-35.432,66.639-18.061,0-25.363-32.026-25.363-32.026l8.34-16.881s11.8,25.885,17.738,18.88,9.45-33.542,21-44.082Z" transform="translate(-210.819 -100.299)"/><path class="m" d="M598.262,312.346a40.585,40.585,0,0,1-.077-4.515,34.025,34.025,0,0,0-5.586-18.48,2.671,2.671,0,0,0-.458,1.871l.1,17.132a19.912,19.912,0,0,1-.284,4.244c-.219,1.019-.593,1.993-.884,3a17.571,17.571,0,0,0-.645,6.45,7.85,7.85,0,0,0,.922,3.335,3.715,3.715,0,0,0,2.786,1.884c.381,0,1.935-3.225,2.161-3.664q1.038-1.935,1.935-3.9c.445-.993,1.393-2.458,1.226-3.573C599.268,314.874,598.416,313.72,598.262,312.346Z" transform="translate(-209.555 -102.71)"/><path class="n" d="M648.348,238.072c-1.561,1.754-3.109,3.515-4.67,5.276a18.453,18.453,0,0,1-4.206,3.87,8.5,8.5,0,0,1-1.974.851c-2.832-.9-4.27-3.657-2.09-9.9.684-1.935,4.515-2.658,5.547-4.457l-.213-.161a9.843,9.843,0,0,0,2.329.761c1.677.252,5.805-1.051,6.315,1.432A2.843,2.843,0,0,1,648.348,238.072Z" transform="translate(-225.171 -82.903)"/><path class="o" d="M365.124,442.489l6.5,10.1a2.025,2.025,0,0,0,2.793.606,2.205,2.205,0,0,0,.432-.381l17.906-20.641a2.013,2.013,0,0,0-1.516-3.335h-.148a2.013,2.013,0,0,0-1.548.722l-14.01,16.771a2.013,2.013,0,0,1-2.825.264,2.051,2.051,0,0,1-.4-.451l-3.812-5.805a2.019,2.019,0,0,0-1.987-.884h0a2.006,2.006,0,0,0-1.387,3.006Z" transform="translate(-129.504 -152.223)"/><path class="o" d="M234.141,521.15l8.186,8.057a2.038,2.038,0,0,1-1.432,3.49h-.348a2.058,2.058,0,0,1-1.445-.593l-7.966-7.973a2.045,2.045,0,0,0-2.883,0l-7.966,7.973a2.032,2.032,0,0,1-1.438.593h-.355a2.038,2.038,0,0,1-1.432-3.49l8.192-8.057a2.025,2.025,0,0,0,0-2.864h0l-8.269-8.269a2.038,2.038,0,0,1,1.438-3.477h0a2.025,2.025,0,0,1,1.426.58l8.385,8.269a2.038,2.038,0,0,0,2.857,0l8.385-8.269a2.025,2.025,0,0,1,1.426-.581h0a2.038,2.038,0,0,1,1.445,3.477l-8.269,8.269a2.025,2.025,0,0,0,.039,2.864h0Z" transform="translate(-76.81 -179.804)"/><path class="p" d="M131.64,520.81" transform="translate(-46.727 -184.869)"/><path class="d" d="M144.154,509.252c-3.174,3.077-5.405,2.664-8.315,1.735v16.681h-2V489.92h2v12c.187-.206.387-.413.606-.645,3.574-3.457,10.482-7.031,13.972-5.9C151.443,498.925,147.728,505.788,144.154,509.252Z" transform="translate(-47.508 -173.905)"/><path class="d" d="M133.995,478.905l-.155.11v-.645Z" transform="translate(-47.508 -169.805)"/><path class="d" d="M140.109,463.715c-.3.29-.587.548-.871.781-.69,5.457-4.373,9.617-8.8,9.617v-9.172l.155-.11-.155-.542v.645a4,4,0,0,1-.645.374c-3.174-1.838-5.741-7.689-5.534-12.662s2.709-12.327,6.012-13.926c3.174,1.838,5.244,9.353,5.057,14.333v.368c3.657-2.509,8.385-4.431,11.075-3.561C147.4,453.395,143.676,460.251,140.109,463.715Z" transform="translate(-44.101 -155.73)"/><path class="b" d="M-14007.885,6988.769h-2v-16.428c-3.013.857-5.234,1.228-8.367-2.01-3.457-3.576-7.026-10.482-5.9-13.975,3.523-1.017,10.385,2.693,13.848,6.266q.22.223.416.44v-9.96c-3.233-.949-5.8-4.157-6.635-8.265a10.271,10.271,0,0,1-2.366-1.888c-3.464-3.569-7.029-10.482-5.9-13.975,2.637-.762,7.152,1.13,10.707,3.629,0-.228,0-.455.012-.679.207-4.974,2.71-12.328,6.012-13.925,3.175,1.837,5.245,9.353,5.059,14.33v.37c3.657-2.51,8.385-4.432,11.074-3.562,1,3.534-2.722,10.391-6.291,13.855-.295.292-.584.549-.869.781-.583,4.61-3.3,8.295-6.8,9.327v9.928c.187-.208.388-.412.605-.645,3.577-3.457,10.483-7.033,13.972-5.9,1.027,3.542-2.689,10.405-6.263,13.869-3.171,3.077-5.4,2.661-8.314,1.735v16.678h-1.164l.165,7.445Z" transform="translate(14094.219 -6635.008)"/><path class="b" d="M133.995,478.905l-.155.11v-.645Z" transform="translate(-47.508 -169.805)"/><path class="d" d="M106.49,539.12l3.148,25.44H124.2l5.947-14.475L124.2,538.41Z" transform="translate(-37.799 -191.117)"/><path class="d" d="M151.653,539.12,148.5,564.56H133.94V538.41Z" transform="translate(-47.543 -191.117)"/><path class="d" d="M128.4,534.971l-.161.077-4.941,2.451-1.348.684H102.278a2.238,2.238,0,0,1-2.238-2.238v-5.689a2.006,2.006,0,0,1,1.987-2.025h.187l19.732.039Z" transform="translate(-35.51 -187.503)"/><path class="g" d="M128.4,534.971l-.161.077-4.941,2.451-1.348.684H102.278a2.238,2.238,0,0,1-2.238-2.238v-5.689a2.006,2.006,0,0,1,1.987-2.025h.187l19.732.039Z" transform="translate(-35.51 -187.503)"/><path class="g" d="M124.384,543.66v22.763H109.819L107,543.66Z" transform="translate(-37.981 -192.98)"/><path class="g" d="M151.327,543.66l-2.819,22.763H133.95V543.66Z" transform="translate(-47.547 -192.98)"/><path class="g" d="M155.835,530.538v5.689a2.238,2.238,0,0,1-2.238,2.238H134V528.3h19.628A2.238,2.238,0,0,1,155.835,530.538Z" transform="translate(-47.565 -187.528)"/><path class="q" d="M92.4,578.989l-37,7.1a2.271,2.271,0,1,0,.361,4.515h418a2.264,2.264,0,0,0,.316-4.515L420.151,579.3h-.31l-326.969-.323a2.309,2.309,0,0,0-.471.013Z" transform="translate(-18.866 -205.514)"/></g></svg>