<svg xmlns="http://www.w3.org/2000/svg" xmlns:xlink="http://www.w3.org/1999/xlink" width="358" height="292.547" viewBox="0 0 358 292.547"><defs><style>.a{fill:rgba(56,125,255,0.1);}.b{fill:url(#a);}.c{fill:url(#b);}.d{fill:#387dff;}.e{fill:url(#c);}.f{fill:#598cfc;}.g{fill:#545f7e;}.h{fill:#fff;}.i{fill:#f07379;}.j{fill:url(#e);}.k{fill:#3f3d56;}.l{fill:url(#f);}.m{fill:url(#h);}.n{fill:url(#i);}.o{fill:#766de8;}.p{fill:#607c1c;}.q{fill:#1d2741;opacity:0.18;}</style><linearGradient id="a" x1="0.5" x2="0.5" y2="1" gradientUnits="objectBoundingBox"><stop offset="0" stop-color="#ffa330"/><stop offset="0.274" stop-color="#ff9346"/><stop offset="0.539" stop-color="#ff8559"/><stop offset="0.766" stop-color="#fb7a6a"/><stop offset="1" stop-color="#f07379"/></linearGradient><linearGradient id="b" x1="0.686" y1="1.317" x2="-1.409" y2="3.636" gradientUnits="objectBoundingBox"><stop offset="0" stop-opacity="0"/><stop offset="0.91" stop-opacity="0.8"/><stop offset="1"/></linearGradient><linearGradient id="c" x1="0.5" x2="0.5" y2="1" gradientUnits="objectBoundingBox"><stop offset="0" stop-color="#5690ff"/><stop offset="1" stop-color="#766de8"/></linearGradient><linearGradient id="e" x1="1.255" y1="2.719" x2="-0.438" y2="2.293" gradientUnits="objectBoundingBox"><stop offset="0" stop-color="#ecc4d7"/><stop offset="0.16" stop-color="#edcbd5"/><stop offset="0.42" stop-color="#efd4d1"/><stop offset="0.7" stop-color="#f2eac9"/></linearGradient><linearGradient id="f" y1="6.236" x2="1.003" y2="6.236" gradientUnits="objectBoundingBox"><stop offset="0" stop-color="#ecc4d7"/><stop offset="0.42" stop-color="#efd4d1"/><stop offset="1" stop-color="#f2eac9"/></linearGradient><linearGradient id="h" y1="3.392" x2="1" y2="3.392" xlink:href="#f"/><linearGradient id="i" x1="0.197" y1="8.229" x2="-1.453" y2="10.239" xlink:href="#f"/></defs><g transform="translate(-0.002 0.003)"><path class="a" d="M77.738,62.5C56.585,73.8,34.79,85.63,20.046,104.554a97.743,97.743,0,0,0-17.86,39.013C-3.135,167.621.8,195.506,19.111,212.049c6.37,5.782,14.161,9.864,22.2,13a119.068,119.068,0,0,0,52.385,7.766c14.636-1.142,29.248-5,43.81-3.16,17.762,2.234,33.271,12.622,49.818,19.463a130.049,130.049,0,0,0,65.027,8.869c5.566-.676,11.2-1.759,16.1-4.493,5.811-3.249,10.118-8.555,14.7-13.406a128.187,128.187,0,0,1,36-26.8c7.071-3.538,14.563-6.473,20.7-11.451,16.17-13.083,18.938-36.495,18-57.256S352.218,100.9,335.6,88.3c-3.709-2.813-7.884-4.993-11.481-7.958-12-9.888-15.582-26.44-23.265-39.969C283.629,10.117,245.189-3.128,210.581.616,160.988,5.981,120.373,39.727,77.738,62.5Z" transform="translate(0)"/><path class="b" d="M626.291,261.451c-.451,4.165-5.591,11.157-12.7,19.017-11.652,12.857-28.581,28.023-38.763,36.857h0c-5.253,4.562-8.707,7.438-8.707,7.438V245.61s12.328-15.788,21.285-16.8,27.033,9.462,27.033,9.462S627.8,246.967,626.291,261.451Z" transform="translate(-288.724 -116.66)"/><path class="c" d="M621.428,301.93c-11.652,12.857-28.581,28.023-38.763,36.857a9.132,9.132,0,0,1-.98-4.346c-.27-7.443-.206-14.9-.137-22.344.064-7.232.127-14.46.583-21.677.431-6.723,1.254-13.6,4.332-19.6a7.529,7.529,0,0,1,1.691,2.2c3.876,6.659,6.326,14,8.776,21.3q1.818,5.39,3.636,10.824a26.056,26.056,0,0,0,7.169-5.806c1.862-2.063,3.523-4.292,5.233-6.478,1.2-1.529,3.528-5.88,5.39-4.243C621.375,291.238,621.62,297.26,621.428,301.93Z" transform="translate(-296.562 -138.121)"/><rect class="d" width="200.697" height="232.439" transform="translate(85.75 24.734)"/><rect class="e" width="200.697" height="232.439" transform="translate(85.75 24.734)"/><path class="f" d="M348.115,61.716,175,77.234c.779,0,0-21.56,0-26.754H357.523V52.3A9.413,9.413,0,0,1,348.115,61.716Z" transform="translate(-89.25 -25.746)"/><rect class="e" width="200.697" height="232.439" transform="translate(85.75 51.487)"/><rect class="g" width="28.532" height="232.439" transform="translate(85.75 51.487)"/><rect class="h" width="34.667" height="34.667" transform="translate(96.951 94.93)"/><rect class="h" width="34.667" height="34.667" transform="translate(133.544 94.93)"/><rect class="h" width="34.667" height="34.667" transform="translate(170.141 94.93)"/><rect class="h" width="34.667" height="34.667" transform="translate(206.734 94.93)"/><rect class="h" width="34.667" height="34.667" transform="translate(96.951 131.121)"/><rect class="h" width="34.667" height="34.667" transform="translate(133.544 131.121)"/><rect class="h" width="34.667" height="34.667" transform="translate(170.141 131.121)"/><rect class="h" width="34.667" height="34.667" transform="translate(206.734 131.121)"/><rect class="h" width="34.667" height="34.667" transform="translate(96.951 167.312)"/><rect class="h" width="34.667" height="34.667" transform="translate(133.544 167.312)"/><rect class="h" width="34.667" height="34.667" transform="translate(170.141 167.312)"/><rect class="h" width="34.667" height="34.667" transform="translate(206.734 167.312)"/><rect class="h" width="34.667" height="34.667" transform="translate(96.951 203.503)"/><rect class="h" width="34.667" height="34.667" transform="translate(133.544 203.503)"/><rect class="h" width="34.667" height="34.667" transform="translate(170.141 203.503)"/><rect class="h" width="34.667" height="34.667" transform="translate(206.734 203.503)"/><rect class="h" width="34.667" height="34.667" transform="translate(96.951 239.694)"/><rect class="h" width="34.667" height="34.667" transform="translate(133.544 239.694)"/><rect class="h" width="34.667" height="34.667" transform="translate(170.141 239.694)"/><rect class="h" width="34.667" height="34.667" transform="translate(242.715 94.93)"/><rect class="h" width="34.667" height="34.667" transform="translate(242.715 58.739)"/><rect class="h" width="34.667" height="34.667" transform="translate(206.734 58.739)"/><rect class="h" width="34.667" height="34.667" transform="translate(242.715 131.121)"/><rect class="h" width="34.667" height="34.667" transform="translate(242.715 167.312)"/><rect class="h" width="34.667" height="34.667" transform="translate(242.715 203.503)"/><path class="g" d="M206.73,29.387v18.8c0,1.014,1.289,1.837,2.871,1.837h0c1.588,0,2.871-.823,2.871-1.837v-18.8c0-1.014-1.284-1.837-2.871-1.837h0C208.019,27.55,206.73,28.373,206.73,29.387Z" transform="translate(-105.433 -14.052)"/><path class="g" d="M262.75,29.387v18.8c0,1.014,1.284,1.837,2.871,1.837h0c1.588,0,2.871-.823,2.871-1.837v-18.8c0-1.014-1.284-1.837-2.871-1.837h0C264.034,27.55,262.75,28.373,262.75,29.387Z" transform="translate(-134.003 -14.052)"/><path class="g" d="M318.77,29.387v18.8c0,1.014,1.284,1.837,2.871,1.837h0c1.588,0,2.871-.823,2.871-1.837v-18.8c0-1.014-1.284-1.837-2.871-1.837h0C320.054,27.55,318.77,28.373,318.77,29.387Z" transform="translate(-162.574 -14.052)"/><path class="g" d="M374.79,29.387v18.8c0,1.014,1.284,1.837,2.871,1.837h0c1.583,0,2.871-.823,2.871-1.837v-18.8c0-1.014-1.289-1.837-2.871-1.837h0C376.074,27.55,374.79,28.373,374.79,29.387Z" transform="translate(-191.144 -14.052)"/><path class="g" d="M430.8,29.387v18.8c0,1.014,1.289,1.837,2.876,1.837h0c1.583,0,2.871-.823,2.871-1.837v-18.8c0-1.014-1.289-1.837-2.871-1.837h0C432.089,27.55,430.8,28.373,430.8,29.387Z" transform="translate(-219.71 -14.052)"/><path class="g" d="M486.82,29.387v18.8c0,1.014,1.289,1.837,2.871,1.837h0c1.588,0,2.876-.823,2.876-1.837v-18.8c0-1.014-1.289-1.837-2.876-1.837h0C488.109,27.55,486.82,28.373,486.82,29.387Z" transform="translate(-248.28 -14.052)"/><path class="g" d="M541.64,29.387v18.8c0,1.014,1.289,1.837,2.871,1.837h0c1.588,0,2.871-.823,2.871-1.837v-18.8c0-1.014-1.284-1.837-2.871-1.837h0C542.929,27.55,541.64,28.373,541.64,29.387Z" transform="translate(-276.239 -14.052)"/><rect class="d" width="4.567" height="259.192" transform="translate(286.451 24.734)"/><rect class="g" width="4.567" height="259.192" transform="translate(286.451 24.734)"/><path class="g" d="M432.507,127.384a2.759,2.759,0,1,1-2.764-2.754h0A2.764,2.764,0,0,1,432.507,127.384Z" transform="translate(-217.767 -63.563)"/><path class="g" d="M432.507,201.254a2.759,2.759,0,1,1-2.764-2.754h0a2.764,2.764,0,0,1,2.764,2.754Z" transform="translate(-217.767 -101.237)"/><path class="g" d="M446.257,201.254a2.759,2.759,0,1,1-2.764-2.754h0a2.764,2.764,0,0,1,2.764,2.754Z" transform="translate(-224.779 -101.237)"/><path class="g" d="M460.087,201.254a2.759,2.759,0,1,1-2.764-2.754h0a2.764,2.764,0,0,1,2.764,2.754Z" transform="translate(-231.833 -101.237)"/><path class="g" d="M432.507,350.029a2.759,2.759,0,1,1-2.759-2.759h0a2.754,2.754,0,0,1,2.754,2.754Z" transform="translate(-217.767 -177.111)"/><circle class="i" cx="2.754" cy="2.754" r="2.754" transform="translate(100.018 170.164)"/><path class="g" d="M446.257,350.029a2.759,2.759,0,1,1-2.759-2.759h0a2.754,2.754,0,0,1,2.754,2.754Z" transform="translate(-224.779 -177.111)"/><path class="g" d="M460.087,350.029a2.759,2.759,0,1,1-2.759-2.759h0a2.754,2.754,0,0,1,2.754,2.754Z" transform="translate(-231.833 -177.111)"/><path class="j" d="M660.762,186.307c-.769,3.146.26,7.507-1.2,10.393-2.45,4.851-9.614,8.07-10.672,13.4-.064.309-8.036,4.15-12.147,2.837-2.151-.681-3.244-2.778-1.588-7.521.519-1.47,3.43-2.019,4.214-3.386l-.162-.123c-3.979-3-4.41-9.369-3.587-13.617a45.889,45.889,0,0,1,4.733-12.211c1.558-2.989,5.076-4.611,8.448-4.557,4.238.074,8.712,1.769,10.917,5.39A12.493,12.493,0,0,1,660.762,186.307Z" transform="translate(-323.522 -87.476)"/><path class="k" d="M640.617,153.4c-2.171,1.147-4.479,2.5-6.909,2.132a3.278,3.278,0,0,0,1.382,3.038l-1.509.338a.422.422,0,0,0-.314.176.4.4,0,0,0,.034.333,4.968,4.968,0,0,0,1.759,2.141c-.269.578-1.245.451-1.578.98a1.181,1.181,0,0,0,0,.98,5.454,5.454,0,0,0,1.666,2.337,2.12,2.12,0,0,0,.906,3.239,2.607,2.607,0,0,0,3.165-1.661,2.616,2.616,0,0,1-.372,1.622c4.111.647,8.506,1.254,12.289-.49a3.206,3.206,0,0,0-.284,1.245,5.924,5.924,0,0,0,2.823.176,16.351,16.351,0,0,1-.534,6.007c-.338,1.215-.823,2.391-1.039,3.631a4.9,4.9,0,0,0,.622,3.665,1.851,1.851,0,0,0,1.362-1.274,6.6,6.6,0,0,1,.808-1.774c.98-1.147,3.018-.725,3.807.544a4.218,4.218,0,0,1-.265,4.253,6.468,6.468,0,0,1-4.234,2.94c.142,1.367.289,2.734.431,4.1,2.582-2.45,5.473-4.552,7.8-7.232s4.082-6.11,3.783-9.648c-.181-2.18-1.132-4.253-1.205-6.443-.034-.98.113-1.984.074-2.974a8.061,8.061,0,0,0-5.317-7.12,16.056,16.056,0,0,1-3.734-1.269c-1.377-.892-2.092-2.553-3.459-3.464-1.47-.98-3.753-1.382-5.463-1.867C644.885,151.437,642.572,152.373,640.617,153.4Z" transform="translate(-322.958 -77.449)"/><path class="l" d="M584.676,247.824a1.47,1.47,0,0,0-.676.98.98.98,0,0,0,.789.872,2.881,2.881,0,0,0,1.259-.059l2.489-.49a8.541,8.541,0,0,0-3.229,3.185.921.921,0,0,0,.044,1c.333.421.9.255,1.347.078l2.161-.862-1.47,1.426a6.76,6.76,0,0,0-1.186,1.4,2.821,2.821,0,0,0-.314.779.681.681,0,0,0,.49.813.583.583,0,0,0,.343,0,6.668,6.668,0,0,0,2.45-1.294,16.362,16.362,0,0,1-1.769,2.092,3.509,3.509,0,0,0-1.019,2.45.49.49,0,0,0,.093.274.436.436,0,0,0,.269.127,2.8,2.8,0,0,0,2.127-.98l2.22-2.014a4.975,4.975,0,0,0,.936-1.014,1.427,1.427,0,0,0,.24-.74.98.98,0,0,0-1.058-.892h0a1.01,1.01,0,0,0-.441.152c.064-.426.23-.823.333-1.24a1.759,1.759,0,0,0-.078-1.245.848.848,0,0,0-1.078-.407,4.769,4.769,0,0,0,.49-1.632,1.578,1.578,0,0,0-.72-1.47,1.23,1.23,0,0,1-.363-.23c-.2-.24-.039-.583.044-.882a1.426,1.426,0,0,0-.853-1.828h0a1.47,1.47,0,0,0-.617-.078A6.254,6.254,0,0,0,584.676,247.824Z" transform="translate(-297.843 -125.513)"/><path class="b" d="M629.94,284.829c5.635-4.978,12.612-1.205,10.162,5.9-5.3,15.381-16.385,50.621-26.915,50.621-13.72,0-19.267-24.328-19.267-24.328l6.336-12.823s8.962,19.663,13.475,14.342,7.178-25.48,15.949-33.486Z" transform="translate(-302.902 -144.109)"/><path class="m" d="M596.362,306.818a30.844,30.844,0,0,1-.059-3.43,25.847,25.847,0,0,0-4.243-14.038,2.029,2.029,0,0,0-.348,1.421l.073,13.014a15.131,15.131,0,0,1-.216,3.224c-.167.774-.451,1.514-.671,2.279a13.346,13.346,0,0,0-.49,4.9,5.963,5.963,0,0,0,.7,2.533,2.822,2.822,0,0,0,2.117,1.431c.289,0,1.47-2.45,1.642-2.783q.789-1.47,1.47-2.964c.338-.755,1.058-1.867.931-2.715C597.127,308.739,596.48,307.862,596.362,306.818Z" transform="translate(-301.086 -147.572)"/><path class="n" d="M644.984,236.985c-1.186,1.333-2.362,2.67-3.548,4.008a14.018,14.018,0,0,1-3.195,2.94,6.454,6.454,0,0,1-1.5.647c-2.151-.681-3.244-2.778-1.588-7.521.519-1.47,3.43-2.019,4.214-3.386l-.162-.122a7.476,7.476,0,0,0,1.769.578c1.274.191,4.41-.8,4.8,1.088A2.16,2.16,0,0,1,644.984,236.985Z" transform="translate(-323.522 -119.113)"/><path class="o" d="M365.056,439.208,370,446.882a1.539,1.539,0,0,0,2.122.461,1.676,1.676,0,0,0,.328-.289l13.6-15.68a1.529,1.529,0,0,0-1.151-2.533h-.113a1.529,1.529,0,0,0-1.176.549l-10.643,12.74a1.529,1.529,0,0,1-2.146.2,1.557,1.557,0,0,1-.3-.343l-2.9-4.41a1.534,1.534,0,0,0-1.509-.671h0a1.524,1.524,0,0,0-1.053,2.283Z" transform="translate(-186.07 -218.712)"/><path class="o" d="M229.874,517.638l6.218,6.12A1.548,1.548,0,0,1,235,526.409h-.265a1.563,1.563,0,0,1-1.1-.451l-6.051-6.056a1.553,1.553,0,0,0-2.19,0l-6.051,6.056a1.543,1.543,0,0,1-1.093.451h-.27a1.548,1.548,0,0,1-1.088-2.651l6.223-6.12a1.539,1.539,0,0,0,0-2.176h0l-6.282-6.282a1.548,1.548,0,0,1,1.093-2.641h0a1.539,1.539,0,0,1,1.083.441l6.37,6.282a1.548,1.548,0,0,0,2.171,0l6.37-6.282a1.539,1.539,0,0,1,1.083-.441h0a1.548,1.548,0,0,1,1.1,2.641l-6.282,6.282a1.539,1.539,0,0,0,.029,2.176h0Z" transform="translate(-110.359 -258.34)"/><path class="p" d="M131.64,520.81" transform="translate(-67.136 -265.617)"/><path class="d" d="M133.958,478.777l-.118.083v-.49Z" transform="translate(-68.258 -243.973)"/><g transform="translate(49.519 203.503)"><path class="b" d="M16.315,67.47H14.409V51.808c-2.872.817-4.99,1.171-7.977-1.917C3.136,46.482-.267,39.9.81,36.569c3.359-.97,9.9,2.567,13.2,5.974q.209.212.4.419v-9.5c-3.083-.9-5.526-3.963-6.325-7.88a9.792,9.792,0,0,1-2.256-1.8c-3.3-3.4-6.7-9.994-5.624-13.323,2.514-.727,6.819,1.077,10.208,3.46,0-.217,0-.433.011-.648C10.62,8.534,13.006,1.523,16.154,0c3.027,1.752,5,8.916,4.823,13.662v.352c3.487-2.393,7.994-4.225,10.558-3.4.952,3.369-2.595,9.907-6,13.209-.281.278-.557.523-.829.745-.556,4.395-3.148,7.908-6.487,8.892v9.465c.178-.2.37-.393.577-.614,3.41-3.3,9.995-6.7,13.32-5.621.979,3.376-2.564,9.92-5.971,13.222C23.124,52.849,21,52.453,18.22,51.57v15.9h-1.11l.157,7.1Z" transform="translate(0)"/></g><path class="b" d="M133.958,478.777l-.118.083v-.49Z" transform="translate(-68.258 -243.973)"/><path class="d" d="M106.49,538.949l2.391,19.325H119.94l4.518-11-4.518-8.869Z" transform="translate(-54.31 -274.594)"/><path class="d" d="M147.4,538.949,145,558.274H133.94V538.41Z" transform="translate(-68.309 -274.594)"/><path class="d" d="M121.58,533.35l-.122.059-3.753,1.862-1.024.519H101.74a1.7,1.7,0,0,1-1.7-1.7v-4.322a1.524,1.524,0,0,1,1.509-1.539h.142l14.989.029Z" transform="translate(-51.02 -269.402)"/><path class="g" d="M121.58,533.35l-.122.059-3.753,1.862-1.024.519H101.74a1.7,1.7,0,0,1-1.7-1.7v-4.322a1.524,1.524,0,0,1,1.509-1.539h.142l14.989.029Z" transform="translate(-51.02 -269.402)"/><path class="g" d="M120.205,543.66v17.292H109.141L107,543.66Z" transform="translate(-54.57 -277.271)"/><path class="g" d="M147.15,543.66l-2.141,17.292H133.95V543.66Z" transform="translate(-68.314 -277.271)"/><path class="g" d="M150.586,530v4.322a1.7,1.7,0,0,1-1.7,1.7H134V528.3h14.911A1.7,1.7,0,0,1,150.586,530Z" transform="translate(-68.34 -269.437)"/><path class="q" d="M82.967,578.985l-28.106,5.39a1.725,1.725,0,1,0,.274,3.43H372.666a1.72,1.72,0,0,0,.24-3.43l-40.968-5.155H331.7l-248.378-.245a1.757,1.757,0,0,0-.358.01Z" transform="translate(-27.107 -295.279)"/></g></svg>