<svg xmlns="http://www.w3.org/2000/svg" xmlns:xlink="http://www.w3.org/1999/xlink" width="200" height="200" viewBox="0 0 200 200">
  <defs>
    <clipPath id="clip-path">
      <rect id="Base" width="200" height="200" transform="translate(1142 366)" fill="#a1a1a1"/>
    </clipPath>
  </defs>
  <g id="Image" transform="translate(-1142 -366)" clip-path="url(#clip-path)">
    <g id="undraw_balloons_vxx5" transform="translate(1151.6 388.4)">
      <path id="Path_297" data-name="Path 297" d="M150.088,213.083c6.121-4.731,15.709-5.7,24.444-5.326,27.441,1.185,52.2,12.706,73.618,25.722,7.755,4.717,15.39,9.8,20.424,16.295,10.248,13.22,7.208,31.536-7.04,42.427-4.848,3.7-10.725,6.547-16.75,9.065-10.727,4.477-22.3,8.071-34.477,9.094a130.379,130.379,0,0,1-26.1-.88c-24.116-2.845-47.788-9.142-67.629-19.894-8.7-4.718-16.9-10.586-20.492-18.221a16.279,16.279,0,0,1,7.587-21.82c3.674-1.869,8.068-2.712,12.37-3.5,6.333-1.167,12.767-2.324,18.48-4.689,5.9-2.45,12.89-7.187,11.723-12.608C144.983,222.918,143.982,217.814,150.088,213.083Z" transform="translate(-94.46 -157.846)" fill="#b1a6a0" opacity="0.1"/>
      <path id="Path_298" data-name="Path 298" d="M347.059,797.674s-10.2-.614-9,6.537a1.748,1.748,0,0,0,.907,1.838s.018-.53,1.047-.35a4.844,4.844,0,0,0,1.109.053,2.317,2.317,0,0,0,1.357-.561h0s2.867-1.184,3.991-5.871c0,0,.827-1.024.794-1.286l-1.723.734a3.1,3.1,0,0,1,.126,2.275s-.055-2.217-.388-2.175c-.066,0-.887.43-.887.43s1.013,2.164.248,3.736c0,0,.29-2.661-.565-3.581l-1.226.707s1.182,2.237.379,4.06c0,0,.206-2.8-.634-3.887l-1.109.858s1.109,2.2.443,3.714c0,0-.089-3.255-.665-3.5a6.768,6.768,0,0,0-1.109,1.2s.763,1.6.29,2.439c0,0-.29-2.171-.528-2.179a7.2,7.2,0,0,0-1.058,2.421,5.23,5.23,0,0,1,.825-2.559,2.875,2.875,0,0,0-1.466.758s.149-1.016,1.7-1.109a6.719,6.719,0,0,1,1-1.157,6.3,6.3,0,0,0-2.481.286,2.79,2.79,0,0,1,2.765-.523l1.084-.887a8.92,8.92,0,0,0-2.9.029s.991-.847,3.188-.222l1.18-.7a10.669,10.669,0,0,0-2.767-.24,4.226,4.226,0,0,1,3.1.049l.854-.377s-1.271-.248-1.643-.288-.39-.142-.39-.142a4.4,4.4,0,0,1,2.386.266A10.389,10.389,0,0,0,347.059,797.674Z" transform="translate(-272.781 -653.006)" fill="#49b776"/>
      <ellipse id="Ellipse_80" data-name="Ellipse 80" cx="7.222" cy="1.222" rx="7.222" ry="1.222" transform="translate(60.034 152.443)" fill="#b1a6a0" opacity="0.1"/>
      <path id="Path_299" data-name="Path 299" d="M452.184,712.728s-8.977-.543-7.918,5.746a1.536,1.536,0,0,0,.8,1.619s0-.467.92-.308a4.364,4.364,0,0,0,.976.045,2.031,2.031,0,0,0,1.193-.491h0s2.522-1.038,3.5-5.168c0,0,.726-.9.692-1.128l-1.515.647a2.723,2.723,0,0,1,.111,2s-.052-1.961-.346-1.917c-.059,0-.785.381-.785.381a4.482,4.482,0,0,1,.218,3.286s.256-2.346-.5-3.148l-1.066.623a4.756,4.756,0,0,1,.346,3.57s.18-2.463-.56-3.421l-.965.754s.979,1.937.38,3.269c0,0-.076-2.864-.592-3.082a5.856,5.856,0,0,0-.972,1.038s.668,1.4.253,2.148c0,0-.253-1.91-.464-1.917a6.321,6.321,0,0,0-.927,2.128,4.6,4.6,0,0,1,.723-2.252,2.535,2.535,0,0,0-1.287.671s.128-.9,1.495-.976a5.71,5.71,0,0,1,.882-1.017,5.59,5.59,0,0,0-2.183.253,2.438,2.438,0,0,1,2.421-.46l.955-.778a7.868,7.868,0,0,0-2.546.024s.872-.744,2.8-.2l1.038-.623a9.348,9.348,0,0,0-2.422-.208,3.728,3.728,0,0,1,2.74.042l.74-.346s-1.117-.221-1.443-.256-.346-.125-.346-.125a3.874,3.874,0,0,1,2.1.235A10.606,10.606,0,0,0,452.184,712.728Z" transform="translate(-345.431 -593.857)" fill="#49b776"/>
      <ellipse id="Ellipse_81" data-name="Ellipse 81" cx="6.351" cy="1.072" rx="6.351" ry="1.072" transform="translate(94.216 125.714)" fill="#b1a6a0" opacity="0.1"/>
      <path id="Path_300" data-name="Path 300" d="M297.431,728.5s-12.562-.754-11.082,8.047a2.149,2.149,0,0,0,1.115,2.261s.024-.654,1.291-.433a5.787,5.787,0,0,0,1.363.068,2.805,2.805,0,0,0,1.668-.69h0s3.532-1.459,4.9-7.217c0,0,1.018-1.259.978-1.6l-2.121.906a3.812,3.812,0,0,1,.156,2.807s-.072-2.742-.477-2.678c-.084,0-1.1.529-1.1.529s1.247,2.666.3,4.6c0,0,.357-3.28-.694-4.41l-1.492.87s1.455,2.754.469,5c0,0,.253-3.444-.782-4.787l-1.351,1.054s1.367,2.714.533,4.575c0,0-.112-4.009-.83-4.31a8.229,8.229,0,0,0-1.363,1.471s.938,1.969.357,3.007c0,0-.357-2.67-.65-2.682a8.821,8.821,0,0,0-1.3,2.983,6.416,6.416,0,0,1,1.014-3.159,3.526,3.526,0,0,0-1.8.934s.184-1.251,2.1-1.363a8.135,8.135,0,0,1,1.235-1.423,7.792,7.792,0,0,0-3.055.353s1.014-1.179,3.4-.646l1.335-1.062a10.945,10.945,0,0,0-3.564.036s1.223-1.046,3.925-.285l1.456-.87a13.293,13.293,0,0,0-3.408-.293,5.24,5.24,0,0,1,3.833.06l1.038-.465s-1.564-.309-2-.357-.485-.176-.485-.176a5.434,5.434,0,0,1,2.939.329A13.1,13.1,0,0,0,297.431,728.5Z" transform="translate(-262.316 -588.947)" fill="#49b776"/>
      <ellipse id="Ellipse_82" data-name="Ellipse 82" cx="8.889" cy="1.504" rx="8.889" ry="1.504" transform="translate(17.57 149.123)" fill="#b1a6a0" opacity="0.1"/>
      <path id="Path_301" data-name="Path 301" d="M562.437,220.81c-1.836.712-3.909,1.681-4.386,3.59a4.392,4.392,0,0,0,.115,2.217A7.317,7.317,0,0,0,561.693,231c2.109,1.133,4.727,1.2,6.652,2.605a5.729,5.729,0,0,1,2.235,3.6,9.264,9.264,0,0,0,.335,1.8c.592,1.532,2.455,2.129,4.1,2.217a3.722,3.722,0,0,1,2.257.561,3.256,3.256,0,0,1,.608.78c1.277,2.038,2.6,4.213,2.612,6.623a10.988,10.988,0,0,1-1.732,5.321c-1.217,2.135-2.714,4.233-2.993,6.674-.328,2.882,1.109,5.663,1.295,8.552a10.2,10.2,0,0,1-3.415,8.219" transform="translate(-448.664 -177.956)" fill="none" stroke="#444053" stroke-width="1"/>
      <path id="Path_302" data-name="Path 302" d="M426.7,49.351c1.41,10.27,1.171,23.186-8.051,24.452s-23.931-9.6-25.35-19.867,4.922-19.621,14.144-20.887S425.294,39.082,426.7,49.351Z" transform="translate(-320.361 -31.715)" fill="#d4c0b6"/>
      <path id="Path_303" data-name="Path 303" d="M519.8,207.5s-1.508.683-1.736-.785a2.668,2.668,0,0,1-.026-.395,3.947,3.947,0,0,0-.251-1.33,4.816,4.816,0,0,0-.191-.443,6.346,6.346,0,0,0-1.271-1.758l3.548-2.71s-.625,2.186-.029,2.712a.461.461,0,0,0,.315.111.888.888,0,0,0,.315-.06c.122-.042.233-.075.335-.1,1.2-.306,1.109.459,1.109.459C522.869,204.858,519.8,207.5,519.8,207.5Z" transform="translate(-416.264 -161.822)" fill="#387dff"/>
      <path id="Path_304" data-name="Path 304" d="M524.639,212.384l-2.368,2.1a4.807,4.807,0,0,0-.191-.443c.641-.47,1.623-1.255,2.244-1.756A.461.461,0,0,0,524.639,212.384Z" transform="translate(-420.739 -171.317)" fill="#444053"/>
      <path id="Path_305" data-name="Path 305" d="M525.906,216.54s-1.508.683-1.736-.785a4.966,4.966,0,0,0,1.645-1,4.261,4.261,0,0,0,1.1-2.987c1.2-.306,1.109.459,1.109.459C528.97,213.9,525.906,216.54,525.906,216.54Z" transform="translate(-422.365 -170.861)" fill="#387dff"/>
      <path id="Path_306" data-name="Path 306" d="M525.906,216.54s-1.508.683-1.736-.785a4.966,4.966,0,0,0,1.645-1,4.261,4.261,0,0,0,1.1-2.987c1.2-.306,1.109.459,1.109.459C528.97,213.9,525.906,216.54,525.906,216.54Z" transform="translate(-422.365 -170.861)" opacity="0.1"/>
      <path id="Path_307" data-name="Path 307" d="M414.652,58.47s-4.47,2.259-3.807,5.792a4,4,0,0,1,1.552-.9,2.547,2.547,0,0,0,1.091-.461A6.629,6.629,0,0,1,414.652,58.47Z" transform="translate(-334.115 -51.611)" fill="#fff" opacity="0.1"/>
      <path id="Path_308" data-name="Path 308" d="M411.528,286.226a12.815,12.815,0,0,1-1.042,3.488c-.135.31-.284.625-.443.936-4.175,8.013-15.778,15.84-24.443,14.665-8.091-1.1-14.339-6.667-16.022-13.488-.082-.333-.155-.665-.222-1.011a15.369,15.369,0,0,1-.093-4.723c1.016-7.459,7.317-13.038,15.135-14.153a19.011,19.011,0,0,1,2.082-.191c.337-.016.678-.02,1.022-.016a20.378,20.378,0,0,1,2.625.186c.481.067.973.135,1.466.222a1.211,1.211,0,0,1,.124.02,55.559,55.559,0,0,1,8.831,2.058c.887.295,1.745.61,2.57.969.574.242,1.133.5,1.672.776a13.711,13.711,0,0,1,5.594,4.683c.12.191.222.384.333.585l.047.093a7.761,7.761,0,0,1,.783,2.57A8.9,8.9,0,0,1,411.528,286.226Z" transform="translate(-301.697 -217.587)" fill="#f1e8e0"/>
      <path id="Path_309" data-name="Path 309" d="M411.528,286.226a12.815,12.815,0,0,1-1.042,3.488c-.135.31-.284.625-.443.936-4.175,8.013-15.778,15.84-24.443,14.665-8.091-1.1-14.339-6.667-16.022-13.488-.082-.333-.155-.665-.222-1.011a15.369,15.369,0,0,1-.093-4.723c1.016-7.459,7.317-13.038,15.135-14.153a19.011,19.011,0,0,1,2.082-.191c.337-.016.678-.02,1.022-.016a20.378,20.378,0,0,1,2.625.186c.481.067.973.135,1.466.222a1.211,1.211,0,0,1,.124.02,55.559,55.559,0,0,1,8.831,2.058c.887.295,1.745.61,2.57.969.574.242,1.133.5,1.672.776a13.711,13.711,0,0,1,5.594,4.683c.12.191.222.384.333.585l.047.093a7.761,7.761,0,0,1,.783,2.57A8.9,8.9,0,0,1,411.528,286.226Z" transform="translate(-301.697 -217.587)" fill="#d4c0b6" opacity="0.1"/>
      <path id="Path_310" data-name="Path 310" d="M556.03,308.708a2,2,0,0,1-.388-.078,3.871,3.871,0,0,0-1.353-.113,3.7,3.7,0,0,0-.492.062,5.936,5.936,0,0,0-1.4.43,5.652,5.652,0,0,0-.632.319l-1.146-2.854-.016-.042-.5-1.237a8.377,8.377,0,0,0,1.129.565c.545.222,1.151.392,1.472.186a.486.486,0,0,0,.191-.275.846.846,0,0,0,.027-.322c0-.129-.011-.244-.011-.353.031-1.233.747-.947.747-.947a2.471,2.471,0,0,1,2.253,1.133c.093.111.182.222.264.328a10.959,10.959,0,0,1,1.073,1.734S557.507,308.888,556.03,308.708Z" transform="translate(-442.554 -242.71)" fill="#d9d0c9"/>
      <path id="Path_311" data-name="Path 311" d="M563.459,314.329a3.692,3.692,0,0,0-.492.062c-.222-.627-.621-1.552-.931-2.264-.02-.053-.042-.1-.062-.151s-.066-.151-.093-.222a.485.485,0,0,0,.191-.275l.208.43.082.171Z" transform="translate(-451.714 -248.522)" fill="#444053"/>
      <path id="Path_312" data-name="Path 312" d="M565.906,308.708a4.979,4.979,0,0,0-.528-1.854,3.946,3.946,0,0,0-.756-.887,3.12,3.12,0,0,0-.27-.222A3.425,3.425,0,0,0,562.8,305c.031-1.233.747-.947.747-.947a2.471,2.471,0,0,1,2.253,1.133c.093.111.182.222.264.328a10.95,10.95,0,0,1,1.073,1.734S567.383,308.888,565.906,308.708Z" transform="translate(-452.43 -242.71)" fill="#d9d0c9"/>
      <path id="Path_313" data-name="Path 313" d="M565.906,308.708a4.979,4.979,0,0,0-.528-1.854,3.946,3.946,0,0,0-.756-.887,3.12,3.12,0,0,0-.27-.222A3.425,3.425,0,0,0,562.8,305c.031-1.233.747-.947.747-.947a2.471,2.471,0,0,1,2.253,1.133c.093.111.182.222.264.328a10.95,10.95,0,0,1,1.073,1.734S567.383,308.888,565.906,308.708Z" transform="translate(-452.43 -242.71)" opacity="0.1"/>
      <path id="Path_314" data-name="Path 314" d="M385.84,371.67s.978,4.914,4.559,5.22a3.916,3.916,0,0,1-.443-1.727,2.524,2.524,0,0,0-.151-1.177A6.655,6.655,0,0,1,385.84,371.67Z" transform="translate(-314.707 -295.366)" fill="#fff" opacity="0.1"/>
      <path id="Path_315" data-name="Path 315" d="M505.87,52.773A51.567,51.567,0,0,1,498.986,64.6c-2.113,2.57-4.486,4.517-7.066,5.257a7.94,7.94,0,0,1-3.432.222,8.647,8.647,0,0,1-2.244-.665c-5.035-2.206-9.494-9.013-11.448-16.186-1.35-4.973-1.5-10.106.2-14,4.16-9.481,14.441-14.148,22.978-10.415S510.028,43.279,505.87,52.773Z" transform="translate(-383.125 -27.535)" fill="#dbc4b8"/>
      <path id="Path_316" data-name="Path 316" d="M505.87,52.773A51.567,51.567,0,0,1,498.986,64.6c-2.113,2.57-4.486,4.517-7.066,5.257a7.94,7.94,0,0,1-3.432.222,8.647,8.647,0,0,1-2.244-.665c-5.035-2.206-9.494-9.013-11.448-16.186-1.35-4.973-1.5-10.106.2-14,4.16-9.481,14.441-14.148,22.978-10.415S510.028,43.279,505.87,52.773Z" transform="translate(-383.125 -27.535)" opacity="0.1"/>
      <path id="Path_317" data-name="Path 317" d="M541.706,217.936c-.067,1.916-4.06,2.574-4.06,2.574s-1.643-.208-1.067-1.577a2.5,2.5,0,0,1,.18-.35,3.967,3.967,0,0,0,.488-1.275c.031-.162.058-.322.073-.481a6.509,6.509,0,0,0-.031-1.468,5.411,5.411,0,0,0-.135-.694l4.435-.466a9.368,9.368,0,0,0-.867.938c-.366.466-.683,1-.574,1.361a.443.443,0,0,0,.222.259.827.827,0,0,0,.3.115,2.946,2.946,0,0,1,.337.086C542.178,217.324,541.706,217.936,541.706,217.936Z" transform="translate(-431.928 -172.811)" fill="#49b776"/>
      <path id="Path_318" data-name="Path 318" d="M543.164,224.829l-3.1.55c.031-.162.058-.322.073-.481.787-.069,2.035-.222,2.827-.328A.443.443,0,0,0,543.164,224.829Z" transform="translate(-434.732 -180.882)" fill="#444053"/>
      <path id="Path_319" data-name="Path 319" d="M541.706,227.626c-.067,1.916-4.06,2.574-4.06,2.574s-1.643-.208-1.067-1.576a4.955,4.955,0,0,0,1.927,0A4.276,4.276,0,0,0,541,226.65C542.178,227.014,541.706,227.626,541.706,227.626Z" transform="translate(-431.928 -182.501)" fill="#49b776"/>
      <path id="Path_320" data-name="Path 320" d="M541.706,227.626c-.067,1.916-4.06,2.574-4.06,2.574s-1.643-.208-1.067-1.576a4.955,4.955,0,0,0,1.927,0A4.276,4.276,0,0,0,541,226.65C542.178,227.014,541.706,227.626,541.706,227.626Z" transform="translate(-431.928 -182.501)" opacity="0.1"/>
      <path id="Path_321" data-name="Path 321" d="M522.71,39.1s-4.991-.408-6.27,2.953a4.007,4.007,0,0,1,1.787.035,2.5,2.5,0,0,0,1.173.177A6.6,6.6,0,0,1,522.71,39.1Z" transform="translate(-416.349 -36.52)" fill="#fff" opacity="0.1"/>
      <g id="Group_236" data-name="Group 236" transform="translate(51.257 47.835)" opacity="0.1">
        <path id="Path_322" data-name="Path 322" d="M300.3,314.432a4,4,0,0,0,.457,1.723c-3.579-.3-4.559-5.215-4.559-5.215a6.658,6.658,0,0,0,3.951,2.315A2.515,2.515,0,0,1,300.3,314.432Z" transform="translate(-296.2 -295.936)"/>
        <path id="Path_323" data-name="Path 323" d="M462.186,252.743l-1.656-4.133a8.381,8.381,0,0,0,1.129.565,7.892,7.892,0,0,1,1.16,3.248A5.909,5.909,0,0,0,462.186,252.743Z" transform="translate(-424.093 -247.426)"/>
        <path id="Path_324" data-name="Path 324" d="M391.707,272.115c-.016.2-.035.4-.062.607a12.792,12.792,0,0,1-1.047,3.486c-.135.31-.286.625-.443.938-3.579,6.874-12.616,13.607-20.59,14.634a15.322,15.322,0,0,1-.31-5.734c1.016-7.459,7.317-13.038,15.135-14.153a20.641,20.641,0,0,1,5.729-.02C390.643,271.956,391.175,272.029,391.707,272.115Z" transform="translate(-352.949 -265.384)"/>
        <path id="Path_325" data-name="Path 325" d="M466.4,247.968a2.02,2.02,0,0,1-.39-.078,3.863,3.863,0,0,0-1.35-.113,3.6,3.6,0,0,0-.492.062,6.415,6.415,0,0,0-2.031.749l-1.656-4.133a8.386,8.386,0,0,0,1.129.565c.543.222,1.149.392,1.47.186a.5.5,0,0,0,.193-.275.9.9,0,0,0,.024-.322v-.35c.031-1.233.745-.949.745-.949,1.86-.457,3.59,3.2,3.59,3.2S467.875,248.145,466.4,247.968Z" transform="translate(-424.055 -243.272)"/>
        <path id="Path_326" data-name="Path 326" d="M473.781,253.6a3.6,3.6,0,0,0-.492.062c-.275-.741-.772-1.9-1.089-2.632a.5.5,0,0,0,.193-.275Z" transform="translate(-433.176 -249.1)"/>
        <path id="Path_327" data-name="Path 327" d="M476.253,247.968a5.042,5.042,0,0,0-.53-1.854,4.254,4.254,0,0,0-2.583-1.854c.031-1.233.745-.949.745-.949,1.86-.457,3.59,3.2,3.59,3.2S477.728,248.145,476.253,247.968Z" transform="translate(-433.908 -243.272)"/>
        <path id="Path_328" data-name="Path 328" d="M476.253,247.968a5.042,5.042,0,0,0-.53-1.854,4.254,4.254,0,0,0-2.583-1.854c.031-1.233.745-.949.745-.949,1.86-.457,3.59,3.2,3.59,3.2S477.728,248.145,476.253,247.968Z" transform="translate(-433.908 -243.272)" opacity="0.1"/>
        <path id="Path_329" data-name="Path 329" d="M300.759,316.155c-3.579-.3-4.559-5.215-4.559-5.215a6.658,6.658,0,0,0,3.951,2.315,2.515,2.515,0,0,1,.151,1.177A4,4,0,0,0,300.759,316.155Z" transform="translate(-296.2 -295.936)" opacity="0.1"/>
      </g>
      <path id="Path_330" data-name="Path 330" d="M321.85,220.826c-.02.135-.042.271-.062.41a13.319,13.319,0,0,1-.987,3.078c-.042.093-.084.191-.131.284-.1.222-.206.443-.322.652-3.614,6.936-12.783,13.727-20.807,14.669a14.246,14.246,0,0,1-3.636,0c-10.27-1.395-17.581-10-16.332-19.222,1.015-7.459,7.317-13.038,15.137-14.153.242-.035.486-.067.734-.093a20.737,20.737,0,0,1,4.993.073,58.177,58.177,0,0,1,10.421,2.29q1.049.35,2.044.749c.177.069.353.146.523.222.322.135.639.282.949.426.248.113.486.233.725.353a13.725,13.725,0,0,1,5.594,4.683,7.882,7.882,0,0,1,1.16,3.246A8.921,8.921,0,0,1,321.85,220.826Z" transform="translate(-231.894 -166.69)" fill="#dbc4b8"/>
      <path id="Path_331" data-name="Path 331" d="M466.4,243.3a2.02,2.02,0,0,1-.39-.078,3.919,3.919,0,0,0-1.35-.115,4,4,0,0,0-.492.064,6.069,6.069,0,0,0-1.4.428,6.157,6.157,0,0,0-.632.322l-1.656-4.133a8.678,8.678,0,0,0,1.129.565c.543.222,1.149.392,1.47.186a.5.5,0,0,0,.193-.275.9.9,0,0,0,.024-.321v-.353c.031-1.233.745-.947.745-.947,1.86-.457,3.59,3.2,3.59,3.2S467.875,243.473,466.4,243.3Z" transform="translate(-372.797 -191.802)" fill="#49b776"/>
      <path id="Path_332" data-name="Path 332" d="M473.781,248.933a3.993,3.993,0,0,0-.492.064c-.275-.743-.772-1.9-1.089-2.632a.5.5,0,0,0,.193-.275Z" transform="translate(-381.918 -197.63)" fill="#444053"/>
      <path id="Path_333" data-name="Path 333" d="M476.253,243.3a5.032,5.032,0,0,0-.53-1.854,4.266,4.266,0,0,0-2.583-1.856c.031-1.233.745-.947.745-.947,1.86-.457,3.59,3.2,3.59,3.2S477.728,243.473,476.253,243.3Z" transform="translate(-382.65 -191.802)" fill="#49b776"/>
      <path id="Path_334" data-name="Path 334" d="M476.253,243.3a5.032,5.032,0,0,0-.53-1.854,4.266,4.266,0,0,0-2.583-1.856c.031-1.233.745-.947.745-.947,1.86-.457,3.59,3.2,3.59,3.2S477.728,243.473,476.253,243.3Z" transform="translate(-382.65 -191.802)" opacity="0.1"/>
      <path id="Path_335" data-name="Path 335" d="M296.19,306.26s.98,4.911,4.561,5.219a3.993,3.993,0,0,1-.455-1.727,2.523,2.523,0,0,0-.151-1.177A6.638,6.638,0,0,1,296.19,306.26Z" transform="translate(-244.935 -244.459)" fill="#fff" opacity="0.1"/>
      <g id="Group_237" data-name="Group 237" transform="translate(55.227 15.36)" opacity="0.1">
        <path id="Path_336" data-name="Path 336" d="M316.662,101.38a2.546,2.546,0,0,1-.887.792,4.027,4.027,0,0,0-1.171,1.348c-1.774-3.129,1.741-6.709,1.741-6.709A6.651,6.651,0,0,0,316.662,101.38Z" transform="translate(-314.104 -96.81)"/>
        <path id="Path_337" data-name="Path 337" d="M367.127,209.76q.865.366,1.674.778a15.517,15.517,0,0,1-2.071.384c-5.594.665-12.758-1.084-18.31-4.4a20.62,20.62,0,0,1,5.727-.02,58.171,58.171,0,0,1,10.421,2.29C365.444,209.089,366.3,209.4,367.127,209.76Z" transform="translate(-340.811 -182.033)"/>
        <path id="Path_338" data-name="Path 338" d="M459.843,198.5a7.951,7.951,0,0,1-2.022,2.792,5.133,5.133,0,0,0-.621-.341l2.477-3.71A8.7,8.7,0,0,0,459.843,198.5Z" transform="translate(-425.472 -174.972)"/>
        <path id="Path_339" data-name="Path 339" d="M462,204.3s-1.206,1.135-1.9-.18a2.745,2.745,0,0,1-.155-.368,3.977,3.977,0,0,0-.665-1.182c-.1-.129-.222-.253-.326-.368a5.967,5.967,0,0,0-1.146-.911,5.141,5.141,0,0,0-.621-.341l2.477-3.71a8.7,8.7,0,0,0,.171,1.259c.12.581.326,1.171.679,1.33a.5.5,0,0,0,.33,0,.847.847,0,0,0,.282-.157c.1-.078.2-.149.284-.206,1.036-.665,1.2.078,1.2.078C464.041,200.814,462,204.3,462,204.3Z" transform="translate(-425.464 -174.972)"/>
        <path id="Path_340" data-name="Path 340" d="M467.039,208.88l-1.563,2.749c-.1-.129-.222-.253-.326-.368.455-.647,1.129-1.71,1.552-2.381A.494.494,0,0,0,467.039,208.88Z" transform="translate(-431.659 -184.031)"/>
        <path id="Path_341" data-name="Path 341" d="M472.226,211.111s-1.206,1.135-1.9-.18a5.03,5.03,0,0,0,1.233-1.483,4.265,4.265,0,0,0,.073-3.18c1.035-.665,1.2.078,1.2.078C474.268,207.625,472.226,211.111,472.226,211.111Z" transform="translate(-435.69 -181.783)"/>
        <path id="Path_342" data-name="Path 342" d="M472.226,211.111s-1.206,1.135-1.9-.18a5.03,5.03,0,0,0,1.233-1.483,4.265,4.265,0,0,0,.073-3.18c1.035-.665,1.2.078,1.2.078C474.268,207.625,472.226,211.111,472.226,211.111Z" transform="translate(-435.69 -181.783)" opacity="0.1"/>
        <path id="Path_343" data-name="Path 343" d="M316.662,101.38a2.546,2.546,0,0,1-.887.792,4.027,4.027,0,0,0-1.171,1.348c-1.774-3.129,1.741-6.709,1.741-6.709A6.651,6.651,0,0,0,316.662,101.38Z" transform="translate(-314.104 -96.81)" opacity="0.1"/>
      </g>
      <path id="Path_344" data-name="Path 344" d="M340.834,86.508a7.931,7.931,0,0,1-2.022,2.792,8.777,8.777,0,0,1-1.942,1.306,12.31,12.31,0,0,1-3.137,1.047c-.443.093-.887.16-1.357.222a.244.244,0,0,0-.089.011c-5.335.616-12.08-.965-17.488-3.991-3.683-2.055-6.743-4.776-8.324-7.929-4.641-9.268-1.663-20.16,6.652-24.33s18.829-.04,23.468,9.237a58.968,58.968,0,0,1,3.991,9.9c.089.306.171.605.248.907C341.885,79.692,342.138,83.546,340.834,86.508Z" transform="translate(-251.235 -48.139)" fill="#dbc4b8"/>
      <path id="Path_345" data-name="Path 345" d="M340.834,86.508a7.931,7.931,0,0,1-2.022,2.792,8.777,8.777,0,0,1-1.942,1.306,12.31,12.31,0,0,1-3.137,1.047c-.443.093-.887.16-1.357.222a.244.244,0,0,0-.089.011c-5.335.616-12.08-.965-17.488-3.991-3.683-2.055-6.743-4.776-8.324-7.929-4.641-9.268-1.663-20.16,6.652-24.33s18.829-.04,23.468,9.237a58.968,58.968,0,0,1,3.991,9.9c.089.306.171.605.248.907C341.885,79.692,342.138,83.546,340.834,86.508Z" transform="translate(-251.235 -48.139)" opacity="0.1"/>
      <path id="Path_346" data-name="Path 346" d="M462,201.97s-1.206,1.133-1.9-.182a2.62,2.62,0,0,1-.155-.368,4.006,4.006,0,0,0-.665-1.182,4.731,4.731,0,0,0-.326-.366,5.986,5.986,0,0,0-1.146-.914,5.559,5.559,0,0,0-.621-.341l2.477-3.707a8.688,8.688,0,0,0,.171,1.257c.12.581.326,1.171.679,1.33a.481.481,0,0,0,.33,0,.888.888,0,0,0,.282-.155c.1-.078.2-.151.284-.208,1.036-.665,1.2.078,1.2.078C464.041,198.478,462,201.97,462,201.97Z" transform="translate(-370.237 -157.798)" fill="#c5b0a5"/>
      <path id="Path_347" data-name="Path 347" d="M467.039,206.54l-1.563,2.749a4.722,4.722,0,0,0-.326-.366c.455-.647,1.129-1.71,1.552-2.384A.481.481,0,0,0,467.039,206.54Z" transform="translate(-376.432 -166.85)" fill="#c5b0a5"/>
      <path id="Path_348" data-name="Path 348" d="M472.226,208.773s-1.206,1.133-1.9-.182a5.016,5.016,0,0,0,1.233-1.481,4.271,4.271,0,0,0,.073-3.182c1.035-.665,1.2.078,1.2.078C474.268,205.281,472.226,208.773,472.226,208.773Z" transform="translate(-380.463 -164.602)" fill="#d4c0b6"/>
      <path id="Path_349" data-name="Path 349" d="M472.226,208.773s-1.206,1.133-1.9-.182a5.016,5.016,0,0,0,1.233-1.481,4.271,4.271,0,0,0,.073-3.182c1.035-.665,1.2.078,1.2.078C474.268,205.281,472.226,208.773,472.226,208.773Z" transform="translate(-380.463 -164.602)" opacity="0.1"/>
      <path id="Path_350" data-name="Path 350" d="M316.358,94.47s-3.5,3.581-1.736,6.712a3.976,3.976,0,0,1,1.171-1.35,2.53,2.53,0,0,0,.887-.789A6.642,6.642,0,0,1,316.358,94.47Z" transform="translate(-258.892 -79.629)" fill="#fff" opacity="0.1"/>
      <path id="Path_351" data-name="Path 351" d="M618.907,162.092c-1.16,9.237-10.437,15.667-20.725,14.383-4.993-.625-10.492-1.787-14.694-3.878a13.707,13.707,0,0,1-5.645-4.643,7.947,7.947,0,0,1-1.2-3.231,9,9,0,0,1,0-2.341,15.976,15.976,0,0,1,2.9-6.874c4.938-7.137,15.042-13.457,22.838-12.474C612.665,144.325,620.069,152.857,618.907,162.092Z" transform="translate(-463.143 -117.347)" fill="#d4c0b6"/>
      <path id="Path_352" data-name="Path 352" d="M562.234,243.819a8.766,8.766,0,0,0-1.14-.561c-.55-.222-1.155-.381-1.472-.171a.443.443,0,0,0-.191.282.963.963,0,0,0-.027.315c0,.129.016.248.016.353-.016,1.237-.736.958-.736.958-1.854.477-3.621-3.164-3.621-3.164s-.268-1.632,1.208-1.472a2.609,2.609,0,0,1,.388.073,3.849,3.849,0,0,0,1.357.1,3.976,3.976,0,0,0,.488-.069,6.3,6.3,0,0,0,1.388-.443,5.581,5.581,0,0,0,.636-.333Z" transform="translate(-446.394 -192.649)" fill="#d4c0b6"/>
      <path id="Path_353" data-name="Path 353" d="M570.055,245.8a.443.443,0,0,0-.191.282l-1.415-2.834a3.971,3.971,0,0,0,.488-.069C569.222,243.923,569.729,245.074,570.055,245.8Z" transform="translate(-456.827 -195.366)" fill="#444053"/>
      <path id="Path_354" data-name="Path 354" d="M559.42,246.34c-.016,1.237-.736.958-.736.958-1.854.477-3.621-3.164-3.621-3.164s-.268-1.632,1.208-1.472a4.94,4.94,0,0,0,.548,1.845A4.253,4.253,0,0,0,559.42,246.34Z" transform="translate(-446.394 -194.953)" fill="#dbc4b8"/>
      <path id="Path_355" data-name="Path 355" d="M559.42,246.34c-.016,1.237-.736.958-.736.958-1.854.477-3.621-3.164-3.621-3.164s-.268-1.632,1.208-1.472a4.94,4.94,0,0,0,.548,1.845A4.253,4.253,0,0,0,559.42,246.34Z" transform="translate(-446.394 -194.953)" opacity="0.1"/>
      <path id="Path_356" data-name="Path 356" d="M734.912,176.175s-1.029-4.9-4.612-5.175a4.022,4.022,0,0,1,.47,1.725,2.529,2.529,0,0,0,.164,1.175A6.653,6.653,0,0,1,734.912,176.175Z" transform="translate(-582.79 -139.19)" fill="#fff" opacity="0.1"/>
      <path id="Path_357" data-name="Path 357" d="M566.739,216.723a13.707,13.707,0,0,1-5.645-4.643c-.55-.222-1.155-.381-1.472-.171a.443.443,0,0,0-.191.282.963.963,0,0,0-.027.315c0,.129.016.248.016.353-.016,1.237-.736.958-.736.958-1.854.477-3.621-3.164-3.621-3.164s-.268-1.632,1.208-1.472a2.617,2.617,0,0,1,.388.073,3.849,3.849,0,0,0,1.357.1,3.97,3.97,0,0,0,.488-.069,6.294,6.294,0,0,0,1.388-.443,8.992,8.992,0,0,1,0-2.341,15.975,15.975,0,0,1,2.9-6.874C565.44,205.322,567.542,211.776,566.739,216.723Z" transform="translate(-446.394 -161.472)" opacity="0.1"/>
      <path id="Path_358" data-name="Path 358" d="M462.767,186.637a12.1,12.1,0,0,1-1.441.561,13.69,13.69,0,0,1-1.366.357l-.306.062c-.4.073-.814.135-1.233.182-.317.04-.636.067-.965.086a31.851,31.851,0,0,1-19.268-5.816,20.463,20.463,0,0,1-4-3.745,13.994,13.994,0,0,1-1.574-2.439,20.52,20.52,0,0,1-2.16-7.982c-.016-.295-.027-.581-.027-.871-.086-6.43,3.011-12.417,8.583-15.341,1.047,4.024,1.295,7.878,0,10.84.12.581.326,1.171.678,1.33a.481.481,0,0,0,.33,0,.887.887,0,0,0,.282-.155c.1-.078.2-.151.284-.208,1.035-.665,1.2.078,1.2.078,1.43,1.279-.612,4.767-.612,4.767s-1.206,1.133-1.9-.182a2.632,2.632,0,0,1-.155-.368,4,4,0,0,0-.665-1.182,4.707,4.707,0,0,0-.326-.366,5.983,5.983,0,0,0-1.146-.914,8.779,8.779,0,0,1-1.942,1.306,12.31,12.31,0,0,1-3.137,1.047c.248.113.486.233.725.353a13.725,13.725,0,0,1,5.594,4.683c.543.222,1.148.392,1.47.186a.5.5,0,0,0,.193-.275.9.9,0,0,0,.024-.322v-.353c.031-1.233.745-.947.745-.947,1.86-.457,3.59,3.2,3.59,3.2s.253,1.636-1.222,1.461a2.02,2.02,0,0,1-.39-.078,3.918,3.918,0,0,0-1.35-.115,3.991,3.991,0,0,0-.492.064,6.067,6.067,0,0,0-1.4.428,8.918,8.918,0,0,1-.016,2.341c-.02.135-.042.271-.062.41a1.213,1.213,0,0,1,.124.02,55.556,55.556,0,0,1,8.831,2.058c.887.295,1.745.61,2.57.969.574.242,1.133.5,1.672.776a13.711,13.711,0,0,1,5.594,4.683c.545.222,1.151.392,1.472.186a.486.486,0,0,0,.191-.275.847.847,0,0,0,.027-.321c0-.129-.011-.244-.011-.353.031-1.233.747-.947.747-.947C461.337,185.3,462.135,185.9,462.767,186.637Z" transform="translate(-349.404 -124.161)" opacity="0.1"/>
      <g id="Group_238" data-name="Group 238" transform="translate(84.75 24.202)" opacity="0.1">
        <path id="Path_359" data-name="Path 359" d="M449.812,181.768a2.541,2.541,0,0,1-.887.787,4.024,4.024,0,0,0-1.171,1.353c-1.774-3.129,1.741-6.707,1.741-6.707A6.643,6.643,0,0,0,449.812,181.768Z" transform="translate(-447.254 -168.217)"/>
        <path id="Path_360" data-name="Path 360" d="M501.713,147.551c.326.652.652,1.33.969,2-2.113,2.57-4.486,4.517-7.066,5.257-.366.466-.683,1-.574,1.361a.444.444,0,0,0,.222.259.827.827,0,0,0,.3.115,2.945,2.945,0,0,1,.337.086c1.182.364.71.976.71.976-.067,1.916-4.06,2.574-4.06,2.574s-1.643-.208-1.067-1.576a2.514,2.514,0,0,1,.18-.35,3.964,3.964,0,0,0,.488-1.275c.031-.162.058-.322.073-.481a6.507,6.507,0,0,0-.031-1.468,8.647,8.647,0,0,1-2.244-.665c-5.035-2.206-9.494-9.013-11.448-16.186C486.768,134.239,497.114,138.378,501.713,147.551Z" transform="translate(-471.572 -136.688)"/>
        <path id="Path_361" data-name="Path 361" d="M592.981,278.883a7.966,7.966,0,0,1-2.02,2.8,5.424,5.424,0,0,0-.621-.344l2.477-3.707A9.219,9.219,0,0,0,592.981,278.883Z" transform="translate(-558.614 -246.379)"/>
        <path id="Path_362" data-name="Path 362" d="M595.119,284.69s-1.206,1.133-1.9-.182a2.4,2.4,0,0,1-.155-.368,3.881,3.881,0,0,0-.665-1.18,3.775,3.775,0,0,0-.326-.368,6.06,6.06,0,0,0-1.146-.911,5.429,5.429,0,0,0-.621-.344l2.477-3.707a9.228,9.228,0,0,0,.164,1.253c.124.581.333,1.175.685,1.33a.457.457,0,0,0,.33,0,.849.849,0,0,0,.279-.155,3.3,3.3,0,0,1,.286-.206c1.035-.679,1.2.078,1.2.078C597.17,281.2,595.119,284.69,595.119,284.69Z" transform="translate(-558.591 -246.379)"/>
        <path id="Path_363" data-name="Path 363" d="M600.2,289.252,598.634,292a4.67,4.67,0,0,0-.324-.364c.454-.652,1.131-1.712,1.552-2.386A.457.457,0,0,0,600.2,289.252Z" transform="translate(-564.817 -255.423)"/>
        <path id="Path_364" data-name="Path 364" d="M605.346,291.517s-1.206,1.133-1.9-.182a4.945,4.945,0,0,0,1.231-1.474,4.271,4.271,0,0,0,.075-3.182c1.036-.665,1.2.078,1.2.078C607.4,288.029,605.346,291.517,605.346,291.517Z" transform="translate(-568.817 -253.206)"/>
        <path id="Path_365" data-name="Path 365" d="M605.346,291.517s-1.206,1.133-1.9-.182a4.945,4.945,0,0,0,1.231-1.474,4.271,4.271,0,0,0,.075-3.182c1.036-.665,1.2.078,1.2.078C607.4,288.029,605.346,291.517,605.346,291.517Z" transform="translate(-568.817 -253.206)" opacity="0.1"/>
        <path id="Path_366" data-name="Path 366" d="M449.812,181.768a2.541,2.541,0,0,1-.887.787,4.024,4.024,0,0,0-1.171,1.353c-1.774-3.129,1.741-6.707,1.741-6.707A6.643,6.643,0,0,0,449.812,181.768Z" transform="translate(-447.254 -168.217)" opacity="0.1"/>
      </g>
      <path id="Path_367" data-name="Path 367" d="M467.407,152.247c4.645,9.266,8.583,21.572.264,25.743s-25.749-1.37-30.394-10.643-1.665-20.16,6.652-24.33S462.762,142.981,467.407,152.247Z" transform="translate(-353.032 -116.146)" fill="#dbc4b8"/>
      <path id="Path_368" data-name="Path 368" d="M592.794,289.37s-1.206,1.131-1.9-.184a3.1,3.1,0,0,1-.153-.366,3.913,3.913,0,0,0-.665-1.184,4.36,4.36,0,0,0-.326-.366,6.363,6.363,0,0,0-1.774-1.255l2.479-3.705s.113,2.268.847,2.574a.457.457,0,0,0,.335,0,.927.927,0,0,0,.279-.157c.1-.08.2-.149.284-.206,1.036-.676,1.2.075,1.2.075C594.84,285.88,592.794,289.37,592.794,289.37Z" transform="translate(-472.027 -225.819)" fill="#f1e8e0"/>
      <path id="Path_369" data-name="Path 369" d="M597.861,293.924l-1.565,2.747a4.354,4.354,0,0,0-.326-.366c.443-.65,1.131-1.712,1.552-2.386A.456.456,0,0,0,597.861,293.924Z" transform="translate(-478.245 -234.855)" fill="#444053"/>
      <path id="Path_370" data-name="Path 370" d="M603.036,296.154s-1.206,1.131-1.9-.184a4.984,4.984,0,0,0,1.235-1.481,4.265,4.265,0,0,0,.073-3.18c1.036-.676,1.2.075,1.2.075C605.082,292.664,603.036,296.154,603.036,296.154Z" transform="translate(-482.269 -232.604)" fill="#f1e8e0"/>
      <path id="Path_371" data-name="Path 371" d="M603.036,296.154s-1.206,1.131-1.9-.184a4.984,4.984,0,0,0,1.235-1.481,4.265,4.265,0,0,0,.073-3.18c1.036-.676,1.2.075,1.2.075C605.082,292.664,603.036,296.154,603.036,296.154Z" transform="translate(-482.269 -232.604)" opacity="0.1"/>
      <path id="Path_372" data-name="Path 372" d="M447.158,181.86s-3.5,3.581-1.736,6.712a4.025,4.025,0,0,1,1.171-1.35,2.529,2.529,0,0,0,.887-.789A6.658,6.658,0,0,1,447.158,181.86Z" transform="translate(-360.69 -147.642)" fill="#fff" opacity="0.1"/>
      <path id="Path_373" data-name="Path 373" d="M596.2,301.85a2.989,2.989,0,0,0-.175,4.528c1.656,1.372,4.131.512,6.271.743a8.4,8.4,0,0,1,5.377,3.31,14.045,14.045,0,0,1,2.8,11.488c-.419,2.042-1.295,3.971-1.692,6.018a24.161,24.161,0,0,0,.058,7.466,14.532,14.532,0,0,0,1.4,5.375c1.435,2.588,4.231,4.113,7.018,5.1s5.736,1.6,8.333,3.013a14.967,14.967,0,0,1,7.222,9.295,1.49,1.49,0,0,1,.022.931.55.55,0,0,1-.767.3" transform="translate(-477.545 -241.027)" fill="none" stroke="#444053" stroke-width="1"/>
      <path id="Path_374" data-name="Path 374" d="M566.457,321.42a1.4,1.4,0,0,0,.94,1.519,2.182,2.182,0,0,0,1.858-.288c.665-.424,1.262-1.135,2.055-1.109a2.01,2.01,0,0,1,1.421.887,7.775,7.775,0,0,0,1.1,1.33,3.326,3.326,0,0,0,1.313.6,3.747,3.747,0,0,0,1.723.082c1.224-.268,2.122-1.359,3.326-1.707,1.592-.459,3.237.481,4.512,1.539a10.831,10.831,0,0,1,3.536,4.694,19.592,19.592,0,0,1,.665,3.871,8,8,0,0,0,1.219,3.7,3.45,3.45,0,0,0,3.388,1.526" transform="translate(-455.258 -256.258)" fill="none" stroke="#444053" stroke-width="1"/>
    </g>
  </g>
</svg>
