<svg xmlns="http://www.w3.org/2000/svg" xmlns:xlink="http://www.w3.org/1999/xlink" width="336.001" height="308.999" viewBox="0 0 336.001 308.999"><defs><style>.a{fill:#fff;}.b{filter:url(#a);}</style><filter id="a" x="0" y="0" width="336.001" height="308.999" filterUnits="userSpaceOnUse"><feOffset dy="8" input="SourceAlpha"/><feGaussianBlur stdDeviation="6" result="b"/><feFlood flood-color="#0052e0" flood-opacity="0.102"/><feComposite operator="in" in2="b"/><feComposite in="SourceGraphic"/></filter></defs><g class="b" transform="matrix(1, 0, 0, 1, 0, 0)"><path class="a" d="M-13965.413,190.415l-11.316-11.281a2,2,0,0,1-.565-1.134h-10.7a6,6,0,0,1-6-6V-76a6,6,0,0,1,6-6h288a6,6,0,0,1,6,6V172a6,6,0,0,1-6,6h-250.707a1.982,1.982,0,0,1-.567,1.134l-11.312,11.281A1.994,1.994,0,0,1-13964,191,1.992,1.992,0,0,1-13965.413,190.415Z" transform="translate(14012 92)"/></g></svg>