<svg xmlns="http://www.w3.org/2000/svg" xmlns:xlink="http://www.w3.org/1999/xlink" width="68" height="68" viewBox="0 0 68 68"><defs><style>.a{fill:#fff;}.b{fill:#49B776;}.c{filter:url(#a);}</style><filter id="a" x="0" y="0" width="68" height="68" filterUnits="userSpaceOnUse"><feOffset dy="2" input="SourceAlpha"/><feGaussianBlur stdDeviation="3" result="b"/><feFlood flood-opacity="0.102"/><feComposite operator="in" in2="b"/><feComposite in="SourceGraphic"/></filter><linearGradient id="c" x1="0.5" x2="0.5" y2="1" gradientUnits="objectBoundingBox"><stop offset="0" stop-color="#5690ff"/><stop offset="1" stop-color="#766de8"/></linearGradient></defs><g transform="translate(9 7.379)"><g class="c" transform="matrix(1, 0, 0, 1, -9, -7.38)"><circle class="a" cx="25" cy="25" r="25" transform="translate(9 7)"/></g><g transform="translate(2 1.621)"><path class="b" d="M23,0A23,23,0,1,0,46,23,23.068,23.068,0,0,0,23,0Zm0,6.9a6.777,6.777,0,0,1,6.9,6.9A6.777,6.777,0,0,1,23,20.7a6.777,6.777,0,0,1-6.9-6.9A6.777,6.777,0,0,1,23,6.9Zm0,32.66A16.78,16.78,0,0,1,9.2,32.2c0-4.6,9.2-7.13,13.8-7.13S36.8,27.6,36.8,32.2A16.78,16.78,0,0,1,23,39.56Z"/></g></g></svg>