<svg xmlns="http://www.w3.org/2000/svg" width="24" height="24" viewBox="0 0 24 24"><defs><style>.a,.b{fill:black;}.a{opacity:0;}.b{stroke:black;stroke-width:0.3px;}</style></defs><g transform="translate(-1030 -355)"><rect class="a" width="24" height="24" transform="translate(1030 355)"/><g transform="translate(1032.932 357.82)"><path class="b" d="M13.878,9.09l6.658,1.322a1.116,1.116,0,0,1,.9,1.1v7.708A1.132,1.132,0,0,1,20.3,20.357H13.5a.374.374,0,0,0,.378-.378V19.6H20.3a.379.379,0,0,0,.378-.378V11.516a.38.38,0,0,0-.295-.37L13.878,9.861Z" transform="translate(-3.298 -2.177)"/><path class="b" d="M18.889,14a.378.378,0,1,1,0,.756H17.378a.378.378,0,0,1,0-.756Z" transform="translate(-4.153 -2.376)"/><path class="b" d="M18.889,17a.378.378,0,1,1,0,.756H17.378a.378.378,0,0,1,0-.756Z" transform="translate(-4.153 -3.109)"/><path class="b" d="M13.756,19.957a.378.378,0,0,1-.756,0V9.378a.4.4,0,0,1,.136-.295.4.4,0,0,1,.317-.076l.3.06V19.957Z" transform="translate(-3.176 -2.155)"/><path class="b" d="M12.145,23v.378a.374.374,0,0,0,.378.378H9.5a.374.374,0,0,0,.378-.378V23Z" transform="translate(-2.321 -5.575)"/><path class="b" d="M9.889,11a.378.378,0,1,1,0,.756H8.378a.378.378,0,0,1,0-.756Z" transform="translate(-1.955 -4.911)"/><path class="b" d="M9.889,14a.378.378,0,1,1,0,.756H8.378a.378.378,0,0,1,0-.756Z" transform="translate(-1.955 -4.376)"/><path class="b" d="M5.267,14.378a.374.374,0,0,1-.378.378H3.378a.378.378,0,1,1,0-.756H4.889A.374.374,0,0,1,5.267,14.378Z" transform="translate(-0.733 -4.376)"/><path class="b" d="M4.889,11a.378.378,0,0,1,0,.756H3.378a.378.378,0,1,1,0-.756Z" transform="translate(-0.733 -4.911)"/><path class="b" d="M7.778,18.134a.379.379,0,0,0-.378-.378H5.134a.374.374,0,0,0-.378.378v3.4H4v-3.4A1.132,1.132,0,0,1,5.134,17H7.4a1.132,1.132,0,0,1,1.134,1.134v3.4H7.778Z" transform="translate(-0.977 -4.109)"/><path class="b" d="M4.756,23H8.534v.378a.374.374,0,0,1-.378.378H4.378A.374.374,0,0,1,4,23.378V23Z" transform="translate(-0.977 -5.575)"/><path class="b" d="M1.322.2l8.3,1.262a1.129,1.129,0,0,1,.952,1.118V6.913l-.3-.06a.4.4,0,0,0-.317.076.4.4,0,0,0-.136.295V2.576A.382.382,0,0,0,9.507,2.2L1.2.943A.209.209,0,0,0,1.134.936a.356.356,0,0,0-.242.091.361.361,0,0,0-.136.287V17.047a.379.379,0,0,0,.378.378H3.023V17.8a.374.374,0,0,0,.378.378H1.134A1.132,1.132,0,0,1,0,17.047V1.314A1.113,1.113,0,0,1,.4.452,1.134,1.134,0,0,1,1.322.2Z"/></g></g></svg>