<svg xmlns="http://www.w3.org/2000/svg" width="50" height="50" viewBox="0 0 50 50"><defs><style>.a,.b{fill:#49B776;}.a{opacity:0;}.b{stroke:#49B776;stroke-width:0.3px;}</style></defs><g transform="translate(-1030 -355)"><rect class="a" width="50" height="50" transform="translate(1030 355)"/><g transform="translate(1036.108 361.252)"><path class="b" d="M14.287,9.09l13.87,2.755a2.326,2.326,0,0,1,1.873,2.3V30.2a2.358,2.358,0,0,1-2.362,2.362H13.5a.78.78,0,0,0,.787-.787v-.787H27.669a.789.789,0,0,0,.787-.787V14.144a.791.791,0,0,0-.614-.771L14.287,10.7Z" transform="translate(7.754 4.937)"/><path class="b" d="M20.936,14a.787.787,0,0,1,0,1.574H17.787a.787.787,0,0,1,0-1.574Z" transform="translate(9.764 9.84)"/><path class="b" d="M20.936,17a.787.787,0,0,1,0,1.574H17.787a.787.787,0,0,1,0-1.574Z" transform="translate(9.764 11.563)"/><path class="b" d="M14.574,31.828a.787.787,0,0,1-1.574,0V9.787a.837.837,0,0,1,.283-.614.827.827,0,0,1,.661-.157l.63.126V31.828Z" transform="translate(7.466 4.885)"/><path class="b" d="M15.01,23v.787a.78.78,0,0,0,.787.787H9.5a.78.78,0,0,0,.787-.787V23Z" transform="translate(5.456 12.926)"/><path class="b" d="M11.936,11a.787.787,0,0,1,0,1.574H8.787a.787.787,0,0,1,0-1.574Z" transform="translate(4.595 1.309)"/><path class="b" d="M11.936,14a.787.787,0,0,1,0,1.574H8.787a.787.787,0,0,1,0-1.574Z" transform="translate(4.595 5.673)"/><path class="b" d="M7.723,14.787a.78.78,0,0,1-.787.787H3.787a.787.787,0,0,1,0-1.574H6.936A.78.78,0,0,1,7.723,14.787Z" transform="translate(1.723 5.673)"/><path class="b" d="M6.936,11a.787.787,0,1,1,0,1.574H3.787a.787.787,0,0,1,0-1.574Z" transform="translate(1.723 1.309)"/><path class="b" d="M11.872,19.362a.789.789,0,0,0-.787-.787H6.362a.78.78,0,0,0-.787.787v7.085H4V19.362A2.358,2.358,0,0,1,6.362,17h4.723a2.358,2.358,0,0,1,2.362,2.362v7.085H11.872Z" transform="translate(2.297 9.48)"/><path class="b" d="M5.574,23h7.872v.787a.78.78,0,0,1-.787.787H4.787A.78.78,0,0,1,4,23.787V23Z" transform="translate(2.297 12.926)"/><path class="b" d="M2.755.211l17.3,2.629a2.353,2.353,0,0,1,1.984,2.33v9.037l-.63-.126a.827.827,0,0,0-.661.157.837.837,0,0,0-.283.614V5.17a.8.8,0,0,0-.661-.787L2.5,1.77a.436.436,0,0,0-.142-.016.743.743,0,0,0-.5.189.753.753,0,0,0-.283.6V35.319a.789.789,0,0,0,.787.787H6.3v.787a.78.78,0,0,0,.787.787H2.362A2.358,2.358,0,0,1,0,35.319V2.541A2.318,2.318,0,0,1,.834.746,2.363,2.363,0,0,1,2.755.211Z" transform="translate(0 -0.181)"/></g></g></svg>