<svg xmlns="http://www.w3.org/2000/svg" width="30" height="30" viewBox="0 0 30 30"><defs><style>.a,.b{fill:#49B776;}.a{stroke:#707070;opacity:0;}.c{stroke:none;}.d{fill:none;}</style></defs><g transform="translate(-10139 4631)"><g class="a" transform="translate(10139 -4631)"><rect class="c" width="30" height="30"/><rect class="d" x="0.5" y="0.5" width="29" height="29"/></g><g transform="translate(10145.02 -4627.5)"><path class="b" d="M45.138,0H33.877a4.725,4.725,0,0,0-4.425,3.083H40.264a2.411,2.411,0,0,1,0,4.823H29.16v14.42a.674.674,0,0,0,.674.674H41.1a4.717,4.717,0,0,0,4.717-4.717V.674A.674.674,0,0,0,45.138,0ZM36.607,10.325a2.082,2.082,0,1,1-2.081,2.082A2.082,2.082,0,0,1,36.607,10.325Zm-3.14,6.628a1.348,1.348,0,0,1,1.348-1.348H38.4a1.348,1.348,0,0,1,1.348,1.348v2.012H33.467Zm0,0" transform="translate(-27.85 0)"/><path class="b" d="M12.413,100.768a1.064,1.064,0,0,0,0-2.128H0v2.128Zm0,0" transform="translate(0 -94.21)"/></g></g></svg>