<svg xmlns="http://www.w3.org/2000/svg" width="50" height="50" viewBox="0 0 50 50"><defs><style>.a{fill:#252e48;}.b{fill:none;}.c{fill:#fff;}</style></defs><g transform="translate(-19856 -16744)"><circle class="a" cx="25" cy="25" r="25" transform="translate(19856 16744)"/><g transform="translate(19869 16757)"><path class="b" d="M0,0H24V24H0Z"/><path class="c" d="M20,3H19V1H17V3H7V1H5V3H4A2.006,2.006,0,0,0,2,5V21a2.006,2.006,0,0,0,2,2H20a2.006,2.006,0,0,0,2-2V5A2.006,2.006,0,0,0,20,3Zm0,18H4V8H20Z" transform="translate(0 0)"/></g></g></svg>