<svg xmlns="http://www.w3.org/2000/svg" width="24" height="24" viewBox="0 0 24 24"><defs><style>.a,.b{fill:#545f7e;}.a{stroke:#707070;opacity:0;}.c{stroke:none;}.d{fill:none;}</style></defs><g transform="translate(-546 -299)"><g class="a" transform="translate(546 299)"><rect class="c" width="24" height="24"/><rect class="d" x="0.5" y="0.5" width="23" height="23"/></g><g transform="translate(532.047 302)"><g transform="translate(17.6 0)"><g transform="translate(0 0)"><path class="b" d="M132.412,133.539l.007-.007a.28.28,0,0,0,.029-.04s0-.007.007-.011.018-.029.026-.044a.013.013,0,0,1,0-.007c.007-.015.015-.029.022-.048s0,0,0-.007.011-.033.018-.051,0-.007,0-.007a.257.257,0,0,0,.011-.051.033.033,0,0,1,0-.018c0-.015,0-.029.007-.044a.535.535,0,0,0,0-.125.184.184,0,0,0-.007-.044.033.033,0,0,0,0-.018c0-.018-.007-.033-.011-.051s0-.007,0-.007a.288.288,0,0,0-.018-.051s0,0,0-.007-.015-.033-.022-.048a.013.013,0,0,0,0-.007.274.274,0,0,0-.026-.044s0-.007-.007-.011a.383.383,0,0,0-.029-.04l-.007-.007a.524.524,0,0,0-.044-.048l-3.634-3.63a.631.631,0,0,0-.893.893l2.557,2.557H120.232a.63.63,0,1,0,0,1.26H130.4l-2.539,2.539a.63.63,0,1,0,.889.893l3.612-3.612C132.383,133.568,132.4,133.553,132.412,133.539Z" transform="translate(-115.852 -124.14)"/><path class="b" d="M21.021,1.26h4.7a.63.63,0,1,0,0-1.26h-4.7A3.426,3.426,0,0,0,17.6,3.421V14.579A3.426,3.426,0,0,0,21.021,18h4.626a.63.63,0,1,0,0-1.26H21.021a2.164,2.164,0,0,1-2.16-2.16V3.421A2.164,2.164,0,0,1,21.021,1.26Z" transform="translate(-17.6 0)"/></g></g></g></g></svg>