<svg xmlns="http://www.w3.org/2000/svg" width="60" height="60" viewBox="0 0 60 60"><defs><style>.a,.b{fill:#49B77680;}.a{stroke:#707070;opacity:0;}.c{stroke:none;}.d{fill:none;}</style></defs><g transform="translate(-1243 -19)"><g class="a" transform="translate(1243 19)"><rect class="c" width="60" height="60"/><rect class="d" x="0.5" y="0.5" width="59" height="59"/></g><path class="b" d="M30.615,63.75A6.172,6.172,0,0,0,36.769,57.6H24.462A6.152,6.152,0,0,0,30.615,63.75ZM49.077,45.288V29.9c0-9.446-5.046-17.354-13.846-19.446V8.365a4.615,4.615,0,1,0-9.231,0v2.092C17.169,12.55,12.154,20.427,12.154,29.9V45.288L6,51.442v3.077H55.231V51.442Z" transform="translate(1241.999 15.25)"/></g></svg>