<svg xmlns="http://www.w3.org/2000/svg" width="50" height="50" viewBox="0 0 50 50"><defs><style>.a{fill:#766de8;}.b{fill:#fff;}</style></defs><g transform="translate(-621 -309)"><circle class="a" cx="25" cy="25" r="25" transform="translate(621 309)"/><g transform="translate(623.719 318)"><path class="b" d="M17.829,11.3a5.65,5.65,0,1,0-5.65-5.65A5.65,5.65,0,0,0,17.829,11.3ZM20.47,7.9a2.688,2.688,0,0,1-2.678,1.489A2.688,2.688,0,0,1,15.114,7.9Zm11.162,8.82c-.121,3.347-1.482,6.224-4.661,7.283-3.178-1.059-4.54-3.936-4.661-7.283a.446.446,0,0,1,.467-.461A5.591,5.591,0,0,0,26.695,14.9a.436.436,0,0,1,.554,0,5.591,5.591,0,0,0,3.917,1.354A.447.447,0,0,1,31.632,16.717Zm-10.295.035a11.108,11.108,0,0,0,.859,4.066,39.028,39.028,0,0,1-4.367.225c-5.448,0-8.114-.89-9.092-1.325a.843.843,0,0,1-.455-.709V17.146a5.472,5.472,0,0,1,4.837-5.417.452.452,0,0,1,.272.074,7.539,7.539,0,0,0,8.878,0,.452.452,0,0,1,.272-.074,5.469,5.469,0,0,1,3.81,2.249,1.388,1.388,0,0,0-.275.173,4.615,4.615,0,0,1-3.036,1.136c-.072,0-.145,0-.219,0h-.061a1.42,1.42,0,0,0-1.421,1.471Z" transform="translate(2 4)"/></g></g></svg>