<svg xmlns="http://www.w3.org/2000/svg" width="24" height="24" viewBox="0 0 24 24"><defs><style>.a{fill:#49B776;}.b{fill:#fff;stroke:#fff;stroke-width:0.5px;}</style></defs><g transform="translate(-951 -447)"><rect class="a" width="24" height="24" rx="12" transform="translate(951 447)"/><path class="b" d="M12.5,40.118H8v1h4.5a.5.5,0,0,1,.5.5v4a.5.5,0,0,1-.5.5H1.914L4.2,43.83l-.707-.707L0,46.617l3.5,3.5.707-.707L1.914,47.117H12.5a1.5,1.5,0,0,0,1.5-1.5v-4A1.5,1.5,0,0,0,12.5,40.118Z" transform="translate(956 413.883)"/></g></svg>