<svg xmlns="http://www.w3.org/2000/svg" width="50" height="50" viewBox="0 0 50 50"><defs><style>.a{fill:#387dff;}.b{fill:#fff;}</style></defs><g transform="translate(-619 -232)"><circle class="a" cx="25" cy="25" r="25" transform="translate(619 232)"/><g transform="translate(632 245)"><g transform="translate(0 0)"><g transform="translate(1.062 1.06)"><path class="b" d="M24.315,5.815l-.327.1-1.743.155-.492.786-.357-.114L20.007,5.5l-.2-.65-.27-.694-.872-.782-1.029-.2-.024.471,1.008.983.493.581-.554.29-.451-.133-.676-.282.023-.545-.887-.365L16.272,5.45l-.894.2.088.715,1.165.224.2-1.143.962.142.447.262h.717l.491.983,1.3,1.32-.1.513-1.05-.134-1.814.916-1.306,1.566-.17.694h-.469l-.873-.4-.848.4.211.895.369-.426.649-.02-.045.8.538.157.537.6.877-.247,1,.158,1.163.313.581.068.985,1.118,1.9,1.118L21.664,18.6l-1.3.6-.492,1.342L18,21.8l-.2.723A10.925,10.925,0,0,0,24.315,5.815Z" transform="translate(-4.289 -0.962)"/><path class="b" d="M12.2,18.943l-.8-1.477.731-1.524-.731-.219-.821-.825-1.819-.408-.6-1.263v.75H7.893L6.325,11.852V10.106L5.176,8.238l-1.825.325H2.122L1.5,8.157l.789-.625-.787.182a10.925,10.925,0,0,0,9.437,16.452,11.45,11.45,0,0,0,1.373-.1L12.2,22.745s.5-1.968.5-2.035S12.2,18.943,12.2,18.943Z" transform="translate(-0.004 -2.285)"/><path class="b" d="M5.159,3.528,7.1,3.257,8,2.766l1.008.29,1.61-.089.552-.867.8.132,1.954-.183.538-.593.759-.507L16.3,1.11l.391-.059A10.9,10.9,0,0,0,3.6,3.977H3.6Zm7.335-2.44L13.611.473l.717.414-1.038.79-.992.1-.446-.29Zm-3.309.09.493.205.646-.205.352.609-1.49.391-.717-.419S9.169,1.308,9.185,1.178Z" transform="translate(-1.093 0)"/></g><path class="a" d="M30.813,2.767l-13.205.142-4.4.047L0,3.1.03.331,13.235.189l4.4-.047L30.843,0Z" transform="translate(2.191 0) rotate(45)"/><path class="b" d="M30.813,1.339l-13.205.142-4.4.047L0,1.67.014.331,13.22.189l4.4-.047L30.827,0Z" transform="translate(1.691 0.62) rotate(45)"/></g></g></g></svg>