<svg xmlns="http://www.w3.org/2000/svg" width="24" height="24" viewBox="0 0 24 24"><defs><style>.a{fill:#49B776;}.b{fill:#fff;}</style></defs><g transform="translate(-1809 -534)"><circle class="a" cx="12" cy="12" r="12" transform="translate(1809 534)"/><g transform="translate(1813 538)"><g transform="translate(0 0)"><path class="b" d="M20.787,4.9l-.214.068-1.14.1-.322.514-.234-.074-.907-.818-.132-.425-.176-.453-.57-.511-.672-.132-.015.308.659.643.322.38-.362.189-.3-.087-.442-.184L16.3,4.06l-.58-.239-.193.838-.585.133L15,5.26l.762.147.132-.747.629.093.292.171h.469l.321.643.851.863-.062.336-.686-.087-1.186.6L15.67,8.3l-.111.453h-.306l-.571-.263-.555.263.138.585.241-.278.424-.013-.03.525.352.1.351.394.573-.161.655.1.76.2.38.045.644.731,1.243.731-.8,1.535-.848.394-.322.877-1.227.82-.131.473A7.143,7.143,0,0,0,20.787,4.9Z" transform="translate(-6.515 -0.572)"/><path class="b" d="M7.977,14.992l-.521-.966.478-1-.478-.143-.537-.539L5.73,12.081l-.395-.826v.49H5.161l-1.025-1.39V9.215L3.385,7.993l-1.193.213h-.8l-.4-.265L1.5,7.532l-.514.119A7.142,7.142,0,0,0,7.155,18.407a7.485,7.485,0,0,0,.9-.062l-.075-.866s.328-1.287.328-1.33S7.977,14.992,7.977,14.992Z" transform="translate(1.178 -2.949)"/><path class="b" d="M4.618,2.306l1.27-.177.586-.321L7.132,2,8.185,1.94l.361-.567.526.087,1.277-.12L10.7.952,11.2.62l.7.106.256-.039A7.128,7.128,0,0,0,3.6,2.6h0ZM9.413.711l.73-.4.469.271L9.933,1.1l-.648.065L8.993.973ZM7.25.77,7.572.9,7.994.77l.23.4-.974.256L6.781,1.15S7.239.855,7.25.77Z" transform="translate(-0.779 1.153)"/><path class="a" d="M20.542,1.845l-8.8.095L8.8,1.971,0,2.066.02.221l8.8-.095L11.758.095,20.562,0Z" transform="translate(1.461 0) rotate(45)"/><path class="b" d="M20.542.893l-8.8.095L8.8,1.019,0,1.114.01.221l8.8-.095L11.748.095,20.551,0Z" transform="translate(1.127 0.414) rotate(45)"/></g></g></g></svg>