<svg xmlns="http://www.w3.org/2000/svg" width="50" height="50" viewBox="0 0 50 50"><defs><style>.a{fill:rgba(84,95,126,0.5);}.b{fill:#fff;}</style></defs><g transform="translate(-619 -232)"><circle class="a" cx="25" cy="25" r="25" transform="translate(619 232)"/><g transform="translate(632.001 239.436)"><path class="b" d="M10.889,18.453a6.444,6.444,0,1,0-6.444-6.444A6.444,6.444,0,0,0,10.889,18.453Zm2.985-3.9a3.066,3.066,0,0,1-3.054,1.7,3.066,3.066,0,0,1-3.054-1.7Zm10.57,12.792v.889a.444.444,0,0,1-.444.444H16.889a.444.444,0,0,1-.444-.444v-.889a.444.444,0,0,1,.444-.444H24A.444.444,0,0,1,24.444,27.342Zm-8.366,1.94a43.832,43.832,0,0,1-5.189.282c-6.214,0-9.255-1.015-10.369-1.511A.962.962,0,0,1,0,27.244V25.12a6.241,6.241,0,0,1,5.516-6.178.516.516,0,0,1,.31.085,8.6,8.6,0,0,0,10.125,0,.516.516,0,0,1,.31-.085,6.241,6.241,0,0,1,5.516,6.178v.889H16.889a1.335,1.335,0,0,0-1.333,1.333v.889A1.327,1.327,0,0,0,16.078,29.282Z"/></g></g></svg>