<svg xmlns="http://www.w3.org/2000/svg" width="50" height="50" viewBox="0 0 50 50"><defs><style>.a{fill:#545f7e;}.b{fill:#fff;}</style></defs><g transform="translate(-619 -232)"><circle class="a" cx="25" cy="25" r="25" transform="translate(619 232)"/><g transform="translate(632 232.969)"><path class="b" d="M10.5,24.461a6.215,6.215,0,1,0-6.215-6.215A6.215,6.215,0,0,0,10.5,24.461ZM13.509,20.7a2.957,2.957,0,0,1-2.945,1.638A2.957,2.957,0,0,1,7.619,20.7ZM24.829,31.2l-5.686,4.739a.438.438,0,0,1-.577-.026l-2.831-2.831a.43.43,0,0,1,0-.606l.606-.606a.43.43,0,0,1,.606,0l2,2,4.784-3.987a.43.43,0,0,1,.6.055l.549.658A.43.43,0,0,1,24.829,31.2Zm-9.762,2.548,1.078,1.078a40.582,40.582,0,0,1-5.644.354c-5.993,0-8.925-.979-10-1.458a.928.928,0,0,1-.5-.78V30.89a6.019,6.019,0,0,1,5.32-5.958.5.5,0,0,1,.3.082,8.292,8.292,0,0,0,9.765,0,.5.5,0,0,1,.3-.082A6.019,6.019,0,0,1,21,30.89v.035L19,32.59,17.613,31.2a1.371,1.371,0,0,0-1.94,0l-.606.606A1.373,1.373,0,0,0,15.067,33.744Z"/></g></g></svg>